<svg xmlns="http://www.w3.org/2000/svg" xmlns:xlink="http://www.w3.org/1999/xlink" width="190" height="186" viewBox="0 0 190 186">
  <defs>
    <clipPath id="clip-path">
      <rect id="Rectángulo_378676" data-name="Rectángulo 378676" width="187.608" height="169.382" fill="none"/>
    </clipPath>
  </defs>
  <g id="Grupo_1074909" data-name="Grupo 1074909" transform="translate(-396 -2680.358)">
    <circle id="Elipse_5855" data-name="Elipse 5855" cx="93" cy="93" r="93" transform="translate(400 2680.358)" fill="#ffae7e"/>
    <g id="Grupo_1074911" data-name="Grupo 1074911" transform="translate(396 2684.729)">
      <g id="Grupo_1074910" data-name="Grupo 1074910" clip-path="url(#clip-path)">
        <path id="Trazado_825247" data-name="Trazado 825247" d="M96.623,8.64A83.366,83.366,0,0,0,56.112,164.863h81.021A83.366,83.366,0,0,0,96.623,8.64" transform="translate(-0.138 -0.09)" fill="#ddedf5"/>
        <rect id="Rectángulo_378654" data-name="Rectángulo 378654" width="30.926" height="21.75" transform="translate(146.017 122.736)" fill="#f7941d"/>
        <path id="Trazado_825248" data-name="Trazado 825248" d="M146.934,123.461a.6.6,0,0,1,.608.59v21.692a.608.608,0,0,1-1.215,0V124.051a.6.6,0,0,1,.608-.59" transform="translate(-1.524 -1.286)" fill="#f15c00"/>
        <path id="Trazado_825249" data-name="Trazado 825249" d="M179.415,123.461a.6.6,0,0,1,.608.59v21.692a.608.608,0,0,1-1.215,0V124.051a.6.6,0,0,1,.608-.59" transform="translate(-1.863 -1.286)" fill="#f15c00"/>
        <path id="Trazado_825250" data-name="Trazado 825250" d="M168.588,123.461a.6.6,0,0,1,.608.59v21.692a.608.608,0,0,1-1.215,0V124.051a.6.6,0,0,1,.608-.59" transform="translate(-1.75 -1.286)" fill="#f15c00"/>
        <path id="Trazado_825251" data-name="Trazado 825251" d="M157.761,123.461a.6.6,0,0,1,.608.59v21.692a.608.608,0,0,1-1.215,0V124.051a.6.6,0,0,1,.608-.59" transform="translate(-1.637 -1.286)" fill="#f15c00"/>
        <path id="Trazado_825252" data-name="Trazado 825252" d="M162.4,135.65l-2.056,1.188a.122.122,0,0,0,0,.231l2.372,1.37c.11.063.2.012.2-.115v-2.347a.978.978,0,0,1-.516-.326" transform="translate(-1.669 -1.413)" fill="#283541"/>
        <path id="Trazado_825253" data-name="Trazado 825253" d="M162.712,131.568l-2.372,1.37a.122.122,0,0,0,0,.231l2.056,1.188a.978.978,0,0,1,.516-.326v-2.346c0-.128-.09-.179-.2-.116" transform="translate(-1.669 -1.37)" fill="#283541"/>
        <path id="Trazado_825254" data-name="Trazado 825254" d="M164.035,134.7c.029.052.044.087.044.087a.582.582,0,0,1,0,.421s-.015.035-.044.087l2.057,1.188c.11.063.2.012.2-.115v-2.74c0-.127-.09-.179-.2-.115Z" transform="translate(-1.709 -1.391)" fill="#283541"/>
        <path id="Trazado_825255" data-name="Trazado 825255" d="M163.172,135.763a.754.754,0,1,0-.753-.753.754.754,0,0,0,.753.753" transform="translate(-1.692 -1.398)" fill="#283541"/>
        <path id="Trazado_825256" data-name="Trazado 825256" d="M167.354,134.973a4.218,4.218,0,1,1-4.218-4.218,4.222,4.222,0,0,1,4.218,4.218m-8.1,0a3.882,3.882,0,1,0,3.882-3.882,3.887,3.887,0,0,0-3.882,3.882" transform="translate(-1.655 -1.362)" fill="#283541"/>
        <rect id="Rectángulo_378655" data-name="Rectángulo 378655" width="21.75" height="30.926" transform="translate(165.075 112.905)" fill="#fcc000"/>
        <path id="Trazado_825257" data-name="Trazado 825257" d="M189.016,113.472a.6.6,0,0,1-.584.608h-21.5a.609.609,0,0,1,0-1.216h21.5a.6.6,0,0,1,.584.609" transform="translate(-1.733 -1.176)" fill="#f15c00"/>
        <path id="Trazado_825258" data-name="Trazado 825258" d="M189.016,145.953a.6.6,0,0,1-.584.608h-21.5a.609.609,0,0,1,0-1.216h21.5a.6.6,0,0,1,.584.609" transform="translate(-1.733 -1.514)" fill="#f15c00"/>
        <path id="Trazado_825259" data-name="Trazado 825259" d="M189.016,135.126a.6.6,0,0,1-.584.608h-21.5a.608.608,0,0,1,0-1.215h21.5a.6.6,0,0,1,.584.608" transform="translate(-1.733 -1.401)" fill="#f15c00"/>
        <path id="Trazado_825260" data-name="Trazado 825260" d="M189.016,124.3a.6.6,0,0,1-.584.608h-21.5a.609.609,0,0,1,0-1.216h21.5a.6.6,0,0,1,.584.609" transform="translate(-1.733 -1.288)" fill="#f15c00"/>
        <path id="Trazado_825261" data-name="Trazado 825261" d="M177.14,128.935l-1.187-2.056a.122.122,0,0,0-.231,0l-1.37,2.372c-.063.11-.012.2.115.2h2.347a.978.978,0,0,1,.326-.516" transform="translate(-1.816 -1.321)" fill="#283541"/>
        <path id="Trazado_825262" data-name="Trazado 825262" d="M181.224,129.251l-1.37-2.372a.122.122,0,0,0-.231,0l-1.187,2.056a.978.978,0,0,1,.326.516h2.346c.128,0,.179-.09.116-.2" transform="translate(-1.859 -1.321)" fill="#283541"/>
        <path id="Trazado_825263" data-name="Trazado 825263" d="M178.084,130.574c-.052.029-.087.044-.087.044a.582.582,0,0,1-.421,0s-.035-.015-.087-.044l-1.187,2.057c-.063.11-.012.2.115.2h2.74c.127,0,.178-.09.115-.2Z" transform="translate(-1.836 -1.36)" fill="#283541"/>
        <path id="Trazado_825264" data-name="Trazado 825264" d="M177.041,129.711a.754.754,0,1,0,.753-.753.753.753,0,0,0-.753.753" transform="translate(-1.844 -1.343)" fill="#283541"/>
        <path id="Trazado_825265" data-name="Trazado 825265" d="M177.759,133.892a4.218,4.218,0,1,1,4.218-4.218,4.222,4.222,0,0,1-4.218,4.218m0-8.1a3.882,3.882,0,1,0,3.882,3.882,3.887,3.887,0,0,0-3.882-3.882" transform="translate(-1.808 -1.307)" fill="#283541"/>
        <rect id="Rectángulo_378656" data-name="Rectángulo 378656" width="4.819" height="7.795" transform="translate(17.299 107.805)" fill="#283541"/>
        <rect id="Rectángulo_378657" data-name="Rectángulo 378657" width="16.265" height="31.049" transform="translate(11.576 110.181)" fill="#283541"/>
        <rect id="Rectángulo_378658" data-name="Rectángulo 378658" width="16.265" height="3.472" transform="translate(11.576 136.132)" fill="#fcc000"/>
        <rect id="Rectángulo_378659" data-name="Rectángulo 378659" width="16.265" height="7.457" transform="translate(11.576 112.227)" fill="#fcc000"/>
        <path id="Trazado_825266" data-name="Trazado 825266" d="M17.743,116.543h1.53V115h1.221v1.541h1.551v1.22H20.494V119.3H19.273v-1.541h-1.53Z" transform="translate(-0.185 -1.198)" fill="#283541"/>
        <rect id="Rectángulo_378660" data-name="Rectángulo 378660" width="7.795" height="4.322" transform="translate(45.633 131.778)" fill="#1d5a83"/>
        <rect id="Rectángulo_378661" data-name="Rectángulo 378661" width="31.049" height="14.583" transform="translate(20.002 126.647)" fill="#1d5a83"/>
        <rect id="Rectángulo_378662" data-name="Rectángulo 378662" width="3.472" height="14.583" transform="translate(21.628 126.647)" fill="#fcc000"/>
        <rect id="Rectángulo_378663" data-name="Rectángulo 378663" width="7.457" height="14.583" transform="translate(41.549 126.647)" fill="#fcc000"/>
        <rect id="Rectángulo_378664" data-name="Rectángulo 378664" width="1.22" height="4.302" transform="translate(22.754 131.788)" fill="#283541"/>
        <path id="Trazado_825267" data-name="Trazado 825267" d="M43.58,134.715h1.53v-1.541h1.22v1.541h1.552v1.22H46.331v1.541H45.11v-1.541H43.58Z" transform="translate(-0.454 -1.387)" fill="#283541"/>
        <rect id="Rectángulo_378665" data-name="Rectángulo 378665" width="5.654" height="7.681" transform="translate(38.537 24.804) rotate(-66.67)" fill="#fcc000"/>
        <path id="Trazado_825268" data-name="Trazado 825268" d="M57.735,11.043a1.667,1.667,0,0,0-1.718-.126l-7.878,3.13a4.643,4.643,0,0,0-2.608,3.207l-.573,3.274a1.5,1.5,0,0,0,2.189,1.78l7.9-3.139a4.626,4.626,0,0,0,2.6-3.209l.562-3.263a1.666,1.666,0,0,0-.477-1.655M55.551,15.6a2.565,2.565,0,0,1-1.29,1.591l-7.046,2.8.414-2.368a2.589,2.589,0,0,1,1.3-1.6l7.033-2.795Z" transform="translate(-0.468 -0.112)" fill="#fcc000"/>
        <path id="Trazado_825269" data-name="Trazado 825269" d="M45.928,19.251a6.4,6.4,0,0,0-2.916,2.7l-1.429,2.916a5.513,5.513,0,0,0-.15,3.892l6.887,17.329a2.136,2.136,0,0,0,2.766,1.192l18.5-7.353a2.137,2.137,0,0,0,1.193-2.766l-8.75-22.016a2.135,2.135,0,0,0-2.766-1.192Z" transform="translate(-0.429 -0.144)" fill="#f15c00"/>
        <path id="Trazado_825270" data-name="Trazado 825270" d="M53.764,13.772a4.341,4.341,0,0,1,2.381-2.878l1.766-.7a2.075,2.075,0,0,1,2.718,1.074,2.075,2.075,0,0,1-1.24,2.647l-4.14,1.646a9.1,9.1,0,0,0-2,1.237s.394-2.41.42-2.542Z" transform="translate(-0.555 -0.105)" fill="#f15c00"/>
        <rect id="Rectángulo_378666" data-name="Rectángulo 378666" width="5.609" height="11.805" transform="matrix(0.929, -0.369, 0.369, 0.929, 54.862, 13.232)" fill="#f15c00"/>
        <path id="Trazado_825271" data-name="Trazado 825271" d="M54.47,38.534a3.194,3.194,0,0,1-2.987-2.023l-1.809-4.552a3.212,3.212,0,0,1,1.8-4.166l4.552-1.809a3.21,3.21,0,0,1,4.167,1.8L62,32.332A3.212,3.212,0,0,1,60.2,36.5l-4.553,1.81a3.187,3.187,0,0,1-1.179.226M57.2,27.914a1.045,1.045,0,0,0-.383.073L52.267,29.8a1.053,1.053,0,0,0-.589,1.366l1.809,4.552a1.079,1.079,0,0,0,1.366.589l4.552-1.809a1.057,1.057,0,0,0,.589-1.365l-1.809-4.553a1.063,1.063,0,0,0-.983-.662" transform="translate(-0.515 -0.268)" fill="#fcc000"/>
        <path id="Trazado_825272" data-name="Trazado 825272" d="M50.611,31.071a1.083,1.083,0,0,1-.427-.088l-5.707-2.461a1.078,1.078,0,1,1,.855-1.98L51.038,29a1.079,1.079,0,0,1-.427,2.069" transform="translate(-0.457 -0.276)" fill="#fcc000"/>
        <path id="Trazado_825273" data-name="Trazado 825273" d="M66.844,38.072a1.083,1.083,0,0,1-.427-.088l-5.706-2.461a1.079,1.079,0,1,1,.854-1.981L67.271,36a1.079,1.079,0,0,1-.427,2.069" transform="translate(-0.626 -0.348)" fill="#fcc000"/>
        <path id="Trazado_825274" data-name="Trazado 825274" d="M58.161,28.06a1.076,1.076,0,0,1-.99-1.505l2.46-5.707a1.079,1.079,0,1,1,1.981.855l-2.46,5.7a1.077,1.077,0,0,1-.992.652" transform="translate(-0.595 -0.21)" fill="#fcc000"/>
        <path id="Trazado_825275" data-name="Trazado 825275" d="M51.16,44.294a1.079,1.079,0,0,1-.991-1.506l2.461-5.706a1.079,1.079,0,0,1,1.982.854l-2.461,5.706a1.079,1.079,0,0,1-.992.652" transform="translate(-0.522 -0.379)" fill="#fcc000"/>
        <path id="Trazado_825276" data-name="Trazado 825276" d="M40.924,31.657a2.174,2.174,0,1,1-4.3-.046c.014-1.379,2.195-4.248,2.195-4.248s2.119,2.914,2.1,4.294" transform="translate(-0.381 -0.285)" fill="#283541"/>
        <path id="Trazado_825277" data-name="Trazado 825277" d="M185.63,50.225a.706.706,0,0,1-.12-.01.7.7,0,0,1-.495-.358l-4.455-8.324a.689.689,0,0,1-.066-.185l-1.217-5.775a.708.708,0,0,1,0-.27l1.256-6.849a.7.7,0,0,1,.863-.549c.245.064,6.035,1.66,7.684,9.48,1.745,8.277-2.783,12.486-2.978,12.661a.7.7,0,0,1-.468.18m-3.79-9.263,3.936,7.359c1.1-1.4,3.14-4.927,1.934-10.648-1.14-5.409-4.483-7.48-5.957-8.145l-1.081,5.892Z" transform="translate(-1.867 -0.29)" fill="#283541"/>
        <rect id="Rectángulo_378667" data-name="Rectángulo 378667" width="33.975" height="5.905" transform="translate(144.847 42.14) rotate(-11.898)" fill="#283541"/>
        <path id="Trazado_825278" data-name="Trazado 825278" d="M180.58,35.358l1.614.89.78,3.7-1.065,1.567.8,1.245,1.577-2.259a.7.7,0,0,0,.111-.544l-.9-4.288a.7.7,0,0,0-.321-.453l-2.355-1.431Z" transform="translate(-1.881 -0.352)" fill="#283541"/>
        <rect id="Rectángulo_378668" data-name="Rectángulo 378668" width="3.187" height="1.59" transform="translate(182.149 36.628) rotate(-11.891)" fill="#283541"/>
        <path id="Trazado_825279" data-name="Trazado 825279" d="M187.9,38.241l-1.578-.9,1.082-1.459Z" transform="translate(-1.941 -0.374)" fill="#283541"/>
        <path id="Trazado_825280" data-name="Trazado 825280" d="M183.7,36.669l1.578.9-1.082,1.459Z" transform="translate(-1.914 -0.382)" fill="#283541"/>
        <rect id="Rectángulo_378669" data-name="Rectángulo 378669" width="1.59" height="6.189" transform="translate(180.697 41.455) rotate(-56.884)" fill="#283541"/>
        <path id="Trazado_825281" data-name="Trazado 825281" d="M183.685,30.252l1.05.773-2.313,4.3-1.05-.773Z" transform="translate(-1.889 -0.315)" fill="#283541"/>
        <path id="Trazado_825282" data-name="Trazado 825282" d="M177.27,70.771h-22.3l7.966-25.164H169.3Zm-20.4-1.4h18.488L168.28,47h-4.322Z" transform="translate(-1.614 -0.475)" fill="#283541"/>
        <path id="Trazado_825283" data-name="Trazado 825283" d="M167.167,46.325V44.5a.942.942,0,1,0-1.881,0v1.824Z" transform="translate(-1.722 -0.453)" fill="#283541"/>
        <path id="Trazado_825284" data-name="Trazado 825284" d="M174.343,65.583h-16.7a.7.7,0,1,1,0-1.4h16.7a.7.7,0,0,1,0,1.4" transform="translate(-1.635 -0.669)" fill="#283541"/>
        <path id="Trazado_825285" data-name="Trazado 825285" d="M172.56,59.383H159.645a.7.7,0,1,1,0-1.4H172.56a.7.7,0,1,1,0,1.4" transform="translate(-1.656 -0.604)" fill="#283541"/>
        <path id="Trazado_825286" data-name="Trazado 825286" d="M170.547,53.183h-8.726a.7.7,0,1,1,0-1.4h8.726a.7.7,0,1,1,0,1.4" transform="translate(-1.678 -0.539)" fill="#283541"/>
        <path id="Trazado_825287" data-name="Trazado 825287" d="M149.9,49.766l-1.483,2.626-1.232-6.043,1.939-.395Z" transform="translate(-1.533 -0.479)" fill="#283541"/>
        <rect id="Rectángulo_378670" data-name="Rectángulo 378670" width="0.51" height="20.071" transform="translate(146.809 51.294) rotate(-9.499)" fill="#283541"/>
        <rect id="Rectángulo_378671" data-name="Rectángulo 378671" width="42.473" height="4.146" transform="translate(143.488 69.598)" fill="#283541"/>
        <path id="Trazado_825288" data-name="Trazado 825288" d="M128.18,9.828a12.242,12.242,0,0,0-1.8.132,7.693,7.693,0,0,0-7-4.151,8.517,8.517,0,0,0-1.024.068,6.916,6.916,0,0,0-13.578-.509,6.9,6.9,0,0,0-8.635,6.018,6.923,6.923,0,1,0-3.384,12.961,6.985,6.985,0,0,0,1.023-.084,6.913,6.913,0,0,0,9.211,3.9,11.866,11.866,0,0,0,8.222,2.944c4.547,0,8.388-2.081,9.628-4.938A6.909,6.909,0,0,0,131.4,23.244c3.526-.98,6.038-3.517,6.038-6.494,0-3.823-4.144-6.923-9.258-6.923" transform="translate(-0.894)" fill="#1d5a83"/>
        <path id="Trazado_825289" data-name="Trazado 825289" d="M98.772,41.533c-.806,2.6-3.271,4.14-5.505,3.447s-3.392-3.361-2.587-5.957,6.539-6.783,6.539-6.783,2.358,6.7,1.553,9.293" transform="translate(-0.942 -0.336)" fill="#81bd1f"/>
        <path id="Trazado_825290" data-name="Trazado 825290" d="M112.347,41.533c-.806,2.6-3.271,4.14-5.505,3.447s-3.392-3.361-2.587-5.957,6.539-6.783,6.539-6.783,2.358,6.7,1.553,9.293" transform="translate(-1.083 -0.336)" fill="#81bd1f"/>
        <path id="Trazado_825291" data-name="Trazado 825291" d="M125.655,41.533c-.806,2.6-3.271,4.14-5.505,3.447s-3.392-3.361-2.587-5.957S124.1,32.24,124.1,32.24s2.358,6.7,1.553,9.293" transform="translate(-1.222 -0.336)" fill="#81bd1f"/>
        <path id="Trazado_825292" data-name="Trazado 825292" d="M111.541,7.1a4.96,4.96,0,0,0-3.133,8.8v2.709h6.265V15.907a4.959,4.959,0,0,0-3.132-8.8m-2.187,6.775a1.619,1.619,0,1,1,1.619-1.619,1.618,1.618,0,0,1-1.619,1.619m4.373,0a1.619,1.619,0,1,1,1.619-1.619,1.618,1.618,0,0,1-1.619,1.619" transform="translate(-1.11 -0.074)" fill="#81bd1f"/>
        <rect id="Rectángulo_378672" data-name="Rectángulo 378672" width="1.305" height="12.856" transform="translate(104.02 20.157) rotate(-73.122)" fill="#81bd1f"/>
        <path id="Trazado_825293" data-name="Trazado 825293" d="M118.655,24.728a.75.75,0,1,1-1.436-.434l.53-1.749a.75.75,0,1,1,1.436.434Z" transform="translate(-1.221 -0.229)" fill="#81bd1f"/>
        <path id="Trazado_825294" data-name="Trazado 825294" d="M105.417,20.712a.75.75,0,0,1-1.436-.435l.53-1.749a.75.75,0,1,1,1.436.435Z" transform="translate(-1.083 -0.187)" fill="#81bd1f"/>
        <rect id="Rectángulo_378673" data-name="Rectángulo 378673" width="12.856" height="1.305" transform="matrix(0.957, -0.29, 0.29, 0.957, 104.16, 22.641)" fill="#81bd1f"/>
        <path id="Trazado_825295" data-name="Trazado 825295" d="M104.51,24.728a.751.751,0,1,0,1.437-.434l-.531-1.749a.75.75,0,1,0-1.436.434Z" transform="translate(-1.083 -0.229)" fill="#81bd1f"/>
        <path id="Trazado_825296" data-name="Trazado 825296" d="M117.748,20.712a.751.751,0,0,0,1.437-.435l-.531-1.749a.75.75,0,1,0-1.436.435Z" transform="translate(-1.221 -0.187)" fill="#81bd1f"/>
        <path id="Trazado_825297" data-name="Trazado 825297" d="M10.788,79.556a5.809,5.809,0,0,0-5.8.544c-.33.078-2.723-.131-2.992.4-.276.55-.353,3.4-1.545,4.321-1.568,1.218,1.414,2.683,2.26,2.81.8.122,5.521.063,6.773-.04a3.452,3.452,0,0,0,2.281-1.508,4.236,4.236,0,0,0,.675-1.445,7.033,7.033,0,0,1,1.036-1.819c.867-1.478-1.788-2.818-2.685-3.267" transform="translate(0 -0.823)" fill="#283541"/>
        <path id="Trazado_825298" data-name="Trazado 825298" d="M35.419,79.611a5.809,5.809,0,0,0-5.8.544,4.463,4.463,0,0,1-1.026.135c-.4,0-1.7-.265-1.965.268-.276.55-.033.911.249,1.444,1.043,1.964-.6,1.952-1.794,2.877-1.568,1.218,1.414,2.683,2.26,2.81.8.122,1.671-.584,2.353-.867,1.032-.427,3.168.93,4.419.827a3.449,3.449,0,0,0,2.281-1.508,4.245,4.245,0,0,0,.675-1.445A7.034,7.034,0,0,1,38.1,82.878c.867-1.478-1.788-2.818-2.685-3.267" transform="translate(-0.257 -0.824)" fill="#283541"/>
        <path id="Trazado_825299" data-name="Trazado 825299" d="M28.976,87.51H8.752L7.631,60.517H30.1Z" transform="translate(-0.079 -0.63)" fill="#f15c00"/>
        <path id="Trazado_825300" data-name="Trazado 825300" d="M28.976,87.51H8.752L7.631,60.517H30.1Z" transform="translate(-0.079 -0.63)" fill="#fcc000"/>
        <path id="Trazado_825301" data-name="Trazado 825301" d="M8.751,87.51h4.02l-.207-26.993H7.63Z" transform="translate(-0.079 -0.63)" fill="#f15c00"/>
        <path id="Trazado_825302" data-name="Trazado 825302" d="M29.158,87.51H25.139l.209-26.993h4.935Z" transform="translate(-0.262 -0.63)" fill="#f15c00"/>
        <path id="Trazado_825303" data-name="Trazado 825303" d="M21.125,87.51H16.788l-.239-26.993h4.82Z" transform="translate(-0.172 -0.63)" fill="#f15c00"/>
        <path id="Trazado_825304" data-name="Trazado 825304" d="M22.852,54.918A2.769,2.769,0,0,0,19.922,52.8l-1.164.082a2.77,2.77,0,0,0-2.6,2.508Z" transform="translate(-0.168 -0.55)" fill="#f15c00"/>
        <rect id="Rectángulo_378674" data-name="Rectángulo 378674" width="26.075" height="3.928" transform="translate(6.323 55.422) rotate(-4.03)" fill="#fcc000"/>
        <path id="Trazado_825305" data-name="Trazado 825305" d="M30.3,87.744h7.493s2.047-1.048,1.133-1.963-2.453-2.8-2.986-2.266-3.283-1.318-3.62,0-.752,1.132-1.431,1.812-2.273,2.214-.59,2.418" transform="translate(-0.308 -0.865)" fill="#81bd1f"/>
        <path id="Trazado_825306" data-name="Trazado 825306" d="M5.053,87.75h6.5s1.776-.909.983-1.7S12.407,84,8.867,83.57c-1.171-.142-2.713,1.494-3.3,2.083s-1.971,1.921-.512,2.1" transform="translate(-0.046 -0.87)" fill="#81bd1f"/>
        <path id="Trazado_825307" data-name="Trazado 825307" d="M22.115,87.728H32.239s.774-2.863-.489-3.283A3.088,3.088,0,0,1,29.668,82c0-.758-2.463-.758-2.463.674s-1.744,1.678-2.273,1.937c-.943.46-2.816,3.114-2.816,3.114" transform="translate(-0.23 -0.849)" fill="#1d5a83"/>
        <path id="Trazado_825308" data-name="Trazado 825308" d="M1.55,87.742H8.087S8.861,83.7,7.6,83.105a3.579,3.579,0,0,0-3.232.238c-.943.65-2.816,4.4-2.816,4.4" transform="translate(-0.016 -0.863)" fill="#1d5a83"/>
        <path id="Trazado_825309" data-name="Trazado 825309" d="M97.311,130.782l-1.762,28.173,12.837-.109-4.474-56.616,11.75-14.951-.124-.11L103.623,98.585,101.616,73.1l-.728,0-.439,7.011-5.907-6.64-.073.05,5.844,8.79L97.786,123.07,79.447,100.44l-.238.175,6.037,10.06-8.833-.288-.02.089,9.758,1.714Z" transform="translate(-0.796 -0.761)" fill="#283541"/>
        <path id="Trazado_825310" data-name="Trazado 825310" d="M127.379,130.333l1.762,28.173L116.3,158.4l3.388-44.21-11.75-14.951.124-.11L119.98,110.54l3.093-37.894.728,0,.8,13.426,5.907-6.64.073.05-5.844,8.79L126.9,122.62l18.339-22.63.238.175-6.037,10.06,8.833-.288.02.089-9.758,1.714Z" transform="translate(-1.124 -0.757)" fill="#283541"/>
        <path id="Trazado_825311" data-name="Trazado 825311" d="M118.827,140.931l-7.672-7.352-.125.111,7.011,8.92a18.066,18.066,0,0,0,.786-1.679" transform="translate(-1.157 -1.391)" fill="#283541"/>
        <path id="Trazado_825312" data-name="Trazado 825312" d="M125.16,105.732l3.611-6.018-.238-.175-4.7,5.8a4.584,4.584,0,0,0,1.324.4" transform="translate(-1.29 -1.037)" fill="#283541"/>
        <path id="Trazado_825313" data-name="Trazado 825313" d="M125.637,86.628l7.895-1.386-.02-.089-7.493.244a3.121,3.121,0,0,0-.382,1.231" transform="translate(-1.309 -0.887)" fill="#283541"/>
        <path id="Trazado_825314" data-name="Trazado 825314" d="M71.622,130.333l-1.762,28.173L82.7,158.4l-3.388-44.21,11.75-14.951-.124-.11L79.021,110.54,75.927,72.646l-.728,0-.8,13.426-5.907-6.64-.074.05,5.845,8.79L72.1,122.62,53.758,99.99l-.238.175,6.037,10.06-8.833-.288-.02.089,9.758,1.714Z" transform="translate(-0.528 -0.757)" fill="#283541"/>
        <path id="Trazado_825315" data-name="Trazado 825315" d="M80.516,140.931l7.672-7.352.125.111L81.3,142.61a18.064,18.064,0,0,1-.786-1.679" transform="translate(-0.839 -1.391)" fill="#283541"/>
        <path id="Trazado_825316" data-name="Trazado 825316" d="M74.214,105.732,70.6,99.714l.238-.175,4.7,5.8a4.583,4.583,0,0,1-1.324.4" transform="translate(-0.735 -1.037)" fill="#283541"/>
        <path id="Trazado_825317" data-name="Trazado 825317" d="M73.706,86.628l-7.895-1.386.02-.089,7.493.244a3.122,3.122,0,0,1,.382,1.231" transform="translate(-0.686 -0.887)" fill="#283541"/>
        <path id="Trazado_825318" data-name="Trazado 825318" d="M119.377,177.073c-6.408-7.611-21.473-22.827-39.58-23.039-18.621-.224-34.462,15.975-40.475,23.039Z" transform="translate(17.167 -8.986)" fill="#ffc104"/>
        <path id="Trazado_825319" data-name="Trazado 825319" d="M155.467,113.931a.605.605,0,0,0,.453-.934c-1.562-2.144-4.7-4.475-7.446-3.233a.423.423,0,0,0-.241.27.7.7,0,0,0-.486,1.072c1.767,2.988,4.587,2.978,7.72,2.825" transform="translate(-1.538 -1.14)" fill="#f15c00"/>
        <path id="Trazado_825320" data-name="Trazado 825320" d="M62.977,80.017a.485.485,0,0,0-.147.818c1.666,1.314,4.588,2.432,6.436.882a.342.342,0,0,0,.128-.26.56.56,0,0,0,.143-.931c-2.008-1.92-4.177-1.3-6.559-.509" transform="translate(-0.653 -0.826)" fill="#f15c00"/>
        <rect id="Rectángulo_378675" data-name="Rectángulo 378675" width="80.056" height="7.059" transform="translate(56.488 162.319)" fill="#ffc104"/>
      </g>
    </g>
  </g>
</svg>
