<svg id="Grupo_1075384" data-name="Grupo 1075384" xmlns="http://www.w3.org/2000/svg" xmlns:xlink="http://www.w3.org/1999/xlink" width="300.764" height="193.456" viewBox="0 0 300.764 193.456">
  <defs>
    <clipPath id="clip-path">
      <rect id="Rectángulo_379538" data-name="Rectángulo 379538" width="300.764" height="193.456" fill="none"/>
    </clipPath>
    <clipPath id="clip-path-4">
      <rect id="Rectángulo_379531" data-name="Rectángulo 379531" width="100.256" height="2.979" fill="none"/>
    </clipPath>
    <clipPath id="clip-path-5">
      <rect id="Rectángulo_379535" data-name="Rectángulo 379535" width="34.417" height="34.417" fill="none"/>
    </clipPath>
  </defs>
  <g id="Grupo_1075415" data-name="Grupo 1075415" clip-path="url(#clip-path)">
    <g id="Grupo_1075406" data-name="Grupo 1075406">
      <g id="Grupo_1075405" data-name="Grupo 1075405" clip-path="url(#clip-path)">
        <path id="Trazado_826490" data-name="Trazado 826490" d="M114.868,76.979c3.169,10.232,11.41,17.919,18.864,25.611s14.788,16.739,15.279,27.439c.705,15.383-12.967,28.876-11.607,44.216,1.183,13.342,14.164,23.4,27.466,24.972s26.518-3.617,38.092-10.358,22.193-15.129,34.244-20.977c17.372-8.429,36.841-11.181,55.761-15.033,13.921-2.835,28.368-6.664,38.738-16.374a39.485,39.485,0,0,0,12.638-29.107c-.226-10.892-5.794-21.678-14.894-27.668-14.1-9.283-32.774-5.967-49.025-1.386s-33.733,10.075-49.568,4.213C215,76.657,205.176,60.947,191.365,51.186c-15.1-10.675-36.283-12.839-54.434-11.633-17.065,1.133-26.791,22.162-22.063,37.426" transform="translate(-57.163 -19.74)" fill="#c1e29a"/>
        <path id="Trazado_826491" data-name="Trazado 826491" d="M508.005,73.155l16.272,6.613c1.788.727,3.692,1.468,5.6,1.145,3.53-.6,5.511-4.8,4.877-8.329s-3.134-6.4-5.724-8.872a37.215,37.215,0,0,0-11.485-7.9,19.471,19.471,0,0,0-13.7-.678c-3.289,1.178-9.265,5.486-8.373,9.645.882,4.113,9.246,7.035,12.534,8.371" transform="translate(-249.11 -27.251)" fill="#c1e29a"/>
      </g>
    </g>
    <g id="Grupo_1075414" data-name="Grupo 1075414">
      <g id="Grupo_1075413" data-name="Grupo 1075413" clip-path="url(#clip-path)">
        <path id="Trazado_826492" data-name="Trazado 826492" d="M157.206,219.527c-.264-.284-.538-.559-.812-.834h0a68.2,68.2,0,0,0-8.5-6.851c-4.784-3.448-9.3-6.7-12.111-11.577-1.876-3.255-2.8-7.024-3.691-10.669-.287-1.172-.584-2.384-.908-3.564-1.772-6.443-4.3-10.537-7.96-12.883-2.855-1.831-6.245-2.422-9.523-2.993-2.981-.52-6.064-1.056-8.661-2.534-2.73-1.554-4.825-4.081-6.852-6.525l-.126-.152c-2.327-2.806-4.492-5.25-7.422-6.736-2.877-1.46-7.042-1.848-9.863.573-3.536,3.038-2.978,8.7-.963,12.668a44.9,44.9,0,0,0,2.821,4.6,29.741,29.741,0,0,1,3.665,6.616c1.277,3.688,1.038,7.813.806,11.8-.278,4.794-.566,9.751,1.769,14.014,2.6,4.754,7.612,7.154,12.455,9.475,3.935,1.886,8,3.835,10.783,7.035,3.77,4.339,4.616,10.03,5.511,16.054A52.3,52.3,0,0,0,120.2,248.43a25.161,25.161,0,0,0,11.975,13.132,36.347,36.347,0,0,0,14.7,3.515,13.669,13.669,0,0,0,5.828-1.083c6.477-3.117,11.017-12.154,12.154-19.471a30.629,30.629,0,0,0-7.647-25m-1.876-.491-5.143,31.408-10.61-14.766.024,0,4.195-25.617c1.161.884,2.344,1.737,3.518,2.583a71.028,71.028,0,0,1,8.016,6.389m-12.416-9.653-.013,0-4.124,25.184L128.166,219.8l.025,0,4.152-25.352a29.042,29.042,0,0,0,2.581,6.309,30.78,30.78,0,0,0,7.991,8.624m-12.688-23.089c.321,1.166.616,2.372.9,3.537.189.772.382,1.55.583,2.328l-4.343,26.526-10.611-14.766.025,0,4.989-30.469c.311.165.619.338.919.53,3.44,2.206,5.835,6.118,7.538,12.31m-9.391-13.288-4.879,29.8-10.611-14.766.024,0,2.951-18.022a48.765,48.765,0,0,0,5.21,1.112,31.627,31.627,0,0,1,7.3,1.873M97.424,161.729c2.083,2.513,4.237,5.111,7.125,6.755a16.171,16.171,0,0,0,2.814,1.236l-2.818,17.207L93.934,172.16l.025,0,1.993-12.173c.446.513.893,1.039,1.346,1.585Zm-11.609-7.7a9.891,9.891,0,0,1,4.377,1.067,17.672,17.672,0,0,1,4.908,3.95l-1.966,12.005L81.786,155.255a6.738,6.738,0,0,1,4.028-1.23m-4.778,1.89L92.184,171.43,82.36,169.82A31.793,31.793,0,0,1,80.7,167c-1.762-3.473-2.343-8.312.334-11.082m6.206,22.424a30.5,30.5,0,0,0-3.779-6.845l-.363-.545L93,172.571l10.59,14.737-15.3-2.5-.019.118a21.314,21.314,0,0,0-1.037-6.583m.86,12.185c.09-1.561.181-3.14.185-4.714l16.129,2.641,10.59,14.738-26.881-4.4a44.368,44.368,0,0,1-.023-8.262M89.75,204a14.082,14.082,0,0,1-1.46-4.181l27.536,4.51,10.589,14.737L107.708,216l-.022.133c-1.9-1.147-3.926-2.121-5.924-3.078C96.845,210.7,92.2,208.476,89.75,204m23.117,16.335a19.291,19.291,0,0,0-3.411-3.04l17.782,2.912,10.59,14.737-20.038-3.281-.019.119c-.815-4.177-2.084-8.2-4.9-11.447m5.075,12.361,20.706,3.39,10.59,14.738-28.785-4.714a63.866,63.866,0,0,1-1.842-9.215c-.207-1.4-.418-2.8-.669-4.2m34.327,30.4c-4.879,2.347-14.716.057-19.651-2.424a24.152,24.152,0,0,1-11.5-12.606c-.114-.293-.216-.592-.32-.89l29.257,4.791,6.028,8.388a14.624,14.624,0,0,1-3.818,2.741m11.6-18.728a30.68,30.68,0,0,1-7.081,15.262l-5.8-8.074.024,0,5.182-31.649c.093.1.191.192.283.291a29.613,29.613,0,0,1,7.393,24.167" transform="translate(-39.331 -76.956)" fill="#bcdffd"/>
        <path id="Trazado_826493" data-name="Trazado 826493" d="M107.994,330.17c-6.857-3.752-12.2-9.751-16.9-16S82.171,301.287,76.809,295.6a62.145,62.145,0,0,0-19.2-13.775,1.318,1.318,0,0,1,.465-2.518c13.71-.7,27.61.63,40.344,5.648,14.5,5.713,27.37,16.621,33.185,31.078,2.2,5.471,3.983,15.065-3.333,17.015-6.644,1.771-14.348.364-20.277-2.879" transform="translate(-28.579 -140.366)" fill="#9dcbf2"/>
        <path id="Trazado_826494" data-name="Trazado 826494" d="M134.078,330.388a.5.5,0,0,1-.458-.3c-9.181-21.509-27.637-33.347-41.5-39.491a109.764,109.764,0,0,0-28.193-8.267.5.5,0,1,1,.116-.987,110.917,110.917,0,0,1,28.48,8.345c14.029,6.216,32.707,18.2,42.015,40.009a.5.5,0,0,1-.262.653.492.492,0,0,1-.195.04" transform="translate(-31.924 -141.475)" fill="#74a4cf"/>
        <path id="Trazado_826495" data-name="Trazado 826495" d="M374.583,107.3a11.875,11.875,0,0,1,5.767-8c4.838-2.718,11.892-2.307,15.227-6.666,3.3-4.314,1.685-11.934,5.976-15.276,3.9-3.036,10.586-.837,15.065-3.084,2.235-1.121,3.687-3.241,5.691-4.685s5.141-2.06,7.4-.189a5.987,5.987,0,0,1,1.876,5.721,11.832,11.832,0,0,1-2.754,4.874,13.305,13.305,0,0,0-2.888,4.792c-.962,3.6.909,8.027-.256,11.538-.923,2.782-3.573,4.413-6.275,5.525s-5.647,1.9-7.853,3.714c-4.242,3.484-4.858,9.915-8.026,14.406a15.3,15.3,0,0,1-13.527,6.089c-4.273-.252-10.489-2.338-13.5-6.21-2.395-3.079-2.569-9.443-1.927-12.547" transform="translate(-188.204 -34.309)" fill="#9dcbf2"/>
        <path id="Trazado_826496" data-name="Trazado 826496" d="M383.524,123.457a.5.5,0,0,1-.359-.841l50.6-52.889a.5.5,0,1,1,.718.688l-50.6,52.889a.5.5,0,0,1-.359.154" transform="translate(-192.61 -34.986)" fill="#74a4cf"/>
        <path id="Trazado_826497" data-name="Trazado 826497" d="M429.261,143.943c3.843-.648,7.339-2.6,10.573-4.779s6.31-4.613,9.765-6.418a30.993,30.993,0,0,1,11.294-3.356.657.657,0,0,0,.192-1.263,48.088,48.088,0,0,0-19.931-3.925c-7.763.325-15.61,3.363-20.709,9.225-1.93,2.219-4.337,6.448-1.208,8.561a14.235,14.235,0,0,0,10.024,1.954" transform="translate(-210.061 -62.441)" fill="#bcdffd"/>
        <path id="Trazado_826498" data-name="Trazado 826498" d="M419.58,142.947a.248.248,0,0,1-.183-.414c15.2-16.745,40.852-11.331,41.109-11.274a.248.248,0,0,1,.189.3.245.245,0,0,1-.3.188c-.254-.055-25.632-5.406-40.635,11.123a.247.247,0,0,1-.183.081" transform="translate(-210.867 -65.563)" fill="#8abbe6"/>
        <rect id="Rectángulo_379493" data-name="Rectángulo 379493" width="17.897" height="120.804" transform="translate(216.262 72.652)" fill="#7816c2"/>
        <rect id="Rectángulo_379494" data-name="Rectángulo 379494" width="14.141" height="65.125" transform="translate(218.14 77.126)" fill="#f9e7c5"/>
        <rect id="Rectángulo_379495" data-name="Rectángulo 379495" width="12.347" height="1.461" transform="translate(219.036 78.866)" fill="#7816c2"/>
        <rect id="Rectángulo_379496" data-name="Rectángulo 379496" width="12.347" height="1.461" transform="translate(219.036 138.025)" fill="#7816c2"/>
        <path id="Trazado_826499" data-name="Trazado 826499" d="M452.941,337.1a6.463,6.463,0,1,1-6.463-6.463,6.463,6.463,0,0,1,6.463,6.463" transform="translate(-221.268 -166.268)" fill="#c7c7c7"/>
        <path id="Trazado_826500" data-name="Trazado 826500" d="M452.952,338.094a5.484,5.484,0,1,1-5.483-5.483,5.483,5.483,0,0,1,5.483,5.483" transform="translate(-222.259 -167.258)" fill="#c1e29a"/>
        <path id="Trazado_826501" data-name="Trazado 826501" d="M438.151,384.947a5.928,5.928,0,0,1,2.993,0,5.929,5.929,0,0,1-2.993,0" transform="translate(-220.331 -193.48)" fill="#080c1f"/>
        <path id="Trazado_826502" data-name="Trazado 826502" d="M438.151,380.447a2.067,2.067,0,0,1,1.74,0,2.067,2.067,0,0,1-1.74,0" transform="translate(-220.331 -191.217)" fill="#080c1f"/>
        <rect id="Rectángulo_379497" data-name="Rectángulo 379497" width="17.897" height="120.804" transform="translate(199.359 72.652)" fill="#ffae7e"/>
        <rect id="Rectángulo_379498" data-name="Rectángulo 379498" width="14.141" height="65.125" transform="translate(201.237 77.126)" fill="#f9e7c5"/>
        <rect id="Rectángulo_379499" data-name="Rectángulo 379499" width="12.347" height="1.461" transform="translate(202.134 78.866)" fill="#ffae7e"/>
        <rect id="Rectángulo_379500" data-name="Rectángulo 379500" width="12.347" height="1.461" transform="translate(202.134 138.025)" fill="#ffae7e"/>
        <path id="Trazado_826503" data-name="Trazado 826503" d="M418.941,337.1a6.463,6.463,0,1,1-6.463-6.463,6.463,6.463,0,0,1,6.463,6.463" transform="translate(-204.171 -166.268)" fill="#c7c7c7"/>
        <path id="Trazado_826504" data-name="Trazado 826504" d="M418.952,338.094a5.484,5.484,0,1,1-5.483-5.483,5.483,5.483,0,0,1,5.483,5.483" transform="translate(-205.161 -167.258)" fill="#c1e29a"/>
        <path id="Trazado_826505" data-name="Trazado 826505" d="M426.664,380.947a1.584,1.584,0,0,1-1.512,0,1.584,1.584,0,0,1,1.512,0" transform="translate(-213.794 -191.468)" fill="#080c1f"/>
        <path id="Trazado_826506" data-name="Trazado 826506" d="M419.151,385.447a10.423,10.423,0,0,1,3.985,0,10.424,10.424,0,0,1-3.985,0" transform="translate(-210.776 -193.731)" fill="#080c1f"/>
        <rect id="Rectángulo_379501" data-name="Rectángulo 379501" width="17.897" height="120.804" transform="matrix(0.975, -0.224, 0.224, 0.975, 233.998, 75.671)" fill="#bcdffd"/>
        <rect id="Rectángulo_379502" data-name="Rectángulo 379502" width="14.141" height="65.125" transform="translate(236.83 79.611) rotate(-12.947)" fill="#f9e7c5"/>
        <rect id="Rectángulo_379503" data-name="Rectángulo 379503" width="12.348" height="1.46" transform="matrix(0.975, -0.224, 0.224, 0.975, 238.094, 81.105)" fill="#bcdffd"/>
        <rect id="Rectángulo_379504" data-name="Rectángulo 379504" width="12.348" height="1.46" transform="matrix(0.975, -0.224, 0.224, 0.975, 251.349, 138.76)" fill="#bcdffd"/>
        <path id="Trazado_826507" data-name="Trazado 826507" d="M532.245,332.673a6.463,6.463,0,1,1-7.746-4.851,6.462,6.462,0,0,1,7.746,4.851" transform="translate(-261.229 -164.767)" fill="#c7c7c7"/>
        <path id="Trazado_826508" data-name="Trazado 826508" d="M532.281,333.883a5.484,5.484,0,1,1-6.573-4.115,5.484,5.484,0,0,1,6.573,4.115" transform="translate(-262.22 -165.758)" fill="#c1e29a"/>
        <path id="Trazado_826509" data-name="Trazado 826509" d="M527.651,382.132a20.985,20.985,0,0,1,5.468-1.491,20.978,20.978,0,0,1-5.468,1.491" transform="translate(-265.337 -191.411)" fill="#080c1f"/>
        <path id="Trazado_826510" data-name="Trazado 826510" d="M475.775,375.725c-.269,1.467-.423,2.323-.423,2.323l4.354,2.7.891-3.459c-1.52-.442-3.329-1.052-4.822-1.566" transform="translate(-239.038 -188.939)" fill="#cc6f49"/>
        <path id="Trazado_826511" data-name="Trazado 826511" d="M468.093,378.922a8.411,8.411,0,0,1-2.2.653c-.946.082-4.553-1.408-4.95.517l8.5,2.972,1.02-.492-.293.838,1.7.593s1.311-1.651,1.1-3.01a2.966,2.966,0,0,1-2.789-.287c-1.178-.962-2.083-1.783-2.083-1.783" transform="translate(-231.791 -190.546)" fill="#f9e7c5"/>
        <path id="Trazado_826512" data-name="Trazado 826512" d="M556.809,352.828c-.147.2-.3.4-.44.6-.88,1.225-1.692,2.484-2.478,3.767l2.624,1.617,1.773.294,1.864-3.853s-2.112-1.456-3.342-2.426" transform="translate(-278.532 -177.425)" fill="#cc6f49"/>
        <path id="Trazado_826513" data-name="Trazado 826513" d="M557.417,360.786a8.421,8.421,0,0,1,.072,2.294c-.161.936-2.52,4.045-.759,4.92l5.036-7.466-.216-1.112.736.5,1.005-1.49s-1.264-1.688-2.632-1.827a2.966,2.966,0,0,1-.987,2.624c-1.23.894-2.254,1.561-2.254,1.561" transform="translate(-279.633 -179.322)" fill="#f9e7c5"/>
        <path id="Trazado_826514" data-name="Trazado 826514" d="M503.188,283.409a26.252,26.252,0,0,1,1.264,7.363c.055,3.9.385,16.758.385,16.758l14.67,11.758-2.912,5.11s-18.462-10.659-19.341-12.472-3.571-19.341-3.571-19.341L480.55,331.925l-4.945-1.978,10.22-46.374Z" transform="translate(-239.165 -142.516)" fill="#f9e7c5"/>
        <path id="Trazado_826515" data-name="Trazado 826515" d="M528.985,286.5c.629,7.461,1.2,15.578,1.671,23.022l-.066-.128c2.434,2,4.885,3.982,7.3,6q3.646,3.007,7.249,6.069-3.722-2.914-7.417-5.862c-2.47-1.957-4.908-3.954-7.362-5.929-.071-.056-.061-.037-.066-.128-.5-7.435-.973-15.575-1.312-23.046" transform="translate(-266.008 -144.07)" fill="#080c1f"/>
        <path id="Trazado_826516" data-name="Trazado 826516" d="M497.989,300.858l-1.592-1.051c-.778,3.148-1.967,6.658-2.9,9.921-2.176,7.151-5.438,17.648-7.73,24.733l-1.616,4.925,1.449-4.976c3.29-11.025,7.2-23.731,10.783-34.638l.014-.042.035.025Z" transform="translate(-243.463 -150.724)" fill="#080c1f"/>
        <path id="Trazado_826517" data-name="Trazado 826517" d="M524.321,286.166c.18,1.92.034,5.213,2.569,5.469a2.094,2.094,0,0,1-.871-.031c-2.048-.758-2.019-3.654-1.7-5.438" transform="translate(-263.581 -143.903)" fill="#080c1f"/>
        <path id="Trazado_826518" data-name="Trazado 826518" d="M468.008,289.448c-1.5,1.224-2.5,2.042-2.661,2.17l0,0a7.16,7.16,0,0,0-2.825.283c-.394.114-.443.364-.429.526a.128.128,0,0,0,.161.115c.38-.083,1.133-.117,1.285.126.171.274-2.575,1.569-2.456,2,.048.172,2.028-.7,2.028-.7s-1.945,1.334-1.691,1.509,2.119-.776,2.119-.776-1.782,1.565-1.452,1.635,1.879-.942,1.879-.942a2.647,2.647,0,0,0-.762,1.161.093.093,0,0,0,.137.1,13.447,13.447,0,0,0,2.906-3.1l.016.034a32.428,32.428,0,0,0,3.337-1.046,27.985,27.985,0,0,1-1.587-3.1" transform="translate(-231.858 -145.553)" fill="#cc6f49"/>
        <path id="Trazado_826519" data-name="Trazado 826519" d="M471.151,268.752l1.3,3.231s10.937-4.6,12.739-7.208,4.039-15.6,3.666-16.716-2.8-2.734-3.977-2.3-5.1,15.6-5.1,15.6Z" transform="translate(-236.925 -123.547)" fill="#7816c2"/>
        <path id="Trazado_826520" data-name="Trazado 826520" d="M512.982,235.785a3.566,3.566,0,0,0-2.324-.924,4.478,4.478,0,0,1-3.052-1.171,22.538,22.538,0,0,1,.244-6.425c0-.019.006-.037.011-.057l-5.89,3.312a1.56,1.56,0,0,1,.178.648v0a7.188,7.188,0,0,1-.127,1.8c-.09.508-.2.968-.278,1.275-.736,1.137-1.818,1.43-3.474,2.426-2.266,1.362-.861,5.135-.466,8.96.433,4.195.583,9.868.583,9.868h14.227c-.377-3.506.515-8.726,1.5-14.479.493-2.876-.258-4.417-1.131-5.237" transform="translate(-249.929 -114.255)" fill="#cc6f49"/>
        <path id="Trazado_826521" data-name="Trazado 826521" d="M507.092,235.2c3.2.4,4.824-3.42,4.883-3.562a3.779,3.779,0,0,1-2.286,1.64,6.281,6.281,0,0,1-2.45.125c-.006,0-.013,0-.02,0a7.186,7.186,0,0,1-.127,1.8" transform="translate(-254.999 -116.483)" fill="#c4533a"/>
        <path id="Trazado_826522" data-name="Trazado 826522" d="M500.156,240.817a5.444,5.444,0,0,0,6.19-.7,8.114,8.114,0,0,0,3.407.953,4.428,4.428,0,0,1,4.212,4.542c.11,3.3-2.2,11.685-1.465,12.748s1.575,2.564,1.209,3.7-16.667.732-18.681.11c-.9-.277-.872-1.226-.57-2.2a18.923,18.923,0,0,0,.728-7.242,40.716,40.716,0,0,1-.232-7.338,3.6,3.6,0,0,1,2.418-2.82,15.667,15.667,0,0,0,2.784-1.758" transform="translate(-248.551 -120.748)" fill="#7816c2"/>
        <path id="Trazado_826523" data-name="Trazado 826523" d="M505.651,242.41a5.449,5.449,0,0,0,5.924-.482c.247-.179.456-.4.7-.595a8.7,8.7,0,0,1-.582.73,4.489,4.489,0,0,1-6.046.347" transform="translate(-254.274 -121.358)" fill="#080c1f"/>
        <path id="Trazado_826524" data-name="Trazado 826524" d="M506.133,267.044a7.188,7.188,0,0,1,2.061-2.577,7.178,7.178,0,0,1-2.061,2.577" transform="translate(-254.516 -132.991)" fill="#080c1f"/>
        <rect id="Rectángulo_379505" data-name="Rectángulo 379505" width="12.666" height="20.879" transform="translate(226.879 153.906) rotate(-85.154)" fill="#ffae7e"/>
        <rect id="Rectángulo_379506" data-name="Rectángulo 379506" width="1.813" height="22.637" transform="matrix(0.084, -0.996, 0.996, 0.084, 227.128, 141.216)" fill="#ffa323"/>
        <rect id="Rectángulo_379507" data-name="Rectángulo 379507" width="12.666" height="7.83" transform="translate(239.882 155.009) rotate(-85.152)" fill="#ffa323"/>
        <rect id="Rectángulo_379508" data-name="Rectángulo 379508" width="1.346" height="4.506" transform="translate(242.296 145.066) rotate(-85.152)" fill="#522f00"/>
        <rect id="Rectángulo_379509" data-name="Rectángulo 379509" width="1.978" height="6.319" transform="translate(230.982 145.844) rotate(-85.153)" fill="#f9e7c5"/>
        <rect id="Rectángulo_379510" data-name="Rectángulo 379510" width="1.813" height="9.396" transform="matrix(0.084, -0.996, 0.996, 0.084, 240.323, 142.335)" fill="#eb9011"/>
        <path id="Trazado_826525" data-name="Trazado 826525" d="M457.662,307.732a12.853,12.853,0,0,1,4.394.558,12.855,12.855,0,0,1-4.394-.558" transform="translate(-230.142 -154.741)" fill="#080c1f"/>
        <path id="Trazado_826526" data-name="Trazado 826526" d="M458.651,306.272a4.189,4.189,0,0,1,2.486.332,4.19,4.19,0,0,1-2.486-.332" transform="translate(-230.639 -153.983)" fill="#080c1f"/>
        <rect id="Rectángulo_379511" data-name="Rectángulo 379511" width="12.666" height="20.879" transform="translate(228.1 139.507) rotate(-85.154)" fill="#ffae7e"/>
        <rect id="Rectángulo_379512" data-name="Rectángulo 379512" width="1.813" height="22.637" transform="translate(228.349 126.817) rotate(-85.154)" fill="#ffa323"/>
        <rect id="Rectángulo_379513" data-name="Rectángulo 379513" width="12.666" height="7.83" transform="translate(241.103 140.61) rotate(-85.152)" fill="#ffa323"/>
        <rect id="Rectángulo_379514" data-name="Rectángulo 379514" width="1.346" height="4.506" transform="matrix(0.085, -0.996, 0.996, 0.085, 243.518, 130.667)" fill="#522f00"/>
        <rect id="Rectángulo_379515" data-name="Rectángulo 379515" width="1.978" height="6.319" transform="translate(232.202 131.445) rotate(-85.153)" fill="#f9e7c5"/>
        <rect id="Rectángulo_379516" data-name="Rectángulo 379516" width="1.813" height="9.396" transform="translate(241.543 127.936) rotate(-85.153)" fill="#eb9011"/>
        <path id="Trazado_826527" data-name="Trazado 826527" d="M460.327,278.907a10.539,10.539,0,0,1,3.976.509,10.54,10.54,0,0,1-3.976-.509" transform="translate(-231.482 -140.242)" fill="#080c1f"/>
        <path id="Trazado_826528" data-name="Trazado 826528" d="M460.989,277.38a2.712,2.712,0,0,1,1.988.253,2.707,2.707,0,0,1-1.988-.253" transform="translate(-231.815 -139.442)" fill="#080c1f"/>
        <rect id="Rectángulo_379517" data-name="Rectángulo 379517" width="8.82" height="14.541" transform="matrix(0.084, -0.996, 0.996, 0.084, 232.497, 125.689)" fill="#ffae7e"/>
        <rect id="Rectángulo_379518" data-name="Rectángulo 379518" width="1.263" height="15.765" transform="matrix(0.084, -0.996, 0.996, 0.084, 232.671, 116.851)" fill="#ffa323"/>
        <rect id="Rectángulo_379519" data-name="Rectángulo 379519" width="8.82" height="5.453" transform="translate(241.552 126.456) rotate(-85.152)" fill="#ffa323"/>
        <rect id="Rectángulo_379520" data-name="Rectángulo 379520" width="0.937" height="3.138" transform="matrix(0.084, -0.996, 0.996, 0.084, 243.234, 119.533)" fill="#522f00"/>
        <rect id="Rectángulo_379521" data-name="Rectángulo 379521" width="1.378" height="4.4" transform="translate(235.354 120.074) rotate(-85.153)" fill="#f9e7c5"/>
        <rect id="Rectángulo_379522" data-name="Rectángulo 379522" width="1.263" height="6.543" transform="translate(241.859 117.63) rotate(-85.154)" fill="#eb9011"/>
        <path id="Trazado_826529" data-name="Trazado 826529" d="M469.151,251.438a5.037,5.037,0,0,1,2.734.332,5.032,5.032,0,0,1-2.734-.332" transform="translate(-235.919 -126.409)" fill="#080c1f"/>
        <path id="Trazado_826530" data-name="Trazado 826530" d="M469.651,250.106a2.531,2.531,0,0,1,1.906.332,2.534,2.534,0,0,1-1.906-.332" transform="translate(-236.171 -125.739)" fill="#080c1f"/>
        <path id="Trazado_826531" data-name="Trazado 826531" d="M492.263,287.245c-.967.79-1.593,1.3-1.717,1.4l0,0a7.153,7.153,0,0,0-2.826.283c-.393.114-.442.364-.429.526a.13.13,0,0,0,.161.116c.38-.084,1.133-.117,1.285.126.171.274-2.576,1.569-2.456,1.995.048.172,2.028-.7,2.028-.7s-1.946,1.334-1.692,1.509,2.12-.776,2.12-.776-1.782,1.565-1.452,1.635,1.879-.942,1.879-.942a2.639,2.639,0,0,0-.762,1.161.092.092,0,0,0,.137.1,13.46,13.46,0,0,0,2.906-3.1l.016.034c.658-.167,1.308-.357,1.951-.565-.377-.938-.725-1.886-1.147-2.8" transform="translate(-244.53 -144.445)" fill="#cc6f49"/>
        <path id="Trazado_826532" data-name="Trazado 826532" d="M496.716,265.01a41.074,41.074,0,0,0,1.318,4.506c.33.495,11.539-5.6,12.692-7.582s4.451-14.011,4.341-15.385-1.367-4.637-4.557-4.022-5.168,15.176-5.168,15.176Z" transform="translate(-249.781 -121.92)" fill="#7816c2"/>
        <path id="Trazado_826533" data-name="Trazado 826533" d="M519.9,275.963a6.189,6.189,0,0,0,3.045-3.542C523.63,270,525,265.958,525,265.958s.808,8.513-5.1,10" transform="translate(-261.44 -133.741)" fill="#080c1f"/>
        <path id="Trazado_826534" data-name="Trazado 826534" d="M501.026,278.675a60.331,60.331,0,0,1,6.545-5.642,7.451,7.451,0,0,1,.85-.075c-.213.047-.676.18-.766.174-.517.5-1.049.989-1.583,1.473a59.293,59.293,0,0,1-5.046,4.07" transform="translate(-251.948 -137.261)" fill="#080c1f"/>
        <path id="Trazado_826535" data-name="Trazado 826535" d="M514.395,268.52a3.661,3.661,0,0,1-.217,2.331,3.661,3.661,0,0,1,.217-2.331" transform="translate(-258.512 -135.029)" fill="#080c1f"/>
        <path id="Trazado_826536" data-name="Trazado 826536" d="M511.491,216.991a1.052,1.052,0,0,0-1.186-.743.907.907,0,0,0-.152.062c.07-1.69-.177-3.541-1.352-4.563-2.527-2.2-6.154-1.428-6.923.549a20.64,20.64,0,0,0-.895,7.455,2.888,2.888,0,0,0,.118.929c.4,1.136,2.022,1.837,3.116,2.064a4.616,4.616,0,0,0,3.926-.994,5.106,5.106,0,0,0,1.684-2.866,2.244,2.244,0,0,0,.686-.067,1.758,1.758,0,0,0,.8-.666,1.392,1.392,0,0,0,.18-1.16" transform="translate(-251.924 -105.812)" fill="#cc6f49"/>
        <path id="Trazado_826537" data-name="Trazado 826537" d="M504.033,221.511c0,.367-.145.664-.325.664s-.325-.3-.325-.664.146-.664.325-.664.325.3.325.664" transform="translate(-253.134 -111.056)" fill="#080c1f"/>
        <path id="Trazado_826538" data-name="Trazado 826538" d="M509.038,221.511c0,.367.145.664.325.664s.325-.3.325-.664-.146-.664-.325-.664-.325.3-.325.664" transform="translate(-255.977 -111.056)" fill="#080c1f"/>
        <path id="Trazado_826539" data-name="Trazado 826539" d="M504.413,226.226a1.588,1.588,0,0,0,.489.556,1.24,1.24,0,0,0,.726.241,1.258,1.258,0,0,0,.723-.25,2.4,2.4,0,0,0,.28-.249c.077-.1.151-.2.218-.3-.1.074-.192.152-.284.227s-.193.138-.3.19a1.338,1.338,0,0,1-.642.182,1.306,1.306,0,0,1-.644-.174,2.789,2.789,0,0,1-.571-.426" transform="translate(-253.651 -113.761)" fill="#080c1f"/>
        <path id="Trazado_826540" data-name="Trazado 826540" d="M506.176,228.6a.535.535,0,0,0,.342.116.559.559,0,0,0,.342-.116,1.762,1.762,0,0,1-.342.038,1.46,1.46,0,0,1-.342-.038" transform="translate(-254.538 -114.952)" fill="#080c1f"/>
        <path id="Trazado_826541" data-name="Trazado 826541" d="M508.44,217.359a.773.773,0,0,1,.5-.186,1.557,1.557,0,0,1,.535.076,1.308,1.308,0,0,1,.471.27,1.377,1.377,0,0,1,.322.413.155.155,0,0,1-.241.19l-.013-.012a1.971,1.971,0,0,0-.321-.255,1.133,1.133,0,0,0-.353-.145,1.405,1.405,0,0,0-.384-.037,1.466,1.466,0,0,1-.41-.023l-.041-.01a.163.163,0,0,1-.12-.2.166.166,0,0,1,.05-.083" transform="translate(-255.649 -109.208)" fill="#080c1f"/>
        <path id="Trazado_826542" data-name="Trazado 826542" d="M503.359,217.359a.774.774,0,0,0-.5-.186,1.556,1.556,0,0,0-.535.076,1.307,1.307,0,0,0-.471.27,1.377,1.377,0,0,0-.322.413.155.155,0,0,0,.241.19l.013-.012a1.972,1.972,0,0,1,.321-.255,1.131,1.131,0,0,1,.354-.145,1.4,1.4,0,0,1,.383-.037,1.466,1.466,0,0,0,.41-.023l.041-.01a.162.162,0,0,0,.12-.2.165.165,0,0,0-.05-.083" transform="translate(-252.19 -109.208)" fill="#080c1f"/>
        <path id="Trazado_826543" data-name="Trazado 826543" d="M505.12,220.016c-.057.25-.1.5-.146.745s-.093.491-.163.723c-.016.059-.034.116-.055.172a.614.614,0,0,0-.057.214.433.433,0,0,0,.233.394.524.524,0,0,0,.424.022,1.041,1.041,0,0,0,.336-.2c-.233.087-.506.156-.669.032a.256.256,0,0,1-.115-.237.482.482,0,0,1,.049-.148c.025-.062.047-.125.066-.188a3.521,3.521,0,0,0,.122-.764,4.067,4.067,0,0,0-.023-.766" transform="translate(-253.795 -110.638)" fill="#080c1f"/>
        <path id="Trazado_826544" data-name="Trazado 826544" d="M520.008,223.7a.552.552,0,0,0-.173-.439.515.515,0,0,0-.5-.049.946.946,0,0,0-.4.3,1.494,1.494,0,0,0-.252.425.111.111,0,0,0,.181.119l.007-.007a.976.976,0,0,1,.372-.263.173.173,0,0,1,.156.017.412.412,0,0,1,.112.173c.057.146.09.316-.034.383a.834.834,0,0,1-.492.034.774.774,0,0,0,.54.073.305.305,0,0,0,.191-.255.788.788,0,0,0-.032-.294.547.547,0,0,0-.157-.271.372.372,0,0,0-.34-.071,1.075,1.075,0,0,0-.484.326l.189.112a1.188,1.188,0,0,1,.51-.638.417.417,0,0,1,.378-.023.554.554,0,0,1,.232.354" transform="translate(-260.82 -112.225)" fill="#080c1f"/>
        <path id="Trazado_826545" data-name="Trazado 826545" d="M503.181,225.9a1.916,1.916,0,0,1,1.639-1.053,2.03,2.03,0,0,1,1.96,1.218,8.015,8.015,0,0,1-3.6-.165" transform="translate(-253.032 -113.068)" fill="#1c050d"/>
        <path id="Trazado_826546" data-name="Trazado 826546" d="M511.7,213.67a3.184,3.184,0,0,0-1.426-1.949,7.563,7.563,0,0,1-1.2-1.048,1.3,1.3,0,0,1-.27-1.176,2.14,2.14,0,0,0-.46-1.9,2.865,2.865,0,0,0-2.15-.885,8.243,8.243,0,0,0-2.328.426c-.08.023-.161.042-.243.059a3.132,3.132,0,0,1-2.284-.421,2.113,2.113,0,0,0-1.935-.145,3.254,3.254,0,0,0-1.721,2.391,6.632,6.632,0,0,0,.246,3.092,12.025,12.025,0,0,0,1.378,3.082,18.805,18.805,0,0,1,.437-3.469,2.031,2.031,0,0,0,.832.391c1.937.453,2.1-.948,3.517-1.25a1.188,1.188,0,0,1,1.593.906s-.055,3.86.783,3.956c.561.065,1.393-.813,1.985-1.446,0,.01,0,.021,0,.031a.976.976,0,0,1,.149-.059,1.055,1.055,0,0,1,1.187.745,1.4,1.4,0,0,1-.18,1.158,1.755,1.755,0,0,1-.8.666,2.18,2.18,0,0,1-.679.068,31.069,31.069,0,0,0-.362,3.305h0a2.312,2.312,0,0,0,2.764-1.271,3.94,3.94,0,0,0,.015-3.37,1.77,1.77,0,0,0,1.152-1.892" transform="translate(-250.222 -103.823)" fill="#1c050d"/>
        <circle id="Elipse_5924" data-name="Elipse 5924" cx="2.019" cy="2.019" r="2.019" transform="translate(251.564 108.269)" fill="none" stroke="#fff" stroke-miterlimit="10" stroke-width="0.442"/>
        <circle id="Elipse_5925" data-name="Elipse 5925" cx="2.019" cy="2.019" r="2.019" transform="translate(247.182 108.269)" fill="none" stroke="#fff" stroke-miterlimit="10" stroke-width="0.442"/>
        <line id="Línea_1206" data-name="Línea 1206" x2="0.339" transform="translate(251.239 110.233)" fill="none" stroke="#fff" stroke-miterlimit="10" stroke-width="0.442"/>
        <path id="Trazado_826547" data-name="Trazado 826547" d="M514.18,221.713a8.615,8.615,0,0,1,2.654.223,8.548,8.548,0,0,1-2.654-.223" transform="translate(-258.563 -111.472)" fill="#fff"/>
        <path id="Trazado_826548" data-name="Trazado 826548" d="M286.96,39.356a7.476,7.476,0,0,1-.133-1.876v0a1.629,1.629,0,0,1,.185-.675l-2.674-1.367-2.816.9a4.692,4.692,0,0,1,.242,1.141l-.056-.464a11.37,11.37,0,0,1-.076,2.342,17.588,17.588,0,0,1-.4,1.718h6.119a17.583,17.583,0,0,1-.4-1.718" transform="translate(-141.424 -17.82)" fill="#fa9778"/>
        <path id="Trazado_826549" data-name="Trazado 826549" d="M271.672,52.278c.58,1.45.166,11.186.166,11.186,3.066.373,14.79,0,14.79,0s-.29-9.694.124-12.056a24.53,24.53,0,0,0-.124-7.457c-.29-.538-4.06-1.367-4.06-1.367a6.036,6.036,0,0,0-.243-1.749.686.686,0,0,0-.81-.487c-2.264.493-4.753-.418-5.286-.456-.58-.041-.456,2.859-.456,2.859s-3.977,0-4.433,2.361.332,7.167.332,7.167" transform="translate(-136.376 -20.059)" fill="#bcdffd"/>
        <path id="Trazado_826550" data-name="Trazado 826550" d="M284,64.86a17.075,17.075,0,0,0,4.464-2.558A6.032,6.032,0,0,1,284,64.86" transform="translate(-142.812 -31.329)" fill="#080c1f"/>
        <path id="Trazado_826551" data-name="Trazado 826551" d="M288.663,67.654a7.47,7.47,0,0,1,1.687-.94,1.621,1.621,0,0,1-1.687.94" transform="translate(-145.158 -33.548)" fill="#080c1f"/>
        <path id="Trazado_826552" data-name="Trazado 826552" d="M329.367,89.812h.014c.032-.305.052-.61.075-.916-.9-.047-1.807-.075-2.71-.111.232.676.377,1.1.409,1.192v0a7.371,7.371,0,0,0-.717,2.813c-.029.423.2.562.357.608a.131.131,0,0,0,.17-.113c.054-.4.288-1.139.578-1.2.326-.065.606,3.071,1.061,3.113.183.017.044-2.219.044-2.219s.6,2.374.862,2.193,0-2.337,0-2.337.884,2.3,1.068,2.008a7.3,7.3,0,0,0-.246-2.166,2.779,2.779,0,0,0,.855,1.166.094.094,0,0,0,.145-.1,14.122,14.122,0,0,0-1.965-3.944" transform="translate(-164.153 -44.646)" fill="#f28766"/>
        <path id="Trazado_826553" data-name="Trazado 826553" d="M293.653,45.308s13.009,2.734,15.452,4.226,3.6,16.2,3.77,17.98c0,0-2.569.249-3.314.207s-3.936-12.759-3.936-12.759l-10.854-3.231s-2.486-5.717-1.119-6.421" transform="translate(-147.461 -22.784)" fill="#bcdffd"/>
        <path id="Trazado_826554" data-name="Trazado 826554" d="M317.915,62.974a.693.693,0,0,1,.083.953.693.693,0,0,1-.083-.953" transform="translate(-159.792 -31.667)" fill="#080c1f"/>
        <path id="Trazado_826555" data-name="Trazado 826555" d="M295.4,46.308a2.555,2.555,0,0,1,1.657,2.113c-.537-.774-1.119-1.338-1.657-2.113" transform="translate(-148.547 -23.287)" fill="#080c1f"/>
        <path id="Trazado_826556" data-name="Trazado 826556" d="M239.75,31.309v0a7.365,7.365,0,0,0,.327-2.886c-.029-.423-.27-.53-.437-.554a.131.131,0,0,0-.152.135c0,.4-.131,1.168-.409,1.264-.314.108-1.02-2.959-1.476-2.939-.183.008.26,2.2.26,2.2s-.92-2.27-1.153-2.056.318,2.315.318,2.315-1.19-2.16-1.332-1.844a7.309,7.309,0,0,0,.539,2.112c-.519-.741-.836-.972-1.006-1.039a.094.094,0,0,0-.131.115,14.108,14.108,0,0,0,2.484,3.639l-.013,0c.019.558.055,1.115.1,1.67Q239,32.961,240.3,32.4c-.313-.619-.508-1.006-.551-1.091" transform="translate(-118.22 -13.238)" fill="#f28766"/>
        <path id="Trazado_826557" data-name="Trazado 826557" d="M258.652,41.475s-2.175-.59-6.059,2.7-5.872,3.915-5.872,3.915S242,37.53,241.439,37.374s-4.257.808-4.288,1.212,3.449,16.281,7.613,16.467S256.6,49.709,256.6,49.709s3.076-7.706,2.051-8.234" transform="translate(-119.255 -18.786)" fill="#bcdffd"/>
        <path id="Trazado_826558" data-name="Trazado 826558" d="M272.235,64.095l1.491-.787-1.284,2.444Z" transform="translate(-136.897 -31.835)" fill="#080c1f"/>
        <path id="Trazado_826559" data-name="Trazado 826559" d="M275.4,46.558a1.445,1.445,0,0,1,1.036,1.906,5.144,5.144,0,0,0-1.036-1.906" transform="translate(-138.489 -23.412)" fill="#080c1f"/>
        <path id="Trazado_826560" data-name="Trazado 826560" d="M238.068,40.344a11.957,11.957,0,0,1,4.143-1.036,11.957,11.957,0,0,1-4.143,1.036" transform="translate(-119.716 -19.767)" fill="#080c1f"/>
        <path id="Trazado_826561" data-name="Trazado 826561" d="M221.748,4.5l.343,1.69-6.372,5.155a.426.426,0,0,0-.063.6l6.77,8.368a.427.427,0,0,0,.6.064l12.221-9.888a.426.426,0,0,0,.063-.6l-6.536-8.078-.5-.621L227.433.158a.426.426,0,0,0-.6-.063L221.9,4.088a.425.425,0,0,0-.15.416" transform="translate(-108.398 0)" fill="#fd9b2c"/>
        <rect id="Rectángulo_379523" data-name="Rectángulo 379523" width="15.746" height="12.123" transform="translate(106.441 10.262) rotate(-38.976)" fill="#f9e7c5"/>
        <path id="Trazado_826562" data-name="Trazado 826562" d="M222.709,5.693l.343,1.69-6.372,5.155a.426.426,0,0,0-.063.6l6.77,8.368a.426.426,0,0,0,.6.064l12.221-9.888a.426.426,0,0,0,.063-.6L229.735,3l-.5-.621-.838-1.036a.426.426,0,0,0-.6-.063l-4.936,3.993a.425.425,0,0,0-.15.416" transform="translate(-108.881 -0.597)" fill="#ffae7e"/>
        <path id="Trazado_826563" data-name="Trazado 826563" d="M242.572,32.02s-.114-.96.259-1.225.393-1.041.409-1.264.42-.245.565.107a4.934,4.934,0,0,1-.155,2.662c-.352.487-1.077-.28-1.077-.28" transform="translate(-121.973 -14.767)" fill="#f28766"/>
        <path id="Trazado_826564" data-name="Trazado 826564" d="M286.947,20.6a1.1,1.1,0,0,0-1.23-.774c.237-6.983-5.584-6.042-5.584-6.042-3.654.317-4.072,4.2-4.044,6.178a1.343,1.343,0,0,0-.291-.136,1.1,1.1,0,0,0-1.234.774,1.451,1.451,0,0,0,.188,1.207,1.824,1.824,0,0,0,.83.693,2.371,2.371,0,0,0,.637.073,4.3,4.3,0,0,0,4.7,4.116c3.586.177,4.516-2.328,4.725-4.135a1.711,1.711,0,0,0,.285-.054,1.82,1.82,0,0,0,.829-.693,1.451,1.451,0,0,0,.188-1.207" transform="translate(-138.039 -6.911)" fill="#fa9778"/>
        <path id="Trazado_826565" data-name="Trazado 826565" d="M278.334,26.326c.3.846.966,2.237,2.169,2.387a2.119,2.119,0,0,1,1.9-1.336c1.367.031,1.833.714,1.926,1.4a3.3,3.3,0,0,0,2.271-2.509,3.578,3.578,0,0,1,.627-1.239l.084-.1s1.075,7.726-4.707,7.83c-6.059.109-5.018-7.861-5.018-7.861a5.815,5.815,0,0,1,.752,1.435" transform="translate(-139.552 -12.517)" fill="#1c050d"/>
        <path id="Trazado_826566" data-name="Trazado 826566" d="M289.671,25.783c0,.382.151.692.338.692s.338-.31.338-.692-.151-.692-.338-.692-.338.31-.338.692" transform="translate(-145.665 -12.617)" fill="#080c1f"/>
        <path id="Trazado_826567" data-name="Trazado 826567" d="M284.463,25.783c0,.382-.151.692-.338.692s-.338-.31-.338-.692.151-.692.338-.692.338.31.338.692" transform="translate(-142.706 -12.617)" fill="#080c1f"/>
        <path id="Trazado_826568" data-name="Trazado 826568" d="M283.762,21.461a.8.8,0,0,0-.523-.194,1.622,1.622,0,0,0-.557.079,1.354,1.354,0,0,0-.491.281,1.415,1.415,0,0,0-.335.43.162.162,0,0,0,.251.2l.014-.012a1.984,1.984,0,0,1,.334-.265,1.16,1.16,0,0,1,.368-.151,1.441,1.441,0,0,1,.4-.039,1.531,1.531,0,0,0,.427-.025l.043-.01a.169.169,0,0,0,.072-.291" transform="translate(-141.725 -10.694)" fill="#080c1f"/>
        <path id="Trazado_826569" data-name="Trazado 826569" d="M289.048,21.461a.8.8,0,0,1,.523-.194,1.622,1.622,0,0,1,.557.079,1.354,1.354,0,0,1,.491.281,1.415,1.415,0,0,1,.335.43.162.162,0,0,1-.251.2l-.014-.012a1.985,1.985,0,0,0-.334-.265,1.16,1.16,0,0,0-.368-.151,1.441,1.441,0,0,0-.4-.039,1.531,1.531,0,0,1-.427-.025l-.043-.01a.169.169,0,0,1-.072-.291" transform="translate(-145.324 -10.694)" fill="#080c1f"/>
        <path id="Trazado_826570" data-name="Trazado 826570" d="M286.965,24.357c.06.26.1.52.152.776s.1.511.17.753c.017.061.036.121.057.178a.639.639,0,0,1,.059.223.45.45,0,0,1-.242.41.545.545,0,0,1-.441.023,1.059,1.059,0,0,1-.349-.209c.242.091.525.162.7.033a.265.265,0,0,0,.12-.247.491.491,0,0,0-.051-.153c-.026-.065-.049-.13-.068-.2a3.657,3.657,0,0,1-.127-.8,4.19,4.19,0,0,1,.024-.8" transform="translate(-144.005 -12.248)" fill="#080c1f"/>
        <path id="Trazado_826571" data-name="Trazado 826571" d="M275.477,27.733a.575.575,0,0,1,.18-.457.536.536,0,0,1,.522-.051.988.988,0,0,1,.421.307,1.566,1.566,0,0,1,.262.442.115.115,0,0,1-.189.124l-.007-.007a1.014,1.014,0,0,0-.387-.274.179.179,0,0,0-.163.018.436.436,0,0,0-.116.179c-.059.152-.094.329.035.4a.868.868,0,0,0,.512.035.8.8,0,0,1-.562.076.316.316,0,0,1-.2-.265.812.812,0,0,1,.033-.306.574.574,0,0,1,.164-.283.386.386,0,0,1,.353-.073,1.108,1.108,0,0,1,.5.339l-.2.116a1.235,1.235,0,0,0-.53-.665.435.435,0,0,0-.393-.023.577.577,0,0,0-.242.369" transform="translate(-138.527 -13.668)" fill="#080c1f"/>
        <path id="Trazado_826572" data-name="Trazado 826572" d="M297.574,27.733a.575.575,0,0,0-.18-.457.535.535,0,0,0-.521-.051.987.987,0,0,0-.422.307,1.566,1.566,0,0,0-.261.442.115.115,0,0,0,.189.124l.007-.007a1.014,1.014,0,0,1,.387-.274.179.179,0,0,1,.163.018.431.431,0,0,1,.116.179c.059.152.094.329-.035.4a.869.869,0,0,1-.512.035.8.8,0,0,0,.562.076.317.317,0,0,0,.2-.265.831.831,0,0,0-.033-.306.575.575,0,0,0-.164-.283.386.386,0,0,0-.353-.073,1.108,1.108,0,0,0-.5.339l.2.116a1.234,1.234,0,0,1,.531-.665.434.434,0,0,1,.393-.023.577.577,0,0,1,.242.369" transform="translate(-148.939 -13.668)" fill="#080c1f"/>
        <path id="Trazado_826573" data-name="Trazado 826573" d="M285.526,30.953a3.4,3.4,0,0,0,2.113,0s-.979,2.02-2.113,0" transform="translate(-143.581 -15.565)" fill="#f9e7c5"/>
        <rect id="Rectángulo_379524" data-name="Rectángulo 379524" width="106.884" height="144.666" transform="translate(92.524 48.789)" fill="#f9e7c5"/>
        <rect id="Rectángulo_379525" data-name="Rectángulo 379525" width="96.608" height="130.757" transform="translate(97.663 55.744)" fill="#fff"/>
        <rect id="Rectángulo_379526" data-name="Rectángulo 379526" width="24.194" height="7.954" transform="translate(133.869 129.16)" fill="#ccd5dd"/>
        <rect id="Rectángulo_379527" data-name="Rectángulo 379527" width="30.27" height="3.273" transform="translate(130.831 141.091)" fill="#ccd5dd"/>
        <path id="Trazado_826574" data-name="Trazado 826574" d="M210.354,370.141h-4.036" transform="translate(-101.655 -186.131)" fill="#ccd5dd"/>
        <line id="Línea_1207" data-name="Línea 1207" x2="2.993" transform="translate(100.497 181.276)" fill="#ccd5dd"/>
        <line id="Línea_1208" data-name="Línea 1208" x2="6.101" transform="translate(143.209 130.444)" fill="#ccd5dd"/>
        <line id="Línea_1209" data-name="Línea 1209" x2="13.672" transform="translate(139.424 132.681)" fill="#ccd5dd"/>
        <line id="Línea_1210" data-name="Línea 1210" x2="5.367" transform="translate(143.576 135.291)" fill="#ccd5dd"/>
        <path id="Trazado_826575" data-name="Trazado 826575" d="M403.941,266.141l-5.086,3.679L390.781,266V258.48l5-3.619Z" transform="translate(-196.51 -128.161)" fill="#55c1f2"/>
        <path id="Trazado_826576" data-name="Trazado 826576" d="M403.543,283.306l-5.951,12.583-6.811-3.221v-15.4l8.073,3.818Z" transform="translate(-196.51 -139.43)" fill="#dbe3ff"/>
        <path id="Trazado_826577" data-name="Trazado 826577" d="M179.646,272.785v15.64l-16.614-10.972,7.189-10.892Z" transform="translate(-81.983 -134.044)" fill="#ffae7e"/>
        <path id="Trazado_826578" data-name="Trazado 826578" d="M405.651,288.141a5.124,5.124,0,0,1,2.486,1.243,5.122,5.122,0,0,1-2.486-1.243" transform="translate(-203.988 -144.896)" fill="#080c1f"/>
        <path id="Trazado_826579" data-name="Trazado 826579" d="M406.651,292.641a3.07,3.07,0,0,1,1.74,1.243,3.072,3.072,0,0,1-1.74-1.243" transform="translate(-204.49 -147.159)" fill="#080c1f"/>
        <path id="Trazado_826580" data-name="Trazado 826580" d="M398.121,260.8a1.464,1.464,0,0,1,1.22-.781,1.464,1.464,0,0,1-1.22.781" transform="translate(-200.201 -130.756)" fill="#080c1f"/>
        <path id="Trazado_826581" data-name="Trazado 826581" d="M169.151,284.384a2.551,2.551,0,0,1,1.491-1.243,2.549,2.549,0,0,1-1.491,1.243" transform="translate(-85.06 -142.382)" fill="#080c1f"/>
        <path id="Trazado_826582" data-name="Trazado 826582" d="M224.321,120.606l-29.65,3.193a.811.811,0,0,1-.893-.72L188.31,72.3a.811.811,0,0,1,.719-.893l29.65-3.193a.811.811,0,0,1,.893.72l5.467,50.78a.811.811,0,0,1-.719.893" transform="translate(-94.692 -34.299)" fill="#dbe3ff"/>
        <rect id="Rectángulo_379528" data-name="Rectángulo 379528" width="31.444" height="52.696" transform="translate(89.853 44.366) rotate(-24.104)" fill="#f9e7c5"/>
        <path id="Trazado_826583" data-name="Trazado 826583" d="M307.971,82.63l-2.858,5.487H275.7a1.53,1.53,0,0,0-1.53,1.53v38.625a1.53,1.53,0,0,0,1.53,1.53h56.408a1.53,1.53,0,0,0,1.53-1.53V83.337a1.53,1.53,0,0,0-1.53-1.53H309.328a1.53,1.53,0,0,0-1.357.823" transform="translate(-137.871 -41.138)" fill="#45b0e0"/>
        <rect id="Rectángulo_379529" data-name="Rectángulo 379529" width="56.504" height="43.502" transform="translate(137.831 41.96)" fill="#f9e7c5"/>
        <path id="Trazado_826584" data-name="Trazado 826584" d="M307.971,88.111,305.113,93.6H275.7a1.53,1.53,0,0,0-1.53,1.53v38.625a1.53,1.53,0,0,0,1.53,1.53h56.408a1.53,1.53,0,0,0,1.53-1.53V88.818a1.53,1.53,0,0,0-1.53-1.53H309.328a1.53,1.53,0,0,0-1.357.823" transform="translate(-137.871 -43.894)" fill="#55c1f2"/>
        <path id="Trazado_826585" data-name="Trazado 826585" d="M269.377,82.178l-3.776,4.9-28.955-5.16a1.529,1.529,0,0,0-1.774,1.237l-6.777,38.027a1.529,1.529,0,0,0,1.237,1.774l55.534,9.9a1.53,1.53,0,0,0,1.774-1.238l6.542-36.709.5-2.824.839-4.706a1.53,1.53,0,0,0-1.238-1.775l-22.429-4a1.53,1.53,0,0,0-1.48.572" transform="translate(-114.689 -41.025)" fill="#fd9b2c"/>
        <path id="Trazado_826586" data-name="Trazado 826586" d="M287.367,125.941l-55.628-9.913,6.542-36.709,5.985-5.246L295,83.115Z" transform="translate(-116.533 -37.249)" fill="#f9e7c5"/>
        <path id="Trazado_826587" data-name="Trazado 826587" d="M244.9,79.319l5.985-5.246,1.575,6.69Z" transform="translate(-123.151 -37.249)" fill="#dbe3ff"/>
        <path id="Trazado_826588" data-name="Trazado 826588" d="M268.416,87.574l-3.776,4.9-28.955-5.16a1.53,1.53,0,0,0-1.774,1.237l-6.777,38.027a1.53,1.53,0,0,0,1.237,1.774l55.534,9.9a1.53,1.53,0,0,0,1.774-1.238l6.542-36.709.5-2.824.839-4.706A1.53,1.53,0,0,0,292.326,91L269.9,87a1.53,1.53,0,0,0-1.48.572" transform="translate(-114.205 -43.738)" fill="#ffae7e"/>
        <g id="Grupo_1075409" data-name="Grupo 1075409" transform="translate(95.838 122.286)" opacity="0.41" style="mix-blend-mode: multiply;isolation: isolate">
          <g id="Grupo_1075408" data-name="Grupo 1075408">
            <g id="Grupo_1075407" data-name="Grupo 1075407" clip-path="url(#clip-path-4)">
              <rect id="Rectángulo_379530" data-name="Rectángulo 379530" width="100.256" height="2.979" transform="translate(0 0)" fill="#949494"/>
            </g>
          </g>
        </g>
        <rect id="Rectángulo_379532" data-name="Rectángulo 379532" width="100.256" height="67.762" transform="translate(95.838 54.51)" fill="#c7c7c7"/>
        <rect id="Rectángulo_379533" data-name="Rectángulo 379533" width="24.194" height="7.954" transform="translate(133.869 61.549)" fill="#f9e7c5"/>
        <rect id="Rectángulo_379534" data-name="Rectángulo 379534" width="30.27" height="3.273" transform="translate(130.831 73.481)" fill="#5c5c5c"/>
        <path id="Trazado_826589" data-name="Trazado 826589" d="M360.651,240.448a97.386,97.386,0,0,1,12.19,0,97.4,97.4,0,0,1-12.19,0" transform="translate(-181.359 -120.817)" fill="#080c1f"/>
        <path id="Trazado_826590" data-name="Trazado 826590" d="M380.562,236.447a3.515,3.515,0,0,1,2.292,0,3.515,3.515,0,0,1-2.292,0" transform="translate(-191.371 -118.804)" fill="#080c1f"/>
        <path id="Trazado_826591" data-name="Trazado 826591" d="M280.166,126.618a128.834,128.834,0,0,1,13.926,0,128.838,128.838,0,0,1-13.926,0" transform="translate(-140.886 -63.577)" fill="#080c1f"/>
        <path id="Trazado_826592" data-name="Trazado 826592" d="M274.637,131.284q9.707-.375,19.423,0-9.707.378-19.423,0" transform="translate(-138.105 -65.923)" fill="#080c1f"/>
        <path id="Trazado_826593" data-name="Trazado 826593" d="M195.151,115.447a15.244,15.244,0,0,1,4.826,0,15.244,15.244,0,0,1-4.826,0" transform="translate(-98.135 -57.957)" fill="#080c1f"/>
        <path id="Trazado_826594" data-name="Trazado 826594" d="M195.151,121.951a147.926,147.926,0,0,1,14.923,0,147.928,147.928,0,0,1-14.923,0" transform="translate(-98.135 -61.23)" fill="#080c1f"/>
        <path id="Trazado_826595" data-name="Trazado 826595" d="M83.706,368.092,83.791,375l1.463,1.5,2.9-1.168s.48-2.9,1.158-7.242Z" transform="translate(-42.093 -185.1)" fill="#f7bb8b"/>
        <path id="Trazado_826596" data-name="Trazado 826596" d="M82.721,381a.1.1,0,0,0-.173.053c-.08.347-.263,1.127-.468,1.874a1.645,1.645,0,0,0,.66,1.623.4.4,0,0,0,.261.092l11.212-.041s.5-.773-3.123-1.632-2.25-1.917-3.371-1.764-2.524,1.685-3.614.911A12.064,12.064,0,0,1,82.721,381" transform="translate(-41.252 -191.577)" fill="#f9e7c5"/>
        <path id="Trazado_826597" data-name="Trazado 826597" d="M40.122,358.09c-1.436,4.6-2.4,7.755-2.4,7.755l.712,2.975,3.732-.9,4.058-7.812c-2.007-.74-4.055-1.377-6.1-2.023" transform="translate(-18.968 -180.071)" fill="#f7bb8b"/>
        <path id="Trazado_826598" data-name="Trazado 826598" d="M36.016,373.44a.1.1,0,0,0-.18-.018c-.208.289-.68.937-1.158,1.546a1.645,1.645,0,0,0-.021,1.751.4.4,0,0,0,.205.186l10.352,4.309s.761-.518-2.246-2.715-1.331-2.64-2.424-2.933-2.98.575-3.685-.561a12.031,12.031,0,0,1-.844-1.565" transform="translate(-17.302 -187.758)" fill="#f9e7c5"/>
        <path id="Trazado_826599" data-name="Trazado 826599" d="M54.559,282.945s-4.781,8.267-5.744,12.807-8.487,27.014-8.487,27.014l6,2.578,15.086-29.416.222,31.063,5.861.16s4.69-32.81,4.623-35.447a61.012,61.012,0,0,0-1.519-8.575Z" transform="translate(-20.28 -142.283)" fill="#ffae7e"/>
        <path id="Trazado_826600" data-name="Trazado 826600" d="M84.873,307.759c.3,9.994.359,20.992.166,30.988-.3-9.993-.357-20.992-.166-30.988" transform="translate(-42.624 -154.761)" fill="#080c1f"/>
        <path id="Trazado_826601" data-name="Trazado 826601" d="M42.151,331.581c3.034-9.948,6.695-21.028,10.191-30.822-3.032,9.948-6.7,21.027-10.191,30.822" transform="translate(-21.196 -151.241)" fill="#080c1f"/>
        <path id="Trazado_826602" data-name="Trazado 826602" d="M109.14,253.66c-.055.088-.112.173-.169.259-2.071,3.167-5.106,5.6-7.879,7.943-.2.171-.409.341-.615.51a3.936,3.936,0,0,1-5.908-1.13c-.2-.345-.384-.69-.569-1.031-2.389-4.431-4.719-8.354-5.569-10.646a6.719,6.719,0,0,1-.471-3.494c.391-2.229,4.229-3.2,5.523-1.378a10.86,10.86,0,0,1,1.174,2.235c.837,2.075,2.215,6.169,4.176,10.257,3.444-2.167,6.413-4.062,7.688-4.877l.666-.427.521.473v0l1.13,1.029Z" transform="translate(-44.197 -122.568)" fill="#7816c2"/>
        <path id="Trazado_826603" data-name="Trazado 826603" d="M83.937,235.485a10.341,10.341,0,0,1-2.779-1.732c-.073-.244-.243-.844-.375-1.525a7.163,7.163,0,0,1-.161-1.8v0a1.551,1.551,0,0,1,.166-.652l-5.951-3.2c0,.02.007.037.012.057.1.545.891,4.827.2,7.114a4.286,4.286,0,0,1-1.65.4,3.022,3.022,0,0,0-1.956.82c-.728.71-1.34,2.028-.877,4.46a57.573,57.573,0,0,1,.426,14.036l13.846.183s.528-7.293,1.209-10.586-.168-6.453-2.111-7.572" transform="translate(-35.405 -113.936)" fill="#f7bb8b"/>
        <path id="Trazado_826604" data-name="Trazado 826604" d="M86.271,234.437c-3.194.464-4.887-3.329-4.949-3.471a3.777,3.777,0,0,0,2.316,1.6,6.279,6.279,0,0,0,2.452.08l.02,0a7.163,7.163,0,0,0,.161,1.8" transform="translate(-40.894 -116.145)" fill="#eba771"/>
        <path id="Trazado_826605" data-name="Trazado 826605" d="M74.126,241s3.461,7.432,5.182,6.736.923-6.719.923-6.719a28.859,28.859,0,0,1,3.381,1.865c.513.476,2.967,3.736,2.308,7.289s-2.161,8.681-.842,12.051c0,0-9.451,1.722-16.52,0,0,0,1.575-5.238,1.465-6.593s-1.135-10.293-.769-11.539,1.174-2.96,4.872-3.092" transform="translate(-34.475 -121.189)" fill="#f9e7c5"/>
        <path id="Trazado_826606" data-name="Trazado 826606" d="M88.468,267.864a16.231,16.231,0,0,0,3.8-4.291,6.775,6.775,0,0,1-3.8,4.291" transform="translate(-44.487 -132.542)" fill="#080c1f"/>
        <path id="Trazado_826607" data-name="Trazado 826607" d="M92.686,270.464a6.633,6.633,0,0,1,2.089-2.382,6.624,6.624,0,0,1-2.089,2.382" transform="translate(-46.609 -134.809)" fill="#080c1f"/>
        <path id="Trazado_826608" data-name="Trazado 826608" d="M91.848,240.346s4.185,3.645,3.965,7.417.7,13.919.7,13.919,1.355,5.055,1.172,7.18-.183,3.26-.183,3.26a5.467,5.467,0,0,0,2.235,0c.659-.293-2.509-15.055-2.216-16.667s.659-6.721.11-9.176-2.859-6.057-5.972-6.643a4.625,4.625,0,0,0,.182.677Z" transform="translate(-46.09 -120.505)" fill="#7816c2"/>
        <path id="Trazado_826609" data-name="Trazado 826609" d="M103.683,258.009a40.667,40.667,0,0,1,.124,7.871,40.669,40.669,0,0,1-.124-7.871" transform="translate(-52.071 -129.744)" fill="#080c1f"/>
        <path id="Trazado_826610" data-name="Trazado 826610" d="M70.066,239.443l-.133.774,1.048,3.688a22.727,22.727,0,0,1,.8,8.669L69.938,270.78c.037.33-5.788.037-9.78-1.648,0,0,3.517-12.82,3.627-15.421s1.391-11.575,1.391-11.575a6.271,6.271,0,0,1,4.89-2.692" transform="translate(-30.251 -120.407)" fill="#7816c2"/>
        <path id="Trazado_826611" data-name="Trazado 826611" d="M159.687,184.076a20.43,20.43,0,1,0,0,28.892,20.429,20.429,0,0,0,0-28.892M133.072,210.69a17.209,17.209,0,1,1,24.337,0,17.209,17.209,0,0,1-24.337,0" transform="translate(-62.763 -89.556)" fill="#55c1f2"/>
        <g id="Grupo_1075412" data-name="Grupo 1075412" transform="translate(65.269 91.757)" opacity="0.23">
          <g id="Grupo_1075411" data-name="Grupo 1075411">
            <g id="Grupo_1075410" data-name="Grupo 1075410" clip-path="url(#clip-path-5)">
              <path id="Trazado_826612" data-name="Trazado 826612" d="M160.666,213.949a17.209,17.209,0,1,1,0-24.336,17.209,17.209,0,0,1,0,24.336" transform="translate(-131.29 -184.572)" fill="#28ace3"/>
            </g>
          </g>
        </g>
        <path id="Trazado_826613" data-name="Trazado 826613" d="M106.025,245.907,76.149,276.566a2.657,2.657,0,0,1-3.806-3.709c.032-.033.071-.071.1-.1l31.507-28.98a1.486,1.486,0,0,1,2.07,2.131" transform="translate(-36 -122.389)" fill="#55c1f2"/>
        <rect id="Rectángulo_379536" data-name="Rectángulo 379536" width="2.988" height="5.447" transform="translate(64.075 123.517) rotate(-45)" fill="#f9e7c5"/>
        <path id="Trazado_826614" data-name="Trazado 826614" d="M131.113,255.956c-.044.506-1.6,1.936-2.231,2.492l-1.13-1.029v0a2.032,2.032,0,0,1,1.273-1.352s-.22-1.374,0-1.539c.15-.112.837.64.9.71-.039-.087-.668-1.53-.189-1.424a3.037,3.037,0,0,1,1.374,2.143" transform="translate(-64.242 -127.631)" fill="#f7bb8b"/>
        <path id="Trazado_826615" data-name="Trazado 826615" d="M85.83,288.295c-.116-.111-1.009-.962-2.361-2.26-.3.451-.6.9-.9,1.358-.11.188-.219.378-.322.569-.174.325-.341.653-.505.982a31.869,31.869,0,0,0,3.042,1.227l0-.006,1.051-1.857-.013-.013" transform="translate(-41.107 -143.837)" fill="#f7bb8b"/>
        <path id="Trazado_826616" data-name="Trazado 826616" d="M87.4,292.068s1.789,3,2.883,3.684a.091.091,0,0,0,.142-.088,2.676,2.676,0,0,0-.673-1.215s1.46,1.129,1.79,1.087-1.32-1.741-1.32-1.741,1.776,1.1,2.038.942S90.7,293.1,90.7,293.1s1.895,1.023,1.954.857c.147-.414-2.475-1.922-2.288-2.18.166-.229.907-.135,1.277-.022a.125.125,0,0,0,.166-.1c.025-.16-.006-.412-.387-.557a6.825,6.825,0,0,0-3.484-.451Z" transform="translate(-43.952 -146.122)" fill="#f7bb8b"/>
        <path id="Trazado_826617" data-name="Trazado 826617" d="M66.62,242.28s4.286,1.7,4.121,3.517-4.449,12.238-4.449,12.238l8.35,7.6s-2.087,3.242-2.747,3.352-11.1-7.307-11.813-8.956,1.1-15.659,6.538-17.747" transform="translate(-30.138 -121.834)" fill="#7816c2"/>
        <path id="Trazado_826618" data-name="Trazado 826618" d="M71.915,288.214s-4.847-3.231-8.047-5.873l-.528,2.393Z" transform="translate(-31.851 -141.979)" fill="#080c1f"/>
        <path id="Trazado_826619" data-name="Trazado 826619" d="M76.37,277.344a36.492,36.492,0,0,1-5.531-5,36.49,36.49,0,0,1,5.531,5" transform="translate(-35.622 -136.951)" fill="#080c1f"/>
        <path id="Trazado_826620" data-name="Trazado 826620" d="M72.228,268.342a4.477,4.477,0,0,1-.279,2.579,4.472,4.472,0,0,1,.279-2.579" transform="translate(-36.142 -134.94)" fill="#080c1f"/>
        <path id="Trazado_826621" data-name="Trazado 826621" d="M72.318,243.415c2.043-.2,2.318,2.6,1.906,4.06l-.127-1.25c-.131-1.134-.448-2.6-1.778-2.809" transform="translate(-36.366 -122.4)" fill="#080c1f"/>
        <path id="Trazado_826622" data-name="Trazado 826622" d="M86.468,218.645c-.006-.7-.02-1.433-.064-2.176a15.82,15.82,0,0,0-.967-5.041c-.807-1.963-4.446-2.664-6.932-.42-1.156,1.044-1.37,2.9-1.268,4.586a.848.848,0,0,0-.152-.058,1.052,1.052,0,0,0-1.172.765,1.394,1.394,0,0,0,.2,1.156,1.756,1.756,0,0,0,.809.651,2.254,2.254,0,0,0,.688.055A5.1,5.1,0,0,0,79.349,221a4.616,4.616,0,0,0,3.943.921c1.09-.249,2.7-.98,3.077-2.123a2.863,2.863,0,0,0,.1-.93c0-.073,0-.145,0-.22" transform="translate(-38.149 -105.407)" fill="#f7bb8b"/>
        <path id="Trazado_826623" data-name="Trazado 826623" d="M95.747,225.554a1.022,1.022,0,0,1-.286.044,1.123,1.123,0,1,1-.042-2.246,1.074,1.074,0,0,1,.264.026c.044.743.057,1.475.064,2.176" transform="translate(-47.428 -112.316)" fill="#eba771"/>
        <path id="Trazado_826624" data-name="Trazado 826624" d="M83.068,224.705a1.124,1.124,0,1,0,1.1-1.144,1.124,1.124,0,0,0-1.1,1.144" transform="translate(-41.772 -112.421)" fill="#eba771"/>
        <path id="Trazado_826625" data-name="Trazado 826625" d="M93.044,220.612c.007.367.158.662.337.658s.319-.3.312-.67-.158-.662-.337-.658-.319.3-.312.67" transform="translate(-46.788 -110.601)" fill="#080c1f"/>
        <path id="Trazado_826626" data-name="Trazado 826626" d="M94.283,219.438a.949.949,0,0,1-.214.287.771.771,0,0,1-.336.182h-.005a.12.12,0,1,1-.058-.233.115.115,0,0,1,.031,0,.7.7,0,0,0,.516-.273l0,0a.039.039,0,0,1,.065.042" transform="translate(-47.057 -110.319)" fill="#080c1f"/>
        <path id="Trazado_826627" data-name="Trazado 826627" d="M88.041,220.705c.007.367-.133.667-.312.67s-.33-.291-.337-.658.133-.667.312-.67.33.291.337.658" transform="translate(-43.946 -110.654)" fill="#080c1f"/>
        <path id="Trazado_826628" data-name="Trazado 826628" d="M86.74,219.55a.7.7,0,0,0,.525.254.12.12,0,0,1,.014.24.109.109,0,0,1-.031,0h-.006a.772.772,0,0,1-.343-.17.957.957,0,0,1-.225-.279.039.039,0,0,1,.016-.052.038.038,0,0,1,.047.008Z" transform="translate(-43.583 -110.396)" fill="#080c1f"/>
        <path id="Trazado_826629" data-name="Trazado 826629" d="M90.931,225.327a1.589,1.589,0,0,1-.479.565,1.237,1.237,0,0,1-.722.255,1.259,1.259,0,0,1-.728-.236,2.392,2.392,0,0,1-.284-.244c-.079-.1-.155-.194-.224-.294.1.071.194.148.288.222s.2.135.3.185a1.341,1.341,0,0,0,.645.17,1.3,1.3,0,0,0,.641-.186,2.8,2.8,0,0,0,.562-.436" transform="translate(-44.501 -113.309)" fill="#080c1f"/>
        <path id="Trazado_826630" data-name="Trazado 826630" d="M90.986,227.729a.535.535,0,0,1-.34.122.564.564,0,0,1-.344-.109,1.8,1.8,0,0,0,.343.032,1.49,1.49,0,0,0,.341-.045" transform="translate(-45.41 -114.517)" fill="#080c1f"/>
        <path id="Trazado_826631" data-name="Trazado 826631" d="M87.293,216.548a.77.77,0,0,0-.506-.177,1.564,1.564,0,0,0-.534.086,1.318,1.318,0,0,0-.467.279,1.383,1.383,0,0,0-.314.419.155.155,0,0,0,.245.185l.013-.012a1.916,1.916,0,0,1,.316-.26,1.116,1.116,0,0,1,.351-.152,1.379,1.379,0,0,1,.383-.044,1.474,1.474,0,0,0,.409-.031l.041-.011a.162.162,0,0,0,.064-.281" transform="translate(-42.972 -108.805)" fill="#080c1f"/>
        <path id="Trazado_826632" data-name="Trazado 826632" d="M92.362,216.467a.769.769,0,0,1,.5-.2,1.556,1.556,0,0,1,.537.066,1.3,1.3,0,0,1,.477.261,1.383,1.383,0,0,1,.33.407.156.156,0,0,1-.238.194l-.013-.012a1.924,1.924,0,0,0-.326-.249,1.115,1.115,0,0,0-.356-.139,1.369,1.369,0,0,0-.384-.03,1.475,1.475,0,0,1-.41-.016l-.041-.009a.163.163,0,0,1-.123-.194.166.166,0,0,1,.049-.084" transform="translate(-46.419 -108.754)" fill="#080c1f"/>
        <path id="Trazado_826633" data-name="Trazado 826633" d="M90.444,219.286c.062.249.109.5.16.742a7.36,7.36,0,0,0,.176.72c.017.058.036.115.058.171a.611.611,0,0,1,.06.213.432.432,0,0,1-.225.4.523.523,0,0,1-.423.03,1.038,1.038,0,0,1-.34-.194c.235.084.508.147.67.02a.257.257,0,0,0,.111-.239A.469.469,0,0,0,90.64,221c-.026-.062-.049-.124-.069-.186a3.548,3.548,0,0,1-.136-.762,4.067,4.067,0,0,1,.009-.766" transform="translate(-45.213 -110.271)" fill="#080c1f"/>
        <path id="Trazado_826634" data-name="Trazado 826634" d="M76.8,223.229a.553.553,0,0,1,.164-.443.515.515,0,0,1,.5-.058.94.94,0,0,1,.41.288,1.506,1.506,0,0,1,.259.42.11.11,0,0,1-.179.122l-.007-.007a.985.985,0,0,0-.377-.257.171.171,0,0,0-.156.02.411.411,0,0,0-.109.174c-.054.147-.085.318.041.383a.832.832,0,0,0,.492.024.773.773,0,0,1-.539.083.305.305,0,0,1-.2-.251.793.793,0,0,1,.026-.295.562.562,0,0,1,.152-.274.374.374,0,0,1,.339-.077,1.072,1.072,0,0,1,.49.317l-.186.115a1.19,1.19,0,0,0-.522-.629.416.416,0,0,0-.378-.016.551.551,0,0,0-.225.359" transform="translate(-38.618 -111.983)" fill="#080c1f"/>
        <path id="Trazado_826635" data-name="Trazado 826635" d="M78.189,217.719c-.332-1.672-1.143-3.345-.815-5.018a5.775,5.775,0,0,0-6.347-6.849c-1.8.213-3.879,1.138-4.495,2.844a6.846,6.846,0,0,1-3.127,3.347c-1.34.8-2.806,1.365-4.127,2.193a6.382,6.382,0,0,0-2.941,3.492,5.8,5.8,0,0,0,1.833,5.462,15.2,15.2,0,0,0,4.47,2.77,5.145,5.145,0,0,1,.971-1.161,2.772,2.772,0,0,1,1.022-.554,3.1,3.1,0,0,1,1.615-.54,4.24,4.24,0,0,0,1.655-.4c.664-2.22-.057-6.306-.193-7.053a2.147,2.147,0,0,1-.682-.055,1.739,1.739,0,0,1-.808-.651,1.388,1.388,0,0,1-.2-1.156,1.053,1.053,0,0,1,1.171-.765.968.968,0,0,1,.131.048,1.778,1.778,0,0,0,1.48.845c1.786-.055,1.621-3.984,1.621-3.984s4.251,1.914,5.753,1.177a21.285,21.285,0,0,1,.334,2.847c.044.743.057,1.474.064,2.176,0,.075,0,.147,0,.22a2.877,2.877,0,0,1-.1.93c-.371,1.119-1.916,1.842-3,2.105a7.248,7.248,0,0,0,.163,1.8c.132.686.305,1.292.378,1.534a10.414,10.414,0,0,0,2.776,1.723l.062.037a5.914,5.914,0,0,0,1.584-2.754,10.784,10.784,0,0,0-.242-4.611" transform="translate(-28.252 -103.497)" fill="#080c1f"/>
        <path id="Trazado_826636" data-name="Trazado 826636" d="M578.381,137.275a8.229,8.229,0,0,1-3.289-1.58l.31-.389a7.716,7.716,0,0,0,3.089,1.484Zm3.648,0-.111-.485A7.724,7.724,0,0,0,585,135.3l.311.388a8.227,8.227,0,0,1-3.286,1.587m-9.218-4.425a8.121,8.121,0,0,1-.817-3.556h.5a7.635,7.635,0,0,0,.768,3.34Zm14.778-.015-.447-.216a7.627,7.627,0,0,0,.761-3.342l.356-.023.141.012a8.121,8.121,0,0,1-.81,3.569m-14.344-6.886-.448-.215a8.267,8.267,0,0,1,2.269-2.858l.311.388a7.767,7.767,0,0,0-2.132,2.685m13.884-.042a7.775,7.775,0,0,0-2.149-2.671l.309-.39a8.266,8.266,0,0,1,2.286,2.844Zm-8.669-4.139-.112-.485a8.259,8.259,0,0,1,1.845-.209h0a8.267,8.267,0,0,1,1.8.2l-.108.485a7.77,7.77,0,0,0-1.692-.186h0a7.738,7.738,0,0,0-1.734.2" transform="translate(-287.636 -60.882)" fill="#c1e29a"/>
        <path id="Trazado_826637" data-name="Trazado 826637" d="M15.661,82.39h-.148l0-.5h.143a15.277,15.277,0,0,0,3.255-.35l.106.485a15.721,15.721,0,0,1-3.361.362m-3.649-.427a15.6,15.6,0,0,1-3.317-1.2l.221-.445a15.081,15.081,0,0,0,3.212,1.164ZM22.36,80.887l-.213-.449a15.137,15.137,0,0,0,2.9-1.8l.308.39a15.686,15.686,0,0,1-3,1.861M5.732,78.844a15.739,15.739,0,0,1-2.459-2.529l.393-.3A15.288,15.288,0,0,0,6.047,78.46Zm22.129-2.3-.388-.312a15.2,15.2,0,0,0,1.83-2.885l.447.217a15.682,15.682,0,0,1-1.89,2.979M1.439,73.3A15.568,15.568,0,0,1,.33,69.954l.486-.1A15.1,15.1,0,0,0,1.89,73.094Zm29.484-3.067-.484-.111a15.242,15.242,0,0,0,.381-3.394h.5a15.731,15.731,0,0,1-.394,3.5M.5,66.451,0,66.442a15.73,15.73,0,0,1,.458-3.5l.483.12A15.239,15.239,0,0,0,.5,66.451m30.056-2.568a15.061,15.061,0,0,0-1.014-3.261l.455-.2a15.563,15.563,0,0,1,1.047,3.369ZM2.135,59.864l-.443-.225a15.693,15.693,0,0,1,1.944-2.945l.381.319a15.2,15.2,0,0,0-1.882,2.851m25.683-2.192a15.259,15.259,0,0,0-2.337-2.492L25.8,54.8a15.775,15.775,0,0,1,2.413,2.573ZM6.488,54.654l-.3-.4a15.7,15.7,0,0,1,3.029-1.805l.2.453a15.206,15.206,0,0,0-2.933,1.748m16.16-1.382a15.115,15.115,0,0,0-3.189-1.224l.124-.481a15.56,15.56,0,0,1,3.295,1.264Zm-9.975-1.41-.1-.487a15.738,15.738,0,0,1,3.079-.3c.149,0,.291,0,.435.005l-.013.5c-.141,0-.289-.014-.422-.005a15.244,15.244,0,0,0-2.981.293" transform="translate(0 -25.682)" fill="#c1e29a"/>
        <path id="Trazado_826638" data-name="Trazado 826638" d="M60.941,95.294a4.723,4.723,0,1,1-4.723-4.723,4.723,4.723,0,0,1,4.723,4.723" transform="translate(-25.895 -45.545)" fill="#c1e29a"/>
        <path id="Trazado_826639" data-name="Trazado 826639" d="M564.455,252.051a3.48,3.48,0,1,1-3.48-3.48,3.48,3.48,0,0,1,3.48,3.48" transform="translate(-280.345 -124.998)" fill="#c1e29a"/>
        <path id="Trazado_826640" data-name="Trazado 826640" d="M491.466,46.057a2.486,2.486,0,1,1-2.486-2.486,2.486,2.486,0,0,1,2.486,2.486" transform="translate(-244.641 -21.91)" fill="#c1e29a"/>
        <path id="Trazado_826641" data-name="Trazado 826641" d="M18.952,162.3a3.729,3.729,0,1,1-3.729-3.729,3.729,3.729,0,0,1,3.729,3.729" transform="translate(-5.78 -79.74)" fill="#c1e29a"/>
        <path id="Trazado_826642" data-name="Trazado 826642" d="M25.706,175.493a6.746,6.746,0,0,1-.881-.057l.065-.493a6.259,6.259,0,0,0,3.274-.452l.2.456a6.666,6.666,0,0,1-2.654.545m-4.168-1.451a6.724,6.724,0,0,1-2.108-2.879l.464-.176a6.23,6.23,0,0,0,1.953,2.667Zm9.606-1.327-.4-.292a6.2,6.2,0,0,0,1.154-3.1l.5.043a6.689,6.689,0,0,1-1.247,3.345m-11.652-3.933H19a6.7,6.7,0,0,1,.948-3.441l.427.256a6.2,6.2,0,0,0-.877,3.186m11.81-2.7a6.247,6.247,0,0,0-2.179-2.486l.273-.415a6.746,6.746,0,0,1,2.353,2.684Zm-8.544-2.767-.237-.437a6.766,6.766,0,0,1,3.479-.8l-.022.5a6.285,6.285,0,0,0-3.221.737" transform="translate(-9.552 -81.499)" fill="#c1e29a"/>
        <path id="Trazado_826643" data-name="Trazado 826643" d="M571.8,264.927a8.607,8.607,0,0,1-3.417-.986l.233-.439a8.112,8.112,0,0,0,3.221.929Zm3.526-.459-.164-.469a8.158,8.158,0,0,0,2.871-1.731l.338.364a8.639,8.639,0,0,1-3.046,1.836m-9.679-2.8a8.634,8.634,0,0,1-1.6-3.177l.48-.127a8.135,8.135,0,0,0,1.509,2.995Zm14.785-1.935-.455-.2a8.14,8.14,0,0,0,.683-3.283h.5a8.637,8.637,0,0,1-.725,3.481m.179-4.376a8.121,8.121,0,0,0-1.038-3.187l.431-.248a8.616,8.616,0,0,1,1.1,3.382Zm-16.265-.342-.491-.074a8.6,8.6,0,0,1,1.243-3.333l.421.266a8.11,8.11,0,0,0-1.172,3.141m13-5.351a8.122,8.122,0,0,0-3.043-1.407l.111-.484a8.605,8.605,0,0,1,3.228,1.492Zm-9.5-.2-.279-.411a8.605,8.605,0,0,1,3.289-1.355l.09.489a8.123,8.123,0,0,0-3.1,1.277" transform="translate(-283.545 -124.559)" fill="#c1e29a"/>
      </g>
    </g>
  </g>
</svg>
