<svg xmlns="http://www.w3.org/2000/svg" xmlns:xlink="http://www.w3.org/1999/xlink" width="145" height="145" viewBox="0 0 145 145">
  <defs>
    <clipPath id="clip-path">
      <rect id="Rectángulo_379488" data-name="Rectángulo 379488" width="93.404" height="102.785" fill="none"/>
    </clipPath>
  </defs>
  <g id="Grupo_1075429" data-name="Grupo 1075429" transform="translate(-310 -4324)">
    <circle id="Elipse_5882" data-name="Elipse 5882" cx="72.5" cy="72.5" r="72.5" transform="translate(310 4324)" fill="#ffae7e"/>
    <g id="Grupo_1075381" data-name="Grupo 1075381" transform="translate(336.949 4344.944)">
      <g id="Grupo_1075398" data-name="Grupo 1075398" transform="translate(0 0)" clip-path="url(#clip-path)">
        <path id="Trazado_826428" data-name="Trazado 826428" d="M55.549,57.835a22.594,22.594,0,0,1-6.8,5.042c-.646.3-.636.77-.637,1.306,0,1.445.1,2.9-.03,4.332-.113,1.267.439,1.639,1.564,1.847q6.447,1.192,12.868,2.525c4.617.951,7.493,3.849,8.945,8.244q3.207,9.709,6.374,19.43c.57,1.738.225,2.22-1.638,2.221q-37.163.005-74.326,0c-1.893,0-2.191-.416-1.6-2.2,2.161-6.521,4.355-13.031,6.485-19.562,1.587-4.865,4.989-7.522,9.918-8.432,4.037-.745,8.068-1.525,12.1-2.279a1.3,1.3,0,0,0,1.253-1.587c-.109-1.706.342-3.538-.139-5.1s-2.588-1.762-3.868-2.749a22.1,22.1,0,0,1-8.493-12.809c-.3-1.3-.664-1.928-2.206-1.882a5.69,5.69,0,0,1-5.787-4.372A5.556,5.556,0,0,1,12.873,35.4a1.456,1.456,0,0,0,.894-1.623c0-2.889-.122-5.789.085-8.665A22.168,22.168,0,0,1,34.966,4.086c5.1-.311,10.273-.561,15.187,1.467a21.3,21.3,0,0,1,4.369,2.33c.953.686,1.21.284,1.221-.651.013-1.177-.015-2.355.012-3.532C55.809,1.3,57.062.038,59.423.017s4.709-.025,7.063,0C68.76.043,70,1.306,70.061,3.618a13.389,13.389,0,0,1-.013,2.245c-.254,1.775.392,2.744,2.171,3.261,1.064.309,1.788.379,2.547-.492a30.679,30.679,0,0,1,2.378-2.386,3.074,3.074,0,0,1,4.58,0Q84.5,8.907,87.161,11.7a3.068,3.068,0,0,1-.035,4.675,16.41,16.41,0,0,1-1.946,1.909c-1.28.978-1.375,1.976-.716,3.449.576,1.288,1.241,1.838,2.627,1.7a23.3,23.3,0,0,1,3.048-.012,3.092,3.092,0,0,1,3.211,3.091q.108,4.011,0,8.026a3.1,3.1,0,0,1-3.2,3.1,13.21,13.21,0,0,1-2.4-.011c-1.894-.279-2.936.43-3.515,2.3a1.989,1.989,0,0,0,.483,2.4c.862.8,1.7,1.626,2.494,2.5a2.985,2.985,0,0,1,.007,4.436q-2.7,2.856-5.547,5.568a3.057,3.057,0,0,1-4.578-.031,27.663,27.663,0,0,1-2.238-2.3c-.773-.908-1.51-.934-2.663-.583-1.794.545-2.2,1.535-2.163,3.284.109,5.427-.37,5.836-5.8,5.836H60.531c-3.286,0-3.633-.219-4.982-3.2m5.62-37.286.022.032c-.022-.27.013-.568-.339-.67l.015.022a2.493,2.493,0,0,0-.273-1.388A20.427,20.427,0,0,0,49.573,7.693c-4.29-1.83-8.787-1.531-13.261-1.5a19.858,19.858,0,0,0-15.38,7.042,14.294,14.294,0,0,0-3.766,7.012,14.922,14.922,0,0,0-.946,2.845c-.572,3.615-.211,7.253-.306,10.879-.011.415-.069.9.536,1a1.3,1.3,0,0,0,1.376-.573c1.056-1.407,2.21-2.74,3.257-4.153A5.959,5.959,0,0,0,22.32,27q.174-3.274.316-6.549a3.55,3.55,0,0,1,3.878-3.722c2.817.125,5.623.481,8.44.614a141.417,141.417,0,0,0,16.623-.608c2.133-.151,3.323.964,3.87,3.046a9.16,9.16,0,0,1,.22,3.659c-.7,4.709,2.076,7.845,4.794,11.032a1.119,1.119,0,0,0,1.27.463c.619-.225.411-.806.412-1.251.011-3,.05-5.993-.035-8.986a8.656,8.656,0,0,0-.674-3.576l-.265-.57m6.779,58.445,0,0a7.346,7.346,0,0,0-4.85-3.789c-2.453-.662-4.967-1.1-7.461-1.6-1.773-.359-3.555-.671-5.49-1.033l.484,1.608q-.336,1.451-.672,2.9c-.777,2.039-1.589,4.066-2.317,6.123-.393,1.111-.967,1.636-2.148,1.093-.484-.223-.849-.315-1.09.386a7.794,7.794,0,0,0-.536,4.223c.739,3.547,1.471,7.1,2.149,10.656.131.692.317,1.034,1.084,1.031q13.789-.062,27.578-.084c1.638.1.537-.977.434-1.3-1.8-5.6-3.7-11.168-5.522-16.76a6.567,6.567,0,0,0-1.386-2.8c.042-.267.164-.566-.255-.653M9.9,79.354A9.783,9.783,0,0,0,8.6,82.2Q5.812,90.849,3,99.489c-.135.416-.732,1.036.366,1.03q13.721.029,27.442.069c.75,0,1.12-.172,1.278-1,.756-3.981,1.641-7.939,2.369-11.924.214-1.171-.464-2.268-.867-3.362-.194-.526-.538-.191-.76-.074-1.356.716-1.937.016-2.36-1.177-.712-2.008-1.484-4-2.231-5.991a12.283,12.283,0,0,1-.6-2.914l.353-1.634c-4.455.913-8.81,1.678-13.092,2.738a7.5,7.5,0,0,0-5,4.109M36.212,90.542c-.59,2.977-1.118,5.968-1.806,8.922-.22.946-.019,1.1.838,1.093,2.514-.031,5.03-.058,7.543.011,1.068.029,1.134-.482.971-1.269q-.9-4.373-1.817-8.744c-.211-2.3-.211-2.3-2.462-2.3h-.635c-2.31,0-2.31,0-2.633,2.285m37.218-47.4c5.917-4.293,7.79-13.812,4.009-20.381C74.5,16.6,66.5,12.812,60.962,14.421c.539,1.093,1.1,2.175,1.607,3.285a1.243,1.243,0,0,0,1.194.848,12.2,12.2,0,0,1,7.7,21.215c-1.447,1.186-3.015,2.178-3.772,4.1-.464,1.181-1.795,1.682-3.062,2.1-1.09.361-2.279,0-3.278.656A14.264,14.264,0,0,0,73.43,43.139M91.3,31.743c0-1.5-.015-2.995.02-4.491.029-1.224-.561-1.767-1.745-1.763s-2.353-.031-3.529,0a3.059,3.059,0,0,1-3.115-2.051c-.275-.636-.506-1.294-.81-1.916a3.208,3.208,0,0,1,.829-4.054c.845-.818,1.668-1.659,2.495-2.495a1.243,1.243,0,0,0,.038-1.963c-1.7-1.706-3.407-3.4-5.106-5.1a1.172,1.172,0,0,0-1.924.066c-.889.924-1.826,1.8-2.716,2.727a3.144,3.144,0,0,1-3.257.816A13.731,13.731,0,0,1,69.4,10.207a2.893,2.893,0,0,1-1.533-2.643c0-1.23-.039-2.461,0-3.689.04-1.145-.407-1.662-1.6-1.636-2.191.049-4.386.068-6.575-.007-1.366-.047-1.754.534-1.736,1.818.02,1.485.381,3.051-.225,4.444a1.953,1.953,0,0,0,.546,2.6,2.361,2.361,0,0,0,2.341.863,14.077,14.077,0,0,1,3.2-.081,18.639,18.639,0,0,1,17.761,19.94,3.238,3.238,0,0,0-.175.607A17.7,17.7,0,0,1,73.831,45.6,17.9,17.9,0,0,1,62.1,49.138c-.643-.03-1.509-.327-1.819.569-.58,1.676-1.464,3.2-2.181,4.8a6.184,6.184,0,0,0-.048,3.481c.1.6.586.831,1.2.829q3.691-.017,7.383,0c.973,0,1.316-.5,1.3-1.41-.026-1.283.006-2.568,0-3.852a2.993,2.993,0,0,1,1.753-2.834c.66-.346,1.368-.6,2.059-.885a3.458,3.458,0,0,1,4.238.785c.762.824,1.6,1.581,2.371,2.395a1.313,1.313,0,0,0,2.185.071c1.609-1.644,3.252-3.255,4.874-4.886a1.47,1.47,0,0,0-.063-2.365c-.879-.861-1.739-1.742-2.614-2.607a2.552,2.552,0,0,1-.92-2.6c1.3-3.969,1.542-5.361,6.1-5.257,3.635.083,3.637.016,3.389-3.635M19.083,40.777c0,.642,0,1.283,0,1.925A19.972,19.972,0,0,0,45.4,61.4,20.293,20.293,0,0,0,59.234,43.319c.292-4.2.074-8.114-3.4-11.221-1.689-1.513-2.194-3.752-2.321-5.989-.093-1.654-.061-3.315-.106-4.972-.051-1.851-.489-2.291-2.31-2.183-2.987.177-5.968.469-8.956.6A108.742,108.742,0,0,1,27.1,18.909c-1.688-.16-2.139.244-2.238,1.873a41.913,41.913,0,0,0-.247,4.481,9.877,9.877,0,0,1-2.736,7.458c-2.124,2.294-3.618,4.761-2.792,8.056m13.15,26.849c.343.943-.519,2.314.618,3.508,1.911,2.007,3.715,4.117,5.512,6.228.552.649.872.725,1.443.025A25.373,25.373,0,0,1,43.113,73.7C45.8,71.489,46.44,68.687,46,65.446a.65.65,0,0,1,0-.16c.112-.975-.251-1.185-1.2-.923a20.673,20.673,0,0,1-9.5.442c-3.082-.59-3.073-.635-3.073,2.82M68.691,39.175A9.85,9.85,0,0,0,73.33,29.169,10.035,10.035,0,0,0,66.05,20.9c-2.207-.616-2.3-.538-1.991,1.595.023.158.019.321.042.479.536,3.613.188,7.249.284,10.873.015.568-.129,1.138.662,1.4a5.679,5.679,0,0,1,3.644,3.92M37.14,79.3c-.195-.235-.357-.441-.531-.638-1.589-1.8-3.221-3.558-4.754-5.4-.726-.873-1.168-.587-1.693.125a1.725,1.725,0,0,0-.241,1.8c.373.938.7,1.9,1.033,2.847C32.5,82.4,32.5,82.4,36.5,79.958a1.159,1.159,0,0,0,.638-.655m3.72.2c1.511.782,2.8,1.411,4.055,2.113.744.417.975.159,1.217-.563.641-1.915,1.367-3.8,2.068-5.7a2.015,2.015,0,0,0-.491-2.335c-.449-.449-.728-.472-1.148.011-1.851,2.128-3.726,4.235-5.7,6.47m-24-38.881q0-1.358,0-2.717c0-.389-.037-.681-.533-.816a3.987,3.987,0,0,0-4.564,2.372,3.533,3.533,0,0,0,2.532,4.477c2.02.527,2.567.128,2.566-1.876q0-.719,0-1.439m44.558-.076h-.041q0,1.278,0,2.557c0,.353-.159.828.4.874a4.462,4.462,0,0,0,3.748-.9,3.4,3.4,0,0,0-1.709-5.888c-2.244-.379-2.392-.284-2.4,1.92,0,.48,0,.959,0,1.439M38.954,85.924a4,4,0,0,1,.769.006c1.931.453,2.328-.924,2.642-2.281s-1.148-1.072-1.684-1.658c-.132-.145-.385-.172-.566-.28-1.682-1.008-2.826.415-3.991,1.078-1,.569,0,1.612.234,2.376.47,1.54,1.85.359,2.6.758" transform="translate(0 0)" fill="#272633"/>
        <path id="Trazado_826429" data-name="Trazado 826429" d="M58.911,80.658c-.826-3.3.668-5.762,2.792-8.056a9.877,9.877,0,0,0,2.736-7.458,41.918,41.918,0,0,1,.247-4.481c.1-1.629.55-2.033,2.238-1.873a108.743,108.743,0,0,0,15.049.644c2.988-.131,5.969-.424,8.956-.6,1.821-.108,2.259.332,2.31,2.183.046,1.657.013,3.318.106,4.972.127,2.236.632,4.476,2.321,5.989,3.469,3.107,3.688,7.02,3.4,11.221a20.292,20.292,0,0,1-13.836,18.085,19.972,19.972,0,0,1-26.314-18.7c-.005-.642,0-1.284,0-1.926M78.365,94.771A6.686,6.686,0,0,0,83.8,92.4c.468-.611.77-1.231.062-1.809-.623-.509-1.119-.18-1.64.345-2.312,2.33-4.2,2.321-6.566,0-.514-.5-1.024-.846-1.653-.323-.715.594-.4,1.248.078,1.813a6.133,6.133,0,0,0,4.286,2.344M87.3,72.846c.747,0,1.5.028,2.241-.009a.983.983,0,0,0,1.026-1.015,1.009,1.009,0,0,0-1.1-1.1c-1.388-.013-2.775-.011-4.163,0a1,1,0,0,0-1.1,1.094.979.979,0,0,0,1.014,1.026c.691.046,1.387.011,2.081.01M70.49,70.725c-.747,0-1.5-.019-2.241.006a.932.932,0,0,0-.928.922.918.918,0,0,0,.857,1.138c1.543.062,3.091.063,4.634,0a.922.922,0,0,0,.853-1.143.932.932,0,0,0-.933-.916c-.747-.023-1.494-.006-2.241-.006m17.95,5.784c.015-.8-.027-1.529-.993-1.579-1.053-.055-1.166.674-1.183,1.5-.017.8.228,1.454,1.092,1.458s1.161-.631,1.084-1.378m-18.968-.164c-.022.739.036,1.492.982,1.526s1.079-.689,1.062-1.443c-.016-.7.028-1.471-.985-1.5s-1.045.7-1.059,1.422" transform="translate(-39.828 -39.881)" fill="#ef988a"/>
        <path id="Trazado_826430" data-name="Trazado 826430" d="M167.11,263.335q-13.789.037-27.578.084c-.766,0-.952-.339-1.084-1.031-.678-3.56-1.41-7.109-2.149-10.656a7.8,7.8,0,0,1,.536-4.223c.241-.7.606-.608,1.09-.385,1.18.543,1.755.018,2.148-1.093.728-2.057,1.54-4.083,2.317-6.123a6,6,0,0,1,.961.035c3.8.743,7.615,1.449,11.4,2.269,3.367.729,6.076,2.538,7.354,5.8a131.376,131.376,0,0,1,5,15.324" transform="translate(-92.434 -162.832)" fill="#5771a3"/>
        <path id="Trazado_826431" data-name="Trazado 826431" d="M35.336,239.851c.747,2,1.519,3.983,2.231,5.991.423,1.194,1,1.893,2.36,1.178.222-.117.566-.451.76.074.4,1.095,1.081,2.191.867,3.362-.728,3.986-1.613,7.943-2.369,11.925-.157.83-.528,1-1.278,1q-13.721-.054-27.442-.069c1.5-4.663,2.954-9.344,4.531-13.983a9.984,9.984,0,0,1,7.21-6.915c4.327-1.057,8.749-1.727,13.13-2.565" transform="translate(-7.104 -162.794)" fill="#5771a3"/>
        <path id="Trazado_826432" data-name="Trazado 826432" d="M95,39.905a8.652,8.652,0,0,1,.674,3.576c.085,2.993.047,5.99.036,8.986,0,.445.207,1.026-.413,1.251a1.119,1.119,0,0,1-1.27-.463c-2.718-3.187-5.489-6.323-4.793-11.032a9.165,9.165,0,0,0-.22-3.659c-.547-2.081-1.738-3.2-3.87-3.046a141.489,141.489,0,0,1-16.623.608c-2.817-.132-5.623-.489-8.44-.614A3.55,3.55,0,0,0,56.2,39.233q-.142,3.275-.316,6.549a5.965,5.965,0,0,1-1.237,3.25c-1.047,1.413-2.2,2.747-3.258,4.153a1.3,1.3,0,0,1-1.376.573c-.6-.1-.547-.582-.536-1,.1-3.626-.266-7.265.306-10.879a14.956,14.956,0,0,1,.946-2.845,5.5,5.5,0,0,0,.614-.716A21.259,21.259,0,0,1,65.158,28.228c3.421-.817,6.91-.48,10.371-.479A20.841,20.841,0,0,1,90.633,34c1.461,1.435,2.444,3.218,3.8,4.719l-.015-.022.339.67-.022-.032.265.57" transform="translate(-33.563 -18.787)" fill="#2b2e58"/>
        <path id="Trazado_826433" data-name="Trazado 826433" d="M213.464,96.595c.248,3.651.246,3.718-3.389,3.635-4.559-.1-4.8,1.288-6.1,5.257a2.552,2.552,0,0,0,.92,2.6c.875.865,1.735,1.746,2.614,2.607a1.47,1.47,0,0,1,.064,2.365c-1.623,1.631-3.265,3.242-4.874,4.886a1.313,1.313,0,0,1-2.185-.071c-.774-.814-1.609-1.571-2.371-2.395a3.459,3.459,0,0,0-4.238-.785c-.691.284-1.4.539-2.059.885a2.994,2.994,0,0,0-1.754,2.834c.011,1.284-.021,2.569,0,3.852.019.915-.324,1.415-1.3,1.41q-3.691-.018-7.383,0c-.614,0-1.1-.226-1.2-.829a6.187,6.187,0,0,1,.048-3.481c.718-1.6,1.6-3.129,2.182-4.8.31-.9,1.176-.6,1.819-.569a17.9,17.9,0,0,0,11.729-3.542,17.7,17.7,0,0,0,7.571-13.17,3.2,3.2,0,0,1,.176-.607,11.471,11.471,0,0,1,9.723-.075" transform="translate(-122.163 -64.851)" fill="#2b2e58"/>
        <path id="Trazado_826434" data-name="Trazado 826434" d="M212.7,36.454a11.471,11.471,0,0,0-9.723.075,18.64,18.64,0,0,0-17.761-19.94,14.077,14.077,0,0,0-3.2.081,2.361,2.361,0,0,1-2.341-.863,1.953,1.953,0,0,1-.546-2.6c.606-1.393.244-2.96.225-4.444-.017-1.284.371-1.865,1.737-1.818,2.189.075,4.384.056,6.575.007,1.191-.027,1.637.491,1.6,1.636-.042,1.228,0,2.459,0,3.689a2.893,2.893,0,0,0,1.533,2.644,13.739,13.739,0,0,0,3.084,1.312,3.144,3.144,0,0,0,3.257-.816c.889-.924,1.826-1.8,2.716-2.727a1.172,1.172,0,0,1,1.924-.066c1.7,1.7,3.41,3.394,5.106,5.1a1.243,1.243,0,0,1-.038,1.963c-.827.836-1.65,1.677-2.495,2.495a3.209,3.209,0,0,0-.829,4.055c.3.622.535,1.28.81,1.916a3.059,3.059,0,0,0,3.115,2.052c1.176-.032,2.352,0,3.529,0s1.774.54,1.745,1.763c-.035,1.5-.016,2.994-.02,4.491M203.4,18.687a7.138,7.138,0,0,0-2.623-2.67,6.78,6.78,0,0,0-2.7,2.552,10.335,10.335,0,0,0,2.951,2.817,10.131,10.131,0,0,0,2.371-2.7m-19.455-5.015c1.473.11,2.716.314,2.511-1.782-.2-2.013-.041-2.028-2.143-2.028-2.188,0-2.267,0-2.154,3.164.05,1.4,1.342.314,1.786.647" transform="translate(-121.396 -4.71)" fill="#5771a3"/>
        <path id="Trazado_826435" data-name="Trazado 826435" d="M100.332,203.386c0-3.456-.009-3.41,3.073-2.82a20.674,20.674,0,0,0,9.5-.442c.947-.262,1.31-.052,1.2.923a.666.666,0,0,0,0,.16c.439,3.241-.206,6.042-2.889,8.253a25.353,25.353,0,0,0-3.306,3.688c-.571.7-.892.624-1.443-.025-1.8-2.111-3.6-4.221-5.512-6.228-1.137-1.194-.274-2.565-.618-3.508" transform="translate(-68.099 -135.76)" fill="#ef988a"/>
        <path id="Trazado_826436" data-name="Trazado 826436" d="M97.131,32.942c-1.352-1.5-2.335-3.284-3.8-4.718a20.84,20.84,0,0,0-15.1-6.251c-3.461,0-6.95-.339-10.371.479A21.258,21.258,0,0,0,54.044,32.543a5.48,5.48,0,0,1-.614.717A14.294,14.294,0,0,1,57.2,26.248a19.858,19.858,0,0,1,15.381-7.042c4.474-.034,8.971-.333,13.261,1.5a20.425,20.425,0,0,1,11.02,10.851,2.493,2.493,0,0,1,.273,1.388" transform="translate(-36.265 -13.009)" fill="#5771a3"/>
        <path id="Trazado_826437" data-name="Trazado 826437" d="M222.43,87.7a12.388,12.388,0,0,0,2.223-15.361c1.068-.968,2.107-2.005,3.756-1.65,3.781,6.569,1.909,16.087-4.009,20.38.025-1.521-1.422-2.182-1.969-3.369" transform="translate(-150.97 -47.929)" fill="#5771a3"/>
        <path id="Trazado_826438" data-name="Trazado 826438" d="M114.457,281.84q.909,4.372,1.817,8.744c.163.787.1,1.3-.972,1.269-2.513-.069-5.029-.042-7.543-.011-.856.011-1.058-.147-.838-1.093.687-2.954,1.216-5.945,1.806-8.922l5.73.013" transform="translate(-72.515 -191.285)" fill="#ef988a"/>
        <path id="Trazado_826439" data-name="Trazado 826439" d="M206.227,52.444c-1.65-.355-2.688.682-3.756,1.65a12.356,12.356,0,0,0-9.919-5.854,1.244,1.244,0,0,1-1.195-.848c-.5-1.11-1.068-2.192-1.609-3.284,5.543-1.61,13.542,2.178,16.478,8.336" transform="translate(-128.789 -29.686)" fill="#768fbc"/>
        <path id="Trazado_826440" data-name="Trazado 826440" d="M33.965,233.694c-4.381.838-8.8,1.508-13.13,2.565a9.984,9.984,0,0,0-7.21,6.915c-1.577,4.638-3.026,9.32-4.531,13.983-1.1.006-.5-.614-.366-1.03q2.8-8.646,5.6-17.29a9.8,9.8,0,0,1,1.3-2.845A1.9,1.9,0,0,0,17,235.307a9.79,9.79,0,0,1,4.382-2.163c3.984-.842,7.991-1.582,11.988-2.363a12.279,12.279,0,0,0,.6,2.914" transform="translate(-5.733 -156.638)" fill="#768fbc"/>
        <path id="Trazado_826441" data-name="Trazado 826441" d="M180.216,257.209a131.389,131.389,0,0,0-5-15.324c-1.277-3.261-3.987-5.071-7.354-5.8-3.787-.82-7.6-1.526-11.4-2.269a6,6,0,0,0-.961-.035l.672-2.9c1.777.345,3.566.637,5.328,1.047,3.958.919,8.222.929,11.544,3.8.08.069.293-.015.444-.028l0,0c-.227.34-.025.512.255.653a6.563,6.563,0,0,1,1.386,2.8c1.823,5.593,3.718,11.162,5.522,16.76.1.319,1.2,1.4-.434,1.3" transform="translate(-105.54 -156.706)" fill="#768fbc"/>
        <path id="Trazado_826442" data-name="Trazado 826442" d="M100.034,232.94a1.158,1.158,0,0,1-.638.655c-4,2.444-4,2.443-5.549-1.923-.337-.952-.66-1.909-1.033-2.847a1.725,1.725,0,0,1,.241-1.8c.526-.712.967-1,1.693-.125,1.534,1.843,3.165,3.6,4.755,5.4.174.2.336.4.53.638" transform="translate(-62.895 -153.637)" fill="#768fbc"/>
        <path id="Trazado_826443" data-name="Trazado 826443" d="M127.183,233.054c1.974-2.236,3.849-4.342,5.7-6.47.42-.483.7-.461,1.148-.011a2.014,2.014,0,0,1,.491,2.335c-.7,1.9-1.427,3.782-2.068,5.7-.242.722-.473.979-1.217.562-1.251-.7-2.544-1.331-4.055-2.113" transform="translate(-86.323 -153.549)" fill="#768fbc"/>
        <path id="Trazado_826444" data-name="Trazado 826444" d="M41.379,118.754q0,.719,0,1.439c0,2-.545,2.4-2.566,1.876a3.534,3.534,0,0,1-2.532-4.477,3.988,3.988,0,0,1,4.564-2.372c.5.135.534.428.533.817q0,1.358,0,2.717" transform="translate(-24.523 -78.13)" fill="#ef988a"/>
        <path id="Trazado_826445" data-name="Trazado 826445" d="M191.031,118.754c0-.48,0-.959,0-1.439,0-2.2.153-2.3,2.4-1.919a3.4,3.4,0,0,1,1.709,5.887,4.461,4.461,0,0,1-3.748.9c-.558-.046-.4-.52-.4-.874q0-1.278,0-2.557h.041" transform="translate(-129.617 -78.207)" fill="#ef988a"/>
        <path id="Trazado_826446" data-name="Trazado 826446" d="M201.068,123.788c.547,1.187,1.994,1.848,1.969,3.369a14.261,14.261,0,0,1-12.081,3.492c1-.654,2.187-.295,3.278-.656,1.266-.419,2.6-.921,3.062-2.1.757-1.926,2.325-2.917,3.772-4.1" transform="translate(-129.608 -84.019)" fill="#2b2e58"/>
        <path id="Trazado_826447" data-name="Trazado 826447" d="M48.542,227.328c-4,.781-8,1.521-11.988,2.363a9.787,9.787,0,0,0-4.382,2.163,1.9,1.9,0,0,1-1.372.685,7.5,7.5,0,0,1,5-4.108c4.282-1.059,8.637-1.824,13.092-2.738l-.353,1.634" transform="translate(-20.905 -153.186)" fill="#f7f9fa"/>
        <path id="Trazado_826448" data-name="Trazado 826448" d="M173.882,232.3c-.151.013-.364.1-.444.028-3.323-2.868-7.586-2.878-11.544-3.8-1.762-.409-3.551-.7-5.328-1.047l-.484-1.608c1.934.362,3.717.674,5.49,1.033,2.493.5,5.008.939,7.461,1.6a7.346,7.346,0,0,1,4.85,3.789" transform="translate(-105.937 -153.309)" fill="#f7f9fa"/>
        <path id="Trazado_826449" data-name="Trazado 826449" d="M114.35,257.813c-.746-.4-2.126.782-2.6-.758-.233-.765-1.235-1.807-.234-2.376,1.166-.663,2.309-2.086,3.991-1.078.181.109.434.136.566.28.537.586,2,.3,1.684,1.658s-.712,2.733-2.642,2.281a4,4,0,0,0-.769-.006" transform="translate(-75.396 -171.889)" fill="#ef988a"/>
        <path id="Trazado_826450" data-name="Trazado 826450" d="M118.446,277.012l-5.73-.013c.323-2.285.323-2.285,2.633-2.285h.635c2.251,0,2.251,0,2.462,2.3" transform="translate(-76.504 -186.458)" fill="#f7f9fa"/>
        <path id="Trazado_826451" data-name="Trazado 826451" d="M189.748,62.646l-.339-.67c.352.1.317.4.339.67" transform="translate(-128.558 -42.065)" fill="#5771a3"/>
        <path id="Trazado_826452" data-name="Trazado 826452" d="M190.662,64.531l-.265-.57.265.57" transform="translate(-129.228 -43.412)" fill="#5771a3"/>
        <path id="Trazado_826453" data-name="Trazado 826453" d="M211.546,246.534c-.28-.141-.482-.313-.255-.653.419.087.3.385.255.653" transform="translate(-143.343 -166.887)" fill="#f7f9fa"/>
        <path id="Trazado_826454" data-name="Trazado 826454" d="M109.849,161.494a6.132,6.132,0,0,1-4.286-2.344c-.476-.565-.793-1.219-.078-1.813.629-.523,1.14-.182,1.653.323,2.37,2.326,4.255,2.334,6.566,0,.521-.525,1.017-.854,1.64-.345.709.579.406,1.2-.062,1.81a6.686,6.686,0,0,1-5.433,2.367" transform="translate(-71.311 -106.604)" fill="#272633"/>
        <path id="Trazado_826455" data-name="Trazado 826455" d="M141.231,98.1c-.694,0-1.39.036-2.081-.01a.979.979,0,0,1-1.014-1.025,1,1,0,0,1,1.1-1.094q2.082-.013,4.163,0a1.01,1.01,0,0,1,1.1,1.1.983.983,0,0,1-1.026,1.015c-.745.037-1.494.009-2.241.009" transform="translate(-93.758 -65.132)" fill="#272633"/>
        <path id="Trazado_826456" data-name="Trazado 826456" d="M88.724,95.991c.747,0,1.495-.018,2.241.006a.931.931,0,0,1,.933.916.921.921,0,0,1-.853,1.142c-1.542.065-3.091.064-4.634,0a.918.918,0,0,1-.857-1.138A.932.932,0,0,1,86.483,96c.746-.026,1.494-.006,2.241-.006" transform="translate(-58.062 -65.147)" fill="#272633"/>
        <path id="Trazado_826457" data-name="Trazado 826457" d="M146.714,110.666c.077.747-.22,1.382-1.084,1.378s-1.109-.656-1.092-1.458c.018-.826.13-1.554,1.183-1.5.966.05,1.008.78.993,1.579" transform="translate(-98.102 -74.039)" fill="#272633"/>
        <path id="Trazado_826458" data-name="Trazado 826458" d="M92.266,110.494c.014-.723.051-1.455,1.059-1.422s.968.8.985,1.5c.018.754-.113,1.477-1.062,1.443s-1-.786-.982-1.526" transform="translate(-62.621 -74.03)" fill="#272633"/>
        <path id="Trazado_826459" data-name="Trazado 826459" d="M244.021,37.863a10.147,10.147,0,0,1-2.371,2.7,10.339,10.339,0,0,1-2.951-2.817,6.779,6.779,0,0,1,2.7-2.552,7.141,7.141,0,0,1,2.623,2.67" transform="translate(-162.013 -23.887)" fill="#768fbc"/>
        <path id="Trazado_826460" data-name="Trazado 826460" d="M190.867,19.844c-.444-.333-1.736.757-1.786-.647-.113-3.16-.034-3.163,2.154-3.164,2.1,0,1.946.015,2.143,2.028.205,2.1-1.038,1.892-2.511,1.782" transform="translate(-128.314 -10.883)" fill="#768fbc"/>
      </g>
    </g>
  </g>
</svg>
