<svg xmlns="http://www.w3.org/2000/svg" width="1234.511" height="485.767" viewBox="0 0 1234.511 485.767">
  <g id="Group_1074965" data-name="Group 1074965" transform="translate(-185.488 -467.226)">
    <text id="Tales_como" data-name="Tales como" transform="translate(203.488 711.632)" fill="#12263f" font-size="16" font-family="Roboto-Regular, Roboto"><tspan x="5.235" y="15">Tales como</tspan></text>
    <text id="Según" transform="translate(378 711.632)" fill="#12263f" font-size="16" font-family="Roboto-Regular, Roboto"><tspan x="5.231" y="15">Según</tspan></text>
    <text id="Según-2" data-name="Según" transform="translate(555.384 710.171)" fill="#12263f" font-size="16" font-family="Roboto-Regular, Roboto"><tspan x="5.231" y="15">Según</tspan></text>
    <text id="Son" transform="translate(705 711.632)" fill="#12263f" font-size="16" font-family="Roboto-Regular, Roboto"><tspan x="13.806" y="15">Son</tspan></text>
    <text id="Según-3" data-name="Según" transform="translate(870.382 711.632)" fill="#12263f" font-size="16" font-family="Roboto-Regular, Roboto"><tspan x="5.231" y="15">Según</tspan></text>
    <text id="Tanto_para" data-name="Tanto para" transform="translate(1022.981 710.632)" fill="#12263f" font-size="16" font-family="Roboto-Regular, Roboto"><tspan x="4.082" y="15">Tanto para</tspan></text>
    <text id="Generar" transform="translate(1216 710.632)" fill="#12263f" font-size="16" font-family="Roboto-Regular, Roboto"><tspan x="14.051" y="15">Generar</tspan></text>
    <text id="Según-4" data-name="Según" transform="translate(1262 838.734)" fill="#12263f" font-size="16" font-family="Roboto-Regular, Roboto"><tspan x="19.703" y="15">Según</tspan></text>
    <text id="Basados_en" data-name="Basados en" transform="translate(730.488 562.226)" fill="#12263f" font-size="16" font-family="Roboto-Regular, Roboto"><tspan x="28.359" y="15">Basados en</tspan></text>
    <line id="Line_1110" data-name="Line 1110" y2="49.937" transform="translate(256 622.132)" fill="none" stroke="#615504" stroke-linecap="round" stroke-miterlimit="10" stroke-width="3"/>
    <line id="Line_1200" data-name="Line 1200" y2="49.937" transform="translate(423 622.132)" fill="none" stroke="#615504" stroke-linecap="round" stroke-miterlimit="10" stroke-width="3"/>
    <line id="Line_1201" data-name="Line 1201" y2="49.937" transform="translate(600 622.132)" fill="none" stroke="#615504" stroke-linecap="round" stroke-miterlimit="10" stroke-width="3"/>
    <line id="Line_1202" data-name="Line 1202" y2="49.937" transform="translate(754 622.132)" fill="none" stroke="#615504" stroke-linecap="round" stroke-miterlimit="10" stroke-width="3"/>
    <line id="Line_1203" data-name="Line 1203" y2="49.937" transform="translate(915 622.132)" fill="none" stroke="#615504" stroke-linecap="round" stroke-miterlimit="10" stroke-width="3"/>
    <line id="Line_1204" data-name="Line 1204" y2="49.937" transform="translate(1099.97 622.132)" fill="none" stroke="#615504" stroke-linecap="round" stroke-miterlimit="10" stroke-width="3"/>
    <line id="Line_1205" data-name="Line 1205" y2="49.937" transform="translate(1306.819 623.132)" fill="none" stroke="#615504" stroke-linecap="round" stroke-miterlimit="10" stroke-width="3"/>
    <path id="Union_23" data-name="Union 23" d="M12592.063,10137.049h0v-45.5l-.573-.006.573.006v-45.007l-.573,0,.573,0v0l20.438-.086-20.438.086v45.007l20.438.206-20.438-.206v45.5h0v0Zm.427,45.451h0Z" transform="translate(-12397.484 -9282.202)" fill="rgba(0,0,0,0)" stroke="#615504" stroke-linecap="round" stroke-miterlimit="10" stroke-width="3"/>
    <path id="Union_25" data-name="Union 25" d="M12592.065,10107.544l-.576-.006.576.006v-54.009l-.576,0,.576,0v0l20.436-.086-20.436.086v54.009l20.436.207-20.436-.207v0Zm.424,56.062h0Z" transform="translate(-12221.49 -9283.206)" fill="rgba(0,0,0,0)" stroke="#615504" stroke-linecap="round" stroke-miterlimit="10" stroke-width="3"/>
    <path id="Union_26" data-name="Union 26" d="M12614.46,10209.918l-22.971.031Zm-22.395-41.464h0V10127.1h0v-43.727l-.576-.006.576.006v-37.58l-.576,0,.576,0v0l20.436-.083-20.436.083v37.58l20.436.206-20.436-.206v43.727l22.395-.031-22.395.031v41.354l22.395-.03-22.395.03v0Z" transform="translate(-12045.67 -9283.796)" fill="none" stroke="#615504" stroke-linecap="round" stroke-miterlimit="10" stroke-width="3"/>
    <path id="Union_27" data-name="Union 27" d="M12592.065,10067.445l-.576,0,.576,0v0l20.436-.15-20.436.15v0Z" transform="translate(-11886.488 -9287.452)" fill="none" stroke="#615504" stroke-linecap="round" stroke-miterlimit="10" stroke-width="3"/>
    <path id="Union_29" data-name="Union 29" d="M12592.06,10067.445l-.57,0,.57,0-.583-104.28.583,104.28,20.441-.15-20.441.15.006,1.059Z" transform="translate(-11371.488 -9285.849)" fill="none" stroke="#615504" stroke-linecap="round" stroke-miterlimit="10" stroke-width="3"/>
    <path id="Path_826333" data-name="Path 826333" d="M0-31.864V215.17" transform="translate(866.644 710.23)" fill="none" stroke="#615504" stroke-width="3"/>
    <line id="Line_1182" data-name="Line 1182" y1="0.088" x2="21.012" transform="translate(866.067 761.308)" fill="none" stroke="#615504" stroke-miterlimit="10" stroke-width="3"/>
    <line id="Line_1181" data-name="Line 1181" x2="21.012" y2="0.212" transform="translate(866.067 798.966)" fill="none" stroke="#615504" stroke-miterlimit="10" stroke-width="3"/>
    <line id="Line_1178" data-name="Line 1178" y1="0.03" x2="22.972" transform="translate(866.067 842.668)" fill="none" stroke="#615504" stroke-linecap="round" stroke-miterlimit="10" stroke-width="3"/>
    <line id="Line_1179" data-name="Line 1179" y1="0.03" x2="22.972" transform="translate(866.067 884.022)" fill="none" stroke="#615504" stroke-miterlimit="10" stroke-width="3"/>
    <line id="Line_1180" data-name="Line 1180" y1="0.03" x2="22.972" transform="translate(866.067 925.517)" fill="none" stroke="#615504" stroke-miterlimit="10" stroke-width="3"/>
    <path id="Union_28" data-name="Union 28" d="M12592.065,10075.372l-.576-.006.576.006v-37.577l-.576,0,.576,0v0l20.436-.087-20.436.087v37.577l20.436.206-20.436-.206v0Z" transform="translate(-11571.49 -9275.044)" fill="none" stroke="#615504" stroke-linecap="round" stroke-miterlimit="10" stroke-width="3"/>
    <path id="Path_816891" data-name="Path 816891" d="M128.589,20.8,128.712,0H0V20.8" transform="translate(1239.5 884.992)" fill="none" stroke="#615504" stroke-linecap="round" stroke-miterlimit="10" stroke-width="3"/>
    <line id="Line_925" data-name="Line 925" y1="25.057" transform="translate(1304.5 859.936)" fill="none" stroke="#615504" stroke-linecap="round" stroke-miterlimit="10" stroke-width="3"/>
    <line id="Line_1199" data-name="Line 1199" y1="25.057" transform="translate(1304.5 814.215)" fill="none" stroke="#615504" stroke-linecap="round" stroke-miterlimit="10" stroke-width="3"/>
    <line id="Line_1047" data-name="Line 1047" y1="35.04" transform="translate(799.988 585.913)" fill="none" stroke="#615504" stroke-miterlimit="10" stroke-width="3"/>
    <line id="Line_1101" data-name="Line 1101" y1="30.399" transform="translate(799.988 523.326)" fill="none" stroke="#615504" stroke-miterlimit="10" stroke-width="3"/>
    <path id="Path_819206" data-name="Path 819206" d="M133.381,275.918H12.621c-5.865,0-10.62-3.63-10.62-8.107V238.025c0-4.477,4.755-8.107,10.62-8.107H133.381c5.865,0,10.62,3.63,10.62,8.107v29.787c0,4.477-4.755,8.107-10.62,8.107" transform="translate(183.487 426.714)" fill="#c1e29a"/>
    <path id="Path_826301" data-name="Path 826301" d="M150.509,275.918H14c-6.629,0-12-3.63-12-8.107V238.025c0-4.477,5.375-8.107,12-8.107h136.5c6.629,0,12,3.63,12,8.107v29.787c0,4.477-5.375,8.107-12,8.107" transform="translate(346.487 426.714)" fill="#c1e29a"/>
    <path id="Path_826307" data-name="Path 826307" d="M137.083,275.918H12.92C6.89,275.918,2,272.288,2,267.811V238.025c0-4.477,4.889-8.107,10.919-8.107H137.083c6.03,0,10.919,3.63,10.919,8.107v29.787c0,4.477-4.889,8.107-10.919,8.107" transform="translate(525.488 426.714)" fill="#c1e29a"/>
    <path id="Path_826317" data-name="Path 826317" d="M129.244,275.918H12.286c-5.68,0-10.285-3.63-10.285-8.107V238.025c0-4.477,4.605-8.107,10.285-8.107H129.244c5.68,0,10.285,3.63,10.285,8.107v29.787c0,4.477-4.605,8.107-10.285,8.107" transform="translate(689.488 426.714)" fill="#c1e29a"/>
    <path id="Path_826323" data-name="Path 826323" d="M133.174,275.918H12.6c-5.856,0-10.6-3.63-10.6-8.107V238.025c0-4.477,4.747-8.107,10.6-8.107h120.57c5.856,0,10.6,3.63,10.6,8.107v29.787c0,4.477-4.747,8.107-10.6,8.107" transform="translate(850.487 426.714)" fill="#c1e29a"/>
    <path id="Path_826329" data-name="Path 826329" d="M166.633,275.918H15.308C7.959,275.918,2,272.288,2,267.811V238.025c0-4.477,5.958-8.107,13.307-8.107H166.633c7.349,0,13.307,3.63,13.307,8.107v29.787c0,4.477-5.958,8.107-13.307,8.107" transform="translate(1008.999 426.714)" fill="#c1e29a"/>
    <path id="Path_826332" data-name="Path 826332" d="M176.586,275.918H16.113C8.319,275.918,2,272.288,2,267.811V238.025c0-4.477,6.318-8.107,14.112-8.107H176.586c7.793,0,14.112,3.63,14.112,8.107v29.787c0,4.477-6.318,8.107-14.112,8.107" transform="translate(1207.999 426.714)" fill="#c1e29a"/>
    <path id="Path_819196" data-name="Path 819196" d="M113.951,268.415H11.05c-5,0-9.049-3.038-9.049-6.784V236.7c0-3.747,4.052-6.784,9.049-6.784h102.9c5,0,9.049,3.038,9.049,6.784v24.928c0,3.747-4.052,6.784-9.049,6.784" transform="translate(203.488 512.675)" fill="#d5fff5"/>
    <path id="Path_826300" data-name="Path 826300" d="M133.458,280.254H12.627C6.759,280.254,2,276.282,2,271.383V238.789c0-4.9,4.758-8.871,10.626-8.871H133.458c5.868,0,10.626,3.972,10.626,8.871v32.594c0,4.9-4.758,8.871-10.626,8.871" transform="translate(379.012 511.671)" fill="#d5fff5"/>
    <path id="Path_826306" data-name="Path 826306" d="M108.4,266.688H10.6c-4.75,0-8.6-2.9-8.6-6.48V236.4c0-3.579,3.851-6.48,8.6-6.48h97.8c4.75,0,8.6,2.9,8.6,6.48v23.81c0,3.579-3.851,6.48-8.6,6.48" transform="translate(556.004 510.587)" fill="#d5fff5"/>
    <path id="Path_826316" data-name="Path 826316" d="M117.175,317.6H11.311C6.169,317.6,2,310.685,2,302.151v-56.78c0-8.534,4.168-15.453,9.31-15.453H117.175c5.141,0,9.31,6.919,9.31,15.453v56.78c0,8.534-4.168,15.453-9.31,15.453" transform="translate(708.527 509.676)" fill="#d5fff5"/>
    <path id="Path_826322" data-name="Path 826322" d="M115,266.688H11.135c-5.044,0-9.134-2.9-9.134-6.48V236.4c0-3.579,4.089-6.48,9.134-6.48H115c5.044,0,9.134,2.9,9.134,6.48v23.81c0,3.579-4.089,6.48-9.134,6.48" transform="translate(875.869 508.981)" fill="#d5fff5"/>
    <path id="Path_826328" data-name="Path 826328" d="M146.782,266.688H13.7c-6.463,0-11.7-2.9-11.7-6.48V236.4c0-3.579,5.24-6.48,11.7-6.48H146.782c6.463,0,11.7,2.9,11.7,6.48v23.81c0,3.579-5.24,6.48-11.7,6.48" transform="translate(1026.738 511.33)" fill="#d5fff5"/>
    <path id="Path_826331" data-name="Path 826331" d="M159.3,306.791H14.715C7.694,306.791,2,300.725,2,293.244V243.465c0-7.482,5.693-13.547,12.714-13.547H159.3c7.022,0,12.714,6.066,12.714,13.547v49.778c0,7.482-5.693,13.547-12.714,13.547" transform="translate(1227.998 508.899)" fill="#d5fff5"/>
    <path id="Path_826310" data-name="Path 826310" d="M108.4,266.688H10.6c-4.75,0-8.6-2.9-8.6-6.48V236.4c0-3.579,3.851-6.48,8.6-6.48h97.8c4.75,0,8.6,2.9,8.6,6.48v23.81c0,3.579-3.851,6.48-8.6,6.48" transform="translate(556.004 595.236)" fill="#d5fff5"/>
    <path id="Path_826319" data-name="Path 826319" d="M115,266.688H11.135c-5.044,0-9.134-2.9-9.134-6.48V236.4c0-3.579,4.089-6.48,9.134-6.48H115c5.044,0,9.134,2.9,9.134,6.48v23.81c0,3.579-4.089,6.48-9.134,6.48" transform="translate(875.869 593.632)" fill="#d5fff5"/>
    <path id="Path_826308" data-name="Path 826308" d="M108.4,266.688H10.6c-4.75,0-8.6-2.9-8.6-6.48V236.4c0-3.579,3.851-6.48,8.6-6.48h97.8c4.75,0,8.6,2.9,8.6,6.48v23.81c0,3.579-3.851,6.48-8.6,6.48" transform="translate(556.004 554.654)" fill="#d5fff5"/>
    <path id="Path_826321" data-name="Path 826321" d="M115,266.688H11.135c-5.044,0-9.134-2.9-9.134-6.48V236.4c0-3.579,4.089-6.48,9.134-6.48H115c5.044,0,9.134,2.9,9.134,6.48v23.81c0,3.579-4.089,6.48-9.134,6.48" transform="translate(875.869 553.049)" fill="#d5fff5"/>
    <path id="Path_826326" data-name="Path 826326" d="M146.782,266.688H13.7c-6.463,0-11.7-2.9-11.7-6.48V236.4c0-3.579,5.24-6.48,11.7-6.48H146.782c6.463,0,11.7,2.9,11.7,6.48v23.81c0,3.579-5.24,6.48-11.7,6.48" transform="translate(1026.738 555.171)" fill="#d5fff5"/>
    <path id="Path_826309" data-name="Path 826309" d="M108.4,266.688H10.6c-4.75,0-8.6-2.9-8.6-6.48V236.4c0-3.579,3.851-6.48,8.6-6.48h97.8c4.75,0,8.6,2.9,8.6,6.48v23.81c0,3.579-3.851,6.48-8.6,6.48" transform="translate(556.004 636.303)" fill="#d5fff5"/>
    <path id="Path_826320" data-name="Path 826320" d="M115,266.688H11.135c-5.044,0-9.134-2.9-9.134-6.48V236.4c0-3.579,4.089-6.48,9.134-6.48H115c5.044,0,9.134,2.9,9.134,6.48v23.81c0,3.579-4.089,6.48-9.134,6.48" transform="translate(875.869 634.697)" fill="#d5fff5"/>
    <path id="Path_826311" data-name="Path 826311" d="M108.4,266.688H10.6c-4.75,0-8.6-2.9-8.6-6.48V236.4c0-3.579,3.851-6.48,8.6-6.48h97.8c4.75,0,8.6,2.9,8.6,6.48v23.81c0,3.579-3.851,6.48-8.6,6.48" transform="translate(556.004 678.055)" fill="#d5fff5"/>
    <path id="Path_826318" data-name="Path 826318" d="M115,266.688H11.135c-5.044,0-9.134-2.9-9.134-6.48V236.4c0-3.579,4.089-6.48,9.134-6.48H115c5.044,0,9.134,2.9,9.134,6.48v23.81c0,3.579-4.089,6.48-9.134,6.48" transform="translate(875.869 676.449)" fill="#d5fff5"/>
    <path id="Path_826302" data-name="Path 826302" d="M133.458,280.254H12.627C6.759,280.254,2,276.282,2,271.383V238.789c0-4.9,4.758-8.871,10.626-8.871H133.458c5.868,0,10.626,3.972,10.626,8.871v32.594c0,4.9-4.758,8.871-10.626,8.871" transform="translate(379.012 568.673)" fill="#d5fff5"/>
    <path id="Path_826303" data-name="Path 826303" d="M133.458,280.254H12.627C6.759,280.254,2,276.282,2,271.383V238.789c0-4.9,4.758-8.871,10.626-8.871H133.458c5.868,0,10.626,3.972,10.626,8.871v32.594c0,4.9-4.758,8.871-10.626,8.871" transform="translate(379.012 625.672)" fill="#d5fff5"/>
    <path id="Path_826296" data-name="Path 826296" d="M113.951,268.415H11.05c-5,0-9.049-3.038-9.049-6.784V236.7c0-3.747,4.052-6.784,9.049-6.784h102.9c5,0,9.049,3.038,9.049,6.784v24.928c0,3.747-4.052,6.784-9.049,6.784" transform="translate(203.488 605.676)" fill="#d5fff5"/>
    <path id="Path_826294" data-name="Path 826294" d="M113.951,268.415H11.05c-5,0-9.049-3.038-9.049-6.784V236.7c0-3.747,4.052-6.784,9.049-6.784h102.9c5,0,9.049,3.038,9.049,6.784v24.928c0,3.747-4.052,6.784-9.049,6.784" transform="translate(203.488 560.676)" fill="#d5fff5"/>
    <path id="Path_826295" data-name="Path 826295" d="M113.951,268.415H11.05c-5,0-9.049-3.038-9.049-6.784V236.7c0-3.747,4.052-6.784,9.049-6.784h102.9c5,0,9.049,3.038,9.049,6.784v24.928c0,3.747-4.052,6.784-9.049,6.784" transform="translate(203.488 650.676)" fill="#d5fff5"/>
    <path id="Path_819208" data-name="Path 819208" d="M99.148,275.661H9.853A7.959,7.959,0,0,1,2,267.6v-29.62a7.959,7.959,0,0,1,7.852-8.061H99.148A7.959,7.959,0,0,1,107,237.979V267.6a7.959,7.959,0,0,1-7.853,8.061" transform="translate(1187.998 677.331)" fill="#e8e8e8"/>
    <path id="Path_826293" data-name="Path 826293" d="M99.148,275.661H9.853A7.959,7.959,0,0,1,2,267.6v-29.62a7.959,7.959,0,0,1,7.852-8.061H99.148A7.959,7.959,0,0,1,107,237.979V267.6a7.959,7.959,0,0,1-7.853,8.061" transform="translate(1312.998 677.331)" fill="#e8e8e8"/>
    <text id="Aspectos" transform="translate(204.488 669.632)" font-size="16" font-family="Roboto-Bold, Roboto" font-weight="700"><tspan x="18.281" y="15">Aspectos</tspan></text>
    <text id="Impactos" transform="translate(380.488 669.632)" font-size="16" font-family="Roboto-Bold, Roboto" font-weight="700"><tspan x="18.555" y="15">Impactos</tspan></text>
    <text id="Normativas" transform="translate(548.488 669.632)" font-size="16" font-family="Roboto-Bold, Roboto" font-weight="700"><tspan x="10.484" y="15">Normativas</tspan></text>
    <text id="Promotorías" transform="translate(714.029 669.632)" font-size="16" font-family="Roboto-Bold, Roboto" font-weight="700"><tspan x="7.469" y="15">Promotorías</tspan></text>
    <text id="Educación" transform="translate(874.488 669.632)" font-size="16" font-family="Roboto-Bold, Roboto" font-weight="700"><tspan x="14.832" y="15">Educación</tspan></text>
    <text id="Programas" transform="translate(1053 669.632)" font-size="16" font-family="Roboto-Bold, Roboto" font-weight="700"><tspan x="12.555" y="15">Programas</tspan></text>
    <text id="Participación_comunitaria" data-name="Participación comunitaria" transform="translate(1246 657.632)" font-size="16" font-family="Roboto-Bold, Roboto" font-weight="700"><tspan x="10.093" y="15">Participación </tspan><tspan x="14.8" y="34">comunitaria</tspan></text>
    <text id="Tipología" transform="translate(211.488 750.593)" font-size="16" font-family="Roboto-Bold, Roboto" font-weight="700"><tspan x="21.211" y="15">Tipología</tspan></text>
    <text id="Aprovechamiento_de_recursos" data-name="Aprovechamiento de recursos" transform="translate(387.012 746.589)" font-size="16" font-family="Roboto-Bold, Roboto" font-weight="700"><tspan x="2.386" y="15">Aprovechamiento </tspan><tspan x="23.233" y="34">de recursos</tspan></text>
    <text id="Normas" transform="translate(552.006 746.505)" font-size="16" font-family="Roboto-Bold, Roboto" font-weight="700"><tspan x="34.324" y="15">Normas</tspan></text>
    <text id="Capacidad_de_ciertos_actores_para_promover_el_cuidado" data-name="Capacidad de ciertos actores para promover el cuidado" transform="translate(715.545 742.594)" font-size="16" font-family="Roboto-Bold, Roboto" font-weight="700"><tspan x="10.504" y="15">Capacidad de </tspan><tspan x="5.445" y="34">ciertos actores </tspan><tspan x="6.938" y="53">para promover </tspan><tspan x="22.207" y="72">el cuidado</tspan></text>
    <text id="Capacitaciones" transform="translate(880.87 744.899)" font-size="16" font-family="Roboto-Bold, Roboto" font-weight="700"><tspan x="2.729" y="15">Capacitaciones</tspan></text>
    <text id="Plan_de_acción" data-name="Plan de acción" transform="translate(1034.739 747.248)" font-size="16" font-family="Roboto-Bold, Roboto" font-weight="700"><tspan x="20.117" y="15">Plan de acción</tspan></text>
    <text id="Toma_de_conciencia_sobre_factores_que_afecta_al_ambiente" data-name="Toma de conciencia sobre factores que afecta al ambiente" transform="translate(1242.998 744.817)" font-size="16" font-family="Roboto-Bold, Roboto" font-weight="700"><tspan x="1.195" y="15">Toma de conciencia </tspan><tspan x="5.41" y="34">sobre factores que </tspan><tspan x="6.125" y="53">afecta al ambiente</tspan></text>
    <text id="Leyes" transform="translate(552.006 831.191)" font-size="16" font-family="Roboto-Bold, Roboto" font-weight="700"><tspan x="41.734" y="15">Leyes</tspan></text>
    <text id="Leyes-2" data-name="Leyes" transform="translate(880.87 829.587)" font-size="16" font-family="Roboto-Bold, Roboto" font-weight="700"><tspan x="37.057" y="15">Leyes</tspan></text>
    <text id="Tratados" transform="translate(552.006 790.609)" font-size="16" font-family="Roboto-Bold, Roboto" font-weight="700"><tspan x="30.82" y="15">Tratados</tspan></text>
    <text id="Técnicas" transform="translate(880.87 789.004)" font-size="16" font-family="Roboto-Bold, Roboto" font-weight="700"><tspan x="25.792" y="15">Técnicas</tspan></text>
    <text id="Gestión_documental" data-name="Gestión documental" transform="translate(1034.739 791.126)" font-size="16" font-family="Roboto-Bold, Roboto" font-weight="700"><tspan x="0.512" y="15">Gestión documental</tspan></text>
    <text id="Decretos" transform="translate(552.006 872.258)" font-size="16" font-family="Roboto-Bold, Roboto" font-weight="700"><tspan x="30.656" y="15">Decretos</tspan></text>
    <text id="Decretos-2" data-name="Decretos" transform="translate(880.87 870.652)" font-size="16" font-family="Roboto-Bold, Roboto" font-weight="700"><tspan x="25.979" y="15">Decretos</tspan></text>
    <text id="Resoluciones" transform="translate(552.006 914.01)" font-size="16" font-family="Roboto-Bold, Roboto" font-weight="700"><tspan x="14.344" y="15">Resoluciones</tspan></text>
    <text id="Resoluciones-2" data-name="Resoluciones" transform="translate(880.87 912.404)" font-size="16" font-family="Roboto-Bold, Roboto" font-weight="700"><tspan x="9.667" y="15">Resoluciones</tspan></text>
    <text id="Identificación" transform="translate(211.488 843.595)" font-size="16" font-family="Roboto-Bold, Roboto" font-weight="700"><tspan x="5.906" y="15">Identificación</tspan></text>
    <text id="Clasificación" transform="translate(211.488 798.594)" font-size="16" font-family="Roboto-Bold, Roboto" font-weight="700"><tspan x="8.496" y="15">Clasificación</tspan></text>
    <text id="Contaminación" transform="translate(397.014 812.591)" font-size="16" font-family="Roboto-Bold, Roboto" font-weight="700"><tspan x="0.656" y="15">Contaminación</tspan></text>
    <text id="Ocupación_territorial" data-name="Ocupación territorial" transform="translate(397.014 858.59)" font-size="16" font-family="Roboto-Bold, Roboto" font-weight="700"><tspan x="16.738" y="15">Ocupación </tspan><tspan x="21.457" y="34">territorial</tspan></text>
    <text id="Componentes" transform="translate(211.488 888.594)" font-size="16" font-family="Roboto-Bold, Roboto" font-weight="700"><tspan x="4.863" y="15">Componentes</tspan></text>
    <text id="Niveles" transform="translate(1210.391 920.296)" font-size="16" font-family="Roboto-Bold, Roboto" font-weight="700" letter-spacing="0.016em"><tspan x="4.587" y="15">Niveles</tspan></text>
    <text id="Mecanismos" transform="translate(1370 935.401)" font-size="15" font-family="Roboto-Bold, Roboto" font-weight="700" letter-spacing="0.016em"><tspan x="-44.271" y="0">Mecanismos</tspan></text>
    <rect id="Rectangle_377695" data-name="Rectangle 377695" width="399" height="56" rx="15" transform="translate(600.488 467.226)" fill="#ffae7e"/>
    <text id="Componentes_ambientales" data-name="Componentes ambientales" transform="translate(691.488 482.226)" font-size="18" font-family="Roboto-Bold, Roboto" font-weight="700"><tspan x="0.635" y="17">Componentes ambientales</tspan></text>
    <path id="Path_821550" data-name="Path 821550" d="M-12470.485-9506h1051" transform="translate(12726.486 10127.953)" fill="none" stroke="#615504" stroke-linecap="round" stroke-width="3"/>
  </g>
</svg>
