<svg xmlns="http://www.w3.org/2000/svg" xmlns:xlink="http://www.w3.org/1999/xlink" width="190" height="174" viewBox="0 0 190 174">
  <defs>
    <clipPath id="clip-path">
      <rect id="Rect치ngulo_377732" data-name="Rect치ngulo 377732" width="190" height="174" transform="translate(390 2505)" fill="none" stroke="#707070" stroke-width="1"/>
    </clipPath>
    <clipPath id="clip-path-2">
      <rect id="Rect치ngulo_378276" data-name="Rect치ngulo 378276" width="159.333" height="160.794" fill="none"/>
    </clipPath>
  </defs>
  <g id="Enmascarar_grupo_369" data-name="Enmascarar grupo 369" transform="translate(-390 -2505)" clip-path="url(#clip-path)">
    <g id="Grupo_1074012" data-name="Grupo 1074012" transform="translate(405.608 2511.603)">
      <g id="Grupo_1074011" data-name="Grupo 1074011" clip-path="url(#clip-path-2)">
        <path id="Trazado_823961" data-name="Trazado 823961" d="M84.153,17.3a13.175,13.175,0,0,1,1.038,4.43c.017.207.021.408.279.462,0,.054-.009.109-.013.163,0-.054,0-.109.008-.163l16.486.027a14.277,14.277,0,0,1,7.9,1.974,12.223,12.223,0,0,1,3.586,3.256,12.464,12.464,0,0,1,1.437,2.216l-.154.09.38.242a19.377,19.377,0,0,1,1.077,6.648c-.034,9.037-.021,18.074-.026,27.111l-.145.073.145.073q.008,8.39.016,16.781,0,33.042-.018,66.084c-.006,4.569-1.573,8.5-5.293,11.332a11.652,11.652,0,0,1-7.065,2.673q-45.986.036-91.973-.037a11.25,11.25,0,0,1-7.551-3.523A13.31,13.31,0,0,1,.142,149.2a18.443,18.443,0,0,1-.133-2.573q-.015-54.953,0-109.908a17.127,17.127,0,0,1,.135-3.1,13.544,13.544,0,0,1,3.63-7.453,12.824,12.824,0,0,1,7.089-3.678,40.53,40.53,0,0,1,6.356-.262c4.375-.03,8.751,0,13.125,0-.063.082-.05.18.038.195.155.025.185-.068.117-.2.376-.047.63-.15.612-.637a7.664,7.664,0,0,1,.568-3.028,11.02,11.02,0,0,1,1.287-2.592,12.549,12.549,0,0,1,3.991-3.433,11.374,11.374,0,0,1,2.467-.473c1.113-.3,2.267.074,3.357-.306.107-.054.3.022.3-.2l.057-.864c.22-.115.219-.231,0-.348A19.585,19.585,0,0,1,43.217,5.5C43.755,3.02,45.561,1.618,47.9.769A16.977,16.977,0,0,1,53.138.117a82.349,82.349,0,0,1,9.029.016c2.02.14,4.071-.142,6.076.449,2.681.79,5.32,3.153,5.143,6.334-.074,1.328.027,2.665-.027,4-.031.766.165,1.037.992,1.016A11.111,11.111,0,0,1,80.6,13.518a10.389,10.389,0,0,1,3.362,3.462l-.012.051.05.024.031.057.126.186m2.526,15.176c2.463,0,4.926.013,7.389,0a11.294,11.294,0,0,1,4.879.769,6.253,6.253,0,0,1,2.765,2.587,7.732,7.732,0,0,1,.868,4.092q.016,51.261.007,102.521a12.1,12.1,0,0,1-.163,2.487,6.536,6.536,0,0,1-3.2,4.724,8.971,8.971,0,0,1-4.61.833q-16.17.015-32.339.007c-14.2,0-28.4-.029-42.6.019a6.139,6.139,0,0,1-3.052-.977,7.27,7.27,0,0,1-2.715-3.637,7.058,7.058,0,0,1-.357-2.884q0-49.13,0-98.26c0-1.972-.037-3.945.02-5.915a6.971,6.971,0,0,1,1.779-4.284,5.938,5.938,0,0,1,4.281-1.967c3.382-.273,6.777-.037,10.166-.121l.012.042.013-.043.508.01a.232.232,0,0,0,.343,0,.3.3,0,0,0,.3-.35c-.01-1.361-.043-2.724-.017-4.085.013-.675-.445-.471-.768-.472q-7-.014-13.995,0a27.58,27.58,0,0,0-4.231.158A7.62,7.62,0,0,0,5.4,35.983q-.021,14.172-.017,28.343,0,41.254-.008,82.509a8.067,8.067,0,0,0,1.73,5.619,7.82,7.82,0,0,0,4.4,2.762,32.317,32.317,0,0,0,5.256.245c.314.341.556.339.871-.006.492,0,.985-.009,1.478-.009q40.123,0,80.247-.01a22.724,22.724,0,0,0,5.09-.22,7.906,7.906,0,0,0,5.327-4.075,9.475,9.475,0,0,0,.966-4.791q-.007-40.7-.017-81.4c-.016-10.077.2-20.156-.129-30.233a7.018,7.018,0,0,0-1.543-4.2,7.765,7.765,0,0,0-6.435-2.947c-5.535-.031-11.071-.01-16.606-.009-.145,0-.29.007-.435,0-.235-.011-.4.05-.384.329a38.108,38.108,0,0,0,.11,4.579c.457-.012.911.416,1.37.006M25.39,37.922h-.545a.1.1,0,0,0-.15,0H24.15a.094.094,0,0,0-.15,0h-.547a.092.092,0,0,0-.148,0l-.549,0a.088.088,0,0,0-.145,0,.742.742,0,0,0-.553,0,.082.082,0,0,0-.14,0,.76.76,0,0,0-.565.006l-.213.008-.578.011a.17.17,0,0,0-.269.007c-1.314.026-1.348.055-1.348,1.389q-.01,51.548-.016,103.1c0,.521,0,1.044.017,1.565a.9.9,0,0,0,.915,1.007,23.51,23.51,0,0,0,2.6.087q34.893.007,69.785,0c.26,0,.52-.017.781-.027l.079.031.083-.017c.723.011,1.447.031,2.17.032,1.428,0,1.835-.408,1.835-1.833q0-50.863,0-101.726c0-.812.01-1.624-.02-2.434-.027-.7-.262-1.245-1.116-1.189l0-.043-.007.04-3.739-.029a.094.094,0,0,0-.149,0H91.62a.1.1,0,0,0-.151,0h-.545a.1.1,0,0,0-.151,0h-.545a.1.1,0,0,0-.151,0h-.545a.1.1,0,0,0-.151,0h-.545a.1.1,0,0,0-.151,0h-.545a.1.1,0,0,0-.15,0h-.546a.093.093,0,0,0-.149,0l-.548,0a.09.09,0,0,0-.147,0,3.388,3.388,0,0,0-1.247,0,.089.089,0,0,0-.145-.006,3.411,3.411,0,0,0-3.424,1,7.863,7.863,0,0,1-5.481,2.506c-11.759.087-23.519.018-35.278.052a10.9,10.9,0,0,1-5.71-1.774c-.8-.478-1.166-1.463-2.13-1.71l-.135-.038a2.324,2.324,0,0,0-1.253-.045.1.1,0,0,0-.149.007l-.55.01a.085.085,0,0,0-.143,0,7.947,7.947,0,0,0-1.94-.012.1.1,0,0,0-.151,0h-.545a.1.1,0,0,0-.151,0h-.545a.1.1,0,0,0-.151,0h-.545a.1.1,0,0,0-.151,0h-.545a.1.1,0,0,0-.151,0h-.545a.1.1,0,0,0-.151,0m32.5-1.84v0q8.385,0,16.77,0a5.706,5.706,0,0,0,2.457-.452c2.1-.97,2.707-2.778,2.675-4.882-.022-1.43.006-2.857,0-4.285-.012-1.671.057-3.34-.121-5.019a4.343,4.343,0,0,0-2.841-3.826,9.424,9.424,0,0,0-3.18-.491c-9.825-.012-19.649,0-29.474-.017-1.3,0-2.593.082-3.884.19a4.554,4.554,0,0,0-3.8,3.612,19.34,19.34,0,0,0-.173,3.98c.1,2.228.057,4.463.037,6.7a4.725,4.725,0,0,0,4.5,4.494c5.679-.016,11.358,0,17.037,0m.172-24.219v-.01c3.01,0,6.019-.016,9.028.012.706.006,1-.207.954-.945C67.982,9.763,68,8.6,67.967,7.447c-.035-1.233-.2-1.458-1.365-1.718a8.094,8.094,0,0,0-1.708-.2c-4.514-.017-9.028-.009-13.542-.012a4.735,4.735,0,0,0-2.089.5,1.178,1.178,0,0,0-.744,1.159c.01,1.36-.009,2.72-.022,4.08,0,.435.075.637.628.628,2.98-.043,5.961-.02,8.941-.02" transform="translate(0 0)"/>
        <path id="Trazado_823962" data-name="Trazado 823962" d="M193.361,8.458a18.268,18.268,0,0,1,6.514.825c.821.257,1.616.724,2.4,1.058a14.8,14.8,0,0,1,2.471,1.331,18.268,18.268,0,0,1,5.5,6.083c.087.126-.116.376.177.413a1.608,1.608,0,0,1,.386.977c-.01.343-.107.737.438.757a29.256,29.256,0,0,1,1.277,6.687,17.306,17.306,0,0,1-.021,2.03q-.005,48.909.012,97.819a4.807,4.807,0,0,1-.649,2.4q-5.458,10.045-10.887,20.1c-1.01,1.865-2.046,3.716-3.035,5.593a13.764,13.764,0,0,1-.785,1.574c-1.323,1.9-3.432,2.085-4.692-.124-1.3-2.286-2.549-4.6-3.817-6.909q-4.977-9.045-9.957-18.087a8.228,8.228,0,0,0-1.571-2.151,2.559,2.559,0,0,1-.779-2.174,32.871,32.871,0,0,0,.1-3.967q.012-47.337.007-94.674A24.145,24.145,0,0,1,177,22.165a23.582,23.582,0,0,1,2.724-6.057,20.394,20.394,0,0,1,5.629-5.29,15.326,15.326,0,0,1,6.076-2.111c.535-.088,1.074-.152,1.611-.227l.32-.022m13.7,30.86c.035-.106,0-.161-.114-.152l-.267-.066a.367.367,0,0,0-.4,0,1.8,1.8,0,0,0-.921-.017.09.09,0,0,0-.146-.008l-.542-.01a.107.107,0,0,0-.156,0h-.538a.114.114,0,0,0-.158,0l-.536,0a.12.12,0,0,0-.16,0l-.535,0a.122.122,0,0,0-.16,0h-.536a.121.121,0,0,0-.158,0H201.2a.118.118,0,0,0-.158,0l-.538,0a.114.114,0,0,0-.156,0l-.54,0a.1.1,0,0,0-.152.015l-.552.012a.083.083,0,0,0-.142,0,2.648,2.648,0,0,0-1.265.038l-.046-.029-.022.054c-.024.343-.07.686-.07,1.03q0,41.071,0,82.142c0,2.09,0,2.052,2.115,2.106,2.4.061,4.8-.122,7.2.082l.015-.014a13.564,13.564,0,0,0,.208-1.7q0-28.653-.017-57.306-.006-13.086-.014-26.171M192.127,71.325V67.846c0-.114,0-.229,0-.343s0-.235,0-.351c0-.057,0-.114.008-.172a7.81,7.81,0,0,1-.006-2.612c0-.115,0-.23,0-.344v-.352c0-.114,0-.23,0-.344V44.542a4.062,4.062,0,0,1-.135-1.578,15.116,15.116,0,0,0,.1-2.952l-.01-.331c-.008-.122-.015-.245-.022-.368.064-.092.011-.116-.071-.123a.11.11,0,0,0-.142-.061.431.431,0,0,0-.519-.031,3.193,3.193,0,0,0-1.266-.015.089.089,0,0,0-.146,0l-.546-.006a.1.1,0,0,0-.153-.007l-.539-.008a.115.115,0,0,0-.159,0l-.536,0a.121.121,0,0,0-.159,0h-.536a.121.121,0,0,0-.159,0h-.536a.12.12,0,0,0-.159,0h-.537a.119.119,0,0,0-.158,0l-.538,0a.114.114,0,0,0-.157,0l-.54,0a.1.1,0,0,0-.154.006H183.8a.1.1,0,0,0-.154-.006,3.5,3.5,0,0,0-1.245.021l-.239.012c-.523.233-.268.7-.268,1.046q-.017,40.377,0,80.753c0,.811-.01,1.622-.015,2.433-.132.433-.508.954.37,1.021l.6.071.008.045.009-.044,8.323.02.013.05.01-.051c.326-.08.969.078.845-.423-.221-.9.274-1.731.068-2.594,0-.114,0-.229,0-.344s0-.235,0-.351,0-.23,0-.344,0-.235,0-.353v-.343c0-.117,0-.234,0-.351v-.172c0-.175,0-.349,0-.524,0-.114,0-.23,0-.344s0-.235,0-.351V71.325Zm2.287-37.733v-.008c3.97,0,7.939-.006,11.909.006.495,0,.824-.027.8-.678-.1-2.546.172-5.1-.158-7.641-.582-4.487-2.471-8.036-6.775-10.154-5.51-2.711-12.8-1.23-16.291,4.384a12.346,12.346,0,0,0-1.939,5.138,74.432,74.432,0,0,0-.207,7.816c0,1.1.031,1.134,1.1,1.135q5.78,0,11.561,0m.329,115.611a6.043,6.043,0,0,0,.888-1.278q2.286-4.288,4.592-8.566c1.53-2.855,3.069-5.706,4.584-8.57.466-.88.387-.945-.556-.931-3.328.052-6.659.158-9.985.094-3.04-.059-6.08-.018-9.119-.06-.915-.013-.944.071-.517.84q3.874,6.983,7.737,13.97c.806,1.462,1.56,2.952,2.376,4.5" transform="translate(-53.23 -2.544)"/>
        <path id="Trazado_823963" data-name="Trazado 823963" d="M226.163,24.534c-.545-.021-.449-.414-.438-.757.4.1.441.419.438.757" transform="translate(-68.136 -7.178)" fill="#d6e7ff"/>
        <path id="Trazado_823964" data-name="Trazado 823964" d="M164.711,42.818l-.38-.242.154-.091c.2.029.239.162.225.332" transform="translate(-49.607 -12.825)" fill="#d6e7ff"/>
        <path id="Trazado_823965" data-name="Trazado 823965" d="M61.721,14.81c.216.117.219.233,0,.348-.191-.117-.188-.232,0-.348" transform="translate(-18.588 -4.471)" fill="#d6e7ff"/>
        <path id="Trazado_823966" data-name="Trazado 823966" d="M43.6,31.83c.068.13.038.224-.117.2-.088-.015-.1-.113-.038-.195l.155,0" transform="translate(-13.103 -9.609)" fill="#29aaf4"/>
        <path id="Trazado_823967" data-name="Trazado 823967" d="M225.1,22.2c-.293-.036-.091-.287-.177-.413.185.084.175.251.177.413" transform="translate(-67.898 -6.577)" fill="#d6e7ff"/>
        <path id="Trazado_823968" data-name="Trazado 823968" d="M122.416,31.783c0,.054,0,.109-.008.163,0-.054.008-.109.013-.163h-.006" transform="translate(-36.952 -9.594)" fill="#29aaf4"/>
        <path id="Trazado_823969" data-name="Trazado 823969" d="M200.586,8.433l-.32.022c.1-.136.2-.149.32-.022" transform="translate(-60.455 -2.519)" fill="#d6e7ff"/>
        <path id="Trazado_823970" data-name="Trazado 823970" d="M61.572,16.546c.006.221-.189.145-.3.2.04-.154.157-.192.3-.2" transform="translate(-18.498 -4.995)" fill="#d6e7ff"/>
        <path id="Trazado_823971" data-name="Trazado 823971" d="M166.319,91.464l-.145-.073.145-.073a.726.726,0,0,1,0,.146" transform="translate(-50.163 -27.566)" fill="#d6e7ff"/>
        <path id="Trazado_823972" data-name="Trazado 823972" d="M120.486,24.7l-.126-.186.126.186" transform="translate(-36.333 -7.399)" fill="#d6e7ff"/>
        <path id="Trazado_823973" data-name="Trazado 823973" d="M120.294,24.4l-.05-.024.012-.05a.073.073,0,0,1,.038.075" transform="translate(-36.298 -7.342)" fill="#d6e7ff"/>
        <path id="Trazado_823974" data-name="Trazado 823974" d="M33.03,54.278H37.2a7.918,7.918,0,0,1,1.941.013l.142,0,.55-.01.15-.006a2.314,2.314,0,0,1,1.252.045l.061.041.074,0c.963.246,1.326,1.231,2.129,1.709a10.893,10.893,0,0,0,5.71,1.774c11.759-.034,23.519.035,35.278-.052a7.866,7.866,0,0,0,5.482-2.506,3.409,3.409,0,0,1,3.423-1l.145.006a3.384,3.384,0,0,1,1.246,0h.147l.548,0H100.5l3.738.029.01,0c.853-.057,1.088.491,1.115,1.189.03.811.021,1.623.021,2.434q0,50.863,0,101.726c0,1.425-.407,1.835-1.835,1.833-.723,0-1.447-.021-2.17-.032-.047-.081-.1-.1-.162-.013-.26.01-.52.027-.78.027q-34.893,0-69.785,0a23.667,23.667,0,0,1-2.6-.087.9.9,0,0,1-.916-1.007c-.013-.521-.017-1.042-.017-1.564q.006-51.548.016-103.1c0-1.334.034-1.363,1.348-1.389l.27-.007.578-.01.213-.009A.759.759,0,0,1,30.1,54.3l.139,0a.742.742,0,0,1,.553,0l.145,0,.549,0H33.03M70.5,138.919c-.094.1-.387-.091-.34.225-.3-.263-.665-.152-1-.154q-3.912-.019-7.825-.007c-.811,0-1.624.015-2.432.075a2.715,2.715,0,0,0-2.564,2.427A2.559,2.559,0,0,0,58.81,144.3c3.965.216,7.934.067,11.9.056a1.961,1.961,0,0,0,.6-.089c1.325-.437,2.1-1.2,1.886-3.492-.064-.678-1.249-1.512-2.247-1.571-.037-.274-.215-.323-.45-.281m23.673,5.432a2.741,2.741,0,0,0,2.464-3.634c-.565-1.524-1.9-1.692-3.16-1.706-4.37-.052-8.74-.01-13.109.045A2.645,2.645,0,0,0,77.8,141a2.6,2.6,0,0,0,.737,2.555,2.564,2.564,0,0,0,2.246.794c4.459-.01,8.917,0,13.376,0l.008.034Zm1.482-22.509.153-.121a4.5,4.5,0,0,0,.917-1.278l.106-.248a2.759,2.759,0,0,0-2.7-3.216c-1-.073-2.008-.034-3.012-.045-.049-.08-.1-.1-.163-.012-.318.008-.636.024-.954.024-3.3.008-6.6,0-9.9.025a2.725,2.725,0,0,0-2.66,2.064,2.813,2.813,0,0,0,1.3,2.9,3.477,3.477,0,0,0,1.844.391c4.256,0,8.512-.029,12.767.011a5.708,5.708,0,0,0,2.3-.495m-.716,28.715c-.141-.242-.314-.239-.51-.067a5.721,5.721,0,0,0-.834-.121c-8.456-.007-16.913-.035-25.369.04a2.939,2.939,0,0,0-2.631.813,2.551,2.551,0,0,0-.511,2.833,2.662,2.662,0,0,0,2.247,1.734c.509.046.993-.022,1.487-.02q7.471.024,14.941.012c3.33,0,6.662.039,9.989-.055,2.106-.059,2.742-.877,3.091-2.463a2.709,2.709,0,0,0-1.9-2.706M37.909,116.967l-.34.126c-.182.088-.371.164-.545.266a2.514,2.514,0,0,0-1.049,3.315,2.987,2.987,0,0,0,3.072,1.661q15.548-.016,31.095-.018a13.641,13.641,0,0,0,1.469-.112,2.235,2.235,0,0,0,1.727-1.171,2.618,2.618,0,0,0-2.425-4.061q-16.5-.02-33,0M63.446,94.008c-.586-.1-.792.339-1.027.733q-1.152-1.4-2.3-2.8a.552.552,0,0,1-.017-.7,8.491,8.491,0,0,0,.97-7.6,9.008,9.008,0,0,0-10.126-6.075c-5.2.81-9.317,7.073-6.553,12.746,1.67,3.428,6.507,6.253,10.364,4.957.445-.149,1.011-.346,1.479.226q3.523,4.306,6.792,8.8a1.242,1.242,0,0,1,.282.886,30.849,30.849,0,0,0,.2,3.7,2.763,2.763,0,0,0,2.568,2.353,2.71,2.71,0,0,0,2.729-2.943c.009-.84-.034-1.68-.047-2.521a2.478,2.478,0,0,1,.627-1.748c2.432-2.8,4.646-5.775,6.908-8.71a.667.667,0,0,1,.882-.251,8.472,8.472,0,0,0,4.176.362,9.253,9.253,0,0,0,7.673-8.636,9.45,9.45,0,0,0-.89-4.344.48.48,0,0,0-.3-.435c-.189-.267-.375-.535-.567-.8A9.345,9.345,0,0,0,81.9,77.62l-.285-.1a9.249,9.249,0,0,0-10.665,8.4,8.855,8.855,0,0,0,1.3,5.154c.195.334.343.63.017,1.014-1.012,1.191-1.988,2.411-2.974,3.624-.115.141-.23.27-.429.212-.232-.067-.171-.274-.166-.431.027-.809.1-1.618.1-2.427-.033-4.314.1-8.63-.1-12.941-.027-.585.213-.771.694-.961a8.289,8.289,0,0,0,2.534-1.472A9.885,9.885,0,0,0,75.164,70c.017-.017.053-.04.05-.05a.68.68,0,0,0-.057-.118,9.535,9.535,0,0,0-2.694-5.378,9.1,9.1,0,0,0-13.531.786,8.209,8.209,0,0,0-1.17,2.049,8.5,8.5,0,0,0-.23,6.294,9.511,9.511,0,0,0,5.292,5.653c.384.175.769.319.615.863-.149.107-.161.217-.01.333-.008.124-.015.247-.022.371a.5.5,0,0,0-.01.663v.382c-.13.11-.128.216.008.32,0,.124.006.249.009.372-.141.112-.135.221.008.327q.01,5.57.022,11.141m12.806,33.964c-3.859.121-9.439-.22-15.015.118a2.52,2.52,0,0,0-2.282,3.242c.477,1.416,1.349,2.005,3.036,2.006q14.335,0,28.67,0a4.175,4.175,0,0,1,.863.034,6.406,6.406,0,0,0,3.525-.231,2.649,2.649,0,0,0,1.284-4c-.792-1.1-1.948-1.146-3.072-1.154-5.1-.039-10.194-.017-17.008-.017M48.828,150.363c-3.329,0-6.659-.01-9.988.008a3.536,3.536,0,0,0-2.251.555,2.566,2.566,0,0,0-.9,2.7,2.823,2.823,0,0,0,2.02,2.1,7.739,7.739,0,0,0,1.815.065c6.137-.02,12.274-.012,18.41-.012.318,0,.639-.027.955,0a2.418,2.418,0,0,0,2.625-1.137,2.929,2.929,0,0,0,.086-2.936,2.765,2.765,0,0,0-2.784-1.332c-3.329-.034-6.659-.013-9.988-.013m-3.555-17.04v0H52.31a2.69,2.69,0,0,0,2.627-3.7c-.394-1.108-1.408-1.656-3.144-1.66q-6.124-.014-12.249-.022a6.8,6.8,0,0,0-1.811.165,2.635,2.635,0,0,0,.59,5.212c2.316.024,4.633.006,6.95.006m-.97,5.654v.07c-2,0-3.993-.045-5.987.015A2.737,2.737,0,0,0,35.65,141.6a2.766,2.766,0,0,0,2.574,2.7c3.613.215,7.23.033,10.845.074a11.421,11.421,0,0,0,1.816-.094,2.616,2.616,0,0,0,2.036-3.052,2.685,2.685,0,0,0-2.889-2.251q-2.865-.005-5.73,0" transform="translate(-8.185 -16.356)" fill="#fefeff"/>
        <path id="Trazado_823975" data-name="Trazado 823975" d="M19.1,167.369a32.317,32.317,0,0,1-5.256-.245,7.817,7.817,0,0,1-4.4-2.762,8.067,8.067,0,0,1-1.73-5.619q.021-41.255.008-82.509,0-14.172.017-28.343a7.879,7.879,0,0,1,.506-3.529,7.792,7.792,0,0,1,6.051-4.732,27.4,27.4,0,0,1,4.231-.158q7-.021,13.995,0c.323,0,.781-.2.768.472-.025,1.361.008,2.723.017,4.085a.3.3,0,0,1-.294.349l-.345,0-.507-.01h-.026c-3.389.084-6.784-.151-10.166.121a5.938,5.938,0,0,0-4.281,1.968A6.968,6.968,0,0,0,15.9,50.746c-.057,1.97-.02,3.943-.02,5.915q0,49.13,0,98.26a7.056,7.056,0,0,0,.357,2.884,7.27,7.27,0,0,0,2.715,3.637,6.146,6.146,0,0,0,3.052.978c14.2-.049,28.4-.022,42.6-.02q16.171,0,32.34-.007a8.971,8.971,0,0,0,4.61-.833,6.536,6.536,0,0,0,3.2-4.724,12.1,12.1,0,0,0,.162-2.487q0-51.261-.006-102.521a7.733,7.733,0,0,0-.868-4.092,6.253,6.253,0,0,0-2.765-2.587,11.283,11.283,0,0,0-4.879-.768c-2.463.01-4.926,0-7.388,0l-1.371-.006a38.108,38.108,0,0,1-.11-4.579c-.012-.279.149-.34.384-.329.145.007.29,0,.435,0,5.535,0,11.07-.022,16.606.01a7.763,7.763,0,0,1,6.435,2.947,7.023,7.023,0,0,1,1.543,4.2c.332,10.076.113,20.155.129,30.232q.064,40.7.017,81.4a9.475,9.475,0,0,1-.966,4.791,7.907,7.907,0,0,1-5.327,4.075,22.731,22.731,0,0,1-5.091.22q-40.123.019-80.246.01c-.493,0-.986.006-1.477.01a1.725,1.725,0,0,0-.872.006" transform="translate(-2.326 -11.907)" fill="#d6e7ff"/>
        <path id="Trazado_823976" data-name="Trazado 823976" d="M73.585,43.482c-5.679,0-11.358-.011-17.036,0a4.724,4.724,0,0,1-4.5-4.494c.019-2.231.059-4.467-.038-6.694a19.389,19.389,0,0,1,.173-3.98,4.555,4.555,0,0,1,3.8-3.613c1.292-.108,2.582-.192,3.884-.19,9.825.02,19.649.006,29.474.017a9.43,9.43,0,0,1,3.18.491,4.342,4.342,0,0,1,2.841,3.826c.177,1.679.108,3.348.12,5.018.01,1.428-.019,2.856,0,4.285.033,2.1-.572,3.912-2.675,4.882a5.716,5.716,0,0,1-2.456.452q-8.386,0-16.771,0v-.006" transform="translate(-15.693 -7.401)" fill="#fec307"/>
        <path id="Trazado_823977" data-name="Trazado 823977" d="M79.035,14.247c-2.98,0-5.961-.023-8.941.02-.554.008-.633-.193-.628-.628.013-1.36.032-2.72.022-4.08A1.178,1.178,0,0,1,70.232,8.4a4.735,4.735,0,0,1,2.089-.5c4.514,0,9.028,0,13.542.012a8.094,8.094,0,0,1,1.708.2c1.167.26,1.33.485,1.365,1.718.034,1.157.015,2.316.081,3.471.043.738-.248.952-.954.945-3.01-.028-6.019-.012-9.028-.012Z" transform="translate(-20.97 -2.385)" fill="#fec307"/>
        <path id="Trazado_823978" data-name="Trazado 823978" d="M24.02,222.659a1.725,1.725,0,0,1,.872-.006c-.316.345-.559.346-.872.006" transform="translate(-7.251 -67.197)" fill="#29aaf4"/>
        <path id="Trazado_823979" data-name="Trazado 823979" d="M122.2,46.506l1.371.006c-.459.41-.915-.017-1.371-.006" transform="translate(-36.888 -14.039)" fill="#29aaf4"/>
        <path id="Trazado_823980" data-name="Trazado 823980" d="M43.45,46.516l.345,0a.234.234,0,0,1-.345,0" transform="translate(-13.116 -14.041)" fill="#29aaf4"/>
        <path id="Trazado_823981" data-name="Trazado 823981" d="M137.6,54.348h-.01l.008-.041Z" transform="translate(-41.534 -16.393)" fill="#29aaf4"/>
        <path id="Trazado_823982" data-name="Trazado 823982" d="M132.167,54.307h-.149a.094.094,0,0,1,.149,0" transform="translate(-39.853 -16.383)" fill="#d6e7ff"/>
        <path id="Trazado_823983" data-name="Trazado 823983" d="M131.172,54.3h-.151a.1.1,0,0,1,.151,0" transform="translate(-39.552 -16.382)" fill="#d6e7ff"/>
        <path id="Trazado_823984" data-name="Trazado 823984" d="M130.176,54.3h-.151a.1.1,0,0,1,.151,0" transform="translate(-39.251 -16.382)" fill="#d6e7ff"/>
        <path id="Trazado_823985" data-name="Trazado 823985" d="M129.179,54.3h-.151a.1.1,0,0,1,.151,0" transform="translate(-38.95 -16.382)" fill="#d6e7ff"/>
        <path id="Trazado_823986" data-name="Trazado 823986" d="M128.183,54.3h-.151a.1.1,0,0,1,.151,0" transform="translate(-38.649 -16.382)" fill="#d6e7ff"/>
        <path id="Trazado_823987" data-name="Trazado 823987" d="M42.687,46.5h.026l-.013.043Z" transform="translate(-12.886 -14.038)" fill="#29aaf4"/>
        <path id="Trazado_823988" data-name="Trazado 823988" d="M127.187,54.3h-.151a.1.1,0,0,1,.151,0" transform="translate(-38.349 -16.382)" fill="#d6e7ff"/>
        <path id="Trazado_823989" data-name="Trazado 823989" d="M126.19,54.3h-.151a.1.1,0,0,1,.151,0" transform="translate(-38.048 -16.382)" fill="#d6e7ff"/>
        <path id="Trazado_823990" data-name="Trazado 823990" d="M125.193,54.306h-.149a.094.094,0,0,1,.149,0" transform="translate(-37.747 -16.383)" fill="#d6e7ff"/>
        <path id="Trazado_823991" data-name="Trazado 823991" d="M124.2,54.313h-.147a.09.09,0,0,1,.147,0" transform="translate(-37.447 -16.384)" fill="#d6e7ff"/>
        <path id="Trazado_823992" data-name="Trazado 823992" d="M122.2,54.316l-.145-.006a.09.09,0,0,1,.145.006" transform="translate(-36.845 -16.384)" fill="#d6e7ff"/>
        <path id="Trazado_823993" data-name="Trazado 823993" d="M47.481,54.413l-.074,0-.061-.041.135.039" transform="translate(-14.292 -16.414)" fill="#d6e7ff"/>
        <path id="Trazado_823994" data-name="Trazado 823994" d="M45.487,54.3l-.15.007a.1.1,0,0,1,.15-.007" transform="translate(-13.686 -16.38)" fill="#d6e7ff"/>
        <path id="Trazado_823995" data-name="Trazado 823995" d="M44.488,54.319l-.143,0a.085.085,0,0,1,.143,0" transform="translate(-13.387 -16.386)" fill="#d6e7ff"/>
        <path id="Trazado_823996" data-name="Trazado 823996" d="M41.5,54.306h-.15a.1.1,0,0,1,.15,0" transform="translate(-12.483 -16.382)" fill="#d6e7ff"/>
        <path id="Trazado_823997" data-name="Trazado 823997" d="M40.5,54.3h-.151a.1.1,0,0,1,.151,0" transform="translate(-12.182 -16.382)" fill="#d6e7ff"/>
        <path id="Trazado_823998" data-name="Trazado 823998" d="M39.509,54.3h-.151a.1.1,0,0,1,.151,0" transform="translate(-11.881 -16.382)" fill="#d6e7ff"/>
        <path id="Trazado_823999" data-name="Trazado 823999" d="M38.512,54.3h-.151a.1.1,0,0,1,.151,0" transform="translate(-11.58 -16.382)" fill="#d6e7ff"/>
        <path id="Trazado_824000" data-name="Trazado 824000" d="M37.516,54.3h-.151a.1.1,0,0,1,.151,0" transform="translate(-11.279 -16.382)" fill="#d6e7ff"/>
        <path id="Trazado_824001" data-name="Trazado 824001" d="M36.52,54.3h-.151a.1.1,0,0,1,.151,0" transform="translate(-10.979 -16.382)" fill="#d6e7ff"/>
        <path id="Trazado_824002" data-name="Trazado 824002" d="M35.523,54.3h-.151a.1.1,0,0,1,.151,0" transform="translate(-10.678 -16.382)" fill="#d6e7ff"/>
        <path id="Trazado_824003" data-name="Trazado 824003" d="M34.526,54.305h-.15a.1.1,0,0,1,.15,0" transform="translate(-10.377 -16.382)" fill="#d6e7ff"/>
        <path id="Trazado_824004" data-name="Trazado 824004" d="M33.53,54.308h-.149a.093.093,0,0,1,.149,0" transform="translate(-10.077 -16.383)" fill="#d6e7ff"/>
        <path id="Trazado_824005" data-name="Trazado 824005" d="M32.533,54.313l-.145,0a.088.088,0,0,1,.145,0" transform="translate(-9.777 -16.384)" fill="#d6e7ff"/>
        <path id="Trazado_824006" data-name="Trazado 824006" d="M31.536,54.323l-.139,0a.081.081,0,0,1,.139,0" transform="translate(-9.478 -16.387)" fill="#d6e7ff"/>
        <path id="Trazado_824007" data-name="Trazado 824007" d="M30.495,54.354l-.213.008.213-.008" transform="translate(-9.141 -16.408)" fill="#d6e7ff"/>
        <path id="Trazado_824008" data-name="Trazado 824008" d="M29.337,54.354l-.269.007a.171.171,0,0,1,.269-.007" transform="translate(-8.775 -16.389)" fill="#d6e7ff"/>
        <path id="Trazado_824009" data-name="Trazado 824009" d="M133.257,207.805c.061-.088.114-.068.162.013l-.083.017Z" transform="translate(-40.227 -62.713)" fill="#d6e7ff"/>
        <path id="Trazado_824010" data-name="Trazado 824010" d="M194.507,94.29v.352c-.15.114-.149.229,0,.344v.352c-.15.114-.149.229,0,.343v.352c-.15.114-.149.23,0,.344v.352c-.15.114-.149.229,0,.343v.352c-.15.114-.149.23,0,.344v.352c-.15.114-.149.229,0,.343v.352c-.15.115-.149.23,0,.344v.352c-.15.114-.149.229,0,.344v.352c-.15.114-.149.229,0,.343v.352c-.15.114-.149.23,0,.344v.352c-.15.114-.149.229,0,.343v.352c-.15.115-.149.23,0,.344v.352c-.15.114-.149.229,0,.344v.351c-.15.115-.149.23,0,.344v.352c-.15.114-.149.229,0,.344v.352c-.15.114-.149.229,0,.343v.352c-.15.114-.149.23,0,.344v.352c-.15.114-.149.229,0,.343v.352c-.15.115-.149.23,0,.344v.352c-.15.114-.149.229,0,.344v.352c-.15.114-.149.229,0,.343v.352c-.15.114-.149.23,0,.344v.352c-.15.114-.149.229,0,.343v.352c-.15.114-.149.23,0,.344v.352c-.15.114-.149.229,0,.344v.351c-.15.115-.149.23,0,.344v.352c-.15.114-.149.229,0,.344v.352c-.15.114-.149.229,0,.343v.352c-.15.114-.149.23,0,.344v.352c-.15.114-.149.229,0,.343v.352c-.15.115-.149.23,0,.344v.352c-.15.114-.149.229,0,.344v.352c-.15.114-.149.229,0,.343v.352c-.15.114-.149.23,0,.344v.352c-.15.114-.149.229,0,.343v.352c-.15.114-.149.23,0,.344v.352c-.15.114-.149.229,0,.343v.352c-.15.115-.149.23,0,.344v.352c-.15.114-.149.229,0,.344v.352c-.15.114-.149.229,0,.343v.352c-.15.114-.149.23,0,.344v.352c-.15.114-.149.229,0,.343v.352c-.15.115-.149.23,0,.344v.352c-.15.114-.149.229,0,.344v.351c-.15.115-.149.23,0,.344v.352c-.15.114-.149.229,0,.344v.352c-.15.114-.149.229,0,.343v.352c-.15.114-.149.23,0,.344v.352c-.15.115-.149.229,0,.343v.352c-.15.115-.149.23,0,.344v.352c-.15.114-.149.229,0,.344v.352c-.15.114-.149.229,0,.343v.352c-.15.115-.148.23,0,.344v.352c-.15.114-.147.23,0,.344q0,.262,0,.524c-.019.017-.057.038-.053.05a.656.656,0,0,0,.054.123v.351c-.15.115-.148.229,0,.343,0,.117,0,.235,0,.352-.15.114-.149.229,0,.344,0,.117,0,.235,0,.352-.151.114-.149.229,0,.344.205.864-.29,1.694-.068,2.594.124.5-.519.344-.845.424h-.024l-8.322-.02h-.017l-.6-.072c-.145-.332-.079-.741-.371-1.021,0-.811.015-1.622.015-2.433q0-40.377,0-80.753c0-.345-.255-.813.268-1.045l.239-.012a3.486,3.486,0,0,1,1.245-.021c.048.078.1.079.154.006h.543c.054.075.105.07.154-.006l.54,0c.053.08.105.076.157,0l.538,0c.054.082.107.079.159,0l.536,0c.053.082.106.08.159,0h.536c.053.082.106.081.16,0h.535c.052.082.105.082.16,0l.535,0c.051.082.1.082.159,0l.539.009.153.006.546.006.146,0a3.18,3.18,0,0,1,1.266.015l.519.031a.111.111,0,0,1,.142.062.126.126,0,0,0,.071.123c.008.123.015.245.022.368a.191.191,0,0,0,.011.331,15.11,15.11,0,0,1-.1,2.951,4.079,4.079,0,0,0,.135,1.578c-.15.114-.149.23,0,.344v.352c-.15.114-.149.229,0,.343v.352c-.15.114-.149.23,0,.344v.352c-.15.114-.149.229,0,.344v.351c-.15.115-.149.23,0,.344v.352c-.15.114-.149.229,0,.344v.352c-.15.114-.149.229,0,.343v.352c-.15.114-.149.23,0,.344v.352c-.15.114-.149.229,0,.343v.352c-.15.115-.149.23,0,.344v.352c-.15.114-.149.229,0,.344v.352c-.15.114-.149.229,0,.343v.352c-.15.114-.149.23,0,.344v.352c-.15.114-.149.229,0,.343v.352c-.15.114-.149.23,0,.344V68.2c-.15.114-.149.229,0,.344V68.9c-.15.115-.149.23,0,.344V69.6c-.15.114-.149.229,0,.344v.352c-.15.114-.149.229,0,.343v.352c-.15.114-.149.23,0,.344v.352c-.15.114-.149.229,0,.343v.352c-.15.115-.149.23,0,.344v.352c-.15.114-.149.229,0,.344v.352c-.15.114-.149.229,0,.343v.352c-.15.114-.149.23,0,.344v.352c-.15.114-.149.229,0,.343v.352c-.151.115-.148.23,0,.344,0,.117,0,.235,0,.352-.151.114-.148.23,0,.344,0,.117,0,.234,0,.351-.15.115-.147.23,0,.344a7.777,7.777,0,0,0,.006,2.612c-.02.016-.059.036-.057.047a.71.71,0,0,0,.049.124c0,.117,0,.235,0,.351-.151.114-.149.229,0,.344v.352c-.151.114-.149.229,0,.344v.352c-.15.114-.149.229,0,.343v.352c-.15.114-.149.23,0,.344v.351c-.15.115-.149.23,0,.344v.352c-.15.114-.149.23,0,.344V84.9c-.15.114-.149.229,0,.343V85.6c-.15.115-.149.23,0,.344v.352c-.15.114-.149.229,0,.344v.352c-.15.114-.149.229,0,.343v.352c-.15.114-.149.23,0,.344v.352c-.15.114-.149.229,0,.343v.352c-.15.114-.149.23,0,.344v.352c-.15.114-.149.229,0,.344v.351c-.15.115-.149.23,0,.344v.352c-.15.114-.149.229,0,.344v.352c-.15.114-.149.229,0,.343v.352c-.15.114-.149.23,0,.344v.352c-.15.114-.149.229,0,.343v.352c-.15.115-.149.23,0,.344" transform="translate(-55.609 -15.769)" fill="#ffc36c"/>
        <path id="Trazado_824011" data-name="Trazado 824011" d="M216.045,137.736c-2.4-.2-4.8-.022-7.2-.082-2.115-.054-2.115-.017-2.115-2.106q0-41.071,0-82.142c0-.343.046-.686.07-1.03l.041.006.027-.031a2.648,2.648,0,0,1,1.265-.038l.142,0,.552-.012c.058.069.108.059.152-.015l.54,0c.053.081.105.077.156,0l.538,0c.054.082.106.08.158,0h.538c.053.082.105.08.158,0h.536c.052.082.105.082.16,0l.535,0c.052.083.1.083.16,0l.536,0c.052.08.1.08.158,0h.538c.05.077.1.076.156,0l.542.01.146.008a1.8,1.8,0,0,1,.92.017.409.409,0,0,0,.4,0l.267.066.115.152q.007,13.086.014,26.171.015,28.653.017,57.306a13.667,13.667,0,0,1-.207,1.7l-.015.015" transform="translate(-62.405 -15.774)" fill="#ffc36c"/>
        <path id="Trazado_824012" data-name="Trazado 824012" d="M196.755,35.915q-5.78,0-11.561,0c-1.071,0-1.106-.031-1.1-1.134a74.44,74.44,0,0,1,.207-7.817,12.346,12.346,0,0,1,1.939-5.138c3.486-5.614,10.78-7.094,16.291-4.384,4.3,2.117,6.193,5.667,6.775,10.154.33,2.536.055,5.1.158,7.641.027.651-.3.679-.8.678-3.97-.011-7.939-.006-11.909-.006Z" transform="translate(-55.571 -4.867)" fill="#e43f41"/>
        <path id="Trazado_824013" data-name="Trazado 824013" d="M198.216,201.708c-.816-1.551-1.571-3.04-2.376-4.5q-3.854-6.993-7.737-13.97c-.427-.769-.4-.852.517-.84,3.039.042,6.079,0,9.119.06,3.327.065,6.657-.042,9.985-.094.943-.015,1.022.051.556.931-1.515,2.864-3.054,5.715-4.584,8.57s-3.068,5.707-4.592,8.566a6.043,6.043,0,0,1-.888,1.278" transform="translate(-56.703 -55.05)" fill="#fed9a9"/>
        <path id="Trazado_824014" data-name="Trazado 824014" d="M184.194,173.006c.292.279.225.688.371,1.021-.878-.066-.5-.588-.371-1.021" transform="translate(-55.545 -52.226)" fill="#f8f9fb"/>
        <path id="Trazado_824015" data-name="Trazado 824015" d="M198.327,52.36l-.519-.031a.431.431,0,0,1,.519.031" transform="translate(-59.713 -15.775)" fill="#d6e7ff"/>
        <path id="Trazado_824016" data-name="Trazado 824016" d="M198.909,130.263c-.149-.115-.15-.229,0-.344Z" transform="translate(-60.011 -39.219)" fill="#d6e7ff"/>
        <path id="Trazado_824017" data-name="Trazado 824017" d="M198.909,103.355c-.149-.114-.15-.229,0-.344Z" transform="translate(-60.011 -31.096)" fill="#d6e7ff"/>
        <path id="Trazado_824018" data-name="Trazado 824018" d="M198.915,168.133c-.149-.115-.15-.229,0-.343v.343" transform="translate(-60.013 -50.651)" fill="#d6e7ff"/>
        <path id="Trazado_824019" data-name="Trazado 824019" d="M198.911,166.14c-.149-.114-.152-.229,0-.344,0,.115,0,.23,0,.344" transform="translate(-60.012 -50.049)" fill="#d6e7ff"/>
        <path id="Trazado_824020" data-name="Trazado 824020" d="M219.63,52.336a.409.409,0,0,1-.4,0,.368.368,0,0,1,.4,0" transform="translate(-66.18 -15.781)" fill="#d6e7ff"/>
        <path id="Trazado_824021" data-name="Trazado 824021" d="M198.909,165.144c-.149-.114-.151-.23,0-.345v.345" transform="translate(-60.012 -49.748)" fill="#d6e7ff"/>
        <path id="Trazado_824022" data-name="Trazado 824022" d="M198.908,164.147c-.149-.115-.151-.229,0-.344v.344" transform="translate(-60.011 -49.448)" fill="#d6e7ff"/>
        <path id="Trazado_824023" data-name="Trazado 824023" d="M198.859,53.527a.191.191,0,0,1-.011-.331c0,.11.008.221.011.331" transform="translate(-60 -16.058)" fill="#d6e7ff"/>
        <path id="Trazado_824024" data-name="Trazado 824024" d="M198.909,163.15c-.149-.114-.15-.229,0-.344Z" transform="translate(-60.011 -49.147)" fill="#d6e7ff"/>
        <path id="Trazado_824025" data-name="Trazado 824025" d="M198.909,162.153c-.149-.114-.15-.229,0-.344Z" transform="translate(-60.011 -48.846)" fill="#d6e7ff"/>
        <path id="Trazado_824026" data-name="Trazado 824026" d="M198.909,161.157c-.149-.114-.15-.229,0-.344Z" transform="translate(-60.011 -48.545)" fill="#d6e7ff"/>
        <path id="Trazado_824027" data-name="Trazado 824027" d="M198.909,160.16c-.149-.115-.15-.229,0-.344Z" transform="translate(-60.011 -48.244)" fill="#d6e7ff"/>
        <path id="Trazado_824028" data-name="Trazado 824028" d="M198.909,170.126c-.149-.115-.15-.23,0-.344,0,.115,0,.23,0,.344" transform="translate(-60.011 -51.253)" fill="#d6e7ff"/>
        <path id="Trazado_824029" data-name="Trazado 824029" d="M198.909,159.164c-.149-.115-.15-.229,0-.344Z" transform="translate(-60.011 -47.943)" fill="#d6e7ff"/>
        <path id="Trazado_824030" data-name="Trazado 824030" d="M198.909,158.167c-.149-.114-.15-.229,0-.344Z" transform="translate(-60.011 -47.643)" fill="#d6e7ff"/>
        <path id="Trazado_824031" data-name="Trazado 824031" d="M198.909,157.171c-.149-.115-.15-.229,0-.344Z" transform="translate(-60.011 -47.342)" fill="#d6e7ff"/>
        <path id="Trazado_824032" data-name="Trazado 824032" d="M198.909,156.174c-.149-.114-.15-.229,0-.344Z" transform="translate(-60.011 -47.041)" fill="#d6e7ff"/>
        <path id="Trazado_824033" data-name="Trazado 824033" d="M198.909,155.177c-.149-.115-.15-.229,0-.344Z" transform="translate(-60.011 -46.74)" fill="#d6e7ff"/>
        <path id="Trazado_824034" data-name="Trazado 824034" d="M198.909,154.181c-.149-.115-.15-.229,0-.344Z" transform="translate(-60.011 -46.439)" fill="#d6e7ff"/>
        <path id="Trazado_824035" data-name="Trazado 824035" d="M198.909,153.184c-.149-.114-.15-.229,0-.344Z" transform="translate(-60.011 -46.138)" fill="#d6e7ff"/>
        <path id="Trazado_824036" data-name="Trazado 824036" d="M198.909,152.188c-.149-.115-.15-.229,0-.344Z" transform="translate(-60.011 -45.838)" fill="#d6e7ff"/>
        <path id="Trazado_824037" data-name="Trazado 824037" d="M198.909,151.191c-.149-.114-.15-.229,0-.344Z" transform="translate(-60.011 -45.537)" fill="#d6e7ff"/>
        <path id="Trazado_824038" data-name="Trazado 824038" d="M198.909,150.2c-.149-.114-.15-.229,0-.344Z" transform="translate(-60.011 -45.236)" fill="#d6e7ff"/>
        <path id="Trazado_824039" data-name="Trazado 824039" d="M198.909,149.2c-.149-.115-.15-.229,0-.344Z" transform="translate(-60.011 -44.935)" fill="#d6e7ff"/>
        <path id="Trazado_824040" data-name="Trazado 824040" d="M198.909,148.2c-.149-.115-.15-.229,0-.344Z" transform="translate(-60.011 -44.634)" fill="#d6e7ff"/>
        <path id="Trazado_824041" data-name="Trazado 824041" d="M198.909,147.205c-.149-.115-.15-.229,0-.344Z" transform="translate(-60.011 -44.333)" fill="#d6e7ff"/>
        <path id="Trazado_824042" data-name="Trazado 824042" d="M198.909,146.208c-.149-.114-.15-.229,0-.344Z" transform="translate(-60.011 -44.032)" fill="#d6e7ff"/>
        <path id="Trazado_824043" data-name="Trazado 824043" d="M198.909,145.212c-.149-.114-.15-.229,0-.344Z" transform="translate(-60.011 -43.732)" fill="#d6e7ff"/>
        <path id="Trazado_824044" data-name="Trazado 824044" d="M198.912,169.13c-.149-.115-.149-.23,0-.344,0,.115,0,.23,0,.344" transform="translate(-60.012 -50.952)" fill="#d6e7ff"/>
        <path id="Trazado_824045" data-name="Trazado 824045" d="M198.909,144.215c-.149-.115-.15-.229,0-.344Z" transform="translate(-60.011 -43.431)" fill="#d6e7ff"/>
        <path id="Trazado_824046" data-name="Trazado 824046" d="M198.909,143.218c-.149-.115-.15-.229,0-.344Z" transform="translate(-60.011 -43.13)" fill="#d6e7ff"/>
        <path id="Trazado_824047" data-name="Trazado 824047" d="M198.909,142.222c-.149-.114-.15-.229,0-.344Z" transform="translate(-60.011 -42.829)" fill="#d6e7ff"/>
        <path id="Trazado_824048" data-name="Trazado 824048" d="M198.909,141.225c-.149-.114-.15-.229,0-.344Z" transform="translate(-60.011 -42.528)" fill="#d6e7ff"/>
        <path id="Trazado_824049" data-name="Trazado 824049" d="M198.908,60.5c-.149-.114-.151-.23,0-.344V60.5" transform="translate(-60.011 -18.16)" fill="#d6e7ff"/>
        <path id="Trazado_824050" data-name="Trazado 824050" d="M198.909,61.5c-.149-.114-.15-.23,0-.344V61.5" transform="translate(-60.011 -18.461)" fill="#d6e7ff"/>
        <path id="Trazado_824051" data-name="Trazado 824051" d="M198.909,62.5c-.149-.114-.15-.229,0-.344V62.5" transform="translate(-60.011 -18.762)" fill="#d6e7ff"/>
        <path id="Trazado_824052" data-name="Trazado 824052" d="M198.909,63.492c-.149-.114-.15-.229,0-.344Z" transform="translate(-60.011 -19.063)" fill="#d6e7ff"/>
        <path id="Trazado_824053" data-name="Trazado 824053" d="M198.909,64.489c-.149-.114-.15-.229,0-.344Z" transform="translate(-60.011 -19.364)" fill="#d6e7ff"/>
        <path id="Trazado_824054" data-name="Trazado 824054" d="M198.909,65.485c-.149-.114-.15-.229,0-.344Z" transform="translate(-60.011 -19.664)" fill="#d6e7ff"/>
        <path id="Trazado_824055" data-name="Trazado 824055" d="M198.909,66.482c-.149-.114-.15-.229,0-.344Z" transform="translate(-60.011 -19.965)" fill="#d6e7ff"/>
        <path id="Trazado_824056" data-name="Trazado 824056" d="M198.909,67.478c-.149-.114-.15-.229,0-.344Z" transform="translate(-60.011 -20.266)" fill="#d6e7ff"/>
        <path id="Trazado_824057" data-name="Trazado 824057" d="M198.909,68.475c-.149-.114-.15-.229,0-.344Z" transform="translate(-60.011 -20.567)" fill="#d6e7ff"/>
        <path id="Trazado_824058" data-name="Trazado 824058" d="M198.909,69.471c-.149-.114-.15-.229,0-.344Z" transform="translate(-60.011 -20.868)" fill="#d6e7ff"/>
        <path id="Trazado_824059" data-name="Trazado 824059" d="M198.909,70.468c-.149-.114-.15-.229,0-.344Z" transform="translate(-60.011 -21.169)" fill="#d6e7ff"/>
        <path id="Trazado_824060" data-name="Trazado 824060" d="M198.909,71.465c-.149-.114-.15-.229,0-.344Z" transform="translate(-60.011 -21.47)" fill="#d6e7ff"/>
        <path id="Trazado_824061" data-name="Trazado 824061" d="M198.909,72.461c-.149-.114-.15-.229,0-.344Z" transform="translate(-60.011 -21.77)" fill="#d6e7ff"/>
        <path id="Trazado_824062" data-name="Trazado 824062" d="M198.909,140.229c-.149-.115-.15-.229,0-.344Z" transform="translate(-60.011 -42.228)" fill="#d6e7ff"/>
        <path id="Trazado_824063" data-name="Trazado 824063" d="M198.909,73.458c-.149-.114-.15-.229,0-.344Z" transform="translate(-60.011 -22.071)" fill="#d6e7ff"/>
        <path id="Trazado_824064" data-name="Trazado 824064" d="M198.909,74.454c-.149-.114-.15-.229,0-.344Z" transform="translate(-60.011 -22.372)" fill="#d6e7ff"/>
        <path id="Trazado_824065" data-name="Trazado 824065" d="M198.909,75.451c-.149-.114-.15-.229,0-.344Z" transform="translate(-60.011 -22.673)" fill="#d6e7ff"/>
        <path id="Trazado_824066" data-name="Trazado 824066" d="M198.909,76.448c-.149-.115-.15-.229,0-.344Z" transform="translate(-60.011 -22.974)" fill="#d6e7ff"/>
        <path id="Trazado_824067" data-name="Trazado 824067" d="M198.909,139.232c-.149-.115-.15-.229,0-.344Z" transform="translate(-60.011 -41.927)" fill="#d6e7ff"/>
        <path id="Trazado_824068" data-name="Trazado 824068" d="M198.909,77.444c-.149-.114-.15-.229,0-.344Z" transform="translate(-60.011 -23.274)" fill="#d6e7ff"/>
        <path id="Trazado_824069" data-name="Trazado 824069" d="M198.909,78.441c-.149-.114-.15-.229,0-.344Z" transform="translate(-60.011 -23.575)" fill="#d6e7ff"/>
        <path id="Trazado_824070" data-name="Trazado 824070" d="M198.909,79.437c-.149-.114-.15-.229,0-.344Z" transform="translate(-60.011 -23.876)" fill="#d6e7ff"/>
        <path id="Trazado_824071" data-name="Trazado 824071" d="M198.909,80.434c-.149-.114-.15-.229,0-.344Z" transform="translate(-60.011 -24.177)" fill="#d6e7ff"/>
        <path id="Trazado_824072" data-name="Trazado 824072" d="M198.909,81.43c-.149-.114-.15-.229,0-.344Z" transform="translate(-60.011 -24.478)" fill="#d6e7ff"/>
        <path id="Trazado_824073" data-name="Trazado 824073" d="M198.909,82.427c-.149-.114-.15-.229,0-.344Z" transform="translate(-60.011 -24.779)" fill="#d6e7ff"/>
        <path id="Trazado_824074" data-name="Trazado 824074" d="M198.909,83.424c-.149-.114-.15-.229,0-.344Z" transform="translate(-60.011 -25.08)" fill="#d6e7ff"/>
        <path id="Trazado_824075" data-name="Trazado 824075" d="M198.909,84.42c-.149-.115-.15-.229,0-.344Z" transform="translate(-60.011 -25.38)" fill="#d6e7ff"/>
        <path id="Trazado_824076" data-name="Trazado 824076" d="M198.909,85.417c-.149-.114-.15-.229,0-.344Z" transform="translate(-60.011 -25.681)" fill="#d6e7ff"/>
        <path id="Trazado_824077" data-name="Trazado 824077" d="M198.908,86.414c-.149-.115-.151-.23,0-.344v.344" transform="translate(-60.011 -25.982)" fill="#d6e7ff"/>
        <path id="Trazado_824078" data-name="Trazado 824078" d="M198.909,87.41c-.149-.114-.151-.23,0-.344,0,.114,0,.23,0,.344" transform="translate(-60.011 -26.283)" fill="#d6e7ff"/>
        <path id="Trazado_824079" data-name="Trazado 824079" d="M198.909,138.236c-.149-.114-.15-.229,0-.344Z" transform="translate(-60.011 -41.626)" fill="#d6e7ff"/>
        <path id="Trazado_824080" data-name="Trazado 824080" d="M198.909,137.239c-.149-.114-.15-.229,0-.344Z" transform="translate(-60.011 -41.325)" fill="#d6e7ff"/>
        <path id="Trazado_824081" data-name="Trazado 824081" d="M198.913,88.407c-.149-.114-.151-.229,0-.344,0,.114,0,.23,0,.344" transform="translate(-60.013 -26.584)" fill="#d6e7ff"/>
        <path id="Trazado_824082" data-name="Trazado 824082" d="M198.909,136.242c-.149-.115-.15-.229,0-.344Z" transform="translate(-60.011 -41.024)" fill="#d6e7ff"/>
        <path id="Trazado_824083" data-name="Trazado 824083" d="M198.909,135.246c-.149-.115-.15-.229,0-.344Z" transform="translate(-60.011 -40.723)" fill="#d6e7ff"/>
        <path id="Trazado_824084" data-name="Trazado 824084" d="M198.909,134.249c-.149-.115-.15-.229,0-.344Z" transform="translate(-60.011 -40.422)" fill="#d6e7ff"/>
        <path id="Trazado_824085" data-name="Trazado 824085" d="M198.909,93.389c-.149-.115-.15-.23,0-.344,0,.115,0,.23,0,.344" transform="translate(-60.011 -28.088)" fill="#d6e7ff"/>
        <path id="Trazado_824086" data-name="Trazado 824086" d="M198.908,94.386c-.149-.115-.151-.23,0-.344v.344" transform="translate(-60.011 -28.389)" fill="#d6e7ff"/>
        <path id="Trazado_824087" data-name="Trazado 824087" d="M198.908,95.383c-.149-.114-.151-.229,0-.344v.344" transform="translate(-60.011 -28.69)" fill="#d6e7ff"/>
        <path id="Trazado_824088" data-name="Trazado 824088" d="M198.909,133.253c-.149-.114-.15-.229,0-.344Z" transform="translate(-60.011 -40.122)" fill="#d6e7ff"/>
        <path id="Trazado_824089" data-name="Trazado 824089" d="M198.909,132.256c-.149-.114-.15-.229,0-.344Z" transform="translate(-60.011 -39.821)" fill="#d6e7ff"/>
        <path id="Trazado_824090" data-name="Trazado 824090" d="M198.909,96.379c-.149-.114-.15-.23,0-.344v.344" transform="translate(-60.011 -28.99)" fill="#d6e7ff"/>
        <path id="Trazado_824091" data-name="Trazado 824091" d="M198.909,97.376c-.149-.114-.15-.23,0-.344v.344" transform="translate(-60.011 -29.291)" fill="#d6e7ff"/>
        <path id="Trazado_824092" data-name="Trazado 824092" d="M198.909,98.372c-.149-.114-.15-.229,0-.344v.344" transform="translate(-60.011 -29.592)" fill="#d6e7ff"/>
        <path id="Trazado_824093" data-name="Trazado 824093" d="M198.909,100.365c-.149-.114-.15-.229,0-.344Z" transform="translate(-60.011 -30.194)" fill="#d6e7ff"/>
        <path id="Trazado_824094" data-name="Trazado 824094" d="M198.909,101.362c-.149-.115-.15-.229,0-.344Z" transform="translate(-60.011 -30.495)" fill="#d6e7ff"/>
        <path id="Trazado_824095" data-name="Trazado 824095" d="M198.909,131.259c-.149-.115-.15-.229,0-.344Z" transform="translate(-60.011 -39.52)" fill="#d6e7ff"/>
        <path id="Trazado_824096" data-name="Trazado 824096" d="M198.909,102.359c-.149-.114-.15-.229,0-.344Z" transform="translate(-60.011 -30.796)" fill="#d6e7ff"/>
        <path id="Trazado_824097" data-name="Trazado 824097" d="M198.909,129.266c-.149-.114-.15-.229,0-.344Z" transform="translate(-60.011 -38.918)" fill="#d6e7ff"/>
        <path id="Trazado_824098" data-name="Trazado 824098" d="M198.909,104.352c-.149-.115-.15-.229,0-.344Z" transform="translate(-60.011 -31.397)" fill="#d6e7ff"/>
        <path id="Trazado_824099" data-name="Trazado 824099" d="M198.909,105.348c-.149-.114-.15-.229,0-.344Z" transform="translate(-60.011 -31.698)" fill="#d6e7ff"/>
        <path id="Trazado_824100" data-name="Trazado 824100" d="M198.909,106.345c-.149-.115-.15-.229,0-.344Z" transform="translate(-60.011 -31.999)" fill="#d6e7ff"/>
        <path id="Trazado_824101" data-name="Trazado 824101" d="M198.909,107.342c-.149-.114-.15-.229,0-.344Z" transform="translate(-60.011 -32.3)" fill="#d6e7ff"/>
        <path id="Trazado_824102" data-name="Trazado 824102" d="M198.909,108.338c-.149-.114-.15-.229,0-.344Z" transform="translate(-60.011 -32.6)" fill="#d6e7ff"/>
        <path id="Trazado_824103" data-name="Trazado 824103" d="M198.909,109.335c-.149-.114-.15-.229,0-.344Z" transform="translate(-60.011 -32.901)" fill="#d6e7ff"/>
        <path id="Trazado_824104" data-name="Trazado 824104" d="M198.909,110.331c-.149-.114-.15-.229,0-.344Z" transform="translate(-60.011 -33.202)" fill="#d6e7ff"/>
        <path id="Trazado_824105" data-name="Trazado 824105" d="M198.909,111.328c-.149-.114-.15-.229,0-.344Z" transform="translate(-60.011 -33.503)" fill="#d6e7ff"/>
        <path id="Trazado_824106" data-name="Trazado 824106" d="M198.909,99.369c-.149-.114-.15-.229,0-.344Z" transform="translate(-60.011 -29.893)" fill="#d6e7ff"/>
        <path id="Trazado_824107" data-name="Trazado 824107" d="M198.909,112.324c-.149-.115-.15-.229,0-.344Z" transform="translate(-60.011 -33.804)" fill="#d6e7ff"/>
        <path id="Trazado_824108" data-name="Trazado 824108" d="M198.909,113.321c-.149-.115-.15-.229,0-.344Z" transform="translate(-60.011 -34.105)" fill="#d6e7ff"/>
        <path id="Trazado_824109" data-name="Trazado 824109" d="M198.909,114.318c-.149-.114-.15-.229,0-.344Z" transform="translate(-60.011 -34.406)" fill="#d6e7ff"/>
        <path id="Trazado_824110" data-name="Trazado 824110" d="M198.909,115.314c-.149-.114-.15-.229,0-.344Z" transform="translate(-60.011 -34.706)" fill="#d6e7ff"/>
        <path id="Trazado_824111" data-name="Trazado 824111" d="M198.909,116.311c-.149-.114-.15-.229,0-.344Z" transform="translate(-60.011 -35.007)" fill="#d6e7ff"/>
        <path id="Trazado_824112" data-name="Trazado 824112" d="M198.909,117.307c-.149-.114-.15-.229,0-.344Z" transform="translate(-60.011 -35.308)" fill="#d6e7ff"/>
        <path id="Trazado_824113" data-name="Trazado 824113" d="M198.909,118.3c-.149-.115-.15-.229,0-.344Z" transform="translate(-60.011 -35.609)" fill="#d6e7ff"/>
        <path id="Trazado_824114" data-name="Trazado 824114" d="M198.909,119.3c-.149-.114-.15-.229,0-.344Z" transform="translate(-60.011 -35.91)" fill="#d6e7ff"/>
        <path id="Trazado_824115" data-name="Trazado 824115" d="M198.909,120.3c-.149-.114-.15-.229,0-.344Z" transform="translate(-60.011 -36.211)" fill="#d6e7ff"/>
        <path id="Trazado_824116" data-name="Trazado 824116" d="M198.909,121.294c-.149-.114-.15-.229,0-.344Z" transform="translate(-60.011 -36.512)" fill="#d6e7ff"/>
        <path id="Trazado_824117" data-name="Trazado 824117" d="M198.909,122.29c-.149-.114-.15-.229,0-.344Z" transform="translate(-60.011 -36.812)" fill="#d6e7ff"/>
        <path id="Trazado_824118" data-name="Trazado 824118" d="M198.909,123.287c-.149-.114-.15-.229,0-.344Z" transform="translate(-60.011 -37.113)" fill="#d6e7ff"/>
        <path id="Trazado_824119" data-name="Trazado 824119" d="M198.909,124.283c-.149-.114-.15-.229,0-.344Z" transform="translate(-60.011 -37.414)" fill="#d6e7ff"/>
        <path id="Trazado_824120" data-name="Trazado 824120" d="M198.909,125.28c-.149-.115-.15-.229,0-.344Z" transform="translate(-60.011 -37.715)" fill="#d6e7ff"/>
        <path id="Trazado_824121" data-name="Trazado 824121" d="M198.909,126.277c-.149-.114-.15-.229,0-.344Z" transform="translate(-60.011 -38.016)" fill="#d6e7ff"/>
        <path id="Trazado_824122" data-name="Trazado 824122" d="M198.909,127.273c-.149-.114-.15-.229,0-.344Z" transform="translate(-60.011 -38.316)" fill="#d6e7ff"/>
        <path id="Trazado_824123" data-name="Trazado 824123" d="M198.909,128.27c-.149-.115-.15-.229,0-.344Z" transform="translate(-60.011 -38.617)" fill="#d6e7ff"/>
        <path id="Trazado_824124" data-name="Trazado 824124" d="M194.937,52.31l-.153-.006a.1.1,0,0,1,.153.006" transform="translate(-58.8 -15.779)" fill="#d6e7ff"/>
        <path id="Trazado_824125" data-name="Trazado 824125" d="M193.943,52.29c-.055.077-.109.077-.159,0a.116.116,0,0,1,.159,0" transform="translate(-58.498 -15.775)" fill="#d6e7ff"/>
        <path id="Trazado_824126" data-name="Trazado 824126" d="M184.927,52.335l-.239.012.239-.012" transform="translate(-55.752 -15.799)" fill="#d6e7ff"/>
        <path id="Trazado_824127" data-name="Trazado 824127" d="M186.967,52.3c-.054.073-.105.073-.154-.006a.1.1,0,0,1,.154.006" transform="translate(-56.394 -15.776)" fill="#d6e7ff"/>
        <path id="Trazado_824128" data-name="Trazado 824128" d="M187.965,52.292c-.049.075-.1.081-.154.006a.1.1,0,0,1,.154-.006" transform="translate(-56.695 -15.776)" fill="#d6e7ff"/>
        <path id="Trazado_824129" data-name="Trazado 824129" d="M188.962,52.286c-.052.079-.1.082-.157,0a.114.114,0,0,1,.157,0" transform="translate(-56.995 -15.775)" fill="#d6e7ff"/>
        <path id="Trazado_824130" data-name="Trazado 824130" d="M189.959,52.279c-.052.08-.1.084-.158,0a.119.119,0,0,1,.158,0" transform="translate(-57.296 -15.773)" fill="#d6e7ff"/>
        <path id="Trazado_824131" data-name="Trazado 824131" d="M190.955,52.276c-.053.08-.105.082-.159,0a.121.121,0,0,1,.159,0" transform="translate(-57.596 -15.772)" fill="#d6e7ff"/>
        <path id="Trazado_824132" data-name="Trazado 824132" d="M220.3,52.608l-.115-.152c.117-.008.149.046.115.152" transform="translate(-66.468 -15.835)" fill="#d6e7ff"/>
        <path id="Trazado_824133" data-name="Trazado 824133" d="M198.824,52.616a.126.126,0,0,1-.071-.123c.083.007.135.031.071.123" transform="translate(-59.998 -15.846)" fill="#d6e7ff"/>
        <path id="Trazado_824134" data-name="Trazado 824134" d="M191.952,52.275c-.053.08-.107.082-.16,0a.124.124,0,0,1,.16,0" transform="translate(-57.897 -15.772)" fill="#d6e7ff"/>
        <path id="Trazado_824135" data-name="Trazado 824135" d="M198.939,167.211a.7.7,0,0,1-.054-.123c0-.011.034-.033.053-.05,0,.057,0,.115,0,.172" transform="translate(-60.038 -50.425)" fill="#d6e7ff"/>
        <path id="Trazado_824136" data-name="Trazado 824136" d="M217.849,52.321l-.146-.008a.09.09,0,0,1,.146.008" transform="translate(-65.719 -15.782)" fill="#d6e7ff"/>
        <path id="Trazado_824137" data-name="Trazado 824137" d="M216.858,52.3c-.054.074-.105.075-.156,0a.107.107,0,0,1,.156,0" transform="translate(-65.417 -15.776)" fill="#d6e7ff"/>
        <path id="Trazado_824138" data-name="Trazado 824138" d="M215.863,52.291c-.054.077-.108.078-.159,0a.114.114,0,0,1,.159,0" transform="translate(-65.115 -15.775)" fill="#d6e7ff"/>
        <path id="Trazado_824139" data-name="Trazado 824139" d="M214.867,52.284c-.054.08-.108.08-.16,0a.12.12,0,0,1,.16,0" transform="translate(-64.814 -15.774)" fill="#d6e7ff"/>
        <path id="Trazado_824140" data-name="Trazado 824140" d="M185.669,174.57h.018l-.01.045Z" transform="translate(-56.048 -52.698)" fill="#29aaf4"/>
        <path id="Trazado_824141" data-name="Trazado 824141" d="M197.616,174.6h.023l-.01.05Z" transform="translate(-59.655 -52.706)" fill="#29aaf4"/>
        <path id="Trazado_824142" data-name="Trazado 824142" d="M220.074,174.693l.016-.015-.016.015" transform="translate(-66.434 -52.731)" fill="#29aaf4"/>
        <path id="Trazado_824143" data-name="Trazado 824143" d="M213.871,52.277c-.054.08-.108.082-.16,0a.123.123,0,0,1,.16,0" transform="translate(-64.514 -15.772)" fill="#d6e7ff"/>
        <path id="Trazado_824144" data-name="Trazado 824144" d="M212.874,52.275c-.053.08-.105.082-.159,0a.121.121,0,0,1,.159,0" transform="translate(-64.213 -15.772)" fill="#d6e7ff"/>
        <path id="Trazado_824145" data-name="Trazado 824145" d="M211.878,52.278c-.052.08-.105.083-.158,0a.119.119,0,0,1,.158,0" transform="translate(-63.913 -15.772)" fill="#d6e7ff"/>
        <path id="Trazado_824146" data-name="Trazado 824146" d="M210.882,52.283c-.051.08-.1.084-.157,0a.115.115,0,0,1,.157,0" transform="translate(-63.612 -15.774)" fill="#d6e7ff"/>
        <path id="Trazado_824147" data-name="Trazado 824147" d="M209.886,52.291c-.044.074-.094.084-.152.015a.1.1,0,0,1,.152-.015" transform="translate(-63.313 -15.776)" fill="#d6e7ff"/>
        <path id="Trazado_824148" data-name="Trazado 824148" d="M208.882,52.324l-.142,0a.083.083,0,0,1,.142,0" transform="translate(-63.013 -15.783)" fill="#d6e7ff"/>
        <path id="Trazado_824149" data-name="Trazado 824149" d="M206.9,52.38l-.028.031-.041-.006.023-.054Z" transform="translate(-62.436 -15.803)" fill="#d6e7ff"/>
        <path id="Trazado_824150" data-name="Trazado 824150" d="M192.948,52.279c-.054.08-.108.08-.16,0a.122.122,0,0,1,.16,0" transform="translate(-58.198 -15.772)" fill="#d6e7ff"/>
        <path id="Trazado_824151" data-name="Trazado 824151" d="M198.939,92.469a.648.648,0,0,1-.05-.124c0-.011.037-.031.057-.047,0,.057,0,.114-.007.171" transform="translate(-60.039 -27.862)" fill="#d6e7ff"/>
        <path id="Trazado_824152" data-name="Trazado 824152" d="M195.932,52.322l-.146,0a.089.089,0,0,1,.146,0" transform="translate(-59.103 -15.783)" fill="#d6e7ff"/>
        <path id="Trazado_824153" data-name="Trazado 824153" d="M82.252,73.3a9.884,9.884,0,0,1-3.247,7.691,8.259,8.259,0,0,1-2.534,1.472c-.481.19-.721.376-.694.961.2,4.312.07,8.627.1,12.941.006.808-.07,1.617-.1,2.426-.006.157-.067.365.165.432.2.057.315-.072.429-.213.986-1.212,1.962-2.433,2.974-3.623.327-.384.179-.681-.017-1.014a8.858,8.858,0,0,1-1.3-5.154,9.248,9.248,0,0,1,10.665-8.4l.285.095A9.352,9.352,0,0,1,94.356,84.5c.193.264.378.533.567.8a.438.438,0,0,0,.3.436,9.459,9.459,0,0,1,.891,4.343,9.254,9.254,0,0,1-7.673,8.637,8.491,8.491,0,0,1-4.177-.362.667.667,0,0,0-.882.251c-2.262,2.935-4.475,5.91-6.908,8.71a2.48,2.48,0,0,0-.627,1.747c.014.841.057,1.681.047,2.521a2.711,2.711,0,0,1-2.728,2.943,2.763,2.763,0,0,1-2.568-2.353,30.985,30.985,0,0,1-.2-3.7,1.237,1.237,0,0,0-.282-.885q-3.265-4.5-6.792-8.8c-.468-.573-1.035-.376-1.479-.226-3.857,1.3-8.694-1.53-10.364-4.957-2.764-5.673,1.354-11.937,6.553-12.747a9.009,9.009,0,0,1,10.126,6.075,8.491,8.491,0,0,1-.97,7.6.55.55,0,0,0,.017.7l2.3,2.8a3.317,3.317,0,0,0,1.027,1.151V97.308q-.012-5.571-.022-11.141c0-.109,0-.218-.008-.327,0-.124-.006-.248-.01-.372,0-.107,0-.213-.007-.32v-.383q0-.331.01-.663c.007-.124.015-.247.022-.37s.006-.222.01-.333c.154-.545-.23-.689-.615-.863a9.512,9.512,0,0,1-5.292-5.653,8.5,8.5,0,0,1,.229-6.294,8.217,8.217,0,0,1,1.17-2.048,9.1,9.1,0,0,1,13.531-.786,9.531,9.531,0,0,1,2.695,5.378l.006.168m4.814,12.855a3.56,3.56,0,0,0-3.643,3.512c-.027,1.881,1.687,3.831,3.454,3.786a3.732,3.732,0,0,0,3.836-3.674,3.651,3.651,0,0,0-3.648-3.623m-27.4.032c-1.858-.269-3.7,1.674-3.7,3.531a3.663,3.663,0,1,0,7.326.062,3.509,3.509,0,0,0-3.621-3.593M76.812,74.116a3.493,3.493,0,0,0-3.7-3.582,3.645,3.645,0,0,0-3.6,3.548A3.948,3.948,0,0,0,72.921,77.8a3.747,3.747,0,0,0,3.891-3.689" transform="translate(-15.272 -19.656)"/>
        <path id="Trazado_824154" data-name="Trazado 824154" d="M41.63,144.115q16.5,0,33.005,0a2.618,2.618,0,0,1,2.425,4.06,2.238,2.238,0,0,1-1.728,1.172,13.64,13.64,0,0,1-1.468.112q-15.548.014-31.1.017a2.986,2.986,0,0,1-3.072-1.66,2.514,2.514,0,0,1,1.048-3.315c.174-.1.363-.178.545-.267l.34-.125" transform="translate(-11.906 -43.503)"/>
        <path id="Trazado_824155" data-name="Trazado 824155" d="M89.969,159.863c6.814,0,11.911-.022,17.008.017,1.125.009,2.28.053,3.072,1.155a2.649,2.649,0,0,1-1.284,4,6.422,6.422,0,0,1-3.526.231,4.119,4.119,0,0,0-.862-.034q-14.335,0-28.671,0c-1.686,0-2.559-.589-3.036-2.006a2.52,2.52,0,0,1,2.283-3.241c5.576-.338,11.156,0,15.015-.119" transform="translate(-21.9 -48.247)"/>
        <path id="Trazado_824156" data-name="Trazado 824156" d="M111.261,192.143a2.708,2.708,0,0,1,1.9,2.706c-.348,1.586-.984,2.4-3.09,2.463-3.327.094-6.659.052-9.989.055q-7.471.007-14.941-.013c-.494,0-.978.067-1.487.021a2.662,2.662,0,0,1-2.247-1.734,2.551,2.551,0,0,1,.512-2.834A2.94,2.94,0,0,1,84.549,192c8.455-.075,16.911-.047,25.368-.04a5.733,5.733,0,0,1,.835.121l.509.067" transform="translate(-24.504 -57.943)"/>
        <path id="Trazado_824157" data-name="Trazado 824157" d="M52.494,191.949c3.329,0,6.659-.022,9.988.012a2.766,2.766,0,0,1,2.784,1.333,2.93,2.93,0,0,1-.086,2.936,2.419,2.419,0,0,1-2.625,1.137c-.316-.029-.637,0-.955,0-6.137,0-12.274-.008-18.41.012a7.74,7.74,0,0,1-1.815-.064,2.823,2.823,0,0,1-2.02-2.1,2.566,2.566,0,0,1,.9-2.7,3.535,3.535,0,0,1,2.251-.554c3.329-.018,6.659-.008,9.988-.008" transform="translate(-11.851 -57.942)"/>
        <path id="Trazado_824158" data-name="Trazado 824158" d="M48.962,165.216c-2.316,0-4.633.017-6.95-.006a2.635,2.635,0,0,1-.59-5.212,6.771,6.771,0,0,1,1.811-.165q6.125.013,12.249.022c1.736,0,2.75.552,3.144,1.66a2.689,2.689,0,0,1-2.627,3.7q-3.518,0-7.036,0v0" transform="translate(-11.873 -48.249)"/>
        <path id="Trazado_824159" data-name="Trazado 824159" d="M112.852,144.064c1,.011,2.012-.029,3.012.044a2.76,2.76,0,0,1,2.7,3.216l-.106.248a4.5,4.5,0,0,1-.917,1.278l-.153.121a5.719,5.719,0,0,1-2.3.495c-4.255-.041-8.512-.01-12.767-.012a3.465,3.465,0,0,1-1.844-.391,2.812,2.812,0,0,1-1.3-2.9,2.724,2.724,0,0,1,2.66-2.064c3.3-.02,6.6-.017,9.9-.025.318,0,.635-.016.954-.025l.08.031Z" transform="translate(-29.919 -43.485)"/>
        <path id="Trazado_824160" data-name="Trazado 824160" d="M116.023,181.018c-4.459,0-8.917-.006-13.376,0a2.564,2.564,0,0,1-2.246-.794,2.6,2.6,0,0,1-.737-2.555,2.646,2.646,0,0,1,2.573-1.947c4.37-.055,8.741-.1,13.109-.045,1.264.015,2.595.182,3.16,1.706a2.741,2.741,0,0,1-2.463,3.634l-.007-.03Z" transform="translate(-30.052 -53.026)"/>
        <path id="Trazado_824161" data-name="Trazado 824161" d="M48,175.643q2.865,0,5.73,0a2.685,2.685,0,0,1,2.889,2.251,2.616,2.616,0,0,1-2.036,3.052,11.419,11.419,0,0,1-1.816.094c-3.616-.041-7.233.141-10.845-.074a2.766,2.766,0,0,1-2.574-2.7,2.737,2.737,0,0,1,2.666-2.536C44,175.667,46,175.712,48,175.712v-.07" transform="translate(-11.876 -53.021)"/>
        <path id="Trazado_824162" data-name="Trazado 824162" d="M83.59,175.861c1,.059,2.184.894,2.247,1.571.215,2.293-.561,3.055-1.886,3.492a1.979,1.979,0,0,1-.6.089c-3.967.011-7.938.16-11.9-.056a2.56,2.56,0,0,1-2.468-2.812,2.715,2.715,0,0,1,2.564-2.427c.808-.059,1.621-.073,2.432-.075q3.912-.01,7.825.008c.334,0,.7-.108,1,.151.089.155.228.066.349.064l.442,0" transform="translate(-20.824 -53.018)"/>
        <path id="Trazado_824163" data-name="Trazado 824163" d="M78.712,111.223v1.884a3.317,3.317,0,0,1-1.027-1.151c.236-.394.441-.831,1.027-.733" transform="translate(-23.451 -33.571)" fill="#d6e7ff"/>
        <path id="Trazado_824164" data-name="Trazado 824164" d="M89.122,175.844c-.122,0-.26.091-.35-.064-.045-.313.248-.118.343-.223,0,.1,0,.191.007.286" transform="translate(-26.796 -52.996)" fill="#29aaf4"/>
        <path id="Trazado_824165" data-name="Trazado 824165" d="M79.047,92.314c0,.221-.006.443-.01.663a.5.5,0,0,1,.01-.663" transform="translate(-23.823 -27.867)" fill="#d6e7ff"/>
        <path id="Trazado_824166" data-name="Trazado 824166" d="M89.272,175.839c0-.1,0-.191-.007-.286.234-.041.412.007.449.281l-.442,0" transform="translate(-26.947 -52.991)" fill="#f8f9fb"/>
        <path id="Trazado_824167" data-name="Trazado 824167" d="M124.051,192.147l-.509-.067c.195-.172.368-.175.509.067" transform="translate(-37.294 -57.947)" fill="#f8f9fb"/>
        <path id="Trazado_824168" data-name="Trazado 824168" d="M114.4,94.468a.438.438,0,0,1-.3-.436.481.481,0,0,1,.3.436" transform="translate(-34.441 -28.386)" fill="#f8f9fb"/>
        <path id="Trazado_824169" data-name="Trazado 824169" d="M42.43,144.116l-.34.125.34-.125" transform="translate(-12.706 -43.505)" fill="#f8f9fb"/>
        <path id="Trazado_824170" data-name="Trazado 824170" d="M79.1,91.307c0,.111-.006.222-.01.333-.15-.116-.14-.226.01-.333" transform="translate(-23.842 -27.563)" fill="#d6e7ff"/>
        <path id="Trazado_824171" data-name="Trazado 824171" d="M79.048,93.811c0,.107,0,.213.008.32q-.2-.155-.008-.32" transform="translate(-23.833 -28.319)" fill="#d6e7ff"/>
        <path id="Trazado_824172" data-name="Trazado 824172" d="M79.068,94.8c0,.109.006.218.008.327-.144-.105-.149-.214-.008-.327" transform="translate(-23.838 -28.618)" fill="#d6e7ff"/>
        <path id="Trazado_824173" data-name="Trazado 824173" d="M105.47,87.713l-.285-.1.285.1" transform="translate(-31.753 -26.449)" fill="#f8f9fb"/>
        <path id="Trazado_824174" data-name="Trazado 824174" d="M95.939,76.77l-.006-.168a.73.73,0,0,1,.057.118c0,.011-.032.034-.05.05" transform="translate(-28.96 -23.124)" fill="#f8f9fb"/>
        <path id="Trazado_824175" data-name="Trazado 824175" d="M118.723,144.039l-.084.018-.08-.031c.061-.088.114-.068.163.013" transform="translate(-35.79 -43.46)" fill="#d6e7ff"/>
        <path id="Trazado_824176" data-name="Trazado 824176" d="M126.83,148.987l.106-.248-.106.248" transform="translate(-38.287 -44.9)" fill="#f8f9fb"/>
        <path id="Trazado_824177" data-name="Trazado 824177" d="M125.3,151.045l.153-.121-.153.121" transform="translate(-37.824 -45.56)" fill="#f8f9fb"/>
        <path id="Trazado_824178" data-name="Trazado 824178" d="M123.145,183.325l.013-.028.007.03-.013.032Z" transform="translate(-37.174 -55.332)" fill="#29aaf4"/>
        <path id="Trazado_824179" data-name="Trazado 824179" d="M101.262,95.255a3.651,3.651,0,0,1,3.648,3.623,3.732,3.732,0,0,1-3.836,3.674c-1.768.045-3.482-1.9-3.454-3.786a3.56,3.56,0,0,1,3.643-3.512" transform="translate(-29.468 -28.755)" fill="#94d6a3"/>
        <path id="Trazado_824180" data-name="Trazado 824180" d="M61.985,95.29a3.509,3.509,0,0,1,3.621,3.593,3.663,3.663,0,1,1-7.326-.062c0-1.858,1.848-3.8,3.7-3.531" transform="translate(-17.593 -28.758)" fill="#7bcb91"/>
        <path id="Trazado_824181" data-name="Trazado 824181" d="M84.991,76.46A3.747,3.747,0,0,1,81.1,80.149a3.948,3.948,0,0,1-3.411-3.723,3.645,3.645,0,0,1,3.6-3.548,3.493,3.493,0,0,1,3.7,3.582" transform="translate(-23.452 -22)" fill="#94d6a3"/>
      </g>
    </g>
  </g>
</svg>
