<svg xmlns="http://www.w3.org/2000/svg" xmlns:xlink="http://www.w3.org/1999/xlink" width="190" height="174" viewBox="0 0 190 174">
  <defs>
    <clipPath id="clip-path">
      <rect id="Rect치ngulo_378270" data-name="Rect치ngulo 378270" width="190" height="174" transform="translate(390 2505)" fill="none" stroke="#707070" stroke-width="1"/>
    </clipPath>
    <clipPath id="clip-path-2">
      <rect id="Rect치ngulo_378273" data-name="Rect치ngulo 378273" width="150.216" height="155.914" fill="none"/>
    </clipPath>
  </defs>
  <g id="Enmascarar_grupo_412" data-name="Enmascarar grupo 412" transform="translate(-390 -2505)" clip-path="url(#clip-path)">
    <g id="Grupo_1074006" data-name="Grupo 1074006" transform="translate(403.458 2514.043)">
      <g id="Grupo_1074005" data-name="Grupo 1074005" clip-path="url(#clip-path-2)">
        <path id="Trazado_823862" data-name="Trazado 823862" d="M139.276,4.185a38.344,38.344,0,0,0,4.573-.151,3.785,3.785,0,0,1-.157,1.829c-.033.1.019.149.114.161l.014.014c.019.1.063.155.172.095q6.37-.008,12.74-.016c7.71,0,15.42.015,23.129,0,.446,0,.694.135.7.53.013,1.949-.015,3.9-.015,5.847q0,24.425,0,48.85,0,31.5.022,63.005c0,.711-.192.861-.872.86q-33.444-.027-66.888-.015h-.729c-.012-.3.174-.42.293-.571a30.9,30.9,0,0,0,5.47-10.7,35.746,35.746,0,0,0,1.244-6.77,32.247,32.247,0,0,0-.084-5.141,31.827,31.827,0,0,0-1.849-8.275,30.451,30.451,0,0,0-7.407-11.605A31.136,31.136,0,0,0,94.5,73.766a18.188,18.188,0,0,0-4.167-.652c-1.158.008-1.155.033-1.155-1.112q.007-20.735.014-41.471a.554.554,0,0,0,0-.482c0-.913.038-1.828,0-2.739-.019-.49.154-.6.607-.593,1.517.019,3.034,0,4.551,0a1.153,1.153,0,0,0,.789-.147c.135.223.286.183.442.025,4.5.058,9-.047,13.5.1a1.944,1.944,0,0,0,.524-.051c.15-.038.316-.162.225-.326-.22-.4.017-.768.015-1.149q-.031-8.676-.02-17.35a2.384,2.384,0,0,0,0-.831c-.311-.764.048-.852.689-.851q12.173.005,24.345-.013c1.263,0,2.527.017,3.789.045.446.009.648-.15.623-.618-.024-.453,0-.909.007-1.363M127.6,15.279c.1.034.162,0,.174-.107a31.856,31.856,0,0,0,.072-4.07c.022-.424-.322-.37-.593-.37-1.133,0-2.267.015-3.4-.01-.392-.008-.515.1-.505.5a26.273,26.273,0,0,1-.024,3.407c-.072.669.164.681.65.674,1.208-.022,2.417-.018,3.626-.025m-8.954-4.545c-.01-.041-.019-.082-.029-.123l-.128.094c-1.213.008-2.427.047-3.638.011-.521-.016-.6.167-.61.638a20.927,20.927,0,0,1-.1,3.69c-.047.233.065.29.3.286q1.892-.039,3.785-.038c.343,0,.557-.127.541-.468a34.591,34.591,0,0,0-.124-4.09M166.566,64.16c.083-.739-.457-.577-.854-.577q-20.571,0-41.142.005-1.478,0-2.955-.013c-.44,0-.587.151-.58.637.018,1.2-.059,2.4-.1,3.6a.481.481,0,0,0,.743.309c1.666-.039,3.332-.115,5-.108,13.013.055,26.027-.139,39.039.111.656.013.9-.164.844-.848a15.942,15.942,0,0,1-.008-2.963c0-.053.009-.1.014-.157M121.035,90.847a.821.821,0,0,0,.58.108l35.774-.023c2.8,0,5.609-.015,8.413,0,.547,0,.768-.138.745-.727a29.335,29.335,0,0,1,.031-2.964c.041-.658-.138-.855-.826-.854q-20.767.035-41.535.017c-.909,0-1.819,0-2.728,0-.309,0-.654-.022-.507.475l-.007.051.049,0q.01.215.02.428l-.041.01.041.012q0,1.282.01,2.564l-.038.01.038.013c-.019.2-.038.392-.057.587-.105.111-.127.212.039.287m-.007-49.579a21.914,21.914,0,0,1-.008,3.187c-.1.758.086.834.733.833q20.242-.028,40.484-.023c1.187,0,2.376-.026,3.562,0,.541.013.774-.129.751-.725a29.339,29.339,0,0,1,.03-2.964c.04-.654-.133-.856-.825-.854q-20.507.034-41.013.017c-1.061,0-2.123,0-3.184-.014-.334,0-.618.012-.549.467l-.031.046ZM109.56,36.308a5.711,5.711,0,0,0-5.034,2.252,7.1,7.1,0,0,0-1.5,5.6,6.941,6.941,0,0,0,6.32,5.716,7.19,7.19,0,0,0,7.227-6.954c-.1-3.341-3.042-6.918-7.01-6.614M103.019,66.2c-.229,3.478,3.182,6.731,6.772,6.695a6.964,6.964,0,0,0,6.766-7.35c-.175-3.551-3.378-6.381-7.608-6.24-3.066.1-6.039,3.1-5.93,6.895" transform="translate(-34.873 -1.577)" fill="#e2ecf6"/>
        <path id="Trazado_823863" data-name="Trazado 823863" d="M54.322,28.954q-.007,20.735-.015,41.471c0,1.145,0,1.12,1.155,1.112a18.215,18.215,0,0,1,4.167.652,31.151,31.151,0,0,1,15.239,8.369,30.443,30.443,0,0,1,7.407,11.606,31.82,31.82,0,0,1,1.85,8.274,32.187,32.187,0,0,1,.083,5.142,35.6,35.6,0,0,1-1.244,6.769,30.9,30.9,0,0,1-5.47,10.7c-.119.152-.3.267-.294.571h.73q33.445,0,66.889.015c.679,0,.872-.15.872-.861q-.036-31.5-.023-63.005,0-24.424,0-48.848c0-1.949.029-3.9.015-5.847,0-.4-.25-.531-.7-.53-7.709.016-15.418,0-23.129,0q-6.37,0-12.74.016l-.172-.095-.014-.013-.114-.163a3.783,3.783,0,0,0,.156-1.829A4.473,4.473,0,0,0,109,.871c-.066-.631.081-.878.8-.871,4.348.038,8.7.019,13.047.019q12.4,0,24.8-.012a9.334,9.334,0,0,0,2.042.027c.529-.115.57.518.5.686-.316.789.021,1.543.02,2.307q-.026,27.664-.01,55.329,0,34.248.014,68.5c0,1.333,0,1.341-1.326,1.34l-71.525-.022c-1.492,0-2.983.032-4.475.005a1.525,1.525,0,0,0-1.026.348A29.039,29.039,0,0,1,61.844,133.8a4.474,4.474,0,0,1-2.461.37c-.251-.064-.433.36-.8.44a32.873,32.873,0,0,1-8.572.561,25.925,25.925,0,0,1-9.858-2.466c-.834-.392-1.687-.747-2.494-1.191-.45-.248-.594.082-.8.287q-3.9,3.891-7.783,7.8c-.375.376-.781.726-1.127,1.127-.3.346-.511.29-.8,0-.413-.4-.865-.769-1.3-1.15a7.428,7.428,0,0,0-1.174-1.275c-.237-.245-.27-.426,0-.694,2.756-2.721,5.487-5.466,8.256-8.172.466-.455.425-.672-.064-1.038a26.4,26.4,0,0,1-5.529-5.585c-.33-.451-.539-.287-.828,0-1.409,1.4-2.89,2.721-4.268,4.155-2.084,2.167-4.243,4.26-6.355,6.4-2.967,3.006-5.914,6.034-8.885,9.037a9.068,9.068,0,0,0-1.793,2.114,4.279,4.279,0,0,0-.248,3.527,4.608,4.608,0,0,0,7.9,1.516c2.277-2.51,4.763-4.829,7.162-7.227.8-.8.792-.78,1.585-.007.327.319.537.781,1.025.921a5.173,5.173,0,0,0,.99,1.124c.274.273.26.463-.023.745-2.8,2.771-5.552,5.583-8.371,8.329a8.391,8.391,0,0,1-7.035,2.4,9.174,9.174,0,0,1-6.766-4.494,8.418,8.418,0,0,1-1.367-5.641,8.744,8.744,0,0,1,2.221-4.89c4.385-4.847,9.168-9.3,13.734-13.969,2.39-2.444,4.836-4.835,7.222-7.283.371-.379,1.089-.569,1.056-1.166-.026-.465-.621-.956-.684-1.3-.2-1.1-.923-1.952-1.172-3.016-.315-1.353-.939-2.622-1.159-4.011a33.256,33.256,0,0,1-.616-5.333c0-.3-.035-.606-.055-.909,0-.155,0-.309,0-.463s0-.3.007-.45.007-.308.01-.462a30.14,30.14,0,0,1,2.042-10.605,35.475,35.475,0,0,1,5.459-9.1,30.72,30.72,0,0,1,11.407-8.692,26.814,26.814,0,0,1,8.787-2.354,8.855,8.855,0,0,0,.959-.158c.426-.086.516-.375.516-.781q-.02-12.9-.018-25.793,0-11.071.024-22.141a1.643,1.643,0,0,1,.537-1.24c.68-.737,1.451-1.365,2.152-2.07q9-9.052,18.015-18.083C70.97.969,71.2.235,72.033.121a5.386,5.386,0,0,1,.718-.1Q88.184.015,103.618,0c.575,0,.741.139.7.71a6.907,6.907,0,0,0,.086,1.893c0,.455-.031.91-.007,1.363s-.177.627-.623.617c-1.263-.027-2.527-.046-3.789-.045q-12.174.005-24.345.014c-.642,0-1,.086-.689.85a2.385,2.385,0,0,1,0,.831c0,5.784,0,11.567.021,17.351,0,.381-.235.754-.016,1.149.091.164-.076.288-.225.326a1.917,1.917,0,0,1-.524.05c-4.5-.147-9-.042-13.5-.1-.13-.32-.283-.225-.443-.025a1.144,1.144,0,0,1-.789.147c-1.517.006-3.034.025-4.55,0-.453-.006-.627.1-.607.593.037.912,0,1.826,0,2.739q-.507.241,0,.483m25.384,72.485a8.9,8.9,0,0,0-.164-1.108,19.634,19.634,0,0,0-1.612-6.975C73.475,82.81,65.505,77.037,54.152,75.981a24.475,24.475,0,0,0-7.341.511,27.021,27.021,0,0,0-14.06,7.8,27.372,27.372,0,0,0-5.82,9.163,24.8,24.8,0,0,0-1.594,6.752,30.116,30.116,0,0,0,.233,8.063,26.643,26.643,0,0,0,2.821,7.979,27.1,27.1,0,0,0,14.683,12.823,20.952,20.952,0,0,0,6.585,1.443,38.562,38.562,0,0,0,6.243-.038,26.575,26.575,0,0,0,11.946-4.5,25.4,25.4,0,0,0,3.364-2.712,27.393,27.393,0,0,0,8.563-21.143l.024-.046-.031-.043c-.018-.172-.037-.343-.055-.516l.031-.041ZM57.763,20.571h1.181q4.85,0,9.7,0a2.868,2.868,0,0,1,.979.037c.7.268.854-.044.851-.654q-.026-5.664-.044-11.328c0-.167.1-.391-.087-.487-.238-.124-.356.13-.484.259-3.992,4.011-7.977,8.028-12.095,12.175" transform="translate(0 0)"/>
        <path id="Trazado_823864" data-name="Trazado 823864" d="M25.644,221.935c-.488-.141-.7-.6-1.026-.921-.793-.773-.782-.8-1.585.007-2.4,2.4-4.885,4.717-7.162,7.227a4.608,4.608,0,0,1-7.9-1.515,4.277,4.277,0,0,1,.248-3.527,9.025,9.025,0,0,1,1.793-2.114c2.97-3,5.917-6.031,8.885-9.037,2.112-2.14,4.271-4.232,6.354-6.4,1.379-1.434,2.86-2.756,4.268-4.156.29-.288.5-.452.828,0a26.409,26.409,0,0,0,5.531,5.585c.488.365.529.583.064,1.037-2.77,2.706-5.5,5.451-8.256,8.172-.271.267-.238.449,0,.694a7.449,7.449,0,0,1,1.173,1.275c-.841,1.1-1.924,1.968-2.849,2.989-.18.2-.448.347-.366.684" transform="translate(-3.012 -78.683)" fill="#56748d"/>
        <path id="Trazado_823865" data-name="Trazado 823865" d="M33.684,168.254c0,.154-.007.308-.01.462-.347-.162-.347-.316.01-.462" transform="translate(-13.066 -65.793)" fill="#e2ecf6"/>
        <path id="Trazado_823866" data-name="Trazado 823866" d="M33.665,169.751c0,.155,0,.309,0,.463-.343-.151-.343-.306,0-.463" transform="translate(-13.065 -66.378)" fill="#e2ecf6"/>
        <path id="Trazado_823867" data-name="Trazado 823867" d="M141.435,64.752c-.069-.456.214-.471.549-.467,1.061.013,2.123.014,3.184.014q20.507,0,41.014-.017c.692,0,.864.2.824.854a29.533,29.533,0,0,0-.029,2.964c.023.595-.21.737-.751.724-1.187-.027-2.375,0-3.562,0q-20.242.007-40.484.023c-.646,0-.837-.076-.733-.832a21.914,21.914,0,0,0,.008-3.187l.026-.046Z" transform="translate(-55.3 -25.136)"/>
        <path id="Trazado_823868" data-name="Trazado 823868" d="M141.394,143.443l.057-.587v-.023q0-1.282-.009-2.564v-.021c-.007-.143-.013-.286-.02-.428l.012-.046-.053-.01c-.147-.5.2-.474.507-.475.91,0,1.819,0,2.729,0q20.767,0,41.535-.017c.688,0,.867.2.826.854a29.321,29.321,0,0,0-.03,2.963c.023.589-.2.73-.745.727-2.8-.019-5.609-.005-8.413,0l-35.774.023a.827.827,0,0,1-.58-.106c-.013-.1-.026-.192-.04-.289" transform="translate(-55.271 -54.461)"/>
        <path id="Trazado_823869" data-name="Trazado 823869" d="M141.327,106.043c.039-1.2.117-2.4.1-3.6-.007-.487.14-.641.579-.638q1.478.013,2.955.013,20.572,0,41.142-.005c.4,0,.937-.162.854.576-.016.015-.047.031-.046.044a.593.593,0,0,0,.032.113,15.889,15.889,0,0,0,.007,2.963c.057.684-.187.861-.844.848-13.012-.25-26.026-.056-39.039-.111-1.665-.007-3.331.07-5,.108l-.743-.309" transform="translate(-55.263 -39.805)"/>
        <path id="Trazado_823870" data-name="Trazado 823870" d="M118.406,57.017c3.969-.3,6.909,3.273,7.01,6.613a7.189,7.189,0,0,1-7.227,6.954,6.94,6.94,0,0,1-6.32-5.715,7.1,7.1,0,0,1,1.5-5.6,5.711,5.711,0,0,1,5.034-2.253m2.415,6.806a2.21,2.21,0,0,0-2.292-2.355,2.252,2.252,0,1,0,2.292,2.355" transform="translate(-43.718 -22.286)"/>
        <path id="Trazado_823871" data-name="Trazado 823871" d="M111.9,101.69c-.11-3.8,2.864-6.792,5.93-6.9,4.231-.141,7.433,2.689,7.608,6.24a6.964,6.964,0,0,1-6.766,7.35c-3.589.036-7-3.217-6.772-6.694m4.508-.114a2.159,2.159,0,0,0,2.149,2.323,2.191,2.191,0,0,0,2.354-2.312,2.131,2.131,0,0,0-2.038-2.267c-1.644-.007-2.463.743-2.465,2.256" transform="translate(-43.751 -37.066)"/>
        <path id="Trazado_823872" data-name="Trazado 823872" d="M134.663,15.017a34.589,34.589,0,0,1,.124,4.089c.016.341-.2.47-.541.469q-1.893,0-3.785.038c-.233,0-.345-.052-.3-.286a20.922,20.922,0,0,0,.1-3.69c.01-.47.089-.653.61-.638,1.211.036,2.425,0,3.637-.01l.158.028" transform="translate(-50.894 -5.861)"/>
        <path id="Trazado_823873" data-name="Trazado 823873" d="M149.508,19.572c-1.209.007-2.418,0-3.626.025-.485.009-.722,0-.65-.673a26.282,26.282,0,0,0,.024-3.408c-.009-.4.114-.51.505-.5,1.133.025,2.266.007,3.4.01.272,0,.616-.054.593.37a31.962,31.962,0,0,1-.072,4.07l-.174.107" transform="translate(-56.786 -5.871)"/>
        <path id="Trazado_823874" data-name="Trazado 823874" d="M141.327,108.771l.743.309a.481.481,0,0,1-.743-.309" transform="translate(-55.263 -42.533)" fill="#56748d"/>
        <path id="Trazado_823875" data-name="Trazado 823875" d="M89.041,47.236q-.506-.241,0-.483a.559.559,0,0,1,0,.483" transform="translate(-34.719 -18.282)" fill="#56748d"/>
        <path id="Trazado_823876" data-name="Trazado 823876" d="M98.971,40.914c.159-.2.312-.295.442.025-.157.158-.307.2-.442-.025" transform="translate(-38.701 -15.927)" fill="#56748d"/>
        <path id="Trazado_823877" data-name="Trazado 823877" d="M141.372,146.12c.013.1.027.193.04.289-.167-.076-.145-.176-.04-.289" transform="translate(-55.249 -57.138)" fill="#ee71ac"/>
        <path id="Trazado_823878" data-name="Trazado 823878" d="M216.213,102.925a.593.593,0,0,1-.032-.113c0-.013.029-.03.046-.044,0,.053-.009.105-.014.158" transform="translate(-84.534 -40.185)" fill="#56748d"/>
        <path id="Trazado_823879" data-name="Trazado 823879" d="M178.688,7.037l.114.162c-.1-.013-.148-.057-.114-.162" transform="translate(-69.869 -2.752)" fill="#56748d"/>
        <path id="Trazado_823880" data-name="Trazado 823880" d="M141.425,65.054l.045.029-.026.046-.051-.028Z" transform="translate(-55.29 -25.438)" fill="#ee71ac"/>
        <path id="Trazado_823881" data-name="Trazado 823881" d="M178.906,7.326l.172.095c-.108.061-.152,0-.172-.095" transform="translate(-69.958 -2.865)" fill="#56748d"/>
        <path id="Trazado_823882" data-name="Trazado 823882" d="M141.4,140.078l.053.01-.012.046-.049,0Z" transform="translate(-55.288 -54.775)" fill="#ee71ac"/>
        <path id="Trazado_823883" data-name="Trazado 823883" d="M141.476,140.872v.021l-.042-.012Z" transform="translate(-55.305 -55.085)" fill="#ee71ac"/>
        <path id="Trazado_823884" data-name="Trazado 823884" d="M141.494,145.119v.023l-.038-.012Z" transform="translate(-55.314 -56.746)" fill="#ee71ac"/>
        <path id="Trazado_823885" data-name="Trazado 823885" d="M152.262,22.429l.174-.107c-.012.111-.073.142-.174.107" transform="translate(-59.539 -8.729)" fill="#56748d"/>
        <path id="Trazado_823886" data-name="Trazado 823886" d="M137.459,14.956l-.158-.028.13-.095c.009.041.018.082.028.123" transform="translate(-53.689 -5.8)" fill="#56748d"/>
        <path id="Trazado_823887" data-name="Trazado 823887" d="M95.939,150.857A27.392,27.392,0,0,1,87.377,172a25.359,25.359,0,0,1-3.363,2.712,26.578,26.578,0,0,1-11.946,4.5,38.562,38.562,0,0,1-6.243.038,20.951,20.951,0,0,1-6.585-1.443,27.1,27.1,0,0,1-14.683-12.823,26.625,26.625,0,0,1-2.821-7.979,30.115,30.115,0,0,1-.233-8.063,24.8,24.8,0,0,1,1.595-6.752,27.37,27.37,0,0,1,5.819-9.163,27.023,27.023,0,0,1,14.06-7.8,24.472,24.472,0,0,1,7.341-.511c11.353,1.056,19.323,6.828,23.778,17.375a19.634,19.634,0,0,1,1.612,6.975,8.9,8.9,0,0,1,.164,1.108l-.023.041.029.04c.018.172.037.344.055.515l-.041.023Zm-49.871,1.32a22.748,22.748,0,0,0,24.255,22.444,22.629,22.629,0,1,0-24.255-22.444" transform="translate(-16.165 -48.732)" fill="#7816c2"/>
        <path id="Trazado_823888" data-name="Trazado 823888" d="M94.855,25.774c4.117-4.147,8.1-8.164,12.095-12.175.128-.129.246-.384.484-.259.186.1.086.32.087.487q.026,5.663.044,11.328c0,.61-.151.922-.851.654a2.868,2.868,0,0,0-.979-.037q-4.85,0-9.7,0H94.855" transform="translate(-37.091 -5.203)" fill="#7816c2"/>
        <path id="Trazado_823889" data-name="Trazado 823889" d="M130.878,166.656l-.029-.04.023-.041.037.04Z" transform="translate(-51.166 -65.136)" fill="#56748d"/>
        <path id="Trazado_823890" data-name="Trazado 823890" d="M130.969,167.644l-.048-.066.04-.023.031.043Z" transform="translate(-51.194 -65.519)" fill="#56748d"/>
        <path id="Trazado_823891" data-name="Trazado 823891" d="M123.785,66.692a2.195,2.195,0,0,1-2.355,2.146,2.258,2.258,0,0,1,.063-4.5,2.21,2.21,0,0,1,2.292,2.355" transform="translate(-46.683 -25.155)" fill="#c2f738"/>
        <path id="Trazado_823892" data-name="Trazado 823892" d="M119.3,104.484c0-1.513.821-2.263,2.465-2.256a2.131,2.131,0,0,1,2.038,2.267,2.191,2.191,0,0,1-2.354,2.312,2.159,2.159,0,0,1-2.149-2.323" transform="translate(-46.648 -39.974)" fill="#56748d"/>
        <path id="Trazado_823893" data-name="Trazado 823893" d="M49.1,155.256A22.543,22.543,0,1,1,73.359,177.7,22.748,22.748,0,0,1,49.1,155.256m22.93,17.9a17.955,17.955,0,0,0,12.85-5.794,18.02,18.02,0,1,0-31.177-11.13c.429,8.7,7.423,16.6,18.327,16.924" transform="translate(-19.2 -51.812)"/>
        <path id="Trazado_823894" data-name="Trazado 823894" d="M74.974,176.1c-10.9-.321-17.9-8.225-18.328-16.924A17.983,17.983,0,1,1,74.974,176.1m9.591-22.029a.9.9,0,0,0-.337-.49c-.733-.733-1.485-1.448-2.2-2.2-.417-.44-.737-.375-1.13.024-2.785,2.83-5.593,5.64-8.364,8.484-.46.473-.757.427-1.173-.005-1.018-1.057-2.073-2.077-3.089-3.135a.65.65,0,0,0-1.086-.016c-.727.739-1.438,1.5-2.2,2.2-.389.361-.3.585.023.91q3.268,3.277,6.508,6.581c.321.328.551.343.876.016q5.938-5.974,11.889-11.936c.122-.122.276-.23.279-.432" transform="translate(-22.141 -54.75)" fill="#c2f738"/>
        <path id="Trazado_823895" data-name="Trazado 823895" d="M89.773,161.168c0,.2-.157.309-.278.432q-5.945,5.968-11.889,11.936c-.325.327-.555.311-.876-.016q-3.238-3.306-6.508-6.581c-.324-.325-.412-.549-.023-.91.759-.705,1.471-1.462,2.2-2.2a.65.65,0,0,1,1.086.016c1.016,1.058,2.071,2.079,3.089,3.136.417.432.713.477,1.173,0,2.771-2.844,5.579-5.653,8.365-8.483.392-.4.713-.464,1.13-.024.713.753,1.465,1.468,2.2,2.2a.9.9,0,0,1,.336.491" transform="translate(-27.349 -61.851)"/>
      </g>
    </g>
  </g>
</svg>
