<svg xmlns="http://www.w3.org/2000/svg" xmlns:xlink="http://www.w3.org/1999/xlink" width="190" height="174" viewBox="0 0 190 174">
  <defs>
    <clipPath id="clip-path">
      <rect id="Rect치ngulo_378272" data-name="Rect치ngulo 378272" width="190" height="174" transform="translate(390 2505)" fill="none" stroke="#707070" stroke-width="1"/>
    </clipPath>
    <clipPath id="clip-path-2">
      <rect id="Rect치ngulo_377733" data-name="Rect치ngulo 377733" width="142.091" height="142.214" fill="none"/>
    </clipPath>
  </defs>
  <g id="Enmascarar_grupo_413" data-name="Enmascarar grupo 413" transform="translate(-390 -2505)" clip-path="url(#clip-path)">
    <g id="Grupo_1074004" data-name="Grupo 1074004" transform="translate(419.301 2520.893)">
      <g id="Grupo_1073509" data-name="Grupo 1073509" clip-path="url(#clip-path-2)">
        <path id="Trazado_821934" data-name="Trazado 821934" d="M116.642,22.962q0,16.017-.01,32.035c0,.716,0,1.435-.071,2.146a.592.592,0,0,0,.213.6c.209.1.37-.178.469-.35.927-1.607,1.885-3.2,2.736-4.847a8.706,8.706,0,0,1,1.443-1.969,1.849,1.849,0,0,1,1.84-.329c.468.112.916.3,1.374.438.4.124.5.063.694-.271a20.524,20.524,0,0,1,1.789-2.835A4.664,4.664,0,0,1,132.89,46.4a19.639,19.639,0,0,1,2.776,1.62,4.748,4.748,0,0,1,1.556,5.817,25.918,25.918,0,0,1-1.332,2.447c-.463.81-.475.807.354,1.294s1.649.956,2.471,1.438a6.652,6.652,0,0,1,2.645,8.831c-1.427,2.478-2.844,4.964-4.27,7.443q-3.388,5.888-6.782,11.772a2.5,2.5,0,0,1-2.43,1.526A2.231,2.231,0,0,1,126,85.777,37.392,37.392,0,0,1,128.4,81.47q4.321-7.537,8.685-15.047a2.516,2.516,0,0,0,.1-2.8c-.346-.563-.563-.572-.906.007q-1.476,2.492-2.926,5-4.985,8.64-9.955,17.288a2.407,2.407,0,0,1-2.383,1.389.634.634,0,0,0-.683.367q-1.662,2.962-3.371,5.9a3.06,3.06,0,0,0-.4,1.636c.134,13.622.058,27.244.06,40.866a6.5,6.5,0,0,1-1.1,3.979,4.862,4.862,0,0,1-3.1,2.023,13.391,13.391,0,0,1-2.482.136q-49.193,0-98.386.009a5.435,5.435,0,0,1-4.537-1.963,4.478,4.478,0,0,1-1.105-2.756c-.038-8.5-.03-17.007-.03-25.511q0-32.859,0-65.718a3.164,3.164,0,0,1,.007-.572c.121-.639-.184-.941-.755-1.164A16.04,16.04,0,0,1,2.3,43.18,5.221,5.221,0,0,1,.283,40.545c-.651-1.66-.068-3.118.634-4.6.932-1.965,1.783-3.967,2.671-5.952.568-1.271,1.128-2.547,1.714-3.81A5.517,5.517,0,0,0,5.887,23.8C5.877,17.4,5.871,11,5.914,4.6A4.7,4.7,0,0,1,7.756,1.16,6.261,6.261,0,0,1,10.035.113a4.4,4.4,0,0,1,1.472-.1Q53.318,0,95.131.031A5.449,5.449,0,0,1,99.32,1.515c.55.563,1.225,1.075,1.8,1.653,4.089,4.086,8.158,8.193,12.28,12.246.731.718,1.343,1.529,2.071,2.242a5,5,0,0,1,1.078,2.972,13.893,13.893,0,0,1,.086,1.862c-.287.159-.292.317,0,.472M111.823,102.5l-.3.578c-.147.216-.307.424-.439.649-1.581,2.695-3.168,5.386-4.732,8.09-.935,1.615-1.787,3.28-2.766,4.868-.765,1.24-1.39,2.49-2.96,3.19-2.455,1.095-4.777,2.511-7.211,3.682a2.466,2.466,0,0,0-1.268,1.241,11.094,11.094,0,0,1-.856,1.461,2.164,2.164,0,0,1-2.788.93,34.634,34.634,0,0,0-6.349-1.641,8.953,8.953,0,0,0-5.954,1.065c-1.03.593-2.024,1.247-3.041,1.862a12.983,12.983,0,0,1-3.439,1.446A11.8,11.8,0,0,1,65.6,130a10,10,0,0,1-3.06-.64A23.929,23.929,0,0,1,58,126.931c-.2-.142-.506-.163-.653-.335a4.348,4.348,0,0,0-2.234-1.145,12.633,12.633,0,0,0-5.687-.278,41.426,41.426,0,0,0-6.887,1.786,5.627,5.627,0,0,1-2.038.464,2.632,2.632,0,0,1-1.942-1.977,2.329,2.329,0,0,1,1.117-2.162,5.743,5.743,0,0,1,.983-.417,49.38,49.38,0,0,1,5.208-1.525,24.846,24.846,0,0,1,7.765-.812,12.949,12.949,0,0,1,5.546,1.863,20.6,20.6,0,0,0,5.789,2.809,7.267,7.267,0,0,0,6.044-.765A30.189,30.189,0,0,1,75,122.154a14.137,14.137,0,0,1,9.311-.937c1.274.284,2.523.628,3.761,1.03.294.1.473-.033.629-.351.223-.454.028-.862.017-1.287-.035-1.377-.012-2.762-.165-4.127-.1-.949-.008-1.9-.156-2.836a5.21,5.21,0,0,1,.508-3.636c1.584-2.682,3.131-5.386,4.69-8.083q6.347-10.991,12.7-21.981a1.12,1.12,0,0,0,.048-1.291,2.115,2.115,0,0,1,.055-2.421c1.757-2.948,3.452-5.933,5.167-8.906a1.934,1.934,0,0,0,.391-.978c0-1.018.066-2.037.066-3.055q.009-18.525.005-37.049c0-1.05,0-2.1-.007-3.151,0-.1,0-.2.006-.3.041-1,.041-1-.9-1-4.131,0-8.262.015-12.394-.006a3.808,3.808,0,0,1-3.861-3.559c-.054-.728-.043-1.439-.035-2.164.035-3.51.013-7.021.013-10.531,0-.94,0-.941-.912-.941H16.917c-.286,0-.573.013-.859.021-1.623-.007-3.248.011-4.869-.035-.583-.017-.746.192-.742.735.02,1.982.031,3.965,0,5.946a13.245,13.245,0,0,0-.051,2.846.956.956,0,0,0,.512-.568c.536-1.274,1.142-2.519,1.637-3.807a5.819,5.819,0,0,1,3.808-3.839,8.21,8.21,0,0,1,2.064.051,36.594,36.594,0,0,1,7.153,3.06,4.639,4.639,0,0,1,2.362,4.1,5.323,5.323,0,0,1-.822,2.96c-.278.484-.175.7.328.9a18.583,18.583,0,0,1,2.155.95,5.475,5.475,0,0,0,3.272.729c.949-.108,1.878-.311,2.809-.506a27.9,27.9,0,0,1,5.62-.918,14.325,14.325,0,0,1,6.538,1.491,1.16,1.16,0,0,0,1.316-.043,9.825,9.825,0,0,1,2.015-.946,13.7,13.7,0,0,1,8.354-.648A30.633,30.633,0,0,1,65.1,18.995c2.022.954,3.984,1.189,5.939-.079.437-.284,1.222-.208,1.294-.788.059-.476-.3-1.005-.477-1.511a5,5,0,0,1-.272-2.7,5.444,5.444,0,0,1,3.638-4.007C76.883,9.241,78.579,8.668,80.24,8a4.493,4.493,0,0,1,2.631-.162,5.258,5.258,0,0,1,4.012,3.561c3.5,9.094,7.05,18.169,10.558,27.261a6.254,6.254,0,0,1,.612,3.883,4.553,4.553,0,0,1-2.035,2.948,41.782,41.782,0,0,1-6.676,2.807,4.854,4.854,0,0,1-5.364-1.346,3.93,3.93,0,0,1-.8-1.254c-.272-.681-.658-.8-1.29-.5a17.517,17.517,0,0,1-1.865.768.759.759,0,0,0-.61.835,6,6,0,0,1-3.047,5.452,2.036,2.036,0,0,0-1.136,2.182,6.3,6.3,0,0,1-5.541,6.3c-.819.123-1.062.38-1.17,1.082a5.852,5.852,0,0,1-2.475,3.789,6.1,6.1,0,0,1-3.96,1.341c-.255-.012-.423.005-.477.353a5.96,5.96,0,0,1-1.883,3.514c-1.954,1.844-4.808,2.74-7.451,1.235-.861-.491-1.546-.808-2.249.174-.143.2-.482.248-.712.4a5.7,5.7,0,0,1-5.9.506,5.6,5.6,0,0,1-2.475-1.858c-.624-.977-1.288-1.5-2.439-.888a.759.759,0,0,1-.354.008,6.876,6.876,0,0,1-5.333-2.7.8.8,0,0,0-1.064-.358,5.8,5.8,0,0,1-4.859-.389,6.544,6.544,0,0,1-3.661-5.772c-.01-.372-.166-.493-.51-.532a5.459,5.459,0,0,1-2.673-1.074,6.6,6.6,0,0,1-2.506-7.543,19.414,19.414,0,0,1,1.445-2.87,1.537,1.537,0,0,0,.144-1.362,10.264,10.264,0,0,1-.494-2.177,2.322,2.322,0,0,0-1.832-2.275c-.249-.054-.491-.132-.737-.2-.475-.389-.761-.407-1.078.261a5.1,5.1,0,0,1-4,3.023c-.531.079-.6.246-.594.694q.043,3.976.044,7.951.022,40.87.032,81.742c0,.582.227.839.8.809a14.028,14.028,0,0,1,1.894-.086c.975.09,1.938.04,2.905.063.286.007.572.022.859.022h93.328c1.755,0,1.769,0,1.772-1.8.009-4.513,0-9.026,0-13.539q.007-9.6.022-19.2a.986.986,0,0,0-.016-.584c.024-.093-.038-.125-.109-.131-.094-.007-.109.056-.1.133M56.9,67.086a1.964,1.964,0,0,0-.544-2.471,10.365,10.365,0,0,0-.951-.62c-.238-.146-.4-.141-.525.182-.227.595-.513,1.168-.774,1.751-.186.357-.364.719-.563,1.068-.118.208-.16.37.035.567a2.006,2.006,0,0,0,3.323-.477M60.2,42.6a4.745,4.745,0,0,1,2.351.681,35.83,35.83,0,0,1,3.981,2.064c1.884,1.092,3.8,2.126,5.69,3.208a1.629,1.629,0,0,0,2.043-.5c.433-.147.5-.523.563-.9A2.042,2.042,0,0,0,73.6,44.844c-1.267-.681-2.492-1.443-3.745-2.15-3.629-2.047-7.169-4.256-10.924-6.076a4.444,4.444,0,0,0-2.183-.449,21.343,21.343,0,0,0-5.661,1.518c-1.54.538-3.042,1.189-4.589,1.7-2.871.948-5.777,1.374-8.727.306a12.592,12.592,0,0,1-5.818-4.459c-1.2-1.59-.691-2.9.625-4.009a14.342,14.342,0,0,1,1.6-1.083,52.847,52.847,0,0,0,6.683-4.895c1.085-.859,2.01-1.89,3.034-2.815.2-.177.209-.291-.1-.362a9.593,9.593,0,0,0-3.916-.121c-1.717.318-3.413.742-5.133,1.043a10.173,10.173,0,0,1-6.468-.735c-.873-.434-1.779-.8-2.658-1.22-.407-.2-.636-.139-.837.292-.334.713-.549,1.466-.821,2.2-.71,1.39-1.27,2.847-1.911,4.266-1.538,3.4-2.926,6.875-4.638,10.2-.333.647-.054.853.427,1a12.533,12.533,0,0,1,2.35,1.022,4.591,4.591,0,0,1,2.274,2.742c.205.682.391.744,1.008.436,3.468-1.731,7.738-.281,9.04,3.134A1.753,1.753,0,0,0,34.213,47.6,6.113,6.113,0,0,1,39.34,51.1a.844.844,0,0,0,1.06.5,4.98,4.98,0,0,1,1.869.055,6.309,6.309,0,0,1,4.664,3.517.618.618,0,0,0,.72.41,7.631,7.631,0,0,1,2.21.08,7.085,7.085,0,0,1,2.688,1.209c2.768,2.1,5.936,3.524,8.913,5.27a1.641,1.641,0,0,0,2.314-.647,2.107,2.107,0,0,0-.694-2.952c-.561-.314-1.123-.624-1.682-.939-3.124-1.762-6.26-3.5-9.354-5.315a1.9,1.9,0,0,1-.887-1.434,2.326,2.326,0,0,1,1.571-2.54A3.686,3.686,0,0,1,54.8,48.7c1.774,1.092,3.669,1.971,5.483,3,2.405,1.362,4.8,2.743,7.239,4.058a2.359,2.359,0,0,0,2.577.053c.522-.3.369-.436.174-.743.686-.356.444-1.911-.312-2.416-1.542-1.031-3.212-1.839-4.805-2.78-1.619-.956-3.3-1.81-4.937-2.727a3.373,3.373,0,0,1-1.549-1.464c-.563-1.23.047-2.425,1.533-3.08m17.43-.481c.186.049.356-.106.552-.189a21.736,21.736,0,0,1,2.233-.921c.644-.193.761-.465.522-1.065q-1.233-3.1-2.408-6.215c-.7-1.861-1.409-3.725-2.125-5.578-.646-1.672-1.3-3.351-1.982-5.015-.224-.549-.481-.567-.907-.379a5.43,5.43,0,0,0-.629.339,8.373,8.373,0,0,1-7.089.88c-2.049-.633-4.021-1.485-6.08-2.093a10.142,10.142,0,0,0-6.45-.048,17.707,17.707,0,0,0-6.092,3.809A62.387,62.387,0,0,1,37.4,33.673c-.284.174-.377.356-.074.6a6.1,6.1,0,0,0,3.005,1.39,11.237,11.237,0,0,0,5.189-.75c3.2-1.124,6.271-2.649,9.672-3.16a9.378,9.378,0,0,1,5.288.515,81.086,81.086,0,0,1,7.172,3.868c1.749.987,3.475,2.015,5.225,3A35.717,35.717,0,0,1,77.187,42a.6.6,0,0,0,.444.123m15.546,74.508h-.014q0,.609,0,1.217c0,.519.183.715.7.437a17.151,17.151,0,0,1,1.981-.99,8.2,8.2,0,0,0,4.854-4.537,8.213,8.213,0,0,1,.518-1.014c1.431-2.341,2.694-4.778,4.142-7.111,1.6-2.572,3.049-5.231,4.568-7.85q3.211-5.537,6.432-11.068c.288-.493.277-.78-.289-1.088-1.633-.889-3.247-1.815-4.827-2.794-.552-.342-.767-.279-1.07.279-2.954,5.442-6.092,10.779-9.195,16.136-1.124,1.939-2.237,3.884-3.357,5.826-1.406,2.436-2.805,4.878-4.23,7.3A2.589,2.589,0,0,0,93,112.93c.084,1.231.123,2.466.179,3.7m27.15-34.695c.31-.064.414-.342.544-.587,2.007-3.769,4.224-7.417,6.337-11.124,1.712-3,3.464-5.983,5.2-8.97.194-.333.254-.566-.163-.807-2.747-1.584-5.48-3.191-8.217-4.791-.336-.2-.557-.117-.752.226q-2.048,3.609-4.117,7.2-3.7,6.412-7.422,12.813c-.477.82-.511.813.308,1.286q3.933,2.27,7.873,4.528c.124.071.25.137.4.221M93.582,41.379c.085-.281-.081-.535-.183-.8q-4.117-10.628-8.242-21.254c-.854-2.2-1.728-4.388-2.58-6.587-.178-.459-.393-.622-.911-.427-1.772.668-3.468,1.527-5.292,2.066-.27.079-.528.275-.364.648.589,1.34.979,2.757,1.514,4.109.738,1.87,1.494,3.735,2.237,5.605q1.266,3.189,2.48,6.4c.763,2.005,1.59,3.987,2.376,5.984.813,2.066,1.609,4.139,2.421,6.205.3.752.5.862,1.227.542,1.584-.7,3.222-1.251,4.858-1.808.363-.124.524-.286.459-.683M23.326,13.443c.086-.438-.042-.617-.328-.739q-2.591-1.114-5.17-2.251c-.394-.174-.609-.155-.815.3-1.624,3.61-3.243,7.222-4.828,10.849q-.673,1.539-1.353,3.074-3.036,6.9-6.08,13.791c-.261.587-.169.892.451,1.139,1.481.588,2.946,1.221,4.367,1.95,1.056.541,1.135.5,1.619-.6q5.962-13.491,11.919-26.986c.1-.217.178-.44.218-.536M35.545,53.884a1.894,1.894,0,0,0-1.235-1.675,1.819,1.819,0,0,0-2.283.755c-.128.229-.251.46-.38.689q-1.777,3.143-3.552,6.286a1.905,1.905,0,0,0-.218,1.58,2.065,2.065,0,0,0,1.8,1.527,1.807,1.807,0,0,0,2-1.071c1.178-2.5,2.487-4.935,3.742-7.4a1.484,1.484,0,0,0,.128-.693m73.3-36.689c-.478-.474-.8-.789-1.116-1.107q-3.77-3.772-7.544-7.539c-.192-.191-.383-.564-.673-.429s-.119.519-.11.784c.08,2.481.059,4.962,0,7.443-.015.621.12.888.825.866,1.812-.054,3.626-.018,5.439-.018h3.178M37.87,65.794a2.06,2.06,0,0,0,2.079-1.2c.908-1.942,1.855-3.864,2.9-5.74a1.763,1.763,0,0,0-.7-2.5c-.72-.37-2.239-.377-2.753.589-1.072,2.02-2.137,4.044-3.131,6.1a1.843,1.843,0,0,0,1.6,2.754M28.52,49.041a1.7,1.7,0,0,0-.427-1.334,2.011,2.011,0,0,0-3.288.311,15.3,15.3,0,0,0-.943,1.68c-.647,1.3-1.453,2.519-1.977,3.875A1.886,1.886,0,0,0,22.953,56a1.713,1.713,0,0,0,2.458-.811c.817-1.718,1.792-3.354,2.765-4.989a1.938,1.938,0,0,0,.343-1.157M48.688,60.212c-1.1,0-1.289.113-1.8,1.07-.96,1.81-1.91,3.625-2.89,5.424a.959.959,0,0,0-.129.672c.169.807,1.149,1.87,1.82,1.82a2.343,2.343,0,0,0,2.161-1.241c.713-1.454,1.487-2.878,2.228-4.319a9.3,9.3,0,0,0,.4-.914c.465-1.216-.5-2.812-1.8-2.511m82.205-9.667c-.24-.025-.305.113-.376.234-.4.7-.8,1.408-1.208,2.108a.38.38,0,0,0,.131.6c.549.334,1.1.67,1.641,1.012.3.19.517.162.691-.179.349-.678.716-1.346,1.084-2.013.1-.174.216-.354.044-.518a9.649,9.649,0,0,0-2.009-1.244" transform="translate(0 0)" fill="#242222"/>
        <path id="Trazado_821935" data-name="Trazado 821935" d="M202.59,39.565c-.3-.155-.292-.312,0-.472a.6.6,0,0,1,0,.472" transform="translate(-85.948 -16.603)" fill="#d5b3a7"/>
        <path id="Trazado_821936" data-name="Trazado 821936" d="M123.853,26.487c0,1.05.007,2.1.007,3.151q0,18.524,0,37.049c0,1.018-.062,2.037-.066,3.055a1.934,1.934,0,0,1-.391.978c-1.714,2.973-3.41,5.958-5.167,8.906a2.115,2.115,0,0,0-.055,2.421,1.12,1.12,0,0,1-.047,1.291q-6.358,10.985-12.7,21.981c-1.558,2.7-3.1,5.4-4.689,8.083a5.21,5.21,0,0,0-.508,3.636c.147.936.051,1.888.156,2.836.152,1.365.129,2.75.164,4.127.011.425.206.834-.017,1.287-.156.318-.335.446-.629.351-1.238-.4-2.487-.746-3.761-1.03a14.137,14.137,0,0,0-9.311.937,30.153,30.153,0,0,0-3.985,2.283,7.267,7.267,0,0,1-6.044.765,20.59,20.59,0,0,1-5.789-2.809,12.952,12.952,0,0,0-5.545-1.863,24.848,24.848,0,0,0-7.765.812,49.338,49.338,0,0,0-5.208,1.525,5.748,5.748,0,0,0-.984.417,2.331,2.331,0,0,0-1.117,2.162,2.633,2.633,0,0,0,1.942,1.977,5.628,5.628,0,0,0,2.038-.464,41.434,41.434,0,0,1,6.887-1.786,12.632,12.632,0,0,1,5.687.278,4.341,4.341,0,0,1,2.234,1.145c.147.171.456.193.654.335a23.947,23.947,0,0,0,4.533,2.427,10.019,10.019,0,0,0,3.06.64,11.8,11.8,0,0,0,4.127-.078A12.963,12.963,0,0,0,85,131.865c1.017-.615,2.012-1.269,3.042-1.862A8.954,8.954,0,0,1,94,128.939a34.629,34.629,0,0,1,6.348,1.641,2.164,2.164,0,0,0,2.788-.93,11.094,11.094,0,0,0,.856-1.461,2.464,2.464,0,0,1,1.268-1.241c2.434-1.172,4.756-2.588,7.211-3.682,1.57-.7,2.2-1.95,2.961-3.19.979-1.587,1.831-3.252,2.765-4.868,1.565-2.7,3.151-5.4,4.732-8.09.132-.225.292-.433.439-.649l.519,0q-.011,9.6-.022,19.2c0,4.513,0,9.026,0,13.539,0,1.8-.018,1.8-1.772,1.8H28.755c-.286,0-.572-.014-.858-.022q0-47.229,0-94.457c.245.067.488.144.736.2a2.322,2.322,0,0,1,1.833,2.275,10.272,10.272,0,0,0,.494,2.177,1.537,1.537,0,0,1-.144,1.362,19.414,19.414,0,0,0-1.445,2.87,6.6,6.6,0,0,0,2.507,7.543,5.453,5.453,0,0,0,2.672,1.074c.343.039.5.16.509.532a6.546,6.546,0,0,0,3.661,5.772,5.8,5.8,0,0,0,4.859.389.8.8,0,0,1,1.064.358,6.875,6.875,0,0,0,5.332,2.7.762.762,0,0,0,.355-.008c1.152-.614,1.816-.09,2.439.888a5.592,5.592,0,0,0,2.476,1.858,5.7,5.7,0,0,0,5.9-.506c.23-.148.569-.2.711-.4.7-.982,1.389-.664,2.25-.174,2.643,1.5,5.5.609,7.451-1.235a5.964,5.964,0,0,0,1.884-3.514c.054-.347.221-.365.476-.353A6.1,6.1,0,0,0,77.88,69a5.852,5.852,0,0,0,2.475-3.789c.108-.7.351-.96,1.169-1.082a6.3,6.3,0,0,0,5.541-6.3A2.037,2.037,0,0,1,88.2,55.644a6,6,0,0,0,3.047-5.452.759.759,0,0,1,.61-.835,17.516,17.516,0,0,0,1.865-.768c.632-.3,1.018-.184,1.29.5a3.919,3.919,0,0,0,.8,1.254,4.854,4.854,0,0,0,5.364,1.346,41.782,41.782,0,0,0,6.676-2.807,4.553,4.553,0,0,0,2.035-2.948,6.254,6.254,0,0,0-.612-3.883c-3.508-9.091-7.057-18.167-10.558-27.261a5.257,5.257,0,0,0-4.012-3.561,4.493,4.493,0,0,0-2.631.162c-1.661.673-3.357,1.245-5.019,1.909a5.442,5.442,0,0,0-3.638,4.007,4.991,4.991,0,0,0,.271,2.7c.175.506.536,1.034.476,1.511-.072.58-.857.5-1.294.788-1.954,1.268-3.916,1.033-5.938.079A30.688,30.688,0,0,0,71.36,20.46,13.71,13.71,0,0,0,63,21.108a9.825,9.825,0,0,0-2.015.946,1.159,1.159,0,0,1-1.315.043,14.333,14.333,0,0,0-6.538-1.491,27.887,27.887,0,0,0-5.619.918c-.932.194-1.861.4-2.81.506a5.475,5.475,0,0,1-3.272-.729,18.54,18.54,0,0,0-2.155-.95c-.5-.192-.606-.412-.329-.9a5.309,5.309,0,0,0,.822-2.96,4.638,4.638,0,0,0-2.361-4.1,36.569,36.569,0,0,0-7.154-3.06,8.2,8.2,0,0,0-2.064-.051c-.529-.326-.222-.846-.3-1.277.286-.007.572-.021.858-.021h77.012c.916,0,.912,0,.912.941,0,3.51.022,7.021-.013,10.531-.007.725-.018,1.437.035,2.164a3.808,3.808,0,0,0,3.861,3.559c4.131.021,8.262.006,12.394.006.944,0,.944,0,.9,1-.108-.006-.192.036-.2.15s.08.158.189.152m-31.607,88.9.075.158.066-.169a2.144,2.144,0,0,0,.946-.232,2.344,2.344,0,0,0,1.348-2.65,2.059,2.059,0,0,0-1.748-1.571,11.454,11.454,0,0,0-1.492-.1q-28.018-.022-56.036-.029a8.3,8.3,0,0,0-1.35.116,2.225,2.225,0,0,0-.524,4.253c.865.5,1.773.225,2.68.224q28.018-.019,56.036,0M71.07,84.518v.015q18.338,0,36.677-.005a3.055,3.055,0,0,0,1.3-.308,2.219,2.219,0,0,0,1.241-2.213,2.163,2.163,0,0,0-1.866-1.932,17,17,0,0,0-3.2-.111q-35.21-.018-70.419-.007a2.914,2.914,0,0,0-1.741.382,2.333,2.333,0,0,0,.6,4.019,8.627,8.627,0,0,0,3.1.155q17.157.014,34.314.006M68.444,99.965v.006H81.7q9.1,0,18.2-.007a6.159,6.159,0,0,0,1.706-.131c1.193-.353,1.832-.934,1.693-2.627a2.12,2.12,0,0,0-2.12-1.766c-1.881-.06-3.764-.075-5.646-.076q-29.229-.007-58.457,0a19.876,19.876,0,0,0-2.932.074,2.014,2.014,0,0,0-1.294.438,2.431,2.431,0,0,0,1.794,4.14c.666-.017,1.332-.048,2-.048q15.9,0,31.808,0m34.4-35.473v0c-2.651,0-5.3,0-7.953,0a5.931,5.931,0,0,0-1.421.144,2.3,2.3,0,0,0-1.646,2.566,2.458,2.458,0,0,0,2.088,1.851q8.884.016,17.769,0a2.243,2.243,0,0,0,1.3-4.108,3.783,3.783,0,0,0-1.968-.442q-4.084-.006-8.169,0" transform="translate(-11.839 -3.392)" fill="#ebeef1"/>
        <path id="Trazado_821937" data-name="Trazado 821937" d="M53.592,42.619a52.807,52.807,0,0,1-6.683,4.894,14.338,14.338,0,0,0-1.6,1.083c-1.317,1.11-1.823,2.419-.625,4.009a12.6,12.6,0,0,0,5.819,4.459,12.973,12.973,0,0,0,8.727-.307c1.548-.511,3.049-1.162,4.589-1.7a21.319,21.319,0,0,1,5.661-1.518,4.451,4.451,0,0,1,2.183.448c3.755,1.82,7.295,4.029,10.924,6.076,1.254.708,2.478,1.469,3.745,2.15a2.041,2.041,0,0,1,1.233,2.312c-.063.379-.129.755-.563.9a2.033,2.033,0,0,0-.612-.679c-1.851-1.025-3.723-2.017-5.526-3.122-.522-.319-1.061-.616-1.6-.887a35.815,35.815,0,0,0-4.1-2.253,1.511,1.511,0,0,0-2.233,1.484c-1.486.655-2.1,1.85-1.533,3.08a3.377,3.377,0,0,0,1.548,1.464c1.641.917,3.319,1.772,4.938,2.727,1.594.941,3.264,1.749,4.805,2.78.756.506,1,2.06.312,2.416-.426-.218-.947-.129-1.353-.407-1.078-.739-2.241-1.328-3.375-1.969-3.32-1.878-6.61-3.809-9.921-5.7-1.462-.835-2.83-.192-2.889,1.321a2.326,2.326,0,0,0-1.571,2.54,1.9,1.9,0,0,0,.887,1.434c3.093,1.814,6.23,3.553,9.354,5.315.559.315,1.121.625,1.682.939a2.106,2.106,0,0,1,.694,2.952c-.247-.335-.678-.295-1-.494q-1.693-1.052-3.416-2.055c-1.557-.907-3.135-1.778-4.7-2.667a11.6,11.6,0,0,0-2.768-1.434,1.674,1.674,0,0,0-2.033.817,7.652,7.652,0,0,0-2.21-.08.617.617,0,0,1-.72-.41,6.31,6.31,0,0,0-4.664-3.517,4.971,4.971,0,0,0-1.869-.055.845.845,0,0,1-1.06-.5,6.113,6.113,0,0,0-5.126-3.493A1.753,1.753,0,0,1,45.24,63.7c-1.3-3.416-5.572-4.866-9.04-3.134-.617.308-.8.246-1.007-.436a4.6,4.6,0,0,0-2.274-2.743,12.625,12.625,0,0,0-2.35-1.022c-.482-.147-.761-.353-.427-1,1.711-3.322,3.1-6.794,4.637-10.2.641-1.419,1.2-2.876,1.911-4.266.518.2.949.556,1.488.75a18.571,18.571,0,0,0,6.933,1.381c1.21-.04,2.385-.344,3.581-.487,1.34-.161,2.629-.6,3.986-.666.561-.026.857.189.914.742" transform="translate(-12.74 -17.37)" fill="#ffcdaf"/>
        <path id="Trazado_821938" data-name="Trazado 821938" d="M23.722,74.788v94.457c-.968-.023-1.931.028-2.906-.063a14.031,14.031,0,0,0-1.894.086c-.574.03-.8-.226-.8-.809q-.007-40.871-.032-81.742,0-3.976-.044-7.951c0-.448.063-.614.594-.694a5.105,5.105,0,0,0,4-3.023c.316-.667.6-.65,1.078-.261" transform="translate(-7.665 -31.648)" fill="#d1d1d6"/>
        <path id="Trazado_821939" data-name="Trazado 821939" d="M105.048,57.867a.6.6,0,0,1-.444-.123,35.781,35.781,0,0,0-4.312-2.863c-1.75-.985-3.476-2.012-5.225-3A81.175,81.175,0,0,0,87.9,48.014a9.385,9.385,0,0,0-5.288-.514c-3.4.511-6.471,2.035-9.671,3.16a11.24,11.24,0,0,1-5.19.749,6.092,6.092,0,0,1-3.005-1.39c-.3-.242-.21-.425.074-.6a62.387,62.387,0,0,0,9.777-8.029,17.7,17.7,0,0,1,6.092-3.808,10.139,10.139,0,0,1,6.45.048c2.059.608,4.03,1.46,6.08,2.093a8.371,8.371,0,0,0,7.089-.88,5.612,5.612,0,0,1,.629-.339c.426-.188.683-.17.907.38.678,1.664,1.336,3.343,1.982,5.015.716,1.852,1.42,3.717,2.125,5.577q1.18,3.117,2.408,6.215c.239.6.122.872-.522,1.065a21.647,21.647,0,0,0-2.233.92c-.2.083-.366.239-.552.189" transform="translate(-27.417 -15.747)" fill="#ffcdaf"/>
        <path id="Trazado_821940" data-name="Trazado 821940" d="M161.828,176.886c-.057-1.233-.1-2.467-.179-3.7a2.589,2.589,0,0,1,.393-1.554c1.426-2.425,2.825-4.866,4.231-7.3,1.12-1.942,2.234-3.887,3.357-5.826,3.1-5.357,6.241-10.694,9.195-16.136.3-.558.518-.621,1.07-.279,1.58.979,3.195,1.9,4.827,2.794.566.308.576.6.289,1.088q-3.227,5.527-6.432,11.068c-1.519,2.619-2.972,5.278-4.568,7.85-1.449,2.333-2.711,4.77-4.142,7.111a8.206,8.206,0,0,0-.518,1.014,8.2,8.2,0,0,1-4.854,4.537,17.113,17.113,0,0,0-1.982.99c-.517.278-.7.082-.7-.436q0-.609,0-1.218h.014" transform="translate(-68.651 -60.257)" fill="#fec237"/>
        <path id="Trazado_821941" data-name="Trazado 821941" d="M202.569,122.945c-.155-.084-.281-.15-.4-.221q-3.938-2.264-7.873-4.529c-.82-.473-.786-.466-.308-1.286q3.725-6.4,7.422-12.813,2.073-3.593,4.117-7.2c.194-.343.416-.422.752-.226,2.737,1.6,5.47,3.207,8.218,4.79.417.241.357.473.163.807-1.74,2.987-3.492,5.967-5.2,8.97-2.114,3.708-4.331,7.356-6.337,11.124-.131.245-.235.522-.544.587" transform="translate(-82.243 -41.01)" fill="#fec237"/>
        <path id="Trazado_821942" data-name="Trazado 821942" d="M149.659,50.41c.065.4-.1.56-.458.683-1.636.556-3.274,1.109-4.858,1.808-.724.32-.931.211-1.227-.542-.812-2.066-1.607-4.14-2.421-6.206-.786-2-1.613-3.978-2.376-5.984q-1.219-3.207-2.481-6.4c-.743-1.87-1.5-3.735-2.237-5.605-.534-1.352-.924-2.769-1.514-4.11-.164-.373.093-.568.363-.648,1.824-.538,3.52-1.4,5.292-2.065.518-.2.734-.032.911.427.852,2.2,1.726,4.388,2.58,6.587q4.127,10.624,8.242,21.253c.1.263.268.518.183.8m-11.6-24.918c.191-1-.548-1.718-1.638-1.8a1.767,1.767,0,0,0-1.8,1.731,1.788,1.788,0,0,0,1.734,1.817,1.6,1.6,0,0,0,1.707-1.745" transform="translate(-56.077 -9.031)" fill="#d1d1d6"/>
        <path id="Trazado_821943" data-name="Trazado 821943" d="M26.733,21.085c-.039.1-.121.319-.217.536Q20.558,35.115,14.6,48.607c-.483,1.094-.562,1.137-1.618.6-1.422-.728-2.886-1.361-4.367-1.95-.62-.246-.712-.551-.451-1.139q3.058-6.887,6.08-13.791.677-1.536,1.351-3.073c1.585-3.628,3.2-7.24,4.828-10.85.207-.46.422-.479.815-.3q2.579,1.138,5.171,2.251c.286.123.414.3.327.739m-4.2-.534a1.861,1.861,0,0,0-1.924,1.693,1.972,1.972,0,0,0,1.816,1.774,1.722,1.722,0,0,0,1.788-1.781c-.093-1.076-.612-1.684-1.679-1.687" transform="translate(-3.408 -7.642)" fill="#d1d1d6"/>
        <path id="Trazado_821944" data-name="Trazado 821944" d="M58.533,40.7c-.057-.552-.352-.767-.914-.742-1.357.063-2.646.505-3.986.666-1.2.143-2.371.446-3.581.487a18.571,18.571,0,0,1-6.933-1.381c-.539-.194-.971-.546-1.488-.75.272-.733.487-1.486.82-2.2.2-.431.431-.487.838-.292.878.422,1.786.786,2.658,1.22a10.174,10.174,0,0,0,6.469.735c1.719-.3,3.416-.725,5.133-1.044a9.594,9.594,0,0,1,3.916.122c.312.071.3.185.1.362-1.023.925-1.949,1.957-3.034,2.815" transform="translate(-17.681 -15.452)" fill="#d5b3a7"/>
        <path id="Trazado_821945" data-name="Trazado 821945" d="M56.061,92.343a1.468,1.468,0,0,1-.127.693c-1.255,2.462-2.564,4.9-3.742,7.4a1.808,1.808,0,0,1-2,1.071,2.065,2.065,0,0,1-1.8-1.527,1.907,1.907,0,0,1,.217-1.58q1.773-3.145,3.553-6.286c.129-.228.253-.46.38-.689a1.82,1.82,0,0,1,2.283-.755,1.891,1.891,0,0,1,1.234,1.675" transform="translate(-20.516 -38.46)" fill="#ffcdaf"/>
        <path id="Trazado_821946" data-name="Trazado 821946" d="M182.183,23.168H179c-1.813,0-3.628-.036-5.439.018-.705.021-.84-.245-.825-.866.059-2.481.079-4.962,0-7.443-.008-.265-.165-.655.11-.784s.482.238.673.429q3.78,3.762,7.544,7.539c.318.318.638.633,1.116,1.107" transform="translate(-73.342 -5.973)" fill="#d5b3a7"/>
        <path id="Trazado_821947" data-name="Trazado 821947" d="M64.48,107.223a1.843,1.843,0,0,1-1.6-2.754c.994-2.059,2.058-4.083,3.131-6.1.513-.966,2.033-.958,2.753-.589a1.764,1.764,0,0,1,.7,2.5c-1.042,1.875-1.989,3.8-2.9,5.74a2.061,2.061,0,0,1-2.079,1.2" transform="translate(-26.609 -41.429)" fill="#ffcdaf"/>
        <path id="Trazado_821948" data-name="Trazado 821948" d="M44.582,83.736a1.94,1.94,0,0,1-.345,1.158c-.972,1.635-1.948,3.271-2.764,4.988a1.713,1.713,0,0,1-2.459.811,1.885,1.885,0,0,1-1.07-2.424c.525-1.357,1.329-2.577,1.977-3.876a15.383,15.383,0,0,1,.943-1.679,2.012,2.012,0,0,1,3.29-.312,1.714,1.714,0,0,1,.427,1.334" transform="translate(-16.062 -34.696)" fill="#ffcdaf"/>
        <path id="Trazado_821949" data-name="Trazado 821949" d="M81.064,104.638c1.3-.3,2.261,1.295,1.8,2.511a9.1,9.1,0,0,1-.4.914c-.74,1.441-1.515,2.865-2.228,4.319a2.34,2.34,0,0,1-2.161,1.241c-.671.05-1.651-1.013-1.82-1.819a.955.955,0,0,1,.128-.672c.98-1.8,1.931-3.615,2.89-5.424.508-.958.7-1.07,1.8-1.07" transform="translate(-32.376 -44.425)" fill="#ffcdaf"/>
        <path id="Trazado_821950" data-name="Trazado 821950" d="M91.665,82.735c.059-1.514,1.427-2.156,2.889-1.321,3.312,1.891,6.6,3.823,9.921,5.7,1.134.641,2.3,1.231,3.376,1.969.4.277.926.189,1.352.407.2.307.348.442-.174.743a2.36,2.36,0,0,1-2.577-.053c-2.435-1.315-4.834-2.7-7.239-4.058-1.815-1.028-3.709-1.907-5.484-3a3.689,3.689,0,0,0-2.065-.389" transform="translate(-38.931 -34.42)" fill="#d5b3a7"/>
        <path id="Trazado_821951" data-name="Trazado 821951" d="M104.645,72.849a1.511,1.511,0,0,1,2.233-1.484,35.73,35.73,0,0,1,4.1,2.254c.536.27,1.075.567,1.6.886,1.8,1.105,3.674,2.1,5.526,3.122a2.033,2.033,0,0,1,.612.679,1.629,1.629,0,0,1-2.043.5c-1.889-1.082-3.806-2.116-5.69-3.208A35.832,35.832,0,0,0,107,73.53a4.746,4.746,0,0,0-2.351-.681" transform="translate(-44.444 -30.248)" fill="#d5b3a7"/>
        <path id="Trazado_821952" data-name="Trazado 821952" d="M23.679,8c.075.431-.232.952.3,1.277a5.818,5.818,0,0,0-3.807,3.839c-.5,1.288-1.1,2.534-1.637,3.807a.959.959,0,0,1-.511.568,13.209,13.209,0,0,1,.051-2.846c.028-1.981.017-3.964,0-5.946-.005-.544.159-.752.742-.736,1.622.046,3.246.028,4.869.035" transform="translate(-7.621 -3.382)" fill="#d1d1d6"/>
        <path id="Trazado_821953" data-name="Trazado 821953" d="M86.675,96.1a1.674,1.674,0,0,1,2.033-.817,11.587,11.587,0,0,1,2.768,1.434c1.565.889,3.143,1.76,4.7,2.666q1.722,1,3.416,2.055c.32.2.751.159,1,.494a1.642,1.642,0,0,1-2.314.647c-2.977-1.746-6.146-3.168-8.914-5.27A7.11,7.11,0,0,0,86.675,96.1" transform="translate(-36.812 -40.436)" fill="#d5b3a7"/>
        <path id="Trazado_821954" data-name="Trazado 821954" d="M226.289,87.859A9.648,9.648,0,0,1,228.3,89.1c.172.164.052.345-.044.518-.368.667-.736,1.335-1.084,2.013-.175.341-.389.369-.691.179-.544-.342-1.092-.678-1.641-1.012a.38.38,0,0,1-.131-.6c.407-.7.8-1.406,1.208-2.108.07-.121.136-.259.376-.234" transform="translate(-95.395 -37.313)" fill="#d5b3a7"/>
        <path id="Trazado_821955" data-name="Trazado 821955" d="M94.052,113.106c.261-.582.546-1.156.774-1.751.124-.323.288-.327.525-.182a10.356,10.356,0,0,1,.95.62,1.963,1.963,0,0,1,.544,2.471,2.783,2.783,0,0,0-.343-.082c-.927-.11-1.542-.927-2.45-1.076" transform="translate(-39.945 -47.177)" fill="#d1d1d6"/>
        <path id="Trazado_821956" data-name="Trazado 821956" d="M93.562,114.6c.908.149,1.523.966,2.45,1.076a2.784,2.784,0,0,1,.343.082,2.006,2.006,0,0,1-3.323.477c-.194-.2-.152-.36-.034-.567.2-.349.377-.711.563-1.068" transform="translate(-39.455 -48.672)" fill="#d5b3a7"/>
        <path id="Trazado_821957" data-name="Trazado 821957" d="M194.378,178.746l-.519,0,.3-.578.206,0a.988.988,0,0,1,.016.585" transform="translate(-82.334 -75.666)" fill="#d1d1d6"/>
        <path id="Trazado_821958" data-name="Trazado 821958" d="M194.569,39.92c-.109.006-.192-.037-.189-.152s.087-.155.2-.15c0,.1,0,.2-.006.3" transform="translate(-82.555 -16.826)" fill="#d5b3a7"/>
        <path id="Trazado_821959" data-name="Trazado 821959" d="M194.579,178.065l-.206,0c-.012-.077,0-.142.1-.134.071.006.132.037.109.131" transform="translate(-82.55 -75.57)" fill="#d5b3a7"/>
        <path id="Trazado_821960" data-name="Trazado 821960" d="M74.234,137.641q-17.157,0-34.314-.006a8.627,8.627,0,0,1-3.1-.155,2.333,2.333,0,0,1-.6-4.019,2.924,2.924,0,0,1,1.741-.382q35.209-.009,70.418.007a16.951,16.951,0,0,1,3.2.112,2.162,2.162,0,0,1,1.866,1.931,2.22,2.22,0,0,1-1.241,2.213,3.061,3.061,0,0,1-1.3.308q-18.338.009-36.677,0Z" transform="translate(-15.002 -56.514)" fill="#242222"/>
        <path id="Trazado_821961" data-name="Trazado 821961" d="M71.577,164.458q-15.9,0-31.808,0c-.666,0-1.332.031-2,.048a2.431,2.431,0,0,1-1.794-4.14,2.015,2.015,0,0,1,1.294-.438,19.955,19.955,0,0,1,2.932-.074q29.229,0,58.457,0c1.882,0,3.765.016,5.646.076a2.12,2.12,0,0,1,2.12,1.765c.139,1.693-.5,2.274-1.693,2.627a6.158,6.158,0,0,1-1.706.131q-9.1.013-18.2.007H71.577Z" transform="translate(-14.972 -67.885)" fill="#242222"/>
        <path id="Trazado_821962" data-name="Trazado 821962" d="M95.413,191.285q-28.018-.009-56.036,0c-.907,0-1.815.272-2.68-.225a2.224,2.224,0,0,1,.524-4.252,8.3,8.3,0,0,1,1.35-.116q28.019.006,56.036.029a11.462,11.462,0,0,1,1.492.1,2.06,2.06,0,0,1,1.748,1.571,2.344,2.344,0,0,1-1.348,2.65,2.148,2.148,0,0,1-.946.232l-.141.011" transform="translate(-15.005 -79.289)" fill="#242222"/>
        <path id="Trazado_821963" data-name="Trazado 821963" d="M150.048,106.2q4.084,0,8.169,0a3.783,3.783,0,0,1,1.968.442,2.243,2.243,0,0,1-1.3,4.108q-8.885.021-17.769,0a2.458,2.458,0,0,1-2.088-1.851,2.3,2.3,0,0,1,1.646-2.566,5.93,5.93,0,0,1,1.421-.144c2.651.007,5.3,0,7.953,0Z" transform="translate(-59.039 -45.101)" fill="#242222"/>
        <path id="Trazado_821964" data-name="Trazado 821964" d="M139.769,194.67l.141-.011-.066.169-.075-.158" transform="translate(-59.361 -82.673)" fill="#d5b3a7"/>
        <path id="Trazado_821965" data-name="Trazado 821965" d="M139.969,27.28a1.6,1.6,0,0,1-1.707,1.745,1.788,1.788,0,0,1-1.734-1.817,1.767,1.767,0,0,1,1.8-1.731c1.09.085,1.829.8,1.638,1.8" transform="translate(-57.985 -10.818)" fill="#242222"/>
        <path id="Trazado_821966" data-name="Trazado 821966" d="M31.825,22.439c1.067,0,1.587.611,1.679,1.687a1.722,1.722,0,0,1-1.788,1.781A1.972,1.972,0,0,1,29.9,24.132a1.861,1.861,0,0,1,1.924-1.693" transform="translate(-12.699 -9.53)" fill="#242222"/>
      </g>
    </g>
  </g>
</svg>
