<svg xmlns="http://www.w3.org/2000/svg" xmlns:xlink="http://www.w3.org/1999/xlink" width="169" height="169" viewBox="0 0 169 169">
  <defs>
    <clipPath id="clip-path">
      <rect id="Rect치ngulo_378256" data-name="Rect치ngulo 378256" width="79.323" height="103.605" fill="none"/>
    </clipPath>
  </defs>
  <g id="Grupo_1073968" data-name="Grupo 1073968" transform="translate(-385.208 -2057.51)">
    <g id="Grupo_159182" data-name="Grupo 159182" transform="translate(385.208 2057.51)">
      <path id="Uni칩n_12" data-name="Uni칩n 12" d="M84.5,0A84.5,84.5,0,1,1,0,84.5,84.5,84.5,0,0,1,84.5,0Z" transform="translate(0 0)" fill="#ffae7e"/>
    </g>
    <g id="Grupo_1073961" data-name="Grupo 1073961" transform="translate(430.046 2090.207)">
      <g id="Grupo_1073960" data-name="Grupo 1073960" clip-path="url(#clip-path)">
        <path id="Trazado_823661" data-name="Trazado 823661" d="M22.991,101.99c-.114,1.062-.82,1.6-2.009,1.608-4.231.015-8.462.006-12.693.006a9.928,9.928,0,0,1-2.376-.35,7.692,7.692,0,0,1-2.73-1.329A7.533,7.533,0,0,1,.249,97.3a7.882,7.882,0,0,1,.512-5.243A7.774,7.774,0,0,1,5.1,88a8.559,8.559,0,0,1,1.256-.417.443.443,0,0,0,.352-.519,17.5,17.5,0,0,1,.232-3.189c.189-1.3.283-2.617.548-3.911.218-1.061.389-2.133.645-3.186A60.438,60.438,0,0,1,9.76,70.832a47.17,47.17,0,0,1,2.5-5.875,40.5,40.5,0,0,1,4.014-6.264,32.224,32.224,0,0,1,3.643-4.032,18.106,18.106,0,0,1,3.806-2.82c-.2-.326-.574-.436-.871-.624a25.5,25.5,0,0,1-6.192-5.8,41.747,41.747,0,0,1-2.989-4.154,47.986,47.986,0,0,1-2.423-4.679c-.65-1.373-1.055-2.832-1.64-4.226-.405-.965-.563-2.031-.872-3.039-.423-1.377-.624-2.8-.969-4.2a23.011,23.011,0,0,1-.55-3.381c-.084-.9-.262-1.806-.366-2.707a7.37,7.37,0,0,1-.131-2.043c.042-.258-.1-.485-.1-.732,0-.142-.086-.134-.192-.158A7.811,7.811,0,0,1,.972,12.018,8.442,8.442,0,0,1,.058,7.042,7.524,7.524,0,0,1,1.62,3.257,7.71,7.71,0,0,1,4.095,1.072,6.991,6.991,0,0,1,7.271.118c14.05-.229,28.1-.043,42.15-.094Q60.065-.014,70.711.03a8.39,8.39,0,0,1,5.152,1.446,7.985,7.985,0,0,1,2.89,3.762,8.675,8.675,0,0,1,.552,2.889,7.919,7.919,0,0,1-.638,3.272,8.053,8.053,0,0,1-3.25,3.719,11,11,0,0,1-2.465.974c-.156.049-.281.071-.294.271-.059.879-.1,1.759-.2,2.634-.11,1.031-.232,2.062-.408,3.083-.236,1.373-.487,2.743-.783,4.107A67.466,67.466,0,0,1,69.4,32.95a39.928,39.928,0,0,1-4.468,9.489,29.19,29.19,0,0,1-3.509,4.5,28.732,28.732,0,0,1-5.839,4.852,27.159,27.159,0,0,1,3.057,2.243,35.479,35.479,0,0,1,4.194,4.331c.921,1.144,1.765,2.349,2.584,3.556a26.967,26.967,0,0,1,1.669,3.037c.541,1.076,1.075,2.166,1.511,3.276.467,1.189.828,2.433,1.238,3.651.546,1.623.939,3.283,1.338,4.941.279,1.163.478,2.346.695,3.525.181.986.345,1.975.456,2.966.091.8.2,1.616.214,2.426.008.505.127.993.127,1.494,0,.485.448.4.7.469a7.5,7.5,0,0,1,5.574,5.464,6.894,6.894,0,0,1,.372,2.335,7.979,7.979,0,0,1-2.984,6.279,8.21,8.21,0,0,1-3.821,1.647,18.558,18.558,0,0,1-2.9.17q-20.733.007-41.466.005a1.758,1.758,0,0,1-2.14-1.515,1.542,1.542,0,0,1,1.558-1.514c.235-.014.472-.007.708-.007q21.488,0,42.977-.006a4.957,4.957,0,0,0,4.922-3.894,5.072,5.072,0,0,0-1.853-5.24,5.444,5.444,0,0,0-3.4-1.066q-31.246.006-62.493.006c-.236,0-.472.009-.708.019a4.7,4.7,0,0,0-2.277.634,5.172,5.172,0,0,0-1.863,2.015,5.517,5.517,0,0,0-.428,3.6,4.865,4.865,0,0,0,1.686,2.806,4.043,4.043,0,0,0,2.666,1.108c4.483.03,8.966.008,13.449.017,1.187,0,1.686.233,2.037,1.417M36.042,73.358a3.346,3.346,0,0,0-.784.16c-.913.144-1.758.691-2.735.459a.179.179,0,0,0-.235.121c-.065.161-.235.17-.391.168-.559-.006-1.105.074-1.679.031a10.052,10.052,0,0,1-4.893-1.784A20.3,20.3,0,0,1,22.8,70.188a6.489,6.489,0,0,0-5.084-1.882c-.992.071-1.94.425-2.918.561a1.6,1.6,0,0,0-1.52,1.342,5.408,5.408,0,0,1-.217.615,49.9,49.9,0,0,0-1.673,5.332c-.326,1.329-.61,2.665-.835,4.015-.151.908-.3,1.815-.432,2.727-.1.746-.237,1.484-.287,2.24a10.964,10.964,0,0,1-.119,1.641c-.113.5,0,.559.448.558q16.229-.017,32.459-.017c.505,0,1.01-.015,1.515-.022.219.007.438.021.656.021q11.2,0,22.4,0a8.046,8.046,0,0,1,1.7.086c.569.121.768-.07.719-.642-.124-1.422-.289-2.838-.481-4.254-.248-1.838-.606-3.653-.995-5.463A51.261,51.261,0,0,0,66.6,71.7a52.286,52.286,0,0,0-2.414-5.817c-.142-.3-.3-.35-.573-.128-2.022,1.619-4.076,3.2-6.141,4.761a17.347,17.347,0,0,1-3.925,2.528,9.332,9.332,0,0,1-8.036-.414,6.755,6.755,0,0,0-2.6-.688,9.927,9.927,0,0,0-3.326.48c-1.182.322-2.368.627-3.552.939M34.747,24.8a7.528,7.528,0,0,0,.153.785,1.246,1.246,0,0,0,1.822.857,4.481,4.481,0,0,1,2.212-.425,4.3,4.3,0,0,1,3.979,3.43c.277,1.449.44,2.921.626,4.386s.336,2.936.628,4.383a3.425,3.425,0,0,0,2.657,2.667,3.5,3.5,0,0,0,3.784-1.816c.677-1.182,1.354-2.366,1.968-3.581a4.633,4.633,0,0,1,2.978-2.532c.426-.12.876.009,1.3-.076a2,2,0,0,1,1.331.233c2.088,1.059,3.994,2.424,5.992,3.634.355.215.455.115.583-.185.269-.632.581-1.249.817-1.893.528-1.443,1.012-2.9,1.529-4.348a36.448,36.448,0,0,0,1.117-4.149c.342-1.489.572-2.995.825-4.5.263-1.561.367-3.134.57-4.7.07-.543-.07-.668-.615-.668-3.809,0-7.617-.018-11.426.012a1.741,1.741,0,0,1-1.816-1.627,1.6,1.6,0,0,1,1.826-1.431c.337-.009.674-.007,1.011-.007q6.118,0,12.236-.006a5.92,5.92,0,0,0,1.557-.1,5.1,5.1,0,0,0,3.2-7.612A4.976,4.976,0,0,0,70.949,3.05q-31.375,0-62.75,0a5.633,5.633,0,0,0-1.338.171A5.033,5.033,0,0,0,3.093,7.386,5.111,5.111,0,0,0,5.52,12.547a5.864,5.864,0,0,0,3.159.7q21.035,0,42.069.007c1.245,0,1.618.28,1.99,1.432A1.612,1.612,0,0,1,51.028,16.3c-.251.016-.5.009-.756.009l-10.991.013c-1.988-.008-3.977-.009-5.965-.028-.4,0-.335.21-.283.455q.353,1.644.7,3.289.507,2.383,1.012,4.766M19.734,16.309h-.961q-4.3,0-8.6.006c-.158,0-.42-.151-.434.225a16.682,16.682,0,0,0,.13,2.346c.118,1.146.335,2.282.477,3.426a.785.785,0,0,0,.548.743c.558.185,1.121.355,1.683.526,1.167.356,2.337.7,3.5,1.063.909.282,1.812.585,2.721.868a10.2,10.2,0,0,1,4.124,2.2,9.454,9.454,0,0,1,2.047,11.252,10.277,10.277,0,0,1-4.566,4.357c-.358.191-.962.316-.992.641-.033.362.471.678.763.994A24.218,24.218,0,0,0,27.3,50.366a1.559,1.559,0,0,1,.015,2.883,21.024,21.024,0,0,0-3.44,2.1,29.577,29.577,0,0,0-8.339,9.879c-.052.094-.192.218-.073.3a.564.564,0,0,0,.389.018,10.215,10.215,0,0,1,3.369-.209A9.626,9.626,0,0,1,23.01,66.6a16.347,16.347,0,0,1,3.1,2.653A6.55,6.55,0,0,0,32.534,71.1c1.778-.416,3.528-.95,5.305-1.367a16.722,16.722,0,0,1,4.753-.843,10.724,10.724,0,0,1,3.99.913,7.857,7.857,0,0,0,2.912.886,6.567,6.567,0,0,0,3.8-.829,18.114,18.114,0,0,0,1.472-1.116c.878-.643,1.74-1.307,2.612-1.953,1.619-1.2,3.134-2.527,4.781-3.682.327-.229.244-.352.081-.573a30.671,30.671,0,0,0-2.464-3.159c-.86-.9-1.68-1.83-2.592-2.674a20.69,20.69,0,0,0-1.777-1.387,18.9,18.9,0,0,0-3.337-2.026,1.583,1.583,0,0,1-.94-1.883,2,2,0,0,1,.915-1.068c1.04-.551,2.05-1.141,3.043-1.784a36.26,36.26,0,0,0,3.827-3.3,14.571,14.571,0,0,0,2.119-2.621c.623-.864,1.286-1.7,1.873-2.6.144-.218.263-.413-.076-.618-1.445-.875-2.87-1.783-4.312-2.663-.279-.17-.558-.336-.831-.517a1.426,1.426,0,0,0-2.307.505c-.486.9-1.01,1.785-1.508,2.682a9.848,9.848,0,0,1-2.225,3.064,6.2,6.2,0,0,1-6.077,1.168,6.729,6.729,0,0,1-4.661-6.378c-.033-.835-.192-1.651-.289-2.476-.159-1.346-.378-2.686-.517-4.034-.152-1.473-.944-2.141-2.313-1.442a3.175,3.175,0,0,1-1.421.34,5.111,5.111,0,0,1-2.359-.629,4.172,4.172,0,0,1-1.745-1.9,14.546,14.546,0,0,1-.844-3.31c-.3-1.116-.476-2.265-.715-3.4s-.5-2.232-.72-3.354c-.147-.758-.119-.763-.9-.763H19.734m3.272,18.379a5.4,5.4,0,0,0-.214-1.63,5.712,5.712,0,0,0-3.447-4.126c-2.555-1.032-5.232-1.714-7.854-2.554-.3-.1-.362-.019-.276.28.222.769.417,1.546.632,2.317a47.355,47.355,0,0,0,3.242,8.5A34.346,34.346,0,0,0,17.225,41.2c.131.2.247.4.556.206.8-.5,1.624-.958,2.408-1.481a6.169,6.169,0,0,0,2.817-5.234" transform="translate(0 0)"/>
        <path id="Trazado_823662" data-name="Trazado 823662" d="M27.435,234.218c-.351-1.184-.85-1.415-2.036-1.417-4.483-.009-8.966.013-13.449-.017a4.041,4.041,0,0,1-2.666-1.108A4.866,4.866,0,0,1,7.6,228.87a5.519,5.519,0,0,1,.428-3.6A5.173,5.173,0,0,1,9.89,223.25a4.7,4.7,0,0,1,2.277-.634c.235-.01.471-.019.707-.019q31.247,0,62.494-.006a5.444,5.444,0,0,1,3.4,1.066,5.073,5.073,0,0,1,1.853,5.24A4.957,4.957,0,0,1,75.7,232.79q-21.488.015-42.977.006c-.236,0-.473-.006-.708.007a1.542,1.542,0,0,0-1.558,1.514q-1.219,0-2.438,0a1.181,1.181,0,0,1-.582-.1" transform="translate(-4.444 -132.228)" fill="#cf8f80"/>
        <path id="Trazado_823663" data-name="Trazado 823663" d="M33.982,40.138h9.354c.777,0,.749.006.9.764.217,1.122.483,2.235.72,3.354s.415,2.281.715,3.4a14.594,14.594,0,0,0,.844,3.31,4.171,4.171,0,0,0,1.745,1.9,5.112,5.112,0,0,0,2.359.629,3.17,3.17,0,0,0,1.421-.34c1.369-.7,2.161-.031,2.313,1.442.139,1.348.358,2.688.517,4.034.1.825.256,1.64.289,2.476a6.73,6.73,0,0,0,4.661,6.378,6.2,6.2,0,0,0,6.077-1.168,9.855,9.855,0,0,0,2.225-3.064c.5-.9,1.022-1.779,1.508-2.682a1.426,1.426,0,0,1,2.308-.505c.273.181.552.347.831.517,1.442.88,2.867,1.787,4.312,2.663.339.205.22.4.076.618-.587.894-1.25,1.734-1.873,2.6a14.524,14.524,0,0,1-2.119,2.621,36.208,36.208,0,0,1-3.827,3.3c-.993.643-2,1.233-3.043,1.784a2,2,0,0,0-.915,1.068,1.583,1.583,0,0,0,.94,1.884,18.88,18.88,0,0,1,3.337,2.026,20.546,20.546,0,0,1,1.777,1.387c.912.843,1.732,1.779,2.592,2.674a30.584,30.584,0,0,1,2.464,3.159c.163.221.246.343-.081.573-1.647,1.155-3.163,2.484-4.781,3.682-.873.646-1.735,1.31-2.613,1.953a17.857,17.857,0,0,1-1.472,1.116,6.561,6.561,0,0,1-3.8.829,7.864,7.864,0,0,1-2.912-.886,10.708,10.708,0,0,0-3.99-.913,16.708,16.708,0,0,0-4.753.843c-1.778.417-3.528.951-5.305,1.367a6.551,6.551,0,0,1-6.424-1.842,16.334,16.334,0,0,0-3.1-2.653,9.632,9.632,0,0,0-3.791-1.261,10.2,10.2,0,0,0-3.369.209.561.561,0,0,1-.389-.019c-.119-.085.021-.208.073-.3a29.581,29.581,0,0,1,8.339-9.879,21.053,21.053,0,0,1,3.44-2.1,1.559,1.559,0,0,0-.015-2.883,24.23,24.23,0,0,1-7.119-5.409c-.292-.317-.8-.632-.763-.995.03-.326.634-.45.992-.641A10.275,10.275,0,0,0,39.223,62.8a9.454,9.454,0,0,0-2.047-11.252,10.2,10.2,0,0,0-4.124-2.2c-.909-.283-1.811-.586-2.721-.867-1.166-.361-2.335-.708-3.5-1.064-.563-.171-1.126-.341-1.684-.526a.786.786,0,0,1-.548-.743c-.141-1.145-.358-2.28-.477-3.427a16.679,16.679,0,0,1-.13-2.346c.014-.376.276-.224.434-.225q4.3-.013,8.6-.006h.961M46.96,80.886a7.332,7.332,0,0,0,.013,1.411,6.679,6.679,0,0,0,4.583,5.4,7.213,7.213,0,0,0,4.04.172,6.343,6.343,0,0,0,4.071-2.59,8.242,8.242,0,0,0,.924-7.03A13.483,13.483,0,0,0,59.4,75.131a31.748,31.748,0,0,0-2.329-3.541,3.958,3.958,0,0,0-6.063-.225,18.189,18.189,0,0,0-1.442,1.944,13.667,13.667,0,0,0-2.6,7.576" transform="translate(-14.248 -23.83)" fill="#b0e4f9"/>
        <path id="Trazado_823664" data-name="Trazado 823664" d="M57.187,19.152C56.815,18,56.441,17.72,55.2,17.72q-21.035-.007-42.069-.007a5.86,5.86,0,0,1-3.159-.7A5.111,5.111,0,0,1,7.54,11.847a5.034,5.034,0,0,1,3.768-4.162,5.629,5.629,0,0,1,1.338-.171q31.376,0,62.751,0a4.973,4.973,0,0,1,4.641,2.481,5.1,5.1,0,0,1-3.2,7.612,5.921,5.921,0,0,1-1.557.1q-6.119.012-12.237.006c-.337,0-.674,0-1.011.007a1.6,1.6,0,0,0-1.826,1.431,7.815,7.815,0,0,1-1.235.1c-.6.042-1.187-.129-1.785-.1" transform="translate(-4.447 -4.462)" fill="#cf8f80"/>
        <path id="Trazado_823665" data-name="Trazado 823665" d="M103.586,36.181c.6-.033,1.184.138,1.785.1a7.815,7.815,0,0,0,1.235-.1,1.741,1.741,0,0,0,1.816,1.627c3.808-.03,7.617-.014,11.426-.013.545,0,.685.125.615.668-.2,1.565-.307,3.138-.57,4.7-.254,1.5-.483,3.011-.825,4.5a36.45,36.45,0,0,1-1.117,4.149c-.518,1.446-1,2.905-1.529,4.348-.236.644-.548,1.26-.817,1.893-.127.3-.228.4-.583.185-2-1.211-3.9-2.575-5.992-3.634a2,2,0,0,0-1.331-.233c-.421.086-.87-.044-1.3.076a4.636,4.636,0,0,0-2.978,2.532c-.614,1.215-1.291,2.4-1.968,3.581a3.5,3.5,0,0,1-3.784,1.816,3.426,3.426,0,0,1-2.657-2.667c-.293-1.447-.443-2.918-.628-4.383s-.349-2.937-.626-4.386a4.3,4.3,0,0,0-3.979-3.43,4.485,4.485,0,0,0-2.212.425,1.246,1.246,0,0,1-1.823-.857,7.546,7.546,0,0,1-.153-.785A1.143,1.143,0,0,0,86.2,45.6c.637-1.552,1.338-3.078,2.115-4.565a34.889,34.889,0,0,1,1.812-3.225l10.991-.013c.252,0,.5.007.756-.009a1.613,1.613,0,0,0,1.711-1.608" transform="translate(-50.846 -21.49)" fill="#aad77f"/>
        <path id="Trazado_823666" data-name="Trazado 823666" d="M88.782,169.372c1.184-.312,2.37-.617,3.552-.939a9.918,9.918,0,0,1,3.326-.481,6.753,6.753,0,0,1,2.595.688,9.33,9.33,0,0,0,8.036.414,17.362,17.362,0,0,0,3.926-2.527c2.065-1.565,4.119-3.142,6.141-4.761.276-.222.432-.172.573.128a52.4,52.4,0,0,1,2.414,5.817,51.366,51.366,0,0,1,1.539,5.35c.389,1.809.746,3.624.995,5.462.192,1.416.357,2.832.481,4.254.05.572-.15.763-.719.642a8.048,8.048,0,0,0-1.7-.086q-11.2-.007-22.4,0c-.219,0-.438-.013-.656-.02a.716.716,0,0,0-.186-.506c-.269-.317-.575-.606-.819-.941a8.17,8.17,0,0,1-1.624-2.631c.57-.015,1.143,0,1.711-.052a1.37,1.37,0,0,0,1.32-1.376A1.4,1.4,0,0,0,95.8,176.23c-1.258-.045-2.517-.054-3.775-.079-.4-.734-.756-1.5-1.217-2.19-.309-.464-.6-.941-.878-1.418-.3-.517-.473-1.108-.74-1.647a3.254,3.254,0,0,1-.4-1.524m18.1,4.554c-.1-.169-.2-.341-.311-.508a1.365,1.365,0,0,0-1.4-.638,1.422,1.422,0,0,0-1.354,1.463,14.642,14.642,0,0,0,.026,2.668,1.457,1.457,0,0,0,1.829,1.179,1.507,1.507,0,0,0,1.159-1.344c.009-.006.026-.012.026-.017a.33.33,0,0,0-.012-.058q0-1.271.01-2.542c.155-.047.05-.13.029-.2" transform="translate(-52.74 -96.015)" fill="#aad77f"/>
        <path id="Trazado_823667" data-name="Trazado 823667" d="M55.671,183.146a8.176,8.176,0,0,0,1.624,2.631c.244.335.55.623.819.941a.714.714,0,0,1,.186.506c-.505.008-1.01.022-1.515.022q-16.229.007-32.459.017c-.444,0-.561-.056-.448-.559a10.963,10.963,0,0,0,.119-1.64c.05-.756.182-1.494.287-2.24.128-.913.281-1.819.432-2.727.225-1.351.509-2.687.835-4.015a49.9,49.9,0,0,1,1.673-5.332,5.327,5.327,0,0,0,.217-.615,1.6,1.6,0,0,1,1.521-1.342c.978-.136,1.926-.49,2.918-.561a6.488,6.488,0,0,1,5.084,1.882,20.364,20.364,0,0,0,2.522,2.327,10.055,10.055,0,0,0,4.893,1.783c.573.043,1.12-.038,1.679-.031.156,0,.326-.007.391-.168a.179.179,0,0,1,.235-.121c.977.232,1.822-.315,2.735-.459a3.346,3.346,0,0,1,.784-.16,3.259,3.259,0,0,0,.4,1.524c.267.54.438,1.13.74,1.647.278.478.57.954.878,1.418.461.693.816,1.456,1.217,2.19-.454.007-.908.007-1.362.022a11.44,11.44,0,0,0-1.864.066,1.474,1.474,0,0,0-.942,2.372,1.063,1.063,0,0,0,.8.531c.335.03.67.065,1,.068,1.532.014,3.064.017,4.6.025m-16.19-3.882h0c0,.471-.024.944.006,1.414a1.443,1.443,0,0,0,2.833.35,8.275,8.275,0,0,0,.1-3.147,1.426,1.426,0,0,0-1.524-1.26,1.463,1.463,0,0,0-1.414,1.43c-.017.4,0,.808,0,1.212" transform="translate(-14.161 -99.925)" fill="#7fca8d"/>
        <path id="Trazado_823668" data-name="Trazado 823668" d="M39.365,73.228a6.169,6.169,0,0,1-2.817,5.234c-.784.522-1.612.976-2.408,1.481-.309.2-.425-.01-.556-.206a34.345,34.345,0,0,1-2.136-3.718,47.355,47.355,0,0,1-3.242-8.5c-.216-.771-.41-1.548-.632-2.317-.086-.3-.024-.376.276-.28,2.622.84,5.3,1.522,7.854,2.554A5.712,5.712,0,0,1,39.15,71.6a5.4,5.4,0,0,1,.214,1.63" transform="translate(-16.359 -38.541)" fill="#7fca8d"/>
        <path id="Trazado_823669" data-name="Trazado 823669" d="M87.561,40.162a34.786,34.786,0,0,0-1.811,3.225c-.777,1.487-1.478,3.013-2.115,4.565a1.144,1.144,0,0,1-.607.693q-.506-2.383-1.012-4.767-.35-1.644-.7-3.288c-.053-.246-.121-.46.282-.455,1.988.02,3.977.021,5.966.028" transform="translate(-48.279 -23.841)" fill="#7fca8d"/>
        <path id="Trazado_823670" data-name="Trazado 823670" d="M80.532,124.7a13.671,13.671,0,0,1,2.6-7.576,18.3,18.3,0,0,1,1.442-1.944,3.958,3.958,0,0,1,6.063.225,31.692,31.692,0,0,1,2.329,3.541,13.483,13.483,0,0,1,1.193,3.119,8.24,8.24,0,0,1-.924,7.03,6.343,6.343,0,0,1-4.071,2.59,7.219,7.219,0,0,1-4.04-.172,6.679,6.679,0,0,1-4.583-5.4,7.332,7.332,0,0,1-.013-1.411m10.845-.542a3.968,3.968,0,0,0-.3-1.845,14.174,14.174,0,0,0-2.734-4.922c-.542-.659-1.152-.706-1.66-.047a14.872,14.872,0,0,0-3.089,6.181,4.577,4.577,0,0,0,.835,4.071,4.387,4.387,0,0,0,5.941.179,4.028,4.028,0,0,0,1.14-3.267c-.008-.13.109-.309-.134-.35" transform="translate(-47.821 -67.647)"/>
        <path id="Trazado_823671" data-name="Trazado 823671" d="M92.437,200.485c-1.532-.007-3.065-.011-4.6-.025-.335,0-.67-.038-1-.068a1.059,1.059,0,0,1-.8-.532,1.473,1.473,0,0,1,.942-2.372,11.439,11.439,0,0,1,1.864-.066c.453-.014.907-.015,1.361-.022,1.258.025,2.518.034,3.776.079a1.4,1.4,0,0,1,1.486,1.577,1.369,1.369,0,0,1-1.32,1.376c-.568.047-1.14.037-1.711.052" transform="translate(-50.927 -117.264)"/>
        <path id="Trazado_823672" data-name="Trazado 823672" d="M128.759,193.043a1.507,1.507,0,0,1-1.158,1.344,1.458,1.458,0,0,1-1.83-1.179,14.641,14.641,0,0,1-.025-2.668,1.421,1.421,0,0,1,1.354-1.463,1.365,1.365,0,0,1,1.4.638c.107.167.207.339.311.508-.091.056-.094.124-.028.2q0,1.271-.009,2.542a.049.049,0,0,0-.015.076" transform="translate(-74.669 -112.312)"/>
        <path id="Trazado_823673" data-name="Trazado 823673" d="M133.234,192.121c-.065-.078-.063-.146.028-.2.022.072.127.155-.028.2" transform="translate(-79.12 -114.008)" fill="#7fca8d"/>
        <path id="Trazado_823674" data-name="Trazado 823674" d="M133.222,198.754a.049.049,0,0,1,.015-.076.328.328,0,0,1,.011.058c0,.006-.017.012-.026.017" transform="translate(-79.133 -118.023)" fill="#7fca8d"/>
        <path id="Trazado_823675" data-name="Trazado 823675" d="M62.363,191.567c0-.4-.014-.809,0-1.212a1.463,1.463,0,0,1,1.414-1.43,1.426,1.426,0,0,1,1.524,1.26,8.275,8.275,0,0,1-.1,3.147,1.443,1.443,0,0,1-2.833-.35c-.029-.47-.006-.943-.006-1.414h0" transform="translate(-37.043 -112.229)"/>
        <path id="Trazado_823676" data-name="Trazado 823676" d="M95.836,128.9a4.029,4.029,0,0,1-1.14,3.267,4.387,4.387,0,0,1-5.941-.179,4.575,4.575,0,0,1-.835-4.071,14.867,14.867,0,0,1,3.089-6.181c.508-.658,1.118-.612,1.66.047a14.177,14.177,0,0,1,2.734,4.922,3.982,3.982,0,0,1,.3,1.844c-.04.148-.086.3.133.35" transform="translate(-52.146 -72.037)" fill="#aad77f"/>
        <path id="Trazado_823677" data-name="Trazado 823677" d="M107.378,139.56c-.219-.051-.173-.2-.133-.35.242.042.125.22.133.35" transform="translate(-63.688 -82.697)" fill="#7fca8d"/>
      </g>
    </g>
  </g>
</svg>
