<svg xmlns="http://www.w3.org/2000/svg" xmlns:xlink="http://www.w3.org/1999/xlink" width="169" height="169" viewBox="0 0 169 169">
  <defs>
    <clipPath id="clip-path">
      <rect id="Rect치ngulo_378258" data-name="Rect치ngulo 378258" width="108.139" height="108.165" fill="none"/>
    </clipPath>
  </defs>
  <g id="Grupo_1073966" data-name="Grupo 1073966" transform="translate(-719 -2877.811)">
    <g id="Grupo_1073327" data-name="Grupo 1073327" transform="translate(334 819.811)">
      <g id="Grupo_159182" data-name="Grupo 159182" transform="translate(385.001 2058)">
        <path id="Uni칩n_12" data-name="Uni칩n 12" d="M84.5,0A84.5,84.5,0,1,1,0,84.5,84.5,84.5,0,0,1,84.5,0Z" transform="translate(0 0)" fill="#ffae7e"/>
      </g>
    </g>
    <g id="Grupo_1073965" data-name="Grupo 1073965" transform="translate(750.466 2910.86)">
      <g id="Grupo_1073964" data-name="Grupo 1073964" clip-path="url(#clip-path)">
        <path id="Trazado_823711" data-name="Trazado 823711" d="M85.828,92.274c-1.152.738-1.716.508-2.385-.149a30.258,30.258,0,0,1-3.288-3.4,3.392,3.392,0,0,1-.6-2.051,3.567,3.567,0,0,1,1.266-2.7c1.1-1.115,2.255-2.178,3.312-3.331a3.892,3.892,0,0,1,4.309-.519,4.316,4.316,0,0,1,.7.627q4.778,4.777,9.558,9.554c.172.172.371.316.551.48.674.616.663.607,1.325-.061q3.476-3.5,6.965-6.993,1.605-1.61,3.219-3.213a2.651,2.651,0,0,1,1.877-.8,4.455,4.455,0,0,1,2,.235,4.319,4.319,0,0,1,1.246,1.023c1.1,1.13,2.2,2.263,3.352,3.345a3.658,3.658,0,0,1,.152,4.722c-.935.979-1.905,1.926-2.863,2.885q-3.841,3.847-7.689,7.688c-.272.27-.376.406-.031.765.7.735,1.427,1.452,2.146,2.171,2.648,2.652,5.293,5.307,7.97,7.928a3.849,3.849,0,0,1,.886,4.464,3.69,3.69,0,0,1-.663.866c-1.245,1.214-2.4,2.518-3.723,3.655a3.341,3.341,0,0,1-4.711-.086c-2.669-2.605-5.294-5.254-7.935-7.889-.847-.845-1.7-1.686-2.518-2.556-.291-.308-.457-.279-.741.006Q94.495,114,89.446,119.027a5.666,5.666,0,0,1-1.287.992,3.513,3.513,0,0,1-3.933-.6q-1.869-1.865-3.734-3.731a3.506,3.506,0,0,1,.009-4.869q5.225-5.226,10.455-10.448c.311-.309.284-.47-.011-.735A25.364,25.364,0,0,0,88.7,97.512a1.855,1.855,0,0,1-.241-1.67c.091-.2.173-.412.259-.619a.419.419,0,0,0,.153-.021,1.627,1.627,0,0,1,2.411.3l3.248,3.245a1.594,1.594,0,0,1,.054,2.451c-.1.1-.191.207-.29.306q-2.612,2.611-5.226,5.221-2.987,2.982-5.976,5.964c-.541.541-.547.582-.016,1.13.623.645,1.266,1.272,1.9,1.9a17.413,17.413,0,0,0,1.37,1.336c.223.177.4.225.631-.014.769-.793,1.557-1.567,2.337-2.348q4.589-4.59,9.18-9.176c1.057-1.052,1.806-1.044,2.824.013,2.279,2.366,4.665,4.624,6.924,7.01,1.279,1.351,2.648,2.616,3.981,3.916.2.192.45.353.623.542.344.377.531.154.755-.07q1.474-1.474,2.941-2.957c.7-.71.693-.715-.035-1.443l-11.047-11.043c-1.11-1.11-1.109-1.836,0-2.957.037-.038.075-.074.113-.111q5.656-5.649,11.318-11.293c.235-.234.3-.392.047-.642-1.164-1.149-2.32-2.307-3.479-3.46-.224-.223-.432-.31-.682,0a8.8,8.8,0,0,1-.681.66q-5.448,5.448-10.894,10.9a1.617,1.617,0,0,1-2.613.025c-.128-.122-.249-.249-.373-.373q-5.6-5.593-11.2-11.192c-.315-.317-.525-.3-.823,0-1.035,1.055-2.09,2.09-3.131,3.139-.522.526-.515.611.013,1.135.824.817,1.654,1.629,2.473,2.452a1.628,1.628,0,0,1,.273,2.5" transform="translate(-45.812 -45.923)" fill="#010101"/>
        <path id="Trazado_823712" data-name="Trazado 823712" d="M14.429,184.018q5.094,0,10.189,0a3.688,3.688,0,0,1,3.919,2.819c.434,1.24.929,2.458,1.386,3.691.233.629.469,1.258.654,1.9a1.717,1.717,0,0,0,1.076,1.048c.95.463,1.9.934,2.859,1.371a3.562,3.562,0,0,1,2.256,3.456c.017,2.5,0,5,.006,7.5a5.922,5.922,0,0,1-.255,1.685,3.38,3.38,0,0,1-3.239,2.341c-.568-.023-.79.14-1.024.7a5.554,5.554,0,0,1-4.024,3.449,5.479,5.479,0,0,1-2.957-.028,5.792,5.792,0,0,1-3.9-3.707c-.1-.27-.178-.377-.449-.375-1.672.016-3.343.043-5.014.022-.376,0-.459.182-.563.448a5.609,5.609,0,0,1-4.584,3.729,5.541,5.541,0,0,1-5.621-2.34,3.482,3.482,0,0,1-.786-1.56c-.043-.274-.226-.22-.392-.222a3.9,3.9,0,0,1-3.129-1.476,3.226,3.226,0,0,1-.79-2.027q-.028-9.449-.018-18.9a3.551,3.551,0,0,1,3.264-3.487c.525-.042,1.055-.036,1.582-.036q4.778,0,9.556,0m10.888,3.2-.01-.031-.022.021c-1.58.011-3.16.058-4.738.015-.606-.017-.689.171-.687.72.022,5.965.014,11.93.014,17.9,0,.281-.091.617.031.831.166.29.476-.083.749,0,.454.131.653-.146.824-.54a5.79,5.79,0,0,1,6.186-3.575,5.479,5.479,0,0,1,3.434,1.675,6.456,6.456,0,0,1,1.294,2.091c.121.287.281.547.662.459a.647.647,0,0,0,.563-.738q-.028-3.747,0-7.5a.875.875,0,0,0-.552-.9c-1.042-.5-2.074-1.027-3.108-1.547a4.273,4.273,0,0,1-1.819-1.617,10.654,10.654,0,0,1-.868-2.038c-.5-1.447-1.03-2.883-1.558-4.319a2.543,2.543,0,0,0-.4-.9M16.7,196.966H16.7v-1.9c0-2.446,0-4.892,0-7.338,0-.342-.029-.563-.473-.555-1.512.027-3.025.018-4.538.022-2.6.006-5.208.02-7.812.009-.508,0-.71.2-.68.686.009.14,0,.281,0,.422q0,8.763,0,17.527c0,.106,0,.211,0,.317a.587.587,0,0,0,.5.593.512.512,0,0,0,.641-.325c.11-.22.206-.447.316-.667a5.8,5.8,0,0,1,10.711.618c.2.554.644.411,1.015.382.386-.03.324-.378.324-.657q0-4.566,0-9.133m-4.265,11.478a2.568,2.568,0,0,0-2.534-2.77,2.635,2.635,0,1,0-.034,5.27,2.39,2.39,0,0,0,2.568-2.5m11.811-.117a2.614,2.614,0,0,0,2.665,2.622,2.578,2.578,0,0,0,2.6-2.62,2.741,2.741,0,0,0-2.611-2.666,2.7,2.7,0,0,0-2.657,2.663" transform="translate(-0.015 -106.023)" fill="#010101"/>
        <path id="Trazado_823713" data-name="Trazado 823713" d="M90.133,96.494a1.628,1.628,0,0,0-.273-2.5c-.818-.823-1.648-1.635-2.473-2.452-.528-.524-.535-.609-.013-1.135,1.041-1.049,2.1-2.084,3.131-3.139.3-.3.508-.319.823,0q5.587,5.606,11.2,11.192c.124.124.245.252.373.373a1.617,1.617,0,0,0,2.613-.025q5.453-5.442,10.894-10.9a8.8,8.8,0,0,0,.681-.66c.249-.311.457-.224.682,0,1.16,1.153,2.315,2.311,3.479,3.46.253.25.188.409-.047.642q-5.668,5.637-11.318,11.293c-.037.037-.076.073-.113.111-1.111,1.121-1.112,1.847,0,2.957l11.047,11.043c.728.728.733.734.035,1.443q-1.462,1.486-2.941,2.957c-.224.224-.411.447-.755.07-.173-.189-.425-.35-.623-.542-1.333-1.3-2.7-2.565-3.981-3.916-2.259-2.386-4.645-4.644-6.924-7.01-1.018-1.057-1.768-1.065-2.824-.013q-4.6,4.577-9.18,9.176c-.781.781-1.569,1.555-2.337,2.348-.231.238-.407.191-.631.014a17.413,17.413,0,0,1-1.37-1.336c-.637-.631-1.28-1.258-1.9-1.9-.531-.549-.525-.59.016-1.13q2.986-2.985,5.976-5.964,2.614-2.61,5.226-5.221c.1-.1.192-.206.29-.306a1.594,1.594,0,0,0-.054-2.451l-3.248-3.245a1.627,1.627,0,0,0-2.411-.3.419.419,0,0,1-.153.021,26.779,26.779,0,0,0-2.89-2.949" transform="translate(-50.117 -50.143)" fill="#fe5594"/>
        <path id="Trazado_823714" data-name="Trazado 823714" d="M24.237,5.372a9.663,9.663,0,0,1,.17-2.821A3.681,3.681,0,0,1,28.377.1a6.893,6.893,0,0,1,2.891,1.66C32.91,3,34.53,4.269,36.143,5.545A11.6,11.6,0,0,1,38.19,7.411a5.967,5.967,0,0,1,1.286,3.7c.05,4.716.046,9.432.025,14.148A3.719,3.719,0,0,1,36.962,28.9a5.362,5.362,0,0,1-1.671.289q-15.521-.015-31.042,0A4.114,4.114,0,0,1,.033,25.868a3.954,3.954,0,0,1-.027-.787q0-10.823.008-21.645A3.672,3.672,0,0,1,2.843.136a3.925,3.925,0,0,1,3.284.879c1.891,1.51,3.817,2.977,5.729,4.46.058.045.084.17.2.092s.091-.174.091-.281c0-.6,0-1.2.015-1.794A3.538,3.538,0,0,1,15.492.107a5.659,5.659,0,0,1,3.57,1.572q2.52,1.923,5.047,3.834c-.013.07.033.094.079.064a.138.138,0,0,0,.05-.206M9.4,26.008c.228.008.456.025.684.025l22.695,0c.862,0,1.724.033,2.585.009.834-.022.969-.186.969-1.011,0-4.486-.013-8.972.009-13.458a3.592,3.592,0,0,0-1.531-3.136c-1.4-1.027-2.748-2.112-4.118-3.174-.826-.64-1.644-1.29-2.477-1.92-.4-.3-.7-.155-.761.335a3.57,3.57,0,0,0-.011.421c0,1.513.006,3.026-.012,4.539a1.569,1.569,0,0,1-1.887,1.75,1.98,1.98,0,0,1-1.1-.571q-3.99-3.111-7.97-6.238c-.27-.211-.583-.543-.894-.421-.4.158-.334.647-.334,1.022,0,1.425.015,2.849.033,4.274a1.723,1.723,0,0,1-.791,1.709,1.667,1.667,0,0,1-2.014-.229c-.853-.692-1.745-1.338-2.619-2-.486-.4-.96-.821-1.458-1.207C6.953,5.605,5.5,4.5,4.048,3.384a.635.635,0,0,0-.635-.154c-.25.1-.24.363-.25.591-.009.211-.008.422-.008.633q0,9.61,0,19.22c0,.563.011,1.126.019,1.689a.586.586,0,0,0,.632.656c1.864.06,3.728.033,5.592-.011" transform="translate(0 -0.031)" fill="#010101"/>
        <path id="Trazado_823715" data-name="Trazado 823715" d="M195.076,20.073a2.149,2.149,0,0,1-1.377-.789,1.08,1.08,0,0,1-.254-.648c-.024-1.238,0-2.478.023-3.716.006-.28-.033-.39-.349-.5a4.681,4.681,0,0,1-3.285-3.7,4.509,4.509,0,0,1,2.076-4.7,4.79,4.79,0,0,1,2.522-.721c.457-.01.915-.01,1.372-.007.251,0,.3-.05.331-.354.1-1.049-.137-2.128.457-3.141a3.494,3.494,0,0,1,2.423-1.7,7.044,7.044,0,0,1,1.555-.1c2.165,0,4.329-.014,6.493.006a4.6,4.6,0,0,1,2.287.528,3.36,3.36,0,0,1,1.685,2.387,8.576,8.576,0,0,1,.093,1.981c-.013.326.067.417.4.411a9.509,9.509,0,0,1,2.63.238,4.213,4.213,0,0,1,2.332,1.586,4.29,4.29,0,0,1,.968,2.825A4.38,4.38,0,0,1,215,13.945a2.688,2.688,0,0,1-1.038.437c-.241.016-.18.256-.179.426q.017,6.256.031,12.511a5.59,5.59,0,0,1-1.425,3.953,4.467,4.467,0,0,1-3.271,1.54c-3.729.051-7.46.06-11.189,0a4.373,4.373,0,0,1-2.7-1.159,4.554,4.554,0,0,1-1.736-3.2c-.078-.969-.028-1.949-.015-2.924a1.4,1.4,0,0,1,1.5-1.257,1.6,1.6,0,0,1,1.689,1.778c.008.686-.013,1.372.018,2.057a1.756,1.756,0,0,0,1.578,1.548c3.5.015,7,.034,10.5.007a1.646,1.646,0,0,0,1.792-1.35,3.864,3.864,0,0,0,.117-1.038q.005-4.591,0-9.181a.142.142,0,0,0,0-.185l-.019-.4a.1.1,0,0,0,0-.166q.005-1.286.011-2.571l.031-.02-.047-.042c-.115-.2-.311-.127-.476-.129-.81-.011-1.619-.014-2.429-.014q-5.305,0-10.612,0c-.339,0-.495.043-.473.459.045.9.012,1.795.013,2.692,0,1.518-.209,1.832-1.585,2.354m-.3-11.589c-.184-.01-.376-.085-.54.066a1.385,1.385,0,0,0-1.074,2.077,1.439,1.439,0,0,0,1.375.781q9.1-.005,18.2,0a2.712,2.712,0,0,0,.316-.009,1.337,1.337,0,0,0,1.238-1.368,1.351,1.351,0,0,0-1.08-1.469,8.439,8.439,0,0,0-1.345-.106c-1.073-.014-2.146-.006-3.218,0l-13.557.025-.111,0-.2,0m8.815-3.154V5.307q1.554,0,3.109,0c.368,0,.854.134,1.074-.049.263-.218.058-.724.094-1.1a1.317,1.317,0,0,0,.034-.348c-.089-.232.163-.657-.389-.653-2.6.019-5.2.019-7.8.016-.3,0-.41.117-.4.405.01.439.02.879,0,1.317-.019.337.079.454.439.447,1.282-.023,2.564-.009,3.846-.009" transform="translate(-109.328 0)" fill="#010101"/>
        <path id="Trazado_823716" data-name="Trazado 823716" d="M213.3,201.8a11.121,11.121,0,0,1,2.853,2.632,7.414,7.414,0,0,1,1.921,4.672A3.8,3.8,0,0,1,215,212.621a7.288,7.288,0,0,1-1.555.1c-4.346,0-8.693.064-13.036-.041a3.5,3.5,0,0,1-2.827-1.937,4.2,4.2,0,0,1,.131-4.236,10.748,10.748,0,0,1,2.906-3.756c.25-.2.533-.367.793-.56.537-.4.533-.423-.017-.793a9.938,9.938,0,0,1-1.614-1.333,11.152,11.152,0,0,1-2.932-5.549,10.278,10.278,0,0,1,.4-5.427,11.016,11.016,0,0,1,2.531-4.25,10.679,10.679,0,0,1,5.861-3.161,10.934,10.934,0,0,1,5.916.6,10.048,10.048,0,0,1,3.136,1.861,1.588,1.588,0,0,1,.127,2.009,1.645,1.645,0,0,1-2.018.447,5.681,5.681,0,0,1-.512-.37,7.81,7.81,0,0,0-11.836,3.2,6.836,6.836,0,0,0-.629,3.322,7.763,7.763,0,0,0,14.7,3.144,8.18,8.18,0,0,0,.842-3.928,3.5,3.5,0,0,1,.03-.683,1.367,1.367,0,0,1,1.3-1.273c1.033-.008,1.551.349,1.691,1.231a10.467,10.467,0,0,1-.787,5.524A11.065,11.065,0,0,1,213.3,201.8m-5.664,7.713v.014c2.129,0,4.258,0,6.387,0,.825,0,1.128-.425.811-1.182a7.433,7.433,0,0,0-6.424-4.853,7.593,7.593,0,0,0-7.951,4.772c-.341.832-.056,1.248.842,1.249q3.167,0,6.334,0" transform="translate(-113.303 -104.578)" fill="#010101"/>
        <path id="Trazado_823717" data-name="Trazado 823717" d="M113.325,210.282c-.175-.334-.316-.631-.481-.913a3.092,3.092,0,0,1,2.226-4.394c2.131-.383,4.259-.814,6.371-1.316q3.28-.779,6.6-1.376a3.7,3.7,0,0,1,2.347.25,2.9,2.9,0,0,1,1.539,2.22,6.923,6.923,0,0,1-.661,3.262q-1.177,3.785-2.41,7.552-.619,1.9-1.317,3.765a3.1,3.1,0,0,1-3.815,1.806,2.921,2.921,0,0,1-1.476-1.048,14.032,14.032,0,0,0-1.368-1.556.67.67,0,0,0-.737-.082,27.03,27.03,0,0,1-4.132,1,22.84,22.84,0,0,1-11.409-.858c-.97-.309-1.886-.739-2.847-1.057a6.388,6.388,0,0,1-2.415-1.391,4.36,4.36,0,0,1-1.4-2.879,4.734,4.734,0,0,1,2.568-4.719,4.611,4.611,0,0,1,3.874-.205c.846.281,1.645.7,2.476,1.024a14.119,14.119,0,0,0,3.912.828c.837.078,1.666.072,2.552.088m-10.586.952a1.5,1.5,0,0,0-1.629,1.613,1.619,1.619,0,0,0,1.1,1.452,23.91,23.91,0,0,0,7.112,2.132,21.76,21.76,0,0,0,5.265.062,24.3,24.3,0,0,0,5.8-1.4,1.674,1.674,0,0,1,2,.526c.688.753,1.365,1.515,2.049,2.272.066.073.094.217.224.188s.151-.189.178-.288c.481-1.821,1.138-3.586,1.706-5.379.688-2.174,1.417-4.335,2.128-6.5.173-.528.152-.568-.366-.465-1.741.348-3.483.691-5.216,1.073-2.357.52-4.715,1.035-7.1,1.441-.107.018-.228.011-.27.117-.049.122.091.174.153.244.549.617,1.1,1.238,1.663,1.838a1.614,1.614,0,0,1-.759,2.692,19.86,19.86,0,0,1-8.931.091,21.886,21.886,0,0,1-4.055-1.428,1.915,1.915,0,0,0-1.063-.282" transform="translate(-56.423 -116.5)" fill="#010101"/>
        <path id="Trazado_823718" data-name="Trazado 823718" d="M14.507,100.723a3.4,3.4,0,0,1,1.6-.743,2.925,2.925,0,0,1,3.514,2.24q.987,4.11,1.784,8.265c.325,1.678.765,3.332,1.052,5.012a2.988,2.988,0,0,1-.846,3.07,3.4,3.4,0,0,1-3.491.628c-1.253-.44-2.53-.809-3.788-1.231-1.356-.456-2.692-.975-4.058-1.4-1.554-.482-3.085-1.029-4.628-1.542a3.079,3.079,0,0,1-.84-5.488c.478-.381.906-.825,1.378-1.215a.484.484,0,0,0,.149-.623,27.89,27.89,0,0,1-1.252-5.427,18.212,18.212,0,0,1-.089-4.564,26.717,26.717,0,0,1,2.723-9.7,4.525,4.525,0,0,1,3.194-2.544,4.691,4.691,0,0,1,5.674,3.543,4.926,4.926,0,0,1-.433,3.368,18.09,18.09,0,0,0-1.439,4.141,19.147,19.147,0,0,0-.2,4.205m4.826,15.552a5.048,5.048,0,0,0-.039-.7c-.415-2.017-.814-4.038-1.266-6.047s-.867-3.994-1.229-6.005c-.086-.475-.215-.42-.509-.14-.6.57-1.208,1.13-1.849,1.651a1.449,1.449,0,0,1-1.951.077,1.548,1.548,0,0,1-.589-.909,15.892,15.892,0,0,1-.545-3.492,19.974,19.974,0,0,1,.718-6.467,17.987,17.987,0,0,1,1.139-3.036c.823-1.686-.166-2.824-1.539-2.643a1.533,1.533,0,0,0-1.2.978,21.1,21.1,0,0,0-2.206,7.335,22.6,22.6,0,0,0,.3,7.11A20.789,20.789,0,0,0,9.6,107.563a1.738,1.738,0,0,1-.544,2.335c-.695.621-1.4,1.228-2.1,1.842-.091.08-.226.147-.2.286.026.157.171.177.311.221q1.874.59,3.74,1.2c2.822.93,5.642,1.866,8.537,2.824" transform="translate(-1.997 -49.183)" fill="#010101"/>
        <path id="Trazado_823719" data-name="Trazado 823719" d="M211.661,119.484c-1.286.1-3.152-1.358-3.767-2.87a5.218,5.218,0,0,1,.325-4.455,14.656,14.656,0,0,0,1.336-4.793c.1-.9.2-1.795.214-2.7.008-.4-.083-.53-.458-.295a3.427,3.427,0,0,1-1.6.507,3.134,3.134,0,0,1-3.016-2,17.263,17.263,0,0,1-.626-2.644c-.393-1.774-.78-3.549-1.149-5.328-.407-1.963-.731-3.947-1.207-5.893a3.2,3.2,0,0,1,2.269-3.526,4.375,4.375,0,0,1,2.285.254c2.126.7,4.239,1.439,6.388,2.073,1.358.4,2.685.9,4.031,1.347.681.225,1.37.426,2.057.632a3.117,3.117,0,0,1,2.017,2.678,3.448,3.448,0,0,1-1.437,2.923c-.49.454-1.225.819-1.413,1.373-.17.5.252,1.2.413,1.819a21.118,21.118,0,0,1,.8,4.136,17.557,17.557,0,0,1,.058,3.705c-.13.848-.121,1.725-.224,2.589a24.287,24.287,0,0,1-.678,3.064,27.606,27.606,0,0,1-1.573,4.357c-.88,2-2.432,2.981-5.051,3.045M216,103.374c-.127-.767-.157-1.545-.3-2.318a19.535,19.535,0,0,0-1-3.621,1.823,1.823,0,0,1,.551-2.532c.68-.612,1.358-1.227,2.056-1.818.372-.315.211-.416-.141-.523-.706-.215-1.411-.436-2.108-.677-1.982-.686-4-1.247-5.982-1.946-1.3-.46-2.605-.933-3.951-1.27-.317-.079-.383-.043-.276.273a6.266,6.266,0,0,1,.241.9c.456,2.524,1.061,5.015,1.585,7.524q.383,1.83.756,3.663c.037.18-.089.432.118.529.226.106.384-.121.537-.251.6-.515,1.155-1.091,1.792-1.555a1.544,1.544,0,0,1,2.475.874,18.584,18.584,0,0,1,.56,3.91,20.618,20.618,0,0,1-.279,3.74,19.872,19.872,0,0,1-1.63,5.4,3.049,3.049,0,0,0-.283.719,1.628,1.628,0,0,0,1.23,1.928,1.661,1.661,0,0,0,1.8-.978,26.006,26.006,0,0,0,1.4-3.652,22.9,22.9,0,0,0,.94-5.644,12.329,12.329,0,0,0-.1-2.671" transform="translate(-116.185 -49.217)" fill="#010101"/>
        <path id="Trazado_823720" data-name="Trazado 823720" d="M217.746,37.318c.006.133.013.266.019.4a.118.118,0,0,0,0,.186q0,4.59,0,9.181a3.868,3.868,0,0,1-.117,1.039,1.646,1.646,0,0,1-1.792,1.35c-3.5.027-7,.008-10.5-.007a1.756,1.756,0,0,1-1.578-1.548c-.031-.685-.009-1.371-.018-2.057a1.6,1.6,0,0,0-1.689-1.778,4.388,4.388,0,0,0,.1-1.514c.011-.9,0-1.793,0-2.689,1.376-.522,1.587-.835,1.585-2.354,0-.9.033-1.8-.013-2.692-.021-.416.135-.459.474-.459q5.305.01,10.612,0c.809,0,1.619,0,2.428.014.164,0,.361-.072.476.128l-.012.036.028.026q-.005,1.286-.011,2.571a.107.107,0,0,0,0,.167" transform="translate(-116.426 -19.805)" fill="#c7eefd"/>
        <path id="Trazado_823721" data-name="Trazado 823721" d="M57,12.6a.138.138,0,0,1-.05.206c-.045.03-.092.005-.079-.064L57,12.6" transform="translate(-32.768 -7.26)" fill="#fe5594"/>
        <path id="Trazado_823722" data-name="Trazado 823722" d="M21.008,201.255q0,4.567,0,9.133c0,.278.061.627-.324.657-.37.029-.815.172-1.015-.383a5.8,5.8,0,0,0-10.711-.618c-.11.22-.206.447-.316.667a.511.511,0,0,1-.64.325.586.586,0,0,1-.5-.592c0-.106,0-.211,0-.317q0-8.764,0-17.527c0-.141.01-.282,0-.422-.031-.487.172-.687.68-.685,2.6.011,5.208,0,7.812-.01,1.513,0,3.025.006,4.538-.022.444-.008.474.214.473.556-.007,2.446,0,4.892,0,7.338v1.9Z" transform="translate(-4.321 -110.311)" fill="#0dd1b2"/>
        <path id="Trazado_823723" data-name="Trazado 823723" d="M52.255,191.55a2.55,2.55,0,0,1,.4.9c.528,1.436,1.059,2.872,1.558,4.319a10.7,10.7,0,0,0,.869,2.038,4.272,4.272,0,0,0,1.819,1.617c1.034.52,2.066,1.044,3.108,1.547a.874.874,0,0,1,.551.9q-.029,3.748,0,7.5a.647.647,0,0,1-.562.738c-.382.088-.542-.172-.663-.459a6.455,6.455,0,0,0-1.294-2.091,5.477,5.477,0,0,0-3.435-1.675,5.789,5.789,0,0,0-6.185,3.574c-.17.394-.37.672-.824.54-.272-.079-.583.295-.748,0-.122-.214-.031-.55-.031-.831,0-5.965.008-11.93-.014-17.9,0-.549.081-.737.687-.721,1.578.044,3.158,0,4.737-.014l.009.024Z" transform="translate(-26.953 -110.357)" fill="#c7eefd"/>
        <path id="Trazado_823724" data-name="Trazado 823724" d="M22.252,237.882a2.391,2.391,0,0,1-2.569,2.5,2.635,2.635,0,1,1,.035-5.27,2.568,2.568,0,0,1,2.534,2.77" transform="translate(-9.829 -135.46)" fill="#fe5594"/>
        <path id="Trazado_823725" data-name="Trazado 823725" d="M57.176,237.751a2.7,2.7,0,0,1,2.657-2.663,2.741,2.741,0,0,1,2.611,2.666,2.578,2.578,0,0,1-2.6,2.62,2.614,2.614,0,0,1-2.665-2.622" transform="translate(-32.942 -135.447)" fill="#fe5594"/>
        <path id="Trazado_823726" data-name="Trazado 823726" d="M59.654,191.522l-.023.014-.009-.024.022-.021Z" transform="translate(-34.351 -110.329)" fill="#5fb6fd"/>
        <path id="Trazado_823727" data-name="Trazado 823727" d="M22.631,12.119c.875.665,1.766,1.311,2.619,2a1.668,1.668,0,0,0,2.014.229,1.723,1.723,0,0,0,.791-1.709c-.019-1.425-.032-2.849-.033-4.274,0-.375-.067-.865.334-1.022.311-.122.623.21.893.421q3.985,3.12,7.97,6.238a1.979,1.979,0,0,0,1.1.571,1.569,1.569,0,0,0,1.887-1.75c.018-1.513.008-3.026.012-4.539a3.663,3.663,0,0,1,.01-.421c.059-.49.366-.634.762-.335.833.631,1.651,1.281,2.477,1.92,1.37,1.062,2.723,2.147,4.118,3.174a3.594,3.594,0,0,1,1.531,3.136c-.023,4.486-.008,8.972-.009,13.458,0,.825-.135.989-.969,1.011-.861.023-1.723-.009-2.585-.009l-22.695,0c-.228,0-.456-.016-.684-.025.216-1.172.03-2.38.317-3.545.087-.006.175-.018.262-.018l20.627,0c.58,0,1.161.01,1.74-.016a1.536,1.536,0,0,0,1.35-1.184,1.579,1.579,0,0,0-.917-1.764,3.284,3.284,0,0,0-1.173-.2q-10.339.008-20.68.005c-.509,0-1.018-.019-1.527-.029a28.718,28.718,0,0,1,.317-3.042,7.688,7.688,0,0,1,.832-.086c6.946.024,13.892-.072,20.838.047a4.934,4.934,0,0,0,1.155-.064,1.543,1.543,0,0,0,.951-2.306,1.875,1.875,0,0,0-1.83-.77q-9.628.005-19.256.008c-.966,0-1.933-.018-2.9-.028,0-1.273.015-2.546,0-3.818a2.932,2.932,0,0,1,.353-1.265" transform="translate(-12.775 -4.218)" fill="#f8f9fb"/>
        <path id="Trazado_823728" data-name="Trazado 823728" d="M14,20.483a28.609,28.609,0,0,0-.317,3.042c-.625.083-1.259-.019-1.884.1A1.63,1.63,0,0,0,10.424,25.4a1.68,1.68,0,0,0,1.586,1.3c.664.019,1.329.021,1.993.031-.287,1.166-.1,2.374-.317,3.545-1.864.044-3.728.07-5.592.011a.586.586,0,0,1-.632-.656c-.008-.563-.019-1.126-.019-1.689q0-9.61,0-19.22c0-.211,0-.423.008-.634.01-.227,0-.487.25-.59a.633.633,0,0,1,.635.154c1.45,1.114,2.905,2.221,4.351,3.341.5.387.973.8,1.458,1.207a2.932,2.932,0,0,0-.353,1.265c.017,1.272,0,2.546,0,3.818-.543.006-1.086.014-1.629.016a1.8,1.8,0,0,0-1.75,1.414,1.636,1.636,0,0,0,1.542,1.708c.683.011,1.365.04,2.048.061" transform="translate(-4.287 -4.3)" fill="#c7eefd"/>
        <path id="Trazado_823729" data-name="Trazado 823729" d="M199.464,19.967l13.557-.025c1.073,0,2.145-.01,3.218,0a8.539,8.539,0,0,1,1.345.106,1.352,1.352,0,0,1,1.08,1.469,1.337,1.337,0,0,1-1.238,1.368,2.808,2.808,0,0,1-.316.009q-9.1,0-18.2,0a1.439,1.439,0,0,1-1.375-.782,1.385,1.385,0,0,1,1.074-2.077c.185.016.375.075.54-.066l.2,0c.039.07.076.066.111,0" transform="translate(-113.703 -11.487)" fill="#c7eefd"/>
        <path id="Trazado_823730" data-name="Trazado 823730" d="M216.569,9.618c-1.282,0-2.564-.014-3.846.009-.359.007-.457-.109-.439-.447.025-.438.014-.878,0-1.317-.006-.288.106-.406.4-.405,2.6,0,5.2,0,7.8-.016.551,0,.3.421.389.653a1.317,1.317,0,0,1-.034.348c-.036.379.17.884-.094,1.1-.22.182-.706.048-1.074.049q-1.555,0-3.109,0v.023" transform="translate(-122.308 -4.288)" fill="#f8f9fb"/>
        <path id="Trazado_823731" data-name="Trazado 823731" d="M200.863,19.98c-.165.142-.356.082-.54.066.164-.151.356-.076.54-.066" transform="translate(-115.417 -11.496)" fill="#5fb6fd"/>
        <path id="Trazado_823732" data-name="Trazado 823732" d="M239.033,42.445a.118.118,0,0,1,0-.186.144.144,0,0,1,0,.186" transform="translate(-137.694 -24.348)" fill="#0dd1b2"/>
        <path id="Trazado_823733" data-name="Trazado 823733" d="M238.992,41.095a.107.107,0,0,1,0-.167.1.1,0,0,1,0,.167" transform="translate(-137.672 -23.581)" fill="#0dd1b2"/>
        <path id="Trazado_823734" data-name="Trazado 823734" d="M239.025,34.777,239,34.752l.012-.036.047.042-.031.02" transform="translate(-137.7 -20.002)" fill="#0dd1b2"/>
        <path id="Trazado_823735" data-name="Trazado 823735" d="M202.189,20.007c-.036.068-.072.072-.111,0l.111,0" transform="translate(-116.429 -11.527)" fill="#5fb6fd"/>
        <path id="Trazado_823736" data-name="Trazado 823736" d="M212.617,239.334q-3.167,0-6.334,0c-.9,0-1.183-.417-.842-1.249a7.593,7.593,0,0,1,7.951-4.772,7.433,7.433,0,0,1,6.424,4.853c.317.757.014,1.18-.811,1.182-2.129,0-4.258,0-6.387,0Z" transform="translate(-118.286 -134.399)" fill="#fe5594"/>
        <path id="Trazado_823737" data-name="Trazado 823737" d="M107.06,215.583a1.914,1.914,0,0,1,1.063.282,21.887,21.887,0,0,0,4.055,1.428,19.859,19.859,0,0,0,8.931-.091,1.614,1.614,0,0,0,.759-2.692c-.568-.6-1.114-1.221-1.663-1.838-.063-.07-.2-.122-.153-.244.042-.106.163-.1.27-.117,2.38-.406,4.739-.921,7.1-1.441,1.734-.382,3.476-.725,5.216-1.073.518-.1.54-.064.366.465-.711,2.167-1.439,4.328-2.128,6.5-.568,1.793-1.225,3.558-1.706,5.379-.026.1-.041.257-.178.288s-.158-.115-.224-.188c-.684-.757-1.361-1.519-2.049-2.272a1.674,1.674,0,0,0-2-.526,24.3,24.3,0,0,1-5.8,1.4,21.76,21.76,0,0,1-5.265-.062,23.91,23.91,0,0,1-7.112-2.132,1.619,1.619,0,0,1-1.1-1.452,1.5,1.5,0,0,1,1.629-1.613" transform="translate(-60.744 -120.849)" fill="#5fb6fd"/>
        <path id="Trazado_823738" data-name="Trazado 823738" d="M23.787,120.6c-2.9-.958-5.715-1.895-8.537-2.824q-1.865-.615-3.74-1.2c-.139-.044-.285-.064-.311-.221-.022-.138.113-.206.2-.286.7-.614,1.408-1.221,2.1-1.842a1.738,1.738,0,0,0,.544-2.335,20.789,20.789,0,0,1-1.032-3.571,22.6,22.6,0,0,1-.3-7.11,21.1,21.1,0,0,1,2.206-7.335,1.533,1.533,0,0,1,1.2-.978c1.373-.181,2.362.957,1.539,2.643a17.986,17.986,0,0,0-1.139,3.036,19.974,19.974,0,0,0-.718,6.467,15.892,15.892,0,0,0,.545,3.492,1.548,1.548,0,0,0,.589.909,1.449,1.449,0,0,0,1.951-.077c.64-.521,1.251-1.081,1.849-1.651.294-.28.424-.335.509.14.362,2.011.779,4.011,1.229,6.005s.851,4.03,1.266,6.047a5.047,5.047,0,0,1,.039.7" transform="translate(-6.451 -53.513)" fill="#5fb6fd"/>
        <path id="Trazado_823739" data-name="Trazado 823739" d="M220.28,107.738a12.328,12.328,0,0,1,.1,2.671,22.9,22.9,0,0,1-.94,5.644,26,26,0,0,1-1.4,3.652,1.661,1.661,0,0,1-1.8.978,1.628,1.628,0,0,1-1.23-1.928,3.049,3.049,0,0,1,.283-.719,19.871,19.871,0,0,0,1.63-5.4,20.618,20.618,0,0,0,.279-3.74,18.583,18.583,0,0,0-.56-3.91,1.544,1.544,0,0,0-2.475-.874c-.637.464-1.192,1.039-1.792,1.555-.153.131-.31.357-.537.251-.207-.1-.081-.349-.118-.529q-.376-1.832-.756-3.663c-.524-2.509-1.13-5-1.585-7.524a6.264,6.264,0,0,0-.241-.9c-.107-.316-.042-.352.276-.273,1.346.337,2.648.81,3.951,1.27,1.979.7,4,1.261,5.982,1.946.7.241,1.4.462,2.108.677.352.107.513.208.141.523-.7.591-1.376,1.206-2.056,1.818a1.823,1.823,0,0,0-.551,2.532,19.535,19.535,0,0,1,1,3.621c.142.773.172,1.551.3,2.318" transform="translate(-120.465 -53.581)" fill="#5fb6fd"/>
        <path id="Trazado_823740" data-name="Trazado 823740" d="M18.039,48.565c-.665-.009-1.329-.011-1.993-.031a1.68,1.68,0,0,1-1.586-1.3,1.63,1.63,0,0,1,1.377-1.778c.626-.114,1.259-.012,1.884-.1.509.01,1.018.029,1.527.029q10.34,0,20.68-.005a3.286,3.286,0,0,1,1.173.2,1.579,1.579,0,0,1,.917,1.764,1.535,1.535,0,0,1-1.35,1.184c-.579.026-1.16.016-1.74.017l-20.627,0c-.088,0-.175.011-.262.018" transform="translate(-8.323 -26.134)" fill="#010101"/>
        <path id="Trazado_823741" data-name="Trazado 823741" d="M18.032,33.833c-.683-.021-1.365-.05-2.048-.061a1.636,1.636,0,0,1-1.542-1.708,1.8,1.8,0,0,1,1.75-1.414c.543,0,1.086-.01,1.629-.016.966.01,1.933.028,2.9.028q9.629,0,19.256-.007a1.875,1.875,0,0,1,1.83.769,1.543,1.543,0,0,1-.951,2.307,4.934,4.934,0,0,1-1.155.064c-6.946-.118-13.892-.023-20.838-.047a7.48,7.48,0,0,0-.832.086" transform="translate(-8.317 -17.65)" fill="#010101"/>
      </g>
    </g>
  </g>
</svg>
