<svg xmlns="http://www.w3.org/2000/svg" xmlns:xlink="http://www.w3.org/1999/xlink" width="169" height="169" viewBox="0 0 169 169">
  <defs>
    <clipPath id="clip-path">
      <rect id="Rect치ngulo_378250" data-name="Rect치ngulo 378250" width="112.93" height="112.909" fill="none"/>
    </clipPath>
  </defs>
  <g id="Grupo_1073947" data-name="Grupo 1073947" transform="translate(-719 -2877.811)">
    <g id="Grupo_1073327" data-name="Grupo 1073327" transform="translate(334 819.811)">
      <g id="Grupo_159182" data-name="Grupo 159182" transform="translate(385.001 2058)">
        <path id="Uni칩n_12" data-name="Uni칩n 12" d="M84.5,0A84.5,84.5,0,1,1,0,84.5,84.5,84.5,0,0,1,84.5,0Z" transform="translate(0 0)" fill="#ffae7e"/>
      </g>
    </g>
    <g id="Grupo_1073951" data-name="Grupo 1073951" transform="translate(747.035 2905.856)">
      <g id="Grupo_1073950" data-name="Grupo 1073950" clip-path="url(#clip-path)">
        <path id="Trazado_823531" data-name="Trazado 823531" d="M25.976,22.773a6.419,6.419,0,0,0,1.192-2.9,11.493,11.493,0,0,1,1.768-5.07,10.766,10.766,0,0,1,6.544-4.641,15.459,15.459,0,0,1,3.558-.335c2.469-.005,4.939,0,7.408,0a3.123,3.123,0,0,1,1.3.228A2.159,2.159,0,0,1,48.8,12.686c-.2,1.031-.279,2.085-.45,3.122a13.647,13.647,0,0,1-2.861,6.917,20.172,20.172,0,0,1-3.276,3.217,14.594,14.594,0,0,1-5.464,2.344,15.189,15.189,0,0,1-3.493.361c-2.137,0-4.273.014-6.409-.01-.422-.005-.509.114-.5.518q.031,3.263,0,6.527c0,.425.119.51.52.5,1.548-.025,3.1-.031,4.644,0a2.014,2.014,0,0,1,2.143,1.234,2.539,2.539,0,0,1,.216.938c-.05,1.075.094,2.139.143,3.207.08,1.759.291,3.514.326,5.274s.205,3.53.275,5.3c.06,1.512.155,3.023.228,4.536.1,2.032.239,4.063.359,6.095.081,1.374.127,2.749.2,4.122a18.087,18.087,0,0,1,.127,2.736c-.029.3.11.438.408.425.078,0,.157,0,.235,0,4.7,0,9.407-.007,14.111.011.433,0,.549-.092.545-.538-.023-2.9-.017-5.8-.008-8.7a1.847,1.847,0,0,1,2.509-1.843c1.112.383,2.2.844,3.328,1.163,2.28.648,4.451,1.593,6.7,2.309,1.336.424,2.631.979,3.945,1.473.125.047.256.076.442.131V60.675c0-1.215-.038-2.432.016-3.645.029-.649-.04-1.291-.009-1.934.021-.454-.085-.582-.506-.314-.712.453-1.437.885-2.158,1.324q-1.728,1.05-3.46,2.1c-.262.158-.472.164-.659-.157-.48-.824-.979-1.638-1.5-2.434-.16-.244-.074-.366.1-.475,1.689-1.037,3.378-2.075,5.075-3.1.915-.551,1.843-1.081,2.774-1.6a.63.63,0,0,0,.334-.647c-.012-3.116,0-6.233-.018-9.35,0-.416.1-.524.514-.509.92.034,1.843.034,2.762,0,.421-.016.51.11.507.515-.018,3.077,0,6.155-.022,9.232a.856.856,0,0,0,.532.878c2.548,1.452,5.087,2.922,7.573,4.481.21.132.372.287.2.511-.593.79-.986,1.7-1.524,2.518-.192.293-.352.377-.729.139-1.965-1.239-3.964-2.425-5.96-3.634-.161.079-.079.236-.079.354,0,3.332.009,6.664-.019,10a.693.693,0,0,0,.547.751c1.683.585,3.371,1.156,5.114,1.75,0-1.593,0-3.15,0-4.709,0-.627-.006-1.254,0-1.882a1.848,1.848,0,0,1,2.55-1.843c2.865.878,5.733,1.748,8.595,2.638s5.723,1.832,8.6,2.7c1.051.317.946.469.948-.686q0-3.35,0-6.7c0-.645-.013-1.291.005-1.936.01-.383-.106-.459-.431-.259q-1.62,1-3.247,1.991c-.822.5-1.643,1-2.476,1.48-.213.123-.43.176-.616-.15-.479-.841-1-1.659-1.528-2.471-.162-.25-.035-.364.136-.469Q92.25,53.556,94.817,52q1.347-.811,2.721-1.579a.63.63,0,0,0,.313-.658c-.008-3.1,0-6.194-.016-9.291,0-.428.082-.569.536-.548.9.042,1.8.038,2.7,0,.434-.018.549.091.546.538-.024,2.862.043,5.725-.043,8.584a1.775,1.775,0,0,0,1.12,1.85c2.356,1.284,4.658,2.668,6.928,4.1.336.211.391.38.153.738-.488.734-.92,1.506-1.352,2.275-.2.355-.371.431-.754.19-1.378-.869-2.786-1.691-4.178-2.538-.608-.37-1.207-.755-1.887-1.182v.431q0,5.175,0,10.349c0,.378.074.567.5.69,2.465.712,4.9,1.536,7.346,2.3a2.138,2.138,0,0,1,1.554,2.1c.039,2.92.063,5.842-.008,8.761-.032,1.3-.485,2.133-2.305,2.23-.464.025-1.1-.2-1.345.091-.236.277-.088.89-.089,1.356,0,4.332.016,8.664-.022,13-.005.58.267.7.676.715a5.1,5.1,0,0,1,3.1,1.208,4.73,4.73,0,0,1,1.762,3.446c.268,3.22.121,6.449.108,9.673a5.884,5.884,0,0,1-1.852,4.8,5.656,5.656,0,0,1-3.312,1.36c-2.93.244-5.864.1-8.8.1q-46.329.022-92.658.008a6.193,6.193,0,0,1-2.385-.247,5.769,5.769,0,0,1-3.754-4.3,7.679,7.679,0,0,1-.107-1.62c-.007-3.078-.033-6.155.007-9.232a5.144,5.144,0,0,1,2.95-4.761,6.453,6.453,0,0,1,3.021-.545c.5,0,1.189.227,1.456-.094.253-.305.085-.968.087-1.474,0-1.823-.014-3.646.013-5.468.006-.435-.138-.5-.526-.494-1.741.019-3.484.022-5.225-.007A2.027,2.027,0,0,1,.009,86.959a9.257,9.257,0,0,1,6.464-8.842c1.07-.31,1.063-.334,1.063-1.459q0-2.087,0-4.175c0-1.661.778-2.431,2.46-2.437.96,0,1.921-.012,2.88.006.318.006.42-.067.432-.414.067-1.924.167-3.846.246-5.77.056-1.354.152-2.71.231-4.065.084-1.433.155-2.867.236-4.3q.118-2.092.235-4.184c.084-1.454.151-2.908.236-4.361.126-2.151.289-4.3.358-6.454a19.761,19.761,0,0,1,.226-2.705c.184-1.072.818-1.552,2.031-1.6,1.663-.068,3.331-.032,5-.016.363,0,.5-.063.493-.469-.023-2.195-.019-4.39,0-6.586,0-.366-.068-.5-.471-.491-1.685.022-3.37,0-5.056,0a12.365,12.365,0,0,1-5.377-1.332,11.93,11.93,0,0,1-5.8-5.769,13.43,13.43,0,0,1-1.3-4.56c-.145-1.567-.407-3.123-.566-4.689-.078-.766-.15-1.532-.245-2.3a1.87,1.87,0,0,1,2.762-1.8c.655.279,1.284.619,1.927.926a7.169,7.169,0,0,0,2.974.7,18.271,18.271,0,0,1,6.412.927,12.184,12.184,0,0,1,3.752,2.362,14.011,14.011,0,0,1,1.7,1.832,11.669,11.669,0,0,1,2.111,5.188c.145.769.234,1.548.361,2.322.016.1.105.179.195.322M103.5,73.456c-.008,1.233-.006,2.467-.029,3.7-.006.337.111.438.439.432q1.439-.026,2.879,0c.347.007.48-.084.476-.456-.017-1.763-.007-3.526-.009-5.289,0-.171.049-.4-.164-.459a6.626,6.626,0,0,0-1.78-.521,8.323,8.323,0,0,0-1.4-.548c-.353-.134-.443-.022-.435.326.02.938.017,1.876.024,2.814m-79.021-29.8c1.8.009,3.6,0,5.406.04.486.01.611-.152.554-.6a21.864,21.864,0,0,1-.216-2.788c0-.289-.134-.362-.4-.36-1.782.016-3.565.022-5.348.031q-2.7-.013-5.4-.028c-.362,0-.468.2-.478.517a13.732,13.732,0,0,1-.105,2.68c-.057.25-.023.546.407.54,1.858-.024,3.716-.025,5.575-.033M95.975,75.692c-.006.507,0,1.014-.022,1.521-.01.277.094.38.372.373.546-.014,1.093.015,1.638-.009.576-.025,1.354.265,1.675-.126s.095-1.158.078-1.76c.075-2.025-.061-4.052.06-6.078.012-.2.051-.539-.339-.655-1.151-.343-2.289-.732-3.463-1.112Zm-7.526,0c-.006.507,0,1.014-.022,1.52-.01.277.093.381.372.374.546-.014,1.093.015,1.638-.009.576-.025,1.354.264,1.675-.126s.094-1.158.079-1.76q.008-4.285.017-8.57c0-.224,0-.416-.278-.5-1.149-.362-2.294-.74-3.482-1.126Zm-7.525,0c-.006.507,0,1.014-.022,1.52-.01.277.094.381.372.374.546-.014,1.093.015,1.638-.009.576-.025,1.353.264,1.675-.126s.094-1.158.079-1.76q.008-5.461.017-10.922c0-.224,0-.416-.277-.5-1.149-.363-2.294-.742-3.482-1.129Zm-61.517-5.67a1.374,1.374,0,0,0,.174.023c3.955,0,7.911,0,11.866.017.417,0,.489-.177.46-.535-.132-1.647-.313-3.293-.355-4.942-.055-2.13-.241-4.25-.341-6.375-.093-1.992-.2-3.985-.282-5.978-.059-1.422-.246-2.838-.236-4.266,0-.337-.119-.524-.526-.518-1.9.027-3.8.022-5.7.028-1.918,0-3.837,0-5.755-.02-.323,0-.456.1-.473.43-.107,1.978-.209,3.957-.342,5.935-.095,1.415-.177,2.834-.228,4.25-.06,1.693-.212,3.379-.271,5.072-.069,2-.219,4.007-.327,6.011-.056,1.034-.156.886.807.9.508.005,1.017-.017,1.525-.027M47.029,81.341c0-.353-.01-.706,0-1.058.022-.6.27-.842.867-.845.8,0,1.607-.02,2.409.007.392.014.5-.12.492-.5-.02-1.43,0-2.86-.01-4.29,0-.939.12-.823-.8-.824q-10.312,0-20.625,0c-5.8,0-11.6.008-17.394-.014-.554,0-.681.162-.668.686q.052,2.144,0,4.29c-.012.5.093.676.635.66,1.507-.042,3.016,0,4.524-.022.383,0,.525.113.5.5-.028.469-.007.94-.007,1.41s-.049.941-.015,1.408c.03.408-.131.475-.495.471-1.568-.018-3.135,0-4.7-.015-.342,0-.467.058-.466.441q.023,6.144,0,12.288c0,.4.128.474.494.472q4.233-.021,8.465,0c.39,0,.481-.109.48-.487-.014-3.587-.006-7.174-.009-10.76,0-1.273-.015-2.546-.023-3.82a2.13,2.13,0,0,1,2.457-1.9h8.571q4.7,0,9.392,0A2.033,2.033,0,0,1,43.3,81.331q-.006,7.346-.019,14.691c0,.333.127.377.411.375q3.349-.014,6.7,0c.321,0,.433-.071.431-.415q-.017-6.171,0-12.341c0-.4-.154-.434-.478-.429-.979.017-1.959,0-2.938.011-.276,0-.372-.067-.361-.358.02-.507-.007-1.017-.014-1.525M12.867,100.156c-2.449,0-4.9-.006-7.347,0a1.556,1.556,0,0,0-1.732,1.393c-.042,1.41-.016,2.822-.011,4.233,0,.3.093.408.439.277a4.958,4.958,0,0,1,1.777-.266q50.4.008,100.809.008a6.243,6.243,0,0,1,1.841.245c.415.128.5.024.5-.378-.017-1.234,0-2.469-.008-3.7a1.72,1.72,0,0,0-1.7-1.8c-.234-.019-.47-.01-.705-.01H44.006a1.99,1.99,0,0,1-.352,0c-.277-.05-.363.1-.445.331a1.966,1.966,0,0,1-2.22,1.553q-8.317,0-16.635,0a15.031,15.031,0,0,1-1.66.031,1.99,1.99,0,0,1-1.87-1.477c-.12-.385-.314-.443-.669-.44-2.43.015-4.859.008-7.289.008M65.922,81.333c-3.584,0-7.168.01-10.751-.012-.5,0-.615.139-.613.622q.028,6.934,0,13.868c0,.45.1.6.58.6q10.722-.024,21.444,0c.474,0,.582-.14.581-.593q-.023-6.933,0-13.868c0-.479-.108-.628-.608-.625-3.545.022-7.089.012-10.634.012m-11.3-18.025a1.81,1.81,0,0,0-.046.266q0,6.761-.009,13.522c0,.411.189.488.542.485,1.41-.012,2.821,0,4.232,0H76.562c.3,0,.614.11.6-.428-.031-1.8-.021-3.606,0-5.409,0-.35-.152-.473-.448-.569-.67-.216-1.33-.46-1.993-.7l-20.1-7.166M92.2,81.337q-5.379,0-10.757,0c-.292,0-.546-.071-.544.419q.033,7.113.006,14.227c0,.342.108.424.431.416.881-.02,1.765-.042,2.644.006.544.03.72-.087.712-.68-.038-2.782.015-5.565-.029-8.347-.026-1.689.878-2.248,2.256-2.263,3.506-.039,7.014-.032,10.521,0a1.956,1.956,0,0,1,2.075,1.257,3.769,3.769,0,0,1,.214,1.245c0,2.744.007,5.487-.012,8.23,0,.417.067.581.532.558.9-.043,1.8-.038,2.7,0,.435.017.551-.095.549-.541-.019-4.232-.012-8.465-.01-12.7a3.838,3.838,0,0,1-.013-1.3c.141-.428-.087-.54-.522-.538-3.586.019-7.171.011-10.756.011m-10.4,31.99h19.453c.648,0,.693-.051.544-.667a4.415,4.415,0,0,1,.008-2.37c.216-.717.188-.726-.551-.726q-19.042,0-38.082,0c-.231,0-.51.1-.684-.06-.278-.254-.432.036-.609.1-.238.091-.058.308-.013.457a4.5,4.5,0,0,1,.082,2.487c-.2.775-.189.778.636.778H81.8m-50.746-3.763H11.776c-.157,0-.314.006-.47,0-.3-.012-.378.107-.282.395a4.37,4.37,0,0,1,.033,2.878c-.132.381.017.5.38.494.705-.008,1.41,0,2.116,0H50.4c.721,0,.744-.023.577-.731a4.467,4.467,0,0,1,.042-2.371c.2-.653.169-.662-.515-.662H31.052m1.088-84.679c.837-.058,1.847.021,2.864-.1a10.9,10.9,0,0,0,7.565-4.254,12.4,12.4,0,0,0,2.354-6.648c.027-.255-.129-.294-.326-.289a74.522,74.522,0,0,0-7.506.127,6.7,6.7,0,0,0-5.719,4.6,13.626,13.626,0,0,0-.564,2.444,9.886,9.886,0,0,1-1.371,3.413c-.118.19-.388.381-.244.612.133.213.433.089.657.093.705.012,1.411,0,2.29,0m-12.668,0c.764,0,1.528-.013,2.29.005.467.011.668-.052.529-.629a15.3,15.3,0,0,1-.395-2.639A8.2,8.2,0,0,0,20.419,17.3a8.419,8.419,0,0,0-7.035-3.688,15.58,15.58,0,0,1-5.14-.629c-.289-.1-.376.055-.335.287.237,1.342.188,2.717.471,4.053a8.844,8.844,0,0,0,6.285,7.139,15.623,15.623,0,0,0,4.807.425M39.519,90.806h0c0-2.37-.009-4.74.009-7.111,0-.387-.105-.493-.487-.493q-7.08.016-14.16,0c-.323,0-.437.078-.436.421q.017,7.111,0,14.221c0,.38.13.444.474.443q6.992-.02,13.983,0c.474,0,.629-.1.623-.6-.029-2.291-.013-4.583-.013-6.875M92.2,88.88c-1.115,0-2.231.008-3.346-.006-.3,0-.409.076-.408.393q.018,3.346,0,6.693c0,.343.114.424.438.422q3.317-.018,6.634,0c.323,0,.44-.079.438-.422q-.021-3.317,0-6.635c0-.374-.12-.459-.469-.453-1.1.02-2.192.008-3.287.008M3.771,111.448a1.865,1.865,0,0,0,1.871,1.892A1.727,1.727,0,0,0,7.5,111.468a1.824,1.824,0,0,0-1.951-1.886,1.811,1.811,0,0,0-1.776,1.866m101.6.008a1.882,1.882,0,0,0,1.875,1.891,1.815,1.815,0,0,0,1.873-1.826,2,2,0,0,0-1.977-1.949,1.856,1.856,0,0,0-1.771,1.884m-47.149.118a1.8,1.8,0,0,0-1.892-1.993,1.87,1.87,0,0,0-1.769,1.875,1.948,1.948,0,0,0,1.878,1.9,1.737,1.737,0,0,0,1.783-1.779M4.013,85.1c1.117,0,2.2,0,3.287,0,.287,0,.235-.194.236-.36q0-1.258,0-2.517c0-.647-.017-.66-.574-.365A6.218,6.218,0,0,0,4.013,85.1" transform="translate(0 -4.214)"/>
        <path id="Trazado_823532" data-name="Trazado 823532" d="M182.222,18.787c-3.154,0-6.309.034-9.462-.011a5.653,5.653,0,0,1-5.239-4.45,5.505,5.505,0,0,1,3.029-6.2,1.724,1.724,0,0,0,1-1.3A9.242,9.242,0,0,1,177,.663,7.587,7.587,0,0,1,180.109,0a9.508,9.508,0,0,1,6.652,2.307,8.67,8.67,0,0,1,2.78,4.669.6.6,0,0,0,.725.531,9.04,9.04,0,0,1,3.542.39,5.2,5.2,0,0,1,3.584,4.267,5.35,5.35,0,0,1-2.73,5.846,5.816,5.816,0,0,1-2.977.767c-3.154.027-6.308.01-9.463.01Zm.144-3.762v0q4.73,0,9.46,0a1.734,1.734,0,0,0,1.822-2.16c-.168-1.081-.93-1.554-2.1-1.6-1.056-.04-2.115-.015-3.173-.007a2.026,2.026,0,0,1-2.159-2.05,6,6,0,0,0-.383-1.918,5.655,5.655,0,0,0-10.9,1.885,1.944,1.944,0,0,1-1.979,2.085,1.859,1.859,0,0,0-1.322.644,1.783,1.783,0,0,0-.347,1.9,1.763,1.763,0,0,0,1.746,1.213q4.671,0,9.342,0" transform="translate(-88.374 0)"/>
        <path id="Trazado_823533" data-name="Trazado 823533" d="M121.25,48.787c-3.191,0-5.679,0-8.168,0a5.647,5.647,0,0,1-1.363-11.08,7.242,7.242,0,0,1,1.428-.2c.254-.024.419-.051.489-.366a4.474,4.474,0,0,1,.405-1.291,8.143,8.143,0,0,1,.905-1.262,7.8,7.8,0,0,1,4.347-2.573,7.368,7.368,0,0,1,8.3,4.333,5.564,5.564,0,0,1,.281.8c.125.5.674.428,1.03.448a5.532,5.532,0,0,1,5.045,5.82,5.434,5.434,0,0,1-4.966,5.253c-2.807.29-5.624.017-7.732.112m-.531-3.754c2.527,0,5.054.021,7.58-.009a1.679,1.679,0,0,0,1.864-1.784,1.8,1.8,0,0,0-1.561-1.88,17.942,17.942,0,0,0-1.976-.092,1.9,1.9,0,0,1-1.923-1.345c-.16-.529-.172-1.1-.325-1.633a3.763,3.763,0,0,0-7.363.94,1.927,1.927,0,0,1-1.9,2.042c-.669.087-1.329-.059-2,0a1.933,1.933,0,0,0-1.748,2.087,1.884,1.884,0,0,0,1.882,1.677h7.463" transform="translate(-56.81 -16.833)"/>
        <path id="Trazado_823534" data-name="Trazado 823534" d="M17.075,203.228c2.43,0,4.859.007,7.289-.008.355,0,.549.056.668.44a1.991,1.991,0,0,0,1.87,1.477,15.03,15.03,0,0,0,1.66-.031q8.317.008,16.635,0a1.966,1.966,0,0,0,2.22-1.553c.082-.228.169-.382.445-.332a1.99,1.99,0,0,0,.352,0h62.719c.235,0,.472-.009.705.01a1.72,1.72,0,0,1,1.7,1.8c.009,1.235-.009,2.47.009,3.7.006.4-.084.507-.5.379a6.244,6.244,0,0,0-1.841-.245q-50.4-.006-100.809-.008a4.979,4.979,0,0,0-1.777.266c-.346.131-.438.024-.439-.277,0-1.411-.032-2.823.01-4.232a1.557,1.557,0,0,1,1.733-1.394c2.449-.008,4.9,0,7.347,0" transform="translate(-4.208 -107.287)" fill="#4795aa"/>
        <path id="Trazado_823535" data-name="Trazado 823535" d="M126.941,163.357c3.545,0,7.089.01,10.634-.012.5,0,.611.146.609.625q-.027,6.934,0,13.868c0,.453-.107.594-.581.593q-10.722-.023-21.445,0c-.476,0-.581-.145-.579-.6q.023-6.933,0-13.868c0-.483.117-.625.612-.622,3.584.022,7.168.012,10.752.011m-5.705,5.654c-.47,0-.941.018-1.41-.006-.348-.018-.486.078-.476.455.025.959.02,1.919,0,2.879-.006.333.1.441.435.434.959-.018,1.919-.015,2.879,0,.306,0,.463-.051.455-.412-.022-.986-.018-1.973,0-2.959.005-.32-.12-.4-.414-.394-.489.017-.979,0-1.469,0m7.475,3.755c.509,0,1.019-.014,1.527.005.3.012.411-.091.406-.4q-.023-1.509,0-3.018c0-.31-.152-.346-.4-.345-.979.008-1.958.009-2.937,0-.28,0-.431.05-.426.382q.025,1.5,0,3c-.006.329.138.394.423.385.469-.015.939,0,1.41,0" transform="translate(-61.019 -86.238)" fill="#296277"/>
        <path id="Trazado_823536" data-name="Trazado 823536" d="M29.606,154.969c0-.47-.021-.942.007-1.41.023-.388-.12-.506-.5-.5-1.508.018-3.017-.019-4.524.022-.542.015-.647-.161-.635-.661q.05-2.144,0-4.29c-.012-.524.114-.689.668-.686,5.8.022,11.6.013,17.394.013q10.312,0,20.625,0c.917,0,.792-.116.8.824.007,1.43-.01,2.86.01,4.29.005.38-.1.515-.492.5-.8-.028-1.606-.011-2.409-.008-.6,0-.845.243-.867.845-.013.352,0,.705,0,1.058l-3.733-.01a2.033,2.033,0,0,0-2.186-1.892q-4.7,0-9.392,0H35.792a2.131,2.131,0,0,0-2.457,1.9H29.606" transform="translate(-12.644 -77.843)" fill="#296277"/>
        <path id="Trazado_823537" data-name="Trazado 823537" d="M115.643,125.187l20.1,7.166c.663.236,1.324.481,1.993.7.3.1.452.219.448.569-.017,1.8-.027,3.606,0,5.409.009.537-.308.428-.6.428H120.363c-1.411,0-2.822-.007-4.232,0-.354,0-.543-.075-.542-.485q.015-6.761.008-13.522a1.811,1.811,0,0,1,.046-.266" transform="translate(-61.024 -66.092)" fill="#4795aa"/>
        <path id="Trazado_823538" data-name="Trazado 823538" d="M46.174,91.615c1.9-.007,3.8,0,5.7-.028.406-.006.528.182.525.518-.01,1.427.177,2.843.236,4.265.083,1.993.189,3.986.283,5.979.1,2.124.286,4.245.34,6.375.042,1.649.224,3.3.355,4.942.028.357-.043.536-.46.535-3.955-.015-7.911-.013-11.866-.017a1.377,1.377,0,0,1-.174-.023,3.609,3.609,0,0,1,.5-1.366,51.283,51.283,0,0,0,4.041-13.026,43.343,43.343,0,0,0,.525-8.154" transform="translate(-21.704 -48.353)" fill="#296277"/>
        <path id="Trazado_823539" data-name="Trazado 823539" d="M182.68,163.367c3.585,0,7.171.008,10.756-.011.435,0,.663.11.523.538a3.849,3.849,0,0,0,.012,1.3c0,4.233-.009,8.466.01,12.7,0,.447-.114.559-.549.541-.9-.036-1.8-.042-2.7,0-.465.022-.535-.141-.532-.558.018-2.744.008-5.487.012-8.23A3.781,3.781,0,0,0,190,168.4a1.957,1.957,0,0,0-2.075-1.257c-3.507-.031-7.014-.038-10.521,0-1.378.015-2.282.574-2.256,2.263.043,2.782-.009,5.565.028,8.347.008.593-.168.71-.712.68-.879-.048-1.763-.026-2.644-.006-.323.007-.431-.074-.431-.416q.016-7.113-.006-14.227c0-.49.252-.419.544-.419q5.378,0,10.756,0" transform="translate(-90.48 -86.243)" fill="#b5c3c6"/>
        <path id="Trazado_823540" data-name="Trazado 823540" d="M150.867,226.752H131.649c-.825,0-.836,0-.636-.778a4.5,4.5,0,0,0-.082-2.488c-.045-.149-.225-.366.013-.457.177-.068.331-.358.609-.1.174.159.454.06.684.06q19.042,0,38.082,0c.74,0,.768.008.552.726a4.413,4.413,0,0,0-.008,2.369c.149.617.1.667-.545.667q-9.726,0-19.452,0" transform="translate(-69.069 -117.639)" fill="#296277"/>
        <path id="Trazado_823541" data-name="Trazado 823541" d="M43.338,223.172H62.791c.683,0,.711.009.515.662a4.462,4.462,0,0,0-.042,2.371c.167.707.144.73-.577.73H25.838c-.705,0-1.41-.006-2.116,0-.362,0-.511-.112-.38-.494a4.369,4.369,0,0,0-.032-2.878c-.1-.288-.019-.407.282-.395.156.007.313,0,.47,0H43.338" transform="translate(-12.286 -117.823)" fill="#296277"/>
        <path id="Trazado_823542" data-name="Trazado 823542" d="M29.581,163.386H33.31c.008,1.273.021,2.546.023,3.82,0,3.587,0,7.173.009,10.76,0,.378-.09.49-.48.487q-4.233-.026-8.465,0c-.366,0-.5-.07-.494-.472q.024-6.145,0-12.289c0-.383.124-.445.466-.441,1.568.017,3.135,0,4.7.015.363,0,.525-.062.495-.471-.034-.466.007-.938.015-1.408" transform="translate(-12.619 -86.259)" fill="#b5c3c6"/>
        <path id="Trazado_823543" data-name="Trazado 823543" d="M64.745,31.121c-.879,0-1.585.008-2.29,0-.224,0-.524.12-.657-.093-.144-.231.127-.422.244-.612A9.884,9.884,0,0,0,63.413,27a13.622,13.622,0,0,1,.564-2.444,6.706,6.706,0,0,1,5.719-4.6,74.523,74.523,0,0,1,7.506-.127c.2-.005.353.034.326.289a12.4,12.4,0,0,1-2.354,6.648,10.9,10.9,0,0,1-7.565,4.254c-1.017.12-2.027.042-2.864.1" transform="translate(-32.604 -10.451)" fill="#78b43e"/>
        <path id="Trazado_823544" data-name="Trazado 823544" d="M28.307,30.438a15.637,15.637,0,0,1-4.807-.425,8.844,8.844,0,0,1-6.285-7.139c-.283-1.336-.235-2.711-.472-4.053-.041-.232.046-.392.335-.287a15.581,15.581,0,0,0,5.14.628,8.423,8.423,0,0,1,7.035,3.689,8.2,8.2,0,0,1,1.478,4.324,15.277,15.277,0,0,0,.4,2.639c.139.575-.062.639-.529.628-.763-.018-1.527,0-2.29,0" transform="translate(-8.835 -9.768)" fill="#78b43e"/>
        <path id="Trazado_823545" data-name="Trazado 823545" d="M66.865,174.931c0,2.292-.017,4.584.013,6.875.006.505-.149.6-.623.6q-6.991-.024-13.983,0c-.344,0-.475-.063-.474-.443q.018-7.111,0-14.221c0-.344.113-.422.436-.421q7.08.015,14.16,0c.382,0,.49.105.487.493-.018,2.37-.009,4.74-.009,7.11Zm-9.679,5.588a11.534,11.534,0,0,0,2.1-.127,6.94,6.94,0,0,0,5.52-5.5,13.237,13.237,0,0,0,.082-3.782,1.653,1.653,0,0,0-1.454-1.748,11.818,11.818,0,0,0-3.6-.009,6.653,6.653,0,0,0-5.66,4.479,11.184,11.184,0,0,0-.441,4.679,1.927,1.927,0,0,0,1.993,2.01c.45,0,.9,0,1.464,0" transform="translate(-27.346 -88.339)" fill="#78b43e"/>
        <path id="Trazado_823546" data-name="Trazado 823546" d="M43.529,91.623A43.343,43.343,0,0,1,43,99.777,51.283,51.283,0,0,1,38.962,112.8a3.609,3.609,0,0,0-.5,1.366c-.508.01-1.017.033-1.525.028-.963-.01-.863.138-.807-.9.108-2,.258-4.006.327-6.012.059-1.692.211-3.379.271-5.072.051-1.416.133-2.836.228-4.251.133-1.977.235-3.956.342-5.934.017-.326.15-.433.473-.431,1.918.017,3.836.016,5.755.021" transform="translate(-19.059 -48.361)" fill="#4795aa"/>
        <path id="Trazado_823547" data-name="Trazado 823547" d="M91.7,163.365l3.733.01c.007.508.034,1.018.014,1.525-.012.291.085.363.361.358.98-.014,1.959.005,2.938-.012.324-.005.48.028.478.429q-.025,6.17,0,12.341c0,.343-.11.417-.431.415q-3.349-.019-6.7,0c-.284,0-.412-.042-.411-.375q.022-7.346.019-14.691" transform="translate(-48.401 -86.248)" fill="#b5c3c6"/>
        <path id="Trazado_823548" data-name="Trazado 823548" d="M191.121,179.347c1.1,0,2.192.013,3.287-.008.349-.006.473.079.47.453q-.026,3.317,0,6.635c0,.343-.115.424-.438.422q-3.317-.018-6.634,0c-.323,0-.44-.079-.438-.422q.021-3.346,0-6.693c0-.317.109-.4.407-.393,1.115.014,2.23.005,3.346.005" transform="translate(-98.92 -94.682)" fill="#78b43e"/>
        <path id="Trazado_823549" data-name="Trazado 823549" d="M171.429,137.379V124.824c1.188.387,2.332.766,3.482,1.129.278.088.278.28.277.5q-.011,5.461-.017,10.922h-3.742" transform="translate(-90.506 -65.901)" fill="#4795aa"/>
        <path id="Trazado_823550" data-name="Trazado 823550" d="M187.372,140.012v-10.2c1.187.386,2.332.764,3.481,1.126.278.087.278.279.278.5q-.011,4.285-.017,8.57h-3.741" transform="translate(-98.923 -68.534)" fill="#4795aa"/>
        <path id="Trazado_823551" data-name="Trazado 823551" d="M203.314,142.645V134.8c1.173.38,2.311.769,3.462,1.112.39.116.352.45.339.655-.121,2.026.015,4.053-.06,6.077h-3.741" transform="translate(-107.339 -71.167)" fill="#4795aa"/>
        <path id="Trazado_823552" data-name="Trazado 823552" d="M45.151,79.416c-1.858.009-3.716.009-5.575.033-.43.006-.464-.29-.407-.54a13.763,13.763,0,0,0,.105-2.68c.009-.315.116-.52.477-.517q2.7.019,5.4.028c-.053,1.225-.056,2.451,0,3.676" transform="translate(-20.668 -39.971)" fill="#b5c3c6"/>
        <path id="Trazado_823553" data-name="Trazado 823553" d="M221.044,141.19a6.626,6.626,0,0,1,1.78.521c.213.06.164.288.164.459,0,1.763-.008,3.526.009,5.289,0,.372-.129.464-.476.456-.96-.019-1.92-.017-2.88,0-.328.006-.445-.095-.439-.432.023-1.233.021-2.467.029-3.7a.374.374,0,0,0,.445-.2,16.368,16.368,0,0,0,.966-1.862c.073-.224.138-.453.4-.535" transform="translate(-115.728 -74.541)" fill="#296277"/>
        <path id="Trazado_823554" data-name="Trazado 823554" d="M51.818,79.412c-.057-1.225-.054-2.451,0-3.676,1.783-.009,3.565-.016,5.348-.031.264,0,.4.07.4.36a21.864,21.864,0,0,0,.216,2.787c.057.448-.069.61-.555.6-1.8-.038-3.6-.031-5.406-.04" transform="translate(-27.335 -39.968)" fill="#78b43e"/>
        <path id="Trazado_823555" data-name="Trazado 823555" d="M7.981,225.076a1.863,1.863,0,1,1,3.726.02,1.727,1.727,0,0,1-1.856,1.872,1.864,1.864,0,0,1-1.871-1.892" transform="translate(-4.21 -117.842)" fill="#b5c3c6"/>
        <path id="Trazado_823556" data-name="Trazado 823556" d="M223.2,225.074a1.856,1.856,0,0,1,1.771-1.884,2,2,0,0,1,1.977,1.949,1.815,1.815,0,0,1-1.873,1.826,1.882,1.882,0,0,1-1.875-1.891" transform="translate(-117.835 -117.833)" fill="#b5c3c6"/>
        <path id="Trazado_823557" data-name="Trazado 823557" d="M119.237,225.2a1.736,1.736,0,0,1-1.783,1.778,1.947,1.947,0,0,1-1.878-1.9,1.87,1.87,0,0,1,1.769-1.875,1.8,1.8,0,0,1,1.892,1.994" transform="translate(-61.017 -117.841)" fill="#b5c3c6"/>
        <path id="Trazado_823558" data-name="Trazado 823558" d="M8.5,167.519a6.218,6.218,0,0,1,2.951-3.24c.557-.3.574-.282.574.365q0,1.258,0,2.517c0,.166.051.362-.236.36-1.085-.006-2.17,0-3.287,0" transform="translate(-4.488 -86.633)" fill="#b5c3c6"/>
        <path id="Trazado_823559" data-name="Trazado 823559" d="M187.346,151.42h3.742c.016.6.252,1.359-.078,1.759s-1.1.1-1.675.126c-.545.024-1.093-.005-1.638.009-.279.008-.382-.1-.372-.373.019-.507.016-1.013.023-1.52" transform="translate(-98.897 -79.942)" fill="#296277"/>
        <path id="Trazado_823560" data-name="Trazado 823560" d="M171.4,151.42h3.742c.015.6.252,1.359-.079,1.759s-1.1.1-1.675.126c-.545.024-1.092-.005-1.638.009-.278.008-.382-.1-.372-.373.019-.507.016-1.013.022-1.52" transform="translate(-90.48 -79.942)" fill="#296277"/>
        <path id="Trazado_823561" data-name="Trazado 823561" d="M203.288,151.419h3.741c.017.6.252,1.359-.078,1.76s-1.1.1-1.675.126c-.545.024-1.093-.005-1.639.009-.278.008-.382-.1-.372-.373.019-.507.016-1.013.022-1.52" transform="translate(-107.314 -79.941)" fill="#296277"/>
        <path id="Trazado_823562" data-name="Trazado 823562" d="M221.05,140.516c-.262.082-.328.311-.4.535a16.371,16.371,0,0,1-.966,1.862.374.374,0,0,1-.445.2c-.006-.938,0-1.876-.024-2.814-.008-.348.082-.461.435-.326a8.3,8.3,0,0,1,1.4.548" transform="translate(-115.734 -73.867)" fill="#4795aa"/>
        <path id="Trazado_823563" data-name="Trazado 823563" d="M186.561,19.219q-4.671,0-9.342,0A1.763,1.763,0,0,1,175.472,18a1.783,1.783,0,0,1,.347-1.9,1.859,1.859,0,0,1,1.322-.644,1.944,1.944,0,0,0,1.979-2.085,5.655,5.655,0,0,1,10.9-1.885,6,6,0,0,1,.383,1.918,2.026,2.026,0,0,0,2.159,2.05c1.058-.008,2.117-.033,3.173.007,1.173.044,1.934.516,2.1,1.6a1.734,1.734,0,0,1-1.822,2.16q-4.73.006-9.46,0Z" transform="translate(-92.568 -4.194)" fill="#b5c3c6"/>
        <path id="Trazado_823564" data-name="Trazado 823564" d="M124.922,49.2h-7.463a1.885,1.885,0,0,1-1.882-1.677,1.933,1.933,0,0,1,1.748-2.087c.668-.057,1.328.089,2,0a1.927,1.927,0,0,0,1.9-2.042,3.763,3.763,0,0,1,7.363-.94c.153.532.164,1.1.325,1.633a1.9,1.9,0,0,0,1.923,1.346,17.944,17.944,0,0,1,1.976.092,1.8,1.8,0,0,1,1.561,1.879,1.679,1.679,0,0,1-1.864,1.785c-2.526.03-5.053.009-7.58.009" transform="translate(-61.014 -20.999)" fill="#b5c3c6"/>
        <path id="Trazado_823565" data-name="Trazado 823565" d="M125.456,175.338c.49,0,.98.012,1.469,0,.294-.01.42.075.414.394-.017.986-.02,1.973,0,2.959.008.36-.149.416-.455.412-.959-.014-1.919-.017-2.879,0-.332.006-.441-.1-.435-.435.018-.959.023-1.919,0-2.879-.01-.376.128-.473.476-.454.469.025.939.006,1.41.006" transform="translate(-65.239 -92.565)"/>
        <path id="Trazado_823566" data-name="Trazado 823566" d="M141.351,179.1c-.47,0-.94-.011-1.41,0-.285.009-.429-.057-.423-.385q.025-1.5,0-3c-.006-.331.145-.385.426-.382.979.011,1.958.009,2.937,0,.249,0,.405.034.4.345q-.02,1.509,0,3.018c0,.309-.1.412-.406.4-.508-.02-1.018-.006-1.527-.006" transform="translate(-73.659 -92.569)"/>
        <path id="Trazado_823567" data-name="Trazado 823567" d="M59.3,182.633c-.564,0-1.014,0-1.464,0a1.927,1.927,0,0,1-1.993-2.01,11.191,11.191,0,0,1,.441-4.679,6.652,6.652,0,0,1,5.659-4.479,11.818,11.818,0,0,1,3.6.009A1.653,1.653,0,0,1,67,173.222,13.238,13.238,0,0,1,66.913,177a6.94,6.94,0,0,1-5.52,5.5,11.534,11.534,0,0,1-2.1.127m.776-3.751a3.361,3.361,0,0,0,2.312-.983,3.669,3.669,0,0,0,.941-2.44c.032-.334-.219-.364-.474-.355a3.263,3.263,0,0,0-3.287,3.125c-.033.49.065.769.509.652" transform="translate(-29.456 -90.454)"/>
        <path id="Trazado_823568" data-name="Trazado 823568" d="M64.282,183.1c-.444.117-.542-.162-.509-.652a3.263,3.263,0,0,1,3.287-3.125c.255-.009.506.021.474.355a3.669,3.669,0,0,1-.941,2.44,3.361,3.361,0,0,1-2.312.983" transform="translate(-33.666 -94.672)" fill="#78b43e"/>
      </g>
    </g>
  </g>
</svg>
