<svg xmlns="http://www.w3.org/2000/svg" xmlns:xlink="http://www.w3.org/1999/xlink" width="169" height="169" viewBox="0 0 169 169">
  <defs>
    <clipPath id="clip-path">
      <rect id="Rect치ngulo_378260" data-name="Rect치ngulo 378260" width="116.358" height="112.603" fill="none"/>
    </clipPath>
  </defs>
  <g id="Grupo_1073954" data-name="Grupo 1073954" transform="translate(-385.208 -2057.51)">
    <g id="Grupo_159182" data-name="Grupo 159182" transform="translate(385.208 2057.51)">
      <path id="Uni칩n_12" data-name="Uni칩n 12" d="M84.5,0A84.5,84.5,0,1,1,0,84.5,84.5,84.5,0,0,1,84.5,0Z" transform="translate(0 0)" fill="#ffae7e"/>
    </g>
    <g id="Grupo_1073970" data-name="Grupo 1073970" transform="translate(411.529 2082.51)">
      <g id="Grupo_1073969" data-name="Grupo 1073969" clip-path="url(#clip-path)">
        <path id="Trazado_823742" data-name="Trazado 823742" d="M15.952,48.822l-.011-1.873c.449-.006.9-.046,1.346-.008s.549-.094.546-.538c-.022-3.125,0-6.25-.022-9.375a5.573,5.573,0,0,1,.153-1.378,9.4,9.4,0,0,1,6.051-6.9,9.984,9.984,0,0,1,3.571-.567c6.878-.019,13.756-.006,20.634-.014a10.232,10.232,0,0,0,2.336-.3,6.421,6.421,0,0,0,4.476-8.015,6.858,6.858,0,0,0-2.372-3.5,7.088,7.088,0,0,0-4.374-1.306c-1.894-.046-3.79-.025-5.685,0a9.244,9.244,0,0,1-2.14-.144,9.543,9.543,0,0,1-6.6-4.977,8.423,8.423,0,0,1-1.032-4.2c.033-1.894,0-3.789,0-5.683Q38.13.034,43.438.03L83.5.028a8.963,8.963,0,0,1-.628,2.383,5.567,5.567,0,0,1-5.1,3.245c-3.3.078-6.6-.161-9.89.127A4.83,4.83,0,0,0,63.891,8.1a6.639,6.639,0,0,0-1.007,2.623,5.2,5.2,0,0,0,1.072,3.8,5.452,5.452,0,0,0,4.613,2.39,16,16,0,0,1,3.858.336,5.878,5.878,0,0,1,2.624,1.325,7.2,7.2,0,0,1,2.66,4.747,7.71,7.71,0,0,1-.476,4.053,7.367,7.367,0,0,1-6.96,4.537c-7.174.034-14.347.006-21.522.015a17.44,17.44,0,0,0-2.206.135,8.806,8.806,0,0,0-5.432,2.684,9.458,9.458,0,0,0-2.621,6.046c-.136,1.905-.018,3.828-.037,5.742,0,.36.135.407.441.4.938-.017,1.877-.028,2.815,0,.4.014.523-.087.518-.506-.025-1.817-.04-3.635,0-5.451a5.309,5.309,0,0,1,2.4-4.28,5.884,5.884,0,0,1,3.616-1.027q10.7-.006,21.4,0a13.246,13.246,0,0,0,2.816-.231,11.164,11.164,0,0,0,6.925-4.375,10.365,10.365,0,0,0,2.132-7.537,11.165,11.165,0,0,0-.834-3.517,12.7,12.7,0,0,0-3.3-4.365,9.857,9.857,0,0,0-4.158-2.107,20.2,20.2,0,0,0-4.852-.385,1.8,1.8,0,0,1-1.751-1.465,1.9,1.9,0,0,1,1.462-2.181,8.975,8.975,0,0,1,1.373-.1c2.658-.009,5.317-.02,7.975,0a9.488,9.488,0,0,0,3.6-.605A9.306,9.306,0,0,0,87.25.037H109.8c-.1,1.983.087,3.968-.111,5.953a4.043,4.043,0,0,1-3.85,3.452c-2.792-.1-5.59-.04-8.385-.029-2.124.009-4.143.318-5.789,1.873a8.314,8.314,0,0,0-1.825,2.493,7.179,7.179,0,0,0-.065,6.033,7.885,7.885,0,0,0,2.457,3.041,9.149,9.149,0,0,0,2.517,1.336,11.478,11.478,0,0,0,2.426.325,3.705,3.705,0,0,1,3.088,4.443,3.77,3.77,0,0,1-3.67,2.988c-2.226-.081-4.456-.02-6.685-.024a9.913,9.913,0,0,0-2.237.247,4.324,4.324,0,0,0-1.934.818,6.617,6.617,0,0,0-1.333,1.491,5.437,5.437,0,0,0-.822,3.8,5.8,5.8,0,0,0,1.808,3.413,5.634,5.634,0,0,0,2.549,1.365,16.072,16.072,0,0,0,2.6.129,2.369,2.369,0,0,1,1.672.5,1.947,1.947,0,0,1,.233,2.51,1.665,1.665,0,0,1-1.61.745l-36.712-.008a2.168,2.168,0,0,1-.293,0c-.284-.039-.369.079-.36.359.016.507-.006,1.015-.012,1.523q-2.095,0-4.19,0c-.23,0-.5-.047-.482.322a4.062,4.062,0,0,0-1.62-.327c-3.277,0-6.555.007-9.832,0a4.19,4.19,0,0,0-1.693.332c.014-.258-.126-.326-.362-.325q-3.386.008-6.773,0c-.235,0-.377.065-.365.324a3.084,3.084,0,0,0-1.325-.318c-3.623-.009-7.246,0-10.869.007M60.835,41.3c2.4,0,4.806-.007,7.209.008.345,0,.475-.061.462-.442-.031-.916-.035-1.836,0-2.753.017-.449-.1-.579-.565-.578-4.572.02-9.144-.009-13.715.029a11.816,11.816,0,0,0-2.751.273,7.013,7.013,0,0,0-4.627,3.739,7.388,7.388,0,0,0-.873,3.117c-.014.285.07.367.353.363q1.524-.023,3.048,0c.29,0,.345-.1.36-.373a3.388,3.388,0,0,1,1.8-2.838,4.432,4.432,0,0,1,2.265-.536c2.344-.03,4.689-.011,7.033-.011M27.205,46.932V46.9c.6,0,1.416.237,1.753-.062.387-.344.141-1.175.113-1.788a3.746,3.746,0,0,1,3.358-3.734c.341-.024.418-.126.412-.442-.018-.957-.031-1.915,0-2.871.016-.418-.152-.512-.5-.45-.509.091-1.022.169-1.522.3a7.542,7.542,0,0,0-5.49,7.315c-.005.577-.249,1.328.114,1.68.285.277,1.036.074,1.581.083.059,0,.117,0,.176,0m48.768-7.5c-.022-.615.3-1.44-.094-1.787-.341-.3-1.15-.1-1.752-.085s-1.441-.269-1.788.118c-.3.339-.1,1.149-.086,1.751s-.269,1.44.118,1.787c.339.3,1.15.1,1.752.086s1.443.269,1.787-.119c.3-.337.062-1.148.062-1.75" transform="translate(-8.438 -0.015)" fill="#c4d4e1"/>
        <path id="Trazado_823743" data-name="Trazado 823743" d="M27.209,103.985a4.2,4.2,0,0,1,1.693-.333c3.277.011,6.555.007,9.833,0a4.056,4.056,0,0,1,1.62.327,1.888,1.888,0,0,1,.585.7,6.959,6.959,0,0,1,.465,2.442c.094.994.1,2,.258,2.983.176,1.085.2,2.179.327,3.266.117,1.011.166,2.036.27,3.047.147,1.432.29,2.866.445,4.3.11,1.012.127,2.035.235,3.048.194,1.818.432,3.632.463,5.464.008.45.122.714.695.711,4.515-.025,9.031-.017,13.547-.013,1.5,0,2.361.688,2.4,2.073.058,2.226.025,4.455.009,6.683a.575.575,0,0,1-.69.63c-.388-.026-.78.008-1.17.016a12.8,12.8,0,0,0-1.289,0c-.471.042-.634-.081-.621-.592.039-1.484-.009-2.97.026-4.454.012-.492-.121-.605-.607-.6q-9.44.028-18.881.012c-1.15,0-1.109,0-1.166,1.151-.03.609.16.723.734.719,3.42-.029,6.841-.017,10.261-.013A1.855,1.855,0,0,1,48.74,137.3a24.944,24.944,0,0,1,.064,3.569q.012,11.107-.008,22.214c0,.483.107.626.6.61,1.191-.04,2.384-.017,3.577-.011.465,0,1.084-.151,1.356.086.322.28.069.917.107,1.4.011.136.01.273.015.41-.008.507-.034,1.015-.016,1.522.01.292-.094.385-.367.348a2.251,2.251,0,0,0-.293,0H2.638a6.207,6.207,0,0,1-1.112-.015A1.9,1.9,0,0,1,0,165.523c-.008-1.349.277-2.676.335-4.014.063-1.463.318-2.9.394-4.365a22.219,22.219,0,0,1,.306-3.071,8.573,8.573,0,0,0,.144-1.318c.041-1.229.2-2.446.339-3.665.123-1.05.134-2.112.249-3.163.1-.968.16-1.941.327-2.9a13.079,13.079,0,0,0,.125-1.725c.071-1.846.386-3.665.506-5.507.133-2.048.4-4.09.577-6.139.138-1.627.288-3.255.464-4.879.186-1.723.3-3.451.467-5.173.163-1.646.331-3.29.475-4.937.143-1.627.282-3.257.468-4.879a36.007,36.007,0,0,1,.568-4.672,1.75,1.75,0,0,1,1.527-1.338c.094-.009.2.018.243-.1,3.623,0,7.247-.016,10.869-.007a3.084,3.084,0,0,1,1.325.319,1.93,1.93,0,0,1,.81,1.266,26.828,26.828,0,0,1,.363,3.421c.074.9.17,1.791.26,2.687.108,1.068.23,2.136.327,3.205.091,1.015.1,2.041.25,3.046.161,1.067.23,2.139.347,3.208.109.992.079,2,.24,2.985.233,1.425.315,2.864.428,4.295q.2,2.561.517,5.106a3.806,3.806,0,0,0,.238,1.814c.176-.5,0-.944.16-1.349.016-.369.008-.741.052-1.107.21-1.739.311-3.487.481-5.229.051-.519.065-1.038.116-1.555.145-1.489.337-2.974.441-4.466.069-1,.166-2,.277-2.984.164-1.45.3-2.9.428-4.354.09-1.034.173-2.073.273-3.1.148-1.525.244-3.058.448-4.578.116-.866.172-1.775,1.044-2.305M30.043,139.3c-4.788,0-9.577.008-14.365-.01-.5,0-.682.084-.68.647q.032,11.575,0,23.149c0,.469.084.625.592.617q3.166-.049,6.332,0c.486.007.609-.113.606-.6-.022-4.044-.016-8.088-.01-12.131a2.049,2.049,0,0,1,2.281-2.285c1.094-.005,2.189,0,3.283,0,2.423,0,4.847,0,7.27,0a1.918,1.918,0,0,1,2.049,1.4,9.8,9.8,0,0,1,.137,1.5c-.015,3.868,0,7.736-.018,11.6,0,.413.1.518.515.514,2.149-.022,4.3-.027,6.449,0,.481.007.563-.148.562-.586q-.019-11.633,0-23.266c0-.487-.159-.559-.59-.558q-7.211.02-14.423.008m-16.625-3.752c1.936,0,3.871-.009,5.806.008.364,0,.547-.065.481-.471-.128-.781-.135-1.579-.256-2.356-.219-1.409-.249-2.833-.429-4.245-.046-.362-.126-.451-.47-.447-1.368.016-2.737.007-4.105.007-2.229,0-4.457.009-6.686-.008-.439,0-.675.095-.61.587a7.043,7.043,0,0,1-.1,1.085c-.027,1.531-.294,3.04-.37,4.565-.021.417-.315.934-.029,1.22s.824.05,1.251.052c1.838.006,3.676,0,5.513,0M11.26,157.126c0-2.03-.009-4.06.008-6.089,0-.374-.084-.492-.476-.487-1.718.023-3.437.027-5.154,0-.415-.008-.554.184-.587.508-.094.939-.207,1.88-.229,2.823-.024,1.024-.235,2.025-.27,3.05-.039,1.13-.208,2.255-.317,3.382a23.261,23.261,0,0,1-.3,2.816c-.126.567.043.573.469.572,2.128-.009,4.256-.015,6.384.005.392,0,.479-.113.476-.487-.018-2.03-.008-4.06-.008-6.089m15.015.937c0,1.718.012,3.437-.009,5.155,0,.38.094.486.48.483q3.282-.029,6.564,0c.383,0,.483-.1.482-.482q-.023-5.155,0-10.311c0-.38-.1-.486-.48-.482q-3.282.028-6.564,0c-.383,0-.486.1-.482.482.021,1.718.009,3.436.009,5.155m7.487-33.769h4.806c.811,0,.812-.044.71-.872-.12-.966-.3-1.924-.347-2.9-.058-1.126-.22-2.246-.321-3.37-.025-.278-.148-.362-.41-.362q-4.425.008-8.849,0c-.317,0-.5.155-.487.449a23.048,23.048,0,0,1-.222,2.667c-.107,1.25-.225,2.5-.368,3.743-.056.48.048.666.566.658,1.641-.026,3.282-.009,4.923-.01m-20.646,0h4.806c.811,0,.828-.045.707-.871-.133-.906-.231-1.817-.326-2.728q-.186-1.771-.338-3.545c-.024-.277-.145-.363-.409-.363q-4.425.008-8.849,0c-.316,0-.5.153-.488.447A23.048,23.048,0,0,1,8,119.9c-.109,1.249-.225,2.5-.367,3.743-.055.477.043.668.563.659,1.641-.026,3.282-.009,4.923-.01m20.691,3.752q-2.727,0-5.453,0c-.243,0-.55-.064-.552.334,0,1.024-.137,2.038-.235,3.054a29.891,29.891,0,0,1-.347,3.276c-.122.583.126,1.014.59.934a25.2,25.2,0,0,1,3.664-.083c.38-.01.447-.126.44-.468-.021-1.015-.016-2.031,0-3.047a1.963,1.963,0,0,1,2.145-2.126c1.759,0,3.518,0,5.277-.005.177,0,.474.124.469-.225,0-.384-.062-.768-.093-1.152s-.216-.514-.628-.507c-1.758.029-3.518.012-5.277.012m.035-15.009c1.329,0,2.658-.013,3.987.008.407.007.465-.18.4-.5a2.9,2.9,0,0,1-.1-.326c-.122-1.464-.242-2.929-.349-4.394-.02-.28-.088-.421-.408-.419q-3.577.016-7.154,0c-.3,0-.41.1-.43.4-.056.851-.139,1.7-.22,2.549-.07.726-.13,1.455-.235,2.176-.067.46.145.513.523.508,1.329-.016,2.658-.006,3.988-.006m-20.761,0c1.349,0,2.7-.013,4.046.008.444.007.561-.153.428-.554a1.483,1.483,0,0,1-.075-.334c-.12-1.445-.241-2.89-.347-4.336-.02-.281-.091-.419-.409-.417q-3.577.016-7.154,0c-.3,0-.409.105-.428.406-.056.851-.139,1.7-.22,2.549-.068.707-.123,1.417-.233,2.118-.083.521.16.572.582.566,1.27-.02,2.541-.007,3.812-.007M11.26,143.059c0-1.112-.005-2.225,0-3.337,0-.269-.024-.43-.367-.426-1.464.017-2.929.012-4.393,0-.289,0-.428.074-.411.4A11.158,11.158,0,0,1,6,141.2c-.143,1.7-.257,3.4-.48,5.094-.048.362.027.53.448.525q2.43-.032,4.861,0c.391.006.442-.148.437-.479-.016-1.092-.006-2.185-.006-3.278" transform="translate(0 -54.865)"/>
        <path id="Trazado_823744" data-name="Trazado 823744" d="M170.908,142.6c-3.532,0-7.065-.013-10.6.008-.511,0-.71-.123-.654-.65a11.484,11.484,0,0,0,.008-1.228c.065-.04.127-.1.2-.114a1.737,1.737,0,0,0,1.593-1.572c.141-.7.006-1.391.106-2.079h1.84c.007.507.027,1.016.014,1.523-.008.277.063.4.359.348.49-.091.992-.132,1.47-.26a7.359,7.359,0,0,0,5.444-8.752,7.2,7.2,0,0,0-4.273-5.342,9.6,9.6,0,0,0-3.618-.631c-1.66-.061-3.323-.012-4.985-.019a3.087,3.087,0,0,1-.859-.075,3.734,3.734,0,0,1-.251-7.227,14.7,14.7,0,0,1,2.152-.3,7.881,7.881,0,0,0,5.03-2.97,7.044,7.044,0,0,0,1.424-4.842,7.354,7.354,0,0,0-1.812-4.5,7.686,7.686,0,0,0-6.226-2.582c-7.331-.031-14.663-.016-21.994,0a3.239,3.239,0,0,1-1.667-.381c-2.032-1.164-2.527-2.8-1.914-4.578.6-1.742,1.548-2.393,3.748-2.541,1.051-.071,2.111-.025,3.166,0,.334.007.435-.092.42-.423-.023-.487,0-.976.011-1.464l5.772,0a9.868,9.868,0,0,0,1.568-.108,4.606,4.606,0,0,0,3.515-6.412,1.593,1.593,0,0,1-.2-.842c.58,0,1.142-.17,1.73-.142a6.268,6.268,0,0,0,1.846-.107,5.647,5.647,0,0,0,3.715-2.676,5.212,5.212,0,0,0,.581-4.277,5.357,5.357,0,0,0-4.089-3.984,14.036,14.036,0,0,0-3.292-.221,1.8,1.8,0,0,1-1.779-1.691,1.987,1.987,0,0,1,2.137-2.039c2.4-.012,4.807,0,7.211,0a7.247,7.247,0,0,0,5.907-2.774,7.453,7.453,0,0,0,1.433-2.87l3.943,0a7.534,7.534,0,0,1,.006,1.228c-.087.577.23.732.683.761.271.017.531.082.794.108a8.18,8.18,0,0,1,4.64,2.05,8.873,8.873,0,0,1,3.064,5.764,10.227,10.227,0,0,1-.169,3.769c-.1.428-.414.8-.492,1.212a3.607,3.607,0,0,1-.448,1.172,8.689,8.689,0,0,1-3.428,3.292,9.128,9.128,0,0,1-4.446,1.286q-1.7-.013-3.4,0a9.191,9.191,0,0,0-2.977.536c-.318.112-.744.169-.934.4-.468.567-.945,1.129-1.41,1.7a3.594,3.594,0,0,0-.794,1.725,5.9,5.9,0,0,0,.742,4.049A5.513,5.513,0,0,0,164.8,95.67c1.5.113,3.008.029,4.512.022a15.606,15.606,0,0,1,5.91.948,8.274,8.274,0,0,1,2.834,1.769c.4.4.8.791,1.19,1.189a8.74,8.74,0,0,1,2.358,4.238,17.578,17.578,0,0,1,.474,3.573,10.622,10.622,0,0,1-1.622,5.433,10.372,10.372,0,0,1-2.272,2.628,11.075,11.075,0,0,1-2.773,1.78,12.4,12.4,0,0,1-4.726,1.065,1.833,1.833,0,0,0-1.625,1.763,1.936,1.936,0,0,0,1.747,1.869,14.93,14.93,0,0,1,2.053.261,8.949,8.949,0,0,1,6.558,5.2,9.517,9.517,0,0,1,.682,5.356,8.269,8.269,0,0,1-1.481,3.981,9.394,9.394,0,0,1-7.313,3.965c-.327.016-.389.141-.382.424.011.487-.008.975-.014,1.463" transform="translate(-69.577 -33.767)" fill="#c4d4e1"/>
        <path id="Trazado_823745" data-name="Trazado 823745" d="M148.928,202.359c-.1.688.034,1.379-.106,2.079a1.738,1.738,0,0,1-1.593,1.572c-.07.009-.131.075-.2.114-1.113,0-2.226,0-3.339-.013-.249,0-.411-.008-.444.343a8.571,8.571,0,0,1-.323,1.383,5.466,5.466,0,0,1-6.045,3.876,5.551,5.551,0,0,1-4.73-4.467c-.03-.132-.12-.273-.1-.377.144-.871-.419-.768-.971-.761-1.426.018-2.851.009-4.277,0-.254,0-.408,0-.441.346a8.666,8.666,0,0,1-.323,1.383,5.521,5.521,0,0,1-10.414.453q-.2-.439-.4-.879c.151-.221-.079-.415-.037-.658.072-.42-.1-.665-.643-.65-1.619.046-3.241.051-4.86.006-1.361-.038-2-.713-2.044-1.827a28.882,28.882,0,0,1,.079-4.674,5.841,5.841,0,0,1,4.44-4.659,28.017,28.017,0,0,1,2.978-.118c.177-.02.393.182.476-.2q.357-1.634.813-3.247a5.065,5.065,0,0,1,5.051-4.012c2.088-.06,4.179-.016,6.269-.021a3.234,3.234,0,0,1,1.12.205,1.993,1.993,0,0,1,1.267,2.065c.034,1.541.038,3.085-.006,4.626-.015.532.143.623.639.621q7.851-.029,15.7-.006a2.161,2.161,0,0,1,2.171,1.052,2.943,2.943,0,0,1,.274,1.35c0,1.7.01,3.4.016,5.094m-19.91-3.749h-11.37c-1.445,0-2.892-.019-4.337.007a1.741,1.741,0,0,0-1.9,1.592,15.629,15.629,0,0,0-.057,1.7c.023.353.1.464.465.458q2.08-.032,4.161,0a1.426,1.426,0,0,0,1.05-.393,5.276,5.276,0,0,1,3.709-1.477,5.173,5.173,0,0,1,3.492,1.27,2.281,2.281,0,0,0,1.7.606c2.325-.035,4.65-.021,6.975-.007a1.363,1.363,0,0,0,1-.373,5.3,5.3,0,0,1,3.7-1.5,5.2,5.2,0,0,1,3.544,1.288,2.066,2.066,0,0,0,1.646.584,16.064,16.064,0,0,1,1.874,0c.372.016.511-.081.5-.479-.03-.9-.042-1.8,0-2.694.025-.507-.148-.6-.62-.6-5.177.017-10.354.011-15.531.011m-6.06-3.757c1,0,1.992-.01,2.988.006.3,0,.455-.031.445-.4-.026-1-.017-1.991,0-2.987,0-.271-.063-.371-.354-.369-1.563.014-3.125.009-4.688.005A1.227,1.227,0,0,0,120.1,192c-.229.776-.365,1.581-.622,2.354-.127.381.035.513.428.505,1.015-.02,2.031-.007,3.047-.006" transform="translate(-56.945 -99.163)"/>
        <path id="Trazado_823746" data-name="Trazado 823746" d="M146.143,30.027a7.446,7.446,0,0,1-1.433,2.87A7.247,7.247,0,0,1,138.8,35.67c-2.4.006-4.807-.007-7.211,0a1.987,1.987,0,0,0-2.137,2.039,1.8,1.8,0,0,0,1.779,1.691,14.035,14.035,0,0,1,3.292.222,5.356,5.356,0,0,1,4.09,3.983,5.215,5.215,0,0,1-.581,4.277,5.648,5.648,0,0,1-3.715,2.676,6.252,6.252,0,0,1-1.846.107c-.588-.028-1.15.145-1.73.142a1.562,1.562,0,0,0-.9-.142H96.382a2.646,2.646,0,0,0-.351,0c-.281.038-.371-.07-.361-.354.017-.506-.006-1.014-.012-1.522s.028-1.016.012-1.523c-.009-.28.076-.4.36-.359a2.092,2.092,0,0,0,.293,0l36.712.007a1.665,1.665,0,0,0,1.61-.745,1.947,1.947,0,0,0-.233-2.51,2.368,2.368,0,0,0-1.672-.5,16.077,16.077,0,0,1-2.6-.129,5.63,5.63,0,0,1-2.548-1.365,5.8,5.8,0,0,1-1.808-3.412,5.435,5.435,0,0,1,.821-3.8,6.619,6.619,0,0,1,1.334-1.491,4.32,4.32,0,0,1,1.933-.818,9.941,9.941,0,0,1,2.238-.247c2.228,0,4.459-.057,6.685.024a3.769,3.769,0,0,0,3.67-2.988,3.705,3.705,0,0,0-3.088-4.443,11.479,11.479,0,0,1-2.426-.325,9.155,9.155,0,0,1-2.517-1.336,7.885,7.885,0,0,1-2.457-3.041,7.183,7.183,0,0,1,.064-6.034,8.315,8.315,0,0,1,1.825-2.493c1.646-1.555,3.666-1.864,5.789-1.873,2.795-.011,5.593-.075,8.385.029a4.044,4.044,0,0,0,3.85-3.452c.2-1.985.015-3.97.111-5.953,1.112.109,2.224-.049,3.337-.019.341.009.413.111.41.43-.016,1.524.05,3.05-.022,4.571-.083,1.765-.21,3.548-1.409,5.006a8.537,8.537,0,0,1-2.494,2.208,8.623,8.623,0,0,1-4.134.923c-2.951.023-5.9.03-8.854,0a3.8,3.8,0,0,0-3.713,3.133,3.745,3.745,0,0,0,3.027,4.338c.865.229,1.815.17,2.719.377A6.733,6.733,0,0,1,144.256,23a6.917,6.917,0,0,1,1.884,3.8,11.782,11.782,0,0,1,.009,2.988c-.007.077,0,.155-.007.233" transform="translate(-50.633 0)"/>
        <path id="Trazado_823747" data-name="Trazado 823747" d="M202.616,140.487c.006-.488.025-.976.014-1.463-.007-.283.056-.408.382-.424a9.394,9.394,0,0,0,7.313-3.965,8.269,8.269,0,0,0,1.481-3.981,9.517,9.517,0,0,0-.682-5.356,8.949,8.949,0,0,0-6.558-5.2,14.932,14.932,0,0,0-2.053-.261,1.936,1.936,0,0,1-1.747-1.869,1.833,1.833,0,0,1,1.625-1.763,12.4,12.4,0,0,0,4.726-1.065,11.075,11.075,0,0,0,2.773-1.78,10.371,10.371,0,0,0,2.272-2.628,10.622,10.622,0,0,0,1.622-5.433,17.578,17.578,0,0,0-.474-3.573,8.74,8.74,0,0,0-2.358-4.238c-.39-.4-.791-.794-1.19-1.189a8.274,8.274,0,0,0-2.834-1.769,15.606,15.606,0,0,0-5.91-.948c-1.5.007-3.016.092-4.512-.022a5.513,5.513,0,0,1-4.338-2.825,5.9,5.9,0,0,1-.742-4.049,3.6,3.6,0,0,1,.794-1.725c.465-.57.942-1.132,1.41-1.7.19-.229.616-.287.934-.4a9.191,9.191,0,0,1,2.977-.536q1.7-.013,3.4,0a9.128,9.128,0,0,0,4.446-1.286,8.688,8.688,0,0,0,3.428-3.292,3.607,3.607,0,0,0,.448-1.172c.079-.407.389-.784.492-1.212a10.226,10.226,0,0,0,.169-3.769,8.873,8.873,0,0,0-3.064-5.764,8.18,8.18,0,0,0-4.64-2.05c-.262-.026-.523-.091-.794-.108-.453-.028-.77-.184-.683-.761a7.532,7.532,0,0,0-.006-1.228c.007-.527.023-1.054.015-1.581,0-.225.056-.329.3-.289a21.844,21.844,0,0,1,4.473.913,13.325,13.325,0,0,1,7.5,7.715,13.238,13.238,0,0,1,.773,3.572,12.776,12.776,0,0,1-4.521,10.789,13.006,13.006,0,0,1-6.9,3.127,10.741,10.741,0,0,1-1.843.152c-1.268-.021-2.537,0-3.805-.006a1.563,1.563,0,0,0-1.438,1,1.875,1.875,0,0,0,1.613,2.756c1.7-.031,3.4-.027,5.1,0a17.037,17.037,0,0,1,7.056,1.518,14.459,14.459,0,0,1,5.637,4.763,15.6,15.6,0,0,1,2.2,4.185,16.431,16.431,0,0,1,.657,3.251,13.913,13.913,0,0,1-.617,5.789,14.411,14.411,0,0,1-6.817,8.433c-.179.1-.372.186-.595.3.518.457,1.077.826,1.588,1.255a12.47,12.47,0,0,1,4.015,6.177,12.789,12.789,0,0,1,.626,4.345,14.924,14.924,0,0,1-1.134,4.587,12.122,12.122,0,0,1-5.328,6.089,11.331,11.331,0,0,1-5.863,1.711c-.262,0-.576.308-.74.044-.134-.214-.049-.566-.057-.857-.009-.312-.013-.625-.019-.937" transform="translate(-101.286 -31.656)"/>
        <path id="Trazado_823748" data-name="Trazado 823748" d="M112.539.037a9.306,9.306,0,0,1-6.225,8.774,9.489,9.489,0,0,1-3.6.605c-2.658-.023-5.317-.011-7.975,0a9.03,9.03,0,0,0-1.372.1,1.9,1.9,0,0,0-1.462,2.181,1.8,1.8,0,0,0,1.751,1.465,20.2,20.2,0,0,1,4.853.385,9.86,9.86,0,0,1,4.158,2.107,12.686,12.686,0,0,1,3.3,4.365,11.166,11.166,0,0,1,.835,3.516,10.363,10.363,0,0,1-2.133,7.538,11.161,11.161,0,0,1-6.925,4.375,13.27,13.27,0,0,1-2.815.231q-10.7,0-21.4,0A5.886,5.886,0,0,0,69.913,36.7a5.309,5.309,0,0,0-2.4,4.28c-.038,1.816-.023,3.634,0,5.451.006.42-.112.521-.518.507-.937-.032-1.876-.021-2.814,0-.306.005-.444-.041-.441-.4.019-1.914-.1-3.837.037-5.742A9.455,9.455,0,0,1,66.4,34.748a8.8,8.8,0,0,1,5.431-2.684,17.447,17.447,0,0,1,2.206-.135c7.174-.009,14.348.019,21.522-.015a7.368,7.368,0,0,0,6.96-4.537A7.711,7.711,0,0,0,103,23.324a7.2,7.2,0,0,0-2.66-4.746,5.876,5.876,0,0,0-2.623-1.325,16.006,16.006,0,0,0-3.858-.336,5.453,5.453,0,0,1-4.613-2.391,5.205,5.205,0,0,1-1.072-3.8A6.639,6.639,0,0,1,89.179,8.1a4.83,4.83,0,0,1,3.989-2.317c3.292-.289,6.594-.049,9.89-.127a5.568,5.568,0,0,0,5.1-3.245,8.986,8.986,0,0,0,.628-2.383l3.754.009" transform="translate(-33.726 -0.015)"/>
        <path id="Trazado_823749" data-name="Trazado 823749" d="M30.677.029c0,1.895.038,3.789,0,5.683a8.425,8.425,0,0,0,1.032,4.2,9.545,9.545,0,0,0,6.6,4.977,9.238,9.238,0,0,0,2.139.143c1.895-.021,3.791-.041,5.686,0a7.089,7.089,0,0,1,4.374,1.306,6.859,6.859,0,0,1,2.371,3.5,6.422,6.422,0,0,1-4.476,8.015,10.258,10.258,0,0,1-2.336.3c-6.878.007-13.756-.006-20.634.014a9.985,9.985,0,0,0-3.571.567,9.4,9.4,0,0,0-6.051,6.9,5.576,5.576,0,0,0-.153,1.379c.02,3.125,0,6.25.022,9.375,0,.443-.11.574-.546.538s-.9,0-1.346.008c-.508-.006-1.016-.029-1.523-.011-.286.01-.357-.084-.357-.362.009-3.437-.089-6.879.04-10.312a11.022,11.022,0,0,1,2.236-6.069,13.914,13.914,0,0,1,2.5-2.733,12.665,12.665,0,0,1,4.94-2.6,12.9,12.9,0,0,1,2.632-.338c7.4-.251,14.795-.062,22.192-.088a2.731,2.731,0,0,0,2.833-1.912c.41-1.785-.385-3.734-2.7-3.738-2.442,0-4.888.068-7.327-.02a11.856,11.856,0,0,1-6.625-2.338A13.335,13.335,0,0,1,27.5,9.315a11.994,11.994,0,0,1-.56-3.546c.017-1.777.006-3.555-.013-5.332,0-.321.07-.432.412-.425,1.111.025,2.223.014,3.335.016" transform="translate(-6.293 -0.006)"/>
        <path id="Trazado_823750" data-name="Trazado 823750" d="M98.28,184.3a28.012,28.012,0,0,0-2.978.118,5.842,5.842,0,0,0-4.44,4.659,28.882,28.882,0,0,0-.079,4.674c.043,1.114.682,1.789,2.043,1.827,1.619.045,3.242.04,4.86-.006.543-.016.716.229.644.65-.042.243.188.436.037.658A4.89,4.89,0,0,0,98.3,198.6c.036.624-.235.762-.78.748-.992-.026-1.986-.01-2.978-.012,0-.137,0-.273-.015-.41-.038-.481.215-1.117-.107-1.4-.272-.236-.891-.083-1.356-.086-1.192-.006-2.385-.029-3.576.011-.5.016-.6-.127-.6-.61q.025-11.107.008-22.214a24.944,24.944,0,0,0-.064-3.569,1.855,1.855,0,0,0-2.092-1.759c-3.42,0-6.841-.016-10.261.013-.575,0-.764-.11-.734-.719.057-1.149.016-1.151,1.166-1.151q9.44,0,18.881-.012c.486,0,.619.112.607.6-.035,1.484.013,2.97-.026,4.454-.013.511.15.634.621.592a12.8,12.8,0,0,1,1.289,0V184.3" transform="translate(-40.09 -88.626)" fill="#efbe32"/>
        <path id="Trazado_823751" data-name="Trazado 823751" d="M94.607,83.487c-2.344,0-4.689-.019-7.033.011a4.439,4.439,0,0,0-2.265.535,3.389,3.389,0,0,0-1.8,2.839c-.016.269-.07.377-.36.373q-1.524-.023-3.048,0c-.282,0-.366-.078-.353-.363a7.4,7.4,0,0,1,.873-3.117,7.014,7.014,0,0,1,4.627-3.739A11.793,11.793,0,0,1,88,79.752c4.571-.038,9.144-.009,13.715-.029.469,0,.583.128.566.577-.035.917-.032,1.836,0,2.753.013.38-.117.444-.462.442-2.4-.015-4.806-.008-7.209-.008" transform="translate(-42.211 -42.199)"/>
        <path id="Trazado_823752" data-name="Trazado 823752" d="M37.673,89.114H37.5c-.544-.01-1.295.193-1.581-.084-.363-.351-.119-1.1-.113-1.679a7.542,7.542,0,0,1,5.49-7.316c.5-.128,1.013-.207,1.522-.3.348-.063.515.031.5.449-.035.956-.023,1.914,0,2.871.006.316-.071.418-.412.442a3.747,3.747,0,0,0-3.359,3.735c.028.613.274,1.444-.113,1.788-.337.3-1.15.062-1.753.062v.03" transform="translate(-18.906 -42.197)"/>
        <path id="Trazado_823753" data-name="Trazado 823753" d="M139.206,81.535c0,.6.237,1.413-.062,1.75-.344.387-1.171.1-1.787.119s-1.413.218-1.752-.086c-.387-.346-.1-1.171-.118-1.787s-.218-1.412.086-1.751c.346-.387,1.172-.1,1.788-.118s1.411-.218,1.752.085c.39.347.072,1.172.094,1.787" transform="translate(-71.67 -42.121)"/>
        <path id="Trazado_823754" data-name="Trazado 823754" d="M46.91,179.383c4.808,0,9.616.005,14.423-.009.431,0,.591.071.589.558q-.026,11.633,0,23.266c0,.438-.081.593-.562.586-2.15-.03-4.3-.024-6.449,0-.41,0-.517-.1-.515-.513.017-3.868,0-7.736.018-11.6a9.744,9.744,0,0,0-.137-1.5,1.917,1.917,0,0,0-2.049-1.4c-2.424-.007-4.847,0-7.27,0-1.094,0-2.189,0-3.283,0a2.049,2.049,0,0,0-2.281,2.286c-.006,4.044-.012,8.088.01,12.131,0,.49-.12.61-.607.6q-3.165-.044-6.332,0c-.508.008-.593-.148-.592-.617q.023-11.575,0-23.15c0-.563.177-.649.68-.647,4.788.018,9.576.011,14.364.011" transform="translate(-16.867 -94.945)" fill="#efbe32"/>
        <path id="Trazado_823755" data-name="Trazado 823755" d="M20.76,162.976c-1.838,0-3.676,0-5.513,0-.427,0-.967.232-1.252-.052s.008-.8.029-1.221c.076-1.525.343-3.035.37-4.565a7.1,7.1,0,0,0,.1-1.085c-.066-.492.17-.59.61-.586,2.229.016,4.457.008,6.686.008,1.369,0,2.737.009,4.106-.007.344,0,.423.085.469.448.179,1.411.21,2.835.429,4.245.12.776.127,1.575.255,2.355.066.405-.117.474-.481.471-1.935-.016-3.871-.008-5.806-.007" transform="translate(-7.342 -82.29)" fill="#eedc9a"/>
        <path id="Trazado_823756" data-name="Trazado 823756" d="M15.644,209.861c0,2.03-.009,4.06.008,6.089,0,.373-.084.49-.476.487-2.128-.02-4.256-.015-6.385-.005-.425,0-.594-.005-.468-.572a23.251,23.251,0,0,0,.3-2.816c.109-1.127.278-2.252.317-3.382.035-1.024.246-2.025.27-3.05.022-.942.135-1.883.229-2.823.032-.324.172-.515.587-.508,1.718.031,3.436.026,5.154,0,.392-.005.479.113.476.487-.018,2.03-.008,4.06-.008,6.089" transform="translate(-4.384 -107.6)" fill="#eedc9a"/>
        <path id="Trazado_823757" data-name="Trazado 823757" d="M55.811,212.913c0-1.718.012-3.437-.009-5.155,0-.383.1-.484.482-.481q3.282.028,6.564,0c.385,0,.482.1.48.483q-.023,5.155,0,10.311c0,.383-.1.484-.482.481q-3.282-.028-6.564,0c-.386,0-.485-.1-.48-.483.021-1.718.009-3.437.009-5.155" transform="translate(-29.537 -109.715)" fill="#eedc9a"/>
        <path id="Trazado_823758" data-name="Trazado 823758" d="M65.541,139.065c-1.641,0-3.283-.016-4.923.009-.518.008-.622-.177-.566-.657.144-1.245.261-2.494.368-3.744a23.04,23.04,0,0,0,.222-2.667c-.008-.293.169-.449.487-.449q4.425.007,8.849,0c.262,0,.385.084.41.362.1,1.124.263,2.244.321,3.371.05.978.226,1.936.346,2.9.1.828.1.872-.709.872H65.541" transform="translate(-31.779 -69.636)" fill="#e43f41"/>
        <path id="Trazado_823759" data-name="Trazado 823759" d="M21.679,139.065c-1.641,0-3.282-.016-4.922.009-.521.008-.618-.182-.564-.659.142-1.245.257-2.494.367-3.743a22.936,22.936,0,0,0,.222-2.667c-.008-.294.171-.448.488-.447q4.425.007,8.849,0c.263,0,.385.086.409.363q.153,1.774.338,3.545c.1.911.193,1.822.326,2.728.121.826.1.87-.707.871H21.679" transform="translate(-8.564 -69.636)" fill="#e43f41"/>
        <path id="Trazado_823760" data-name="Trazado 823760" d="M64.381,155.466c1.759,0,3.518.016,5.277-.012.412-.007.6.114.628.507s.088.768.093,1.152c0,.348-.292.224-.47.225-1.759.008-3.518.006-5.277.005a1.963,1.963,0,0,0-2.145,2.126c-.015,1.016-.02,2.032,0,3.047.007.342-.06.458-.44.468a25.2,25.2,0,0,0-3.664.083c-.465.08-.713-.351-.59-.934a29.891,29.891,0,0,0,.347-3.276c.1-1.016.231-2.03.235-3.054,0-.4.309-.334.552-.334q2.726-.006,5.453,0" transform="translate(-30.575 -82.284)" fill="#eedc9a"/>
        <path id="Trazado_823761" data-name="Trazado 823761" d="M66.812,117.258c-1.329,0-2.658-.01-3.988.006-.378,0-.59-.048-.523-.508.1-.722.166-1.45.235-2.176.081-.849.164-1.7.22-2.549.02-.3.135-.405.43-.4q3.577.01,7.154,0c.32,0,.387.14.408.419.106,1.466.227,2.93.349,4.395a3.009,3.009,0,0,0,.1.326c.066.321.009.508-.4.5-1.329-.021-2.658-.008-3.987-.008" transform="translate(-32.971 -59.084)" fill="#eedc9a"/>
        <path id="Trazado_823762" data-name="Trazado 823762" d="M22.831,117.258c-1.27,0-2.541-.013-3.812.007-.423.007-.665-.045-.582-.566.111-.7.166-1.411.233-2.118.081-.849.164-1.7.22-2.549.02-.3.131-.407.428-.406q3.577.01,7.154,0c.319,0,.389.136.41.417.105,1.446.227,2.891.347,4.336a1.465,1.465,0,0,0,.076.334c.132.4.015.561-.429.554-1.349-.02-2.7-.007-4.046-.007" transform="translate(-9.751 -59.084)" fill="#eedc9a"/>
        <path id="Trazado_823763" data-name="Trazado 823763" d="M17.454,183.144c0,1.093-.01,2.186.006,3.278.005.33-.047.484-.438.479q-2.43-.034-4.861,0c-.421.006-.5-.163-.448-.525.223-1.692.337-3.394.48-5.094a11.159,11.159,0,0,0,.093-1.5c-.017-.321.122-.4.411-.4,1.464.008,2.929.013,4.392,0,.344,0,.369.158.367.426-.009,1.112,0,2.225,0,3.337" transform="translate(-6.194 -94.949)" fill="#e43f41"/>
        <path id="Trazado_823764" data-name="Trazado 823764" d="M49.367,166.434c.313,0,.105.446.4.465-.161.405.016.846-.16,1.349a3.8,3.8,0,0,1-.238-1.814" transform="translate(-26.117 -88.096)" fill="#c4d4e1"/>
        <path id="Trazado_823765" data-name="Trazado 823765" d="M159.2,166.467c.006-.488.024-.976.015-1.464,0-.271.03-.4.369-.42a3.6,3.6,0,0,0,3.291-3.559,4.085,4.085,0,0,0-2.184-3.748,2.611,2.611,0,0,0-1.31-.179c-1.877-.019-3.753-.01-5.63-.012a7.486,7.486,0,0,1-4.153-1.214,7.385,7.385,0,0,1-3.5-7.08,6.958,6.958,0,0,1,1.845-4.134,7.215,7.215,0,0,1,4.244-2.435,12.736,12.736,0,0,1,1.608-.127,3.883,3.883,0,0,0,3.662-3.337,3.648,3.648,0,0,0-2.918-4.079,4.627,4.627,0,0,0-.737-.1c-7.7,0-15.405.03-23.107-.021a6.908,6.908,0,0,1-5.133-2.405,7.2,7.2,0,0,1-1.965-6.08,7.442,7.442,0,0,1,6.09-6.365,29.431,29.431,0,0,1,4.841-.144c.292-.007.3.136.3.355,0,.507.009,1.015.016,1.523-.006.488-.034.978-.011,1.464.016.33-.086.429-.42.423-1.055-.021-2.115-.066-3.166,0-2.2.149-3.146.8-3.748,2.542-.613,1.774-.118,3.414,1.914,4.578a3.235,3.235,0,0,0,1.667.381c7.331-.013,14.663-.028,21.994,0a7.684,7.684,0,0,1,6.226,2.581,7.357,7.357,0,0,1,1.812,4.5,7.044,7.044,0,0,1-1.424,4.842,7.88,7.88,0,0,1-5.03,2.97,14.712,14.712,0,0,0-2.152.3,3.734,3.734,0,0,0,.251,7.227,3.105,3.105,0,0,0,.859.075c1.661.006,3.325-.043,4.985.018a9.594,9.594,0,0,1,3.618.631,7.2,7.2,0,0,1,4.272,5.342,7.359,7.359,0,0,1-5.443,8.752c-.479.129-.981.169-1.47.26-.3.055-.367-.071-.36-.348.014-.507-.007-1.015-.014-1.523" transform="translate(-65.379 -63.271)"/>
        <path id="Trazado_823766" data-name="Trazado 823766" d="M133.251,211.27c5.177,0,10.354.007,15.531-.011.472,0,.646.09.62.6-.045.9-.033,1.8,0,2.694.013.4-.126.5-.5.48a16.064,16.064,0,0,0-1.874,0,2.065,2.065,0,0,1-1.646-.584,5.194,5.194,0,0,0-3.544-1.288,5.293,5.293,0,0,0-3.7,1.5,1.363,1.363,0,0,1-1,.373c-2.325-.014-4.65-.028-6.974.007a2.282,2.282,0,0,1-1.7-.606,5.17,5.17,0,0,0-3.492-1.269,5.275,5.275,0,0,0-3.709,1.477,1.424,1.424,0,0,1-1.05.393q-2.08-.031-4.161,0c-.364.006-.441-.1-.464-.458a15.51,15.51,0,0,1,.056-1.7,1.741,1.741,0,0,1,1.9-1.592c1.445-.025,2.891-.007,4.337-.007h11.37" transform="translate(-61.178 -111.823)" fill="#e43f41"/>
        <path id="Trazado_823767" data-name="Trazado 823767" d="M136.292,199.083c-1.016,0-2.032-.013-3.047.007-.393.008-.555-.124-.428-.505.257-.773.393-1.579.622-2.354a1.228,1.228,0,0,1,1.242-.889c1.563,0,3.125.008,4.688-.006.291,0,.358.1.354.369-.014,1-.023,1.992,0,2.987.01.367-.144.4-.445.4-1-.016-1.992-.006-2.988-.007" transform="translate(-70.28 -103.395)" fill="#c4d4e1"/>
      </g>
    </g>
  </g>
</svg>
