<svg xmlns="http://www.w3.org/2000/svg" xmlns:xlink="http://www.w3.org/1999/xlink" width="169" height="169" viewBox="0 0 169 169">
  <defs>
    <clipPath id="clip-path">
      <rect id="Rect치ngulo_378254" data-name="Rect치ngulo 378254" width="106.839" height="106.816" fill="none"/>
    </clipPath>
  </defs>
  <g id="Grupo_1073946" data-name="Grupo 1073946" transform="translate(-385.208 -2057.51)">
    <g id="Grupo_159182" data-name="Grupo 159182" transform="translate(385.208 2057.51)">
      <path id="Uni칩n_12" data-name="Uni칩n 12" d="M84.5,0A84.5,84.5,0,1,1,0,84.5,84.5,84.5,0,0,1,84.5,0Z" transform="translate(0 0)" fill="#ffae7e"/>
    </g>
    <g id="Grupo_1073957" data-name="Grupo 1073957" transform="translate(416.289 2085.435)">
      <g id="Grupo_1073956" data-name="Grupo 1073956" clip-path="url(#clip-path)">
        <path id="Trazado_823595" data-name="Trazado 823595" d="M.057,137.217c0-.986.02-1.974-.022-2.959-.018-.433.137-.481.512-.48,4.79.012,9.579,0,14.37.02.495,0,.647-.079.646-.62q-.029-16.631-.024-33.261c0-.442.06-.627.565-.592.767.053,1.543-.013,2.312.024.449.022.592-.07.591-.566C18.988,89.993,19,81.2,18.981,72.411c0-.5.085-.645.622-.644q18.352.028,36.7,0c.446,0,.623.066.59.566-.052.8.006,1.614-.022,2.42-.013.365.066.49.459.478,1.021-.031,2.044-.01,3.067-.011a22.051,22.051,0,0,1,4.419.411A10.482,10.482,0,0,1,69.407,77.8a12.558,12.558,0,0,1,4.219,6.272c.135.448.211.911.343,1.362.111.381.191.251.353.085A11.32,11.32,0,0,1,79.284,82.6,10.023,10.023,0,0,1,81.5,82.21c3.131-.212,6.263-.032,9.393-.089.175,0,.441-.135.445.256A13.719,13.719,0,0,1,89.9,89.436a11.87,11.87,0,0,1-5.9,5.4A13.441,13.441,0,0,1,78.6,95.9c-1.381-.023-2.763,0-4.144-.007-.216,0-.363-.008-.361.3.013,2.219.007,4.438.007,6.7a5.478,5.478,0,0,0,1.354-1.077,10.113,10.113,0,0,1,5.2-2.253c3.438-.417,6.894-.146,10.342-.222.2,0,.325.006.328.273a13.907,13.907,0,0,1-1.373,6.916A12.54,12.54,0,0,1,82.2,112.72a11.05,11.05,0,0,1-2.855.4c-1.6-.007-3.193.013-4.789-.012-.4-.006-.454.126-.453.482q.016,9.85,0,19.7c0,.449.148.506.538.506q15.8-.014,31.592-.017c.46,0,.649.071.62.59-.052.948-.02,1.9-.023,2.851-.179,0-.358.013-.537.013H1.187c-.376,0-.753-.008-1.129-.013M53.439,104.5q0-14.368.011-28.736c0-.451-.11-.551-.554-.55q-14.96.021-29.919,0c-.45,0-.552.108-.551.553q.023,11.516,0,23.032c0,.451.111.55.555.55,7.659-.015,15.318-.005,22.977-.023.5,0,.6.131.6.611q-.021,16.655-.022,33.31c0,.452.112.556.556.55,1.919-.027,3.839-.032,5.758,0,.506.009.6-.145.6-.616q-.021-14.341-.01-28.682M43.105,118.284c0-4.987-.007-9.974.011-14.961,0-.448-.1-.552-.551-.551q-11.516.023-23.033,0c-.448,0-.551.105-.55.552q.021,14.961,0,29.922c0,.447.1.552.551.551q11.516-.023,23.033,0c.448,0,.552-.105.55-.552-.018-4.987-.011-9.974-.011-14.961m13.8-15.769c-.01.187-.016.256-.016.325q0,15.256-.011,30.513c0,.423.164.439.5.438q6.4-.014,12.808,0c.4,0,.5-.092.5-.5q-.019-13.293,0-26.585c0-.4-.086-.494-.492-.5-2-.031-4,.115-6-.094a11.4,11.4,0,0,1-3.873-1.1,12.281,12.281,0,0,1-3.4-2.505m-.017-17.236c0,2.373.007,4.612-.008,6.851,0,.331.155.322.39.322,1.947,0,3.895-.047,5.838.1a9.416,9.416,0,0,1,1.211.129,11.059,11.059,0,0,1,5.37,2.574c.3.279.618.546.977.862,0-2.273-.014-4.459.012-6.645.005-.429-.136-.475-.51-.483-1.982-.038-3.965.109-5.948-.093a11.437,11.437,0,0,1-3.923-1.108,12.509,12.509,0,0,1-3.411-2.514m27.758.282a16.24,16.24,0,0,0-3.869.22,8.6,8.6,0,0,0-6.4,6.154c-.143.456.037.521.426.518,1.487-.012,2.974-.006,4.461,0a7.988,7.988,0,0,0,2.15-.279A8.427,8.427,0,0,0,87.6,86.032c.134-.461,0-.478-.36-.474-.824.01-1.648,0-2.6,0m-7.42,24.11a15.429,15.429,0,0,0,4.193-.278,8.424,8.424,0,0,0,6.19-6.14c.135-.465-.009-.474-.362-.472q-1.881.012-3.763,0a10.426,10.426,0,0,0-2.711.221,8.615,8.615,0,0,0-6.395,6.157c-.144.459.043.522.428.515.806-.015,1.613,0,2.419,0M67.473,85.559c.842,0,1.686-.02,2.528.008.457.016.531-.179.4-.545a12.528,12.528,0,0,0-.473-1.24,8.5,8.5,0,0,0-7.848-5.1c-1.5-.062-3.012-.013-4.519-.009-.47,0-.606.166-.438.58a12.083,12.083,0,0,0,1.488,2.882,8.547,8.547,0,0,0,6.173,3.409,26.791,26.791,0,0,0,2.687.014m-.216,17.224c1.053,0,1.914-.019,2.774.008.443.014.49-.2.379-.524a10.972,10.972,0,0,0-.47-1.241,8.517,8.517,0,0,0-7.89-5.12c-1.5-.058-3.013.006-4.518-.019-.482-.008-.533.252-.41.566A11.611,11.611,0,0,0,58.6,99.339a8.5,8.5,0,0,0,5.024,3.236,18.041,18.041,0,0,0,3.634.208" transform="translate(-0.019 -40.76)"/>
        <path id="Trazado_823596" data-name="Trazado 823596" d="M.088,223.254c.376,0,.753.013,1.129.013h105.1c.179,0,.359-.008.537-.013q0,3.457,0,6.915c-.108-.005-.215-.014-.322-.014l-105.421,0c-.341,0-.681.008-1.022.013q0-3.458,0-6.916" transform="translate(-0.05 -126.796)" fill="#a9b1bc"/>
        <path id="Trazado_823597" data-name="Trazado 823597" d="M200.75,75.771c1.472,0,2.943,0,4.414,0,.309,0,.483.027.573.434.332,1.507.833,2.981,1.106,4.5.226,1.263.464,2.529.629,3.808.14,1.081.3,2.169.353,3.249a29.091,29.091,0,0,1,.052,5.5c-.1.719-.05,1.456-.106,2.187a48.774,48.774,0,0,1-.686,5.067c-.265,1.445-.6,2.872-.948,4.3a21.261,21.261,0,0,1-.869,2.986c-.378.929-.573,1.9-.931,2.837a53.124,53.124,0,0,1-6.618,11.943,52.1,52.1,0,0,1-3.254,4.071c-.191.216-.168.325.029.515.863.835,1.7,1.7,2.565,2.531.27.262.384.4-.107.514-1.478.353-2.948.742-4.422,1.113q-3.085.776-6.173,1.545c-2.012.5-4.028.979-6.041,1.475-.625.154-1.243.334-1.865.5-.184.049-.4.114-.324-.217q.546-2.261,1.107-4.517c.831-3.308,1.681-6.612,2.49-9.926a6.444,6.444,0,0,0,.251-1.5,5.269,5.269,0,0,1,.341-.954c.169-.593.319-1.193.457-1.794a.381.381,0,0,1,.186-.3c.1-.046.164.045.219.113.932,1.161,2.067,2.125,3.1,3.191.7.728.856.722,1.429-.116a10.34,10.34,0,0,0,.875-1.112c.365-.735,1.027-1.235,1.434-1.943.423-.737.938-1.423,1.387-2.149a35.887,35.887,0,0,0,2.257-4.2,38.378,38.378,0,0,0,1.667-4.322c.418-1.345.854-2.687,1.185-4.052.268-1.11.41-2.253.613-3.379a28.749,28.749,0,0,0,.377-3.618,20.441,20.441,0,0,0,.059-4.206,15.608,15.608,0,0,1-.137-2.069,32.77,32.77,0,0,0-.488-4.083c-.224-1.558-.747-3.041-.988-4.581a21.327,21.327,0,0,1-.044-3.116c0-.312.231-.21.384-.211,1.489-.006,2.978,0,4.467,0m.547,3.444c-.484,0-.969.012-1.453,0-.386-.012-.43.107-.312.471a16.607,16.607,0,0,1,.569,2.186q.324,1.817.568,3.648c.22,1.653.327,3.31.4,4.969a22.638,22.638,0,0,1-.074,2.942c-.106,1.2-.188,2.4-.323,3.592a40.864,40.864,0,0,1-.887,5.031,46.744,46.744,0,0,1-2.991,8.717,47.27,47.27,0,0,1-6.674,10.447c-.862,1.03-1.808,1.991-2.717,2.981-.185.2-.316.289-.564-.006-.484-.574-1.046-1.082-1.576-1.617-.443-.448-.481-.45-.644.188-.585,2.293-1.154,4.591-1.726,6.887-.114.458,0,.585.459.473,2.361-.581,4.7-1.246,7.088-1.729.275-.056.462-.214.147-.5-.253-.227-.475-.49-.736-.706-.219-.18-.229-.3-.027-.508a49.994,49.994,0,0,0,6.221-7.6c1.082-1.671,2.1-3.377,3.021-5.143a47.669,47.669,0,0,0,2.6-5.982c.562-1.567,1.027-3.174,1.431-4.789a44.881,44.881,0,0,0,1.092-6.205c.18-1.727.26-3.467.325-5.2.035-.9-.075-1.813-.09-2.72-.016-.995-.123-1.981-.2-2.97-.141-1.76-.473-3.488-.766-5.223-.275-1.626-.268-1.628-1.941-1.628H201.3" transform="translate(-101.157 -43.027)"/>
        <path id="Trazado_823598" data-name="Trazado 823598" d="M25.037,42.006a5.152,5.152,0,0,1-1.211-1.181c-.791-1-1.794-1.791-2.645-2.731-.227-.251-.34.02-.461.146a25.844,25.844,0,0,0-2.462,3.192,44.027,44.027,0,0,0-5.681,11.038A41.766,41.766,0,0,0,11.041,58.2c-.239,1.256-.378,2.54-.494,3.823-.155,1.708-.172,3.413-.186,5.122a34.025,34.025,0,0,0,.42,5.169,26.816,26.816,0,0,0,.772,4.222,16.673,16.673,0,0,1,.538,4.978c0,.251-.093.291-.313.29q-4.575-.01-9.149,0c-.311,0-.388-.105-.453-.426-.2-.989-.519-1.954-.734-2.941-.283-1.3-.531-2.608-.761-3.919-.2-1.12-.3-2.255-.449-3.382a46.79,46.79,0,0,1-.169-7.375,36.647,36.647,0,0,1,.353-4.053c.152-1.11.365-2.213.5-3.329a26.318,26.318,0,0,1,.649-2.87c.329-1.41.731-2.8,1.173-4.173.356-1.108.809-2.186,1.229-3.273a19.272,19.272,0,0,1,1.07-2.455c.9-1.6,1.688-3.262,2.651-4.829a52.887,52.887,0,0,1,3.78-5.447,14.737,14.737,0,0,1,1.852-2.158.48.48,0,0,0,.021-.833C12.532,29.583,11.753,28.8,11,28c-.16-.171-.58-.181-.482-.442.09-.238.478-.165.733-.236,2.124-.586,4.264-1.1,6.4-1.637,3.337-.834,6.665-1.7,10.006-2.521.6-.148,1.215-.279,1.82-.432.184-.047.436-.125.324.29-1.433,5.336-2.734,10.706-4.058,16.07-.233.943-.486,1.879-.7,2.919M25.2,27.453a2.429,2.429,0,0,0-.708.014c-.759.207-1.517.415-2.28.605-1.518.38-3.039.744-4.555,1.132-.132.034-.362-.027-.394.188-.024.158.139.235.243.331.2.181.387.374.592.548.28.237.269.431.012.7a55.342,55.342,0,0,0-5.348,6.359A52.362,52.362,0,0,0,9.9,41.722a49.845,49.845,0,0,0-4.808,11.82,47.858,47.858,0,0,0-1.2,6.233,46.564,46.564,0,0,0-.4,4.709,48.2,48.2,0,0,0,.3,7.628c.137.959.267,1.919.431,2.873.169.986.372,1.965.541,2.951a.433.433,0,0,0,.5.42c.933-.008,1.866-.021,2.8.006.384.011.44-.176.361-.455a43.25,43.25,0,0,1-.989-4.782,36.679,36.679,0,0,1-.482-4.574,39.6,39.6,0,0,1,.062-5.2c.126-1.372.248-2.741.446-4.1a41.611,41.611,0,0,1,1.536-6.764,46.7,46.7,0,0,1,3.1-7.483,48.524,48.524,0,0,1,3.245-5.369,55.721,55.721,0,0,1,5.079-6.087c.37-.392.609-.38.949,0,.477.535.991,1.037,1.491,1.552.219.226.383.37.44-.125a11.9,11.9,0,0,1,.334-1.324c.487-2.066,1.035-4.117,1.569-6.2" transform="translate(0 -12.886)"/>
        <path id="Trazado_823599" data-name="Trazado 823599" d="M142.092,10.675a30.542,30.542,0,0,0,.777,3.488c.369,1.574.795,3.135,1.176,4.708.19.783.4,1.566.646,2.34.219.7.329,1.443.518,2.162.534,2.036,1.03,4.082,1.556,6.12.038.147.1.3,0,.393-.143.128-.267-.067-.388-.095-.761-.173-1.509-.388-2.262-.59-1.516-.407-3.051-.745-4.577-1.119q-3.871-.949-7.739-1.908c-1.054-.261-2.108-.528-3.155-.814a4.532,4.532,0,0,0-.578-.048.562.562,0,0,1-.477-.277c-.072-.179.149-.262.254-.369,1.06-1.07,2.105-2.157,3.2-3.186.414-.388.34-.683-.005-.961-.88-.71-1.765-1.416-2.691-2.063-1.178-.823-2.375-1.625-3.608-2.362-1.091-.652-2.227-1.235-3.374-1.784a28.163,28.163,0,0,0-3.144-1.3c-1.626-.548-3.253-1.083-4.926-1.487a35.971,35.971,0,0,0-4.91-.836c-1.054-.1-2.117-.171-3.175-.252a30.845,30.845,0,0,0-3.372-.067c-1.123.036-2.241.249-3.365.292a33.018,33.018,0,0,0-4.611.674c-.747.136-1.479.352-2.213.55a17.064,17.064,0,0,1-3.715.194c-.348.017-.2-.283-.2-.438-.009-2.475-.007-4.95-.007-7.425,0-.52.013-1.04,0-1.56a.365.365,0,0,1,.323-.428C89.667,1.784,91.27,1.279,92.926,1,94.616.708,96.314.448,98.017.257,98.574.2,99.145.17,99.709.124a34.817,34.817,0,0,1,4.386-.093c1.925.088,3.856.183,5.764.432,1.842.241,3.667.62,5.486,1.03,1.56.352,3.071.86,4.62,1.236A21.19,21.19,0,0,1,122.949,3.8a55.077,55.077,0,0,1,12.009,6.787q1.715,1.272,3.317,2.677c.526.46.7.375,1.361-.358.682-.758,1.428-1.46,2.151-2.182.044-.044.129-.048.195-.071l.11.025m.081,14.432c-.645-2.583-1.283-5.1-1.895-7.62-.1-.414-.238-.258-.407-.09-.241.24-.476.486-.7.741-.2.222-.356.221-.574,0a50.609,50.609,0,0,0-9.2-7.274c-1.243-.759-2.5-1.495-3.809-2.133a51.483,51.483,0,0,0-7.1-2.847,47.576,47.576,0,0,0-5.618-1.431c-1.613-.3-3.239-.552-4.882-.694-1.41-.122-2.822-.205-4.233-.282a28.207,28.207,0,0,0-3.258.063c-1.293.079-2.58.182-3.863.353-1.663.222-3.313.521-4.954.871-.328.07-.524.168-.506.579.038.878.045,1.759,0,2.636-.026.5.241.5.549.413a34.637,34.637,0,0,1,4.766-.984,48.448,48.448,0,0,1,5.5-.483,57.054,57.054,0,0,1,6.12.275,32.967,32.967,0,0,1,3.467.477,47.475,47.475,0,0,1,6.245,1.582,46.17,46.17,0,0,1,8.521,3.8,50.354,50.354,0,0,1,9.7,7.4c.319.3.337.539.006.839-.505.458-.986.941-1.478,1.412-.127.122-.348.223-.3.41s.264.216.464.265c1.695.412,3.376.881,5.077,1.267a10.77,10.77,0,0,0,2.374.459" transform="translate(-49.813 0)"/>
        <path id="Trazado_823600" data-name="Trazado 823600" d="M.089,239.241c.34,0,.681-.013,1.022-.013l105.421,0c.108,0,.215.009.322.014,0,1.022-.008,2.045.016,3.067.008.324-.111.406-.4.368a2.437,2.437,0,0,0-.323,0H.728c-.072,0-.143,0-.215,0-.22-.007-.342.084-.377-.339C.05,241.3.127,240.27.089,239.241" transform="translate(-0.051 -135.868)"/>
        <path id="Trazado_823601" data-name="Trazado 823601" d="M213.439,24.528l-.11-.025c.016-.039.038-.113.049-.112.085.011.055.084.061.137" transform="translate(-121.16 -13.853)" fill="#e5e8ed"/>
        <path id="Trazado_823602" data-name="Trazado 823602" d="M82.875,109.034q0,14.341.01,28.682c0,.472-.092.625-.6.616-1.919-.034-3.838-.029-5.758,0-.443.006-.556-.1-.555-.55Q76,121.125,76,104.47c0-.48-.106-.612-.6-.611-7.659.018-15.318.008-22.977.023-.443,0-.556-.1-.555-.55q.023-11.516,0-23.032c0-.445.1-.554.55-.553q14.96.022,29.919,0c.444,0,.555.1.554.55q-.022,14.369-.011,28.736M63.944,83.2c-.448,0-.9.015-1.343-.006-.283-.013-.41.042-.4.37.023.913.021,1.827,0,2.74-.007.3.106.35.371.346.913-.014,1.827-.018,2.74,0,.3.006.35-.107.346-.372-.014-.913-.018-1.827,0-2.74.007-.3-.106-.357-.371-.346-.447.019-.9.005-1.343.005m-.013,13.806c-.565.02-1.322-.272-1.641.086-.278.313-.092,1.056-.078,1.608s-.247,1.323.108,1.641c.311.279,1.055.092,1.607.079s1.322.247,1.64-.108c.279-.312.092-1.055.079-1.607s.247-1.324-.108-1.64c-.31-.274-1.055-.057-1.607-.057m-6.89,0c-.565.022-1.322-.272-1.64.087-.278.315-.092,1.056-.078,1.609s-.248,1.322.109,1.64c.313.279,1.056.092,1.608.078s1.323.248,1.64-.109c.278-.312.092-1.055.078-1.608s.248-1.325-.109-1.639c-.311-.274-1.055-.057-1.608-.057m-1.7-12.084c.022.565-.272,1.322.087,1.64.314.278,1.056.092,1.608.078s1.322.248,1.64-.109c.278-.312.092-1.056.078-1.608s.248-1.323-.109-1.64c-.312-.279-1.056-.092-1.608-.078s-1.325-.248-1.639.109c-.274.311-.057,1.055-.057,1.608M70.871,97.009c-.571,0-1.338-.224-1.66.059-.369.325-.093,1.108-.11,1.691-.016.534-.194,1.253.076,1.556.309.347,1.041.094,1.589.107.57.013,1.337.207,1.66-.08.368-.328.093-1.109.11-1.692.016-.534.193-1.249-.076-1.557-.31-.355-1.043-.057-1.589-.084m8.559,1.66c0-.448-.019-.9.006-1.343.017-.3-.1-.354-.367-.35-.913.015-1.827.019-2.74,0-.3-.006-.354.1-.35.368.015.913.018,1.827,0,2.74-.006.3.1.354.368.35.913-.015,1.827-.018,2.74,0,.3.006.361-.1.35-.368-.02-.465-.006-.931-.006-1.4m-8.611-8.55c-.564.022-1.322-.272-1.64.087-.278.314-.092,1.056-.078,1.608s-.248,1.322.109,1.64c.312.278,1.056.092,1.608.078s1.323.248,1.64-.109c.279-.312.092-1.056.078-1.608s.248-1.325-.109-1.639c-.311-.274-1.055-.057-1.608-.057m-8.585,1.695c.036.564-.281,1.321.085,1.641.318.278,1.057.092,1.609.078s1.322.247,1.64-.109c.279-.312.092-1.055.078-1.607s.247-1.323-.109-1.641c-.312-.278-1.055-.092-1.607-.078s-1.324-.247-1.639.109c-.274.31-.057,1.055-.057,1.607m-6.89,0c.037.564-.281,1.321.086,1.641.319.277,1.057.091,1.609.077s1.322.248,1.64-.109c.279-.312.092-1.056.078-1.608s.248-1.323-.109-1.64c-.313-.278-1.056-.092-1.608-.078s-1.325-.248-1.639.11c-.274.311-.057,1.055-.057,1.608M79.43,84.954c0-.483-.011-.967,0-1.45.007-.233-.064-.308-.3-.305q-1.424.018-2.847,0c-.233,0-.308.064-.305.3q.019,1.423,0,2.847c0,.233.064.308.3.305q1.423-.018,2.847,0c.232,0,.313-.064.3-.3-.017-.465,0-.931,0-1.4m-8.613,1.667c.565-.02,1.322.272,1.641-.086.278-.313.092-1.056.078-1.608s.247-1.322-.108-1.641c-.312-.279-1.055-.092-1.607-.079s-1.322-.247-1.64.109c-.279.311-.092,1.055-.079,1.607s-.247,1.324.109,1.64c.31.274,1.054.057,1.607.057M79.4,91.867c0-.57.224-1.339-.059-1.66-.325-.368-1.108-.093-1.691-.11-.534-.016-1.253-.193-1.555.076-.347.309-.094,1.041-.107,1.589-.013.57-.207,1.337.08,1.66.328.368,1.109.093,1.692.11.534.016,1.25.193,1.557-.076.354-.31.057-1.043.083-1.589" transform="translate(-29.455 -45.292)" fill="#cbd0d8"/>
        <path id="Trazado_823603" data-name="Trazado 823603" d="M68.013,159.042c0,4.987-.006,9.974.011,14.961,0,.446-.1.553-.55.552q-11.516-.023-23.033,0c-.447,0-.552-.1-.551-.551q.021-14.962,0-29.922c0-.446.1-.553.55-.552q11.516.023,23.033,0c.447,0,.553.1.552.551-.018,4.987-.012,9.974-.012,14.961M49.1,146.986c-.466,0-.932.013-1.4-.005-.267-.01-.374.051-.367.348.021.914.016,1.828,0,2.742,0,.267.051.374.349.367.913-.02,1.828-.016,2.742,0,.267,0,.373-.051.367-.348-.02-.914-.016-1.828,0-2.742,0-.267-.05-.384-.349-.366-.446.027-.9.007-1.344.007m8.552,1.723c-.022-.565.27-1.323-.088-1.641-.313-.278-1.056-.09-1.609-.076s-1.324-.247-1.641.108c-.279.312-.09,1.056-.076,1.609s-.247,1.324.108,1.641c.312.279,1.056.09,1.609.076s1.326.247,1.64-.108c.275-.31.057-1.056.057-1.609m6.888,0c-.02-.565.27-1.323-.086-1.642-.312-.279-1.056-.091-1.609-.078s-1.324-.246-1.642.108c-.279.31-.091,1.055-.078,1.608s-.246,1.323.108,1.642c.31.279,1.056.091,1.608.078s1.326.246,1.641-.108c.274-.308.057-1.055.057-1.608M49.12,153.9c-.571,0-1.341-.224-1.66.059-.367.325-.092,1.109-.109,1.693-.015.534-.194,1.255.075,1.557.309.346,1.042.093,1.59.106.57.013,1.339.208,1.66-.079.366-.327.092-1.11.109-1.693.015-.534.194-1.251-.075-1.558-.31-.353-1.043-.057-1.59-.084m6.865-.025c-.484,0-.968.011-1.451,0-.234-.008-.307.063-.3.3q.019,1.425,0,2.85c0,.233.063.307.3.3q1.424-.019,2.849,0c.233,0,.307-.063.3-.3q-.019-1.424,0-2.849c0-.233-.062-.313-.3-.3-.465.017-.932.005-1.4.005m8.559,1.776c0-.571.224-1.34-.059-1.661-.324-.368-1.109-.093-1.692-.11-.534-.016-1.254-.2-1.557.074-.347.308-.093,1.041-.106,1.589-.013.571-.209,1.339.078,1.661.327.368,1.11.092,1.693.11.535.016,1.251.195,1.558-.074.355-.31.057-1.043.085-1.59m-17.166,6.792c0,.57-.225,1.345.059,1.656.327.358,1.11.091,1.695.1.534.013,1.259.19,1.553-.081.337-.311.092-1.043.1-1.593.01-.569.2-1.344-.085-1.656-.331-.358-1.112-.091-1.7-.1-.534-.012-1.255-.19-1.554.081-.346.313-.056,1.045-.073,1.593m10.275.047c-.019-.565.27-1.323-.084-1.642-.311-.279-1.056-.091-1.608-.078s-1.323-.246-1.642.107c-.279.309-.091,1.055-.078,1.608s-.246,1.324.107,1.642c.309.279,1.055.092,1.608.079s1.326.246,1.641-.107c.274-.307.057-1.055.057-1.608m6.916.032c0-.466-.013-.932.005-1.4.011-.267-.051-.374-.348-.367-.913.02-1.828.016-2.742,0-.267,0-.373.051-.367.349.02.914.016,1.828,0,2.742,0,.267.051.373.349.367.913-.02,1.828-.016,2.742,0,.267,0,.384-.05.366-.349-.026-.447-.007-.9-.007-1.344M50.79,169.33c0-.448-.013-.9,0-1.344.01-.248-.052-.343-.322-.338-.932.016-1.864.014-2.8,0-.248,0-.343.052-.338.322.016.932.014,1.864,0,2.8,0,.248.052.343.322.338.932-.016,1.864-.022,2.8,0,.319.008.342-.132.335-.379-.013-.465,0-.932,0-1.4m6.864.047c-.038-.564.28-1.322-.086-1.642-.318-.277-1.058-.09-1.61-.076s-1.323-.247-1.641.108c-.279.311-.091,1.056-.077,1.609s-.247,1.323.108,1.641c.311.279,1.056.09,1.609.076s1.326.247,1.641-.108c.274-.31.057-1.056.057-1.609m5.192,1.7c.565-.022,1.323.27,1.641-.088.278-.313.09-1.057.076-1.609s.247-1.323-.108-1.641c-.312-.279-1.056-.091-1.609-.076s-1.324-.247-1.641.108c-.279.312-.09,1.056-.076,1.609s-.247,1.326.109,1.64c.31.274,1.056.057,1.609.057" transform="translate(-24.927 -81.517)" fill="#e5e8ed"/>
        <path id="Trazado_823604" data-name="Trazado 823604" d="M182.3,103.682c.955,0,1.779.007,2.6,0,.357,0,.493.012.359.474a8.427,8.427,0,0,1-6.191,6.138,7.992,7.992,0,0,1-2.151.279c-1.487,0-2.974-.007-4.461,0-.388,0-.569-.061-.426-.518a8.6,8.6,0,0,1,6.4-6.154,16.264,16.264,0,0,1,3.869-.22" transform="translate(-97.68 -58.88)" fill="#7eff5a"/>
        <path id="Trazado_823605" data-name="Trazado 823605" d="M174.882,150.44c-.806,0-1.613-.01-2.419,0-.385.007-.572-.056-.429-.515a8.617,8.617,0,0,1,6.4-6.157,10.42,10.42,0,0,1,2.71-.221q1.881.012,3.763,0c.353,0,.5.007.363.472a8.424,8.424,0,0,1-6.191,6.14,15.41,15.41,0,0,1-4.193.278" transform="translate(-97.679 -81.529)" fill="#7eff5a"/>
        <path id="Trazado_823606" data-name="Trazado 823606" d="M142.431,94.608a26.782,26.782,0,0,1-2.687-.014,8.547,8.547,0,0,1-6.174-3.409,12.084,12.084,0,0,1-1.488-2.882c-.168-.414-.032-.579.438-.58,1.506,0,3.015-.053,4.518.009a8.5,8.5,0,0,1,7.848,5.1,12.386,12.386,0,0,1,.474,1.24c.13.366.056.561-.4.545-.842-.029-1.685-.008-2.528-.008" transform="translate(-74.977 -49.81)" fill="#7eff5a"/>
        <path id="Trazado_823607" data-name="Trazado 823607" d="M142.229,134.48a18.042,18.042,0,0,1-3.634-.208,8.5,8.5,0,0,1-5.024-3.236,11.611,11.611,0,0,1-1.477-2.887c-.123-.314-.072-.574.41-.566,1.506.025,3.014-.039,4.518.019a8.517,8.517,0,0,1,7.89,5.12,10.97,10.97,0,0,1,.47,1.241c.111.328.064.538-.379.524-.86-.028-1.721-.008-2.774-.008" transform="translate(-74.99 -72.457)" fill="#7eff5a"/>
        <path id="Trazado_823608" data-name="Trazado 823608" d="M207.527,83.753h.215c1.672,0,1.666,0,1.941,1.628.293,1.735.625,3.462.766,5.223.079.99.186,1.976.2,2.97.015.907.125,1.816.09,2.72-.065,1.737-.145,3.477-.325,5.2a44.881,44.881,0,0,1-1.092,6.205c-.4,1.615-.87,3.222-1.431,4.789a47.664,47.664,0,0,1-2.6,5.982c-.921,1.766-1.939,3.472-3.021,5.143a49.993,49.993,0,0,1-6.221,7.6c-.2.208-.192.328.027.508.261.215.483.478.736.706.315.283.128.44-.147.5-2.386.483-4.727,1.148-7.088,1.729-.455.112-.573-.015-.459-.473.573-2.3,1.141-4.594,1.726-6.887.163-.638.2-.636.644-.188.53.535,1.091,1.044,1.576,1.617.248.3.379.208.564.006.909-.99,1.855-1.951,2.717-2.981a47.274,47.274,0,0,0,6.674-10.448,46.73,46.73,0,0,0,2.991-8.717,40.867,40.867,0,0,0,.887-5.031c.135-1.2.217-2.395.323-3.592a22.64,22.64,0,0,0,.074-2.942c-.07-1.66-.177-3.317-.4-4.969q-.244-1.832-.568-3.648a16.609,16.609,0,0,0-.569-2.186c-.118-.363-.073-.483.312-.471.484.016.969,0,1.453,0" transform="translate(-107.387 -47.564)" fill="#fde8a6"/>
        <path id="Trazado_823609" data-name="Trazado 823609" d="M29.751,33.692c-.534,2.086-1.082,4.136-1.569,6.2a11.9,11.9,0,0,0-.334,1.324c-.057.495-.221.351-.44.125-.5-.515-1.014-1.016-1.491-1.551-.34-.383-.579-.4-.949,0a55.721,55.721,0,0,0-5.079,6.087,48.524,48.524,0,0,0-3.245,5.369,46.7,46.7,0,0,0-3.1,7.483,41.611,41.611,0,0,0-1.536,6.764c-.2,1.364-.32,2.733-.446,4.1a39.6,39.6,0,0,0-.062,5.2,36.679,36.679,0,0,0,.482,4.574,43.25,43.25,0,0,0,.989,4.782c.079.279.023.466-.361.455-.932-.027-1.866-.014-2.8-.006a.433.433,0,0,1-.5-.42c-.169-.986-.372-1.966-.541-2.951-.164-.954-.294-1.914-.431-2.873a48.2,48.2,0,0,1-.3-7.628,46.564,46.564,0,0,1,.4-4.709,47.857,47.857,0,0,1,1.2-6.233,49.845,49.845,0,0,1,4.808-11.82,52.362,52.362,0,0,1,2.861-4.387,55.342,55.342,0,0,1,5.348-6.359c.258-.273.268-.467-.012-.7-.2-.174-.393-.367-.592-.548-.1-.1-.267-.172-.243-.331.032-.215.262-.155.394-.188,1.516-.388,3.037-.752,4.555-1.132.763-.191,1.521-.4,2.28-.605a2.429,2.429,0,0,1,.708-.014" transform="translate(-4.552 -19.125)" fill="#fde8a6"/>
        <path id="Trazado_823610" data-name="Trazado 823610" d="M146.715,29.652a10.769,10.769,0,0,1-2.374-.459c-1.7-.386-3.382-.855-5.077-1.267-.2-.049-.418-.069-.464-.265s.177-.288.3-.41c.492-.471.973-.955,1.478-1.412.331-.3.313-.536-.006-.839a50.353,50.353,0,0,0-9.7-7.4,46.17,46.17,0,0,0-8.521-3.8,47.476,47.476,0,0,0-6.245-1.582,32.967,32.967,0,0,0-3.467-.477,57.054,57.054,0,0,0-6.12-.275,48.448,48.448,0,0,0-5.5.483,34.637,34.637,0,0,0-4.766.984c-.308.091-.575.084-.549-.413.046-.877.04-1.758,0-2.636-.018-.411.178-.509.506-.579,1.641-.35,3.291-.649,4.954-.871,1.283-.171,2.569-.274,3.863-.353a28.207,28.207,0,0,1,3.258-.063c1.411.077,2.823.16,4.233.282,1.643.143,3.269.4,4.882.694a47.576,47.576,0,0,1,5.618,1.431,51.483,51.483,0,0,1,7.1,2.847c1.312.638,2.566,1.374,3.809,2.133a50.608,50.608,0,0,1,9.2,7.274c.218.216.376.217.574,0,.226-.254.461-.5.7-.741.169-.168.306-.324.407.09.612,2.522,1.249,5.037,1.895,7.62" transform="translate(-54.354 -4.545)" fill="#fde8a6"/>
        <path id="Trazado_823611" data-name="Trazado 823611" d="M77.532,87.736c.448,0,.9.014,1.343-.005.266-.011.378.045.372.346-.02.913-.016,1.827,0,2.74,0,.265-.045.378-.346.372-.913-.02-1.827-.016-2.74,0-.265,0-.378-.045-.371-.346.02-.913.022-1.827,0-2.74-.008-.328.119-.383.4-.37.447.021.9.006,1.343.006" transform="translate(-43.043 -49.825)"/>
        <path id="Trazado_823612" data-name="Trazado 823612" d="M77.432,119.578c.553,0,1.3-.217,1.607.057.356.315.1,1.074.109,1.64s.2,1.3-.079,1.607c-.318.356-1.075.095-1.641.108s-1.3.2-1.607-.079c-.356-.318-.095-1.075-.109-1.641s-.2-1.294.079-1.608c.318-.358,1.076-.066,1.641-.086" transform="translate(-42.956 -67.861)"/>
        <path id="Trazado_823613" data-name="Trazado 823613" d="M61.485,119.576c.553,0,1.3-.217,1.608.057.357.315.1,1.074.109,1.639s.2,1.3-.078,1.608c-.318.356-1.075.095-1.64.109s-1.3.2-1.608-.077c-.357-.318-.1-1.075-.109-1.64s-.2-1.294.077-1.608c.318-.36,1.076-.066,1.64-.088" transform="translate(-33.9 -67.861)"/>
        <path id="Trazado_823614" data-name="Trazado 823614" d="M59.8,89.37c0-.553-.217-1.3.057-1.608.315-.357,1.074-.1,1.639-.109s1.3-.2,1.608.078c.356.318.095,1.075.109,1.64s.2,1.3-.078,1.608c-.318.356-1.075.095-1.64.109s-1.294.2-1.608-.078c-.359-.318-.065-1.075-.087-1.64" transform="translate(-33.911 -49.737)"/>
        <path id="Trazado_823615" data-name="Trazado 823615" d="M93.424,119.579c.547.026,1.278-.271,1.589.084.269.308.091,1.023.076,1.557-.017.583.258,1.364-.11,1.692-.323.287-1.09.093-1.66.08-.547-.013-1.28.241-1.588-.107-.27-.3-.092-1.022-.076-1.556.017-.583-.258-1.367.11-1.691.321-.283,1.089-.059,1.66-.059" transform="translate(-52.007 -67.863)"/>
        <path id="Trazado_823616" data-name="Trazado 823616" d="M111.131,121.315c0,.466-.014.932.006,1.4.011.27-.053.374-.35.368-.913-.02-1.827-.017-2.74,0-.27,0-.374-.054-.368-.35.02-.913.017-1.827,0-2.74,0-.27.053-.375.35-.368.913.019,1.827.016,2.74,0,.27,0,.384.053.367.35-.025.446-.006.9-.006,1.343" transform="translate(-61.156 -67.938)"/>
        <path id="Trazado_823617" data-name="Trazado 823617" d="M93.376,103.631c.553,0,1.3-.217,1.607.057.357.315.1,1.074.109,1.639s.2,1.3-.078,1.608c-.318.356-1.075.1-1.64.109s-1.3.2-1.608-.078c-.356-.318-.095-1.075-.109-1.64s-.2-1.294.078-1.608c.318-.359,1.076-.066,1.64-.087" transform="translate(-52.012 -58.804)"/>
        <path id="Trazado_823618" data-name="Trazado 823618" d="M75.745,105.315c0-.553-.217-1.3.057-1.607.315-.356,1.074-.1,1.64-.109s1.3-.2,1.607.079c.356.318.095,1.075.109,1.64s.2,1.3-.078,1.608c-.318.356-1.075.095-1.641.109s-1.291.2-1.609-.078c-.366-.32-.049-1.077-.085-1.641" transform="translate(-42.966 -58.793)"/>
        <path id="Trazado_823619" data-name="Trazado 823619" d="M59.8,105.316c0-.553-.217-1.3.057-1.608.315-.357,1.073-.1,1.639-.11s1.295-.2,1.608.078c.357.318.1,1.075.109,1.64s.2,1.3-.077,1.608c-.318.357-1.075.1-1.64.109s-1.291.2-1.61-.077c-.367-.32-.049-1.077-.086-1.64" transform="translate(-33.91 -58.794)"/>
        <path id="Trazado_823620" data-name="Trazado 823620" d="M111.135,89.49c0,.466-.012.932,0,1.4.009.238-.072.3-.3.3q-1.424-.017-2.847,0c-.238,0-.3-.072-.3-.305q.017-1.423,0-2.847c0-.238.072-.3.305-.3q1.423.017,2.847,0c.238,0,.309.072.3.305-.016.483,0,.967,0,1.45" transform="translate(-61.16 -49.828)"/>
        <path id="Trazado_823621" data-name="Trazado 823621" d="M93.374,91.065c-.553,0-1.3.217-1.607-.057-.356-.315-.1-1.074-.109-1.64s-.2-1.3.079-1.607c.318-.356,1.075-.095,1.64-.109s1.3-.2,1.607.079c.356.318.095,1.075.108,1.641s.2,1.295-.078,1.608c-.318.358-1.076.066-1.641.086" transform="translate(-52.012 -49.737)"/>
        <path id="Trazado_823622" data-name="Trazado 823622" d="M111.019,105.364c-.026.547.271,1.279-.083,1.589-.307.269-1.023.092-1.557.076-.583-.017-1.364.258-1.692-.11-.287-.322-.093-1.09-.08-1.66.013-.548-.24-1.28.107-1.589.3-.27,1.021-.092,1.555-.076.583.017,1.367-.258,1.691.11.283.321.059,1.089.059,1.66" transform="translate(-61.071 -58.789)"/>
        <path id="Trazado_823623" data-name="Trazado 823623" d="M53.636,151.518c.448,0,.9.02,1.344-.007.3-.018.353.1.349.366-.014.914-.018,1.828,0,2.742.006.3-.1.353-.367.349-.914-.014-1.828-.018-2.742,0-.3.007-.353-.1-.349-.367.014-.914.019-1.828,0-2.742-.006-.3.1-.359.367-.348.465.019.932.005,1.4.005" transform="translate(-29.46 -86.049)"/>
        <path id="Trazado_823624" data-name="Trazado 823624" d="M71.155,153.154c0,.553.217,1.3-.057,1.609-.315.356-1.075.094-1.641.108s-1.3.2-1.609-.076c-.355-.318-.094-1.075-.108-1.641s-.2-1.3.076-1.609c.318-.355,1.075-.094,1.641-.108s1.3-.2,1.609.076c.358.318.066,1.076.088,1.641" transform="translate(-38.428 -85.963)"/>
        <path id="Trazado_823625" data-name="Trazado 823625" d="M87.1,153.155c0,.553.217,1.3-.057,1.608-.315.354-1.075.094-1.641.108s-1.3.2-1.608-.078c-.354-.318-.094-1.076-.108-1.642s-.2-1.3.078-1.608c.318-.354,1.076-.094,1.642-.108s1.3-.2,1.609.078c.356.318.066,1.077.086,1.642" transform="translate(-47.484 -85.962)"/>
        <path id="Trazado_823626" data-name="Trazado 823626" d="M53.56,167.414c.547.027,1.28-.27,1.59.084.269.307.09,1.023.075,1.558-.016.584.258,1.366-.109,1.694-.321.288-1.09.092-1.66.079-.548-.013-1.281.24-1.59-.105-.27-.3-.09-1.022-.075-1.557.017-.584-.257-1.368.109-1.693.32-.283,1.09-.059,1.66-.059" transform="translate(-29.367 -95.031)"/>
        <path id="Trazado_823627" data-name="Trazado 823627" d="M69.577,167.467c.466,0,.932.012,1.4-.005.238-.009.3.071.3.3q-.017,1.424,0,2.849c0,.238-.071.3-.3.3q-1.424-.018-2.849,0c-.238,0-.3-.071-.3-.3q.018-1.424,0-2.849c0-.238.07-.309.3-.3.483.016.968,0,1.452,0" transform="translate(-38.519 -95.109)"/>
        <path id="Trazado_823628" data-name="Trazado 823628" d="M87.1,169.148c-.029.547.27,1.28-.085,1.59-.308.269-1.024.089-1.558.074-.584-.017-1.366.258-1.693-.11-.287-.322-.092-1.09-.078-1.661.013-.548-.24-1.281.106-1.59.3-.27,1.023-.09,1.557-.074.584.017,1.368-.258,1.692.11.283.321.059,1.09.059,1.661" transform="translate(-47.487 -95.014)"/>
        <path id="Trazado_823629" data-name="Trazado 823629" d="M51.834,185c.017-.548-.273-1.28.073-1.593.3-.27,1.02-.093,1.554-.081.585.013,1.366-.253,1.7.1.289.313.1,1.087.085,1.657-.01.549.236,1.281-.1,1.593-.293.271-1.019.093-1.553.081-.585-.013-1.368.254-1.695-.1-.284-.311-.059-1.086-.059-1.656" transform="translate(-29.383 -104.071)"/>
        <path id="Trazado_823630" data-name="Trazado 823630" d="M71.153,185.048c0,.553.217,1.3-.057,1.607-.316.353-1.075.094-1.641.107s-1.3.2-1.608-.078c-.353-.319-.093-1.076-.107-1.642s-.2-1.3.078-1.608c.319-.353,1.076-.094,1.642-.107s1.3-.2,1.608.079c.355.319.066,1.077.084,1.642" transform="translate(-38.428 -104.075)"/>
        <path id="Trazado_823631" data-name="Trazado 823631" d="M87.213,185.168c0,.448-.02.9.007,1.344.018.3-.1.353-.366.349-.914-.014-1.828-.019-2.742,0-.3.007-.353-.1-.349-.367.014-.914.019-1.828,0-2.742-.007-.3.1-.353.367-.349.914.014,1.828.018,2.742,0,.3-.006.359.1.348.367-.019.465-.005.932-.005,1.4" transform="translate(-47.572 -104.163)"/>
        <path id="Trazado_823632" data-name="Trazado 823632" d="M55.324,201.034c0,.466-.009.932,0,1.4.007.247-.016.388-.335.379-.932-.024-1.864-.018-2.8,0-.27,0-.325-.09-.322-.338.013-.932.015-1.864,0-2.8,0-.269.09-.325.338-.322.932.013,1.864.015,2.8,0,.27,0,.331.09.321.338-.017.448,0,.9,0,1.344" transform="translate(-29.461 -113.221)"/>
        <path id="Trazado_823633" data-name="Trazado 823633" d="M71.155,200.991c0,.553.217,1.3-.057,1.609-.315.355-1.075.094-1.641.108s-1.3.2-1.609-.077c-.355-.318-.094-1.075-.108-1.641s-.2-1.3.076-1.609c.318-.355,1.076-.094,1.641-.108s1.293-.2,1.61.076c.366.32.049,1.078.086,1.642" transform="translate(-38.428 -113.132)"/>
        <path id="Trazado_823634" data-name="Trazado 823634" d="M85.4,202.689c-.553,0-1.3.217-1.609-.057-.356-.315-.095-1.075-.109-1.641s-.2-1.3.076-1.609c.318-.356,1.075-.095,1.641-.108s1.3-.2,1.609.076c.355.318.094,1.075.108,1.641s.2,1.3-.076,1.609c-.318.358-1.076.066-1.641.088" transform="translate(-47.484 -113.132)"/>
      </g>
    </g>
  </g>
</svg>
