<svg xmlns="http://www.w3.org/2000/svg" xmlns:xlink="http://www.w3.org/1999/xlink" width="85" height="85" viewBox="0 0 85 85">
  <defs>
    <clipPath id="clip-path">
      <rect id="Rectángulo_378679" data-name="Rectángulo 378679" width="58.844" height="58.334" fill="#264100"/>
    </clipPath>
  </defs>
  <g id="Grupo_1075437" data-name="Grupo 1075437" transform="translate(-285 -6575)">
    <circle id="Elipse_4873" data-name="Elipse 4873" cx="42.5" cy="42.5" r="42.5" transform="translate(285 6575)" fill="#c1e29a"/>
    <g id="Grupo_1074921" data-name="Grupo 1074921" transform="translate(298.078 6584.333)">
      <g id="Grupo_1074920" data-name="Grupo 1074920" clip-path="url(#clip-path)">
        <path id="Trazado_825328" data-name="Trazado 825328" d="M9.344,161.381c.453,0,.824,0,1.2,0a5.886,5.886,0,0,1,2.882.669,6.945,6.945,0,0,1,.794.515q1.793,1.338,3.573,2.7a.359.359,0,0,0,.517-.021c1.074-.824,2.17-1.62,3.231-2.459a6.191,6.191,0,0,1,4.175-1.4c.312.01.625,0,1.032,0a4.527,4.527,0,0,1-1.813-3.968,4.274,4.274,0,0,1,1.511-2.961,4.466,4.466,0,0,1,6.04.072,4.6,4.6,0,0,1,1.3,2.183,4.246,4.246,0,0,1-.118,2.563,4.817,4.817,0,0,1-1.49,2.052l.02.081c.331,0,.663-.015.993,0a7.862,7.862,0,0,1,4.664,1.811c.857.7,1.773,1.324,2.651,2a.425.425,0,0,0,.617-.009c1.047-.811,2.124-1.582,3.161-2.4a6.219,6.219,0,0,1,4.227-1.422c.3.012.607,0,1,0a4.527,4.527,0,0,1-1.8-4.049,4.374,4.374,0,0,1,1.745-3.086,4.5,4.5,0,1,1,5.463,7.155c.131.028.239.053.346.074A4.306,4.306,0,0,1,58.84,165.8c.008,2.195,0,4.39,0,6.584,0,.564,0,1.127,0,1.691a.982.982,0,0,1-1.07,1.07H46.709A1.015,1.015,0,0,1,45.554,174q0-2.269,0-4.538v-.371c-.422.209-.8.394-1.176.582-.945.472-1.9.924-2.829,1.426a1.432,1.432,0,0,1-1.476-.013c-1.278-.665-2.577-1.29-3.868-1.93a1.1,1.1,0,0,0-.14-.043v.339q0,2.254,0,4.508a1.059,1.059,0,0,1-1.174,1.178q-5.471.005-10.943,0a1.047,1.047,0,0,1-1.17-1.174q0-2.269,0-4.538v-.369l-1.249.634c-.951.482-1.908.952-2.849,1.452a1.229,1.229,0,0,1-1.233,0c-1.3-.665-2.609-1.313-3.915-1.967-.067-.034-.138-.059-.243-.1v.351q0,2.239,0,4.478a1.078,1.078,0,0,1-1.233,1.237q-5.4,0-10.795,0c-.877,0-1.259-.389-1.259-1.273q0-4.063,0-8.127a4.253,4.253,0,0,1,3.681-4.3c.074-.012.146-.031.264-.056a4.581,4.581,0,0,1-1.794-3.952,4.29,4.29,0,0,1,1.542-3.007,4.482,4.482,0,1,1,5.651,6.952m9.64,7.489.8-.393c1.149-.571,2.294-1.149,3.449-1.706a1.184,1.184,0,0,1,.648-.123.953.953,0,0,1,.8,1.082q0,2.6,0,5.19v.309h9.489v-.335q0-2.6,0-5.19a.941.941,0,0,1,1.458-.928c1.033.492,2.055,1.007,3.082,1.512.376.185.754.368,1.153.563,0-.57.008-1.1-.008-1.637a.429.429,0,0,0-.169-.275c-1.005-.767-2.032-1.507-3.023-2.291a6.331,6.331,0,0,0-4.21-1.378c-2.322.044-4.646.016-6.969.009a4.045,4.045,0,0,0-2.57.825c-1.253.963-2.523,1.9-3.783,2.86a.333.333,0,0,0-.139.205c-.011.551-.006,1.1-.006,1.7m-1.9-.018c0-.567.006-1.11-.006-1.652a.388.388,0,0,0-.135-.266c-1.332-1-2.666-2.008-4.01-3a3.119,3.119,0,0,0-1.843-.652q-3.469-.019-6.937,0a2.336,2.336,0,0,0-2.252,2.3q0,3.661,0,7.323v.321h9.489v-.371q0-2.594,0-5.188a.92.92,0,0,1,.871-1.032,1.824,1.824,0,0,1,.753.222c1.348.65,2.688,1.316,4.069,2m39.86,4.382v-.356q0-3.559,0-7.118a2.311,2.311,0,0,0-2.41-2.473c-2.125-.021-4.25-.013-6.376,0a3.748,3.748,0,0,0-2.309.71c-1.309.988-2.624,1.968-3.933,2.956-.065.049-.146.132-.147.2-.012.567-.007,1.134-.007,1.73.082-.032.118-.043.152-.06,1.356-.686,2.708-1.38,4.071-2.051a1.18,1.18,0,0,1,.673-.117c.526.09.794.5.8,1.121q0,2.566,0,5.131v.326ZM6.619,160.44A2.621,2.621,0,0,0,6.69,155.2a2.748,2.748,0,0,0-2.673,2.49,2.667,2.667,0,0,0,2.6,2.752m22.766,0a2.621,2.621,0,0,0,.094-5.241,2.744,2.744,0,0,0-2.683,2.478,2.664,2.664,0,0,0,2.589,2.763M52.2,155.2a2.619,2.619,0,1,0,.051,5.238A2.617,2.617,0,0,0,54.8,157.82a2.572,2.572,0,0,0-2.6-2.616" transform="translate(0 -116.811)" fill="#264100"/>
        <path id="Trazado_825329" data-name="Trazado 825329" d="M81.393,25.645c-.4.333-.759.63-1.119.92q-2.032,1.636-4.068,3.267a2.19,2.19,0,0,1-3.245-.361,2.359,2.359,0,0,1-.321-1.954c.109-.572.207-1.146.286-1.723.019-.138-.025-.388-.1-.413a.618.618,0,0,0-.48.065,2.2,2.2,0,0,1-3.368-1.461,2.81,2.81,0,0,1,.136-1.186c.865-2.581,1.761-5.151,2.646-7.725.016-.046.028-.093.056-.185a16.3,16.3,0,0,0-10.218-.6,2.747,2.747,0,0,0,.264.151c.712.291,1.438.549,2.134.874a3.37,3.37,0,0,1,1.7,4.37c-.583,1.4-1.223,2.782-1.842,4.169-.636,1.423-1.28,2.843-1.917,4.266A1.591,1.591,0,0,0,62.6,30.4c.336.225.684.437,1,.69A3.3,3.3,0,0,1,64.9,33.821c0,.076-.017.152-.029.258l-1.834-.207a1.592,1.592,0,0,1-.031-.244,1.37,1.37,0,0,0-.653-1.193c-.314-.222-.649-.416-.961-.641a3.316,3.316,0,0,1-1.529-3.027,6.1,6.1,0,0,1,.673-2.1q1.658-3.7,3.33-7.394A1.873,1.873,0,0,0,64.039,18a1.539,1.539,0,0,0-.976-1.078c-.9-.359-1.8-.7-2.7-1.056-.395-.155-.78-.338-1.181-.472a.71.71,0,0,0-.492.016A15.815,15.815,0,0,0,51.9,21.79a16.666,16.666,0,0,0-1.767,4.281c-.046.184-.023.262.182.3.941.176,1.874.394,2.818.549a3.754,3.754,0,0,1,2.907,4.662c-.113.45-.23.9-.339,1.349a2.326,2.326,0,0,0,.355,1.972c.48.689.953,1.384,1.383,2.1a8.378,8.378,0,0,1,.483,1.169c.056.138.025.243-.128.266-.544.082-1.09.154-1.546.218-.273-.48-.495-.906-.75-1.31-.39-.618-.815-1.213-1.2-1.832a3.688,3.688,0,0,1-.4-3.048c.119-.438.245-.874.347-1.315A1.923,1.923,0,0,0,52.8,28.771c-.941-.22-1.9-.384-2.844-.571a.973.973,0,0,0-.165,0c-.015.125-.036.239-.043.354a16.122,16.122,0,0,0,.844,6.594,15.8,15.8,0,0,0,3.069,5.3c.114.124.118.205-.006.316-.369.329-.736.66-1.094,1-.163.155-.233.033-.326-.075A18.024,18.024,0,0,1,48.1,26.724a16.388,16.388,0,0,1,.977-3.438,17.933,17.933,0,0,1,7.485-8.8,18.5,18.5,0,0,1,8.318-2.566V8.164c-.466-.045-.937-.069-1.4-.139a4.322,4.322,0,0,1-3.367-2.243,6,6,0,0,1-.654-2.651,10.4,10.4,0,0,1,.058-1.39.965.965,0,0,1,.953-.952,7.022,7.022,0,0,1,3.992.554,10.325,10.325,0,0,1,1.11.743A11.088,11.088,0,0,1,66.7.987,5.849,5.849,0,0,1,70.3,0a14.769,14.769,0,0,1,1.681.135.917.917,0,0,1,.841.827A7.47,7.47,0,0,1,72.13,6a4.012,4.012,0,0,1-2.509,1.852,6.714,6.714,0,0,1-2.794.294c-.01.1-.023.174-.023.25,0,1.088,0,2.175,0,3.262,0,.182.017.283.247.295a17.87,17.87,0,0,1,13.681,7.816,17.1,17.1,0,0,1,3.037,8.212,17.841,17.841,0,0,1-4.039,13.417c-.129.16-.27.31-.43.493-.437-.39-.859-.758-1.266-1.142-.039-.037-.013-.206.038-.265a16.082,16.082,0,0,0,3.443-6.709,15.1,15.1,0,0,0,.38-5.528c-.09-.763-.256-1.516-.392-2.273a2.6,2.6,0,0,0-.109-.324m-8.772-2.306.032.082a2.162,2.162,0,0,1,2.172,2.437c-.092.644-.217,1.284-.323,1.926-.039.237-.163.524.112.673.252.137.439-.1.617-.245q2.532-2.053,5.057-4.114c.478-.389.478-.389.227-.967-.043-.1-.079-.2-.126-.3a16.665,16.665,0,0,0-6.56-7.06c-.244-.145-.327-.1-.41.156q-.524,1.618-1.075,3.227c-.482,1.408-.973,2.814-1.463,4.219-.064.183-.093.379.1.47a.628.628,0,0,0,.418-.04c.413-.144.819-.31,1.228-.467M70.36,1.825c-.44.052-.884.081-1.319.16a2.586,2.586,0,0,0-2.288,2.94c.026.364.077.727.092,1.091.007.178.058.25.24.239.443-.027.889-.02,1.329-.07a2.617,2.617,0,0,0,2.5-2.257,8.57,8.57,0,0,0,.154-1.35c.036-.717.021-.718-.7-.752m-9,.746a4.4,4.4,0,0,0,.32,2.094A2.187,2.187,0,0,0,62.923,5.9a4.488,4.488,0,0,0,1.885.291c.064,0,.182-.131.175-.191a12.489,12.489,0,0,0-.228-1.663,2.044,2.044,0,0,0-1.232-1.426,5.437,5.437,0,0,0-2.161-.345" transform="translate(-36.433 0.001)" fill="#264100"/>
      </g>
    </g>
  </g>
</svg>
