<svg xmlns="http://www.w3.org/2000/svg" xmlns:xlink="http://www.w3.org/1999/xlink" width="85" height="85" viewBox="0 0 85 85">
  <defs>
    <clipPath id="clip-path">
      <rect id="Rectángulo_378680" data-name="Rectángulo 378680" width="63.873" height="63.975" fill="#264100"/>
    </clipPath>
  </defs>
  <g id="Grupo_1075438" data-name="Grupo 1075438" transform="translate(-285 -6699)">
    <path id="Trazado_605481" data-name="Trazado 605481" d="M42.5,0A42.5,42.5,0,1,1,0,42.5,42.5,42.5,0,0,1,42.5,0Z" transform="translate(285 6699)" fill="#c1e29a"/>
    <g id="Grupo_1074923" data-name="Grupo 1074923" transform="translate(297.374 6712.334)">
      <g id="Grupo_1074922" data-name="Grupo 1074922" clip-path="url(#clip-path)">
        <path id="Trazado_825330" data-name="Trazado 825330" d="M5.407,37.229c0-.815,0-1.583,0-2.351q0-7.7,0-15.393c0-.281-.014-.562-.012-.843a1.062,1.062,0,0,1,1.169-1.193c.509-.014,1.019,0,1.529,0h2.357V17.11q0-5.183,0-10.367c0-.9.4-1.3,1.294-1.3a4.317,4.317,0,0,1,.561.005c.232.031.281-.057.28-.274-.008-1.176,0-2.352,0-3.528,0-.187,0-.375,0-.562A1.007,1.007,0,0,1,13.693,0C14.609,0,15.524,0,16.44,0h5.119c.906,0,1.29.367,1.3,1.283.014.874,0,1.749.005,2.623,0,.507,0,1.014,0,1.547.323,0,.611-.011.9,0A1.085,1.085,0,0,1,24.94,6.686q0,7.01,0,14.02v.482h3.634c.006-.112.015-.192.015-.272q0-3.529,0-7.057c0-.249.009-.5.029-.748a.943.943,0,0,1,.971-.941c.988-.028,1.977-.018,2.965-.017.688,0,.684.007.684-.682,0-1.145,0-2.29.006-3.435.007-.893.414-1.288,1.311-1.288h8.49c.859,0,1.245.367,1.252,1.226q.017,1.936-.006,3.872c0,.24.048.326.305.326.9,0,1.252.369,1.253,1.28q0,7.338.006,14.676v.333h2.312v-.366q0-4.887,0-9.773c0-.936.393-1.33,1.323-1.33h4.526a1.053,1.053,0,0,1,1.191,1.193c.014,1.925.01,3.851.012,5.776,0,1.488,0,2.976,0,4.5.114.007.212.018.31.018.583,0,1.166-.006,1.748.005a1.047,1.047,0,0,1,1.175,1.2q.006,3.325.013,6.65c0,.071,0,.142,0,.224a.858.858,0,0,0,.16.042l3.926.189c.114.006.228.019.342.033a.976.976,0,0,1,.91,1.385,32.209,32.209,0,0,1-3.1,7.028,37.733,37.733,0,0,1-9.015,10.582A36.193,36.193,0,0,1,36.652,62.9,50.257,50.257,0,0,1,25.5,63.973a9.1,9.1,0,0,1-3.953-1.067A41.936,41.936,0,0,1,9.306,54.045a37.217,37.217,0,0,1-8.487-13.6c-.273-.795-.48-1.612-.741-2.411-.314-.962.358-1.56,1.262-1.414,1.231.2,2.464.381,3.7.568.122.019.245.027.37.04M22.954,53.266a.363.363,0,0,0,.052-.06q.065-.141.126-.284a20.545,20.545,0,0,1,5.006-7.189,1.274,1.274,0,0,0,.457-1.045q-.023-10.476-.015-20.952v-.487H24.94c0,1.575-.028,3.115.009,4.655.029,1.2-.418,1.576-1.549,1.546-1.455-.038-2.913-.009-4.369-.008-.17,0-.309-.016-.308.255.01,3.487,0,6.974,0,10.46,0,.3.012.6.008.905a.375.375,0,0,0,.261.374c.54.266,1.078.54,1.6.837a1,1,0,1,1-.977,1.742c-.412-.221-.814-.461-1.232-.67a41.006,41.006,0,0,0-6.5-2.506A58.392,58.392,0,0,0,3.5,38.972c-.353-.052-.7-.115-1.088-.178.022.1.027.153.043.2A35.262,35.262,0,0,0,7.736,49.117,41.946,41.946,0,0,0,14.5,56.129a40.688,40.688,0,0,0,8.823,5.422.319.319,0,0,0,.468-.112,37.55,37.55,0,0,1,3.64-4.066,38.944,38.944,0,0,1,7.928-5.818c1.445-.831,2.988-1.5,4.506-2.2a.97.97,0,0,1,1.362.553.983.983,0,0,1-.652,1.313,34.548,34.548,0,0,0-4.313,2.095,38.785,38.785,0,0,0-10.126,8.319c-.07.08-.128.172-.22.3.129.011.2.022.268.022a49.8,49.8,0,0,0,9.064-.753A35.164,35.164,0,0,0,47.032,56.7a34.414,34.414,0,0,0,9.237-8.386,38.329,38.329,0,0,0,5.007-8.846c.1-.226.178-.458.269-.694a.718.718,0,0,0-.124-.039,61.379,61.379,0,0,0-11.555.329,46.316,46.316,0,0,0-9.655,2.278,45.823,45.823,0,0,0-7.227,3.349,17.986,17.986,0,0,0-8.806,11.431c-.115.42-.173.857-.306,1.271a.984.984,0,0,1-1.158.618.963.963,0,0,1-.722-1.085c.072-.44.2-.871.276-1.31a.479.479,0,0,0-.109-.369c-.326-.321-.681-.611-1.019-.919a51.992,51.992,0,0,0-8.362-6.292,2.019,2.019,0,0,1-.352-.257.978.978,0,0,1,1.183-1.541c.769.454,1.526.93,2.266,1.43a54.26,54.26,0,0,1,6.008,4.616c.36.325.714.658,1.071.987m7.656-9.429.258-.165a35.94,35.94,0,0,1,6.179-3.223.5.5,0,0,0,.387-.553c-.013-3.445-.009-6.889-.008-10.334a.962.962,0,0,1,.863-1.042,3.037,3.037,0,0,1,.528-.036q2.372,0,4.744,0c.091,0,.181-.008.286-.013V14.187H30.622c-.007.078-.017.137-.017.2-.008,1.124-.009,2.247-.025,3.371,0,.241.128.236.3.236q2.028,0,4.057,0c.811,0,1.623,0,2.434,0a.976.976,0,0,1,.236,1.931,2.315,2.315,0,0,1-.554.064q-3.074.006-6.148,0c-.256,0-.339.063-.332.332.021.873.018,1.747.008,2.621,0,.23.062.305.3.3,1.311-.011,2.622-.005,3.932-.005.853,0,1.706,0,2.559,0a.976.976,0,0,1,.239,1.93,2.3,2.3,0,0,1-.554.065q-3.043.007-6.086,0c-.4,0-.4,0-.384.419.011.25.024.5.024.749q0,8.569-.013,17.139c0,.08.009.16.018.295m-13.93-3.482V19.6H7.48V23.7h.237c1.425-.009,2.851-.019,4.276-.023a2.2,2.2,0,0,1,.555.058.975.975,0,0,1,.726,1.033.994.994,0,0,1-.855.9,3.418,3.418,0,0,1-.467.024q-2.029,0-4.057-.012c-.14,0-.281.016-.421.024v2.774h.35c1.457,0,2.913-.007,4.37,0a.989.989,0,0,1,.984,1.378,1.112,1.112,0,0,1-1.1.617c-1.425,0-2.851,0-4.277,0H7.459c0,2.359,0,4.67,0,6.98,0,.2.1.233.262.271,1.34.331,2.692.627,4.015,1.019,1.659.492,3.3,1.064,4.946,1.6M22.926,14.6a.342.342,0,0,0-.079-.027q-2.481.008-4.961.016a4.6,4.6,0,0,1-.715-.041,1.019,1.019,0,0,1-.831-.96,1,1,0,0,1,.785-.961,3.386,3.386,0,0,1,.651-.057c1.6,0,3.2,0,4.806,0h.341V7.515H12.488V17.574h.319c1.571,0,3.142-.01,4.712,0,.861.007,1.2.371,1.209,1.227,0,.031,0,.062,0,.094,0,2.757,0,5.515-.006,8.272,0,.217.069.258.267.258,1.227,0,2.454.023,3.682.035.08,0,.16-.009.254-.014ZM39.44,39.5c.1-.027.177-.046.255-.071.721-.232,1.441-.468,2.164-.7a43.639,43.639,0,0,1,8.5-1.74c1.931-.207,3.878-.274,5.819-.392.206-.013.29-.049.288-.28-.011-1.852-.009-3.705-.012-5.558a2.244,2.244,0,0,0-.031-.256H39.44ZM50.259,28.461h2.876V19H50.259ZM35.285,8.79c0,1.088,0,2.137.009,3.185,0,.063.126.168.2.177a5.289,5.289,0,0,0,.591,0c1.986,0,3.972,0,5.958.014.21,0,.27-.06.264-.265C42.3,11.451,42.3,11,42.3,10.557c0-.58,0-1.161,0-1.767ZM14.614,5.45h6.2V2.041c-.1-.009-.179-.023-.26-.023l-5.3,0c-.632,0-.635,0-.637.627,0,.923,0,1.845,0,2.8" transform="translate(0 0)" fill="#264100"/>
        <path id="Trazado_825331" data-name="Trazado 825331" d="M87.067,130.141c.343,0,.686-.008,1.029,0a1.051,1.051,0,0,1,1.071,1,1.006,1.006,0,0,1-1.014,1.01c-.747.027-1.5.028-2.244,0a1,1,0,0,1-.025-1.994c.392-.034.789-.007,1.184-.007v-.01" transform="translate(-63.627 -97.525)" fill="#264100"/>
        <path id="Trazado_825332" data-name="Trazado 825332" d="M86.938,155.576c-.4,0-.812.027-1.214-.007a.992.992,0,0,1-.9-.961.913.913,0,0,1,.827-.971,20.361,20.361,0,0,1,2.488-.022.947.947,0,0,1,.9,1.014,1.037,1.037,0,0,1-.978.957c-.186.02-.374.016-.561.019s-.374,0-.562,0Z" transform="translate(-63.569 -115.098)" fill="#264100"/>
      </g>
    </g>
  </g>
</svg>
