<svg xmlns="http://www.w3.org/2000/svg" xmlns:xlink="http://www.w3.org/1999/xlink" width="85" height="85" viewBox="0 0 85 85">
  <defs>
    <clipPath id="clip-path">
      <rect id="Rectángulo_378682" data-name="Rectángulo 378682" width="59.194" height="61.381" fill="#264100"/>
    </clipPath>
  </defs>
  <g id="Grupo_1075439" data-name="Grupo 1075439" transform="translate(-285 -1078)">
    <g id="Grupo_1074916" data-name="Grupo 1074916" transform="translate(0 -5737)">
      <circle id="Elipse_4875" data-name="Elipse 4875" cx="42.5" cy="42.5" r="42.5" transform="translate(285 6815)" fill="#c1e29a"/>
    </g>
    <g id="Grupo_1074925" data-name="Grupo 1074925" transform="translate(298 1090)" clip-path="url(#clip-path)">
      <path id="Trazado_825340" data-name="Trazado 825340" d="M150.223,119.059a10.936,10.936,0,0,1-1.265-.139,5.491,5.491,0,0,1-4.364-4.328,5.551,5.551,0,0,1-.02-2.642.929.929,0,0,1,.753-.766,5.138,5.138,0,0,1,5.47,2.1c.092.133.192.26.306.414a5.408,5.408,0,0,1,2.222-2.108,5.12,5.12,0,0,1,3.53-.406.928.928,0,0,1,.748.736,5.805,5.805,0,0,1-3.478,6.746,15.832,15.832,0,0,1-2.191.445c0,.256-.015.585.012.91.005.064.169.154.266.165a12.8,12.8,0,0,1,4.5,1.3,12.373,12.373,0,0,1,5.088,4.949,11.621,11.621,0,0,1,1.528,6.981,11.944,11.944,0,0,1-4.94,8.88,12.077,12.077,0,0,1-6.359,2.381,12.225,12.225,0,0,1-12.888-9.386,12.311,12.311,0,0,1,9.335-14.87c.494-.107,1-.144,1.5-.229.088-.015.228-.1.232-.162.023-.327.011-.656.011-.975m.6,13.176-.1.11a7.021,7.021,0,0,1,.637.528,6.682,6.682,0,0,1,1.756,2.6,1.913,1.913,0,0,1-.4,1.967,2.869,2.869,0,0,1-3.03.686,4.346,4.346,0,0,1-2.041-1.924c-.391-.656-.732-1.342-1.1-2.014a2.946,2.946,0,0,0-1.891-1.724,2.463,2.463,0,0,1-1.677-1.707,11.294,11.294,0,0,1-.434-1.9,3.785,3.785,0,0,0-.582-1.766c-.094.161-.177.289-.247.424A10.4,10.4,0,0,0,140.541,132a10.633,10.633,0,0,0,2.31,7.069.4.4,0,0,0,.5.168,14.309,14.309,0,0,1,1.453-.31,2.032,2.032,0,0,1,2.59,1.917.65.65,0,0,0,.212.353,1.7,1.7,0,0,1,.621,1.143c.024.261.158.342.385.39a10.638,10.638,0,0,0,8.079-1.316.436.436,0,0,0,.149-.286,6.519,6.519,0,0,1,.115-1,2.591,2.591,0,0,0-.041-1.7c-.077-.214-.171-.424-.227-.643a6.7,6.7,0,0,1-.221-1.057,1.6,1.6,0,0,1,.777-1.585,2.2,2.2,0,0,0,1.1-2.079c-.011-.309.024-.62.036-.931A2.27,2.27,0,0,1,160.1,129.9c.382-.111.782-.162,1.174-.24-.123-1.95-3.62-6.267-5.339-6.574,0,.064.012.123.012.183a9.8,9.8,0,0,1-.025,1.513,2.673,2.673,0,0,1-2.033,2.19c-.3.092-.594.179-.959.288.251.2.439.363.634.513.6.459,1.225.886,1.794,1.379a1.359,1.359,0,0,1,.479,1.423,1.768,1.768,0,0,1-1.642,1.25,15.785,15.785,0,0,0-3.375.413m2.964-2.163c-.1-.077-.187-.141-.271-.211-.616-.517-1.272-1-1.836-1.565a1.652,1.652,0,0,1-.321-1.946,1.9,1.9,0,0,1,1.273-.8c.325-.1.657-.183.972-.309a.979.979,0,0,0,.628-.783,4.869,4.869,0,0,0-.134-1.935.364.364,0,0,0-.342-.335c-.849-.1-1.7-.28-2.547-.3a10.484,10.484,0,0,0-7.916,3.385.388.388,0,0,0-.071.577,5.45,5.45,0,0,1,1.025,2.882,2.7,2.7,0,0,0,.1.673c.179.683.4,1.374,1.173,1.585a3.308,3.308,0,0,1,1.981,1.543c.521.843.961,1.735,1.474,2.582a7.017,7.017,0,0,0,.888,1.141,1.107,1.107,0,0,0,1.265.228c.421-.149.492-.281.321-.69a5.679,5.679,0,0,0-1.461-1.866,4.889,4.889,0,0,1-.748-.821,1.519,1.519,0,0,1,.62-2.325A3.887,3.887,0,0,1,151,130.4c.906-.139,1.821-.217,2.785-.326m5.041,9.543a10.507,10.507,0,0,0,2.773-8.166c-.2,0-.363-.006-.527,0a1.88,1.88,0,0,0-.305.05c-.531.117-.635.254-.653.806a12.061,12.061,0,0,1-.075,1.3,6.365,6.365,0,0,1-.294,1.229,3.337,3.337,0,0,1-1.4,1.607.318.318,0,0,0-.154.432,7.919,7.919,0,0,1,.637,2.741m-8.564-22.365c-.05-.465-.08-.925-.153-1.377a3.728,3.728,0,0,0-3.611-3.115c-.234,0-.357.064-.328.313a9.977,9.977,0,0,0,.171,1.348,3.711,3.711,0,0,0,3.921,2.831m1.707.015a3.064,3.064,0,0,0,1.843-.333,4.075,4.075,0,0,0,2.21-3.784c.01-.308-.1-.4-.387-.389a4.011,4.011,0,0,0-3.667,4.506m-7.388,23.376-.048.106,1.115.777.072-.053a4.964,4.964,0,0,0-.071-.632.3.3,0,0,0-.211-.189c-.284-.023-.571-.009-.857-.009" transform="translate(-104.187 -83.361)" fill="#264100"/>
      <path id="Trazado_825341" data-name="Trazado 825341" d="M67.171,0q7.73,0,15.46,0A2.942,2.942,0,0,1,85.71,3.058q0,9.768,0,19.536A2.909,2.909,0,0,1,82.7,25.645c-2.628.017-5.257.005-7.885.005-1.066,0-2.132.015-3.2-.011-.3-.007-.384.1-.435.362A10.576,10.576,0,0,1,69.6,29.947a10.722,10.722,0,0,1-5.7,4.268c-1.074.352-2.2.542-3.308.8a.849.849,0,0,1-1-.36.873.873,0,0,1,.12-1.059A9.973,9.973,0,0,0,61.513,26.7c-.021-.247-.068-.493-.077-.74s-.107-.317-.345-.315c-1.086.01-2.173,0-3.26.005-2.08,0-4.16.008-6.24,0a2.851,2.851,0,0,1-2.843-2.068,5.52,5.52,0,0,1-.144-1.443q-.013-9.287,0-18.573a6.343,6.343,0,0,1,.066-1.144A2.877,2.877,0,0,1,51.587.01c3.094-.009,6.188,0,9.282,0h6.3ZM62.1,32.977a1.694,1.694,0,0,0,.259-.047,24.773,24.773,0,0,0,2.331-.917,8.451,8.451,0,0,0,4.441-4.983,14.868,14.868,0,0,0,.5-2.135c.122-.707.387-.978,1.108-.973l.186,0q5.805,0,11.611,0a1.267,1.267,0,0,0,1.438-1.456q0-9.6,0-19.2c0-.1,0-.207,0-.31A1.211,1.211,0,0,0,82.7,1.726c-.186-.007-.372-.01-.559-.01l-15.181.011L51.87,1.734c-1.178,0-1.558.388-1.547,1.574,0,.455.02.911.02,1.366q0,8.945,0,17.891c0,.093,0,.187.008.279a1.136,1.136,0,0,0,1.057,1.071c.277.025.558.024.837.023q4.8,0,9.593-.012c.694,0,.983.211,1.122.826a12.141,12.141,0,0,1-.262,6.642c-.173.516-.382,1.02-.594,1.582" transform="translate(-36.483 0)" fill="#264100"/>
      <path id="Trazado_825342" data-name="Trazado 825342" d="M10.051,178.255c.107-.741.209-1.393.288-2.047.011-.1-.1-.2-.13-.306-.19-.578-.413-1.15-.553-1.741a1.636,1.636,0,0,1,1.536-2.009q1.489-.048,2.98,0a1.654,1.654,0,0,1,1.544,2.062,9.148,9.148,0,0,1-.476,1.472,1.922,1.922,0,0,0-.12,1.172c.083.429.123.865.182,1.3l.086.017c.206-.3.416-.605.618-.912.625-.951,1.245-1.905,1.869-2.856.442-.674.821-.758,1.5-.327a12.7,12.7,0,0,1,5.817,8.746c.068.355.1.716.15,1.074a4.047,4.047,0,0,1-1.591,3.994,9.948,9.948,0,0,1-3.378,1.646,27.266,27.266,0,0,1-9.141,1.028,25.542,25.542,0,0,1-6.5-1.091,8.262,8.262,0,0,1-3.628-2.062,3.911,3.911,0,0,1-1.1-3.083,12.873,12.873,0,0,1,4.127-8.856,15.427,15.427,0,0,1,1.871-1.428.9.9,0,0,1,1.47.293c.815,1.234,1.621,2.474,2.431,3.711.027.042.058.082.144.2M18.97,175.8c-.606.944-1.181,1.852-1.769,2.751q-1.842,2.816-3.7,5.622a1.265,1.265,0,0,1-.414.4c-.451.249-.856.091-1.216-.456q-1.763-2.682-3.52-5.368c-.59-.9-1.191-1.79-1.775-2.693-.14-.217-.244-.23-.429-.054-.224.213-.492.381-.714.6a11.245,11.245,0,0,0-3.686,7.653,2.581,2.581,0,0,0,1.281,2.525,8.6,8.6,0,0,0,.89.5,14.582,14.582,0,0,0,4.265,1.253,30.463,30.463,0,0,0,7.332.211,17.515,17.515,0,0,0,5.011-1.075,13.059,13.059,0,0,0,2.1-1.108,2.05,2.05,0,0,0,1.008-1.819,10.937,10.937,0,0,0-4.026-8.425c-.194-.168-.4-.324-.638-.517m-6.281,6.52c.411-.639.783-1.207,1.139-1.785a.548.548,0,0,0,.034-.328c-.131-1.045-.266-2.09-.416-3.133a.318.318,0,0,0-.228-.2c-.308-.026-.62,0-.929-.021-.228-.014-.327.053-.356.3-.126,1.026-.275,2.048-.411,3.072a.456.456,0,0,0,.016.271c.365.594.742,1.18,1.152,1.825m-1.363-8.434c.134.4.255.781.39,1.155a.21.21,0,0,0,.162.1q.822.008,1.643-.006a.214.214,0,0,0,.165-.106c.123-.368.231-.741.352-1.141Z" transform="translate(0 -129.218)" fill="#264100"/>
      <path id="Trazado_825343" data-name="Trazado 825343" d="M38.248,122.077a6.281,6.281,0,0,1-6.446,6.308,6.314,6.314,0,0,1,.255-12.626,6.275,6.275,0,0,1,6.191,6.318m-1.724-.16a4.6,4.6,0,0,0-4.823-4.434,4.594,4.594,0,1,0,4.823,4.434" transform="translate(-19.244 -86.901)" fill="#264100"/>
      <path id="Trazado_825344" data-name="Trazado 825344" d="M70.552,30.486a5.489,5.489,0,0,1,2.677-2.277,4.976,4.976,0,0,1,2.982-.235,1.064,1.064,0,0,1,.883.914,5.753,5.753,0,0,1-4.078,6.773,7.066,7.066,0,0,1-1.321.154c-.224.013-.329.036-.321.306.023.807.011,1.614.013,2.422a1,1,0,0,1-.275.824.79.79,0,0,1-.832.184.721.721,0,0,1-.549-.643c-.037-.557-.036-1.116-.044-1.674q-.008-.59.006-1.18c0-.173-.051-.246-.231-.233-3.036.224-5.73-2.729-5.58-6.059A8.694,8.694,0,0,1,64,28.747a.88.88,0,0,1,.755-.762,5.111,5.111,0,0,1,5,1.536c.277.288.509.619.789.965m-4.9-.911a4.164,4.164,0,0,0,.761,2.991,3.584,3.584,0,0,0,2.955,1.555c.169,0,.3-.014.307-.242a4.252,4.252,0,0,0-1.046-3.091,3.507,3.507,0,0,0-2.977-1.214m5.743,3.983c0,.052,0,.1,0,.155,0,.415.012.429.437.407.052,0,.1-.007.155-.012a3.981,3.981,0,0,0,3.468-4.3c-.008-.156-.057-.234-.22-.216a6.634,6.634,0,0,0-.98.111,4,4,0,0,0-2.859,3.854" transform="translate(-47.952 -20.904)" fill="#264100"/>
      <path id="Trazado_825345" data-name="Trazado 825345" d="M134.121,49.707q-2.871,0-5.742,0c-.62,0-.913-.178-1.055-.621a.833.833,0,0,1,.659-1.1,3.031,3.031,0,0,1,.495-.032l11.268,0c.486,0,.941.053,1.162.579a.809.809,0,0,1-.641,1.139,4.661,4.661,0,0,1-.681.035q-2.731,0-5.463,0Z" transform="translate(-95.55 -36)" fill="#264100"/>
      <path id="Trazado_825346" data-name="Trazado 825346" d="M134.148,74.017q-2.885,0-5.77,0c-.591,0-.91-.191-1.059-.624a.806.806,0,0,1,.544-1.053,2.62,2.62,0,0,1,.644-.071q5.6-.006,11.2,0a2.81,2.81,0,0,1,.584.053.857.857,0,0,1,.689.9.837.837,0,0,1-.844.786c-1.954.009-3.909.006-5.863.007h-.124Z" transform="translate(-95.544 -54.251)" fill="#264100"/>
      <path id="Trazado_825347" data-name="Trazado 825347" d="M134.149,23.551q2.73,0,5.459,0a4.551,4.551,0,0,1,.65.03.854.854,0,0,1,.714.851.843.843,0,0,1-.727.833,4.523,4.523,0,0,1-.618.035q-5.443,0-10.887,0a6.529,6.529,0,0,1-.681-.03.884.884,0,0,1-.8-.876.816.816,0,0,1,.808-.817c.36-.025.723-.018,1.085-.018q2.5,0,4.994,0Z" transform="translate(-95.537 -17.68)" fill="#264100"/>
    </g>
  </g>
</svg>
