<svg xmlns="http://www.w3.org/2000/svg" xmlns:xlink="http://www.w3.org/1999/xlink" width="85" height="85" viewBox="0 0 85 85">
  <defs>
    <clipPath id="clip-path">
      <rect id="Rectángulo_378681" data-name="Rectángulo 378681" width="66.019" height="66" fill="#264100"/>
    </clipPath>
  </defs>
  <g id="Grupo_1075440" data-name="Grupo 1075440" transform="translate(-285 -1204)">
    <g id="Grupo_1074917" data-name="Grupo 1074917" transform="translate(0 -5611)">
      <circle id="Elipse_4875" data-name="Elipse 4875" cx="42.5" cy="42.5" r="42.5" transform="translate(285 6815)" fill="#c1e29a"/>
    </g>
    <g id="Grupo_1074924" data-name="Grupo 1074924" transform="translate(294.989 1210)" clip-path="url(#clip-path)">
      <path id="Trazado_825333" data-name="Trazado 825333" d="M86.153,36.3V51.673H83.962V36.3h-.386c-1.661,0-3.322-.006-4.983,0a6.968,6.968,0,0,1-4.45-1.54,5.9,5.9,0,0,1-2.286-4.713,6.248,6.248,0,0,1,2.567-5.352,5.177,5.177,0,0,0,1.5-1.529,3.235,3.235,0,0,0-.325-3.632,9.85,9.85,0,0,1-.853-1.117,5.239,5.239,0,0,1,1.416-7.066c.5-.406,1.016-.788,1.471-1.236A4.55,4.55,0,0,0,78.8,7.247a31.585,31.585,0,0,1,.477-3.326A5.308,5.308,0,0,1,83.811.071a9.49,9.49,0,0,1,3.042.1,5.279,5.279,0,0,1,4.184,4.808c.092.945.217,1.887.351,2.827a4.355,4.355,0,0,0,1.685,2.853,11.851,11.851,0,0,1,1.787,1.592,5.238,5.238,0,0,1-.141,7.08,3.387,3.387,0,0,0-.936,2.079,3.481,3.481,0,0,0,1.485,2.976,12.932,12.932,0,0,1,1.423,1.286,6.375,6.375,0,0,1-4.414,10.549c-1.875.076-3.755.051-5.632.071-.148,0-.3,0-.492,0m-2.2-29.674h2.21v7.2l1.365-1.366,1.538,1.5c-.065.077-.113.14-.168.2-.842.843-1.691,1.679-2.524,2.531a.748.748,0,0,0-.208.461c-.016,1.375-.01,2.749-.009,4.124,0,.081.018.162.038.325l2.481-2.477,1.485,1.464c-1.263,1.265-2.514,2.524-3.777,3.771a.676.676,0,0,0-.232.533c.008,1.707,0,3.414,0,5.121,0,.1.009.2.014.294l3.008-2.995,1.58,1.547c-.165.141-.32.259-.457.4-1.266,1.261-2.519,2.536-3.8,3.781a1.016,1.016,0,0,0-.308,1.063h.265c1.81,0,3.62.017,5.43-.006a4.387,4.387,0,0,0,3.144-1.406,4.274,4.274,0,0,0-.4-6.006c-.385-.325-.8-.615-1.171-.955a5.489,5.489,0,0,1-1.823-4.847,5.133,5.133,0,0,1,1.516-3.085,3.189,3.189,0,0,0-.365-4.61c-.291-.223-.574-.456-.875-.665A6.088,6.088,0,0,1,89.3,8.438c-.172-.98-.3-1.969-.4-2.959a3.175,3.175,0,0,0-2.6-3.163,7.09,7.09,0,0,0-1.911-.1A3.232,3.232,0,0,0,81.26,5.052c-.149,1.042-.24,2.093-.405,3.132a6.062,6.062,0,0,1-2.408,4.127,11.424,11.424,0,0,0-1.426,1.181,3.026,3.026,0,0,0-.794,2.914,4.589,4.589,0,0,0,1.1,1.874,5.32,5.32,0,0,1-.163,6.91,12.9,12.9,0,0,1-1.594,1.4,4.261,4.261,0,0,0-1.231,4.916,4.155,4.155,0,0,0,4,2.574c1.774.047,3.551.01,5.327.009.088,0,.176-.011.289-.018,0-.706-.041-1.394.012-2.075a1.625,1.625,0,0,0-.573-1.4c-1.159-1.137-2.269-2.326-3.37-3.465l1.463-1.5,2.449,2.456a.078.078,0,0,0,.015-.04c0-2.2.005-4.4,0-6.6a.517.517,0,0,0-.157-.316Q81.669,19,79.539,16.879c-.239-.239-.467-.49-.649-.681l1.491-1.6,3.57,3.589Z" transform="translate(-52.037 0)" fill="#264100"/>
      <path id="Trazado_825334" data-name="Trazado 825334" d="M11,119.088a3.424,3.424,0,0,1,.815-2.257,3.17,3.17,0,0,1,3.389-1.008,3.04,3.04,0,0,1,2.31,2.543c.1.553.277.735.843.851a8.567,8.567,0,0,1,6.794,7.1c.049.3.157.356.426.385a3.3,3.3,0,0,1,2.961,2.553,3.262,3.262,0,0,1-2.685,3.946l-.538.084c0,.735-.009,1.466.012,2.2,0,.092.146.213.252.263a3.063,3.063,0,0,1,1.88,2.332,2.964,2.964,0,0,1-1.124,2.953,1.107,1.107,0,0,1-.315.207c-.742.253-1.014.845-1.313,1.524a11.1,11.1,0,0,1-8.981,6.894A11.308,11.308,0,0,1,3.666,142.1a.884.884,0,0,0-.543-.583,3.094,3.094,0,0,1-1.918-2.183,3.054,3.054,0,0,1,1.852-3.574.354.354,0,0,0,.268-.394c-.012-.685,0-1.371,0-2.081A3.391,3.391,0,0,1,.7,131.964a3.116,3.116,0,0,1-.439-3.209,3.126,3.126,0,0,1,2.535-2.02c.617-.1.619-.086.736-.7A8.687,8.687,0,0,1,11,119.088M23.123,133.3H5.513v4.374c-.434,0-.843,0-1.253,0a.91.91,0,0,0-.917.638.922.922,0,0,0,.411,1.1,10.692,10.692,0,0,0,1.218.627.793.793,0,0,1,.49.6A8.959,8.959,0,0,0,8.641,145.6a8.864,8.864,0,0,0,6.623,1.9,8.974,8.974,0,0,0,6.327-3.515,8.763,8.763,0,0,0,1.592-3.316.857.857,0,0,1,.526-.655,10.329,10.329,0,0,0,1.013-.5.872.872,0,0,0,.536-1.092.983.983,0,0,0-1.021-.745c-.363,0-.726,0-1.114,0Zm-7.7-9.94v-.4c0-1.317.008-2.634,0-3.951a1.1,1.1,0,1,0-2.194.023q0,1.975,0,3.951v.366H11v-2.1a6.676,6.676,0,0,0-5.366,5.4h17.4a6.613,6.613,0,0,0-5.415-5.388v2.1Zm-1.1,5.516H10.845q-3.778,0-7.557,0a1.1,1.1,0,0,0-.023,2.2c.217.006.435,0,.653,0l21.262.007c.792,0,1.24-.394,1.239-1.094,0-.73-.431-1.111-1.25-1.111H14.314" transform="translate(0 -83.779)" fill="#264100"/>
      <path id="Trazado_825335" data-name="Trazado 825335" d="M170.024,135.342c0,2.479.02,4.93-.009,7.38a19.49,19.49,0,0,1-.21,3.078,19.277,19.277,0,0,1-12.7,15.6.853.853,0,0,1-.556,0,19.442,19.442,0,0,1-10.087-8.3,19.883,19.883,0,0,1-2.739-8.157,12.629,12.629,0,0,1-.089-1.508c-.009-2.589,0-5.178-.009-7.766,0-.238.05-.358.3-.427,4.171-1.128,8.338-2.27,12.51-3.4a1.607,1.607,0,0,1,.8-.007q6.289,1.7,12.571,3.427c.066.018.129.045.217.077m-24.2,5.235c0,.985-.05,1.973.013,2.954a18.548,18.548,0,0,0,.391,3.265,17.373,17.373,0,0,0,10.007,12.159,1.254,1.254,0,0,0,1.167.006,17.513,17.513,0,0,0,8.689-8.379,17.254,17.254,0,0,0,1.718-7.045c.048-2.106.007-4.214.016-6.321,0-.215-.071-.292-.273-.347-3.385-.92-6.766-1.856-10.156-2.762a2.239,2.239,0,0,0-1.106-.006c-3.4.91-6.792,1.852-10.189,2.773a.314.314,0,0,0-.282.371c.01,1.111,0,2.222,0,3.332" transform="translate(-104.012 -95.443)" fill="#264100"/>
      <path id="Trazado_825336" data-name="Trazado 825336" d="M170.364,52.122c-.616-.074-1.228-.153-1.84-.22-.222-.024-.268-.113-.244-.337a27.557,27.557,0,0,0-.037-6.238,24.878,24.878,0,0,0-2.382-8.014,25.485,25.485,0,0,0-3.678-5.73,26.439,26.439,0,0,0-8.951-6.8c-.8-.363-1.625-.673-2.447-.984-.241-.091-.291-.188-.2-.424.191-.5.364-1.01.531-1.52.058-.178.153-.2.311-.147a24.808,24.808,0,0,1,6.317,3.112c1.038.731,2.071,1.478,3.042,2.293a28.238,28.238,0,0,1,5.712,6.815,28.883,28.883,0,0,1,3.989,17.726,3.137,3.137,0,0,1-.055.339.621.621,0,0,1-.068.133" transform="translate(-109.024 -15.7)" fill="#264100"/>
      <path id="Trazado_825337" data-name="Trazado 825337" d="M15.96,49.071a28.817,28.817,0,0,1,8.723-20.764,28.052,28.052,0,0,1,10.083-6.3c.658-.235.657-.232.883.415.124.356.246.713.381,1.065.093.244.036.371-.225.455a23.851,23.851,0,0,0-8.245,4.671,27.1,27.1,0,0,0-7.249,9.794,25.856,25.856,0,0,0-2.078,12.122c.025.309-.045.435-.374.442-.48.01-.959.063-1.437.112-.25.026-.379-.017-.381-.315,0-.549-.049-1.1-.08-1.7" transform="translate(-11.558 -15.838)" fill="#264100"/>
      <path id="Trazado_825338" data-name="Trazado 825338" d="M99.626,212.311c.557.086,1.084.178,1.615.248a26.575,26.575,0,0,0,5.923.157,29.736,29.736,0,0,0,4.822-.855c.09-.023.28.027.3.083.2.628.376,1.264.573,1.949-.872.2-1.7.4-2.535.571a26.954,26.954,0,0,1-8.908.344c-.657-.082-1.305-.23-1.961-.328-.211-.032-.241-.142-.208-.307.121-.6.247-1.206.382-1.861" transform="translate(-71.864 -153.426)" fill="#264100"/>
      <path id="Trazado_825339" data-name="Trazado 825339" d="M182.33,160.671l1.509,1.5L173.226,172.78l-3.883-4,1.39-1.41,2.426,2.454,9.172-9.153" transform="translate(-122.639 -116.359)" fill="#264100"/>
    </g>
  </g>
</svg>
