<svg xmlns="http://www.w3.org/2000/svg" xmlns:xlink="http://www.w3.org/1999/xlink" width="1030" height="500" viewBox="0 0 1030 500">
  <defs>
    <linearGradient id="linear-gradient" x1="0.5" x2="0.5" y2="1" gradientUnits="objectBoundingBox">
      <stop offset="0" stop-color="#defff8"/>
      <stop offset="0.803" stop-color="#eaf5ff"/>
      <stop offset="1" stop-color="#f0feff"/>
    </linearGradient>
    <clipPath id="clip-path">
      <rect id="Rectángulo_378691" data-name="Rectángulo 378691" width="487.018" height="436.933" fill="none"/>
    </clipPath>
    <clipPath id="clip-path-3">
      <rect id="Rectángulo_378683" data-name="Rectángulo 378683" width="226.498" height="226.5" fill="none"/>
    </clipPath>
    <clipPath id="clip-path-4">
      <rect id="Rectángulo_378685" data-name="Rectángulo 378685" width="19.206" height="23.538" fill="none"/>
    </clipPath>
    <clipPath id="clip-path-5">
      <rect id="Rectángulo_378687" data-name="Rectángulo 378687" width="11.676" height="23.985" fill="none"/>
    </clipPath>
    <clipPath id="clip-path-6">
      <rect id="Rectángulo_378689" data-name="Rectángulo 378689" width="10.422" height="22.902" fill="none"/>
    </clipPath>
  </defs>
  <g id="Grupo_1075441" data-name="Grupo 1075441" transform="translate(-285 -746.598)">
    <g id="Grupo_1074934" data-name="Grupo 1074934" transform="translate(0 -335.402)">
      <g id="Grupo_1072963" data-name="Grupo 1072963" transform="translate(1620 2546.667) rotate(180)">
        <rect id="Rectángulo_376022" data-name="Rectángulo 376022" width="1030" height="500" transform="translate(305 964.667)" fill="url(#linear-gradient)"/>
      </g>
    </g>
    <rect id="Rectángulo_378692" data-name="Rectángulo 378692" width="664" height="59" rx="12" transform="translate(610 797)" fill="#ffdfcc"/>
    <rect id="Rectángulo_378693" data-name="Rectángulo 378693" width="518" height="59" rx="12" transform="translate(756 984)" fill="#ffdfcc"/>
    <rect id="Rectángulo_378694" data-name="Rectángulo 378694" width="576" height="59" rx="12" transform="translate(698 881)" fill="#ffdfcc"/>
    <rect id="Rectángulo_378695" data-name="Rectángulo 378695" width="576" height="59" rx="12" transform="translate(698 1071)" fill="#ffdfcc"/>
    <rect id="Rectángulo_378696" data-name="Rectángulo 378696" width="694" height="59" rx="12" transform="translate(580 1162)" fill="#ffdfcc"/>
    <text id="Conciencia_y_sensibilidad_ante_el_ambiente_y_los_desafíos_ambientales._" data-name="Conciencia y sensibilidad ante el ambiente y los desafíos ambientales.
" transform="translate(653 816)" font-size="16" font-family="Roboto-Regular, Roboto"><tspan x="0" y="15">Conciencia y sensibilidad ante el ambiente y los desafíos ambientales.</tspan></text>
    <text id="Actitudes_de_preocupación_por_el_ambiente_y_de_motivación_por_mejorar_o_mantener_la_calidad_ambiental._" data-name="Actitudes de preocupación por el ambiente y de motivación por mejorar o mantener la calidad ambiental.
" transform="translate(822 994)" font-size="16" font-family="Roboto-Regular, Roboto"><tspan x="0" y="15">Actitudes de preocupación por el ambiente y de motivación </tspan><tspan x="0" y="33">por mejorar o mantener la calidad ambiental.</tspan></text>
    <text id="Conocimiento_y_entendimiento_del_ambiente_y_los_desafíos_ambientales._" data-name="Conocimiento y entendimiento del ambiente y los desafíos ambientales.
" transform="translate(738 900)" font-size="16" font-family="Roboto-Regular, Roboto"><tspan x="0" y="15">Conocimiento y entendimiento del ambiente y los desafíos ambientales.</tspan></text>
    <text id="Habilidades_para_identificar_y_contribuir_a_resolver_los_desafíos_ambientales._" data-name="Habilidades para identificar y contribuir a resolver los desafíos ambientales.
" transform="translate(738 1082)" font-size="16" font-family="Roboto-Regular, Roboto"><tspan x="0" y="15">Habilidades para identificar y contribuir a resolver los desafíos </tspan><tspan x="0" y="33">ambientales.</tspan></text>
    <text id="Participación_en_actividades_que_contribuyan_a_resolver_los_desafíos_ambientales._" data-name="Participación en actividades que contribuyan a resolver los desafíos ambientales.
" transform="translate(623 1183)" font-size="16" font-family="Roboto-Regular, Roboto"><tspan x="0" y="15">Participación en actividades que contribuyan a resolver los desafíos ambientales.</tspan></text>
    <g id="Grupo_1074951" data-name="Grupo 1074951" transform="translate(322.982 784)">
      <g id="Grupo_1074950" data-name="Grupo 1074950" clip-path="url(#clip-path)">
        <g id="Grupo_1074949" data-name="Grupo 1074949">
          <g id="Grupo_1074948" data-name="Grupo 1074948" clip-path="url(#clip-path)">
            <path id="Trazado_825353" data-name="Trazado 825353" d="M201.152,149.287A127.3,127.3,0,0,0,188.459,118.2c0-.018-.018-.018-.018-.035a128.366,128.366,0,0,0-111.633-64.8V78.4a103.184,103.184,0,0,1,26.941,3.55,102.1,102.1,0,0,1,25.063,10.442,104.294,104.294,0,0,1,37.893,38.182c.033.051.051.086.086.137A103.2,103.2,0,0,1,180.3,181.892c0,.188-.018.376-.018.579a102.671,102.671,0,0,1-14.093,51.595.659.659,0,0,0-.084.153,103.041,103.041,0,0,1-16.413,21.14,105.217,105.217,0,0,1-21.378,16.327,103.292,103.292,0,0,1-51.509,13.683V310.4a128,128,0,0,0,63.963-17.009,129.347,129.347,0,0,0,47.02-46.663c0-.018.018-.018.018-.035a126.8,126.8,0,0,0,12.967-30.864,128.483,128.483,0,0,0,4.539-33.219c0-.239.016-.495.016-.716a128.391,128.391,0,0,0-4.179-32.6" transform="translate(73.411 51.008)" fill="#ededed"/>
            <path id="Trazado_825354" data-name="Trazado 825354" d="M76.811,119.473" transform="translate(73.413 114.188)" fill="#4d88d5"/>
            <path id="Trazado_825355" data-name="Trazado 825355" d="M76.811,119.473" transform="translate(73.413 114.188)" fill="#4d88d5"/>
            <path id="Trazado_825356" data-name="Trazado 825356" d="M76.811,119.473" transform="translate(73.413 114.188)" fill="#4d88d5"/>
            <path id="Trazado_825357" data-name="Trazado 825357" d="M76.811,119.473" transform="translate(73.413 114.188)" fill="#4d88d5"/>
            <path id="Trazado_825358" data-name="Trazado 825358" d="M76.811,119.473" transform="translate(73.413 114.188)" fill="#4d88d5"/>
            <path id="Trazado_825359" data-name="Trazado 825359" d="M76.811,119.473" transform="translate(73.413 114.188)" fill="#4d88d5"/>
            <path id="Trazado_825360" data-name="Trazado 825360" d="M76.811,119.473" transform="translate(73.413 114.188)" fill="#4d88d5"/>
            <path id="Trazado_825361" data-name="Trazado 825361" d="M76.811,119.473" transform="translate(73.413 114.188)" fill="#4d88d5"/>
            <path id="Trazado_825362" data-name="Trazado 825362" d="M76.811,119.473" transform="translate(73.413 114.188)" fill="#4d88d5"/>
            <path id="Trazado_825363" data-name="Trazado 825363" d="M76.811,119.473" transform="translate(73.413 114.188)" fill="#4d88d5"/>
            <path id="Trazado_825364" data-name="Trazado 825364" d="M76.811,119.473" transform="translate(73.413 114.188)" fill="#4d88d5"/>
            <path id="Trazado_825365" data-name="Trazado 825365" d="M76.811,119.473" transform="translate(73.413 114.188)" fill="#4d88d5"/>
            <path id="Trazado_825366" data-name="Trazado 825366" d="M76.811,119.473" transform="translate(73.413 114.188)" fill="#4d88d5"/>
            <path id="Trazado_825367" data-name="Trazado 825367" d="M76.811,119.473" transform="translate(73.413 114.188)" fill="#4d88d5"/>
            <path id="Trazado_825368" data-name="Trazado 825368" d="M76.811,119.473" transform="translate(73.413 114.188)" fill="#4d88d5"/>
            <path id="Trazado_825369" data-name="Trazado 825369" d="M76.811,119.473" transform="translate(73.413 114.188)" fill="#4d88d5"/>
            <path id="Trazado_825370" data-name="Trazado 825370" d="M76.811,119.473" transform="translate(73.413 114.188)" fill="#4d88d5"/>
            <path id="Trazado_825371" data-name="Trazado 825371" d="M76.811,119.473" transform="translate(73.413 114.188)" fill="#4d88d5"/>
            <path id="Trazado_825372" data-name="Trazado 825372" d="M76.811,119.473" transform="translate(73.413 114.188)" fill="#4d88d5"/>
            <path id="Trazado_825373" data-name="Trazado 825373" d="M76.811,119.473" transform="translate(73.413 114.188)" fill="#4d88d5"/>
            <path id="Trazado_825374" data-name="Trazado 825374" d="M76.811,119.473" transform="translate(73.413 114.188)" fill="#4d88d5"/>
            <path id="Trazado_825375" data-name="Trazado 825375" d="M76.811,119.473" transform="translate(73.413 114.188)" fill="#4d88d5"/>
            <path id="Trazado_825376" data-name="Trazado 825376" d="M76.811,119.473" transform="translate(73.413 114.188)" fill="#4d88d5"/>
            <path id="Trazado_825377" data-name="Trazado 825377" d="M76.811,119.473" transform="translate(73.413 114.188)" fill="#4d88d5"/>
            <path id="Trazado_825378" data-name="Trazado 825378" d="M76.811,119.473" transform="translate(73.413 114.188)" fill="#4d88d5"/>
            <path id="Trazado_825379" data-name="Trazado 825379" d="M76.811,119.473" transform="translate(73.413 114.188)" fill="#4d88d5"/>
            <path id="Trazado_825380" data-name="Trazado 825380" d="M76.811,119.473" transform="translate(73.413 114.188)" fill="#4d88d5"/>
            <path id="Trazado_825381" data-name="Trazado 825381" d="M76.811,119.473Z" transform="translate(73.413 114.188)" fill="#d03942"/>
            <path id="Trazado_825382" data-name="Trazado 825382" d="M187.793,158.344A128.264,128.264,0,0,1,76.809,222.016V196.988a103.361,103.361,0,0,0,51.509-13.683,105.145,105.145,0,0,0,21.376-16.329,102.962,102.962,0,0,0,16.413-21.138Z" transform="translate(73.411 139.387)" fill="#dd9937"/>
            <path id="Trazado_825383" data-name="Trazado 825383" d="M161.692,150.207c0,.221-.018.477-.018.716a128.482,128.482,0,0,1-4.537,33.219,126.879,126.879,0,0,1-12.967,30.864c0,.018-.018.018-.018.035l-21.683-12.507a.658.658,0,0,1,.084-.153,102.867,102.867,0,0,0,10.459-24.842,103.376,103.376,0,0,0,3.634-26.751c0-.205.018-.393.018-.581A103.179,103.179,0,0,0,123.15,99.023l21.668-12.505A127.34,127.34,0,0,1,157.512,117.6a128.478,128.478,0,0,1,4.179,32.6" transform="translate(117.051 82.69)" fill="#3c685c"/>
            <path id="Trazado_825384" data-name="Trazado 825384" d="M76.811,119.473Z" transform="translate(73.413 114.188)" fill="#4d88d5"/>
            <path id="Trazado_825385" data-name="Trazado 825385" d="M76.811,119.473Z" transform="translate(73.413 114.188)" fill="#4d88d5"/>
            <path id="Trazado_825386" data-name="Trazado 825386" d="M76.811,119.473" transform="translate(73.413 114.188)" fill="#4d88d5"/>
            <path id="Trazado_825387" data-name="Trazado 825387" d="M188.458,118.2l-21.668,12.505c-.033-.051-.051-.084-.086-.135a104.24,104.24,0,0,0-37.893-38.184,102.1,102.1,0,0,0-25.063-10.442A103.169,103.169,0,0,0,76.81,78.4V53.368a128.765,128.765,0,0,1,111.631,64.8c0,.016.018.016.018.033" transform="translate(73.412 51.007)" fill="#afcc63"/>
            <path id="Trazado_825388" data-name="Trazado 825388" d="M275.185,110.722a149.521,149.521,0,0,0-125.536-68.16,151.407,151.407,0,0,0-21.185,1.484h-.01A149.662,149.662,0,0,0,58.542,310.937v.008l.139.1q4.057,3.1,8.33,5.942A149.67,149.67,0,0,0,275.185,110.722m3.352,141.351A142.143,142.143,0,0,1,71.19,310.679q-4.06-2.69-7.909-5.642l-.129-.1v-.008a142.092,142.092,0,0,1,66.377-253.39h.008a143.662,143.662,0,0,1,20.113-1.41A142.141,142.141,0,0,1,278.537,252.073" transform="translate(0 40.679)" fill="#3c685c"/>
            <path id="Trazado_825389" data-name="Trazado 825389" d="M255.764,111.54A134.9,134.9,0,0,0,142.5,50.043a136.337,136.337,0,0,0-19.114,1.34h-.008A135.028,135.028,0,0,0,60.3,292.18v.008l.125.094q3.661,2.8,7.516,5.361a135.038,135.038,0,0,0,187.823-186.1m3.024,127.531A128.245,128.245,0,0,1,71.711,291.947q-3.664-2.426-7.135-5.091l-.119-.088v-.006A128.2,128.2,0,0,1,124.345,58.146h.008A129.507,129.507,0,0,1,142.5,56.873a128.243,128.243,0,0,1,116.288,182.2" transform="translate(7.149 47.829)" fill="#fff"/>
            <g id="Grupo_1074938" data-name="Grupo 1074938" transform="translate(40.934 122.878)" opacity="0.36" style="mix-blend-mode: multiply;isolation: isolate">
              <g id="Grupo_1074937" data-name="Grupo 1074937">
                <g id="Grupo_1074936" data-name="Grupo 1074936" clip-path="url(#clip-path-3)">
                  <path id="Trazado_825390" data-name="Trazado 825390" d="M247.429,176.079A113.262,113.262,0,0,1,71.641,270.507q-3.239-2.144-6.3-4.5l-.106-.078v-.006A113.26,113.26,0,0,1,118.139,63.954h.008a114.684,114.684,0,0,1,16.031-1.125,113.222,113.222,0,0,1,113.25,113.25" transform="translate(-20.93 -62.829)" fill="#252626"/>
                </g>
              </g>
            </g>
            <path id="Trazado_825391" data-name="Trazado 825391" d="M240.438,172.888A110.124,110.124,0,0,1,69.522,264.7q-3.145-2.086-6.129-4.373l-.1-.074v-.008a110.117,110.117,0,0,1,51.44-196.372h.006a110.312,110.312,0,0,1,107.956,49.058,109.581,109.581,0,0,1,17.743,59.958" transform="translate(19.323 60.002)" fill="#734c36"/>
            <path id="Trazado_825392" data-name="Trazado 825392" d="M190.49,148.379a109.671,109.671,0,0,1-10.233,46.4c-6.01-5.21-11.93-14.338-16.571-19.483-7.487-8.285-7.082,5.867-14.568,6.272s-6.665-9.708-15.355-13.145a4.972,4.972,0,0,0-5.505.8c-3.865,3.305-5.232,11.963-9.139,12.006-5.341.066-6.994-16.645-8.691-23.465s11.811-3.689,8.373-11.58-18.8,13.145-21.834,6.874-11.12-.812-21.639,1.422,10.923-18.41,18.4-17.96,16.178-5.9,19.209-10.146-5.462-.207-11.2.481.274-6.139.481-10.387-10.716,9.294-18.4,8.887,16.581-22.634,20.215-20.007,14.962,4.85,13.145,8.089-7.88.2-4.848,5.462c1.938,3.348,8.406-1.621,14.928-5.867,3.7-2.4,7.41-4.565,10.332-4.848,8.089-.81,20.631-6.677,15.771-11.525-4.465-4.477,16.09-7.739,19.374-8.23a109.5,109.5,0,0,1,17.752,59.956" transform="translate(69.276 84.511)" fill="#afcc63"/>
            <path id="Trazado_825393" data-name="Trazado 825393" d="M101.212,133.585s-9.974-3.91-9.03-7.144-8.357-1.482-11.727.675-6.871,9.448-10.78,9.644-1.754,14.617,3.773,16.773,8.355,2.022,12.534,1.08,11.052-2.7,10.377-.54-7.009,5.527-2.83,8.895,5.179,8.056,2.118,10.9,7.627,19.515,5.046,23.379,6.045,4.133,10.763-2.067,2.7-16.442,5.93-15.095,7.142-3.1,6.874-4.717-4.987-9.435-1.215-12,10.919-11.187,7.549-11.995-12.939-1.213-14.962-9.839-.4-11.187-6.874-10.244-7.547,2.292-7.547,2.292" transform="translate(64.689 119.144)" fill="#afcc63"/>
            <path id="Trazado_825394" data-name="Trazado 825394" d="M98.09,195.474c-2.83,3.033-3.841,4.447-4.348,7.481s-2.224,6.268-6.059,7.078-2.527,4.543-4.146,6.464-7.279,9.3-11.152,10.5c-1.252.391-2.181,2.629-2.863,5.472L63.394,228.1l-.1-.076v-.006a4.036,4.036,0,0,1-.2-2.351c.62-2.085,4.911-20.688,5.183-22.039s-4.854-.133-7.007.139-5.934-9.435-6.041-12.871,6.211-11.179,6.211-11.179-7.721.323-7.987-2.906-14.69-4.586-18.918-6.616-5.212-12.257-6.691-16.162c-1.011-2.654-4.133,1.586-6.415,2.957a110.646,110.646,0,0,1,6.5-56.875c4.314.949,8.687,1.94,11.032,2.566,5.654,1.516,2.122-6.775,5.232-6.141s4.872,4.929,7.5,5.232,9.1,3.64.507,5.662-9,7.886-8.191,11.821,4.854,4.146,8.7,5.562.3,6.368,4.96,8.535.9-17.831,2.419-19.145,5.965-.5,9.2,5.453,7.985,8.7,10.811,8.7-3.736,6.464-4.948,7.109-7.178.366-9.5,2.085,6.874,1.213,6,2.419-3.274,3.342-7.356,5.421-4.005,8.639-5.017,10.358-3.538,7.178-6.37,3.739-10.976.626-10.976.626-.139,4.929-.037,7.659S52.7,170,52.7,170s2.022,6.571,3.943,6.37,9.908.1,11.525.606,9.806,3.135,11.021,3.438,6.974,3.031,5.357,5.054-.4,3.438,2.226,3.64,14.146,3.337,11.316,6.37" transform="translate(19.323 92.232)" fill="#afcc63"/>
            <path id="Trazado_825395" data-name="Trazado 825395" d="M107.724,80.057c-4.852,14.287-6.47,17.25-5.118,25.875s2.218,19.5-4.821,23.229-19.442,22.059-22.135,14.78-.309-28.611-14.709-34.924-15.754.96-24.92.688c-1.9-.057-3.855-.108-5.752-.164a110.12,110.12,0,0,1,74.859-46.2h.006a17.967,17.967,0,0,1,2.591,16.72" transform="translate(28.929 60.535)" fill="#afcc63"/>
            <rect id="Rectángulo_378684" data-name="Rectángulo 378684" width="9.982" height="24.123" transform="translate(68.181 83.562) rotate(-24.888)" fill="#3c685c"/>
            <g id="Grupo_1074941" data-name="Grupo 1074941" transform="translate(68.182 79.361)" opacity="0.44">
              <g id="Grupo_1074940" data-name="Grupo 1074940">
                <g id="Grupo_1074939" data-name="Grupo 1074939" clip-path="url(#clip-path-4)">
                  <path id="Trazado_825396" data-name="Trazado 825396" d="M54.068,62.461l-6.35-13.692-3.8-8.191-9.055,4.2,3.8,8.191,5.49-2.546L50.5,64.115Z" transform="translate(-34.862 -40.578)" fill="#29463b"/>
                </g>
              </g>
            </g>
            <path id="Trazado_825397" data-name="Trazado 825397" d="M77.624,50.618,33.195,23.252,25.4,74.846,51.733,62.629Z" transform="translate(24.272 22.223)" fill="#afcc63"/>
            <path id="Trazado_825398" data-name="Trazado 825398" d="M26.767,65.769l-1.373,9.077,26.34-12.218L77.625,50.62,33.2,23.251S64.054,57.53,26.767,65.769" transform="translate(24.271 22.222)" fill="#96af4c"/>
            <path id="Trazado_825399" data-name="Trazado 825399" d="M66.456,39.706,29.66,17.039,23.2,59.772,45.013,49.653Z" transform="translate(22.172 16.285)" fill="#afcc63"/>
            <path id="Trazado_825400" data-name="Trazado 825400" d="M24.334,52.252,23.2,59.77,45.013,49.651,66.456,39.7l-36.8-22.665s25.558,28.388-5.324,35.213" transform="translate(22.172 16.285)" fill="#96af4c"/>
            <path id="Trazado_825401" data-name="Trazado 825401" d="M55.21,29.1,26.318,11.3,21.245,44.851,38.373,36.9Z" transform="translate(20.305 10.798)" fill="#afcc63"/>
            <path id="Trazado_825402" data-name="Trazado 825402" d="M22.137,38.948l-.892,5.9,17.129-7.944,16.837-7.811L26.318,11.3s20.068,22.29-4.181,27.649" transform="translate(20.305 10.799)" fill="#96af4c"/>
            <rect id="Rectángulo_378686" data-name="Rectángulo 378686" width="9.831" height="23.756" transform="translate(131.276 64.138) rotate(-4.53)" fill="#3c685c"/>
            <g id="Grupo_1074944" data-name="Grupo 1074944" transform="translate(131.277 63.363)" opacity="0.44">
              <g id="Grupo_1074943" data-name="Grupo 1074943">
                <g id="Grupo_1074942" data-name="Grupo 1074942" clip-path="url(#clip-path-5)">
                  <path id="Trazado_825403" data-name="Trazado 825403" d="M78.8,56.08,77.625,41.261l-.7-8.864-9.8.776.7,8.863,5.94-.471L74.94,56.385Z" transform="translate(-67.123 -32.399)" fill="#29463b"/>
                </g>
              </g>
            </g>
            <path id="Trazado_825404" data-name="Trazado 825404" d="M112.54,53.425,80.893,12.937,56.016,57.9l28.5-2.257Z" transform="translate(53.538 12.364)" fill="#afcc63"/>
            <path id="Trazado_825405" data-name="Trazado 825405" d="M60.393,49.992,56.016,57.9l28.505-2.257,28.018-2.22L80.893,12.936s16.751,42.221-20.5,37.056" transform="translate(53.538 12.364)" fill="#96af4c"/>
            <path id="Trazado_825406" data-name="Trazado 825406" d="M104.483,39.747,78.274,6.213,57.668,43.455l23.608-1.87Z" transform="translate(55.117 5.939)" fill="#afcc63"/>
            <path id="Trazado_825407" data-name="Trazado 825407" d="M61.294,36.9l-3.626,6.552,23.61-1.87,23.205-1.838L78.274,6.213S92.146,41.18,61.294,36.9" transform="translate(55.117 5.938)" fill="#96af4c"/>
            <path id="Trazado_825408" data-name="Trazado 825408" d="M96.2,26.331,75.617,0,59.439,29.243l18.537-1.469Z" transform="translate(56.81 0)" fill="#afcc63"/>
            <path id="Trazado_825409" data-name="Trazado 825409" d="M62.286,24.1,59.44,29.241l18.537-1.467L96.2,26.33,75.618,0S86.51,27.457,62.286,24.1" transform="translate(56.81)" fill="#96af4c"/>
            <rect id="Rectángulo_378688" data-name="Rectángulo 378688" width="21.485" height="8.892" transform="matrix(0.216, -0.976, 0.976, 0.216, 182.677, 87.031)" fill="#3c685c"/>
            <g id="Grupo_1074947" data-name="Grupo 1074947" transform="translate(185.587 66.054)" opacity="0.44">
              <g id="Grupo_1074946" data-name="Grupo 1074946">
                <g id="Grupo_1074945" data-name="Grupo 1074945" clip-path="url(#clip-path-6)">
                  <path id="Trazado_825410" data-name="Trazado 825410" d="M100.665,56.675l2.908-13.127,1.741-7.85-8.682-1.923-1.741,7.85,5.263,1.166L97.247,55.918Z" transform="translate(-94.893 -33.773)" fill="#29463b"/>
                </g>
              </g>
            </g>
            <path id="Trazado_825411" data-name="Trazado 825411" d="M135.416,60.423l-16.647-43.4-33.422,32.3,25.251,5.6Z" transform="translate(81.571 16.274)" fill="#afcc63"/>
            <path id="Trazado_825412" data-name="Trazado 825412" d="M91.226,43.645l-5.879,5.683L110.6,54.922l24.821,5.5L118.767,17.027s3.307,40.948-27.541,26.618" transform="translate(81.571 16.274)" fill="#96af4c"/>
            <path id="Trazado_825413" data-name="Trazado 825413" d="M131.07,47.013,117.282,11.072,89.6,37.825l20.911,4.633Z" transform="translate(85.638 10.582)" fill="#afcc63"/>
            <path id="Trazado_825414" data-name="Trazado 825414" d="M94.471,33.117,89.6,37.825l20.913,4.633,20.555,4.555L117.281,11.072s2.74,33.913-22.81,22.045" transform="translate(85.637 10.582)" fill="#96af4c"/>
            <path id="Trazado_825415" data-name="Trazado 825415" d="M126.422,33.79,115.6,5.568,93.861,26.575l16.421,3.638Z" transform="translate(89.708 5.322)" fill="#afcc63"/>
            <path id="Trazado_825416" data-name="Trazado 825416" d="M97.685,22.878l-3.824,3.7,16.421,3.638L126.42,33.79,115.6,5.568s2.149,26.63-17.911,17.31" transform="translate(89.709 5.322)" fill="#96af4c"/>
            <path id="Trazado_825417" data-name="Trazado 825417" d="M108.572,166.893c2.9,4.91,35.8,62.986,35.8,62.986l-3.074,1.774L105.722,169.2S105.669,161.984,108.572,166.893Z" transform="translate(78.973 190.864) rotate(-8)" fill="#dd9937"/>
            <path id="Trazado_825418" data-name="Trazado 825418" d="M146.633,206.308a18.913,18.913,0,1,1-18.914-18.913,18.914,18.914,0,0,1,18.914,18.913" transform="translate(100.467 219.687) rotate(-8)" fill="#dd9937"/>
            <path id="Trazado_825419" data-name="Trazado 825419" d="M137.05,202.449A13.189,13.189,0,1,1,123.86,189.26a13.189,13.189,0,0,1,13.189,13.189" transform="translate(104.825 222.971) rotate(-8)" fill="#fff"/>
            <path id="Trazado_825420" data-name="Trazado 825420" d="M141.1,128.377l164.941-5.316.313-7.733-169.6,5.464Z" transform="translate(130.706 110.226)" fill="#3c685c"/>
            <path id="Trazado_825421" data-name="Trazado 825421" d="M238.15,133.945a20.209,20.209,0,1,0-27.58-7.494,20.208,20.208,0,0,0,27.58,7.494" transform="translate(205.698 113.941)" fill="#3c685c"/>
            <path id="Trazado_825422" data-name="Trazado 825422" d="M231.773,125.461a14.526,14.526,0,1,0-19.825-5.387,14.527,14.527,0,0,0,19.825,5.387" transform="translate(209.251 117.494)" fill="#fff"/>
            <path id="Trazado_825423" data-name="Trazado 825423" d="M123.356,111.974,183.7,30.449l-5.5-2.477-62.179,84Z" transform="translate(100.965 23.519)" fill="#afcc63"/>
            <path id="Trazado_825424" data-name="Trazado 825424" d="M155.669,22.421A18.87,18.87,0,1,0,136.8,41.291a18.871,18.871,0,0,0,18.871-18.871" transform="translate(153.131 21.45)" fill="#afcc63"/>
            <path id="Trazado_825425" data-name="Trazado 825425" d="M145.908,18.616A12.913,12.913,0,1,0,133,31.529a12.913,12.913,0,0,0,12.913-12.913" transform="translate(156.936 25.255)" fill="#fff"/>
            <path id="Trazado_825426" data-name="Trazado 825426" d="M134.91,113.253,241.864,69.246l-2.606-5.124L129.052,109.465Z" transform="translate(123.343 61.285)" fill="#64af37"/>
            <path id="Trazado_825427" data-name="Trazado 825427" d="M201.515,74.7a20.678,20.678,0,1,0-28.835,4.869A20.677,20.677,0,0,0,201.515,74.7" transform="translate(193.008 62.688)" fill="#64af37"/>
            <path id="Trazado_825428" data-name="Trazado 825428" d="M193.628,68.118a15.147,15.147,0,1,0-21.122,3.567,15.147,15.147,0,0,0,21.122-3.567" transform="translate(196.387 66.067)" fill="#fff"/>
            <path id="Trazado_825429" data-name="Trazado 825429" d="M134.356,149.707l111.319,40.439-3.106,5.517L127.868,154Z" transform="translate(93.677 149.109) rotate(-6)" fill="#845e3e"/>
            <path id="Trazado_825430" data-name="Trazado 825430" d="M33.5,7.763A18.458,18.458,0,1,1,7.764,3.417,18.457,18.457,0,0,1,33.5,7.763" transform="translate(349.951 302.87) rotate(-13)" fill="#845e3e"/>
            <path id="Trazado_825431" data-name="Trazado 825431" d="M20.627,4.78A11.364,11.364,0,1,1,4.78,2.1,11.364,11.364,0,0,1,20.627,4.78" transform="translate(358.459 308.186) rotate(-13)" fill="#fff"/>
          </g>
        </g>
      </g>
    </g>
  </g>
</svg>
