<svg xmlns="http://www.w3.org/2000/svg" xmlns:xlink="http://www.w3.org/1999/xlink" width="109.99" height="121.332" viewBox="0 0 109.99 121.332">
  <defs>
    <clipPath id="clip-path">
      <rect id="Rectángulo_377751" data-name="Rectángulo 377751" width="85.707" height="83.724" transform="translate(0)" fill="#fff"/>
    </clipPath>
    <clipPath id="clip-path-2">
      <rect id="Rectángulo_378207" data-name="Rectángulo 378207" width="77.367" height="77.456" fill="#fff"/>
    </clipPath>
  </defs>
  <g id="Grupo_1074964" data-name="Grupo 1074964" transform="translate(-917.868 -383.694)">
    <path id="Unión_38" data-name="Unión 38" d="M12835.371,11834.839a17.316,17.316,0,0,1-9.476-2.234l-37.686-21.454a17.358,17.358,0,0,1-8.745-14.937l-.263-43.365a17.357,17.357,0,0,1,8.563-15.042l37.424-21.909a17.353,17.353,0,0,1,17.308-.105l37.687,21.454a17.352,17.352,0,0,1,8.745,14.938l.265,43.363a17.359,17.359,0,0,1-8.565,15.043l-.159-.273.159.273-37.421,21.908a17.268,17.268,0,0,1-7.835,2.341" transform="translate(-11861.333 -11329.837)" fill="#264100"/>
    <g id="Grupo_1073524" data-name="Grupo 1073524" transform="translate(936.012 389.5)">
      <g id="Grupo_1073523" data-name="Grupo 1073523" transform="translate(-6 14)" clip-path="url(#clip-path)">
        <g id="Grupo_1073930" data-name="Grupo 1073930" transform="translate(3.409 4.022)">
          <g id="Grupo_1073929" data-name="Grupo 1073929" clip-path="url(#clip-path-2)">
            <path id="Trazado_823500" data-name="Trazado 823500" d="M19.91,86.2V82.454c-.735,0-1.462.038-2.182-.011a9.042,9.042,0,0,1-2.189-.3,6.19,6.19,0,0,1-2.153-10.608.773.773,0,0,0,.305-.586,7.471,7.471,0,0,1,5.345-6.91,7.382,7.382,0,0,1,8.686,3.593,7.685,7.685,0,0,1,.958,3.341.759.759,0,0,0,.2.468c.357.341.746.647,1.066.918.3-.268.715-.62,1.108-.994a.564.564,0,0,0,.121-.351,7.068,7.068,0,0,1,.908-3.355,7.412,7.412,0,0,1,7.272-3.89,7.5,7.5,0,0,1,6.608,5.75c.124.487.133,1,.21,1.5a.668.668,0,0,0,.155.372c.38.353.781.682,1.133.985.3-.272.694-.623,1.069-1A.627.627,0,0,0,48.672,71a7.076,7.076,0,0,1,1.089-3.656,7.429,7.429,0,0,1,7.1-3.579,7.521,7.521,0,0,1,6.589,5.725,7.856,7.856,0,0,1,.2,1.426.786.786,0,0,0,.286.6,6.144,6.144,0,0,1-.371,9.739,6.772,6.772,0,0,1-4.193,1.2c-.636,0-1.271,0-1.931,0V86.2h.47q8.884,0,17.768,0a3.245,3.245,0,0,1,.733.075,1.122,1.122,0,0,1,.928,1.325c-.369,1.871-.7,3.758-1.209,5.592a36.8,36.8,0,0,1-8.077,14.7,39.568,39.568,0,0,1-7.937,6.881,38.979,38.979,0,0,1-14.269,5.707,37.534,37.534,0,0,1-15.8-.275,40.811,40.811,0,0,1-10.409-3.989,35.856,35.856,0,0,1-6.141-4.2,39.767,39.767,0,0,1-8.962-10.87A38.713,38.713,0,0,1,.322,89.6C.2,88.968.074,88.327.011,87.683A1.219,1.219,0,0,1,1.2,86.219,4.109,4.109,0,0,1,1.75,86.2H19.91Zm-1.03,26.7c.93.551,1.76,1.082,2.626,1.548a37.942,37.942,0,0,0,6.485,2.641.393.393,0,0,0,.495-.162c1.336-1.663,2.686-3.315,4.022-4.978a2.059,2.059,0,0,1,1.3-.784c1.406-.256,2.8-.553,4.205-.832.489-.1.49-.1.393-.575-.3-1.451-.595-2.9-.878-4.355a1.277,1.277,0,0,1,.712-1.6c1.9-1.155,3.817-2.28,5.7-3.469a1.5,1.5,0,0,1,1.986.083c.139.117.291.219.437.329,1.173.885,2.333,1.789,3.528,2.644a3.488,3.488,0,0,0,1.225.542c1.292.3,2.6.5,3.894.8a4.285,4.285,0,0,0,2.193-.029c.412-.119.831-.212,1.245-.32.433-.112.865-.228,1.311-.346-.33-1.645-.649-3.235-.969-4.825a1.469,1.469,0,0,1,.392-1.465c1.211-1.182,2.4-2.386,3.594-3.583a1.231,1.231,0,0,1,1.386-.329c.895.313,1.8.593,2.7.905a1.665,1.665,0,0,0,1.138,0c1.7-.58,3.389-1.17,5.1-1.7a1.1,1.1,0,0,0,.88-.916c.243-1.127.53-2.244.808-3.4H29.925v.394c0,1-.008,2,0,3.006a1.73,1.73,0,0,1-.546,1.325c-.643.626-1.248,1.294-1.915,1.894a7.59,7.59,0,0,1-1.448,1.033c-1.154.622-2.347,1.174-3.508,1.783a1.078,1.078,0,0,0-.458.528c-.245.628-.419,1.284-.657,1.915a.736.736,0,0,0,.088.756c.6.868,1.2,1.733,1.746,2.633a2.769,2.769,0,0,1,.426,1.222c.059,1.077.019,2.159.02,3.239a1.5,1.5,0,0,1-.593,1.256c-.39.3-.778.611-1.171.909-.983.744-1.968,1.484-3.033,2.286M72.707,95.742c-.171.049-.283.077-.391.113-1.393.462-2.788.915-4.176,1.391a2.083,2.083,0,0,1-1.444,0c-.794-.286-1.6-.533-2.395-.821a.439.439,0,0,0-.542.127q-1.133,1.157-2.292,2.29a.558.558,0,0,0-.172.586c.349,1.665.68,3.334,1.012,5a1.3,1.3,0,0,1-1.132,1.77c-1.41.357-2.817.729-4.236,1.048a3.6,3.6,0,0,1-1.383.049c-1.7-.3-3.388-.68-5.087-.989a4.048,4.048,0,0,1-1.8-.773c-1.164-.9-2.349-1.767-3.514-2.663a.462.462,0,0,0-.616-.038q-2.079,1.271-4.179,2.508a.478.478,0,0,0-.261.6q.5,2.383.97,4.772a1.285,1.285,0,0,1-1.136,1.726c-.025.006-.052.007-.077.012-1.682.334-3.363.674-5.046,1a1.1,1.1,0,0,0-.745.436c-.313.432-.652.844-.983,1.262q-1.056,1.339-2.117,2.681A36.625,36.625,0,0,0,72.707,95.742M2.646,88.716c.008.114.007.192.021.266A36.969,36.969,0,0,0,5.319,97.35,36.489,36.489,0,0,0,16.03,110.9c.675.541.675.527,1.357.019,1.168-.87,2.349-1.722,3.508-2.6a.8.8,0,0,0,.269-.542c.03-.741.021-1.483.006-2.224a1,1,0,0,0-.147-.5q-.979-1.5-1.986-2.988a1.553,1.553,0,0,1-.2-1.444c.371-1.108.731-2.219,1.1-3.329a1.693,1.693,0,0,1,.892-1.03c.931-.462,1.824-1.016,2.786-1.394a9.021,9.021,0,0,0,3.5-2.533c.026-.029.066-.051.08-.084a1.845,1.845,0,0,0,.226-.585c.027-.727.011-1.457.011-2.185v-.758ZM22.425,75.163l1.794-1.187c.4.593.782,1.177,1.184,1.747.15.213.119.311-.1.453-.9.575-1.781,1.172-2.665,1.768-.087.059-.2.166-.2.254-.018.579-.009,1.159-.009,1.757.914,0,1.771.008,2.629,0a3.772,3.772,0,0,0,3.393-2.446,3.829,3.829,0,0,0-1.491-4.455,1.519,1.519,0,0,1-.8-1.556,5.09,5.09,0,0,0-.117-1.507,4.988,4.988,0,0,0-5.928-3.659A4.907,4.907,0,0,0,16.208,70.9a2.7,2.7,0,0,1-1.164,2.492,3.673,3.673,0,0,0,1.065,6.325c1.236.477,2.519.123,3.815.262,0-.629.009-1.2-.009-1.766,0-.085-.116-.186-.2-.244-.615-.414-1.239-.813-1.853-1.227-.364-.245-.715-.51-1.071-.765l1.35-2,1.789,1.178V72.483h2.5Zm17.5,4.793c.9,0,1.749.008,2.594,0a3.709,3.709,0,0,0,3.64-3.678A3.558,3.558,0,0,0,44.509,73.1a1.633,1.633,0,0,1-.853-1.687,4.529,4.529,0,0,0-.108-1.391A5,5,0,0,0,37.6,66.333,4.9,4.9,0,0,0,33.7,70.9a2.7,2.7,0,0,1-1.17,2.489,3.673,3.673,0,0,0,1.076,6.322c1.235.475,2.518.123,3.811.26,0-.62.01-1.177-.01-1.732a.455.455,0,0,0-.207-.279c-.559-.38-1.13-.741-1.69-1.119-.417-.282-.823-.581-1.229-.869l1.351-2,1.793,1.178V72.484h2.513v2.665l1.774-1.173c.4.6.783,1.18,1.186,1.75.154.218.108.313-.107.452-.9.576-1.781,1.171-2.663,1.77a.454.454,0,0,0-.2.294c-.019.556-.009,1.113-.009,1.715m17.5,0c.868,0,1.686,0,2.5,0a3.715,3.715,0,0,0,3.62-4.633,3.584,3.584,0,0,0-1.653-2.314,1.359,1.359,0,0,1-.733-1.43,2.986,2.986,0,0,0,.008-.39,4.966,4.966,0,0,0-6.058-4.866A5.033,5.033,0,0,0,51.185,71.6a1.33,1.33,0,0,1-.642,1.358,4.543,4.543,0,0,0-.552.433,3.57,3.57,0,0,0-1.223,3.685,3.531,3.531,0,0,0,2.889,2.789,16.535,16.535,0,0,0,2.681.093c.189,0,.377,0,.579,0,0-.594.012-1.127-.009-1.659a.485.485,0,0,0-.2-.322c-.6-.412-1.215-.8-1.819-1.208-.375-.253-.739-.523-1.11-.787l1.35-2,1.8,1.183V72.48h2.5v2.675l1.782-1.179c.425.631.849,1.248,1.252,1.879.032.049-.057.232-.136.286-.881.6-1.774,1.183-2.654,1.784a.548.548,0,0,0-.242.344c-.026.543-.011,1.088-.011,1.69m-27.527.016c-.034.038-.088.091-.134.15a5.723,5.723,0,0,1-3.682,2.154,29.406,29.406,0,0,1-3.186.176c-.149.007-.3,0-.443,0v3.724H37.4V82.454c-.754,0-1.48,0-2.207,0a6.17,6.17,0,0,1-4.063-1.332c-.428-.349-.811-.754-1.232-1.149m25,6.211v-3.73c-.758,0-1.5-.005-2.235,0a6.319,6.319,0,0,1-4.76-1.965c-.168-.172-.319-.36-.5-.561a5.676,5.676,0,0,1-3.251,2.208,14.017,14.017,0,0,1-2.386.307c-.6.047-1.212.009-1.818.009v3.73Z" transform="translate(0 -43.741)" fill="#fff"/>
            <path id="Trazado_823501" data-name="Trazado 823501" d="M11.179,14.382a2.749,2.749,0,0,0,.078-.284A2.454,2.454,0,0,1,14,11.89c1.913-.026,3.826-.015,5.739,0,1.092.007,2.191-.024,3.273.087a3.687,3.687,0,0,1-.05,7.315c-1.423.114-2.858.069-4.289.091-.389.006-.778,0-1.172,0a1.136,1.136,0,0,0-.04.121,2.565,2.565,0,0,1-2.86,2.378c-2.3,0-4.607,0-6.911,0a3.771,3.771,0,0,1-3.178-1.449,3.535,3.535,0,0,1-.535-3.674A3.391,3.391,0,0,1,6.9,14.476c1.123-.109,2.26-.07,3.391-.093.3-.006.6,0,.892,0m3.763,5c.041-.2.071-.356.1-.508a2.287,2.287,0,0,1,2-1.911,5.714,5.714,0,0,1,.892-.076c1.484-.006,2.967,0,4.451,0a1.252,1.252,0,1,0,.009-2.5H13.743a2.625,2.625,0,0,1-2.991,2.5c-1.106,0-2.212,0-3.318,0a1.136,1.136,0,0,0-.954.439,1.27,1.27,0,0,0-.149,1.394,1.153,1.153,0,0,0,1.14.669q2.635-.006,5.27,0h2.2" transform="translate(-2.533 -8.152)" fill="#fff"/>
            <path id="Trazado_823502" data-name="Trazado 823502" d="M117.444,16.935a5,5,0,1,1-5.076-4.983,5,5,0,0,1,5.076,4.983m-5.017,2.505a2.491,2.491,0,0,0,2.505-2.45,2.525,2.525,0,0,0-2.446-2.563,2.507,2.507,0,1,0-.059,5.013" transform="translate(-73.772 -8.207)" fill="#fff"/>
            <path id="Trazado_823503" data-name="Trazado 823503" d="M183.189,35.578a3.849,3.849,0,0,1,2.231-3.414,3.756,3.756,0,0,1,4.012.65,3.688,3.688,0,0,1,4.591-.339,3.8,3.8,0,0,1,1.675,3.084h-2.466c-.174-1.066-1.126-1.6-1.942-1.054-.263.176-.4.544-.592.821-.064.09-.143.24-.217.242-.752.018-1.5.011-2.251.011a1.269,1.269,0,0,0-2.044-1.006,2.912,2.912,0,0,0-.488.764c-.054.086-.123.229-.188.231-.764.016-1.529.01-2.32.01" transform="translate(-125.778 -21.854)" fill="#fff"/>
            <path id="Trazado_823504" data-name="Trazado 823504" d="M215.652,15.642h-2.366a4.337,4.337,0,0,0-.557-.937,1.309,1.309,0,0,0-.773-.3,1.206,1.206,0,0,0-1.313.979c-.031.108-.176.259-.273.261-.726.022-1.454.012-2.179.012a1.286,1.286,0,0,0-1.92-1.111,1.217,1.217,0,0,0-.628.85c-.026.1-.134.247-.207.249-.752.018-1.5.011-2.292.011a3.878,3.878,0,0,1,1.833-3.209,3.754,3.754,0,0,1,4.438.46,3.609,3.609,0,0,1,4.273-.524,3.8,3.8,0,0,1,1.963,3.259" transform="translate(-139.48 -8.178)" fill="#fff"/>
            <rect id="Rectángulo_378203" data-name="Rectángulo 378203" width="2.45" height="2.465" transform="translate(29.953 7.495)" fill="#fff"/>
            <rect id="Rectángulo_378204" data-name="Rectángulo 378204" width="2.459" height="2.451" transform="translate(44.945 7.5)" fill="#fff"/>
            <rect id="Rectángulo_378205" data-name="Rectángulo 378205" width="2.452" height="2.451" transform="translate(37.443 15.006)" fill="#fff"/>
            <rect id="Rectángulo_378206" data-name="Rectángulo 378206" width="2.453" height="2.459" transform="translate(37.443)" fill="#fff"/>
            <path id="Trazado_823505" data-name="Trazado 823505" d="M101.337,41.142l1.637-1.688,1.6,1.673-1.606,1.643-1.626-1.627" transform="translate(-69.578 -27.089)" fill="#fff"/>
            <path id="Trazado_823506" data-name="Trazado 823506" d="M103.115,5.8l1.622,1.655L103.077,9.1l-1.611-1.675L103.115,5.8" transform="translate(-69.667 -3.982)" fill="#fff"/>
            <path id="Trazado_823507" data-name="Trazado 823507" d="M135.038,7.361l1.636-1.64L138.268,7.4l-1.677,1.585-1.553-1.622" transform="translate(-92.717 -3.928)" fill="#fff"/>
            <path id="Trazado_823508" data-name="Trazado 823508" d="M138.395,41.212l-1.619,1.649L135.187,41.2l1.63-1.592,1.578,1.609" transform="translate(-92.82 -27.192)" fill="#fff"/>
          </g>
        </g>
      </g>
    </g>
  </g>
</svg>
