<svg xmlns="http://www.w3.org/2000/svg" xmlns:xlink="http://www.w3.org/1999/xlink" width="1320" height="507" viewBox="0 0 1320 507">
  <defs>
    <clipPath id="clip-path">
      <path id="Trazado_819133" data-name="Trazado 819133" d="M19,0H1301a19,19,0,0,1,19,19V488a19,19,0,0,1-19,19H19A19,19,0,0,1,0,488V19A19,19,0,0,1,19,0Z" transform="translate(144.333 70)" fill="#4462fe"/>
    </clipPath>
    <clipPath id="clip-path-2">
      <rect id="Rectángulo_377290" data-name="Rectángulo 377290" width="1572.522" height="1180.243" fill="none"/>
    </clipPath>
    <clipPath id="clip-path-3">
      <rect id="Rectángulo_377289" data-name="Rectángulo 377289" width="1564.81" height="1174.454" fill="none"/>
    </clipPath>
    <clipPath id="clip-path-4">
      <rect id="Rectángulo_377286" data-name="Rectángulo 377286" width="1351.943" height="759.629" fill="none"/>
    </clipPath>
    <clipPath id="clip-path-5">
      <rect id="Rectángulo_377285" data-name="Rectángulo 377285" width="1426.716" height="1139.722" fill="none"/>
    </clipPath>
    <clipPath id="clip-path-7">
      <rect id="Rectángulo_377287" data-name="Rectángulo 377287" width="813.673" height="663.554" fill="none"/>
    </clipPath>
  </defs>
  <g id="Enmascarar_grupo_302" data-name="Enmascarar grupo 302" transform="translate(-144.333 -70)" clip-path="url(#clip-path)">
    <g id="Grupo_1072921" data-name="Grupo 1072921" transform="translate(13.739 -234.593)">
      <g id="Grupo_1072920" data-name="Grupo 1072920" clip-path="url(#clip-path-2)">
        <g id="Grupo_1072919" data-name="Grupo 1072919" transform="translate(5.712 -3.196)">
          <g id="Grupo_1072918" data-name="Grupo 1072918" clip-path="url(#clip-path-3)">
            <rect id="Rectángulo_377284" data-name="Rectángulo 377284" width="1351.941" height="761.247" transform="translate(99.732 191.982)" fill="#d8f2c0"/>
            <g id="Grupo_1072912" data-name="Grupo 1072912" transform="translate(99.73 191.982)">
              <g id="Grupo_1072911" data-name="Grupo 1072911" clip-path="url(#clip-path-4)">
                <path id="Trazado_819072" data-name="Trazado 819072" d="M234.938,794.927c-73.365-.632-145.548-37.515-189.051-96.6s-57.293-138.957-36.12-209.2C43.025,378.8,155.407,305.875,269.61,290.515A417.832,417.832,0,0,1,483.03,318.03c29.456,12.111,58.121,28.11,79.028,52.135,21.44,24.639,33.414,56.3,39.691,88.352,22.174,113.232-31.623,240.618-134.2,293.446-55.2,28.43-118.746,34.77-180.561,40.621L184.971,802.24" transform="translate(-99.73 117.794)" fill="#c1e29a"/>
                <path id="Trazado_819073" data-name="Trazado 819073" d="M697.143,461.065c-63.4-2.275-124.924-35.856-161.133-87.947S489.761,251.66,509.718,191.441C541.062,96.859,639.92,36.475,738.995,25.888A361.273,361.273,0,0,1,922.817,54.7c25.175,11.163,49.577,25.666,67.081,46.925,17.952,21.8,27.557,49.452,32.226,77.3,16.5,98.4-33,207.236-122.91,250.483-48.383,23.272-103.459,27.255-157.027,30.855q-44.2,2.973-88.409,5.942" transform="translate(439.809 -166.191)" fill="#c1e29a"/>
                <path id="Trazado_819074" data-name="Trazado 819074" d="M319.681,4.22c56.182,2.515,110.456,32.765,142.145,79.224S501.871,191.474,483.707,244.7c-28.528,83.594-116.633,136.346-204.54,144.953a320.267,320.267,0,0,1-162.722-26.981c-22.23-10.094-43.745-23.141-59.1-42.124-15.741-19.466-24.04-44.052-27.96-68.778C15.534,164.417,60.269,68.325,140.308,30.7c43.071-20.25,91.924-23.349,139.437-26.122L358.162,0" transform="translate(-70.689 -191.982)" fill="#c1e29a"/>
                <g id="Grupo_1072910" data-name="Grupo 1072910" transform="translate(-33.485 -157.25)" opacity="0.25">
                  <g id="Grupo_1072909" data-name="Grupo 1072909" transform="translate(0 0)">
                    <g id="Grupo_1072908" data-name="Grupo 1072908" clip-path="url(#clip-path-5)">
                      <path id="Trazado_819075" data-name="Trazado 819075" d="M33.026,718.318C45.2,648.481,101.948,591.46,168.5,567.042c18.357-6.737,37.761-11.354,57.3-10.718,40.39,1.317,76.247,24.389,112.467,42.312,23.089,11.425,48.483,20.907,74.532,21.448,9.94.206,24.27.015,33.218-5.017,9.218-5.185,11.458-16.6,17.7-24.449,14.861-18.682,46.994-10.587,65.293-25.92,8.794-7.371,12.76-18.863,16.348-29.763,9.05-27.5,18.6-55.775,37.609-77.608,24.755-28.426,69.273-38.3,104.655-27.717a297.736,297.736,0,0,1,51.02,20.564c17.983,9.264,35.275,20.466,54.81,25.716,27.565,7.409,57.613,2.051,82.913-11.161C951.62,425.436,982.436,319.471,963.5,240.74c-3.528-14.672-8.6-28.921-12.879-43.393-8.8-29.763-14.243-60.752-13.137-91.77s8.985-62.129,25.319-88.521" transform="translate(-30.58 -16.314)" fill="none" stroke="#fff" stroke-miterlimit="10" stroke-width="1.359" stroke-dasharray="2.719 4.078 2.719 4.078"/>
                      <path id="Trazado_819076" data-name="Trazado 819076" d="M619.384,739.074c-4.863-37.443-17.66-74.192-39.674-104.867s-53.545-54.989-89.767-65.644c-30.97-9.112-65.96-8.862-91.89-28.093-22.249-16.5-33.416-45.689-30.878-73.273s17.708-53.173,38.726-71.218c19.537-16.772,43.784-27.482,62.751-44.9,30.98-28.445,44.531-74.521,33.882-115.21" transform="translate(329.887 219.987)" fill="none" stroke="#fff" stroke-miterlimit="10" stroke-width="1.359" stroke-dasharray="2.719 4.078 2.719 4.078"/>
                      <path id="Trazado_819077" data-name="Trazado 819077" d="M421.2,294.68c22.815,30.082,47.622,61.669,83.161,74.411,16.791,6.019,34.891,7.348,52.728,7.411,55.779.193,114.121-12.877,155.773-49.976,16.238-14.462,30.188-32.64,50.315-40.868,15-6.13,31.777-5.967,47.925-4.619,23.222,1.938,47.4,6.645,65.374,21.477C895.316,318.067,904.6,342.444,921.589,360c29.437,30.406,82.271,34.1,115.647,8.076" transform="translate(388.609 267.939)" fill="none" stroke="#fff" stroke-miterlimit="10" stroke-width="1.359" stroke-dasharray="2.719 4.078 2.719 4.078"/>
                      <path id="Trazado_819078" data-name="Trazado 819078" d="M377.525,415.079a133.588,133.588,0,0,0-38.054-72.78c-20.194-19.736-46.324-32.692-65.95-52.994-31.91-33.014-42.723-83.032-33.828-128.077s35.641-85.183,69.271-116.444" transform="translate(189.367 13.63)" fill="none" stroke="#fff" stroke-miterlimit="10" stroke-width="1.359" stroke-dasharray="2.719 4.078 2.719 4.078"/>
                      <path id="Trazado_819079" data-name="Trazado 819079" d="M240.576,306.791c12.134,14.813,8.1,37.443-1.895,53.776s-24.9,29.171-35.271,45.267a99.792,99.792,0,0,0-12.871,76.838c10.66,43.458,49.951,76.942,55.168,121.381,2.011,17.138-1.342,34.5-6.444,50.983-8.765,28.324-23.441,55.831-46.993,73.841" transform="translate(136.539 296.574)" fill="none" stroke="#fff" stroke-miterlimit="10" stroke-width="1.359" stroke-dasharray="2.719 4.078 2.719 4.078"/>
                      <path id="Trazado_819080" data-name="Trazado 819080" d="M453.7,417.753c36.658-16.047,80.8-19.614,115.888-.362,8.453,4.638,16.194,10.47,24.462,15.427a210.738,210.738,0,0,0,26.169,12.893C647.089,457.1,677.279,466,705.141,457.3c26.623-8.309,47.384-31.667,74.893-36.265,28.717-4.8,56.141,12,80.42,28.064" transform="translate(423.707 401.869)" fill="none" stroke="#fff" stroke-miterlimit="10" stroke-width="1.359" stroke-dasharray="2.719 4.078 2.719 4.078"/>
                      <path id="Trazado_819081" data-name="Trazado 819081" d="M478.6,251.4c58.585,19.42,126.7,6.974,174.625-31.91,12.839-10.414,24.212-22.494,36.344-33.722,31.307-28.973,68.379-52.551,109.551-63.712s86.651-9.162,124.7,10.119" transform="translate(450.596 89.717)" fill="none" stroke="#fff" stroke-miterlimit="10" stroke-width="1.359" stroke-dasharray="2.719 4.078 2.719 4.078"/>
                      <path id="Trazado_819082" data-name="Trazado 819082" d="M121.026,405.3c39.192-44.473,108.255-66.166,160.211-37.628,43.333,23.8,72.524,80.557,126.4,84.557,12.357.917,25.448-1.175,35.3-8.69,16.941-12.925,21.119-38.961,39.88-49.057,12.467-6.71,27.808-4.287,41.451-8.06,15.591-4.314,28.006-16.612,35.953-30.7,19.235-34.1,27.191-70.465,58.972-97.25,22.139-18.659,54.984-27.736,80.576-14.193,17.33,9.17,29.959,27.615,49.236,31.2,6.371,1.184,13.024.6,19.268,2.321,14.6,4.027,23.351,20.477,22.089,35.566s-10.593,28.482-21.964,38.48-24.834,17.245-37.549,25.466c-41.9,27.095-77.7,54.473-77.913,107.565-.044,10.329.614,20.787,3.736,30.631,11.677,36.81,70.239,63.631,105.809,67.849,7.088.84,14.27.285,21.392.774,36.342,2.5,67.426,34.886,71.064,71.133s-18.613,72.9-51.318,88.945c-15.905,7.806-33.686,11.165-49.662,18.829-19.1,9.164-35.2,24.281-55.228,31.186-8.241,2.841-16.962,4.214-25.036,7.5-17.322,7.057-29.909,22.089-41.677,36.625-17.288,21.354-34.926,43.316-58.518,57.4-33.857,20.2-75.748,21.594-114.88,16.766S381,897.233,341.6,895.794c-64.8-2.365-133.081,19.227-192.641-6.412C91.513,864.649,35.06,782.911,42.3,718.631c2.972-26.377,17.059-50.188,20.271-76.9,4.969-41.355.832-82.959,8.318-124.21C78.28,476.808,93.368,436.683,121.026,405.3Z" transform="translate(-21.243 222.058)" fill="none" stroke="#fff" stroke-miterlimit="10" stroke-width="2.719"/>
                      <path id="Trazado_819083" data-name="Trazado 819083" d="M669.86,126.765c30.974-35.3,74.6-53.264,121.606-57.574,43.614-4,93.213-18.312,134.726,3.692,43.518,23.066,58.9,75.892,61.977,123.57,3.23,50.088-2.471,100.252-6.864,150.259-7.573,86.258-11.244,173.311-.152,259.217,9.851,76.293,31.272,153.585,15.269,228.909-5.974,28.112-19.327,57.589-46.134,70.207-11.791,5.549-25.071,7.269-38.087,8.914-69.072,8.727-144.522,27.536-199.738-26.6-26.29-25.776-39.674-60.821-57.416-92.637s-43.745-63.275-80.5-70.669c-42.946-8.64-88.754,18.081-130.265,4.416-20.722-6.824-37.467-23.894-43.337-44.179s-.7-43.214,13.38-59.344c19.231-22.026,52.4-30.67,68.39-54.972,19.626-29.826,6.959-73.789,31.694-99.867,17.311-18.253,46.151-20.2,68.824-31.825,19.967-10.237,34.739-27.885,46.438-46.5,10.589-16.851,19.293-35.494,19.93-55.17.759-23.459-9.9-45.679-15.356-68.558C622.569,219.086,636.164,165.162,669.86,126.765Z" transform="translate(364.163 31.054)" fill="none" stroke="#fff" stroke-miterlimit="10" stroke-width="2.719"/>
                      <path id="Trazado_819084" data-name="Trazado 819084" d="M173.484,490.4c33.093-4.459,65.8,9.782,94.584,26.712s56.311,37.133,88.336,46.6,70.921,5.526,92.535-19.928c19.308-22.736,20.816-57.225,41.721-78.5,28.416-28.921,84.182-24.919,102.1-61.289,4.276-8.679,5.622-18.682,10.666-26.939,4.345-7.115,11.155-12.423,18.418-16.517,28.035-15.805,65-14.172,91.535,4.043,16.92,11.614,29.389,29,46.844,39.795,32.264,19.951,77.294,12.086,104.931-13.9s38.63-66.647,33.813-104.272c-4.89-38.2-24.289-77.512-10.175-113.338,2.6-6.608,6.358-13.083,6.31-20.188-.04-6.084-2.893-11.776-6.032-16.989C864.417,94.719,816.688,68.76,768.9,70.328,730.02,71.6,693.921,89.38,656.936,101.437a393.179,393.179,0,0,1-239.882.634c-44.622-14.287-86.237-36.455-129.291-54.941-33.932-14.572-69.533-27.02-106.441-28.281S105.7,28.824,80.345,55.669C43.088,95.112,43.051,156.538,52.751,209.921s26.852,107.65,15.936,160.8c-5.8,28.235-19.254,54.261-27.9,81.757S28.716,511.244,42.429,536.6c14.181,26.219,43.616,31.4,61.99,8.532C125.54,518.844,134.876,495.6,173.484,490.4Z" transform="translate(-30.382 -14.479)" fill="none" stroke="#fff" stroke-miterlimit="10" stroke-width="2.719"/>
                      <path id="Trazado_819085" data-name="Trazado 819085" d="M67.98,741.507C63.088,704.926,75.074,668.442,79,631.744c6.828-63.822-9.588-133.948,23.865-188.727C130.477,397.8,191.3,376.1,241.3,393.615c34.271,12.007,60.887,39.04,92.327,57.214s75.395,25.568,101.256.075c12.346-12.172,18.952-30.464,34.285-38.555,14.366-7.581,32.031-3.827,47.773-7.825,31.754-8.064,46.69-43.489,58.021-74.228s29.152-65.727,61.636-69.966c9.591-1.252,19.358.522,28.574,3.457,8.251,2.625,16.652,6.545,21.411,13.779,7.307,11.1,3.488,26.56-4.723,37.01S661.9,331.964,651.317,340c-35.336,26.827-59.34,69.429-59.737,113.794s24.593,89.043,64.515,108.394c32.424,15.72,74.7,16.75,96.015,45.806,19.73,26.906,9.765,67.8-15.223,89.908-35.687,31.579-90.478,30.175-130.371,56.241-41.451,27.082-62.79,81.158-108.964,99.031-55.2,21.365-114.584-19.4-173.764-20.456-32.168-.574-63.246,10.705-95.052,15.552C155.249,859.471,78.531,820.421,67.98,741.507Z" transform="translate(5.92 245.961)" fill="none" stroke="#fff" stroke-miterlimit="10" stroke-width="2.039"/>
                      <path id="Trazado_819086" data-name="Trazado 819086" d="M71.909,250.389c-5.246-23.9-11.779-47.726-12.7-72.175A159.859,159.859,0,0,1,82.128,89.892c12.425-20.479,30.787-38.8,54.061-44.471,36.026-8.769,71.127,14.087,103.338,32.449,126.471,72.1,284.877,85.5,421.666,35.683,23.8-8.669,47.561-19.272,72.874-20.321s53.25,10.273,62.8,33.734c7.987,19.618,1.421,41.771,1.489,62.951.089,27.565,11.587,53.816,14.8,81.191s-5.678,60.182-31.481,69.877c-23.659,8.892-49.6-5.815-68.059-23.077s-35.051-38.412-58.982-46.54c-24.42-8.3-53.591.119-69.841,20.146-11.184,13.781-16.163,31.629-26.4,46.13a76.756,76.756,0,0,1-53.343,31.573c-25.468,2.885-54.167-6.531-75.189,8.137-30.173,21.055-19.678,74.677-49.964,95.572-13.232,9.129-31.063,8.983-46.367,4.066s-28.85-14.006-42.75-22.08c-27.923-16.215-58.562-28.771-90.717-31.7a134.864,134.864,0,0,0-86.206,20.978c-20.631,13.108-38.412,21.39-52.713-6.529-14.05-27.426,8.7-52.7,15.069-78.976C84.828,323.148,79.632,285.577,71.909,250.389Z" transform="translate(-5.067 12.231)" fill="none" stroke="#fff" stroke-miterlimit="10" stroke-width="2.039"/>
                      <path id="Trazado_819087" data-name="Trazado 819087" d="M681.38,755.016c-16.594-36.831-34.631-77.585-72.266-94.967-44.148-20.387-96.011-.275-144.991-.1-10.56.037-21.945-1.2-29.822-7.964-17.122-14.692-5.51-42.788,11.889-57.175s40.392-24.549,49.706-44.712c14.185-30.714-8.249-74.766,18.734-96.131,15.3-12.111,37.676-8.451,57.281-11.244,38.545-5.489,68.254-38.528,78.556-74.65s4.487-74.681-5.123-110.98c-6-22.663-13.519-45.837-10.042-68.982,7.432-49.458,62.335-79.941,113.883-86.41,29.038-3.644,59.388-1.947,86.239,9.281s49.8,32.84,57.813,59.912c4.786,16.171,4.164,33.32,3.012,50.1-4.147,60.469-14.645,120.674-13.178,181.26,1.768,73.159,20.909,144.778,31.353,217.265,6.439,44.689,9.453,91-3.993,134.229s-46.137,83.153-91.252,95.591C750.362,868.3,705.109,807.683,681.38,755.016Z" transform="translate(393.686 73.229)" fill="none" stroke="#fff" stroke-miterlimit="10" stroke-width="2.039"/>
                      <path id="Trazado_819088" data-name="Trazado 819088" d="M80.462,217.719c-5.437-26.542-9.959-53.863-5.72-80.624S93.387,83.873,117.47,71.464c32.041-16.506,71.389-4.486,102.881,13.043s61.054,40.731,96.425,47.653c17.86,3.5,36.326,2.91,54.082,6.989,14.553,3.344,24.609,8.713,40.026,7.092,35.128-3.69,73.421,9.753,92.689,39.356s13.137,75.128-17.095,93.4c-31.968,19.316-78.827,5.618-105.749,31.5-25.643,24.657-14.522,81.493-61.48,85.2-21.007,1.658-38.5-14.543-55.267-27.305-18.135-13.8-39-24.807-61.57-27.946-21.675-3.012-44.577,1.97-61.569,16.13-15.1,12.579-27.293,28.815-45.525,8.781-16.049-17.638-4.622-41.679-3.665-62.472C92.977,274.022,86.211,245.783,80.462,217.719Z" transform="translate(12.664 33.965)" fill="none" stroke="#fff" stroke-miterlimit="10" stroke-width="1.359"/>
                      <path id="Trazado_819089" data-name="Trazado 819089" d="M146.05,297.915c-14.632,11.533-31.906,20.389-42.409-2.244-12.105-26.078-1.254-60.921-5.331-88.841-3.607-24.7-14.522-48.878-11.284-73.625,3.5-26.708,25.895-50.423,52.674-53.333,15.915-1.73,31.785,3.359,46.463,9.751,29.35,12.777,56.035,30.889,84.463,45.6s59.783,26.2,91.72,24.054c13.8-.926,27.347-4.38,41.159-5.1s28.6,1.708,38.938,10.9c12.134,10.786,15.339,30.331,7.286,44.429-9.973,17.457-32.018,23.235-51.831,26.648s-41.75,7.2-54.2,22.983c-9.721,12.323-11.146,28.981-15.423,44.086s-14.441,31.188-30.1,32.247c-15.079,1.021-26.756-12.061-37.8-22.378-15.308-14.3-34.221-25.223-54.858-28.815S162.5,284.949,146.05,297.915Z" transform="translate(27.095 51.154)" fill="none" stroke="#fff" stroke-miterlimit="10" stroke-width="1.359"/>
                      <path id="Trazado_819090" data-name="Trazado 819090" d="M103.138,151.015c-3.232-13.343-7.086-28.27-.087-40.078,8.54-14.405,29.466-16.309,44.959-9.954s27.659,18.634,41.544,27.991c30.375,20.473,68.109,26.423,104.636,29.162q33.773,2.53,67.682,2c4.954-.077,10.254-.112,14.4,2.6,7.284,4.771,7.215,16.359,1.7,23.093s-14.584,9.453-23.241,10.4-17.5.493-25.97,2.519a46.3,46.3,0,0,0-33.663,34.269c-3.259,14.769-.285,33.266-12.45,42.253-9.655,7.132-23.778,3.3-33.254-4.066s-16.307-17.673-25.614-25.254c-13.207-10.755-31.328-14.921-48-11.9-14.366,2.6-29.441,19.713-44.086,14.809C103.995,239.58,108.554,173.372,103.138,151.015Z" transform="translate(40.8 70.589)" fill="none" stroke="#fff" stroke-miterlimit="10" stroke-width="1.359"/>
                      <path id="Trazado_819091" data-name="Trazado 819091" d="M156.348,197.2c-4.407,3.014-8.257,7.12-13.372,8.652-7.9,2.367-16.6-2.436-21.08-9.358s-5.6-15.462-6.013-23.7-.245-16.629-2.579-24.541c-1.082-3.665-2.689-7.182-3.411-10.934-1.56-8.1,1.566-17.082,8.22-21.945s16.61-4.948,22.968.3c8.353,6.893,8.615,19.589,14.453,28.709A26.8,26.8,0,0,0,179.4,156.418c9.135-.614,17.654-5.961,26.8-5.458,24.605,1.354,25.184,34.62,4.262,42.784C192.588,200.721,174.776,184.593,156.348,197.2Z" transform="translate(52.003 85.926)" fill="none" stroke="#fff" stroke-miterlimit="10" stroke-width="1.359"/>
                      <path id="Trazado_819092" data-name="Trazado 819092" d="M169.326,170.64c1.414-3.941,3.881-7.446,5.239-11.408,1.67-4.875,1.718-10.516,5-14.493,3.451-4.183,9.428-5.189,14.853-5.181s11.034.707,16.13-1.15c2.9-1.057,5.645-2.939,8.727-2.822,4.463.171,7.816,4.871,7.623,9.335s-3.134,8.413-6.714,11.082-7.8,4.31-11.839,6.219c-2.652,1.256-5.341,2.718-7.051,5.1a15.349,15.349,0,0,0-2.381,8.226c-.666,12.488,11.519,37.122-11.816,36.421C168.479,211.411,164.419,184.31,169.326,170.64Z" transform="translate(114.547 111.682)" fill="none" stroke="#fff" stroke-miterlimit="10" stroke-width="1.359"/>
                      <path id="Trazado_819093" data-name="Trazado 819093" d="M322.884,198.368c14.532,2.7,28.78-4.551,42.742-9.41,30.08-10.466,68.269-7.833,87.631,17.457,5.331,6.964,8.869,15.165,14.214,22.118s13.384,12.829,22.122,12.088c5.4-.458,10.36-3.43,14.141-7.315,11.568-11.891,12.321-30.608,9.449-46.948s-8.652-32.463-7.581-49.019c.456-7.005,2.14-13.985,1.443-20.972-1.431-14.378-13.372-26.431-27.29-30.313s-29.167-.476-41.629,6.835c-10.709,6.279-19.724,15.294-30.876,20.749-30.945,15.131-70.711-6.246-99.7,11.864C280.094,142.651,291.8,192.588,322.884,198.368Z" transform="translate(249.22 56.448)" fill="none" stroke="#fff" stroke-miterlimit="10" stroke-width="1.359"/>
                      <path id="Trazado_819094" data-name="Trazado 819094" d="M370.8,112.12a5.209,5.209,0,0,1,4.1,1.146,5.056,5.056,0,0,1,1.009,3.835c-1.009,17.735-29.959,22.634-41.815,29.919-11.716,7.2-18.6,8.043-25.868-6.244-4.461-8.777-6.379-22.981,4.247-27.858,9.649-4.43,20.6,6.2,30.1,6.587C352.62,119.916,360.909,112.592,370.8,112.12Z" transform="translate(262.763 86.045)" fill="none" stroke="#fff" stroke-miterlimit="10" stroke-width="1.359"/>
                      <path id="Trazado_819095" data-name="Trazado 819095" d="M370.766,140.763c-4.9-1.146-9.981-2.3-14.021-5.31s-6.753-8.444-5.008-13.172c1.81-4.9,7.454-7.165,12.617-7.972s10.67-.8,15.163-3.467c5.352-3.178,8.655-9.83,14.755-11.078,7.19-1.468,13.434,5.79,15.029,12.956,2.964,13.326,2.045,24.1,7.226,36.8,1.99,4.879,15.356,36.694,3.948,39.76-5.325,1.431-11.071-1.3-14.753-5.408C390.878,167.305,398.341,147.215,370.766,140.763Z" transform="translate(313.017 72.798)" fill="none" stroke="#fff" stroke-miterlimit="10" stroke-width="1.359"/>
                      <path id="Trazado_819096" data-name="Trazado 819096" d="M81.9,639.153c-1.552-40.995,9.445-81.491,10.5-122.5.99-38.333-6.558-77.957,5.726-114.281,13.831-40.9,57.233-72.175,99.769-64.76,29.915,5.212,53.8,26.814,79.688,42.692a226.589,226.589,0,0,0,75.867,29.36c24.562,4.68,52.534,4.37,71.426-12.012,9.07-7.868,16.246-17.81,24.474-26.5,2.954-3.118,5.99-6.3,9.836-8.214,14.882-7.4,34.366,6.947,48.774-1.34,5.47-3.147,8.8-8.912,12-14.349,6.048-10.275,20.061-22.667,32.484-13.769,14.177,10.158,4.23,38.451,2.034,51.715-7.459,45.032,15.5,93.55,55.057,116.334,13.147,7.575,27.7,12.434,40.987,19.761s25.774,17.91,30.494,32.332c6.641,20.3-4.243,43.027-20.73,56.6s-37.559,19.98-58.032,26.063S560.707,648.76,544.2,662.313c-31.2,25.612-42.26,73.573-79.332,89.534-18.083,7.787-38.965,5.967-57.9.586s-36.771-14.1-55.534-20.069c-23.447-7.458-48.481-10.545-72.851-7.146-42.405,5.915-93.4,34.807-136.742,18.611C102.339,729.068,83.349,677.488,81.9,639.153Z" transform="translate(22.036 322.1)" fill="none" stroke="#fff" stroke-miterlimit="10" stroke-width="2.039"/>
                      <path id="Trazado_819097" data-name="Trazado 819097" d="M344.2,290.079c3.9-4.934,8.322-9.769,14.123-12.2s13.3-1.828,17.394,2.943c3.96,4.615,3.623,11.783.755,17.145s-7.773,9.3-12.646,12.935c-9.037,6.743-19.037,13.3-26.161,22.186-4.145,5.169-8.783,22.476-14.324,21.854C302.95,352.653,339.221,296.377,344.2,290.079Z" transform="translate(276.272 263.842)" fill="none" stroke="#fff" stroke-miterlimit="10" stroke-width="1.359"/>
                      <path id="Trazado_819098" data-name="Trazado 819098" d="M279.035,683c-22.486,4.461-43.745,13.651-65.892,19.57s-46.367,8.386-67.518-.453c-27.706-11.579-44.841-40.81-49.97-70.4s-.2-59.891,4.921-89.48,10.431-59.768,6.048-89.474c-2.589-17.55-8.551-35.015-6.31-52.611,3.521-27.667,29.882-50.5,57.769-50.045,22.459.37,42.58,13.746,59.436,28.588s32.274,31.887,52.135,42.382c18.145,9.588,38.813,13.06,59.115,16.071,16.134,2.392,32.54,4.58,48.7,2.386s32.305-9.322,42.052-22.4c6.138-8.239,9.378-18.251,14.624-27.085s13.671-16.991,23.942-17.232c12.945-.3,27.482,11.471,37.21,2.92,5.809-5.108,9.291-16.756,16.433-13.786,2.446,1.017,3.808,3.617,4.719,6.1,8.424,22.979-4.944,49.6,3.176,72.693,3.752,10.67,11.758,19.335,20.568,26.425,18.282,14.713,40.585,23.871,58.537,38.986s31.4,39.876,23.008,61.792c-5.04,13.158-16.98,22.54-29.666,28.674-19.871,9.607-42.139,12.7-63.516,18.193s-43.22,14.268-56.684,31.76c-20.215,26.269-30.471,76.366-73.818,59.288C357.161,689.753,325.128,673.848,279.035,683Z" transform="translate(34.715 343.343)" fill="none" stroke="#fff" stroke-miterlimit="10" stroke-width="1.359"/>
                      <path id="Trazado_819099" data-name="Trazado 819099" d="M112.81,539.283c6.219-27.3,13.738-55.278,9.262-82.92-2.409-14.875-8.245-29.108-9.763-44.1s2.513-32.033,15.229-40.119c12.573-7.993,29.637-4.549,42.118,3.586s21.781,20.184,32.251,30.779c37.461,37.89,91.1,57.266,144.335,59.51,15.456.651,31.459-.154,45.438-6.772,17.446-8.257,29.855-24.847,36.964-42.792,5.2-13.128,11.662-30.18,25.783-30.032,12.427.129,19.609,14.626,20.2,27.041s-2.282,25.5,2.66,36.9c9.06,20.907,37.686,23.842,54.471,39.252,16.473,15.125,18.515,43.391,4.382,60.725-13.811,16.943-37.42,21.273-58.82,25.728-16.415,3.417-42.915,9.563-51.509,26.182-8.736,16.889-1.766,38.782-22.735,49.637-15.882,8.22-34.789-.227-51.393-6.864-31.852-12.731-71.982-20.35-105.169-7.831-13.407,5.056-23.863,16.97-37.166,23.436-16.98,8.251-35.928,13.338-54.178,5.895C101.354,644.564,101.866,587.326,112.81,539.283Z" transform="translate(49.246 362.25)" fill="none" stroke="#fff" stroke-miterlimit="10" stroke-width="1.359"/>
                      <path id="Trazado_819100" data-name="Trazado 819100" d="M243.051,525.96a33.376,33.376,0,0,0-4.913,4.118c-10.605,10.847-11.766,27.565-18.216,41.3-11.787,25.092-41.738,42.463-69.384,36.623-12.2-2.577-24.006-10.67-29.57-22.033-5.749-11.741-.437-25.689,3.415-37.432,8.305-25.319,20.753-49.924,21.87-76.547a107.284,107.284,0,0,0-3.792-32.821c-2.55-9.181-7.839-17.713-7.423-27.534.275-6.577,3.205-13.278,8.682-16.928,15.04-10.019,27.788,9.272,34.343,19.951,12.7,20.685,31.55,39.475,55.43,43.834,11.009,2.009,22.311.822,33.5.468,17.434-.551,40.492,1.323,44.248,22.856,1.816,10.41-5.437,20.633-14.551,25.978s-19.838,7-30.163,9.254C258.313,518.834,249.877,521.245,243.051,525.96Z" transform="translate(61.656 388.489)" fill="none" stroke="#fff" stroke-miterlimit="10" stroke-width="1.359"/>
                      <path id="Trazado_819101" data-name="Trazado 819101" d="M265.375,564.914c13.343,4.316,28.678,9.018,40.648,1.714,10.805-6.593,14.331-20.31,21.163-30.966A52.9,52.9,0,0,1,357.23,513.48c10.115-2.816,20.866-2.54,31.061-5.048s20.581-9,22.84-19.254c2.221-10.081-4.077-20.019-11.051-27.634s-15.223-14.765-18.326-24.612c-2.359-7.481-1.66-16.286-6.7-22.295-5.651-6.733-16.44-6.77-24.239-2.712s-13.432,11.188-19.27,17.758-12.592,13.045-21.167,14.975c-9.489,2.136-19.936-1.624-28.9,2.149-12.442,5.235-15.146,21.263-16.847,34.651-.524,4.122-1.2,8.432-3.7,11.751a20.1,20.1,0,0,1-6.523,5.2c-21.475,11.885-51.623,8.686-66.886,27.908-13.232,16.666,6.234,29.408,21.693,30.2C229.08,557.545,246.042,558.66,265.375,564.914Z" transform="translate(131.522 407.134)" fill="none" stroke="#fff" stroke-miterlimit="10" stroke-width="1.359"/>
                      <path id="Trazado_819102" data-name="Trazado 819102" d="M206.932,506.427A108.338,108.338,0,0,1,193.617,537.4c-5.414,8.584-12.234,16.556-21.078,21.535a46.231,46.231,0,0,1-28.524,5.476c-10.751-1.577-16.032-8.862-17.286-19.582-1.539-13.17,3.432-26.2,9.237-38.121s12.621-23.613,15.2-36.619c2.329-11.741,1.063-23.848.844-35.816-.108-5.9,1.159-13.338,6.862-14.865,6.454-1.726,13.033,6.753,17.217,10.816,6.19,6.011,11.009,12.723,18.137,17.837,5.337,3.831,11.61,7.034,18.162,6.541,6.044-.456,11.392-3.968,17.224-5.622,5.175-1.468,10.978-1.377,15.674,1.248s7.954,8.089,7.063,13.395c-.853,5.071-5.206,9.012-10.05,10.734-8.332,2.96-18.158-.235-25.52,5.68-5.967,4.794-7.082,13.239-8.571,20.747Q207.648,503.624,206.932,506.427Z" transform="translate(70.305 417.947)" fill="none" stroke="#fff" stroke-miterlimit="10" stroke-width="1.359"/>
                      <path id="Trazado_819103" data-name="Trazado 819103" d="M134.263,508.476c-.376-7.573,3.646-14.609,7.839-20.926s8.825-12.735,9.936-20.235c.466-3.159.285-6.414,1.077-9.509a15.473,15.473,0,0,1,25.35-7.656c4.819,4.343,6.431,11.229,6.726,17.708a60.9,60.9,0,0,1-16.452,43.8c-4.632,4.938-12.176,12.3-19.414,12.469C141.6,524.306,134.623,515.726,134.263,508.476Z" transform="translate(78.72 447.12)" fill="none" stroke="#fff" stroke-miterlimit="10" stroke-width="1.359"/>
                      <path id="Trazado_819104" data-name="Trazado 819104" d="M193.671,444.745a9.237,9.237,0,0,1-1.1-4.387,9.711,9.711,0,0,1,3.519-6.57,15.337,15.337,0,0,1,13.8-3.654c9.478,2.431,13.18,15.246,5.062,21.621C208.459,456.854,196.945,451.311,193.671,444.745Z" transform="translate(141.714 429.32)" fill="none" stroke="#fff" stroke-miterlimit="10" stroke-width="1.359"/>
                      <path id="Trazado_819105" data-name="Trazado 819105" d="M240.423,523.05c10.843.1,21.325,8.474,31.66,5.194,9.7-3.078,13.442-14.408,18.673-23.143a51.658,51.658,0,0,1,35.381-24.071c7.92-1.306,17.076-1.177,22.417-7.172,3.661-4.108,4.38-9.99,4.759-15.481.456-6.6.639-13.386-1.527-19.632s-7.149-11.907-13.653-13.1c-7.737-1.412-15.092,3.592-21.049,8.727s-12.178,10.974-20.009,11.718c-7.2.684-14.609-3.151-21.5-.955-7.413,2.363-11.051,10.664-12.723,18.264s-2.51,15.895-7.6,21.777c-4.827,5.578-12.5,7.743-19.824,8.617-11.568,1.379-35.8.874-33.848,18.673C203.656,531.426,228.794,522.944,240.423,523.05Z" transform="translate(151.324 424.669)" fill="none" stroke="#fff" stroke-miterlimit="10" stroke-width="1.359"/>
                      <path id="Trazado_819106" data-name="Trazado 819106" d="M260.348,463.292c4.407-2.063,9.47-1.93,14.333-2.126,5.9-.237,11.945-1.067,17.1-3.946s9.293-8.16,9.416-14.064a9.676,9.676,0,0,0-1.24-5.2c-2.779-4.611-9.468-4.9-14.584-3.224a30.031,30.031,0,0,0-12.147,7.592c-2.35,2.423-4.368,5.306-7.352,6.882-3.145,1.662-6.876,1.616-10.362,2.317a24.214,24.214,0,0,0-14.139,8.7c-3.692,4.7-5.624,16.307,3.492,15.89C250.62,475.854,255.077,465.759,260.348,463.292Z" transform="translate(191.097 433.725)" fill="none" stroke="#fff" stroke-miterlimit="10" stroke-width="1.359"/>
                      <path id="Trazado_819107" data-name="Trazado 819107" d="M672.574,685.1c-11.783-26.623-29.235-52.68-56.151-65.627-44.45-21.383-97.192-.855-146.867.842-4.644.158-9.543.087-13.571-2.136-9.717-5.36-8.474-20.065-1.177-28.239s18.278-12.192,27.63-18.126a70.669,70.669,0,0,0,31.59-46.386c2.6-14.376.815-30.348,9.5-42.316,11.1-15.3,33.418-16.791,52.166-21.608,34.133-8.767,62.757-33.183,79.392-63.144S677,333.367,673.934,299.535c-4.3-47.455-24.281-95.318-11.629-141.376,3.815-13.885,10.988-27.511,23.089-35.93,13.482-9.378,31.043-11.069,47.68-11.4,20.622-.41,42.89,1.358,58.716,14.075,16.569,13.316,22.02,35.329,24.857,55.908,9.216,66.875,1.046,134.664-1.2,202.088A1147.965,1147.965,0,0,0,821.3,542.787c6.177,57.888,16.777,115.689,14.451,173.839-1.487,37.158-22.906,116.621-79,99.01C704.107,799.111,691.174,727.125,672.574,685.1Z" transform="translate(418.651 84.897)" fill="none" stroke="#fff" stroke-miterlimit="10" stroke-width="2.039"/>
                      <path id="Trazado_819108" data-name="Trazado 819108" d="M657.245,625.2c-18.359-31.336-49.412-58.732-86.72-61.44-18.5-1.344-36.881,3.449-54.456,9.179-9.715,3.168-21.621,6.267-29.26-.316-7.958-6.855-5.331-19.715.824-28.112s15.1-14.953,19.578-24.279c4.27-8.894,4.17-19.736,10.535-27.386,10.379-12.475,30.425-9.318,46.723-12.436,46.453-8.885,75.971-72.258,90.1-110.512,17.7-47.909,22.153-100.48,11.346-150.33-3.245-14.961-7.794-29.859-7.708-45.142s5.732-31.529,18.834-40.192c17.436-11.531,42.8-5.462,57.745,8.948,21.7,20.92,24.243,50.253,26.974,77.7,3.461,34.768,1.067,67.175-1.938,101.965-4.17,48.339,2.094,96.088,1.358,144.027-.753,48.984-1.512,101.668,7.664,149.961,5.358,28.2,15.393,56.205,12.9,84.775-2.82,32.187-40.627,82.275-73.55,45.735-13.632-15.125-17.75-39.052-23.946-57.574C676.855,667.671,669.142,645.514,657.245,625.2Z" transform="translate(454.111 103.703)" fill="none" stroke="#fff" stroke-miterlimit="10" stroke-width="1.359"/>
                      <path id="Trazado_819109" data-name="Trazado 819109" d="M703.328,566.294c-4.561-2.7-7.463-7.469-9.83-12.211-14.851-29.763-15.591-64.833-29.11-95.225-20.5-46.087-72.034-76.331-122.267-71.757-6.851.622-13.788,1.824-20.562.618s-13.555-5.5-15.281-12.165c-2.483-9.572,6.7-18.746,16.331-20.974s19.663.1,29.549.406A72.964,72.964,0,0,0,602.773,336.4c12.929-11.685,21.176-27.59,32.463-40.866s27.994-24.47,45.109-21.188c14.056,2.7,24.722,14.643,30.735,27.632,10.928,23.611,9.63,50.752,9.913,76.767a570.677,570.677,0,0,0,14.776,122.3c3.292,14.245,7.271,25.689,3.095,40.028C734.835,554.9,720.668,576.561,703.328,566.294Z" transform="translate(480.045 260.915)" fill="none" stroke="#fff" stroke-miterlimit="10" stroke-width="1.359"/>
                      <path id="Trazado_819110" data-name="Trazado 819110" d="M596.972,384.54c-12.259-14.2-14.855-34.51-12.9-53.171s7.848-36.7,10.452-55.28a158.761,158.761,0,0,0-4.349-64.681c-3.32-11.831-8.072-23.75-6.779-35.97s11.514-24.674,23.686-22.987c9.969,1.379,16.394,11.08,20.8,20.129A208.433,208.433,0,0,1,648.593,272.8c-1.053,23.077-5.855,46.952,1.745,68.77,5.784,16.6,15.4,38.595-2.421,52.172C633.374,404.817,607.85,397.142,596.972,384.54Z" transform="translate(563.531 129.734)" fill="none" stroke="#fff" stroke-miterlimit="10" stroke-width="1.359"/>
                      <path id="Trazado_819111" data-name="Trazado 819111" d="M601.45,383.973c-7.388-4.857-15.859-8.1-22.536-13.888a37.428,37.428,0,0,1,6.953-61.312c2.384-1.269,4.956-2.315,6.885-4.208,3.363-3.3,4.555-8.923,8.927-10.662,4.048-1.608,8.576,1.179,11.273,4.6,6.724,8.521,6.826,20.408,5.792,31.213s-2.831,22.084,1.038,32.226c2.263,5.932,6.308,10.99,9.351,16.564a53.964,53.964,0,0,1,6.186,31.883c-.432,3.669-1.543,7.725-4.759,9.543C620.1,425.846,610.225,389.743,601.45,383.973Z" transform="translate(545.017 282.153)" fill="none" stroke="#fff" stroke-miterlimit="10" stroke-width="1.359"/>
                      <path id="Trazado_819112" data-name="Trazado 819112" d="M602.629,232.854c1.841-2.739,4.214-5.331,7.354-6.35,7.153-2.321,14.1,4.428,17.17,11.3,5.462,12.234,9.426,70.48-17.167,61.02C590.008,291.715,593.847,245.924,602.629,232.854Z" transform="translate(576.822 209.368)" fill="none" stroke="#fff" stroke-miterlimit="10" stroke-width="1.359"/>
                    </g>
                  </g>
                </g>
              </g>
            </g>
            <g id="Grupo_1072917" data-name="Grupo 1072917">
              <g id="Grupo_1072916" data-name="Grupo 1072916" clip-path="url(#clip-path-3)">
                <g id="Grupo_1072915" data-name="Grupo 1072915" transform="translate(638 289.675)" opacity="0.22">
                  <g id="Grupo_1072914" data-name="Grupo 1072914">
                    <g id="Grupo_1072913" data-name="Grupo 1072913" clip-path="url(#clip-path-7)">
                      <path id="Trazado_819113" data-name="Trazado 819113" d="M873.234,143.152c40.028,8.07,76.992,27.049,112.1,47.894,46.892,27.842,91.435,59.319,135.078,92.071V802.826H445.334c-56.1-60.161-102.525-130.444-124.874-209.4-24.428-86.312-17.5-183.827,31.08-259.238,23.289-36.155,60.2-68.385,103.2-67.838,46.5.593,86.913,39.015,133.36,36.781,37.49-1.8,68.375-29.73,91.768-59.084s43.743-62.57,75.261-82.949c34.289-22.172,78.076-26.02,118.1-17.95" transform="translate(-306.743 -139.273)" fill="#507533"/>
                    </g>
                  </g>
                </g>
                <path id="Trazado_819114" data-name="Trazado 819114" d="M642.8,378.534c-2.282,10.31-1.647,21.357-1.088,31.1a2.276,2.276,0,0,0,.878,1.733,1.452,1.452,0,0,0,1.654.085c7.8-4.572,14.148-12.846,17.421-22.7a53.427,53.427,0,0,0,.516-31.24,2.315,2.315,0,0,0-.354-.726,2.913,2.913,0,0,0-.066-.422,2.091,2.091,0,0,0-1.009-1.385,1.449,1.449,0,0,0-1.2-.079c-7.746,2.887-14.162,11.943-16.749,23.63" transform="translate(692.425 383.162)" fill="#9fbe37"/>
                <path id="Trazado_819115" data-name="Trazado 819115" d="M640.623,401.091a.542.542,0,0,0,.822.252l.06-.044c1.816-1.331,3.6-2.716,5.372-4.118.938-.734,1.864-1.487,2.789-2.244q-1.011,3.1-2.032,6.188-2.359,7.1-4.809,14.168l0,.008a.7.7,0,0,0,.243.811.478.478,0,0,0,.7-.277c1.911-4.582,3.665-9.241,5.358-13.94.782-2.165,1.533-4.347,2.269-6.535.106.507.212,1.015.314,1.525l.963,4.632c.674,3.078,1.352,6.157,2.12,9.208a.524.524,0,0,0,.586.441.634.634,0,0,0,.424-.736c-.447-3.145-.984-6.265-1.524-9.383l-.861-4.663c-.289-1.51-.551-3.024-.861-4.528.46-1.4.926-2.8,1.377-4.2.524-1.683,1.025-3.376,1.529-5.067l1.015,2.729c.6,1.577,1.167,3.166,1.784,4.732,1.215,3.139,2.44,6.275,3.742,9.366a.486.486,0,0,0,.649.3.685.685,0,0,0,.3-.819c-1.009-3.253-2.1-6.462-3.195-9.667-.539-1.606-1.123-3.189-1.685-4.786l-1.7-4.773c-.008-.021-.021-.044-.029-.066.62-2.151,1.227-4.308,1.807-6.477.243-.94.48-1.886.715-2.831,1.017,2,2.026,4.008,3.087,5.978,1.3,2.479,2.627,4.946,4,7.373a.468.468,0,0,0,.674.2.713.713,0,0,0,.214-.861c-1.138-2.606-2.325-5.171-3.532-7.723-1.184-2.571-2.456-5.075-3.679-7.615a1.151,1.151,0,0,0-.091-.125c.726-3.066,3.278-12.758,3.858-15.872a.725.725,0,0,0-.387-.817.557.557,0,0,0-.709.46l0,.008c-.813,3.257-3.544,13.106-4.42,16.336-2.25,1.518-4.474,3.093-6.708,4.649-2.4,1.728-4.79,3.453-7.136,5.285a.788.788,0,0,0-.206.89.525.525,0,0,0,.759.32c2.5-1.485,4.961-3.08,7.417-4.671,1.676-1.127,3.355-2.248,5.027-3.384-.162.582-.314,1.167-.478,1.747q-1.033,3.6-2.1,7.18c-1.943,1.518-3.9,3.012-5.822,4.57-2.128,1.71-4.247,3.434-6.327,5.237a.8.8,0,0,0-.168.9.519.519,0,0,0,.772.272c2.232-1.508,4.424-3.091,6.608-4.69,1.31-.951,2.606-1.93,3.9-2.912-.391,1.275-.772,2.554-1.175,3.825-.462,1.5-.944,2.989-1.423,4.482-1.626,1.379-3.267,2.731-4.875,4.147q-2.277,1.987-4.515,4.05a.509.509,0,0,0-.225.139l-.453.474a.857.857,0,0,0-.123.934" transform="translate(691.723 378.842)" fill="#507533"/>
                <path id="Trazado_819116" data-name="Trazado 819116" d="M336.351,366.876c-14.181,9.819-24.73,24.262-34.034,37.006a3.515,3.515,0,0,0-.485,3.255,3.414,3.414,0,0,0,2.408,2.213,70.554,70.554,0,0,0,49.935-5.832,71.349,71.349,0,0,0,33.314-37.9,3.5,3.5,0,0,0,.22-1.348,3.673,3.673,0,0,0,.339-.605,3.528,3.528,0,0,0-.077-2.993,3.438,3.438,0,0,0-1.733-1.631c-14.7-6.3-33.811-3.295-49.889,7.837" transform="translate(487.683 384.224)" fill="#9fbe37"/>
                <path id="Trazado_819117" data-name="Trazado 819117" d="M313.35,387.85a1.184,1.184,0,0,0,.98,1.358l.137.023c4.122.668,8.257,1.225,12.392,1.755,2.18.289,4.364.541,6.548.784q-4.748,2.533-9.511,5.05-10.96,5.762-22.012,11.363l-.015.008a1.027,1.027,0,0,0,.867,1.859c7.658-3.222,15.154-6.741,22.6-10.383,3.436-1.676,6.839-3.415,10.231-5.177-.37.761-.738,1.523-1.115,2.282l-3.371,6.945c-2.19,4.659-4.372,9.32-6.392,14.066a1.029,1.029,0,0,0,1.835.921c2.6-4.453,5.04-8.987,7.471-13.526l3.559-6.849c1.134-2.232,2.317-4.436,3.415-6.687,2.151-1.14,4.305-2.271,6.45-3.426,2.544-1.408,5.062-2.862,7.583-4.31l-1.312,4.661c-.74,2.706-1.535,5.4-2.234,8.114-1.435,5.422-2.854,10.851-4.108,16.327a1.028,1.028,0,0,0,1.972.57c1.866-5.3,3.565-10.645,5.248-16,.861-2.671,1.624-5.368,2.444-8.051l2.4-8.064c.01-.035.017-.079.027-.119,3.176-1.866,6.34-3.752,9.472-5.693,1.35-.851,2.689-1.716,4.029-2.581-.547,3.765-1.119,7.527-1.566,11.306-.616,4.721-1.188,9.449-1.643,14.2a1.028,1.028,0,0,0,2.028.314c1-4.663,1.876-9.343,2.712-14.031.892-4.678,1.581-9.389,2.377-14.081a1.691,1.691,0,0,0-.006-.272c4.289-2.858,18.237-11.573,22.355-14.676a1.121,1.121,0,0,0-1.283-1.837l-.01.008c-4.622,2.983-19,11.66-23.684,14.534-4.979-.992-9.975-1.882-14.967-2.808-5.412-.915-10.824-1.837-16.275-2.562a1.123,1.123,0,0,0-.424,2.2c5.329,1.354,10.695,2.515,16.059,3.679,3.7.742,7.407,1.5,11.113,2.223-.851.512-1.689,1.042-2.542,1.547q-5.307,3.123-10.645,6.19c-4.513-.6-9.021-1.248-13.544-1.772-4.992-.6-9.988-1.169-15-1.6a1.122,1.122,0,0,0-.314,2.219c4.938.982,9.894,1.818,14.857,2.625,2.966.5,5.94.938,8.915,1.373-1.916,1.077-3.823,2.169-5.755,3.224-2.257,1.265-4.538,2.488-6.814,3.723-3.891-.37-7.779-.79-11.677-1.09q-5.51-.452-11.036-.755a1.1,1.1,0,0,0-.48-.112l-1.179.01a1.183,1.183,0,0,0-1.159.994" transform="translate(487.338 382.087)" fill="#507533"/>
                <path id="Trazado_819118" data-name="Trazado 819118" d="M73.169,183.45c5.075,14.387,14.942,26.75,23.649,37.659a3.114,3.114,0,0,0,2.666,1.169,3.006,3.006,0,0,0,2.446-1.539,62.386,62.386,0,0,0,6.654-43.963A63.108,63.108,0,0,0,84,139.522a3.119,3.119,0,0,0-1.1-.5,3.422,3.422,0,0,0-.439-.428,3.11,3.11,0,0,0-2.571-.632,3.055,3.055,0,0,0-1.795,1.1c-8.8,11.076-10.685,28.083-4.931,44.394" transform="translate(75.464 148.916)" fill="#9fbe37"/>
                <path id="Trazado_819119" data-name="Trazado 819119" d="M83.97,213.712a1.05,1.05,0,0,0,1.387-.52l.048-.112c1.531-3.361,2.97-6.758,4.387-10.165.753-1.793,1.477-3.6,2.192-5.4q1.058,4.642,2.1,9.291,2.362,10.695,4.567,21.429l0,.012a.908.908,0,0,0,1.789-.306c-.965-7.284-2.221-14.5-3.594-21.706-.63-3.322-1.319-6.631-2.034-9.936q.845.739,1.687,1.483l5.139,4.495c3.465,2.953,6.934,5.9,10.514,8.729a.91.91,0,0,0,1.213-1.352c-3.191-3.255-6.493-6.392-9.8-9.522L98.548,195.5c-1.637-1.489-3.247-3.012-4.909-4.472-.474-2.1-.938-4.2-1.423-6.3-.609-2.5-1.263-4.986-1.911-7.473l3.673,2.2c2.136,1.262,4.245,2.567,6.4,3.8,4.293,2.488,8.594,4.963,12.974,7.307a.91.91,0,0,0,.948-1.55c-4.089-2.824-8.257-5.52-12.432-8.2-2.078-1.356-4.2-2.637-6.3-3.96l-6.323-3.925c-.027-.017-.062-.031-.1-.05-.849-3.143-1.724-6.283-2.65-9.407-.412-1.35-.838-2.693-1.265-4.039,3.085,1.344,6.161,2.708,9.283,3.971,3.885,1.624,7.787,3.213,11.731,4.707a.909.909,0,0,0,.74-1.658c-3.748-1.936-7.538-3.777-11.342-5.58-3.785-1.851-7.644-3.536-11.46-5.31a1.759,1.759,0,0,0-.235-.056c-1.439-4.324-5.626-18.255-7.315-22.492a.991.991,0,0,0-1.866.668l0,.01c1.471,4.636,5.526,18.927,6.887,23.594-2.005,4.014-3.929,8.072-5.88,12.115-2.04,4.405-4.087,8.808-5.976,13.289a.993.993,0,0,0,1.778.876c2.4-4.231,4.636-8.54,6.878-12.846,1.5-2.987,3-5.971,4.484-8.964.241.844.5,1.685.728,2.529q1.429,5.254,2.8,10.524c-1.564,3.713-3.166,7.407-4.667,11.144-1.674,4.12-3.324,8.249-4.855,12.43a.992.992,0,0,0,1.82.784c1.988-3.983,3.856-8.018,5.7-12.063,1.113-2.417,2.184-4.852,3.247-7.288.472,1.887.961,3.769,1.41,5.662.553,2.221,1.067,4.451,1.589,6.681-1.221,3.234-2.485,6.452-3.65,9.709q-1.666,4.6-3.211,9.241a.963.963,0,0,0-.21.385l-.264,1.009a1.044,1.044,0,0,0,.58,1.219" transform="translate(75.301 142.96)" fill="#507533"/>
                <path id="Trazado_819120" data-name="Trazado 819120" d="M679.082,387.98c12.681,7.943,27.8,11.408,41.149,14.462a3.046,3.046,0,0,0,2.758-.728,2.952,2.952,0,0,0,.94-2.677,61.2,61.2,0,0,0-21.739-37.806,61.9,61.9,0,0,0-41.617-13.582,3,3,0,0,0-1.15.285,3.193,3.193,0,0,0-.6-.062,3.048,3.048,0,0,0-2.359,1.086,2.993,2.993,0,0,0-.707,1.938c.01,13.873,8.948,28.079,23.324,37.085" transform="translate(708.159 375.349)" fill="#9fbe37"/>
                <path id="Trazado_819121" data-name="Trazado 819121" d="M707.3,402.752a1.028,1.028,0,0,0,.747-1.246l-.029-.116c-.878-3.515-1.849-7-2.841-10.481-.516-1.837-1.063-3.663-1.618-5.487q3.647,2.917,7.284,5.853,8.343,6.764,16.591,13.657l.01.008a.89.89,0,0,0,1.186-1.327c-5.189-5-10.56-9.773-16.013-14.464-2.513-2.165-5.063-4.285-7.629-6.383.734.033,1.466.066,2.2.106l6.689.312c4.463.15,8.927.293,13.4.279a.891.891,0,0,0,.106-1.776c-4.438-.551-8.888-.942-13.336-1.327l-6.681-.491c-2.165-.141-4.328-.329-6.5-.435-1.645-1.323-3.286-2.654-4.94-3.968-1.993-1.545-4.012-3.055-6.03-4.57l4.164-.551c2.411-.335,4.828-.622,7.232-.994,4.815-.713,9.628-1.439,14.422-2.315a.892.892,0,0,0-.221-1.768c-4.863.326-9.707.8-14.549,1.294-2.423.229-4.836.543-7.255.809l-7.248.847c-.033,0-.069.015-.1.021-2.575-1.893-5.162-3.769-7.781-5.6q-1.709-1.176-3.436-2.327c3.188-.853,6.383-1.685,9.549-2.623,3.975-1.125,7.939-2.288,11.878-3.55a.892.892,0,0,0-.445-1.724c-4.058.8-8.089,1.7-12.111,2.641-4.035.892-8.024,1.955-12.038,2.924a1.539,1.539,0,0,0-.214.1c-3.748-2.44-15.466-10.576-19.352-12.8a.973.973,0,0,0-1.025,1.651l.01.006c3.96,2.662,15.8,11.152,19.693,13.9.913,4.308,1.915,8.594,2.885,12.889,1.123,4.628,2.242,9.258,3.53,13.85a.973.973,0,0,0,1.9-.414c-.745-4.711-1.656-9.387-2.565-14.062-.676-3.205-1.344-6.414-2.03-9.617.7.5,1.406.99,2.1,1.5q4.306,3.157,8.577,6.367c1.065,3.8,2.092,7.617,3.224,11.4,1.229,4.185,2.486,8.361,3.865,12.5a.972.972,0,0,0,1.874-.51c-.907-4.272-1.936-8.509-2.991-12.742-.62-2.533-1.288-5.056-1.957-7.575,1.514,1.158,3.037,2.3,4.538,3.484,1.78,1.366,3.536,2.766,5.3,4.158,1.038,3.228,2.032,6.471,3.128,9.682q1.526,4.546,3.176,9.052a.98.98,0,0,0,.075.424l.412.936a1.029,1.029,0,0,0,1.19.582" transform="translate(702.95 372.736)" fill="#507533"/>
                <path id="Trazado_819122" data-name="Trazado 819122" d="M690.977,193.981c8.438-8.584,13.781-19.863,18.492-29.816a2.448,2.448,0,0,0-.094-2.294,2.377,2.377,0,0,0-1.938-1.2,49.245,49.245,0,0,0-33.468,10.524,49.8,49.8,0,0,0-17.883,30.335,2.437,2.437,0,0,0,.025.953,2.48,2.48,0,0,0,.291,2.5,2.412,2.412,0,0,0,1.4.89c10.9,2.4,23.609-2.161,33.175-11.893" transform="translate(708.31 173.402)" fill="#507533"/>
                <path id="Trazado_819123" data-name="Trazado 819123" d="M689.653,199.375a.764.764,0,0,0,0-1.525c-3.736-.227-7.471-.318-11.207-.414-2.577-.023-5.156-.054-7.733-.069.208-.185.406-.36.616-.549l4.276-3.752c.957-.84,1.951-1.7,2.956-2.552,3.095-.175,6.192-.316,9.285-.543,3.413-.235,6.826-.491,10.233-.847a.763.763,0,0,0-.073-1.522c-3.426-.027-6.847.046-10.266.137-2.055.048-4.108.133-6.161.22q1.719-1.441,3.461-2.889,2.028-1.7,4.056-3.355c2.658-.252,5.318-.464,7.972-.761,2.5-.268,4.994-.562,7.488-.9a.721.721,0,0,0,.32.008l.788-.156a.807.807,0,0,0-.181-1.6l-.094,0c-2.843.079-5.678.233-8.511.406-1.493.083-2.983.193-4.474.31.74-.595,1.5-1.215,2.219-1.789,3.091-2.461,5.978-4.755,8.453-6.722l8.309-6.481a.7.7,0,0,0-.811-1.138s-3.544,2.325-8.681,6.053c-2.558,1.876-5.549,4.06-8.684,6.491-.853.659-1.741,1.367-2.614,2.055.152-.562.31-1.119.466-1.678.456-1.693.938-3.376,1.371-5.073.869-3.394,1.735-6.789,2.479-10.219a.7.7,0,0,0-1.344-.383c-1.171,3.307-2.223,6.649-3.27,9.994-.526,1.67-1,3.357-1.506,5.033-.474,1.629-.98,3.249-1.427,4.888q-1.934,1.551-3.881,3.13c-1.523,1.269-3.034,2.548-4.518,3.823l.281-3.259c.15-1.9.339-3.8.46-5.707.266-3.81.524-7.619.664-11.439a.7.7,0,0,0-1.389-.131c-.572,3.781-1.025,7.573-1.468,11.365-.235,1.895-.4,3.8-.607,5.695l-.576,5.7a.653.653,0,0,0,0,.067q-1.157,1.014-2.271,2.007c-1.481,1.325-2.918,2.6-4.226,3.864-.5.485-.99.942-1.475,1.4-.114-2.587-.212-5.177-.4-7.762-.189-3.234-.41-6.469-.711-9.7a.7.7,0,0,0-1.4.048c-.071,3.245-.062,6.485-.025,9.726,0,3.243.141,6.479.206,9.717a1.129,1.129,0,0,0,.038.166c-2.253,2.2-4.073,4.1-5.325,5.447s-6.82,6.731-6.82,6.731a.763.763,0,0,0,1.084,1.073l.015-.015s5.6-5.318,6.939-6.583c1.306-1.3,3.267-3.051,5.576-5.2.158-.15.339-.306.5-.456,3.467.029,6.934-.015,10.4-.031,3.736-.079,7.471-.152,11.206-.362" transform="translate(705.967 172.442)" fill="#9fbe37"/>
                <path id="Trazado_819126" data-name="Trazado 819126" d="M95.3,154.609c8.016,5.158,17.623,7.481,26.1,9.532a1.943,1.943,0,0,0,1.764-.445,1.877,1.877,0,0,0,.618-1.7,39,39,0,0,0-13.555-24.254,39.43,39.43,0,0,0-26.407-8.973,1.94,1.94,0,0,0-.734.171,2.324,2.324,0,0,0-.381-.044,1.954,1.954,0,0,0-1.512.674,1.92,1.92,0,0,0-.466,1.229c-.1,8.838,5.483,17.958,14.572,23.8" transform="translate(87.18 139.035)" fill="#507533"/>
                <path id="Trazado_819127" data-name="Trazado 819127" d="M93.925,153.614a.605.605,0,0,0,1.183-.243c-.428-2.933-.959-5.842-1.487-8.754-.4-2-.788-4.006-1.192-6.009.177.131.343.258.524.391l3.6,2.71c.807.607,1.629,1.238,2.454,1.878.634,2.373,1.244,4.751,1.92,7.113.732,2.608,1.481,5.212,2.3,7.8a.6.6,0,0,0,1.169-.3c-.53-2.66-1.138-5.3-1.762-7.937-.368-1.585-.763-3.164-1.163-4.74q1.395,1.1,2.8,2.217c1.1.865,2.18,1.737,3.255,2.6.624,2.02,1.219,4.048,1.876,6.057.612,1.895,1.24,3.783,1.9,5.662a.6.6,0,0,0,.046.252l.25.584a.637.637,0,0,0,1.206-.4l-.017-.073c-.52-2.19-1.1-4.364-1.687-6.533-.306-1.144-.632-2.282-.963-3.419.582.478,1.183.963,1.745,1.431l6.577,5.472,6.365,5.4a.554.554,0,0,0,.751-.813s-2.375-2.373-6.092-5.755c-1.868-1.681-4.043-3.648-6.433-5.686-.651-.553-1.342-1.127-2.015-1.7.46.027.917.06,1.377.092,1.385.079,2.768.181,4.154.243,2.773.127,5.545.25,8.324.275a.554.554,0,0,0,.079-1.1c-2.754-.376-5.514-.653-8.276-.926-1.379-.137-2.764-.235-4.145-.356-1.339-.1-2.677-.235-4.018-.316-1.011-.836-2.026-1.672-3.055-2.506-1.227-.975-2.465-1.941-3.692-2.885l2.573-.31c1.5-.189,3-.349,4.5-.564,3-.406,5.992-.822,8.977-1.329a.553.553,0,0,0-.123-1.1c-3.024.166-6.036.424-9.048.693-1.508.123-3.01.3-4.513.447l-4.511.472-.052.01q-.97-.733-1.922-1.439c-1.267-.932-2.483-1.843-3.679-2.652-.456-.312-.888-.616-1.321-.917,1.988-.505,3.979-1,5.955-1.558,2.477-.67,4.948-1.362,7.4-2.115a.554.554,0,0,0-.262-1.075c-2.527.468-5.04,1-7.546,1.55-2.513.524-5,1.154-7.5,1.726a.818.818,0,0,0-.123.054c-2.069-1.389-3.833-2.5-5.083-3.249s-6.319-4.2-6.319-4.2a.6.6,0,0,0-.657,1.011l.015.01s5.025,3.484,6.223,4.318c1.215.8,2.891,2.04,4.931,3.484.139.1.291.214.433.316.537,2.693,1.129,5.374,1.7,8.06.663,2.885,1.323,5.77,2.088,8.632" transform="translate(84.529 137.902)" fill="#9fbe37"/>
                <path id="Trazado_819128" data-name="Trazado 819128" d="M680.3,209.446c8.4,4.511,18.158,6.071,26.77,7.444a1.936,1.936,0,0,0,1.722-.58,1.882,1.882,0,0,0,.485-1.741,38.99,38.99,0,0,0-15.427-23.108,39.426,39.426,0,0,0-27.028-6.866,1.645,1.645,0,0,1-1.1.216,1.942,1.942,0,0,0-1.454.79,1.9,1.9,0,0,0-.368,1.263c.6,8.817,6.88,17.469,16.4,22.582" transform="translate(716.946 199.067)" fill="#507533"/>
                <path id="Trazado_819129" data-name="Trazado 819129" d="M678.907,208.341a.6.6,0,0,0,1.161-.335c-.657-2.891-1.417-5.751-2.171-8.611-.555-1.966-1.1-3.933-1.664-5.894.187.116.364.229.553.345l3.8,2.419c.851.541,1.72,1.107,2.6,1.681.819,2.315,1.614,4.638,2.473,6.939.936,2.544,1.887,5.079,2.914,7.592a.6.6,0,0,0,1.14-.393c-.738-2.61-1.552-5.2-2.382-7.775-.491-1.552-1.011-3.093-1.533-4.634q1.476.986,2.964,1.988,1.741,1.167,3.45,2.34c.78,1.965,1.533,3.941,2.346,5.892.759,1.839,1.535,3.673,2.344,5.493a.581.581,0,0,0,.065.245l.3.564a.638.638,0,0,0,1.173-.491l-.023-.071c-.691-2.142-1.437-4.264-2.2-6.379-.4-1.117-.811-2.225-1.229-3.334.618.431,1.254.867,1.853,1.29,2.554,1.805,4.94,3.492,6.984,4.936l6.772,4.882a.56.56,0,0,0,.747-.089.553.553,0,0,0-.062-.78s-2.554-2.18-6.527-5.258c-1.995-1.529-4.318-3.32-6.862-5.162-.693-.5-1.427-1.019-2.142-1.531.46-.008.919-.012,1.379-.019,1.387-.029,2.775-.035,4.16-.083,2.775-.092,5.547-.187,8.32-.383a.554.554,0,0,0-.008-1.106c-2.775-.156-5.549-.214-8.322-.268-1.388-.029-2.775-.017-4.162-.029-1.344,0-2.687-.023-4.031,0-1.073-.753-2.151-1.508-3.243-2.257-1.3-.878-2.61-1.743-3.908-2.587l2.54-.51c1.481-.308,2.966-.587,4.443-.917,2.953-.641,5.907-1.292,8.844-2.032a.554.554,0,0,0-.21-1.086c-3,.4-5.984.9-8.964,1.4-1.493.241-2.976.537-4.463.8l-4.459.826-.052.015q-1.026-.655-2.03-1.281c-1.335-.832-2.621-1.641-3.877-2.354-.478-.277-.934-.545-1.389-.811,1.943-.661,3.887-1.31,5.813-2.022,2.417-.863,4.827-1.747,7.215-2.693a.554.554,0,0,0-.345-1.05c-2.483.666-4.946,1.392-7.4,2.138-2.465.72-4.894,1.545-7.342,2.313a.93.93,0,0,0-.118.064c-2.171-1.223-4.016-2.186-5.323-2.839s-6.631-3.692-6.631-3.692a.6.6,0,0,0-.574,1.061l.015.01s5.285,3.076,6.543,3.815c1.275.705,3.045,1.805,5.191,3.085.148.087.306.189.458.281.747,2.641,1.547,5.268,2.329,7.9.888,2.822,1.774,5.647,2.762,8.44" transform="translate(714.154 198.366)" fill="#9fbe37"/>
              </g>
            </g>
          </g>
        </g>
      </g>
    </g>
  </g>
</svg>
