<svg xmlns="http://www.w3.org/2000/svg" xmlns:xlink="http://www.w3.org/1999/xlink" width="293.107" height="820.134" viewBox="0 0 293.107 820.134">
  <defs>
    <clipPath id="clip-path">
      <rect id="Rectángulo_378551" data-name="Rectángulo 378551" width="293.107" height="820.134" fill="none"/>
    </clipPath>
    <clipPath id="clip-path-2">
      <rect id="Rectángulo_378563" data-name="Rectángulo 378563" width="265.001" height="213.846" fill="none"/>
    </clipPath>
  </defs>
  <g id="Grupo_1074815" data-name="Grupo 1074815" transform="translate(7.671 -132)">
    <g id="Grupo_1074814" data-name="Grupo 1074814" transform="translate(-7.671 132)" clip-path="url(#clip-path)">
      <path id="Trazado_824861" data-name="Trazado 824861" d="M203.894,37.081h-6.448a26.9,26.9,0,0,0,1.889-9.907,27.164,27.164,0,0,0-52.911-8.668,24.682,24.682,0,0,0-13.113-3.767,24.97,24.97,0,0,0-24.753,22.343h-11.3A14.26,14.26,0,0,0,83.04,51.3a14.109,14.109,0,0,0,.334,3.046H72.885a14.218,14.218,0,1,0,0,28.437H179.521a14.261,14.261,0,0,0,14.218-14.218,14.111,14.111,0,0,0-.334-3.046h10.489a14.218,14.218,0,0,0,0-28.437" transform="translate(28.473 0)" fill="#d9d9fc"/>
      <path id="Trazado_824862" data-name="Trazado 824862" d="M0,353.574c1.635-12.609,10.005-23.454,20.345-27.5s22.2-1.527,31.149,5.763c5.843,4.761,10.605,11.442,17.1,14.852,8.5,4.46,18.665,2.448,26.862-2.72,4.977-3.137,9.4-7.338,14.2-10.846,10.366-7.592,22.674-11.893,34.87-10.831s24.822,12,32.186,22.987c-.853-1.27,3.165-8.155,3.851-9.261a31.556,31.556,0,0,1,6.426-7.407,34.537,34.537,0,0,1,28.159-7.942c6.124,1.108,12.226,4.885,16.648,9.927s7.878,11.618,13.664,14.736c6.108,3.291,13.407,2.789,19.675.4,4.125-1.573,8.113-3.942,12.441-4.291,6.359-.512,15.535,10.639,15.535,10.639Z" transform="translate(0 155.391)" fill="#c6b958"/>
      <line id="Línea_1077" data-name="Línea 1077" x2="83.787" y2="45.463" transform="translate(55.714 430.328)" fill="none" stroke="#898429" stroke-linecap="round" stroke-linejoin="round" stroke-width="1.11"/>
      <path id="Trazado_824863" data-name="Trazado 824863" d="M39.233,296.965c.511-.085,25.986,8.894,25.986,8.894l-23.458-17.45" transform="translate(19.041 139.977)" fill="none" stroke="#898429" stroke-linecap="round" stroke-linejoin="round" stroke-width="1.11"/>
      <path id="Trazado_824864" data-name="Trazado 824864" d="M46.409,286.891,67.459,308.2l-25.373-4.217" transform="translate(20.426 139.241)" fill="none" stroke="#898429" stroke-linecap="round" stroke-linejoin="round" stroke-width="1.11"/>
      <path id="Trazado_824865" data-name="Trazado 824865" d="M50.772,286.806l23.283,26.246L45.172,309.2" transform="translate(21.924 139.199)" fill="none" stroke="#898429" stroke-linecap="round" stroke-linejoin="round" stroke-width="1.11"/>
      <path id="Trazado_824866" data-name="Trazado 824866" d="M56.568,287.193l24.383,29.741-32.6-2.816" transform="translate(23.468 139.387)" fill="none" stroke="#898429" stroke-linecap="round" stroke-linejoin="round" stroke-width="1.11"/>
      <path id="Trazado_824867" data-name="Trazado 824867" d="M60.889,287.843c.306.579,26.66,33.355,26.66,33.355l-35.223-2.173" transform="translate(25.396 139.702)" fill="none" stroke="#898429" stroke-linecap="round" stroke-linejoin="round" stroke-width="1.11"/>
      <path id="Trazado_824868" data-name="Trazado 824868" d="M66.322,288.235c.382.725,25.845,36.378,25.845,36.378L55.5,323.57" transform="translate(26.938 139.893)" fill="none" stroke="#898429" stroke-linecap="round" stroke-linejoin="round" stroke-width="1.11"/>
      <path id="Trazado_824869" data-name="Trazado 824869" d="M71.655,290.061l27.281,38.4-40.41-1.475" transform="translate(28.405 140.779)" fill="none" stroke="#898429" stroke-linecap="round" stroke-linejoin="round" stroke-width="1.11"/>
      <path id="Trazado_824870" data-name="Trazado 824870" d="M83.381,298.191l20.44,30.338-39.929.493" transform="translate(31.009 144.725)" fill="none" stroke="#898429" stroke-linecap="round" stroke-linejoin="round" stroke-width="1.11"/>
      <line id="Línea_1078" data-name="Línea 1078" x1="128.142" y2="69.53" transform="translate(163.462 259.432)" fill="none" stroke="#898429" stroke-linecap="round" stroke-linejoin="round" stroke-width="1.012"/>
      <path id="Trazado_824871" data-name="Trazado 824871" d="M206.67,185.746c-.781-.129-39.743,13.6-39.743,13.6l35.878-26.687" transform="translate(81.017 83.8)" fill="none" stroke="#898429" stroke-linecap="round" stroke-linejoin="round" stroke-width="1.012"/>
      <path id="Trazado_824872" data-name="Trazado 824872" d="M195.389,170.34l-32.195,32.593,38.8-6.449" transform="translate(79.205 82.673)" fill="none" stroke="#898429" stroke-linecap="round" stroke-linejoin="round" stroke-width="1.012"/>
      <path id="Trazado_824873" data-name="Trazado 824873" d="M190.471,170.21l-35.608,40.141,44.173-5.886" transform="translate(75.162 82.61)" fill="none" stroke="#898429" stroke-linecap="round" stroke-linejoin="round" stroke-width="1.012"/>
      <path id="Trazado_824874" data-name="Trazado 824874" d="M183.463,170.8l-37.291,45.484,49.854-4.306" transform="translate(70.943 82.898)" fill="none" stroke="#898429" stroke-linecap="round" stroke-linejoin="round" stroke-width="1.012"/>
      <path id="Trazado_824875" data-name="Trazado 824875" d="M178.166,171.795c-.468.887-40.773,51.013-40.773,51.013l53.867-3.323" transform="translate(66.683 83.379)" fill="none" stroke="#898429" stroke-linecap="round" stroke-linejoin="round" stroke-width="1.012"/>
      <path id="Trazado_824876" data-name="Trazado 824876" d="M170.578,172.4c-.584,1.108-39.528,55.635-39.528,55.635l56.073-1.6" transform="translate(63.604 83.671)" fill="none" stroke="#898429" stroke-linecap="round" stroke-linejoin="round" stroke-width="1.012"/>
      <path id="Trazado_824877" data-name="Trazado 824877" d="M164.293,175.187,122.57,233.913l61.8-2.256" transform="translate(59.488 85.026)" fill="none" stroke="#898429" stroke-linecap="round" stroke-linejoin="round" stroke-width="1.012"/>
      <path id="Trazado_824878" data-name="Trazado 824878" d="M146.119,187.622l-31.259,46.4,61.065.753" transform="translate(55.746 91.061)" fill="none" stroke="#898429" stroke-linecap="round" stroke-linejoin="round" stroke-width="1.012"/>
      <line id="Línea_1079" data-name="Línea 1079" x2="80.88" y2="69.104" transform="translate(28.835 220.314)" fill="none" stroke="#898429" stroke-linecap="round" stroke-linejoin="round" stroke-width="1.225"/>
      <path id="Trazado_824879" data-name="Trazado 824879" d="M27.324,148.34c.117.566,19.661,23.516,19.661,23.516L19.422,154.4" transform="translate(9.426 71.996)" fill="none" stroke="#898429" stroke-linecap="round" stroke-linejoin="round" stroke-width="1.225"/>
      <path id="Trazado_824880" data-name="Trazado 824880" d="M19.465,160.962l30.623,13.407L35.545,149.621" transform="translate(9.447 72.618)" fill="none" stroke="#898429" stroke-linecap="round" stroke-linejoin="round" stroke-width="1.225"/>
      <path id="Trazado_824881" data-name="Trazado 824881" d="M20.955,166.234l36.657,13.757L42.05,151.44" transform="translate(10.17 73.5)" fill="none" stroke="#898429" stroke-linecap="round" stroke-linejoin="round" stroke-width="1.225"/>
      <path id="Trazado_824882" data-name="Trazado 824882" d="M23.335,172.709l40.739,13.506L48.1,153.382" transform="translate(11.325 74.443)" fill="none" stroke="#898429" stroke-linecap="round" stroke-linejoin="round" stroke-width="1.225"/>
      <path id="Trazado_824883" data-name="Trazado 824883" d="M25.694,177.508c.726.086,45.414,14.432,45.414,14.432L54.755,156.115" transform="translate(12.47 75.769)" fill="none" stroke="#898429" stroke-linecap="round" stroke-linejoin="round" stroke-width="1.225"/>
      <path id="Trazado_824884" data-name="Trazado 824884" d="M27.981,183.554c.908.108,48.238,12.374,48.238,12.374l-15.754-37.78" transform="translate(13.58 76.756)" fill="none" stroke="#898429" stroke-linecap="round" stroke-linejoin="round" stroke-width="1.225"/>
      <path id="Trazado_824885" data-name="Trazado 824885" d="M31.715,188.588,82.632,201.65,64.93,160.14" transform="translate(15.392 77.723)" fill="none" stroke="#898429" stroke-linecap="round" stroke-linejoin="round" stroke-width="1.225"/>
      <path id="Trazado_824886" data-name="Trazado 824886" d="M44.044,196.755l39.783,9.159-15.458-41.8" transform="translate(21.376 79.654)" fill="none" stroke="#898429" stroke-linecap="round" stroke-linejoin="round" stroke-width="1.225"/>
      <path id="Trazado_824887" data-name="Trazado 824887" d="M32.084,236.848c-5.239,3.593-8.928,9.435-8.452,15.96.466,6.38,3.982,12.168,8.221,16.931,3.165-3.222,6.068-7.011,9.231-10.232q-2.44,7.415-4.879,14.831A61.793,61.793,0,0,0,59.333,297.08,40.837,40.837,0,0,0,72,291.932l-6.178,8.2c-.636.863,16.4,9.989,17.581,10.586,4.578,2.316,8.967,5.306,13.879,6.849,17.026,5.35,14.577-13.312,9.961-23.4a117.7,117.7,0,0,0-17.79-27.761,32.794,32.794,0,0,1-1.1,11.125c-.942-6.849-3.569-12.153-4.884-18.94a175.3,175.3,0,0,1-16.729-15.064,97.714,97.714,0,0,1-13.894,4.85,42.951,42.951,0,0,1,11.142-6.963,32.409,32.409,0,0,0-19.5-8.269,20.4,20.4,0,0,0-12.4,3.7" transform="translate(11.45 113.143)" fill="#a8a539"/>
      <path id="Trazado_824888" data-name="Trazado 824888" d="M31.159,241.111s57.321,40.122,81.969,85.75" transform="translate(15.123 117.021)" fill="none" stroke="#211d1d" stroke-linecap="round" stroke-linejoin="round" stroke-width="0.665"/>
      <line id="Línea_1080" data-name="Línea 1080" x2="3.333" y2="30.225" transform="translate(87.617 365.725)" fill="none" stroke="#211d1d" stroke-linecap="round" stroke-linejoin="round" stroke-width="0.665"/>
      <path id="Trazado_824889" data-name="Trazado 824889" d="M34.59,276.111l35.067-2.663L66.265,243.9" transform="translate(16.788 118.376)" fill="none" stroke="#211d1d" stroke-linecap="round" stroke-linejoin="round" stroke-width="0.665"/>
      <path id="Trazado_824890" data-name="Trazado 824890" d="M205.2,226.813c9.291,4.4,16.677,12.792,17.585,23.338.887,10.313-3.251,20.461-8.807,29.156-5.879-4.337-11.486-9.65-17.365-13.989q5.793,11.225,11.587,22.448a96.848,96.848,0,0,1-5.583,12.006,99.731,99.731,0,0,1-25.551,30.246c-7.248-.639-14.929-1.941-21.551-4.988l11.964,11.516c1.236,1.216-23.645,20.152-25.382,21.41-6.721,4.869-12.972,10.77-20.425,14.492-25.833,12.9-26.693-17.54-21.9-34.836A190.508,190.508,0,0,1,121.1,288.706a53.085,53.085,0,0,0,4.6,17.5c-.247-11.185,2.595-20.33,2.959-31.51a283.6,283.6,0,0,0,22.877-28.346,158.093,158.093,0,0,0,23.44,4.195,69.482,69.482,0,0,0-19.583-8.275c6.647-8.813,18.316-15.89,29.037-18.2a32.991,32.991,0,0,1,20.765,2.746" transform="translate(47.32 108.44)" fill="#a8a539"/>
      <path id="Trazado_824891" data-name="Trazado 824891" d="M204.078,234.938S122.754,313.7,95.042,392.907" transform="translate(46.128 114.025)" fill="none" stroke="#211d1d" stroke-linecap="round" stroke-linejoin="round" stroke-width="0.641"/>
      <line id="Línea_1081" data-name="Línea 1081" x2="2.136" y2="48.076" transform="translate(192.515 364.989)" fill="none" stroke="#211d1d" stroke-linecap="round" stroke-linejoin="round" stroke-width="0.641"/>
      <line id="Línea_1082" data-name="Línea 1082" x2="2.403" y2="49.144" transform="translate(186.105 371.666)" fill="none" stroke="#211d1d" stroke-linecap="round" stroke-linejoin="round" stroke-width="0.641"/>
      <line id="Línea_1083" data-name="Línea 1083" y1="3.649" x2="53.674" transform="translate(196.258 408.212)" fill="none" stroke="#211d1d" stroke-linecap="round" stroke-linejoin="round" stroke-width="0.749"/>
      <line id="Línea_1084" data-name="Línea 1084" x1="0.774" y1="45.924" transform="translate(143.498 479.069)" fill="none" stroke="#e5bda8" stroke-linecap="round" stroke-linejoin="round" stroke-width="2.205"/>
      <line id="Línea_1085" data-name="Línea 1085" x1="4.912" y1="30.567" transform="translate(161.193 417.463)" fill="none" stroke="#e5bda8" stroke-linecap="round" stroke-linejoin="round" stroke-width="2.205"/>
      <path id="Trazado_824892" data-name="Trazado 824892" d="M259.728,87.53c.01,1.282-1.583-.472-2.926-.634l5.074-6.078,2.994-21.967C49.907,93.982,30.794,60.018,30.794,60.018l1.785,6.23c-.331-.111-.668-.215-1-.328-1.41-.48-3.517,2.06-3.505.587A309.2,309.2,0,0,1,2.883,134.964c4.318-.012,8.753,0,12.78,1.54s7.6,4.988,7.963,9.237c.417,4.957-3.482,9.4-3.6,14.371-.152,6.454,6.368,11.51,12.866,12.208s12.863-1.785,18.916-4.221c1.983,9.768,10.008,17.514,18.3,23.185s18.091,8.841,27.96,10.905c13.068,2.733,27.051,3.572,39.471-1.283V180.042l12.715.911V221.93c12.42,4.856,26.4,4.016,39.473,1.283,9.869-2.065,19.666-5.236,27.96-10.905s16.319-13.417,18.3-23.185c6.051,2.436,12.419,4.918,18.916,4.221s13.018-5.754,12.866-12.208c-.116-4.971-4.015-9.414-3.6-14.371.358-4.25,3.938-7.7,7.963-9.237s8.462-1.552,12.778-1.54A309.27,309.27,0,0,1,259.728,87.53" transform="translate(1.399 28.563)" fill="#ffb000"/>
      <path id="Trazado_824893" data-name="Trazado 824893" d="M256.8,77.79l.148-.178a54.122,54.122,0,0,0-10.882,2.908c-.07.027-.14.056-.208.083a75.5,75.5,0,0,1-13.373,5.367c-7.078,2.016-14.068,2.06-21.37,1.84a42.071,42.071,0,0,0-9.644.683c-1.542.313-3.44.726-4.364,2.127-1.5,2.267-.639,6.252-.685,8.79-.068,3.756-.792,7.428-3.318,10.365-5.032,5.851-14.106,6.486-21.312,6.8-11.216.487-22.4.946-33.6,1.661-12.986.829-26.3,1.4-39.1-1.387a81.146,81.146,0,0,1-15.153-4.79c-2.215-.974-3.993-2.28-4.189-4.817-.269-3.5,1.127-7.308,2.148-10.59,1.414-4.557-4.936-7.514-8.345-9.338-10.044-5.371-21.939-6.971-33.177-7.733-6.1-.414-12.208-.505-18.317-.506A309.4,309.4,0,0,1,2.883,125.859c4.318-.012,8.753,0,12.78,1.54s7.6,4.988,7.963,9.237c.417,4.957-3.482,9.4-3.6,14.371-.152,6.454,6.369,11.51,12.866,12.208s12.865-1.785,18.916-4.221c1.983,9.768,10.01,17.514,18.3,23.185s18.091,8.841,27.96,10.905c13.068,2.733,27.051,3.572,39.473-1.283V170.936l12.713.91v40.978c12.422,4.856,26.4,4.016,39.473,1.283,9.869-2.065,19.666-5.236,27.96-10.905s16.319-13.417,18.3-23.185c6.053,2.436,12.419,4.918,18.916,4.221s13.018-5.754,12.866-12.208c-.116-4.971-4.015-9.414-3.6-14.371.358-4.25,3.938-7.7,7.963-9.237s8.462-1.552,12.78-1.54a309.2,309.2,0,0,1-25.193-68.458c.01,1.282-1.583-.472-2.926-.634" transform="translate(1.399 37.668)" fill="#1c508c"/>
      <path id="Trazado_824894" data-name="Trazado 824894" d="M247.529,120.939c-8.949,1.644-20.135,1.427-27.385,7.681-4.654,4.015-2.111,8.682.6,12.973,2.24,3.55,4.985,7.611,4,12.01-.967,4.309-4.915,7.137-8.81,8.743-11.363,4.683-25.359,3.412-37.272,2.127-11.718-1.264-23.979-2.987-35.154-6.839-9.54-3.287-18.354-8.248-27.69-12.021-10.194-4.119-20.45-5.047-31.372-4.862-7.731.132-15.534.346-23.2-.861-5.013-.79-11.529-2.726-12.719-8.385-1.249-5.935,4.915-9.223,8.772-12.4,3.9-3.217,5.309-7.661,1.662-11.615-3.18-3.45-8.106-5.273-12.483-6.683a115.807,115.807,0,0,0-16.685-3.819c-5.511-.909-11.045-1.472-16.585-2.026Q8.5,106.4,2.883,117.44c4.318-.01,8.753,0,12.778,1.54s7.606,4.988,7.964,9.237c.416,4.957-3.482,9.4-3.6,14.372-.15,6.452,6.369,11.508,12.866,12.207s12.865-1.785,18.917-4.221c1.983,9.769,10.008,17.514,18.3,23.185S88.2,182.6,98.071,184.665c13.068,2.733,27.053,3.572,39.473-1.282V162.518l12.715.909v40.979c12.42,4.854,26.4,4.015,39.473,1.282,9.867-2.065,19.665-5.236,27.959-10.905s16.319-13.416,18.3-23.185c6.053,2.436,12.42,4.919,18.917,4.221s13.016-5.754,12.866-12.207c-.117-4.973-4.016-9.416-3.6-14.372.358-4.25,3.939-7.7,7.964-9.237s8.461-1.551,12.778-1.54q-6.807-13.373-12.282-27.354a76.2,76.2,0,0,1-25.108,9.83" transform="translate(1.399 46.088)" fill="#ff4d1d"/>
      <path id="Trazado_824895" data-name="Trazado 824895" d="M89.91,326.215a49.285,49.285,0,0,1-.738,13.692c-1.058,5.39-3.011,10.57-4.122,15.95-1.506,7.292-.665,15.764,4.914,21.208,5.239,5.113,15.92,8.1,19.706-.205,3.118-6.836.924-16.425-1.53-23.155-1.147-3.144-2.559-6.289-2.634-9.635a51.882,51.882,0,0,1,.67-6.354,23.889,23.889,0,0,0-3.636-15.185Z" transform="translate(40.958 156.538)" fill="#822d1e"/>
      <path id="Trazado_824896" data-name="Trazado 824896" d="M104.031,350.547c-6.736-.94-13.243.481-19.333,3.136a18.51,18.51,0,0,0,5.117,9.925c5.239,5.113,15.92,8.1,19.706-.205a21.829,21.829,0,0,0,1.371-11.159,35.674,35.674,0,0,0-6.861-1.7" transform="translate(41.108 169.995)" fill="#e5bda8"/>
      <path id="Trazado_824897" data-name="Trazado 824897" d="M109.291,284.277a9.591,9.591,0,0,0-2.947,9.506c.633,2.387,2.2,4.5,2.5,6.947.291,2.326-.588,4.615-1.156,6.889-1.065,4.258-.964,9.058,1.5,12.688s7.756,5.484,11.488,3.173a7.084,7.084,0,0,0,2.411-2.506c2.072-3.65.559-8.177-.573-12.218a59.812,59.812,0,0,1-1.442-25.616Z" transform="translate(51.47 137.42)" fill="#822d1e"/>
      <path id="Trazado_824898" data-name="Trazado 824898" d="M122.126,300.24a28.761,28.761,0,0,0-15.385,5.031,13.109,13.109,0,0,0,2.118,6.738c2.466,3.63,7.756,5.482,11.486,3.171a7.063,7.063,0,0,0,2.412-2.506c2.072-3.649.559-8.177-.573-12.218-.021-.071-.037-.144-.058-.215" transform="translate(51.806 145.719)" fill="#e5bda8"/>
      <path id="Trazado_824899" data-name="Trazado 824899" d="M84.689,179.533c-7.146,9.7-11.127,23.465-11.229,40.835s4.233,60.434,8.248,71.143c-2.677,6.693-2.359,41.229,2.008,62.249,3.881,18.681,7.737,29.533,11.835,42.055a7.187,7.187,0,0,0,6.623,4.945l3.771.11a6.727,6.727,0,0,0,6.919-6.623l-1.035-204.474c-2.458.146-1.331-1.842-3.593-2.815-7.4-3.185-16.149-4.241-23.547-7.425" transform="translate(35.652 87.135)" fill="#e5bda8"/>
      <path id="Trazado_824900" data-name="Trazado 824900" d="M87.835,187.221c.818,7.1,1.7,14.391,5.071,20.691s6.148,9.211,13.283,8.841c2.815,18.216,9.084,38.442,13.747,56.275-8.279,11.647-7.519,37.463-5.537,57.772a5.88,5.88,0,0,0,6.045,5.309l4.59-.149a7.287,7.287,0,0,0,6.617-4.795c4.392-12.08,16.248-44.1,19.733-53.5a17.867,17.867,0,0,0,1.1-5.572c.483-13.546-4.9-70.2-23.008-91.606Z" transform="translate(42.63 87.599)" fill="#e5bda8"/>
      <rect id="Rectángulo_378550" data-name="Rectángulo 378550" width="69.621" height="25.695" transform="translate(111.566 255.898)" fill="#2d1a14"/>
      <path id="Trazado_824901" data-name="Trazado 824901" d="M78.865,218.6c.1.523.192,4.034.34,7.8h71.607c-.165-5.834-.61-12.3-.364-16.06a120.978,120.978,0,0,1,1.762-15.009c.943-4.884,2.341-10.519,3.67-15.309,3.338-12.037,15.93-29.05,13.57-41.3-1.9-9.873-12.718-20.08-28.308-22.467-4.453-.682-8.958-.642-13.352-.964-7.052-.518-14.084-1.315-21.157-1.524-14.859-.44-33.795,2.063-40.883,17.076-6.271,13.283,3.419,30.473,6.645,44.024,3.346,14.056,3.5,27.815,6.469,43.739" transform="translate(30.908 55.192)" fill="#f4d0b8"/>
      <path id="Trazado_824902" data-name="Trazado 824902" d="M109.609,101.7c-.217,7.938,3.491,17.272,5.206,20.279l-2.937,1.781c-.8.483-1.6.967-2.436,1.372a14.65,14.65,0,0,1-9.964.98,15.412,15.412,0,0,1-8.337-5.961c1.947-2.038,3.789-5.732,4.985-18.126Z" transform="translate(44.235 49.36)" fill="#822d1e"/>
      <path id="Trazado_824903" data-name="Trazado 824903" d="M98.212,114.883a24.16,24.16,0,0,0,10.8-9.962,27.982,27.982,0,0,1-.108-3.219l-13.482.327c-.735,7.617-1.714,11.948-2.812,14.628a26.684,26.684,0,0,0,5.607-1.773" transform="translate(44.945 49.36)" fill="#2d1a14"/>
      <path id="Trazado_824904" data-name="Trazado 824904" d="M97.833,89.682a5.855,5.855,0,0,1,4.227,6.653c-.429,2.834-2.461,5.315-4.755,7.324-1.153-3.455-1.967-6.5-3.119-9.952-.432-1.3-.728-3,.505-3.825a5.217,5.217,0,0,1,3.141-.2" transform="translate(45.531 43.457)" fill="#2d201b"/>
      <path id="Trazado_824905" data-name="Trazado 824905" d="M112.6,108.213c0,.169,0,.339-.01.506,0,.107-.009.218-.024.324,0,.058,0,.116-.009.169s0,.067-.01.1c-.009.111-.024.212-.034.319l-.013.092c-.025.154-.049.3-.073.449s-.068.318-.1.472c-.01.058-.03.111-.045.169a.54.54,0,0,1-.024.1c-.033.131-.073.266-.111.4-.1.318-.212.622-.337.931-.03.068-.068.146-.1.217a10.149,10.149,0,0,1-1.062,1.83c-.092.126-.184.242-.276.362-.048.062-.1.126-.159.189a3.949,3.949,0,0,1-.26.3c-.227.241-.465.478-.706.7,0,.006-.009.01-.015.01-.105.1-.221.2-.333.29a9.49,9.49,0,0,1-.864.633c-.221.15-.459.284-.7.414a9.034,9.034,0,0,1-1.309.594.115.115,0,0,0-.024.01c-.088.028-.178.062-.27.091l-.212.073c-.039.01-.077.019-.122.034a.683.683,0,0,1-.105.028c-.116.034-.232.064-.352.092a9.549,9.549,0,0,1-2.158.266c-.16,0-.324,0-.489,0a9.773,9.773,0,0,1-4.943-1.6,10.264,10.264,0,0,1-3.4-3.767,10.142,10.142,0,0,1-1.159-4.621l-.019-2.38-.006-.358v-.266l0-.284,0-.541c0-.16,0-.319,0-.478l-.043-4.906V99L92.7,96.808l-.025-3.023c0-.165,0-.333.01-.5,0-.082,0-.163.009-.247.006-.058.01-.125.015-.187s.01-.131.015-.195a.137.137,0,0,0,0-.043c0-.043.01-.082.015-.12s.009-.1.015-.14a.609.609,0,0,0,.018-.088,1.47,1.47,0,0,1,.03-.2.846.846,0,0,1,.03-.174q.007-.058.013-.1c.03-.135.058-.27.088-.406.019-.073.039-.144.053-.217s.033-.14.058-.208a1.822,1.822,0,0,0,.052-.2l.006-.006c.024-.067.043-.129.062-.2s.043-.131.067-.2.045-.131.068-.193a9.787,9.787,0,0,1,.56-1.236c.088-.165.178-.328.275-.483a1.446,1.446,0,0,1,.111-.184c.1-.163.212-.324.319-.483a.276.276,0,0,0,.052-.062,3.581,3.581,0,0,1,.266-.348c.058-.068.111-.141.169-.208,0,0,.009-.015.015-.019A9.763,9.763,0,0,1,111.1,88.62a9.024,9.024,0,0,1,.662,1.356,10.173,10.173,0,0,1,.7,3.632l.043,4.833.01,1.124.058,5.91.009,1.124Z" transform="translate(44.978 40.583)" fill="#822d1e"/>
      <path id="Trazado_824906" data-name="Trazado 824906" d="M96.239,97.43a3.9,3.9,0,0,1-1.246,2.9c-.082.077-.163.149-.251.217a.216.216,0,0,0-.043.034,2.188,2.188,0,0,1-.193.129,3.685,3.685,0,0,1-2.047.633,3.881,3.881,0,0,1-.068-7.759,3.741,3.741,0,0,1,1.488.29,3.8,3.8,0,0,1,.805.463,3.9,3.9,0,0,1,1.555,3.091" transform="translate(43.009 45.421)" fill="#822d1e"/>
      <path id="Trazado_824907" data-name="Trazado 824907" d="M104.572,98.014a3.812,3.812,0,1,0,3.777-3.915,3.845,3.845,0,0,0-3.777,3.915" transform="translate(50.753 45.67)" fill="#822d1e"/>
      <line id="Línea_1086" data-name="Línea 1086" x1="70.907" transform="translate(110.133 274.811)" fill="none" stroke="#472a1c" stroke-linecap="round" stroke-linejoin="round" stroke-width="0.354"/>
      <path id="Trazado_824908" data-name="Trazado 824908" d="M99.259,96.924l-.039,1.7,1.285.1-1.139,1.444" transform="translate(48.156 47.041)" fill="none" stroke="#472a1c" stroke-linecap="round" stroke-linejoin="round" stroke-width="0.232"/>
      <path id="Trazado_824909" data-name="Trazado 824909" d="M92.786,98.33c.016-.147.235-.14.371-.082a6.624,6.624,0,0,1,3.725,4.088,8.143,8.143,0,0,1,5.821-2.684,7.744,7.744,0,0,1,5.69,2.57.859.859,0,0,0,.129-.474,4.889,4.889,0,0,1,4.12-3.933c.255,1.574.676,3.011.93,4.587a18.411,18.411,0,0,1,.3,2.613,9.485,9.485,0,0,1-6.311,8.912c-4.487,1.491-9.861.759-13.056-2.726s-2.215-8.169-1.716-12.87" transform="translate(44.77 47.474)" fill="#2d1a14"/>
      <path id="Trazado_824910" data-name="Trazado 824910" d="M102.39,101.35c0,.769-1,1.393-2.241,1.393s-2.24-.624-2.24-1.393,1-1.393,2.24-1.393,2.241.624,2.241,1.393" transform="translate(47.519 48.513)" fill="#822d1e"/>
      <path id="Trazado_824911" data-name="Trazado 824911" d="M198.006,66.254a4.974,4.974,0,0,0-6.794,1.82l-26.5,45.908-29.359,16.554V167.8c.015-.013.031-.024.046-.036l44-35.941,1.672-1.365a7.241,7.241,0,0,0,2.357-3.507l16.851-54.934a4.979,4.979,0,0,0-2.268-5.765" transform="translate(65.69 31.832)" fill="#782b1e"/>
      <path id="Trazado_824912" data-name="Trazado 824912" d="M149.987,107.061,125.73,120.74a17.592,17.592,0,0,0-2.313,1.579A16.346,16.346,0,0,0,144.1,147.636l8.258-6.745a319.378,319.378,0,0,0-2.371-33.83" transform="translate(56.985 51.961)" fill="#f4d0b8"/>
      <path id="Trazado_824913" data-name="Trazado 824913" d="M172.9,65.1a4.084,4.084,0,0,1,1.91-3.9,10.525,10.525,0,0,1,1.037-.576l6.524-3.092a2.5,2.5,0,0,1,1.126-.261c1.469.042,1.634,1.346,1.175,2.192a4.623,4.623,0,0,1-1.315,1.344,37.964,37.964,0,0,1,2.534,9.548,3.183,3.183,0,0,1-.59,2.258,77.335,77.335,0,0,1-5.925,7.161,2.971,2.971,0,0,1-5.111-1.736c-.431-4.073-1-9.441-1.365-12.931" transform="translate(83.903 27.794)" fill="#782b1e"/>
      <path id="Trazado_824914" data-name="Trazado 824914" d="M172.9,65.1a4.084,4.084,0,0,1,1.91-3.9,10.525,10.525,0,0,1,1.037-.576l6.524-3.092a2.5,2.5,0,0,1,1.126-.261c1.469.042,1.634,1.346,1.175,2.192a4.623,4.623,0,0,1-1.315,1.344,37.964,37.964,0,0,1,2.534,9.548,3.183,3.183,0,0,1-.59,2.258,77.335,77.335,0,0,1-5.925,7.161,2.971,2.971,0,0,1-5.111-1.736C173.831,73.961,173.263,68.593,172.9,65.1Z" transform="translate(83.903 27.794)" fill="none" stroke="#782b1e" stroke-linecap="round" stroke-linejoin="round" stroke-width="0.24"/>
      <path id="Trazado_824915" data-name="Trazado 824915" d="M82.425,129.435,55.249,114.111,28.745,68.2a4.974,4.974,0,0,0-9.062,3.945l16.851,54.932a7.223,7.223,0,0,0,2.354,3.5l1.675,1.368,41.861,34.2Z" transform="translate(9.446 31.895)" fill="#782b1e"/>
      <path id="Trazado_824916" data-name="Trazado 824916" d="M84.436,120.641,61.418,107.662C59.793,118.59,58.159,129.6,57.574,140.6l8.493,6.938a17.6,17.6,0,0,0,2.311,1.579,16.346,16.346,0,1,0,16.058-28.475" transform="translate(27.943 52.253)" fill="#f4d0b8"/>
      <path id="Trazado_824917" data-name="Trazado 824917" d="M30.033,65.232a4.084,4.084,0,0,0-1.91-3.9,10.668,10.668,0,0,0-1.035-.576l-6.525-3.092a2.5,2.5,0,0,0-1.126-.261c-1.469.042-1.634,1.346-1.175,2.192a4.623,4.623,0,0,0,1.315,1.344,37.915,37.915,0,0,0-2.534,9.549,3.181,3.181,0,0,0,.59,2.256A77.349,77.349,0,0,0,23.557,79.9a2.971,2.971,0,0,0,5.111-1.735c.431-4.074,1-9.442,1.365-12.933" transform="translate(8.26 27.857)" fill="#782b1e"/>
      <path id="Trazado_824918" data-name="Trazado 824918" d="M30.033,65.232a4.084,4.084,0,0,0-1.91-3.9,10.668,10.668,0,0,0-1.035-.576l-6.525-3.092a2.5,2.5,0,0,0-1.126-.261c-1.469.042-1.634,1.346-1.175,2.192a4.623,4.623,0,0,0,1.315,1.344,37.915,37.915,0,0,0-2.534,9.549,3.181,3.181,0,0,0,.59,2.256A77.349,77.349,0,0,0,23.557,79.9a2.971,2.971,0,0,0,5.111-1.735C29.1,74.091,29.667,68.723,30.033,65.232Z" transform="translate(8.26 27.857)" fill="none" stroke="#782b1e" stroke-linecap="round" stroke-linejoin="round" stroke-width="0.24"/>
      <path id="Trazado_824919" data-name="Trazado 824919" d="M98.351,100.053a1.513,1.513,0,0,0,2.994,0Z" transform="translate(47.734 48.56)" fill="#fff"/>
      <path id="Trazado_824920" data-name="Trazado 824920" d="M94.9,96.894c-.018.391.7.749,1.735.915a7.82,7.82,0,0,0,.977.094,7.46,7.46,0,0,0,1.144-.043c.958-.111,1.635-.407,1.652-.777.015-.345-.544-.662-1.384-.848a7.429,7.429,0,0,0-1.328-.159,7.632,7.632,0,0,0-1.219.051c-.918.119-1.56.408-1.576.768" transform="translate(46.059 46.627)" fill="#fff"/>
      <path id="Trazado_824921" data-name="Trazado 824921" d="M95.764,96.8a1.194,1.194,0,0,0,.452,1.01,8.139,8.139,0,0,0,.979.094,7.839,7.839,0,0,0,1.142-.043A1.206,1.206,0,0,0,98.83,97a1.135,1.135,0,0,0-.226-.766,7.405,7.405,0,0,0-1.328-.16,7.6,7.6,0,0,0-1.218.052,1.164,1.164,0,0,0-.294.673" transform="translate(46.477 46.627)" fill="#2d1a14"/>
      <path id="Trazado_824922" data-name="Trazado 824922" d="M99.868,96.92c-.018.391.7.749,1.735.915a7.821,7.821,0,0,0,.977.094,7.462,7.462,0,0,0,1.144-.043c.958-.111,1.635-.407,1.652-.777.015-.343-.544-.662-1.384-.847a7.288,7.288,0,0,0-1.328-.16,7.8,7.8,0,0,0-1.219.051c-.918.119-1.56.408-1.576.768" transform="translate(48.47 46.64)" fill="#fff"/>
      <path id="Trazado_824923" data-name="Trazado 824923" d="M100.733,96.825a1.194,1.194,0,0,0,.452,1.01,8.139,8.139,0,0,0,.979.094,7.836,7.836,0,0,0,1.142-.043,1.206,1.206,0,0,0,.493-.859,1.135,1.135,0,0,0-.226-.766,7.4,7.4,0,0,0-1.328-.16,7.6,7.6,0,0,0-1.218.052,1.165,1.165,0,0,0-.294.673" transform="translate(48.888 46.639)" fill="#2d1a14"/>
      <path id="Trazado_824924" data-name="Trazado 824924" d="M112.756,98.44c0,.382-.015.763-.024,1.144-.034,1.705-.073,3.415-.107,5.114a4.734,4.734,0,0,1-1.993-2.139,9.357,9.357,0,0,1-.821-4.462c.107-2.521.768-5.065.275-7.541-.154-.778-.55-1.647-1.322-1.793s-1.488.551-1.8,1.285a14.6,14.6,0,0,1-.839,2.235,3.312,3.312,0,0,1-3.887,1.058,6.323,6.323,0,0,1-3.1-2.931c-.3-.512-.609-1.1-1.173-1.289-.753-.251-1.53.348-1.974,1a6.667,6.667,0,0,0-1.019,3.158,13.912,13.912,0,0,0-.019,2.066c.033.508.082,1.01.125,1.517a18.069,18.069,0,0,1,.1,3.892,9.263,9.263,0,0,1-1.8,4.462c-.116.15-.232.294-.358.434-.019.03-.043.053-.067.083.009-.107.019-.208.024-.313s.015-.214.019-.319c.01-.178.015-.362.015-.541,0-.159,0-.319,0-.478a24.311,24.311,0,0,0-.85-5.37,3.679,3.679,0,0,1,.805.463V99l-.019-2.192-.024-3.023c0-.163,0-.333.01-.5,0-.082,0-.163.009-.245,0-.058.01-.126.015-.189s.009-.131.015-.193a.147.147,0,0,0,0-.043c0-.045.009-.083.015-.122s.009-.1.013-.14a.464.464,0,0,0,.019-.088,1.471,1.471,0,0,1,.03-.2,1.011,1.011,0,0,1,.028-.174l.015-.1c.03-.135.058-.27.088-.406.019-.073.039-.146.052-.218s.034-.14.058-.206.039-.131.053-.2l0,0c.025-.068.045-.131.064-.2s.043-.131.067-.2.043-.131.068-.193a9.879,9.879,0,0,1,.56-1.236c.086-.165.178-.328.275-.483a1.56,1.56,0,0,1,.111-.184c.1-.163.212-.322.319-.483a.323.323,0,0,0,.052-.062,3.708,3.708,0,0,1,.266-.348c.058-.067.111-.14.169-.208l.013-.019a9.764,9.764,0,0,1,16.036,1.478,9.016,9.016,0,0,1,.661,1.356,10.18,10.18,0,0,1,.7,3.632Z" transform="translate(44.729 40.582)" fill="#2d1a14"/>
      <path id="Trazado_824925" data-name="Trazado 824925" d="M78.693,278.183h-.006a16.1,16.1,0,0,1-16.1-16.1v-88.7H94.792v88.7a16.1,16.1,0,0,1-16.1,16.1" transform="translate(30.376 84.15)" fill="#cca593"/>
      <path id="Trazado_824926" data-name="Trazado 824926" d="M132.728,115.423s-23.24,59.6-51.709,95.224" transform="translate(39.322 56.02)" fill="none" stroke="#cca593" stroke-linecap="round" stroke-linejoin="round" stroke-width="5.88"/>
      <line id="Línea_1087" data-name="Línea 1087" x2="33.114" transform="translate(92.599 286.644)" fill="none" stroke="#2d1a14" stroke-miterlimit="10" stroke-width="4.41"/>
      <line id="Línea_1088" data-name="Línea 1088" x2="32.204" transform="translate(93.054 296.106)" fill="none" stroke="#2d1a14" stroke-miterlimit="10" stroke-width="4.41"/>
      <line id="Línea_1089" data-name="Línea 1089" x2="32.022" transform="translate(93.145 338.681)" fill="none" stroke="#2d1a14" stroke-miterlimit="10" stroke-width="4.41"/>
      <path id="Trazado_824927" data-name="Trazado 824927" d="M62.954,217.977l7.733-15.057,7.731,15.464-7.731,17.3Z" transform="translate(30.555 98.486)" fill="#2d1a14"/>
      <path id="Trazado_824928" data-name="Trazado 824928" d="M73.365,218.251,81.1,203.194l7.733,15.464-7.733,17.3Z" transform="translate(35.607 98.619)" fill="#2d1a14"/>
      <path id="Trazado_824929" data-name="Trazado 824929" d="M99.063,208.261a20.023,20.023,0,0,0,12.862-10.351" transform="translate(48.08 96.054)" fill="none" stroke="#472a1c" stroke-linecap="round" stroke-linejoin="round" stroke-width="0.354"/>
      <path id="Trazado_824930" data-name="Trazado 824930" d="M55.52,103.211S32.8,79.263,25.782,62.672c0,0,22.46,21.982,48.3,24.527" transform="translate(12.513 30.417)" fill="none" stroke="#211d1d" stroke-linecap="round" stroke-linejoin="round" stroke-width="0.365"/>
      <path id="Trazado_824931" data-name="Trazado 824931" d="M159.729,101.006s22.724-23.948,29.738-40.539c0,0-22.46,21.982-48.3,24.529" transform="translate(68.516 29.347)" fill="none" stroke="#211d1d" stroke-linecap="round" stroke-linejoin="round" stroke-width="0.365"/>
      <path id="Trazado_824932" data-name="Trazado 824932" d="M38.5,301.345l-.229-.083,0,.027a9.273,9.273,0,0,0-5.82.649c-4.245,1.934-6.255,6.5-4.489,10.191a6.634,6.634,0,0,0,.674,1.11l.018.024a.523.523,0,0,0,.034.046,5.573,5.573,0,0,0,3.191,2.32,6.715,6.715,0,0,0,.309,4.945c1.766,3.7,6.639,5.123,10.886,3.191a9.1,9.1,0,0,0,3.746-3.1,10.182,10.182,0,0,0,1.156,6.014c2.308,4.367,7.069,6.34,10.634,4.409a6.67,6.67,0,0,0,3.183-4.163c-.071.25-.01.128.034.009a6.469,6.469,0,0,0,4.911-.457c3.563-1.932,4.582-7.038,2.274-11.4a10.252,10.252,0,0,0-3.281-3.71,9.073,9.073,0,0,0,5.193-.943c4.162-2.1,6.087-6.8,4.3-10.479a6.741,6.741,0,0,0-3.676-3.329,5.554,5.554,0,0,0,.175-3.936l-.013-.055-.009-.03a6.535,6.535,0,0,0-.447-1.218c-1.79-3.684-6.614-4.965-10.778-2.862a9.242,9.242,0,0,0-4.141,4.131l-.022-.013-.061.18a10.068,10.068,0,0,0-.851-6.194c-2.106-4.466-6.76-6.745-10.4-5.087a6.318,6.318,0,0,0-3.26,3.614c-.122-.036-.254-.062-.013.034a6.538,6.538,0,0,0-5.182.007c-3.636,1.656-4.878,6.622-2.773,11.09a10.313,10.313,0,0,0,4.111,4.56l-.012.024.227.094a8.1,8.1,0,0,0,1.564.651" transform="translate(13.261 136.372)" fill="#ff552b"/>
      <path id="Trazado_824933" data-name="Trazado 824933" d="M40.612,299.95l-.137-.049v.015A5.539,5.539,0,0,0,37,300.3c-2.534,1.154-3.733,3.877-2.68,6.082a3.954,3.954,0,0,0,.4.662l.01.015a.2.2,0,0,1,.021.028,3.326,3.326,0,0,0,1.9,1.384,4.011,4.011,0,0,0,.186,2.951c1.053,2.206,3.963,3.058,6.5,1.9a5.424,5.424,0,0,0,2.237-1.851,6.081,6.081,0,0,0,.689,3.59c1.378,2.607,4.22,3.785,6.347,2.631a3.979,3.979,0,0,0,1.9-2.485c-.042.15-.006.077.022.006a3.86,3.86,0,0,0,2.931-.273c2.127-1.154,2.735-4.2,1.356-6.807a6.106,6.106,0,0,0-1.958-2.215,5.421,5.421,0,0,0,3.1-.563c2.485-1.257,3.633-4.057,2.565-6.256a4.019,4.019,0,0,0-2.194-1.986,3.313,3.313,0,0,0,.1-2.35l-.007-.033,0-.018A3.993,3.993,0,0,0,60.16,294c-1.068-2.2-3.948-2.965-6.433-1.71a5.517,5.517,0,0,0-2.473,2.467l-.013-.009-.036.107a6.006,6.006,0,0,0-.508-3.7c-1.257-2.666-4.036-4.027-6.206-3.038a3.768,3.768,0,0,0-1.946,2.158c-.073-.022-.152-.037-.007.019a3.914,3.914,0,0,0-3.094,0c-2.172.989-2.911,3.954-1.655,6.62a6.155,6.155,0,0,0,2.454,2.723l-.007.013.135.056a4.906,4.906,0,0,0,.934.388" transform="translate(16.471 139.679)" fill="#f96"/>
      <path id="Trazado_824934" data-name="Trazado 824934" d="M20.622,296.643a2.2,2.2,0,1,0,2.2-2.2,2.2,2.2,0,0,0-2.2,2.2" transform="translate(10.009 142.904)" fill="#f0c641"/>
      <path id="Trazado_824935" data-name="Trazado 824935" d="M16.5,301.754a2.2,2.2,0,1,0,2.2-2.2,2.2,2.2,0,0,0-2.2,2.2" transform="translate(8.008 145.384)" fill="#f0c641"/>
      <path id="Trazado_824936" data-name="Trazado 824936" d="M17.984,298.787a2.2,2.2,0,1,0,2.2-2.2,2.2,2.2,0,0,0-2.2,2.2" transform="translate(8.728 143.944)" fill="#f0c641"/>
      <path id="Trazado_824937" data-name="Trazado 824937" d="M23.042,299.269a2.2,2.2,0,1,0,2.2-2.2,2.2,2.2,0,0,0-2.2,2.2" transform="translate(11.183 144.178)" fill="#f0c641"/>
      <path id="Trazado_824938" data-name="Trazado 824938" d="M19.962,300.765a2.2,2.2,0,1,0,2.2-2.2,2.2,2.2,0,0,0-2.2,2.2" transform="translate(9.688 144.904)" fill="#f0c641"/>
      <path id="Trazado_824939" data-name="Trazado 824939" d="M14.027,305.051a2.2,2.2,0,1,0,2.2-2.2,2.2,2.2,0,0,0-2.2,2.2" transform="translate(6.808 146.985)" fill="#f0c641"/>
      <line id="Línea_1090" data-name="Línea 1090" y2="20.639" transform="translate(65.207 431.445)" fill="none" stroke="#211d1d" stroke-linecap="round" stroke-linejoin="round" stroke-width="1.077"/>
      <line id="Línea_1091" data-name="Línea 1091" x2="14.593" y2="14.593" transform="translate(57.91 434.468)" fill="none" stroke="#211d1d" stroke-linecap="round" stroke-linejoin="round" stroke-width="1.077"/>
      <line id="Línea_1092" data-name="Línea 1092" y1="14.593" x2="14.593" transform="translate(57.91 434.468)" fill="none" stroke="#211d1d" stroke-linecap="round" stroke-linejoin="round" stroke-width="1.077"/>
      <line id="Línea_1093" data-name="Línea 1093" x1="20.639" transform="translate(54.888 441.765)" fill="none" stroke="#211d1d" stroke-linecap="round" stroke-linejoin="round" stroke-width="1.077"/>
      <path id="Trazado_824940" data-name="Trazado 824940" d="M55.843,299.133s-23.589-11.081-36.8,3.682" transform="translate(9.243 143.245)" fill="none" stroke="#f0c641" stroke-linecap="round" stroke-linejoin="round" stroke-width="2.282"/>
      <path id="Trazado_824941" data-name="Trazado 824941" d="M18.384,275.519l-.15-.053v.016a6.061,6.061,0,0,0-3.807.425c-2.778,1.266-4.092,4.25-2.937,6.668a4.3,4.3,0,0,0,.44.725l.012.016a.231.231,0,0,0,.024.03,3.631,3.631,0,0,0,2.087,1.518,4.394,4.394,0,0,0,.2,3.235c1.156,2.418,4.345,3.352,7.121,2.088a5.952,5.952,0,0,0,2.452-2.031,6.666,6.666,0,0,0,.756,3.936c1.511,2.856,4.624,4.147,6.956,2.883a4.359,4.359,0,0,0,2.082-2.724c-.046.165-.006.085.024.006a4.232,4.232,0,0,0,3.213-.3c2.331-1.264,3-4.6,1.487-7.461a6.708,6.708,0,0,0-2.146-2.428,5.938,5.938,0,0,0,3.4-.616c2.724-1.377,3.982-4.446,2.812-6.856a4.41,4.41,0,0,0-2.4-2.178,3.635,3.635,0,0,0,.116-2.576l-.009-.036-.006-.019a4.441,4.441,0,0,0-.293-.8c-1.17-2.409-4.328-3.248-7.051-1.871a6.033,6.033,0,0,0-2.709,2.7l-.015-.009-.04.117a6.579,6.579,0,0,0-.557-4.052c-1.377-2.922-4.423-4.413-6.8-3.329a4.129,4.129,0,0,0-2.133,2.365c-.079-.024-.166-.04-.009.022a4.29,4.29,0,0,0-3.391,0c-2.38,1.084-3.191,4.333-1.814,7.256a6.745,6.745,0,0,0,2.69,2.984l-.009.015.15.062a5.379,5.379,0,0,0,1.023.425" transform="translate(5.373 127.254)" fill="#ff552b"/>
      <path id="Trazado_824942" data-name="Trazado 824942" d="M19.763,274.6l-.089-.033v.01a3.612,3.612,0,0,0-2.273.254,3.048,3.048,0,0,0-1.753,3.979,2.551,2.551,0,0,0,.263.434l.007.009.013.018a2.17,2.17,0,0,0,1.246.906,2.621,2.621,0,0,0,.12,1.931,3.188,3.188,0,0,0,4.251,1.246,3.552,3.552,0,0,0,1.463-1.211,3.977,3.977,0,0,0,.452,2.348c.9,1.705,2.76,2.476,4.152,1.722a2.6,2.6,0,0,0,1.243-1.626c-.027.1,0,.05.015,0a2.528,2.528,0,0,0,1.918-.18c1.392-.755,1.788-2.748.887-4.453a4.015,4.015,0,0,0-1.28-1.45,3.537,3.537,0,0,0,2.027-.367,3.179,3.179,0,0,0,1.678-4.094,2.633,2.633,0,0,0-1.435-1.3,2.172,2.172,0,0,0,.068-1.537l-.006-.021,0-.012a2.477,2.477,0,0,0-.175-.475,3.057,3.057,0,0,0-4.208-1.118,3.607,3.607,0,0,0-1.618,1.613l-.009,0-.024.07a3.915,3.915,0,0,0-.333-2.418c-.821-1.745-2.639-2.635-4.059-1.987a2.464,2.464,0,0,0-1.273,1.411c-.048-.013-.1-.024-.006.013a2.563,2.563,0,0,0-2.025,0c-1.42.648-1.9,2.586-1.081,4.331a4.022,4.022,0,0,0,1.606,1.781l-.006.009.089.037a3.318,3.318,0,0,0,.61.254" transform="translate(7.473 129.417)" fill="#f96"/>
      <path id="Trazado_824943" data-name="Trazado 824943" d="M6.685,272.442A1.442,1.442,0,1,0,8.127,271a1.443,1.443,0,0,0-1.442,1.442" transform="translate(3.245 131.528)" fill="#f0c641"/>
      <path id="Trazado_824944" data-name="Trazado 824944" d="M3.988,275.785a1.442,1.442,0,1,0,1.442-1.441,1.442,1.442,0,0,0-1.442,1.441" transform="translate(1.936 133.151)" fill="#f0c641"/>
      <path id="Trazado_824945" data-name="Trazado 824945" d="M4.959,273.844A1.442,1.442,0,1,0,6.4,272.4a1.443,1.443,0,0,0-1.442,1.442" transform="translate(2.407 132.208)" fill="#f0c641"/>
      <path id="Trazado_824946" data-name="Trazado 824946" d="M8.268,274.16a1.442,1.442,0,1,0,1.442-1.442,1.443,1.443,0,0,0-1.442,1.442" transform="translate(4.013 132.362)" fill="#f0c641"/>
      <path id="Trazado_824947" data-name="Trazado 824947" d="M6.253,275.138A1.442,1.442,0,1,0,7.7,273.7a1.443,1.443,0,0,0-1.442,1.442" transform="translate(3.035 132.836)" fill="#f0c641"/>
      <path id="Trazado_824948" data-name="Trazado 824948" d="M2.37,277.943A1.442,1.442,0,1,0,3.812,276.5a1.443,1.443,0,0,0-1.442,1.442" transform="translate(1.15 134.198)" fill="#f0c641"/>
      <line id="Línea_1094" data-name="Línea 1094" y2="13.503" transform="translate(32.551 398.669)" fill="none" stroke="#211d1d" stroke-linecap="round" stroke-linejoin="round" stroke-width="0.705"/>
      <line id="Línea_1095" data-name="Línea 1095" x2="9.548" y2="9.548" transform="translate(27.777 400.646)" fill="none" stroke="#211d1d" stroke-linecap="round" stroke-linejoin="round" stroke-width="0.705"/>
      <line id="Línea_1096" data-name="Línea 1096" y1="9.548" x2="9.548" transform="translate(27.777 400.647)" fill="none" stroke="#211d1d" stroke-linecap="round" stroke-linejoin="round" stroke-width="0.705"/>
      <line id="Línea_1097" data-name="Línea 1097" x1="13.503" transform="translate(25.799 405.42)" fill="none" stroke="#211d1d" stroke-linecap="round" stroke-linejoin="round" stroke-width="0.705"/>
      <path id="Trazado_824949" data-name="Trazado 824949" d="M29.727,274.07S14.3,266.82,5.653,276.48" transform="translate(2.744 131.751)" fill="none" stroke="#f0c641" stroke-linecap="round" stroke-linejoin="round" stroke-width="1.493"/>
    </g>
    <g id="Grupo_1074817" data-name="Grupo 1074817" transform="translate(-31.338 633.018)">
      <g id="Grupo_1074816" data-name="Grupo 1074816" transform="translate(38.667 81)" clip-path="url(#clip-path-2)">
        <path id="Trazado_824950" data-name="Trazado 824950" d="M348.269,135.689c-23.273,12.355-47.01,29.285-58.789,52.855a363.12,363.12,0,0,0,58.789-52.855" transform="translate(-94.521 -44.305)" fill="#006064"/>
        <path id="Trazado_824951" data-name="Trazado 824951" d="M217.906,244.961q4.311-5.286,8.683-10.455,3.53-4.181,7.115-8.281,4.326-4.969,8.723-9.831,3.453-3.83,6.956-7.594,3.782-4.064,7.617-8.066,4.519-4.725,9.128-9.343c16.2-16.31,33.2-31.847,51.262-46.956" transform="translate(-71.151 -47.161)" fill="none" stroke="#231f20" stroke-linecap="round" stroke-linejoin="round" stroke-width="1"/>
        <path id="Trazado_824952" data-name="Trazado 824952" d="M301.036,110.863c-13.788,22.454-25.656,49.085-23.849,75.372a363.168,363.168,0,0,0,23.849-75.372" transform="translate(-90.448 -36.199)" fill="#006064"/>
        <path id="Trazado_824953" data-name="Trazado 824953" d="M275.954,194.079q.445-1.8.912-3.6c5.7-22.26,12.46-44.256,20.349-66.428" transform="translate(-90.105 -40.507)" fill="none" stroke="#231f20" stroke-linecap="round" stroke-linejoin="round" stroke-width="1"/>
        <path id="Trazado_824954" data-name="Trazado 824954" d="M262.607,133.116c-5.773,22.313-8.87,47.627-.618,69.147a317.671,317.671,0,0,0,.618-69.147" transform="translate(-83.899 -43.465)" fill="#006064"/>
        <path id="Trazado_824955" data-name="Trazado 824955" d="M264.232,209.138c-.049-.956-.1-1.911-.141-2.852-.948-20.088-.934-40.241-.015-60.814" transform="translate(-86 -47.5)" fill="none" stroke="#231f20" stroke-linecap="round" stroke-linejoin="round" stroke-width="1"/>
        <path id="Trazado_824956" data-name="Trazado 824956" d="M231.215,168.632c.451,18.141,3.577,37.977,14.475,52.488a250.059,250.059,0,0,0-14.475-52.488" transform="translate(-75.497 -55.062)" fill="#006064"/>
        <path id="Trazado_824957" data-name="Trazado 824957" d="M247.413,227.418c-.367-1.067-.734-2.134-1.091-3.212-5.061-15-9.4-30.241-13.145-46.011" transform="translate(-76.137 -58.184)" fill="none" stroke="#231f20" stroke-linecap="round" stroke-linejoin="round" stroke-width="1"/>
        <path id="Trazado_824958" data-name="Trazado 824958" d="M211.711,202.344c2.858,14.861,8.148,30.749,19.1,41.191a208.585,208.585,0,0,0-19.1-41.191" transform="translate(-69.128 -66.07)" fill="#006064"/>
        <path id="Trazado_824959" data-name="Trazado 824959" d="M232.636,247.612c-.3-.536-.589-1.067-.871-1.6,0-.01-.011-.02-.011-.031-6.212-11.639-11.878-23.587-17.116-36.046" transform="translate(-70.084 -68.549)" fill="none" stroke="#231f20" stroke-linecap="round" stroke-linejoin="round" stroke-width="1"/>
        <path id="Trazado_824960" data-name="Trazado 824960" d="M196.674,225.935c4.347,12.63,10.949,25.855,21.821,33.616a184.142,184.142,0,0,0-21.821-33.616" transform="translate(-64.218 -73.773)" fill="#006064"/>
        <path id="Trazado_824961" data-name="Trazado 824961" d="M220.8,263.167c-.4-.518-.775-1.042-1.16-1.571-6.888-9.4-13.323-19.145-19.466-29.385" transform="translate(-65.36 -75.822)" fill="none" stroke="#231f20" stroke-linecap="round" stroke-linejoin="round" stroke-width="1"/>
        <path id="Trazado_824962" data-name="Trazado 824962" d="M356.44,198.82c-23.071,12.728-50.225,23.344-76.4,20.316a363.125,363.125,0,0,1,76.4-20.316" transform="translate(-91.439 -64.919)" fill="#006064"/>
        <path id="Trazado_824963" data-name="Trazado 824963" d="M345.67,203.365c-22.516,6.849-44.8,12.579-67.3,17.236q-1.815.385-3.635.744" transform="translate(-89.706 -66.403)" fill="none" stroke="#231f20" stroke-linecap="round" stroke-linejoin="round" stroke-width="1"/>
        <path id="Trazado_824964" data-name="Trazado 824964" d="M336.347,244.74c-22.558,4.728-47.988,6.644-69.1-2.6a317.672,317.672,0,0,1,69.1,2.6" transform="translate(-87.262 -78.798)" fill="#006064"/>
        <path id="Trazado_824965" data-name="Trazado 824965" d="M326.631,245.245c-20.593-.04-40.725-.964-60.747-2.845-.938-.088-1.89-.18-2.843-.273" transform="translate(-85.888 -79.06)" fill="none" stroke="#231f20" stroke-linecap="round" stroke-linejoin="round" stroke-width="1"/>
        <path id="Trazado_824966" data-name="Trazado 824966" d="M307.93,273.123c-18.1-1.294-37.77-5.341-51.758-16.9a250.1,250.1,0,0,1,51.758,16.9" transform="translate(-83.646 -83.662)" fill="#006064"/>
        <path id="Trazado_824967" data-name="Trazado 824967" d="M300.045,270.907c-15.579-4.47-30.6-9.518-45.349-15.272-1.059-.407-2.109-.823-3.158-1.239" transform="translate(-82.133 -83.066)" fill="none" stroke="#231f20" stroke-linecap="round" stroke-linejoin="round" stroke-width="1"/>
        <path id="Trazado_824968" data-name="Trazado 824968" d="M280.84,291.893c-14.712-3.546-30.336-9.57-40.257-21a208.586,208.586,0,0,1,40.257,21" transform="translate(-78.555 -88.453)" fill="#006064"/>
        <path id="Trazado_824969" data-name="Trazado 824969" d="M275.069,289.23c-12.2-5.813-23.873-12.028-35.211-18.775-.01,0-.02-.012-.03-.013-.517-.306-1.034-.622-1.556-.944" transform="translate(-77.801 -87.997)" fill="none" stroke="#231f20" stroke-linecap="round" stroke-linejoin="round" stroke-width="1"/>
        <path id="Trazado_824970" data-name="Trazado 824970" d="M263.512,306.2c-12.414-4.931-25.317-12.14-32.564-23.361A184.09,184.09,0,0,1,263.512,306.2" transform="translate(-75.409 -92.352)" fill="#006064"/>
        <path id="Trazado_824971" data-name="Trazado 824971" d="M258.667,303.051c-9.943-6.612-19.373-13.494-28.446-20.812-.51-.41-1.016-.814-1.515-1.232" transform="translate(-74.677 -91.755)" fill="none" stroke="#231f20" stroke-linecap="round" stroke-linejoin="round" stroke-width="1"/>
        <path id="Trazado_824972" data-name="Trazado 824972" d="M38.423,100.8C46.365,127.147,58.9,154.9,80.66,171.74A379.3,379.3,0,0,0,38.423,100.8" transform="translate(-12.546 -32.913)" fill="#006064"/>
        <path id="Trazado_824973" data-name="Trazado 824973" d="M127.954,236.29Q123.412,230.8,119,225.276q-3.568-4.465-7.043-8.969-4.214-5.44-8.3-10.929-3.225-4.316-6.371-8.666-3.4-4.7-6.72-9.438-3.926-5.588-7.723-11.246c-13.426-19.905-25.9-40.474-37.718-62.036" transform="translate(-14.734 -37.221)" fill="none" stroke="#231f20" stroke-linecap="round" stroke-linejoin="round" stroke-width="1"/>
        <path id="Trazado_824974" data-name="Trazado 824974" d="M0,161.422c20.21,18.677,45.089,36.233,72.388,39.71A379.28,379.28,0,0,0,0,161.422" transform="translate(0 -52.708)" fill="#006064"/>
        <path id="Trazado_824975" data-name="Trazado 824975" d="M79.9,205.362q-1.757-.822-3.5-1.663c-21.651-10.35-42.816-21.734-63.934-34.311" transform="translate(-4.071 -55.308)" fill="none" stroke="#231f20" stroke-linecap="round" stroke-linejoin="round" stroke-width="1"/>
        <path id="Trazado_824976" data-name="Trazado 824976" d="M13.2,214.431c21.69,10.437,47,18.74,70.718,14.648A331.766,331.766,0,0,0,13.2,214.431" transform="translate(-4.312 -70.016)" fill="#006064"/>
        <path id="Trazado_824977" data-name="Trazado 824977" d="M90.933,230.64c-.989-.143-1.978-.288-2.951-.434-20.773-3.1-41.418-7.2-62.309-12.309" transform="translate(-8.383 -71.148)" fill="none" stroke="#231f20" stroke-linecap="round" stroke-linejoin="round" stroke-width="1"/>
        <path id="Trazado_824978" data-name="Trazado 824978" d="M42.675,254.486c18.678,3.215,39.634,4.032,56.709-4.192a261.221,261.221,0,0,0-56.709,4.192" transform="translate(-13.934 -81.671)" fill="#006064"/>
        <path id="Trazado_824979" data-name="Trazado 824979" d="M106.185,249.685c-1.168.16-2.335.319-3.512.467-16.392,2.146-32.889,3.507-49.8,4.143" transform="translate(-17.263 -81.527)" fill="none" stroke="#231f20" stroke-linecap="round" stroke-linejoin="round" stroke-width="1"/>
        <path id="Trazado_824980" data-name="Trazado 824980" d="M73.261,277.975c15.8.084,33.155-2.116,46.073-11.222a217.852,217.852,0,0,0-46.073,11.222" transform="translate(-23.921 -87.101)" fill="#006064"/>
        <path id="Trazado_824981" data-name="Trazado 824981" d="M123.881,265.914c-.61.2-1.212.388-1.814.568-.011,0-.024.007-.034.005-13.184,4.005-26.573,7.389-40.4,10.231" transform="translate(-26.655 -86.827)" fill="none" stroke="#231f20" stroke-linecap="round" stroke-linejoin="round" stroke-width="1"/>
        <path id="Trazado_824982" data-name="Trazado 824982" d="M94.382,296.067c13.821-1.894,28.708-5.977,38.862-15.543a192.306,192.306,0,0,0-38.862,15.543" transform="translate(-30.818 -91.597)" fill="#006064"/>
        <path id="Trazado_824983" data-name="Trazado 824983" d="M137.417,279.23c-.611.3-1.224.583-1.844.87-11.031,5.151-22.315,9.77-34.05,13.988" transform="translate(-33.149 -91.175)" fill="none" stroke="#231f20" stroke-linecap="round" stroke-linejoin="round" stroke-width="1"/>
        <path id="Trazado_824984" data-name="Trazado 824984" d="M106.3,96.473c8.365,26.217,13.738,56.189,5.331,82.391A379.259,379.259,0,0,1,106.3,96.473" transform="translate(-34.583 -31.501)" fill="#006064"/>
        <path id="Trazado_824985" data-name="Trazado 824985" d="M108.426,111.14c2.453,24.456,3.808,48.451,4.019,72.447.018,1.292.025,2.581.026,3.874" transform="translate(-35.403 -36.29)" fill="none" stroke="#231f20" stroke-linecap="round" stroke-linejoin="round" stroke-width="1"/>
        <path id="Trazado_824986" data-name="Trazado 824986" d="M142.36,130.327c.273,24.069-2.919,50.512-16.668,70.269a331.772,331.772,0,0,1,16.668-70.269" transform="translate(-41.041 -42.555)" fill="#006064"/>
        <path id="Trazado_824987" data-name="Trazado 824987" d="M140.5,143.091c-4.214,21.091-9.241,41.529-15.226,61.661-.279.943-.568,1.9-.857,2.857" transform="translate(-40.626 -46.722)" fill="none" stroke="#231f20" stroke-linecap="round" stroke-linejoin="round" stroke-width="1"/>
        <path id="Trazado_824988" data-name="Trazado 824988" d="M165.276,175.133c-4.995,18.283-13.126,37.614-27.806,49.6a261.2,261.2,0,0,1,27.806-49.6" transform="translate(-44.887 -57.185)" fill="#006064"/>
        <path id="Trazado_824989" data-name="Trazado 824989" d="M161.408,184.339c-7.737,15.054-15.953,29.424-24.837,43.367-.632,1-1.271,1.993-1.91,2.983" transform="translate(-43.97 -60.191)" fill="none" stroke="#231f20" stroke-linecap="round" stroke-linejoin="round" stroke-width="1"/>
        <path id="Trazado_824990" data-name="Trazado 824990" d="M179.016,212.806c-6.614,14.355-15.953,29.141-29.671,36.989a217.856,217.856,0,0,1,29.671-36.989" transform="translate(-48.764 -69.486)" fill="#006064"/>
        <path id="Trazado_824991" data-name="Trazado 824991" d="M175.119,219.774c-8.429,11.323-17.162,22.021-26.372,32.269,0,.011-.016.018-.019.028-.419.469-.848.933-1.283,1.4" transform="translate(-48.144 -71.761)" fill="none" stroke="#231f20" stroke-linecap="round" stroke-linejoin="round" stroke-width="1"/>
        <path id="Trazado_824992" data-name="Trazado 824992" d="M190.161,237.512c-7.567,11.72-17.569,23.478-30.533,28.628a192.281,192.281,0,0,1,30.533-28.628" transform="translate(-52.122 -77.553)" fill="#006064"/>
        <path id="Trazado_824993" data-name="Trazado 824993" d="M185.954,243c-8.79,8.846-17.752,17.114-27.088,24.927-.523.44-1.039.876-1.569,1.3" transform="translate(-51.361 -79.345)" fill="none" stroke="#231f20" stroke-linecap="round" stroke-linejoin="round" stroke-width="1"/>
        <path id="Trazado_824994" data-name="Trazado 824994" d="M176.957,135.825l-3.477-1.639-3.953,8.387L173,144.211s1.878.7,4.809,1.81a45.292,45.292,0,0,0,3.821-7.515c-2.846-1.624-4.677-2.682-4.677-2.682" transform="translate(-55.354 -43.815)" fill="#331508"/>
        <path id="Trazado_824995" data-name="Trazado 824995" d="M257.3,173.028a5.347,5.347,0,0,0-3.384-.4c-5.631-4.685-20.925-8.055-33.124-13.387-1-.437-2.007-.89-3.016-1.356.073-.739-.064-1.292-.429-1.463a.8.8,0,0,0-.694.068c.1-.781-.007-1.338-.342-1.5s-.827.121-1.364.69a.8.8,0,0,0-.395-.578c-.356-.172-.859.065-1.374.574-7.241-3.584-20.489-11.066-27.522-15.08a45.426,45.426,0,0,1-3.821,7.515c7.511,2.844,21.939,8.38,29.389,11.719-.064.719.073,1.255.43,1.422a.817.817,0,0,0,.7-.065c-.1.779.007,1.338.338,1.494s.831-.119,1.369-.69a.811.811,0,0,0,.39.581c.364.17.88-.077,1.4-.6,1,.483,1.995.968,2.967,1.462,11.875,6.014,24.214,15.659,31.408,17.024a5.407,5.407,0,1,0,7.076-7.432" transform="translate(-59.371 -45.909)" fill="#662a10"/>
        <path id="Trazado_824996" data-name="Trazado 824996" d="M167.287,126.855l-.115.244-1.186,2.513L162.033,138l-1.154,2.452-.141.3-12.374-5.83-.641-.3-11.795-5.56.129-.275,6.29-13.354.126-.268,11.64,5.485.642.3Z" transform="translate(-44.383 -37.603)" fill="#89411d"/>
        <path id="Trazado_824997" data-name="Trazado 824997" d="M153.722,162.839a5.219,5.219,0,0,1-3.009,2.218,9.052,9.052,0,0,1-6.577-.671c-5.5-2.594-7.118-3.353-7.5-3.536l-.106-.05s-.117-.052-.536-.253c-.8-.375-2.723-1.282-7.074-3.332a9.041,9.041,0,0,1-4.706-4.642,5.257,5.257,0,0,1-.2-3.736,3.386,3.386,0,0,1,.646-1.112,3.253,3.253,0,0,1,2.031-1.063,2.957,2.957,0,0,1,.35-.037,5.53,5.53,0,0,0,1.787-.372,2.126,2.126,0,0,0,1.333-1.393,2.75,2.75,0,0,0-.105-1.669,1.219,1.219,0,0,0-.329-.557l12.042,5.292.649.286.037.015,12.418,6.255a1.223,1.223,0,0,0-.624.1,2.765,2.765,0,0,0-1.368.988,2.128,2.128,0,0,0-.226,1.915,5.478,5.478,0,0,0,.851,1.611c.071.1.135.2.195.3a3.27,3.27,0,0,1,.473,2.246,3.484,3.484,0,0,1-.447,1.2" transform="translate(-40.408 -46.573)" fill="#89411d"/>
        <path id="Trazado_824998" data-name="Trazado 824998" d="M178.7,109.512a3.243,3.243,0,0,1-2.035,1.061,2.762,2.762,0,0,1-.346.038,5.581,5.581,0,0,0-1.79.371,2.116,2.116,0,0,0-1.33,1.395,2.727,2.727,0,0,0,.1,1.668,1.209,1.209,0,0,0,.327.556L160.9,109.008l-.055-.03-.634-.319-11.724-5.906a1.237,1.237,0,0,0,.623-.1,2.751,2.751,0,0,0,1.365-.989,2.119,2.119,0,0,0,.228-1.914,5.516,5.516,0,0,0-.855-1.614c-.071-.1-.133-.193-.192-.292a3.234,3.234,0,0,1-.471-2.247,3.372,3.372,0,0,1,.446-1.2,5.228,5.228,0,0,1,3.01-2.22,9.039,9.039,0,0,1,6.573.671c3.877,1.829,5.824,2.744,6.77,3.189.31.15.512.242.643.3.148.073.2.095.2.095l7.61,3.586a9.053,9.053,0,0,1,4.706,4.642,5.274,5.274,0,0,1,.2,3.738,3.46,3.46,0,0,1-.645,1.112" transform="translate(-48.485 -29.986)" fill="#89411d"/>
        <path id="Trazado_824999" data-name="Trazado 824999" d="M161.271,124.1l-.114.244-1.18,2.517-3.933,8.4-1.148,2.455-.14.3-9.776-4.642-.506-.24-9.318-4.427.129-.275,6.258-13.369.126-.268,9.2,4.367.507.24Z" transform="translate(-44.131 -37.48)" fill="#b35525"/>
        <path id="Trazado_825000" data-name="Trazado 825000" d="M147.433,159.874a5.717,5.717,0,0,1-2.665,2.376,6.314,6.314,0,0,1-5.388-.127c-4.347-2.066-5.624-2.67-5.929-2.817l-.083-.04s-.092-.04-.424-.2c-.636-.3-2.152-1.02-5.589-2.652a6.383,6.383,0,0,1-3.526-4.1,5.824,5.824,0,0,1,.128-3.585,4.252,4.252,0,0,1,.622-1.123,3.26,3.26,0,0,1,1.763-1.185,2.41,2.41,0,0,1,.293-.063,4.61,4.61,0,0,0,1.508-.5,2.492,2.492,0,0,0,1.213-1.448,3.021,3.021,0,0,0,.045-1.6.981.981,0,0,0-.228-.51l9.545,4.149.515.224.029.013,9.779,5.048a.967.967,0,0,0-.524.143,2.982,2.982,0,0,0-1.21,1.06,2.515,2.515,0,0,0-.338,1.864,4.666,4.666,0,0,0,.577,1.485c.051.092.1.179.138.27a3.328,3.328,0,0,1,.214,2.128,4.378,4.378,0,0,1-.465,1.2" transform="translate(-40.361 -46.463)" fill="#b35525"/>
        <path id="Trazado_825001" data-name="Trazado 825001" d="M172.2,106.468a3.252,3.252,0,0,1-1.767,1.183,2.041,2.041,0,0,1-.29.065,4.667,4.667,0,0,0-1.511.5,2.483,2.483,0,0,0-1.21,1.45,3,3,0,0,0-.047,1.6.982.982,0,0,0,.227.51l-10.087-4.385-.044-.024-.5-.257-9.233-4.766a.985.985,0,0,0,.523-.143,2.994,2.994,0,0,0,1.208-1.061,2.507,2.507,0,0,0,.34-1.863,4.7,4.7,0,0,0-.58-1.488c-.05-.092-.094-.176-.135-.267a3.294,3.294,0,0,1-.213-2.129,4.248,4.248,0,0,1,.464-1.2,5.729,5.729,0,0,1,2.665-2.377,6.311,6.311,0,0,1,5.385.127c3.062,1.457,4.6,2.185,5.349,2.54.245.119.4.193.508.239s.156.076.156.076.785.371,6.013,2.855a6.392,6.392,0,0,1,3.526,4.1,5.839,5.839,0,0,1-.127,3.586,4.321,4.321,0,0,1-.622,1.123" transform="translate(-48.24 -29.804)" fill="#b35525"/>
        <path id="Trazado_825002" data-name="Trazado 825002" d="M160.18,150.673a2.923,2.923,0,0,1-3.641,1.5,2.32,2.32,0,0,1-.225-.09l-.03-.013-11.88-5.6-.643-.3-11.3-5.325c-.04-.018-.078-.04-.117-.058a2.926,2.926,0,0,1,2.032-5.437,2.781,2.781,0,0,1,.553.189l.03.013,11.236,5.3.641.3,11.941,5.628a3.412,3.412,0,0,1,.42.24,2.935,2.935,0,0,1,.981,3.654" transform="translate(-42.705 -44.17)" fill="#662a10"/>
        <path id="Trazado_825003" data-name="Trazado 825003" d="M172.984,123.043a2.927,2.927,0,0,1-3.311,1.6,2.779,2.779,0,0,1-.553-.189l-.031-.013L157.117,118.8l-.642-.3-11.205-5.283a3.424,3.424,0,0,1-.421-.24,2.926,2.926,0,0,1,2.664-5.155c.075.026.151.057.224.09l.029.013,11.143,5.254.643.3,12.032,5.669c.042.019.079.04.12.059a2.926,2.926,0,0,1,1.281,3.836" transform="translate(-46.885 -35.148)" fill="#662a10"/>
        <path id="Trazado_825004" data-name="Trazado 825004" d="M156.776,177.661v.97a2.29,2.29,0,0,1-.011.237,1.927,1.927,0,0,1-1.684,1.957h-44.2a1.929,1.929,0,0,1-1.684-1.957,2.282,2.282,0,0,1-.011-.237v-.97a2,2,0,0,1,1.694-2.194h44.2a1.994,1.994,0,0,1,1.695,2.194" transform="translate(-35.653 -57.294)" fill="#331508"/>
        <path id="Trazado_825005" data-name="Trazado 825005" d="M157.931,184.477v8.651H105.86v-8.651a4.356,4.356,0,0,1,2.253-4.07,2.646,2.646,0,0,1,1.065-.227h45.434a2.646,2.646,0,0,1,1.065.227,4.356,4.356,0,0,1,2.253,4.07" transform="translate(-34.566 -58.833)" fill="#89411d"/>
        <path id="Trazado_825006" data-name="Trazado 825006" d="M168.924,186.763v7.326h-29.4v-7.326a4.269,4.269,0,0,1,1.273-3.446,1.086,1.086,0,0,1,.6-.193H167.05a1.088,1.088,0,0,1,.6.193,4.272,4.272,0,0,1,1.272,3.446" transform="translate(-45.558 -59.794)" fill="#753819"/>
        <path id="Trazado_825007" data-name="Trazado 825007" d="M158.553,196.357V200.3a.653.653,0,0,1-.554.718H104.623a.653.653,0,0,1-.554-.718v-3.943a1.455,1.455,0,0,1,1.206-1.589h52.071a1.456,1.456,0,0,1,1.207,1.589" transform="translate(-33.981 -63.596)" fill="#662a10"/>
        <path id="Trazado_825008" data-name="Trazado 825008" d="M131.382,148.014c5.4,3.136,15.751,8.317,21.151,11.453" transform="translate(-42.899 -48.33)" fill="none" stroke="#2a1510" stroke-linecap="round" stroke-linejoin="round" stroke-width="1"/>
        <path id="Trazado_825009" data-name="Trazado 825009" d="M150.981,101.425c1.94,1.046,14.875,7.2,16.815,8.249" transform="translate(-49.299 -33.117)" fill="none" stroke="#2a1510" stroke-linecap="round" stroke-linejoin="round" stroke-width="1"/>
        <path id="Trazado_825010" data-name="Trazado 825010" d="M109.45,188.581v-3.07a3.581,3.581,0,0,1,3.284-3.818h20.691" transform="translate(-35.738 -59.327)" fill="none" stroke="#b35525" stroke-linecap="round" stroke-linejoin="round" stroke-width="1"/>
        <rect id="Rectángulo_378552" data-name="Rectángulo 378552" width="65.122" height="18.063" transform="translate(74.621 135.61)" fill="#4b4bbd"/>
        <rect id="Rectángulo_378553" data-name="Rectángulo 378553" width="95.059" height="19.841" transform="translate(97.877 134.722)" fill="#4b4bbd"/>
        <rect id="Rectángulo_378554" data-name="Rectángulo 378554" width="69.225" height="14.751" transform="translate(123.712 137.266)" fill="#fff3e0"/>
        <path id="Trazado_825011" data-name="Trazado 825011" d="M157.938,219.88H109.689a4.869,4.869,0,0,1-4.869-4.869v-10.1a4.869,4.869,0,0,1,4.869-4.869h48.249Z" transform="translate(-34.226 -65.317)" fill="#17177d"/>
        <path id="Trazado_825012" data-name="Trazado 825012" d="M159.229,218.568H112.856a4.081,4.081,0,0,1-4.081-4.081V207.9a4.08,4.08,0,0,1,4.081-4.081h46.374Z" transform="translate(-35.517 -66.551)" fill="#d1b890"/>
        <path id="Trazado_825013" data-name="Trazado 825013" d="M116.975,212.916v7.192l2.7-.853,3.1.853v-7.192Z" transform="translate(-38.195 -69.522)" fill="#d13a3a"/>
        <line id="Línea_1098" data-name="Línea 1098" x2="39.451" transform="translate(75.568 143.395)" fill="none" stroke="#2a1510" stroke-linecap="round" stroke-linejoin="round" stroke-width="1"/>
        <rect id="Rectángulo_378555" data-name="Rectángulo 378555" width="82.195" height="22.798" transform="translate(61.451 155.685)" fill="#4b4bbd"/>
        <rect id="Rectángulo_378556" data-name="Rectángulo 378556" width="119.982" height="25.043" transform="translate(90.803 154.563)" fill="#d13a3a"/>
        <rect id="Rectángulo_378557" data-name="Rectángulo 378557" width="87.374" height="18.619" transform="translate(123.411 157.774)" fill="#fff3e0"/>
        <path id="Trazado_825014" data-name="Trazado 825014" d="M150.74,254.542H88.565a4.869,4.869,0,0,1-4.869-4.869v-15.3a4.869,4.869,0,0,1,4.869-4.869H150.74Z" transform="translate(-27.329 -74.936)" fill="#852525"/>
        <path id="Trazado_825015" data-name="Trazado 825015" d="M152.37,252.887h-59.6a4.08,4.08,0,0,1-4.081-4.081V238.349a4.08,4.08,0,0,1,4.081-4.081h59.6Z" transform="translate(-28.959 -76.494)" fill="#d1b890"/>
        <path id="Trazado_825016" data-name="Trazado 825016" d="M99.036,245.753v9.078l3.413-1.077,3.919,1.077v-9.078Z" transform="translate(-32.338 -80.244)" fill="#4b4bbd"/>
        <line id="Línea_1099" data-name="Línea 1099" x2="23.267" transform="translate(62.644 165.51)" fill="none" stroke="#2a1510" stroke-linecap="round" stroke-linejoin="round" stroke-width="1"/>
        <rect id="Rectángulo_378558" data-name="Rectángulo 378558" width="66.911" height="22.798" transform="translate(74.863 180.728)" fill="#4b4bbd"/>
        <rect id="Rectángulo_378559" data-name="Rectángulo 378559" width="97.672" height="25.043" transform="translate(98.757 179.605)" fill="#efbf00"/>
        <rect id="Rectángulo_378560" data-name="Rectángulo 378560" width="71.127" height="18.619" transform="translate(125.301 182.817)" fill="#fff3e0"/>
        <path id="Trazado_825017" data-name="Trazado 825017" d="M159.59,291.726H109.882a4.869,4.869,0,0,1-4.869-4.869V271.552a4.869,4.869,0,0,1,4.869-4.869H159.59Z" transform="translate(-34.289 -87.078)" fill="#a38300"/>
        <path id="Trazado_825018" data-name="Trazado 825018" d="M160.917,290.071h-47.76a4.081,4.081,0,0,1-4.081-4.081V275.533a4.081,4.081,0,0,1,4.081-4.081h47.76Z" transform="translate(-35.616 -88.635)" fill="#d1b890"/>
        <path id="Trazado_825019" data-name="Trazado 825019" d="M117.5,282.938v9.078l2.778-1.077,3.19,1.077v-9.078Z" transform="translate(-38.367 -92.385)" fill="#d13a3a"/>
        <line id="Línea_1100" data-name="Línea 1100" x2="18.941" transform="translate(75.834 190.552)" fill="none" stroke="#2a1510" stroke-linecap="round" stroke-linejoin="round" stroke-width="1"/>
        <path id="Trazado_825020" data-name="Trazado 825020" d="M265.8,144.178h-41.4s-4.05-3.153,4.5-6.3,12.152-6.3,13.053-12.6-6.3-6.754-2.253-14.854,1.352-16.652,1.352-19.8-1.8-2.252-2.7-5.849-.453-8.555.448-13.053,1.8-6.3,2.7-13.952,1.8-13.052,1.8-13.052-.9-.9,0-3.6a9.563,9.563,0,0,0,.515-2.72,12.074,12.074,0,0,0-.24-2.655c-.083-.445-.178-.9-.274-1.375a33.423,33.423,0,0,1-.449-5.233v-.168h4.5s0,.059,0,.165a32.647,32.647,0,0,1-.449,5.236c-.1.475-.191.93-.27,1.375a11.758,11.758,0,0,0-.24,2.655,9.5,9.5,0,0,0,.511,2.72c.9,2.7,0,3.6,0,3.6s.9,5.4,1.8,13.052,1.8,9.451,2.7,13.952,1.349,9.452.449,13.053-2.7,2.7-2.7,5.849-2.7,11.7,1.352,19.8-3.149,8.551-2.249,14.854,4.5,9.45,13.049,12.6,4.5,6.3,4.5,6.3" transform="translate(-72.956 -9.456)" fill="#6c301e"/>
        <path id="Trazado_825021" data-name="Trazado 825021" d="M256.874,16.517a3.3,3.3,0,0,1-.287,1.365,2.315,2.315,0,0,1-4.376,0,3.3,3.3,0,0,1-.286-1.365,2.509,2.509,0,1,1,4.949,0" transform="translate(-82.259 -4.438)" fill="#6c301e"/>
        <path id="Trazado_825022" data-name="Trazado 825022" d="M233.273,18.546c-.34-.028-8.664-1.577-13.971-6.109-5.184-4.423-7.259-5.843-12.8-3.666-2.5.979-4.607,1.036-6.261.166a5.128,5.128,0,0,1-2.121-2.156,9.265,9.265,0,0,1-2.318.269A5.492,5.492,0,0,1,195.134,7a4.053,4.053,0,0,1-.933-.23,2.968,2.968,0,0,1-1.02-.634c-.92-.875-1.133-2.2-.629-3.943l.037-.135.071-.123A3.438,3.438,0,0,1,196.081.025,3.916,3.916,0,0,1,199.24,2.95l-2.163.622A1.735,1.735,0,0,0,195.8,2.259a.935.935,0,0,0-.723.229,1.529,1.529,0,0,0-.511.983,1.239,1.239,0,0,0,.158,1.032,1.044,1.044,0,0,0,.527.234,3.479,3.479,0,0,0,.67.063,8.572,8.572,0,0,0,2.493-.439l1.181-.407.282,1.219a2.98,2.98,0,0,0,1.416,1.772c1.045.556,2.521.463,4.388-.267,6.76-2.658,9.821-.438,15.081,4.052,4.741,4.042,12.451,3.966,12.53,3.972Z" transform="translate(-62.785 0)" fill="#6c301e"/>
        <path id="Trazado_825023" data-name="Trazado 825023" d="M297.6,42.04l-.062.125c-.783,1.64-1.821,2.486-3.09,2.529a2.574,2.574,0,0,1-.307-.007,2.907,2.907,0,0,1-.678-.131c-.066-.022-.135-.045-.2-.069a.883.883,0,0,1-.082-.035,2.275,2.275,0,0,1-.248-.108,2.786,2.786,0,0,1-.36-.2c-.055-.032-.106-.065-.16-.1a.726.726,0,0,1-.061-.044,5.012,5.012,0,0,1-.473-.362,9.241,9.241,0,0,1-1.552-1.743,5.133,5.133,0,0,1-3.02.2c-1.812-.45-3.348-1.892-4.569-4.286-2.693-5.311-5.186-5.628-12-5.772-5.253-.1-10.66-2.612-13.125-3.93-.813-.433-1.307-.737-1.373-.787l2.541-2.886c.016.013.4.356,1.058.864,1.938,1.489,6.3,4.4,10.945,4.5,6.915.139,10.673.519,13.96,7,.909,1.785,1.949,2.833,3.1,3.113a2.971,2.971,0,0,0,2.234-.381l1.023-.723.609,1.089a8.641,8.641,0,0,0,1.57,1.984,3.285,3.285,0,0,0,.543.4,1,1,0,0,0,.169.086.873.873,0,0,0,.381.093c.019,0,.041-.007.061-.013.23-.036.488-.27.741-.657a1.523,1.523,0,0,0,.273-1.071.931.931,0,0,0-.387-.651,1.732,1.732,0,0,0-1.827.131l-1.2-1.9a3.915,3.915,0,0,1,4.306-.087,3.438,3.438,0,0,1,1.286,3.7Z" transform="translate(-83.669 -7.978)" fill="#6c301e"/>
        <path id="Trazado_825024" data-name="Trazado 825024" d="M257.722,24.2a3.8,3.8,0,0,1-2.039,2.14,3.491,3.491,0,0,1-.533.188,3.815,3.815,0,0,1-4.206-1.6,4.076,4.076,0,0,1-.273-.5,3.807,3.807,0,0,1-.1-2.956,3.894,3.894,0,0,1,.3-.625,3.826,3.826,0,0,1,7.034,2.676,3.96,3.96,0,0,1-.187.669" transform="translate(-81.735 -6.208)" fill="#c08329"/>
        <path id="Trazado_825025" data-name="Trazado 825025" d="M257.246,24.335a2.745,2.745,0,0,1-1.474,1.546,2.482,2.482,0,0,1-.386.136,2.756,2.756,0,0,1-3.04-1.154,2.893,2.893,0,0,1-.2-.358,2.753,2.753,0,0,1-.073-2.137,2.887,2.887,0,0,1,.22-.451,2.766,2.766,0,0,1,5.085,1.934,2.918,2.918,0,0,1-.135.484" transform="translate(-82.249 -6.722)" fill="#ebc17d"/>
        <path id="Trazado_825026" data-name="Trazado 825026" d="M336.769,116.911l-.633.228-.518-1.438L312.779,52.419l-.159-.442-.246-.689-.093-.254.135-.05.5-.182.042.119.5,1.379,22.876,63.4Z" transform="translate(-101.966 -16.588)" fill="#6c301e"/>
        <path id="Trazado_825027" data-name="Trazado 825027" d="M307.459,50.319l-.069.475-.042.3-.165,1.121-.231,1.573-8.993,61.719-.4,2.75-.669-.1.386-2.651,8.425-57.8.587-4.035.23-1.58.274-1.88.577.086Z" transform="translate(-96.94 -16.398)" fill="#6c301e"/>
        <path id="Trazado_825028" data-name="Trazado 825028" d="M302.951,49.809l-.247.768-.34,1.056-.106.333-.036.112-.5,1.56-1.253,3.924-18.5,57.8-.458,1.428-.64-.208.389-1.22,19.8-61.831L301.543,52l.072-.225.521-1.625.1-.323a.854.854,0,0,0,.389-.049.458.458,0,0,0,.053-.033,1.531,1.531,0,0,0,.27.063" transform="translate(-91.71 -16.243)" fill="#6c301e"/>
        <path id="Trazado_825029" data-name="Trazado 825029" d="M327.946,147.166v2.045a5.606,5.606,0,0,1-5.606,5.606H284.948a5.606,5.606,0,0,1-5.606-5.606v-2.045Z" transform="translate(-91.211 -48.053)" fill="#c08329"/>
        <rect id="Rectángulo_378561" data-name="Rectángulo 378561" width="70.278" height="0.675" transform="translate(109.058 70.674) rotate(-70.174)" fill="#6c301e"/>
        <rect id="Rectángulo_378562" data-name="Rectángulo 378562" width="0.675" height="68.659" transform="translate(133.336 4.269) rotate(-8.292)" fill="#6c301e"/>
        <path id="Trazado_825030" data-name="Trazado 825030" d="M218.987,72.492l-.639.207L197.6,7.881l-.693-2.155a3.521,3.521,0,0,0,.648-.18l.689,2.146Z" transform="translate(-64.294 -1.811)" fill="#6c301e"/>
        <path id="Trazado_825031" data-name="Trazado 825031" d="M203.938,110.79h-41.17a3.718,3.718,0,0,1-3.718-3.718v-3.933h48.606v3.933a3.718,3.718,0,0,1-3.718,3.718" transform="translate(-51.933 -33.677)" fill="#c08329"/>
        <path id="Trazado_825032" data-name="Trazado 825032" d="M325.872,147.166v1.37c0,2.074-2.093,3.756-4.677,3.756H290c-2.583,0-4.677-1.682-4.677-3.756v-1.37Z" transform="translate(-93.164 -48.053)" fill="#e89e32"/>
        <path id="Trazado_825033" data-name="Trazado 825033" d="M202.03,107.939H168.266a3.718,3.718,0,0,1-3.718-3.718v-1.082h41.2v1.082a3.719,3.719,0,0,1-3.719,3.718" transform="translate(-53.728 -33.677)" fill="#e89e32"/>
      </g>
    </g>
  </g>
</svg>
