<svg xmlns="http://www.w3.org/2000/svg" xmlns:xlink="http://www.w3.org/1999/xlink" width="145" height="145" viewBox="0 0 145 145">
  <defs>
    <clipPath id="clip-path">
      <rect id="Rectángulo_379490" data-name="Rectángulo 379490" width="87.238" height="87.325" fill="none"/>
    </clipPath>
  </defs>
  <g id="Grupo_1075433" data-name="Grupo 1075433" transform="translate(-1167 -4329)">
    <circle id="Elipse_5884" data-name="Elipse 5884" cx="72.5" cy="72.5" r="72.5" transform="translate(1167 4329)" fill="#d5fff5"/>
    <g id="Grupo_1075383" data-name="Grupo 1075383" transform="translate(1195.763 4357.784)">
      <g id="Grupo_1075402" data-name="Grupo 1075402" clip-path="url(#clip-path)">
        <path id="Trazado_826478" data-name="Trazado 826478" d="M66.7,0c1.035.694.913,1.766.826,2.771a1.17,1.17,0,0,0,1.032,1.462,2.806,2.806,0,0,1,1.043.389c1.463,1.059,2.616.83,3.7-.62.654-.872,1.542-.758,2.306,0q3.784,3.77,7.562,7.546a1.5,1.5,0,0,1-.057,2.521c-1.271.975-1.6,2.01-.615,3.358a2.046,2.046,0,0,1,.313.77,1.707,1.707,0,0,0,2.12,1.534c2.015-.147,2.306.253,2.307,2.329q0,4.781,0,9.562c0,1.767-.375,2.236-2.116,2.1-1.333-.1-2.1.285-2.344,1.612a1.344,1.344,0,0,1-.186.522c-.977,1.391-.9,2.533.579,3.593.933.669.846,1.6.031,2.411q-3.776,3.778-7.554,7.554c-.814.814-1.74.908-2.41-.027-1.06-1.477-2.2-1.559-3.591-.58a.964.964,0,0,1-.385.157c-1.449.238-1.885,1.062-1.755,2.509.139,1.558-.378,1.961-1.96,1.979-.187,0-.375,0-.562,0-3.836,0-3.836,0-5.764,3.4a37.649,37.649,0,0,0-2.158,4.545.983.983,0,0,0,.352,1.388,3.993,3.993,0,0,1,1.127,5.369,1.276,1.276,0,0,0-.02,1.5,3.822,3.822,0,0,1,.024,4.125,1.305,1.305,0,0,0-.035,1.5,4.174,4.174,0,0,1-3.783,6.3,3.019,3.019,0,0,1-.562,0c-1.5-.257-2.354.162-2.943,1.773a5.787,5.787,0,0,1-4.653,3.641,14.105,14.105,0,0,1-6.538-.135A6.513,6.513,0,0,1,35.544,82.4c-.234-.743-.551-.825-1.156-.805-.7.024-1.407.03-2.109,0a4.175,4.175,0,0,1-3.631-6.138,1.5,1.5,0,0,0,.014-1.748,3.587,3.587,0,0,1-.02-3.867,1.6,1.6,0,0,0-.048-1.871,3.865,3.865,0,0,1,.989-4.943c.99-.732.881-1.313.346-2.142-.522.133-.774.564-1.079.895-.927,1-1.812,1.41-2.963.255-.575-.578-1.924.108-1.943.971-.029,1.266-.661,1.731-1.86,1.719q-3.8-.04-7.594,0c-1.21.012-1.892-.487-1.805-1.741.043-.626-.3-.751-.773-.928s-.872-.459-1.348.068c-.915,1.014-1.775.705-2.629-.168q-2.555-2.616-5.17-5.171c-.879-.858-1.167-1.719-.155-2.628.535-.481.224-.863.057-1.349s-.318-.8-.933-.764C.475,52.122-.012,51.433,0,50.225q.039-3.8,0-7.593c-.012-1.2.461-1.9,1.724-1.822.607.039.772-.252.939-.757.16-.484.482-.869-.05-1.349-1.007-.908-.737-1.769.145-2.63q2.616-2.553,5.17-5.17c.851-.872,1.71-1.194,2.627-.178.477.528.857.22,1.348.083a.893.893,0,0,0,.78-1.071c-.051-1.014.495-1.672,1.51-1.572,1.236.122,1.416-.346,1.626-1.51C17.658,16.438,23.283,9.077,32.865,4.967A26.9,26.9,0,0,1,51.376,3.927c1.879.54,2.119.364,2.082-1.577A2.434,2.434,0,0,1,54.315,0ZM57.934,53.461h-2.07c-2.141,0-2.479-.26-2.359-2.42.064-1.156-.318-1.71-1.388-1.936a2.417,2.417,0,0,1-.9-.372c-1.35-.977-2.387-.673-3.374.608-.808,1.047-1.725.863-2.618-.043-2.4-2.437-4.839-4.838-7.247-7.268-1.079-1.089-1.17-1.757,0-2.688a2.131,2.131,0,0,0,.538-3.282,1.754,1.754,0,0,1-.27-.64c-.24-1.4-1.022-1.817-2.432-1.692-1.652.146-2.036-.347-2.039-2.032q-.008-4.923,0-9.846c0-1.8.351-2.249,2.095-2.119,1.329.1,2.106-.271,2.353-1.607a1.666,1.666,0,0,1,.256-.644,2.135,2.135,0,0,0-.554-3.383c-1.047-.777-.952-1.72-.017-2.614.881-.841,1.734-1.712,2.592-2.577,1.022-1.03,2.036-2.068,3.3-3.352-1.71.152-3.034.162-4.315.4A25.269,25.269,0,0,0,18.345,30.4,24.579,24.579,0,0,0,25.223,48.26a37.747,37.747,0,0,1,7.893,12.8c.208.566.4.844,1.045.842q9.494-.025,18.989,0c.449,0,.754-.05.935-.593a36.492,36.492,0,0,1,3.85-7.849m26.488-26.72c0-.984-.077-1.976.021-2.95.107-1.064-.253-1.448-1.306-1.288-1.4.212-2.145-.387-2.474-1.808a11.361,11.361,0,0,0-1.55-3.734c-.881-1.323-.816-2.432.5-3.393.681-.5.694-.92.034-1.534-1.44-1.337-2.85-2.718-4.165-4.177-.772-.857-1.317-1-2.043-.013a1.88,1.88,0,0,1-2.818.456A12.234,12.234,0,0,0,66.9,6.719c-1.613-.351-2.493-1.175-2.173-2.931.151-.83-.267-1.007-1.025-.989-1.967.046-3.941.093-5.9-.014-1.208-.065-1.725.229-1.523,1.507a1.78,1.78,0,0,1-1.584,2.213,12.726,12.726,0,0,0-3.877,1.573c-1.363.887-2.514.894-3.5-.494-.548-.768-.975-.535-1.528.049-1.352,1.428-2.724,2.842-4.169,4.174-.783.722-.953,1.246-.019,1.936a1.95,1.95,0,0,1,.466,2.937,12.245,12.245,0,0,0-1.572,3.729c-.346,1.556-1.131,2.423-2.833,2.111-.9-.164-1.1.252-1.072,1.09.058,2.014.082,4.033-.007,6.044-.046,1.051.241,1.457,1.306,1.295,1.393-.212,2.136.373,2.484,1.8a18.077,18.077,0,0,0,1.465,3.623c.986,2,1.058,2.011-.514,3.6-.6.608-.475.925.067,1.442,1.457,1.389,2.909,2.79,4.266,4.276.712.78,1.2.855,1.835-.007.849-1.145,1.847-1.208,3.053-.461a11.338,11.338,0,0,0,3.6,1.509c1.631.344,2.473,1.2,2.16,2.942-.151.843.289,1,1.035.98,2.014-.043,4.034-.088,6.044.014,1.139.057,1.5-.322,1.346-1.4-.19-1.344.387-2.05,1.751-2.373a11.561,11.561,0,0,0,3.74-1.54c1.368-.907,2.513-.847,3.512.51.464.63.865.629,1.431.031,1.417-1.5,2.855-2.978,4.384-4.356.773-.7.751-1.156-.016-1.735-1.189-.9-1.269-1.915-.481-3.166a16.038,16.038,0,0,0,1.738-4.262c.22-.783.584-1.362,1.491-1.431.685-.052,1.637.337,1.985-.2s.144-1.437.163-2.179c.016-.609,0-1.219,0-1.828m-68.943,5.6c-1.555.676-3.028,1.33-4.517,1.947a.743.743,0,0,1-.666-.075c-.929-1.093-1.458-.217-2.049.379s-1.188,1.2-1.78,1.8c-.56.569-1.392,1.046-.39,1.98.287.268.127.773-.06,1.19-.439.976-.832,1.974-1.213,2.974-.178.47-.479.966-.921.964-1.267-.006-1.077.813-1.062,1.593.015.8,0,1.593,0,2.39.007.873-.3,1.909,1.183,1.933.417.007.637.488.8.9.391,1,.784,1.994,1.224,2.97.166.368.321.84.1,1.063-1.116,1.113-.113,1.645.543,2.3.566.561,1.124,1.129,1.681,1.7s1.036,1.255,1.863.317a.865.865,0,0,1,.939-.073q1.754.693,3.488,1.435c.3.129.655.349.66.678.021,1.433,1,1.227,1.918,1.208,1.031-.021,2.062-.011,3.094,0,.443,0,.728-.006.835-.62.184-1.06,4.213-3.06,5.2-2.672a.638.638,0,0,1,.225.164c.488.533.862.43,1.348-.082s.733-.921.3-1.577A18.389,18.389,0,0,0,26.34,54.3a11.485,11.485,0,0,1-7.363,3.361,11.217,11.217,0,0,1-5.209-21.486c2.153-.956,2.153-.956,1.774-3.3-.03-.184-.045-.37-.063-.527m3.631,22.53a8.848,8.848,0,0,0,4.559-1.9c.952-.7.942-1.244.125-2.065a27.819,27.819,0,0,1-7.137-12.013c-.2-.681-.41-.637-.963-.461a8.492,8.492,0,0,0-5.782,9.036c.665,4.333,4.1,7.384,9.2,7.406M43.615,67.507v.021h4.914c2.06,0,4.119.01,6.178-.008a1.4,1.4,0,1,0,.061-2.8c-.234-.012-.468-.005-.7-.005q-10.46.01-20.921.014c-1.064,0-2.139.111-2.1,1.43s1.142,1.359,2.184,1.354c3.463-.017,6.927-.006,10.39-.006m-.1,5.627v.021c3.6,0,7.208-.012,10.812.007,1,.005,1.878-.236,1.909-1.356.034-1.214-.875-1.473-1.931-1.469q-10.671.03-21.342.02c-.99,0-1.9.213-1.927,1.334-.034,1.216.9,1.457,1.949,1.451,3.51-.018,7.02-.007,10.53-.007m.149,2.836v.021q-5.335,0-10.671,0a1.965,1.965,0,0,0-1.569.435A1.226,1.226,0,0,0,31.1,77.83c.364.835,1.06.937,1.853.937q10.671,0,21.342.022c1.054,0,1.967-.248,1.94-1.463-.025-1.121-.9-1.368-1.9-1.362-3.557.019-7.114.008-10.671.008m-5.281,5.655c1.14,2.477,2.879,3.15,6.86,2.758a3.683,3.683,0,0,0,3.476-2.758Z" transform="translate(0)" fill="#0a0909"/>
        <path id="Trazado_826479" data-name="Trazado 826479" d="M247.893,239.86c-.2.151-.277.2-.341.256-1.53,1.422-1.509,1.4-2.912-.105-.4-.435-.453-.7-.013-1.12,1.214-1.166,2.382-2.38,3.587-3.555a1.491,1.491,0,0,1,2.333.019c1.2,1.181,2.382,2.38,3.583,3.559.348.341.437.571.054,1.017-1.379,1.608-1.354,1.63-3.361-.1a13.629,13.629,0,0,1-.563,4.009,11.149,11.149,0,0,1-9.355,7.786c-.431.07-1.442.556-1.325-.5.088-.785-.953-2.119.9-2.35a8.36,8.36,0,0,0,7.411-8.916" transform="translate(-171.983 -168.689)" fill="#0a0909"/>
        <path id="Trazado_826480" data-name="Trazado 826480" d="M20.711,26.534a11.323,11.323,0,0,1,9.667-11.711c.523-.077,1.349-.59,1.587.4.377,1.569.031,2.225-1.142,2.45-4.608.883-7.588,4.532-7.154,8.9a4.463,4.463,0,0,0,.629-.586c.7-.982,1.258-.993,2.131-.056.757.814.968,1.252.021,2.045-1.107.928-2.072,2.025-3.1,3.049a1.521,1.521,0,0,1-2.431.006c-1.159-1.156-2.3-2.33-3.493-3.453-.5-.476-.417-.765.027-1.226,1.291-1.341,1.269-1.361,3.257.187" transform="translate(-12.274 -10.505)" fill="#0a0909"/>
        <path id="Trazado_826481" data-name="Trazado 826481" d="M104.736,67.632a36.473,36.473,0,0,0-3.85,7.849c-.181.543-.486.593-.935.593q-9.495-.012-18.989,0c-.647,0-.837-.276-1.045-.842a37.744,37.744,0,0,0-7.893-12.8,24.579,24.579,0,0,1-6.878-17.855A25.269,25.269,0,0,1,86.288,20.124c1.281-.238,2.605-.248,4.315-.4-1.264,1.285-2.278,2.322-3.3,3.352-.858.865-1.712,1.736-2.592,2.577-.935.894-1.031,1.837.017,2.614a2.135,2.135,0,0,1,.554,3.382,1.672,1.672,0,0,0-.257.644C84.777,33.63,84,34,82.671,33.9c-1.744-.129-2.093.322-2.095,2.12q-.005,4.923,0,9.846c0,1.686.387,2.179,2.039,2.032,1.41-.125,2.192.293,2.432,1.693a1.748,1.748,0,0,0,.27.639,2.131,2.131,0,0,1-.538,3.282c-1.17.931-1.079,1.6,0,2.688,2.408,2.43,4.846,4.83,7.247,7.268.893.906,1.811,1.091,2.618.043.988-1.281,2.025-1.584,3.375-.608a2.4,2.4,0,0,0,.9.372c1.071.226,1.453.78,1.388,1.936-.12,2.161.218,2.419,2.359,2.42h2.07" transform="translate(-46.801 -14.172)" fill="#ffce76"/>
        <path id="Trazado_826482" data-name="Trazado 826482" d="M177.753,33.828c0,.609.012,1.219,0,1.828-.019.741.184,1.641-.163,2.179s-1.3.147-1.984.2c-.907.069-1.271.648-1.491,1.431a16.047,16.047,0,0,1-1.738,4.262c-.789,1.251-.708,2.27.481,3.166.767.578.789,1.037.016,1.735-1.528,1.379-2.967,2.861-4.384,4.356-.566.6-.967.6-1.431-.031-1-1.357-2.144-1.417-3.512-.51a11.563,11.563,0,0,1-3.74,1.54c-1.364.323-1.94,1.028-1.751,2.373.151,1.075-.207,1.454-1.346,1.4-2.01-.1-4.03-.057-6.044-.014-.747.016-1.187-.137-1.035-.98.313-1.744-.529-2.6-2.16-2.942a11.339,11.339,0,0,1-3.6-1.509c-1.206-.747-2.2-.683-3.053.461-.639.862-1.122.787-1.835.007-1.356-1.486-2.809-2.887-4.266-4.276-.543-.517-.669-.834-.067-1.442,1.572-1.59,1.5-1.6.514-3.6a18.054,18.054,0,0,1-1.465-3.623c-.348-1.424-1.091-2.009-2.484-1.8-1.065.162-1.353-.244-1.306-1.294.088-2.011.065-4.031.007-6.044-.024-.839.174-1.255,1.072-1.09,1.7.312,2.487-.555,2.833-2.111a12.245,12.245,0,0,1,1.572-3.729,1.95,1.95,0,0,0-.466-2.937c-.934-.69-.764-1.214.019-1.936,1.445-1.332,2.818-2.746,4.169-4.174.553-.584.98-.816,1.528-.048.991,1.388,2.141,1.381,3.5.494a12.731,12.731,0,0,1,3.877-1.573,1.78,1.78,0,0,0,1.584-2.213c-.2-1.278.315-1.572,1.523-1.507,1.963.106,3.936.059,5.9.014.758-.018,1.176.159,1.025.989-.32,1.757.56,2.58,2.173,2.931a12.229,12.229,0,0,1,3.725,1.58,1.88,1.88,0,0,0,2.818-.456c.726-.983,1.27-.844,2.043.013,1.315,1.459,2.724,2.84,4.165,4.177.661.614.648,1.036-.034,1.534-1.317.962-1.382,2.071-.5,3.393a11.361,11.361,0,0,1,1.549,3.734c.33,1.421,1.075,2.02,2.475,1.808,1.054-.16,1.413.224,1.306,1.288-.1.974-.021,1.966-.021,2.95m-8.441.074a15.476,15.476,0,1,0-15.632,15.39A15.454,15.454,0,0,0,169.312,33.9" transform="translate(-93.331 -7.087)" fill="#f28520"/>
        <path id="Trazado_826483" data-name="Trazado 826483" d="M22.629,114.891c.019.157.034.343.063.527.379,2.348.379,2.348-1.774,3.3a11.217,11.217,0,0,0,5.209,21.486,11.485,11.485,0,0,0,7.363-3.361,18.388,18.388,0,0,1,1.879,2.816c.43.657.177,1.071-.3,1.577s-.86.615-1.348.082a.64.64,0,0,0-.224-.164c-.983-.388-5.012,1.612-5.2,2.672-.107.614-.391.623-.835.62-1.031-.008-2.063-.019-3.094,0-.915.019-1.9.225-1.918-1.208,0-.329-.356-.549-.66-.678q-1.735-.739-3.488-1.435a.866.866,0,0,0-.939.073c-.828.938-1.32.237-1.863-.317s-1.116-1.137-1.681-1.7c-.656-.65-1.658-1.183-.543-2.3.224-.223.068-.695-.1-1.063-.44-.976-.834-1.973-1.224-2.97-.161-.411-.381-.892-.8-.9-1.487-.025-1.176-1.06-1.183-1.933-.006-.8.01-1.594,0-2.39-.014-.78-.2-1.6,1.062-1.593.443,0,.743-.495.921-.964.381-1,.774-2,1.213-2.974.187-.417.348-.922.06-1.19-1-.933-.17-1.411.39-1.98q.887-.9,1.78-1.8c.592-.6,1.121-1.472,2.05-.379a.742.742,0,0,0,.666.075c1.489-.618,2.962-1.271,4.517-1.947" transform="translate(-7.15 -82.548)" fill="#004996"/>
        <path id="Trazado_826484" data-name="Trazado 826484" d="M122.838,232.676c-3.463,0-6.927-.011-10.39.006-1.042.005-2.149-.04-2.184-1.354s1.04-1.431,2.1-1.43q10.461.01,20.921-.014c.234,0,.468-.006.7.005a1.4,1.4,0,1,1-.061,2.8c-2.059.018-4.119.007-6.178.008h-4.915v-.021" transform="translate(-79.223 -165.169)" fill="#b1c5e2"/>
        <path id="Trazado_826485" data-name="Trazado 826485" d="M122.726,252.654c-3.51,0-7.02-.011-10.53.007-1.049.006-1.983-.235-1.949-1.451.031-1.12.938-1.334,1.927-1.333q10.671.011,21.342-.02c1.057,0,1.966.255,1.932,1.469-.031,1.12-.913,1.361-1.909,1.356-3.6-.019-7.208-.007-10.812-.007v-.021" transform="translate(-79.21 -179.519)" fill="#b1c5e2"/>
        <path id="Trazado_826486" data-name="Trazado 826486" d="M122.773,269.849c3.557,0,7.114.012,10.671-.008,1-.005,1.876.242,1.9,1.362.027,1.215-.886,1.466-1.94,1.463q-10.671-.029-21.342-.022c-.793,0-1.489-.1-1.853-.937a1.225,1.225,0,0,1,.323-1.408,1.964,1.964,0,0,1,1.569-.435q5.335.013,10.671,0v-.021" transform="translate(-79.109 -193.879)" fill="#b1c5e2"/>
        <path id="Trazado_826487" data-name="Trazado 826487" d="M136.348,289.959h10.336a3.683,3.683,0,0,1-3.476,2.758c-3.981.392-5.72-.281-6.86-2.758" transform="translate(-97.965 -208.333)" fill="#b1c5e2"/>
        <path id="Trazado_826488" data-name="Trazado 826488" d="M190.909,55.54a15.476,15.476,0,1,1-15.321-15.56,15.448,15.448,0,0,1,15.321,15.56m-7.041,4.679a27.1,27.1,0,0,0-4.777-15.367,4.285,4.285,0,0,0-4.508-2.035,14.967,14.967,0,0,0-2.219.334c-4.888,1.43-8.2,4.551-9.256,9.56a11.955,11.955,0,0,0,4.844,12.873c4.326,3.184,8.957,3.3,13.721.87a3.189,3.189,0,0,0,1.886-2.7c.137-1.351.238-2.705.309-3.534m2.827.6c2.92-4.614.415-14.629-3.564-14.815A28.116,28.116,0,0,1,186.7,60.821" transform="translate(-114.928 -28.725)" fill="#0a0909"/>
        <path id="Trazado_826489" data-name="Trazado 826489" d="M191.052,67.31c-.071.829-.172,2.183-.309,3.534a3.19,3.19,0,0,1-1.886,2.7c-4.765,2.434-9.4,2.314-13.721-.87A11.954,11.954,0,0,1,170.292,59.8c1.059-5.009,4.368-8.13,9.256-9.56a14.978,14.978,0,0,1,2.219-.334,4.285,4.285,0,0,1,4.508,2.035,27.1,27.1,0,0,1,4.778,15.367" transform="translate(-122.112 -35.816)" fill="#ffce76"/>
      </g>
    </g>
  </g>
</svg>
