<svg xmlns="http://www.w3.org/2000/svg" xmlns:xlink="http://www.w3.org/1999/xlink" width="190" height="174" viewBox="0 0 190 174">
  <defs>
    <clipPath id="clip-path">
      <rect id="Rect치ngulo_377726" data-name="Rect치ngulo 377726" width="190" height="174" transform="translate(388 2505)" fill="none" stroke="#707070" stroke-width="1"/>
    </clipPath>
    <clipPath id="clip-path-2">
      <rect id="Rect치ngulo_378278" data-name="Rect치ngulo 378278" width="144.846" height="144.333" fill="none"/>
    </clipPath>
  </defs>
  <g id="Enmascarar_grupo_367" data-name="Enmascarar grupo 367" transform="translate(-388 -2505)" clip-path="url(#clip-path)">
    <g id="Grupo_1074016" data-name="Grupo 1074016" transform="translate(411 2520)">
      <g id="Grupo_1074015" data-name="Grupo 1074015" clip-path="url(#clip-path-2)">
        <path id="Trazado_824245" data-name="Trazado 824245" d="M85.136,188.157a11.031,11.031,0,0,1-.448,3.714,8.024,8.024,0,0,1-4.469,4.478,8.512,8.512,0,0,1-3.379.562c-12.542-.022-25.084.027-37.625-.068A20.333,20.333,0,0,1,28.847,193.8c-1.286-.771-2.516-1.622-3.726-2.5a2.456,2.456,0,0,0-1.573-.492c-1.767.037-3.536.023-5.3.015a.631.631,0,0,0-.683.431,5.2,5.2,0,0,1-4.693,3.226c-3.625.137-7.259.044-10.889.029A2.391,2.391,0,0,1,.06,192.71a2.032,2.032,0,0,1,1.373-2.159,1.833,1.833,0,0,1,.751-.162c1.29-.032,2.579-.085,3.87-.091,2.072-.011,4.143.025,6.215.011a1.564,1.564,0,0,0,1.738-1.625c.027-.281.023-.564.023-.847,0-3.6-.01-7.206,0-10.81.006-1.771.283-2.149,1.891-2.775.316.252.733.072,1.069.26a2.151,2.151,0,0,1,1.187,2.015c0,3.136.013,6.273-.013,9.41,0,.533.136.689.665.675,1.343-.035,2.7.077,4.03-.034a7.033,7.033,0,0,1,5.284,1.766,17.867,17.867,0,0,0,11.464,4.3q18.641.03,37.282.031a5.25,5.25,0,0,0,1.574-.238,3.2,3.2,0,0,0,2.39-3.419,3.293,3.293,0,0,0-2.533-3.42,9.153,9.153,0,0,0-2.231-.144c-1.447-.035-2.72-1.52-2.172-2.764a2.451,2.451,0,0,1,2.184-1.467c1.2,0,2.4.037,3.607.012,2.94-.062,3.962-2.829,3.23-4.987A3.369,3.369,0,0,0,79.551,174c-1.177-.041-2.36.032-3.536-.028a2.229,2.229,0,0,1-2-1.527,1.79,1.79,0,0,1,.413-1.815,2.5,2.5,0,0,1,2.207-.845c1.815-.022,3.634.041,5.445-.046a3.555,3.555,0,0,0,3.211-4.582,3.694,3.694,0,0,0-3.4-2.639c-1.863,0-3.729-.056-5.587.03a2.326,2.326,0,0,1-2.08-1.766,2.1,2.1,0,0,1,1.321-2.231,4.976,4.976,0,0,1,1.934-.234q14.042,0,28.086,0c1.2,0,2.406.012,3.607-.036a3.384,3.384,0,0,0,3.385-3.238,3.115,3.115,0,0,0-.281-1.7,3.493,3.493,0,0,0-2.458-2.147,16.81,16.81,0,0,0-2.732-.129q-23.735,0-47.47.014a6.435,6.435,0,0,1-3.288-.744,6.1,6.1,0,0,1-3.211-4.2,13.784,13.784,0,0,1-.211-2.937c.063-3.984,0-7.97,0-11.956a6.193,6.193,0,0,0-.354-2.269,4.8,4.8,0,0,0-6.49-2.691,4.583,4.583,0,0,0-2.962,4.383c-.052,3-.048,5.991-.006,8.986a7.816,7.816,0,0,1-3.064,6.579q-4.047,3.2-8.161,6.317a6.6,6.6,0,0,1-3.834,1.463c-3.039.066-6.08.026-9.12,0-.562-.006-.748.1-.743.718.033,4.127.023,8.255.018,12.382a2.155,2.155,0,0,1-2.119,2.392c-.281-.09-.569-.018-.865-.2a2.524,2.524,0,0,1-1.176-2.4c-.041-5.036.114-10.074-.084-15.109a1.37,1.37,0,0,0-1.094-1.437,8.3,8.3,0,0,0-2.338-.157c-2.776.069-5.555.052-8.333.066A2.353,2.353,0,0,1,.084,148.67a2.109,2.109,0,0,1,.789-2.2,2.818,2.818,0,0,1,1.814-.458q4.28,0,8.56,0c.236,0,.471-.01.706-.014a.666.666,0,0,0,.2.062,5.736,5.736,0,0,1,5.473,3.422.563.563,0,0,0,.565.331q3.322-.029,6.643-.051c.706.007,1.414,0,2.119.026a4.576,4.576,0,0,0,3.09-1.08c2.507-1.963,5.036-3.9,7.551-5.847a3.329,3.329,0,0,0,1.308-2.75c.005-3.017,0-6.034-.043-9.05a9.335,9.335,0,0,1,.793-3.962A9.155,9.155,0,0,1,50.416,122a9.057,9.057,0,0,1,6.637,8.085c.205,4.542.1,9.095.032,13.643-.51.236-.188.448.02.663.029,1.52.717,2.462,2.68,2.456,15.894-.048,31.789-.028,47.683-.022a20.575,20.575,0,0,1,2.524.116,7.7,7.7,0,0,1,6.829,7.1c-.008.352-.025.7-.021,1.057a7.07,7.07,0,0,1-3.219,5.971,9.215,9.215,0,0,1-3.17,1.354c-.7.031-1.408.088-2.113.087q-9.5,0-19-.031c-.515,0-.545.111-.334.548a6.715,6.715,0,0,1,.658,2.817,7.626,7.626,0,0,1-3.447,6.8c-.348.239-.287.386-.09.668a8.211,8.211,0,0,1,1.3,3.644,3.024,3.024,0,0,0-.023.35,7.359,7.359,0,0,1-3.4,6.757c-.4.274-.243.472-.062.735a8.216,8.216,0,0,1,1.226,3.36" transform="translate(0 -52.578)"/>
        <path id="Trazado_824246" data-name="Trazado 824246" d="M164.091,46.6c.238.082.479.158.714.248a2,2,0,0,1,1.381,2.222,1.951,1.951,0,0,1-1.665,1.721,4.227,4.227,0,0,1-.91.1q-5.154-.017-10.307-.05a5.932,5.932,0,0,1-4.53-3.409.517.517,0,0,0-.544-.334l-7.822.052a5.255,5.255,0,0,0-4.268,1.1c-2.134,1.83-4.384,3.516-6.65,5.173a4.677,4.677,0,0,0-2.064,4.369c.125,2.729.079,5.466.066,8.2a9.559,9.559,0,0,1-1.3,4.8,8.916,8.916,0,0,1-3.281,3.228,8.339,8.339,0,0,1-5.932,1.213,9.172,9.172,0,0,1-7.41-6.6,16.108,16.108,0,0,1-.359-4.8c-.028-3.744.02-7.489.031-11.233a2.224,2.224,0,0,0-1.245-2.3,4.438,4.438,0,0,0-1.917-.239c-3.6.057-7.212-.007-10.816.043a2.349,2.349,0,0,1-2.419-2.274,2.233,2.233,0,0,1,2.486-1.977q5.022-.023,10.045,0a24.718,24.718,0,0,1,2.739.1,6.138,6.138,0,0,1,5.159,4.725,12.825,12.825,0,0,1,.207,2.444c.008,4.481-.018,8.961.043,13.441.027,2,1.387,3.66,3.715,4.422a5.067,5.067,0,0,0,4.847-1.6,5.754,5.754,0,0,0,1.2-3.794c.044-2.782.06-5.566,0-8.348a7.856,7.856,0,0,1,3.21-6.682c2.206-1.731,4.473-3.39,6.6-5.207a10.179,10.179,0,0,1,7.465-2.477c2.258.113,4.527,0,6.79.046.673.015.864-.134.862-.831q-.035-15.565,0-31.129c0-.5-.157-.666-.637-.661-1.367.013-2.746-.111-4.1.023a6.442,6.442,0,0,1-5.075-1.688c-3.771-3.216-8.264-4.407-13.132-4.409q-15.669-.006-31.337,0c-1.6,0-3.209-.048-4.81.012-2.263.086-3.4,1.212-3.705,2.873a3.5,3.5,0,0,0,2.443,4.21,8.553,8.553,0,0,0,2.436.187,2.035,2.035,0,0,1,2.165,2.361,2.089,2.089,0,0,1-2.224,1.794q-1.7.039-3.394.022a3.743,3.743,0,0,0-2.4.834,3.662,3.662,0,0,0-1.191,3.8,3.914,3.914,0,0,0,3.3,2.613,19.4,19.4,0,0,1,4.069.11A1.932,1.932,0,0,1,92.3,24.489a1.969,1.969,0,0,1-1.194,2.4,3.5,3.5,0,0,1-1.444.239c-1.792.011-3.583.006-5.376.017a3.669,3.669,0,0,0-3.461,3.687,3.71,3.71,0,0,0,3.549,3.541c1.579,0,3.16-.013,4.739.022a6.792,6.792,0,0,1,1.781.242A2.028,2.028,0,0,1,92.14,36.5a2.226,2.226,0,0,1-1.413,1.968,2.7,2.7,0,0,1-.875.144q-16.411-.014-32.823,0a3.611,3.611,0,0,0,.01,7.206q10.857.03,21.716.024c2.287,0,4.575-.018,6.862.01a2.155,2.155,0,0,1,2.467,1.975c-.05,1.548-.918,2.237-2.446,2.241q-14.381.039-28.763,0a6.509,6.509,0,0,1-2.034-.394,7.741,7.741,0,0,1-4.822-4.64c-.138-.331-.172-.743-.58-.906a.769.769,0,0,0,.128-.662,6.721,6.721,0,0,1,.6-4.456A7.646,7.646,0,0,1,54.6,34.86a12.17,12.17,0,0,1,3.155-.493c.8.01,1.6.028,2.4.027q8.268,0,16.536-.014c.761,0,.77-.041.522-.731a7.39,7.39,0,0,1-.5-4.015,7.988,7.988,0,0,1,2.527-4.675c1.149-1.013,1.165-.993.413-2.308a3.189,3.189,0,0,1-.14-.315l-.685-2.252c.008-.212.017-.423.024-.635a8.124,8.124,0,0,1,2.66-5.932c.384-.356,1.143-.52,1.1-1.066-.038-.5-.519-.966-.805-1.447a8.441,8.441,0,0,1-.7-3.571A7.722,7.722,0,0,1,83.015,2.7,7.717,7.717,0,0,1,87.128.177,7.848,7.848,0,0,1,89.084.01C101.528,0,113.973-.016,126.417.029a26.959,26.959,0,0,1,6.108,1,22.692,22.692,0,0,1,8.727,4.616,2.256,2.256,0,0,0,1.562.493c1.7-.055,3.393-.056,5.09-.041a.88.88,0,0,0,.935-.533,5.512,5.512,0,0,1,5.06-3.171c3.323-.052,6.647-.036,9.969,0,1.608.017,2.432.927,2.306,2.332a2.024,2.024,0,0,1-1.189,1.608c-.3.11-.612.2-.918.3a3.435,3.435,0,0,0-.482-.069q-4.24-.017-8.48-.023c-2.371,0-2.752.386-2.751,2.732q.008,17.106.012,34.213a17.462,17.462,0,0,0,.053,1.834,1.6,1.6,0,0,0,1.36,1.382,6.2,6.2,0,0,0,1.633-.02q3.64.018,7.28,0a4.365,4.365,0,0,0,1.4-.083" transform="translate(-21.351 0)"/>
        <path id="Trazado_824247" data-name="Trazado 824247" d="M182.764,82.982l7.821-.052a.518.518,0,0,1,.545.334,5.931,5.931,0,0,0,4.53,3.409c.291.951.562,1.909.884,2.849a3.82,3.82,0,0,1,.242,1.5c-.093.219-.338.234-.5.369a2.043,2.043,0,0,0-.9,2.006c.419,1.817.819,3.632,1.156,5.468a60.8,60.8,0,0,1,.785,7.188,76.177,76.177,0,0,1-.253,9.844c-.109,1.606.394,2.187,1.966,2.6a32.671,32.671,0,0,1-.923,4.419,2.3,2.3,0,0,0-.065.481,1.969,1.969,0,0,0-2.586,1.32c-.389.934-.65,1.923-.951,2.893a57.978,57.978,0,0,1-4.675,10.936A61.135,61.135,0,0,1,155,167.284c-1.737.563-2.1,1.081-2.081,2.846a1.774,1.774,0,0,1-1.211.739,9.447,9.447,0,0,1-2.866.546,8.209,8.209,0,0,0-1.226-3.36c-.18-.263-.334-.462.062-.736a7.357,7.357,0,0,0,3.4-6.756,3.04,3.04,0,0,1,.023-.351c1.911-.972,4.125-1.216,5.927-2.45a2.648,2.648,0,0,0,2.182.018,55.408,55.408,0,0,0,6.751-3.8,2.266,2.266,0,0,0,1.155-1.971,1.3,1.3,0,0,0,.766-.315,56.525,56.525,0,0,0,5.967-5.123.942.942,0,0,0,.273-.895,9.237,9.237,0,0,0,3.169-1.354,7.068,7.068,0,0,0,3.218-5.971c0-.353.014-.7.022-1.057a1.106,1.106,0,0,0,.951-.513,33.571,33.571,0,0,0,2.787-5.065,1.451,1.451,0,0,0,.052-.486c1.073-.145,1.4-.936,1.782-1.827a51.712,51.712,0,0,0,2.879-9.316,39.627,39.627,0,0,0,.879-6.208,52.146,52.146,0,0,0,.17-6.777c-.156-2.157-.284-4.308-.578-6.456A61.713,61.713,0,0,0,188,93.988c-.442-1.758-1.159-3.424-1.756-5.13a1.917,1.917,0,0,0-1.783-1.55,8.175,8.175,0,0,0-1.05-2.648,3.89,3.89,0,0,1-.651-1.679" transform="translate(-63.707 -35.835)" fill="#b2e4ed"/>
        <path id="Trazado_824248" data-name="Trazado 824248" d="M44.835,42.741a12.153,12.153,0,0,0-3.155.493,7.646,7.646,0,0,0-4.439,4.147,6.721,6.721,0,0,0-.6,4.456.77.77,0,0,1-.128.662,5.2,5.2,0,0,0-.751.918c-.78,1.178-1.407,2.444-2.124,3.658a1.532,1.532,0,0,0-.24.93,2.263,2.263,0,0,0-1.721,1.6A52.265,52.265,0,0,0,28.2,70.2a51.729,51.729,0,0,0-1.165,8.955,57.523,57.523,0,0,0,.4,9.329c.247,1.765.539,3.518.946,5.248.393,1.669.844,3.328,1.358,4.963a3.579,3.579,0,0,0,1.951,2.653,2.111,2.111,0,0,0,.122.746c.5,1.147.965,2.311,1.443,3.47q-3.322.024-6.643.051a.563.563,0,0,1-.566-.331,5.736,5.736,0,0,0-5.473-3.422.67.67,0,0,1-.2-.062,7.223,7.223,0,0,0-.494-2.544,6.9,6.9,0,0,1-.386-1.713,1.955,1.955,0,0,0,1.71-2.212,18.363,18.363,0,0,0-.4-2.273,48.383,48.383,0,0,1-.984-7.873,68.079,68.079,0,0,1,.534-12.556A65.626,65.626,0,0,1,23.036,61.6a61.531,61.531,0,0,1,17.5-26.087,62.61,62.61,0,0,1,6.91-5.311,56.789,56.789,0,0,1,5.6-3.182c1.607-.818,3.238-1.587,4.912-2.258,1.248-.5,2.528-.917,3.782-1.4a1.83,1.83,0,0,0,1.369-2.043,4.722,4.722,0,0,1,.009-.633c1.365-.285,2.731-.561,4.092-.858.566-.124,1.122-.295,1.683-.444.285.48.767.947.8,1.447.041.545-.717.709-1.1,1.066a8.127,8.127,0,0,0-2.66,5.931c-.007.212-.016.424-.024.635a3.952,3.952,0,0,0-.6.325c-1.166.911-2.546,1.577-3.349,2.906-.612.294-1.228.582-1.837.884a1.981,1.981,0,0,0-1.015.722,2.84,2.84,0,0,0-1.559-.3,9.2,9.2,0,0,0-2.536,1.068,2.767,2.767,0,0,0-1.839,2.315,1.3,1.3,0,0,0-.668.126,61.638,61.638,0,0,0-6.492,4.9c-.437.389-1.036.675-1.181,1.339" transform="translate(-8.427 -8.374)" fill="#85d6e4"/>
        <path id="Trazado_824249" data-name="Trazado 824249" d="M17.576,195.942c-1.609.626-1.885,1-1.892,2.775-.012,3.6,0,7.206,0,10.81,0,.283,0,.567-.023.847A1.564,1.564,0,0,1,13.921,212c-2.072.015-4.144-.021-6.215-.011-1.29.007-2.579.06-3.87.092q0-14.448.005-28.9,0-5.616-.016-11.232c2.778-.015,5.557,0,8.333-.066a8.276,8.276,0,0,1,2.337.157,1.37,1.37,0,0,1,1.094,1.437c.2,5.035.043,10.073.084,15.109a2.523,2.523,0,0,0,1.176,2.4c.3.179.584.107.864.2,0,.4.016.8-.006,1.194a19.221,19.221,0,0,1-.133,3.564" transform="translate(-1.653 -74.269)" fill="#e79098"/>
        <path id="Trazado_824250" data-name="Trazado 824250" d="M242.424,51.576a4.365,4.365,0,0,1-1.4.083q-3.64.012-7.28,0a6.2,6.2,0,0,1-1.633.02,1.6,1.6,0,0,1-1.36-1.382,17.462,17.462,0,0,1-.053-1.834q-.009-17.106-.012-34.213c0-2.346.38-2.734,2.751-2.732q4.24,0,8.48.023a3.435,3.435,0,0,1,.482.069,13.334,13.334,0,0,1,.106,2.6q0,17.877-.008,35.755c0,.538-.048,1.076-.073,1.614" transform="translate(-99.683 -4.977)" fill="#e79098"/>
        <path id="Trazado_824251" data-name="Trazado 824251" d="M60.106,20.675a4.729,4.729,0,0,0-.009.634,1.83,1.83,0,0,1-1.369,2.042c-1.254.487-2.534.9-3.782,1.4-1.674.671-3.306,1.439-4.913,2.257a56.921,56.921,0,0,0-5.6,3.182,62.727,62.727,0,0,0-6.909,5.311,61.535,61.535,0,0,0-17.5,26.087A65.582,65.582,0,0,0,17.347,72.62a68.079,68.079,0,0,0-.534,12.556,48.321,48.321,0,0,0,.984,7.873,18.6,18.6,0,0,1,.4,2.273,1.955,1.955,0,0,1-1.711,2.212,2.137,2.137,0,0,1-2.409-1.942c-.45-1.781-.66-3.608-.974-5.415A63.239,63.239,0,0,1,12.56,78.56a45.742,45.742,0,0,1,.677-6.7,83.6,83.6,0,0,1,1.863-8.6,54.28,54.28,0,0,1,4-10.345,86.446,86.446,0,0,1,5.814-9.8,33.156,33.156,0,0,1,2.88-3.655,25.546,25.546,0,0,1,1.976-2.237c.831-.717,1.563-1.52,2.316-2.312a53.975,53.975,0,0,1,8.879-7.442,56.738,56.738,0,0,1,9.027-5.118,56.389,56.389,0,0,1,7.221-2.855,2.343,2.343,0,0,1,2.894,1.185" transform="translate(-5.415 -8.368)"/>
        <path id="Trazado_824252" data-name="Trazado 824252" d="M157.1,200.851c-.02-1.766.344-2.283,2.081-2.846a61.135,61.135,0,0,0,34.841-28.742,57.993,57.993,0,0,0,4.675-10.936c.3-.97.562-1.959.951-2.893a1.969,1.969,0,0,1,2.586-1.32c1.175.641,1.645,1.48,1.14,3.078a74.869,74.869,0,0,1-3.308,9.367,73.5,73.5,0,0,1-6,10.459,68.194,68.194,0,0,1-9.115,10.556c-1.25,1.2-2.575,2.327-3.936,3.4a65.138,65.138,0,0,1-17.185,9.84c-1.3.495-2.615.953-3.931,1.4-1.073.367-1.948-.074-2.8-1.364" transform="translate(-67.883 -66.556)"/>
        <path id="Trazado_824253" data-name="Trazado 824253" d="M235.5,124.644c-1.572-.409-2.075-.991-1.967-2.6a76.18,76.18,0,0,0,.254-9.844,60.681,60.681,0,0,0-.787-7.188c-.336-1.836-.737-3.651-1.156-5.468a2.043,2.043,0,0,1,.9-2.006c.158-.135.4-.149.5-.369,1.81-.06,2.411.451,2.839,2.186a58.076,58.076,0,0,1,1.227,6.1c.2,1.514.346,3.045.5,4.566a60.573,60.573,0,0,1,.2,7.606c-.04,1.745-.219,3.488-.4,5.226-.108,1.044-.846,1.612-2.114,1.791" transform="translate(-100.166 -41.988)"/>
        <path id="Trazado_824254" data-name="Trazado 824254" d="M42.255,83.207a1.532,1.532,0,0,1,.24-.93c.717-1.214,1.344-2.48,2.124-3.658a5.2,5.2,0,0,1,.751-.918c.408.164.442.575.58.906a7.741,7.741,0,0,0,4.822,4.64,6.525,6.525,0,0,0,2.034.393q14.382.025,28.763,0c1.529,0,2.4-.693,2.446-2.241a11.232,11.232,0,0,0,4.438-.116c.086-.027.213.073.321.114a2.349,2.349,0,0,0,2.419,2.274c3.6-.05,7.211.014,10.816-.043a4.438,4.438,0,0,1,1.917.239,2.224,2.224,0,0,1,1.245,2.3c-.011,3.745-.059,7.489-.031,11.233a16.122,16.122,0,0,0,.359,4.795,9.172,9.172,0,0,0,7.41,6.6,8.339,8.339,0,0,0,5.931-1.212,8.917,8.917,0,0,0,3.282-3.228,9.566,9.566,0,0,0,1.3-4.8c.013-2.733.059-5.471-.066-8.2a4.675,4.675,0,0,1,2.064-4.369c2.265-1.657,4.515-3.343,6.649-5.172a5.254,5.254,0,0,1,4.268-1.1,3.9,3.9,0,0,0,.651,1.679,8.147,8.147,0,0,1,1.05,2.649,2.063,2.063,0,0,0-2.31,1.513,2.247,2.247,0,0,0,.27,1.724,52.74,52.74,0,0,1,2.506,8.439,51.931,51.931,0,0,1,.935,7.125,50.43,50.43,0,0,1-.077,6.329,60.958,60.958,0,0,1-.932,6.932,34.017,34.017,0,0,1-1.912,6.677c-.342.868-.663,1.747-.94,2.637a1.929,1.929,0,0,0,1.136,2.424c.386.195.792.03,1.178.122a1.45,1.45,0,0,1-.051.486,33.57,33.57,0,0,1-2.787,5.065,1.107,1.107,0,0,1-.952.513,7.7,7.7,0,0,0-6.829-7.1,20.564,20.564,0,0,0-2.524-.116c-15.895-.006-31.789-.026-47.684.022-1.963.006-2.651-.936-2.679-2.456a.46.46,0,0,0-.02-.663c.07-4.548.173-9.1-.032-13.643a9.058,9.058,0,0,0-6.638-8.085,9.154,9.154,0,0,0-10.765,5.1,9.335,9.335,0,0,0-.794,3.962c.043,3.017.048,6.034.043,9.05a3.33,3.33,0,0,1-1.308,2.75c-2.515,1.951-5.045,3.884-7.552,5.847a4.575,4.575,0,0,1-3.089,1.08c-.706-.028-1.413-.019-2.119-.026-.478-1.158-.941-2.323-1.443-3.47a2.126,2.126,0,0,1-.122-.746c.141,0,.283,0,.424,0a1.945,1.945,0,0,0,1.983-2.611c-.367-1.391-.893-2.74-1.25-4.132a40.164,40.164,0,0,1-1.2-6.205c-.15-1.587-.42-3.178-.475-4.763a41.821,41.821,0,0,1,.062-4.618c.122-1.6.241-3.187.446-4.776a50.191,50.191,0,0,1,1.685-7.5,49.623,49.623,0,0,1,2.11-5.481A2.362,2.362,0,0,0,44.2,83.91a2.227,2.227,0,0,0-1.949-.7m49.376,35.031c0-1.3.006-1.281,1.249-1.691a10.862,10.862,0,0,0,7.131-6.672,7.775,7.775,0,0,1,.439-1.5c.369-.557,1.045-.182,1.579-.215,1.274-.078,2.184-.814,2.2-1.877.018-1.5-.7-2.364-2.141-2.332-1.121.025-1.745-.068-2.016-1.463a8.363,8.363,0,0,0-2.168-3.8,9.377,9.377,0,0,0-5.572-3.3.623.623,0,0,1-.6-.769,4.278,4.278,0,0,0-.076-1.616A1.862,1.862,0,0,0,90,91.442c-1.572-.052-1.9.167-2.344,1.395a5.827,5.827,0,0,0-.123,1.733c-.026.4-.088.608-.589.733a10.305,10.305,0,0,0-2.634,1.02,10.824,10.824,0,0,0-5.414,7.088.562.562,0,0,1-.685.493,6.81,6.81,0,0,0-1.728.123,2.009,2.009,0,0,0-1.412,2.4c.436,1.271,1.149,1.771,2.749,1.691a1.015,1.015,0,0,1,1.226.908,10.83,10.83,0,0,0,5.57,6.889,13.525,13.525,0,0,0,2.33.854c.383.131.717.32.572.786a3.933,3.933,0,0,0,.028,1.336,2.142,2.142,0,0,0,2.367,1.815c1.242-.3,1.719-.981,1.718-2.469" transform="translate(-17.283 -33.576)" fill="#f8f9fb"/>
        <path id="Trazado_824255" data-name="Trazado 824255" d="M28.039,177.434a19.221,19.221,0,0,0,.133-3.564c.022-.4.005-.8.006-1.194a2.154,2.154,0,0,0,2.119-2.392c.006-4.127.016-8.255-.018-12.382,0-.614.182-.724.743-.718,3.04.031,6.081.071,9.12,0a6.615,6.615,0,0,0,3.835-1.463q4.108-3.122,8.161-6.318a7.814,7.814,0,0,0,3.064-6.579c-.041-2.994-.045-5.991.007-8.986a4.581,4.581,0,0,1,2.962-4.383,4.8,4.8,0,0,1,6.49,2.691,6.193,6.193,0,0,1,.353,2.269c.006,3.985.068,7.971,0,11.956a13.824,13.824,0,0,0,.211,2.937,6.1,6.1,0,0,0,3.211,4.2,6.437,6.437,0,0,0,3.289.744q23.734-.032,47.47-.014a16.685,16.685,0,0,1,2.732.129,3.494,3.494,0,0,1,2.458,2.147,3.125,3.125,0,0,1,.281,1.7,3.385,3.385,0,0,1-3.385,3.238c-1.2.048-2.4.036-3.608.036q-14.042,0-28.086,0a4.956,4.956,0,0,0-1.934.234,2.1,2.1,0,0,0-1.321,2.231,2.327,2.327,0,0,0,2.08,1.766c1.859-.086,3.725-.028,5.588-.03a3.693,3.693,0,0,1,3.4,2.639,3.555,3.555,0,0,1-3.21,4.582c-1.812.086-3.63.024-5.446.045a2.5,2.5,0,0,0-2.207.846,1.79,1.79,0,0,0-.412,1.815,2.228,2.228,0,0,0,2,1.527c1.176.06,2.358-.013,3.536.028a3.368,3.368,0,0,1,3.387,2.247c.732,2.158-.289,4.925-3.23,4.987-1.2.026-2.4-.014-3.607-.012a2.451,2.451,0,0,0-2.184,1.467c-.547,1.244.725,2.729,2.173,2.764a9.175,9.175,0,0,1,2.231.143A3.3,3.3,0,0,1,92.97,192.2a3.2,3.2,0,0,1-2.391,3.419,5.261,5.261,0,0,1-1.573.238q-18.641-.02-37.282-.031a17.867,17.867,0,0,1-11.464-4.3,7.034,7.034,0,0,0-5.284-1.766c-1.335.111-2.687,0-4.03.034-.529.014-.67-.142-.665-.675.027-3.136.01-6.273.013-9.41a2.152,2.152,0,0,0-1.186-2.016c-.336-.187-.754-.008-1.069-.26" transform="translate(-12.116 -55.76)" fill="#ffdfd1"/>
        <path id="Trazado_824256" data-name="Trazado 824256" d="M158.7,205.507c-1.8,1.235-4.016,1.479-5.927,2.45a8.211,8.211,0,0,0-1.3-3.643c-.2-.283-.258-.429.09-.668a7.626,7.626,0,0,0,3.447-6.8,6.719,6.719,0,0,0-.658-2.818c-.211-.437-.181-.549.335-.547q9.5.034,19,.031c.7,0,1.408-.057,2.113-.088a.942.942,0,0,1-.273.9,56.634,56.634,0,0,1-5.967,5.123,1.307,1.307,0,0,1-.766.315,2.134,2.134,0,0,0-1.649-1.942,2.239,2.239,0,0,0-1.842.422,54.64,54.64,0,0,1-6.206,3.6,2.883,2.883,0,0,0-.592.378,2.021,2.021,0,0,0,.2,3.3" transform="translate(-65.385 -83.581)" fill="#f8f9fb"/>
        <path id="Trazado_824257" data-name="Trazado 824257" d="M100.315,160.5a.46.46,0,0,1,.02.663c-.208-.215-.53-.426-.02-.663" transform="translate(-43.23 -69.355)" fill="#e79098"/>
        <path id="Trazado_824258" data-name="Trazado 824258" d="M96.077,51.03c-.108-.041-.235-.141-.32-.114a11.222,11.222,0,0,1-4.438.115,2.155,2.155,0,0,0-2.467-1.975c-2.287-.028-4.574-.008-6.862-.01q-10.858-.009-21.716-.025a3.611,3.611,0,0,1-.01-7.206q16.411,0,32.823,0a2.7,2.7,0,0,0,.875-.144,2.226,2.226,0,0,0,1.413-1.968,2.028,2.028,0,0,0-1.244-1.863A6.792,6.792,0,0,0,92.35,37.6c-1.579-.035-3.16-.022-4.739-.022a3.711,3.711,0,0,1-3.55-3.541,3.669,3.669,0,0,1,3.461-3.687c1.792-.011,3.584-.007,5.376-.018a3.513,3.513,0,0,0,1.444-.238,1.969,1.969,0,0,0,1.194-2.4,1.931,1.931,0,0,0-1.685-1.448,19.4,19.4,0,0,0-4.069-.11,3.914,3.914,0,0,1-3.3-2.613,3.663,3.663,0,0,1,1.191-3.8,3.742,3.742,0,0,1,2.4-.834q1.7.018,3.394-.022a2.089,2.089,0,0,0,2.224-1.794,2.035,2.035,0,0,0-2.165-2.361,8.573,8.573,0,0,1-2.436-.186,3.5,3.5,0,0,1-2.444-4.21c.307-1.661,1.443-2.788,3.706-2.873,1.6-.06,3.206-.012,4.81-.012q15.668,0,31.337,0c4.868,0,9.361,1.193,13.132,4.409a6.442,6.442,0,0,0,5.075,1.688c1.354-.134,2.733-.01,4.1-.023.48-.005.637.16.637.661q-.023,15.565,0,31.13c0,.7-.189.846-.862.831-2.262-.05-4.531.066-6.79-.047a10.177,10.177,0,0,0-7.465,2.477c-2.132,1.817-4.4,3.475-6.6,5.206a7.856,7.856,0,0,0-3.21,6.682c.058,2.782.043,5.566,0,8.348a5.751,5.751,0,0,1-1.2,3.794,5.066,5.066,0,0,1-4.847,1.6c-2.328-.762-3.688-2.422-3.715-4.422-.06-4.48-.035-8.961-.043-13.441a12.825,12.825,0,0,0-.207-2.444,6.138,6.138,0,0,0-5.159-4.725,24.717,24.717,0,0,0-2.739-.1q-5.022-.022-10.045,0a2.233,2.233,0,0,0-2.486,1.977" transform="translate(-24.586 -3.204)" fill="#ffdfd1"/>
        <path id="Trazado_824259" data-name="Trazado 824259" d="M78.387,41.906a1.98,1.98,0,0,1,1.015-.722c.609-.3,1.224-.589,1.837-.883a2.36,2.36,0,0,0,1.165-.2,9,9,0,0,1,3.47-.783,3.19,3.19,0,0,0,.14.315c.752,1.316.735,1.3-.413,2.308a7.985,7.985,0,0,0-2.527,4.675,7.39,7.39,0,0,0,.5,4.015c.248.689.239.73-.522.73q-8.268.012-16.536.015c-.8,0-1.6-.018-2.4-.027.144-.663.743-.95,1.181-1.339a61.579,61.579,0,0,1,6.492-4.9,1.289,1.289,0,0,1,.669-.126,1.8,1.8,0,0,1,.182.44,1.99,1.99,0,0,0,2.951,1.416c.794-.391,1.548-.867,2.352-1.233a2.108,2.108,0,0,0,.449-3.705" transform="translate(-27.704 -16.985)" fill="#f8f9fb"/>
        <path id="Trazado_824260" data-name="Trazado 824260" d="M98.908,37.619a9.009,9.009,0,0,0-3.47.783,2.358,2.358,0,0,1-1.164.2c.8-1.33,2.183-2,3.349-2.906a3.9,3.9,0,0,1,.6-.325l.685,2.252" transform="translate(-40.737 -15.283)" fill="#b2e4ed"/>
        <path id="Trazado_824261" data-name="Trazado 824261" d="M210.545,134.556c-.387-.093-.792.072-1.178-.123a1.929,1.929,0,0,1-1.136-2.423c.278-.89.6-1.77.941-2.638a34.04,34.04,0,0,0,1.912-6.677,61.106,61.106,0,0,0,.932-6.932,50.442,50.442,0,0,0,.077-6.33,51.945,51.945,0,0,0-.935-7.125,52.732,52.732,0,0,0-2.506-8.438,2.246,2.246,0,0,1-.271-1.725,2.063,2.063,0,0,1,2.311-1.513,1.916,1.916,0,0,1,1.783,1.55c.6,1.705,1.315,3.372,1.758,5.129a61.755,61.755,0,0,1,1.445,6.66c.294,2.148.423,4.3.578,6.456a51.944,51.944,0,0,1-.17,6.777,39.62,39.62,0,0,1-.879,6.208,51.641,51.641,0,0,1-2.879,9.316c-.381.891-.708,1.682-1.782,1.827" transform="translate(-89.934 -39.16)"/>
        <path id="Trazado_824262" data-name="Trazado 824262" d="M163.6,208.8a2.021,2.021,0,0,1-.2-3.3,2.883,2.883,0,0,1,.592-.378,54.636,54.636,0,0,0,6.206-3.6,2.238,2.238,0,0,1,1.842-.422,2.134,2.134,0,0,1,1.649,1.942,2.264,2.264,0,0,1-1.155,1.97,55.3,55.3,0,0,1-6.752,3.8,2.646,2.646,0,0,1-2.181-.018" transform="translate(-70.279 -86.876)"/>
        <path id="Trazado_824263" data-name="Trazado 824263" d="M39.112,87.4a2.226,2.226,0,0,1,1.949.7,2.362,2.362,0,0,1,.131,2.542,49.507,49.507,0,0,0-2.109,5.481,50.176,50.176,0,0,0-1.685,7.5c-.205,1.59-.325,3.18-.446,4.776a41.819,41.819,0,0,0-.062,4.618c.055,1.586.325,3.177.475,4.763a40.211,40.211,0,0,0,1.2,6.2c.357,1.393.882,2.742,1.25,4.133a1.945,1.945,0,0,1-1.983,2.611c-.141.007-.283,0-.424,0a3.577,3.577,0,0,1-1.951-2.654c-.514-1.635-.966-3.294-1.359-4.962-.407-1.73-.7-3.483-.946-5.248a57.467,57.467,0,0,1-.4-9.329,51.743,51.743,0,0,1,1.165-8.955A52.3,52.3,0,0,1,37.391,89a2.262,2.262,0,0,1,1.721-1.6" transform="translate(-14.14 -37.766)"/>
        <path id="Trazado_824264" data-name="Trazado 824264" d="M84.735,43.634a2.108,2.108,0,0,1-.449,3.705c-.8.367-1.558.842-2.352,1.233a1.99,1.99,0,0,1-2.951-1.416,1.8,1.8,0,0,0-.182-.44A2.766,2.766,0,0,1,80.64,44.4a9.169,9.169,0,0,1,2.536-1.068,2.832,2.832,0,0,1,1.559.3" transform="translate(-34.051 -18.713)"/>
        <path id="Trazado_824265" data-name="Trazado 824265" d="M118.262,128.688c0,1.488-.476,2.173-1.718,2.47a2.144,2.144,0,0,1-2.367-1.816,3.962,3.962,0,0,1-.028-1.336c.145-.466-.189-.655-.572-.786a13.525,13.525,0,0,1-2.33-.854,10.83,10.83,0,0,1-5.57-6.889,1.014,1.014,0,0,0-1.226-.908c-1.6.08-2.312-.42-2.749-1.691a2.009,2.009,0,0,1,1.412-2.4,6.815,6.815,0,0,1,1.728-.123.562.562,0,0,0,.684-.493,10.824,10.824,0,0,1,5.415-7.088,10.3,10.3,0,0,1,2.634-1.02c.5-.124.564-.331.59-.733a5.846,5.846,0,0,1,.123-1.733c.446-1.228.772-1.446,2.344-1.395a1.862,1.862,0,0,1,1.651,1.564,4.267,4.267,0,0,1,.076,1.616.623.623,0,0,0,.6.769,9.377,9.377,0,0,1,5.572,3.3,8.365,8.365,0,0,1,2.168,3.8c.271,1.395.894,1.488,2.015,1.463,1.44-.032,2.159.832,2.141,2.332-.012,1.063-.923,1.8-2.2,1.877-.533.032-1.21-.342-1.578.215a7.736,7.736,0,0,0-.44,1.5A10.861,10.861,0,0,1,119.512,127c-1.243.411-1.249.392-1.249,1.691m-2.144-5.424a6.79,6.79,0,0,0,7-7.362c-.147-3.512-3.269-6.261-7.508-6.216a6.957,6.957,0,0,0-6.271,6.507c-.037,4.224,3.663,7.326,6.783,7.071" transform="translate(-43.914 -44.026)"/>
        <path id="Trazado_824266" data-name="Trazado 824266" d="M121.984,129.2c-3.12.255-6.82-2.846-6.783-7.071a6.957,6.957,0,0,1,6.271-6.507c4.239-.045,7.361,2.7,7.509,6.215a6.791,6.791,0,0,1-7,7.363m2.145-6.832a2.329,2.329,0,0,1,0-.282,1.738,1.738,0,0,0-1.024-1.831,1.931,1.931,0,0,0-2.21.137,2.776,2.776,0,0,0-.778,2.918,2.064,2.064,0,0,0,4.011-.942" transform="translate(-49.78 -49.961)" fill="#f8f9fb"/>
        <path id="Trazado_824267" data-name="Trazado 824267" d="M127.767,125.678a2.064,2.064,0,0,1-4.011.942,2.776,2.776,0,0,1,.779-2.918,1.931,1.931,0,0,1,2.21-.137,1.739,1.739,0,0,1,1.024,1.831,2.33,2.33,0,0,0,0,.282" transform="translate(-53.419 -53.272)"/>
      </g>
    </g>
  </g>
</svg>
