<svg xmlns="http://www.w3.org/2000/svg" xmlns:xlink="http://www.w3.org/1999/xlink" width="190" height="174" viewBox="0 0 190 174">
  <defs>
    <clipPath id="clip-path">
      <rect id="Rect치ngulo_377729" data-name="Rect치ngulo 377729" width="190" height="174" transform="translate(389.608 2504.789)" fill="none" stroke="#707070" stroke-width="1"/>
    </clipPath>
    <clipPath id="clip-path-2">
      <rect id="Rect치ngulo_378277" data-name="Rect치ngulo 378277" width="145.202" height="162.211" fill="none"/>
    </clipPath>
  </defs>
  <g id="Enmascarar_grupo_368" data-name="Enmascarar grupo 368" transform="translate(-389.608 -2504.789)" clip-path="url(#clip-path)">
    <g id="Grupo_1074014" data-name="Grupo 1074014" transform="translate(412.608 2510.789)">
      <g id="Grupo_1074013" data-name="Grupo 1074013" clip-path="url(#clip-path-2)">
        <path id="Trazado_824182" data-name="Trazado 824182" d="M75.661,166.169c1.5.01,3.011-.09,4.5.055a5.943,5.943,0,0,1,4.658,2.849,7.965,7.965,0,0,1,1.067,3.915c.055,1-.014,2.005,0,3.008a2.943,2.943,0,0,1-3.007,2.9c-6.886-.035-13.773-.016-20.658-.028a2.834,2.834,0,0,1-2.882-2.919,28.892,28.892,0,0,1,.162-4.719,5.928,5.928,0,0,1,2.068-3.562,7.521,7.521,0,0,1,6.116-1.466c2.413.291,2.416.263,2.416-2.1q0-17.93.018-35.86c0-.707-.177-.873-.868-.869-6.2.033-12.4.027-18.6.034-.869,0-.837-.006-.526.781a10.9,10.9,0,0,1,.755,4.019q.013,18.563,0,37.126a8.739,8.739,0,0,1-1.533,5.216,9.418,9.418,0,0,1-3.2,3.043A9.633,9.633,0,0,1,40.1,178.86a9.334,9.334,0,0,1-6.457-4.3,9.688,9.688,0,0,1-1.551-5.492c.03-9.13.013-18.26.016-27.39,0-.4.083-.675-.573-.687-7.361-.133-14.721-.049-22.082-.032a9.117,9.117,0,0,1-8.881-6.268,8.65,8.65,0,0,1-.552-3.632c.067-.919.017-1.846.017-2.77q0-20.9-.018-41.8A13.251,13.251,0,0,1,1.393,79.93a11.5,11.5,0,0,1,5.093-4.914c.862-.43.861-.4.283-1.117a18.254,18.254,0,0,1-2.448-4.073A22.047,22.047,0,0,1,3.032,65.9,13.154,13.154,0,0,1,2.9,63.379,15.791,15.791,0,0,1,6.642,52.326a16.361,16.361,0,0,1,7.726-5.4,25.331,25.331,0,0,1,3.594-.767c.845-.132,1.7-.125,2.537-.191a9.041,9.041,0,0,1,1.944.259,16.9,16.9,0,0,1,8.077,3.475,19.017,19.017,0,0,1,4.6,5.691,13.27,13.27,0,0,1,1.565,4.274A11.942,11.942,0,0,1,36.9,64.4c-.19.813-.123,1.691-.34,2.534a18.183,18.183,0,0,1-2.423,5.479,17.849,17.849,0,0,1-4.206,4.5,6.886,6.886,0,0,1-2.315,1.176c-.385.111-.763.553-1.232.756a7.235,7.235,0,0,1-2.047.6c-.207.024-.367.072-.433.263s.045.3.2.446C29.652,85.513,35.082,91,40.5,96.494a1.964,1.964,0,0,0,1.529.631q9.062-.038,18.124-.031a10.056,10.056,0,0,1,5.035,1.039,7.7,7.7,0,0,1,3.986,5.267,9.329,9.329,0,0,1,.134,3.91,5.963,5.963,0,0,0-.383,1.443h7.362a8.1,8.1,0,0,1,.511-7.51,7.76,7.76,0,0,1,6.574-4.055c6.38-.24,12.763-.1,19.144-.055a3.158,3.158,0,0,0,2.828-1.2,11.811,11.811,0,0,1,1.714-1.865c.77-.635,1.433-1.357,2.134-2.042,3-2.932,5.963-5.9,8.933-8.859,1.006-1,1.972-2.045,2.995-3.028.372-.357.4-.42-.135-.544a39.865,39.865,0,0,1-4.057-1.5A7.52,7.52,0,0,1,115.387,77a17.653,17.653,0,0,1-6.765-9.876,14.7,14.7,0,0,1-.487-4.658,17.289,17.289,0,0,1,5.911-12.273,16.05,16.05,0,0,1,9.173-4.018,17.016,17.016,0,0,1,9.916,1.814,16.509,16.509,0,0,1,8.687,11.36,16.2,16.2,0,0,1,.451,4.79,15.966,15.966,0,0,1-2.865,8.474c-.378.528-.737,1.068-1.122,1.593-.161.22-.326.47.184.69a10.639,10.639,0,0,1,4.955,4.475,13.339,13.339,0,0,1,1.762,7.033q.022,22.283.015,44.568a9.566,9.566,0,0,1-2.971,7.493,8.59,8.59,0,0,1-5.616,2.472.267.267,0,0,0-.335.024q-8.03-.015-16.061-.033c-2.187-.006-4.373.017-6.559.1-.412.016-.543.112-.53.531.03,1.028.013,2.057.013,3.086q0,11.871-.01,23.74a11.73,11.73,0,0,1-.681,4.429,9.2,9.2,0,0,1-6.948,5.888,8.559,8.559,0,0,1-7.874-2.148,11.27,11.27,0,0,1-2.654-3.512,6.717,6.717,0,0,1-.629-2.821c-.027-11.315,0-22.629.006-33.944,0-1.738-.064-3.477-.013-5.212a8.086,8.086,0,0,1,.79-2.868c.3-.713.247-.8-.535-.8-6.277,0-12.554.011-18.831-.008-.5,0-.609.126-.608.606q.019,18.676.015,37.351c0,.191-.111.428.133.57-.224.577.193.229.357.247M21.506,75.041a6.325,6.325,0,0,0,1.665-.327A12.155,12.155,0,0,0,30.2,69.5a10.24,10.24,0,0,0,1.7-5.271c.165-.048.175-.156.115-.292l.048-1.14c.023-.259.123-.531-.126-.744a8.282,8.282,0,0,0-.564-2.86,11.3,11.3,0,0,0-8.2-7.634A11.946,11.946,0,0,0,8.112,65.607a11.652,11.652,0,0,0,7.119,8.605,11.34,11.34,0,0,0,6.115.852c.064.064.114.039.16-.023m85.6,33.792a4.654,4.654,0,0,0,3.546-1.685q6.7-6.722,13.423-13.431a22.153,22.153,0,0,1,1.951-1.845,2.4,2.4,0,0,1,3.779,1.911,2.782,2.782,0,0,1-1.019,2.134q-2.507,2.529-5.046,5.027a1.863,1.863,0,0,0-.622,1.538c.05.948.02,1.9.019,2.849,0,5.488,0,10.975-.028,16.464,0,.59.176.789.764.734.81-.076,1.626-.116,2.439-.119q4.391-.021,8.783,0a29.215,29.215,0,0,1,3.629.095c1.079.14,1.5-.3,1.506-1.4,0-1.715.008-3.43-.006-5.145-.086-10.493.2-20.988-.156-31.479a5.459,5.459,0,0,0-1.913-3.932,7.325,7.325,0,0,0-6.825-1.459,11.236,11.236,0,0,0-5.467,3.3q-9.086,9.045-18.126,18.135a4.856,4.856,0,0,1-3.762,1.565c-6.278-.053-12.558-.022-18.836-.02a9.549,9.549,0,0,0-2.107.177A3.466,3.466,0,0,0,80.7,106.2a3.576,3.576,0,0,0,3.86,2.657c6.543-.019,13.085-.01,19.628-.016.949,0,1.9-.029,2.846-.044l.027.04Zm-69.178-.052a.117.117,0,0,0,.192.011l.476.017h.166l.465.008.169,0,.467,0a.29.29,0,0,0,.32-.006l.314,0a.284.284,0,0,0,.318-.005l.313,0,.168,0,.465,0,.168,0,.465,0,.168,0,.465,0,.168,0,.465,0,.168,0,.465,0,.168,0,.465,0,.168,0,.465,0,.168,0,.465,0,.168,0,.465,0,.168,0,.465,0,.168,0,.465,0,.168,0,.465,0,.168,0,.465,0,.168,0,.465,0,.168,0,.465,0,.168,0,.465,0,.168,0,.465,0,.168,0,.465,0,.168,0,.465,0,.168,0,.465,0,.168,0,.465,0,.168,0,.465,0,.168,0,.465,0,.168,0,.465,0,.168,0,.465,0,.168,0,.465,0,.168,0,.465.005.169,0,1.1.017h.172l.463,0,.171,0,.466-.013a.148.148,0,0,0,.217-.013l.374-.013c.082.074.154.051.219-.025a3.227,3.227,0,0,0,2.788-4.422,3.533,3.533,0,0,0-3.667-2.265c-6.407-.005-12.814-.044-19.219.036a5.045,5.045,0,0,1-3.965-1.649C31.651,94.533,25.726,88.675,19.83,82.787a12.775,12.775,0,0,0-7.208-3.89c-3.722-.6-7.394,2.32-7.459,5.75-.017.018-.048.036-.048.053a.755.755,0,0,0,.026.133c-.026.552-.074,1.1-.074,1.655q-.015,17.6-.037,35.205c0,.661.214.789.814.788q7.634-.014,15.267.022c1.027,0,1.03.02,1.03-1,0-6.355-.006-12.711.018-19.066a1.953,1.953,0,0,0-.618-1.536c-1.622-1.584-3.222-3.191-4.83-4.79a4.943,4.943,0,0,1-1.062-1.364,2.37,2.37,0,0,1,2.043-3.3c1.26-.073,1.964.772,2.721,1.527q7.173,7.145,14.323,14.313a4.264,4.264,0,0,0,3.188,1.491M23.594,127.3v0q-7.875,0-15.749,0c-.739,0-1.477.027-2.215.013-.487-.01-.626.2-.615.669q.049,2.017.018,4.036a4.426,4.426,0,0,0,2.821,3.834,7.02,7.02,0,0,0,3.019.264q11.633.033,23.266.018a2.942,2.942,0,0,1,1.8.392,3.157,3.157,0,0,1,1.248,2.729c-.034,10.051-.011,20.1-.024,30.155a4.241,4.241,0,0,0,4.464,4.472,4.414,4.414,0,0,0,4.246-3.947c.064-.761.114-1.527.114-2.29,0-11.081-.01-22.162.014-33.242a19.52,19.52,0,0,0-.13-2.938,5.022,5.022,0,0,0-.908-2.392,4.817,4.817,0,0,0-4.119-1.777q-8.626-.008-17.252,0m75.7,23.767H99.3q0,8.546,0,17.093a7.438,7.438,0,0,0,.559,3.455,4.437,4.437,0,0,0,4.309,2.335,4.593,4.593,0,0,0,3.923-4.93q0-14.917,0-29.832a3.356,3.356,0,0,1,.079-1.168,2.531,2.531,0,0,1,2.6-1.877q11.71-.013,23.421-.01a13.914,13.914,0,0,0,2.523-.137,4.271,4.271,0,0,0,3.359-3.174,40.579,40.579,0,0,0,.181-4.559c.006-.78-.254-.962-.992-.96q-16.221.026-32.44,0c-.923,0-1.848-.033-2.769.008-2.2.1-3.857.993-4.536,3.222a9.274,9.274,0,0,0-.231,2.725q-.01,8.9,0,17.8M72.632,122.52q15.633,0,31.265.014c.7,0,.957-.158.938-.908-.057-2.294-.036-4.59-.043-6.886,0-1.086,0-1.088-1.079-1.088H81.551q-20.066,0-40.13-.018c-.774,0-.963.2-.945.957.053,2.268.02,4.538.015,6.808,0,1.122-.008,1.122,1.114,1.122H72.632m52.5-71.409a11.872,11.872,0,0,0-11.939,12.578,12.085,12.085,0,0,0,24.155-.638,11.768,11.768,0,0,0-12.215-11.939m-6.963,55.581c-1.717,1.457-3.137,3.048-4.67,4.523a8.488,8.488,0,0,1-3.207,1.972.694.694,0,0,0-.581.717c.017,2.688,0,5.375.009,8.063,0,.226-.036.442.4.434,2.45-.044,4.9-.036,7.351,0,.545.007.712-.111.707-.69-.031-3.451-.015-6.9-.014-10.354v-4.661m-90.987.055c-.08.044-.121.057-.121.069q.006,7.545.01,15.091c0,.411.185.481.528.479,2.449-.012,4.9-.023,7.347-.013.447,0,.6-.16.6-.6q-.029-3.872-.023-7.744c0-.4-.145-.559-.533-.714a10.949,10.949,0,0,1-4.253-3.076,30.309,30.309,0,0,0-3.552-3.493M72.6,173.82c2.53,0,5.059-.009,7.588.008.466,0,.7-.048.691-.62-.014-1.649-.456-2.137-2.168-2.145q-6.086-.028-12.173-.027c-1.718,0-2.16.49-2.158,2.193,0,.509.165.605.631.6,2.529-.021,5.059-.01,7.588-.01" transform="translate(0 -16.75)"/>
        <path id="Trazado_824183" data-name="Trazado 824183" d="M69.624,46.079a2.614,2.614,0,0,0-1.3-.157c-3.358.1-5.751-2.087-6.887-4.97a4.147,4.147,0,0,1-.2-1.534c.088-8.125.041-16.249.025-24.374a5.616,5.616,0,0,1,1.517-3.522,6.8,6.8,0,0,1,5.5-2.483q7.8,0,15.591.012a7.378,7.378,0,0,1,1.5-.039c.732.144.552-.556.531-.868a8,8,0,0,1,.976-4.709A6.631,6.631,0,0,1,91.624.158,12.433,12.433,0,0,1,94.035,0Q107.37,0,120.706.01a7.969,7.969,0,0,1,5.879,1.974,6.64,6.64,0,0,1,1.779,3.34,11.435,11.435,0,0,1,.253,2.485q0,10.882.022,21.763a7.1,7.1,0,0,1-3.679,6.464,7.713,7.713,0,0,1-4.248.851c-.587-.018-.849.168-.684.774l0,.367c0,1.609.008,3.219-.012,4.827a2.574,2.574,0,0,1-2.074,2.807,1.8,1.8,0,0,1-1.66-.311c-1.96-1.357-3.761-2.918-5.625-4.4-1.5-1.193-2.991-2.406-4.435-3.667-.656-.573-1.377-.359-2.078-.369-.395-.006-.252.4-.249.627a11.928,11.928,0,0,1-.387,3.634,6.844,6.844,0,0,1-5.426,4.59c-4.178.306-8.362.08-12.543.107a3.525,3.525,0,0,0-2.361.822c-2.172,1.777-4.328,3.58-6.582,5.248a10.636,10.636,0,0,1-2.408,1.643c-.3.118-.5.582-.878.783a2.15,2.15,0,0,1-2.328-.148,2.366,2.366,0,0,1-1.157-2.144c.091-1.94,0-3.878.054-5.816a.188.188,0,0,0-.01-.272c-.085-.064-.191-.024-.242.09m45.255-8.27c.288-.13.118-.3.047-.47.036-1.079.029-2.162.119-3.237a2.491,2.491,0,0,1,2.469-2.268c1.214-.022,2.428-.055,3.641-.029a2.147,2.147,0,0,0,2.5-2.461c-.057-3.482-.037-6.965-.043-10.448-.006-3.773,0-7.547-.008-11.32,0-1.576-.358-1.97-1.844-2.395a6.26,6.26,0,0,0-1.8-.1c-8.575,0-17.151.034-25.726-.024C91.57,5.037,90.807,5.578,91,8.376a.468.468,0,0,1,0,.079c-.06.461.166.587.6.58q3.072-.055,6.14.139a5.886,5.886,0,0,1,3.11,1.058,7.321,7.321,0,0,1,3.095,6.335c.005,4.722,0,9.445.017,14.168,0,1.262-.184,1.109,1.079,1.075a4.63,4.63,0,0,1,3.481.876c1.425,1.245,2.914,2.419,4.4,3.593a11.613,11.613,0,0,0,1.959,1.532m-39.7,8.761c1.617-1.285,3.275-2.521,4.839-3.866a7.677,7.677,0,0,1,5.666-1.882c3.66.154,7.331.049,11,.036,1.554-.005,2.217-.683,2.261-2.248.01-.369.01-.739.01-1.108q0-9.456,0-18.912c0-.844.026-1.689-.015-2.532a1.91,1.91,0,0,0-1.551-1.953A10.882,10.882,0,0,0,95.9,14q-6.41-.017-12.819-.011c-4.876.013-9.753-.089-14.627.109-1.416.057-2.176.552-2.175,2.11q.007,11.318,0,22.634A1.827,1.827,0,0,0,68.3,40.866c1.413.046,2.824-.053,4.241.122A2.247,2.247,0,0,1,74.7,42.659a11.792,11.792,0,0,1,.212,3.906c-.079.116,0,.193.088.219.2.061.125-.139.185-.214" transform="translate(-22.318 0)"/>
        <path id="Trazado_824184" data-name="Trazado 824184" d="M118.8,234.947c-.163-.018-.581.331-.357-.247.178,0,.344.012.357.247" transform="translate(-43.139 -85.528)" fill="#8c9ba8"/>
        <path id="Trazado_824185" data-name="Trazado 824185" d="M214.415,195.388a.267.267,0,0,1,.335-.023c-.011.127-.041.242-.2.231-.133-.008-.132-.111-.132-.208" transform="translate(-78.136 -71.176)" fill="#8c9ba8"/>
        <path id="Trazado_824186" data-name="Trazado 824186" d="M153.728,59.62l0-.367c.146,0,.25.065.225.222-.017.109-.116.152-.227.146" transform="translate(-56.021 -21.593)" fill="#8c9ba8"/>
        <path id="Trazado_824187" data-name="Trazado 824187" d="M74.429,72.429c.05-.114.157-.153.242-.09a.188.188,0,0,1,.01.272.238.238,0,0,1-.252-.182" transform="translate(-27.123 -26.351)" fill="#8c9ba8"/>
        <path id="Trazado_824188" data-name="Trazado 824188" d="M8.048,103.484c.064-3.43,3.736-6.351,7.458-5.75a12.776,12.776,0,0,1,7.209,3.89c5.9,5.887,11.82,11.746,17.673,17.673a5.046,5.046,0,0,0,3.965,1.649c6.406-.08,12.813-.041,19.219-.036a3.532,3.532,0,0,1,3.667,2.265,3.227,3.227,0,0,1-2.788,4.422l-.22.025-.374.013-.217.013-.466.013c-.058-.081-.115-.078-.17,0l-.463,0c-.058-.085-.115-.082-.172,0l-1.1-.017c-.057-.074-.113-.072-.168,0l-.465,0c-.057-.074-.113-.072-.168,0l-.465,0c-.057-.074-.114-.072-.168,0l-.465,0c-.057-.074-.113-.072-.168,0l-.465,0c-.057-.073-.113-.072-.168,0l-.465,0c-.057-.073-.113-.072-.168,0l-.465,0c-.057-.073-.113-.072-.168,0l-.465,0c-.057-.073-.114-.072-.168,0l-.465,0c-.057-.073-.113-.072-.168,0l-.465,0c-.057-.073-.113-.072-.168,0l-.465,0c-.057-.073-.114-.072-.168,0l-.465,0c-.057-.073-.113-.072-.168,0l-.465,0c-.057-.073-.113-.072-.168,0l-.465,0c-.057-.073-.114-.072-.168,0l-.465,0c-.057-.073-.113-.072-.168,0l-.465,0c-.058-.073-.114-.072-.169,0l-.465,0c-.057-.073-.114-.072-.168,0l-.465,0c-.057-.073-.113-.072-.168,0l-.465,0c-.057-.073-.112-.072-.168,0l-.465,0c-.057-.073-.114-.072-.168,0l-.466,0c-.057-.073-.113-.072-.168,0l-.465,0c-.057-.073-.112-.072-.168,0l-.464,0c-.058-.073-.114-.072-.168,0l-.466,0c-.057-.073-.113-.072-.168,0l-.465,0c-.057-.073-.113-.072-.168,0l-.465,0c-.057-.073-.113-.072-.168,0l-.465,0c-.058-.073-.114-.072-.168,0l-.466,0c-.057-.073-.113-.072-.168,0l-.313,0a.2.2,0,0,0-.318,0l-.315,0a.2.2,0,0,0-.318.005l-.467,0c-.057-.074-.114-.072-.168,0l-.467-.008c-.054-.071-.11-.071-.165,0L41,127.628l-.192-.011a4.264,4.264,0,0,1-3.188-1.49q-7.149-7.17-14.323-14.314c-.757-.753-1.461-1.6-2.721-1.526a2.37,2.37,0,0,0-2.043,3.3,4.963,4.963,0,0,0,1.061,1.364c1.609,1.6,3.208,3.206,4.831,4.79a1.954,1.954,0,0,1,.618,1.536c-.025,6.356-.017,12.711-.019,19.066,0,1.018,0,1-1.03,1q-7.634-.025-15.267-.022c-.6,0-.815-.126-.814-.788q.042-17.6.037-35.205c0-.552.048-1.1.074-1.654.007-.062.015-.125.022-.187" transform="translate(-2.884 -35.587)" fill="#9cc5fa"/>
        <path id="Trazado_824189" data-name="Trazado 824189" d="M153.244,127.644c-.948.015-1.9.043-2.846.044-6.543.006-13.085,0-19.628.016a3.577,3.577,0,0,1-3.861-2.657,3.466,3.466,0,0,1,2.333-3.956,9.585,9.585,0,0,1,2.106-.177c6.279,0,12.558-.032,18.836.02a4.855,4.855,0,0,0,3.762-1.565q9.014-9.116,18.126-18.135a11.231,11.231,0,0,1,5.466-3.3,7.328,7.328,0,0,1,6.826,1.459,5.46,5.46,0,0,1,1.913,3.932c.354,10.49.07,20.986.156,31.479.014,1.715.01,3.43.007,5.145,0,1.1-.428,1.543-1.506,1.4a29.214,29.214,0,0,0-3.629-.095q-4.391-.026-8.784,0c-.814,0-1.629.044-2.439.119-.587.055-.767-.144-.763-.734.024-5.488.023-10.976.028-16.464,0-.95.031-1.9-.02-2.849a1.862,1.862,0,0,1,.622-1.539q2.544-2.492,5.045-5.027a2.78,2.78,0,0,0,1.019-2.134,2.4,2.4,0,0,0-3.779-1.911,22.247,22.247,0,0,0-1.951,1.845q-6.717,6.711-13.424,13.431a4.653,4.653,0,0,1-3.545,1.686l-.018-.063Z" transform="translate(-46.215 -35.593)" fill="#fedf7c"/>
        <path id="Trazado_824190" data-name="Trazado 824190" d="M26.469,173.926q8.626,0,17.252,0a4.818,4.818,0,0,1,4.119,1.777,5.019,5.019,0,0,1,.907,2.392,19.511,19.511,0,0,1,.13,2.938c-.024,11.081-.009,22.162-.013,33.242,0,.764-.051,1.529-.114,2.291a4.415,4.415,0,0,1-4.246,3.947,4.242,4.242,0,0,1-4.464-4.472c.013-10.052-.009-20.1.025-30.155a3.155,3.155,0,0,0-1.248-2.728,2.944,2.944,0,0,0-1.8-.392q-11.633,0-23.267-.018a7.007,7.007,0,0,1-3.018-.265,4.424,4.424,0,0,1-2.821-3.834q.028-2.018-.018-4.036c-.011-.473.128-.678.615-.669.738.014,1.476-.013,2.215-.014q7.874,0,15.749,0Z" transform="translate(-2.875 -63.381)" fill="#8c9ba8"/>
        <path id="Trazado_824191" data-name="Trazado 824191" d="M156.221,197.69q0-8.9,0-17.8a9.279,9.279,0,0,1,.231-2.726c.679-2.228,2.34-3.125,4.535-3.222.922-.041,1.846-.008,2.769-.008q16.22,0,32.44,0c.739,0,1,.181.993.961a40.585,40.585,0,0,1-.181,4.559,4.273,4.273,0,0,1-3.359,3.174,13.86,13.86,0,0,1-2.523.137q-11.71.006-23.421.011a2.532,2.532,0,0,0-2.6,1.876,3.341,3.341,0,0,0-.079,1.168q-.009,14.917,0,29.833a4.593,4.593,0,0,1-3.923,4.929,4.438,4.438,0,0,1-4.31-2.335,7.445,7.445,0,0,1-.559-3.455q-.016-8.546-.005-17.092Z" transform="translate(-56.929 -63.378)" fill="#8c9ba8"/>
        <path id="Trazado_824192" data-name="Trazado 824192" d="M95.837,161.318H64.81c-1.122,0-1.117,0-1.114-1.123,0-2.269.037-4.539-.015-6.807-.018-.759.172-.958.945-.957q20.065.039,40.13.019h22.163c1.077,0,1.075,0,1.079,1.088.008,2.3-.013,4.591.043,6.886.019.75-.235.909-.938.908q-15.633-.031-31.265-.014" transform="translate(-23.206 -55.548)" fill="#8c9ba8"/>
        <path id="Trazado_824193" data-name="Trazado 824193" d="M36.565,65.724l-.048,1.139c-.118-.027-.2.021-.217.135-.006.048.066.1.1.158a10.244,10.244,0,0,1-1.7,5.271,12.16,12.16,0,0,1-7.03,5.214A6.325,6.325,0,0,1,26,77.967l-.16.022a11.333,11.333,0,0,1-6.115-.851,11.653,11.653,0,0,1-7.119-8.606A11.946,11.946,0,0,1,27.676,54.485a11.3,11.3,0,0,1,8.2,7.634,8.278,8.278,0,0,1,.564,2.859c-.637.364.163.483.126.745" transform="translate(-4.497 -19.676)" fill="#fecabd"/>
        <path id="Trazado_824194" data-name="Trazado 824194" d="M190.025,54.056A11.768,11.768,0,0,1,202.24,66a12.083,12.083,0,1,1-12.215-11.939" transform="translate(-64.893 -19.696)" fill="#fecabd"/>
        <path id="Trazado_824195" data-name="Trazado 824195" d="M109.519,245.53c-2.53,0-5.059-.011-7.588.01-.467,0-.63-.093-.631-.6,0-1.7.44-2.194,2.158-2.193q6.086,0,12.173.027c1.712.008,2.154.5,2.168,2.145.005.572-.225.624-.691.62-2.529-.018-5.059-.008-7.588-.008" transform="translate(-36.915 -88.46)" fill="#8c9ba8"/>
        <path id="Trazado_824196" data-name="Trazado 824196" d="M50.241,72.023c.037-.262-.764-.381-.126-.745.249.214.149.486.126.745" transform="translate(-18.172 -25.975)" fill="#8c9ba8"/>
        <path id="Trazado_824197" data-name="Trazado 824197" d="M50.14,74.531c-.036-.053-.108-.11-.1-.158.013-.113.1-.161.217-.135.06.137.05.245-.115.293" transform="translate(-18.234 -27.051)" fill="#8c9ba8"/>
        <path id="Trazado_824198" data-name="Trazado 824198" d="M62.713,144.807a.2.2,0,0,1,.319-.005.287.287,0,0,1-.319.005" transform="translate(-22.854 -52.739)" fill="#8c9ba8"/>
        <path id="Trazado_824199" data-name="Trazado 824199" d="M63.71,144.805a.2.2,0,0,1,.318-.005.284.284,0,0,1-.318.005" transform="translate(-23.217 -52.739)" fill="#8c9ba8"/>
        <path id="Trazado_824200" data-name="Trazado 824200" d="M8.1,106.826c-.008.062-.015.125-.022.187a.755.755,0,0,1-.026-.133c0-.018.032-.036.048-.054" transform="translate(-2.933 -38.929)" fill="#8c9ba8"/>
        <path id="Trazado_824201" data-name="Trazado 824201" d="M71.677,144.82c.055-.074.111-.076.168,0l-.168,0" transform="translate(-26.12 -52.754)" fill="#8c9ba8"/>
        <path id="Trazado_824202" data-name="Trazado 824202" d="M69.684,144.82c.055-.074.111-.076.168,0l-.168,0" transform="translate(-25.394 -52.754)" fill="#8c9ba8"/>
        <path id="Trazado_824203" data-name="Trazado 824203" d="M70.681,144.82c.055-.074.111-.076.168,0l-.168,0" transform="translate(-25.757 -52.754)" fill="#8c9ba8"/>
        <path id="Trazado_824204" data-name="Trazado 824204" d="M67.692,144.82c.055-.074.111-.076.168,0l-.168,0" transform="translate(-24.668 -52.754)" fill="#8c9ba8"/>
        <path id="Trazado_824205" data-name="Trazado 824205" d="M72.673,144.82c.055-.074.111-.076.168,0l-.168,0" transform="translate(-26.483 -52.754)" fill="#8c9ba8"/>
        <path id="Trazado_824206" data-name="Trazado 824206" d="M73.67,144.82c.055-.074.111-.076.168,0l-.168,0" transform="translate(-26.846 -52.754)" fill="#8c9ba8"/>
        <path id="Trazado_824207" data-name="Trazado 824207" d="M74.666,144.82c.055-.074.111-.076.168,0l-.168,0" transform="translate(-27.209 -52.754)" fill="#8c9ba8"/>
        <path id="Trazado_824208" data-name="Trazado 824208" d="M75.662,144.82c.055-.074.111-.076.168,0l-.168,0" transform="translate(-27.572 -52.754)" fill="#8c9ba8"/>
        <path id="Trazado_824209" data-name="Trazado 824209" d="M76.659,144.82c.055-.074.111-.076.168,0l-.168,0" transform="translate(-27.936 -52.754)" fill="#8c9ba8"/>
        <path id="Trazado_824210" data-name="Trazado 824210" d="M77.655,144.82c.055-.074.111-.076.168,0l-.168,0" transform="translate(-28.299 -52.754)" fill="#8c9ba8"/>
        <path id="Trazado_824211" data-name="Trazado 824211" d="M78.651,144.82c.055-.074.111-.076.168,0l-.168,0" transform="translate(-28.662 -52.754)" fill="#8c9ba8"/>
        <path id="Trazado_824212" data-name="Trazado 824212" d="M79.648,144.82c.055-.074.111-.076.168,0l-.168,0" transform="translate(-29.025 -52.754)" fill="#8c9ba8"/>
        <path id="Trazado_824213" data-name="Trazado 824213" d="M80.644,144.82c.055-.074.111-.076.168,0l-.168,0" transform="translate(-29.388 -52.754)" fill="#8c9ba8"/>
        <path id="Trazado_824214" data-name="Trazado 824214" d="M81.641,144.82c.055-.074.111-.076.168,0l-.168,0" transform="translate(-29.751 -52.754)" fill="#8c9ba8"/>
        <path id="Trazado_824215" data-name="Trazado 824215" d="M82.637,144.82c.055-.074.111-.076.168,0l-.168,0" transform="translate(-30.114 -52.754)" fill="#8c9ba8"/>
        <path id="Trazado_824216" data-name="Trazado 824216" d="M83.633,144.82c.055-.074.111-.076.168,0l-.168,0" transform="translate(-30.477 -52.754)" fill="#8c9ba8"/>
        <path id="Trazado_824217" data-name="Trazado 824217" d="M84.63,144.82c.055-.074.111-.076.168,0l-.168,0" transform="translate(-30.84 -52.754)" fill="#8c9ba8"/>
        <path id="Trazado_824218" data-name="Trazado 824218" d="M85.626,144.82c.055-.074.111-.076.168,0l-.168,0" transform="translate(-31.203 -52.754)" fill="#8c9ba8"/>
        <path id="Trazado_824219" data-name="Trazado 824219" d="M86.622,144.82c.055-.074.111-.076.168,0l-.168,0" transform="translate(-31.566 -52.754)" fill="#8c9ba8"/>
        <path id="Trazado_824220" data-name="Trazado 824220" d="M87.618,144.82c.055-.074.111-.076.168,0l-.168,0" transform="translate(-31.929 -52.754)" fill="#8c9ba8"/>
        <path id="Trazado_824221" data-name="Trazado 824221" d="M88.615,144.82c.055-.074.111-.076.168,0l-.168,0" transform="translate(-32.293 -52.754)" fill="#8c9ba8"/>
        <path id="Trazado_824222" data-name="Trazado 824222" d="M89.611,144.82c.055-.074.111-.076.168,0l-.168,0" transform="translate(-32.656 -52.754)" fill="#8c9ba8"/>
        <path id="Trazado_824223" data-name="Trazado 824223" d="M90.607,144.819c.055-.074.111-.076.168,0l-.168,0" transform="translate(-33.019 -52.754)" fill="#8c9ba8"/>
        <path id="Trazado_824224" data-name="Trazado 824224" d="M91.6,144.822c.055-.075.111-.077.169,0l-.169,0" transform="translate(-33.381 -52.754)" fill="#8c9ba8"/>
        <path id="Trazado_824225" data-name="Trazado 824225" d="M93.593,144.842c.057-.083.114-.085.172,0h-.172" transform="translate(-34.107 -52.76)" fill="#8c9ba8"/>
        <path id="Trazado_824226" data-name="Trazado 824226" d="M94.591,144.837c.055-.082.112-.084.17,0l-.17,0" transform="translate(-34.47 -52.758)" fill="#8c9ba8"/>
        <path id="Trazado_824227" data-name="Trazado 824227" d="M95.592,144.84l.217-.013a.147.147,0,0,1-.217.013" transform="translate(-34.835 -52.777)" fill="#8c9ba8"/>
        <path id="Trazado_824228" data-name="Trazado 824228" d="M96.522,144.792l.22-.025c-.066.076-.137.1-.22.025" transform="translate(-35.174 -52.755)" fill="#8c9ba8"/>
        <path id="Trazado_824229" data-name="Trazado 824229" d="M168.394,144.811l.056-.031.018.063-.048.008Z" transform="translate(-61.365 -52.76)" fill="#8c9ba8"/>
        <path id="Trazado_824230" data-name="Trazado 824230" d="M66.695,144.82c.055-.074.111-.076.168,0l-.168,0" transform="translate(-24.305 -52.754)" fill="#8c9ba8"/>
        <path id="Trazado_824231" data-name="Trazado 824231" d="M65.7,144.82c.055-.074.111-.076.168,0l-.168,0" transform="translate(-23.942 -52.754)" fill="#8c9ba8"/>
        <path id="Trazado_824232" data-name="Trazado 824232" d="M64.7,144.82c.055-.074.111-.076.168,0l-.168,0" transform="translate(-23.579 -52.754)" fill="#8c9ba8"/>
        <path id="Trazado_824233" data-name="Trazado 824233" d="M61.713,144.822c.055-.075.111-.077.169,0l-.169,0" transform="translate(-22.489 -52.754)" fill="#8c9ba8"/>
        <path id="Trazado_824234" data-name="Trazado 824234" d="M60.72,144.811c.055-.071.111-.071.166,0H60.72" transform="translate(-22.127 -52.752)" fill="#8c9ba8"/>
        <path id="Trazado_824235" data-name="Trazado 824235" d="M59.669,144.8l.192.011a.117.117,0,0,1-.192-.011" transform="translate(-21.744 -52.766)" fill="#8c9ba8"/>
        <path id="Trazado_824236" data-name="Trazado 824236" d="M33.585,91.736l.161-.023c-.046.062-.1.087-.161.023" transform="translate(-12.239 -33.422)" fill="#8c9ba8"/>
        <path id="Trazado_824237" data-name="Trazado 824237" d="M68.688,144.82c.055-.074.111-.076.168,0l-.168,0" transform="translate(-25.031 -52.754)" fill="#8c9ba8"/>
        <path id="Trazado_824238" data-name="Trazado 824238" d="M77.793,54.574a11.825,11.825,0,0,0-.212-3.906A2.247,2.247,0,0,0,75.424,49c-1.416-.176-2.828-.076-4.24-.122a1.827,1.827,0,0,1-2.024-2.028q-.007-11.318,0-22.634c0-1.557.759-2.052,2.175-2.11,4.874-.2,9.751-.1,14.627-.108,4.273-.011,8.546,0,12.819.011a10.892,10.892,0,0,1,1.488.109,1.911,1.911,0,0,1,1.551,1.953c.04.842.014,1.687.014,2.532q0,9.457,0,18.912c0,.369,0,.739-.011,1.108-.044,1.565-.706,2.243-2.261,2.248-3.667.013-7.338.119-11-.036A7.685,7.685,0,0,0,82.9,50.713c-1.564,1.346-3.222,2.582-4.839,3.866l-.272-.005m7.468-12.54v.034c3.109,0,6.219.031,9.328-.011,1.921-.026,2.638-1.03,2.764-2.337.144-1.493-.819-2.495-2.455-2.683a7.6,7.6,0,0,0-.868-.023q-8.538,0-17.076.005a9.373,9.373,0,0,0-1.255.114,2.347,2.347,0,0,0-2.092,2.616,2.473,2.473,0,0,0,2.328,2.276c3.109.025,6.218.008,9.327.008m3.395-13.16V28.9c-2.029,0-4.057-.024-6.085.008a2.6,2.6,0,0,0-2.621,2.619,2.722,2.722,0,0,0,2.654,2.45q5.255.01,10.511,0a9.656,9.656,0,0,0,2.26-.144A2.387,2.387,0,0,0,97.3,30.87c-.3-1.3-1.054-1.914-2.718-1.977-1.973-.075-3.951-.018-5.926-.018M76.014,33.84a2.467,2.467,0,1,0-2.436-2.48,2.515,2.515,0,0,0,2.436,2.48" transform="translate(-25.202 -8.009)" fill="#f8f9fb"/>
        <path id="Trazado_824239" data-name="Trazado 824239" d="M131.925,40.707a11.621,11.621,0,0,1-1.96-1.532c-1.485-1.174-2.974-2.348-4.4-3.593a4.637,4.637,0,0,0-3.482-.876c-1.263.035-1.075.187-1.079-1.074-.015-4.723-.011-9.445-.016-14.168a7.322,7.322,0,0,0-3.095-6.336,5.884,5.884,0,0,0-3.11-1.057c-2.045-.133-4.092-.175-6.14-.139-.432.008-.657-.118-.6-.579a.416.416,0,0,0,0-.079c-.2-2.8.569-3.339,3.231-3.321,8.575.058,17.15.02,25.725.024a6.264,6.264,0,0,1,1.8.1c1.486.426,1.841.819,1.844,2.4.009,3.773,0,7.546.008,11.32.006,3.483-.013,6.966.043,10.448a2.146,2.146,0,0,1-2.5,2.46c-1.213-.026-2.427.008-3.641.029A2.493,2.493,0,0,0,132.091,37c-.09,1.075-.083,2.158-.119,3.238-.016.157-.031.313-.047.47" transform="translate(-39.363 -2.898)" fill="#f8f9fb"/>
        <path id="Trazado_824240" data-name="Trazado 824240" d="M82.725,73.263l.273.005c-.06.075.011.275-.185.214-.085-.026-.167-.1-.088-.219" transform="translate(-30.134 -26.698)" fill="#8c9ba8"/>
        <path id="Trazado_824241" data-name="Trazado 824241" d="M145.632,59.217c.016-.157.031-.313.047-.47.071.165.24.341-.047.47" transform="translate(-53.07 -21.408)" fill="#8c9ba8"/>
        <path id="Trazado_824242" data-name="Trazado 824242" d="M87.809,50.654c-3.109,0-6.219.017-9.327-.008a2.474,2.474,0,0,1-2.328-2.276,2.347,2.347,0,0,1,2.092-2.616A9.383,9.383,0,0,1,79.5,45.64q8.538-.011,17.076-.005a7.608,7.608,0,0,1,.869.023c1.635.188,2.6,1.189,2.455,2.683-.126,1.307-.843,2.311-2.764,2.336-3.109.041-6.219.011-9.328.011v-.034" transform="translate(-27.75 -16.63)"/>
        <path id="Trazado_824243" data-name="Trazado 824243" d="M94.841,32.816c1.975,0,3.953-.057,5.926.018,1.665.063,2.42.676,2.718,1.977a2.386,2.386,0,0,1-1.926,2.966,9.66,9.66,0,0,1-2.26.144q-5.256,0-10.511,0a2.721,2.721,0,0,1-2.653-2.45,2.6,2.6,0,0,1,2.621-2.619c2.028-.031,4.056-.008,6.084-.008v-.027" transform="translate(-31.388 -11.951)"/>
        <path id="Trazado_824244" data-name="Trazado 824244" d="M78.546,37.816a2.467,2.467,0,1,1,2.508-2.443,2.537,2.537,0,0,1-2.508,2.443" transform="translate(-27.735 -11.985)"/>
      </g>
    </g>
  </g>
</svg>
