<svg xmlns="http://www.w3.org/2000/svg" xmlns:xlink="http://www.w3.org/1999/xlink" width="190" height="174" viewBox="0 0 190 174">
  <defs>
    <clipPath id="clip-path">
      <rect id="Rect치ngulo_377735" data-name="Rect치ngulo 377735" width="190" height="174" transform="translate(390 2505)" fill="none" stroke="#707070" stroke-width="1"/>
    </clipPath>
    <clipPath id="clip-path-2">
      <rect id="Rect치ngulo_377736" data-name="Rect치ngulo 377736" width="142.961" height="148" fill="none"/>
    </clipPath>
  </defs>
  <g id="Enmascarar_grupo_370" data-name="Enmascarar grupo 370" transform="translate(-390 -2505)" clip-path="url(#clip-path)">
    <g id="Grupo_1073513" data-name="Grupo 1073513" transform="translate(416.653 2511.888)">
      <g id="Grupo_1073519" data-name="Grupo 1073519" transform="translate(-4.653 5.112)">
        <g id="Grupo_1073518" data-name="Grupo 1073518" clip-path="url(#clip-path-2)">
          <path id="Trazado_822001" data-name="Trazado 822001" d="M43.006,77.448c.373-1.723.848-2.123,2.513-2.279a21.459,21.459,0,0,1,2.525-.01c.3.008.5-.059.614-.345.689-1.76,1.583-3.423,2.431-5.108A21.85,21.85,0,0,1,52.585,66.8c.178-.251.1-.431-.125-.661a26.412,26.412,0,0,1-3.9-4.791,16.2,16.2,0,0,1-1.478-3.367,10.322,10.322,0,0,1-.607-2.713c-.01-.285-.323-.367-.58-.364A10,10,0,0,1,41,53.358c-2.459-1.319-3.69-3.572-4.522-6.018a8.958,8.958,0,0,1-.162-4.917,11.492,11.492,0,0,1,1.5-3.616,3.2,3.2,0,0,0,.278-1.7c.027-3.371,0-6.742.007-10.112a1.4,1.4,0,0,0-.366-1.047,14.429,14.429,0,0,1-3.13-5.422,13.082,13.082,0,0,1-.509-2.83,2.052,2.052,0,0,1,1.6-2.072c.179-.045.354-.111.53-.167a1.433,1.433,0,0,0,.319.152,2.079,2.079,0,0,1,1.87,1.964,9.5,9.5,0,0,0,3.473,6.38,8.293,8.293,0,0,0,5.14,2.03c10.614.075,21.23.038,31.844.043a14.213,14.213,0,0,0,1.769.063,12.844,12.844,0,0,1,3.775.118,7.8,7.8,0,0,1,6.436,7.222c.028.526.247.744.723.776a9.384,9.384,0,0,1,2.456.507c.572.2.706.091.7-.5-.024-2.432,0-4.865-.016-7.3a61.819,61.819,0,0,0-.246-6.993,17.215,17.215,0,0,0-6.7-11.63,17.652,17.652,0,0,0-11.414-3.95q-18.305,0-36.61,0c-.192,0-.385.006-.577.014a.716.716,0,0,0-.779.822c.006.578,0,1.156-.006,1.733,0,1.728-.5,2.367-2.17,2.8A2.126,2.126,0,0,1,34.07,7.529a25.755,25.755,0,0,1,.041-3.392,4.524,4.524,0,0,1,1.667-2.918,5.8,5.8,0,0,1,3.9-1.211Q57.906,0,76.138.015a22.528,22.528,0,0,1,12.04,3.194A23.49,23.49,0,0,1,96.759,12.6a25.033,25.033,0,0,1,1.728,5.32,20.4,20.4,0,0,1,.547,5.126c.023,5,0,10-.031,15.006,0,.618.435,1,.686,1.47a10.054,10.054,0,0,1,1.117,6.708c-.828,4.628-3.731,7.236-7.91,8.384a5.769,5.769,0,0,1-1.867.3c-.506-.03-.413.409-.461.638a21.991,21.991,0,0,1-1.16,3.972,19.237,19.237,0,0,1-2.384,4.048,19.7,19.7,0,0,1-2.4,2.509.538.538,0,0,0-.111.783,73.187,73.187,0,0,1,3.6,7.359,1.31,1.31,0,0,0,1.419.955c4.6-.053,9.194-.049,13.791-.013a16.294,16.294,0,0,1,4.329.336,18.779,18.779,0,0,1,5.62,2.5,17.251,17.251,0,0,1,5.614,6.7.881.881,0,0,0,.983.578,8.857,8.857,0,0,1,1.654.032,3.063,3.063,0,0,1,2.273,1.563.788.788,0,0,0,.806.424c2-.014,4-.044,5.993.009a5.611,5.611,0,0,1,2.887.675,5.113,5.113,0,0,1,2.533,4.64c.014,3.4.028,6.791-.012,10.187-.008.61-.083,1.23-.1,1.848a.609.609,0,0,0,.477.69,8.012,8.012,0,0,1,6.187,5.953,9.245,9.245,0,0,1,.393,2.53c0,4.311.024,8.621-.009,12.932a8.256,8.256,0,0,1-4.3,7.5,7.587,7.587,0,0,1-1.958.816c-.576.144-.689.409-.682.94q.04,3.395.01,6.791a4.9,4.9,0,0,1-3.705,4.936,7.768,7.768,0,0,1-1.822.24Q68,147.983,5.5,148a5.521,5.521,0,0,1-5.427-4.176,5.876,5.876,0,0,1-.05-1.058c-.019-2.287-.01-4.576-.012-6.863a5,5,0,0,1,1.83-4.048,5.273,5.273,0,0,1,3.3-1.176,29.444,29.444,0,0,1,4.941.081c.8.117,1.01-.168.982-1.018-.016-.481-.03-.963-.045-1.443l.17-.041-.173-.037c-.046-.586.236-1.375-.167-1.7-.351-.286-1.1-.081-1.68-.088a13.482,13.482,0,0,1-2.089-.035,9.583,9.583,0,0,1-2.845-.706,8.028,8.028,0,0,1-2.552-2.066A7.148,7.148,0,0,1,.021,118.94c-.009-4.188-.053-8.377.017-12.565a7.259,7.259,0,0,1,4.4-6.678A7.223,7.223,0,0,1,7.72,99.01c2.718.005,5.437-.013,8.155.014.565.005.75-.142.743-.727-.029-2.647-.049-5.3.007-7.942a14.041,14.041,0,0,1,.536-2.856,20.35,20.35,0,0,1,1.655-4.1,10.217,10.217,0,0,1,1.629-2.276,16.342,16.342,0,0,1,8.021-5.283,22.922,22.922,0,0,1,6.092-.683,2.588,2.588,0,0,1,2.72,2.01,3.178,3.178,0,0,0-.144.4c-.276,1.245-.784,1.759-1.969,1.891-.524.059-1.058.014-1.587.035a13.385,13.385,0,0,0-5.516,1.109,11.9,11.9,0,0,0-6.989,9.425c-.4,2.844-.069,5.723-.184,8.584-.022.553.37.429.7.428,5.51-.006,11.021-.028,16.532,0a3.635,3.635,0,0,1,3.736,3.866c-.013.674,0,1.349-.005,2.023q-.009,12.424-.016,24.848c0,.278-.156.721.135.789.468.11,1.088.436,1.376.276a1.944,1.944,0,0,1,1.057-.192c5.053-.014,10.107,0,15.16-.021a15.159,15.159,0,0,1,1.842.187c.717.085.913-.082.646-.777-.4-1.051-.62-2.156-.936-3.23-.894-3.037-1.669-6.108-2.5-9.163Q55.738,107.115,52.851,96.6q-2.244-8.2-4.469-16.4c-.141-.52-.32-.792-.914-.727a14.136,14.136,0,0,1-1.659.006,2.443,2.443,0,0,1-2.8-2.031M57.739,69.8c.032-.162.1-.334-.105-.439-.893-.717-1.248-.631-1.727.359-.95,1.966-1.857,3.957-2.906,5.869a2.506,2.506,0,0,0,.106,3.036c2.012,2.955,3.836,6.038,5.725,9.078.251.4.4.511.818.11,1.721-1.645,3.48-3.251,5.252-4.842.432-.387.452-.6,0-1-1.933-1.735-3.829-3.512-5.742-5.269a3.948,3.948,0,0,1-1.436-3.221c.055-1.225.011-2.454.011-3.682m77.028,39.623-.186-.006c-1.754,0-3.507-.017-5.261,0a1.361,1.361,0,0,0-1.416.893,1.3,1.3,0,0,0,.515,1.58c.221.184.452.359.661.556a2.016,2.016,0,0,1,.086,2.9,9.025,9.025,0,0,1-.773.645,1.3,1.3,0,0,0-.08,2.1c.262.247.559.457.815.708a2.009,2.009,0,0,1,.09,2.8,7.494,7.494,0,0,1-.822.7,1.3,1.3,0,0,0-.072,2.135,3.835,3.835,0,0,0,.44.373,2.22,2.22,0,0,1,.99,1.751,2.421,2.421,0,0,1-1.181,1.879,1.4,1.4,0,0,0-.7,1.718,1.43,1.43,0,0,0,1.551.926c1.732.02,3.465.031,5.2-.01a4.013,4.013,0,0,0,3.922-3.527,8.621,8.621,0,0,0,.118-1.636c-.068-4.324.166-8.651-.124-12.973a3.877,3.877,0,0,0-2.874-3.32l-.89-.185m-43.058,4.289c1.683.517,2.141,1.055,2.141,2.61q0,13.293-.023,26.585c0,.564.14.768.722.753,1.395-.038,2.791-.021,4.188-.021q15.81,0,31.623,0c1.127,0,1.316-.108,1.33-1.069.034-2.239,0-4.479,0-6.718,0-.345-.147-.468-.482-.456-.6.022-1.2.02-1.8.026a5.7,5.7,0,0,1-5.139-8.485.645.645,0,0,0,.02-.724,5.366,5.366,0,0,1-.02-5.619.564.564,0,0,0,.044-.658,5.369,5.369,0,0,1-.018-5.7.6.6,0,0,0-.038-.719,5.013,5.013,0,0,1-.75-2.57,5.7,5.7,0,0,1,3.6-5.467,9.447,9.447,0,0,1,3.84-.414c.567.008.8-.163.778-.779-.111-3.939.136-7.883-.134-11.823-.038-.561-.2-.815-.715-.819q-2.924-.025-5.847-.016c-.374,0-.583.182-.553.632.045.695.014,1.4.006,2.094-.03,2.691-1.474,4.118-4.18,4.121s-5.391,0-8.086,0c-2.551,0-5.1.027-7.651-.037a3.5,3.5,0,0,1-3.3-2.662,21.109,21.109,0,0,1-.281-3.48c-.063-.58-.194-.7-.741-.686-1.684.035-3.369.011-5.054.01-1.221,0-1.334.1-1.335,1.3q-.005,6.032,0,12.065c0,1.993-.263,2.356-2.157,2.989-1.54-.265-2.148-.934-2.151-2.472-.01-4.407,0-8.815,0-13.222a4.9,4.9,0,0,1,1.425-3.422A5.341,5.341,0,0,1,95.011,87.3c1.973-.048,3.947-.01,5.921-.014.25,0,.508.07.692-.234a4.087,4.087,0,0,1,3.883-1.881c2.72.019,5.44,0,8.16,0,.177,0,.416.1.513-.128.081-.185-.126-.291-.222-.417A11.283,11.283,0,0,0,107.128,80a13.648,13.648,0,0,0-2.566-.487c-5.006-.038-10.013-.019-15.02-.034a.621.621,0,0,0-.707.534c-2.566,9.2-5.006,18.431-7.61,27.619-.85,3-1.629,6.024-2.433,9.039-1.194,4.476-2.455,8.934-3.707,13.4-.131.465-.042.574.431.579.773.008,1.545.01,2.319,0q5.417-.051,10.832,0c.681.006.887-.142.882-.858-.032-4.5-.018-9.007,0-13.51a2.309,2.309,0,0,1,2.165-2.562M68.47,30.355v-.009c-3.85,0-7.7-.012-11.55.008a25.2,25.2,0,0,0-3.576.116,3.505,3.505,0,0,0-2.8,3c-.014,6.477.006,12.954-.024,19.43a10.918,10.918,0,0,0,.5,3.363,13.964,13.964,0,0,0,5.786,7.743,12.5,12.5,0,0,0,6.166,2.133c3.263.162,6.542.036,9.814.041a14.411,14.411,0,0,0,2.618-.26,13.38,13.38,0,0,0,9.177-6.26,13.642,13.642,0,0,0,2.044-7.585c-.013-6.227.182-12.455-.108-18.68a3.452,3.452,0,0,0-2.628-2.9,20.864,20.864,0,0,0-2.5-.154c-4.307.015-8.614.008-12.922.008m-21.3,113.271v.009q20.829,0,41.658.012c.541,0,.708-.145.7-.686-.019-2.407-.027-4.816.022-7.223.014-.666-.2-.786-.813-.785-7.219.021-14.44-.006-21.659.027-1.476.007-2.952.045-4.428.039-1.824-.006-3.647.012-5.47.016s-3.642.006-5.463.009c-1.844,0-3.687.016-5.53,0-1.491-.013-3,.144-4.467.014-1.252-.111-2.472.146-3.7.024-1.032-.1-2.061-.035-3.091-.052-1.823-.03-3.647-.005-5.47,0s-3.642.022-5.463.017-3.645-.045-5.469-.04c-2.015.006-4.03.074-6.044.064-2.281-.01-4.56-.09-6.841-.114-1.084-.011-1.286.214-1.289,1.31,0,1.854.021,3.708,0,5.562-.017,1.753.006,1.795,1.731,1.795h41.08M37.558,117.1h-.016c0-4.308-.008-8.617.009-12.925,0-.6-.136-.857-.8-.854q-10.355.03-20.71,0c-.581,0-.8.174-.739.731.017.167,0,.337,0,.5q0,12.635-.02,25.27c0,.66.145.849.823.846,6.639-.026,13.278-.016,19.917-.016a4.157,4.157,0,0,1,.577.008c.956.136.956.14.956-.854V117.1m30.964,7.035c.835,0,1.509,0,2.183,0,1.461-.008,1.509-.018,1.833-1.42.381-1.648,1.178-3.217.927-4.989-.239-1.686-.436-3.379-.654-5.069q-.469-3.642-.942-7.283c-.238-1.856-.473-3.713-.694-5.572-.037-.3-.072-.494-.448-.489-1.443.018-2.888.012-4.332.012-.267,0-.513.057-.481.384.119,1.223-.4,2.352-.483,3.562-.212,2.936-.633,5.861-1.066,8.776-.154,1.029.147,2.194-.709,3.072-.018.019.021.136.062.162.33.21.169.518.161.789-.027,1.008-.455,2-.249,3,.311,1.5.752,2.977,1.134,4.464.083.322.27.422.611.471a25.611,25.611,0,0,0,3.146.129M10.995,112.8c0-2.937-.012-5.875.01-8.812,0-.482-.081-.684-.615-.661-.96.042-1.928-.041-2.884.031-.429.032-.927-.2-1.263.05a4.111,4.111,0,0,0-1.921,3.434c.023,4.045,0,8.089.013,12.134a3.149,3.149,0,0,0,.7,1.912,2.868,2.868,0,0,0,1.957,1.2c1.12.112,2.259.014,3.388.047.516.015.635-.173.631-.668-.024-2.889-.012-5.779-.012-8.668M77.929,88.149a1.836,1.836,0,0,0,.188-.218q3.256-5.138,6.512-10.277a1.068,1.068,0,0,0-.039-1.146c-1.146-2.322-2.281-4.65-3.429-6.973-.168-.34-.244-.855-.825-.672-.539.171-1,.392-.957,1.13.061,1.152.031,2.308.035,3.463a3.906,3.906,0,0,1-1.25,3.018c-1.936,1.8-3.845,3.636-5.816,5.4-.535.479-.5.729-.016,1.167,1.876,1.687,3.728,3.4,5.6,5.11m-2.792-16.18c-.027-.478.1-1.051-.119-1.409-.3-.483-.881.064-1.338-.05a.331.331,0,0,0-.072,0c-3.221,0-6.443,0-9.664-.012a4.182,4.182,0,0,1-1.423-.089c-.376-.13-.5.128-.483.485a19.621,19.621,0,0,1,.1,1.984,1.258,1.258,0,0,0,.452,1.159c1.848,1.717,3.7,3.426,5.525,5.17.381.364.592.3.932-.02,1.641-1.553,3.276-3.115,4.97-4.611a2.524,2.524,0,0,0,1.121-2.607M112.8,94.181v.013c2.282,0,4.565-.013,6.847.012.4,0,.509-.14.509-.49,0-1.13.025-2.26-.01-3.389-.013-.4-.055-.8-.712-.8-4.469.027-8.938.014-13.408-.009-.5,0-.676.142-.661.648.035,1.153.04,2.308.022,3.461-.006.431.1.571.564.566,2.282-.029,4.565-.013,6.847-.013m-44.2.622v-.011q1.3,0,2.6,0c.275,0,.526-.017.643-.336a41.876,41.876,0,0,1,1.695-3.9.52.52,0,0,0-.133-.7q-2.232-2.05-4.453-4.111a.444.444,0,0,0-.691-.027Q66,87.785,63.732,89.839a.578.578,0,0,0-.169.759c.553,1.219,1.084,2.447,1.608,3.678a.764.764,0,0,0,.821.535c.865-.027,1.732-.008,2.6-.008M46.205,44.827c-.067-1.578.1-3.567-.114-5.557-.06-.563-.181-.768-.723-.68a4.849,4.849,0,0,0-.494.083,5.982,5.982,0,0,0-4.168,7.752,6.2,6.2,0,0,0,4.667,4.143c.665.182.829.009.83-.713,0-1.54,0-3.079,0-5.029m44.769-.315h0c0,1.8.01,3.609-.006,5.414,0,.538.134.694.719.592a6.012,6.012,0,0,0,4.966-6.406,6.119,6.119,0,0,0-1.434-3.593,5.418,5.418,0,0,0-3.658-1.937c-.454-.043-.606.1-.6.591.033,1.78.013,3.56.013,5.341M60.286,107.675a26.19,26.19,0,0,0,.8-4.435c.176-1.331.376-2.658.563-3.987a4.714,4.714,0,0,0-.334-3.261,16.366,16.366,0,0,1-1.076-2.432c-.155-.4-.342-.56-.789-.5A3.173,3.173,0,0,1,56.2,91.525c-.1-.154-.213-.256-.4-.15l4.486,16.3M81.278,91.387c-.2.012-.236,0-.246.017-.086.114-.165.232-.249.347a3.456,3.456,0,0,1-3.04,1.432c-.451-.013-.614.056-.785.434-.49,1.089-1.012,2.163-1.532,3.238a1.728,1.728,0,0,0-.179.962c.1.891.2,1.786.332,2.667.257,1.673.432,3.357.686,5.03.108.717.241,1.43.363,2.146l.144,0,4.506-16.27M42.449,32.059h-.006c0,.746.01,1.492,0,2.237-.008.476.15.581.609.414a6.253,6.253,0,0,1,2.53-.47c.474.03.625-.173.64-.631a6.572,6.572,0,0,1,.638-2.715c.212-.43.131-.631-.346-.652a11.507,11.507,0,0,1-3.568-.791c-.409-.155-.509-.028-.5.371.019.745.005,1.491.005,2.236" transform="translate(0 0)"/>
          <path id="Trazado_822002" data-name="Trazado 822002" d="M62.5,12.854c1.671-.434,2.166-1.073,2.17-2.8,0-.578.012-1.156.006-1.734a.716.716,0,0,1,.779-.822c.192-.007.385-.014.577-.014q18.305,0,36.61,0a17.647,17.647,0,0,1,11.414,3.951,17.214,17.214,0,0,1,6.7,11.63,61.945,61.945,0,0,1,.246,6.992c.013,2.433-.009,4.865.015,7.3.006.587-.129.7-.7.5a9.309,9.309,0,0,0-2.456-.507c-.475-.032-.694-.25-.723-.777a7.8,7.8,0,0,0-6.436-7.221,12.863,12.863,0,0,0-3.775-.118,14.092,14.092,0,0,1-1.769-.063c-10.614-.006-21.23.031-31.844-.043a8.3,8.3,0,0,1-5.141-2.03,9.5,9.5,0,0,1-3.473-6.38,2.079,2.079,0,0,0-1.87-1.964,1.437,1.437,0,0,1-.32-.152q0-2.872-.009-5.745" transform="translate(-26.28 -3.146)" fill="#c96d58"/>
          <path id="Trazado_822003" data-name="Trazado 822003" d="M58.146,133.429a2.443,2.443,0,0,0,2.8,2.031,14.276,14.276,0,0,0,1.659-.006c.594-.065.773.206.913.726q2.214,8.206,4.469,16.4,2.878,10.52,5.762,21.038c.835,3.054,1.61,6.126,2.5,9.163.316,1.074.532,2.18.936,3.231.267.694.071.862-.646.777A15.042,15.042,0,0,0,74.7,186.6c-5.053.021-10.107.008-15.16.022a1.943,1.943,0,0,0-1.057.191c-.288.16-.908-.166-1.376-.276-.291-.068-.134-.511-.134-.789q.005-12.424.016-24.848c0-.674-.008-1.349,0-2.022a3.634,3.634,0,0,0-3.736-3.866c-5.511-.026-11.021,0-16.532,0-.331,0-.723.125-.7-.428.115-2.861-.221-5.74.184-8.584a11.894,11.894,0,0,1,6.989-9.426,13.394,13.394,0,0,1,5.516-1.109c.529-.021,1.063.024,1.586-.035,1.186-.132,1.694-.646,1.97-1.892a3.136,3.136,0,0,1,.144-.4,2.477,2.477,0,0,0,1.032.174,37.469,37.469,0,0,1,4.7.11" transform="translate(-15.139 -55.981)" fill="#a69aa6"/>
          <path id="Trazado_822004" data-name="Trazado 822004" d="M18.988,221.243l.173.036-.171.041-.033-.038.031-.039" transform="translate(-7.97 -93.021)" fill="#c96d58"/>
          <path id="Trazado_822005" data-name="Trazado 822005" d="M158.219,174.438c1.894-.632,2.157-1,2.157-2.988q0-6.032,0-12.065c0-1.2.114-1.3,1.335-1.3,1.685,0,3.37.026,5.054-.01.546-.012.677.106.741.687a21.108,21.108,0,0,0,.281,3.48,3.5,3.5,0,0,0,3.3,2.661c2.549.065,5.1.033,7.651.038q4.043.007,8.086,0c2.707,0,4.151-1.429,4.18-4.121.008-.7.039-1.4-.006-2.094-.03-.45.178-.63.553-.632q2.924-.012,5.848.016c.52,0,.676.258.715.819.27,3.94.023,7.884.134,11.823.017.617-.212.786-.778.779a9.447,9.447,0,0,0-3.84.414,5.7,5.7,0,0,0-3.6,5.467,5,5,0,0,0,.749,2.57.6.6,0,0,1,.038.719,5.367,5.367,0,0,0,.019,5.7.564.564,0,0,1-.044.658,5.364,5.364,0,0,0,.02,5.619.644.644,0,0,1-.02.724,5.7,5.7,0,0,0,5.139,8.484c.6-.006,1.2,0,1.8-.025.336-.013.483.111.482.456,0,2.239.031,4.479,0,6.718-.014.961-.2,1.069-1.331,1.069q-15.811,0-31.623,0c-1.4,0-2.792-.016-4.187.021-.582.016-.723-.189-.722-.753q.033-13.292.024-26.585c0-1.555-.458-2.093-2.141-2.61q-.007-2.871-.013-5.741" transform="translate(-66.523 -66.462)" fill="#ffe176"/>
          <path id="Trazado_822006" data-name="Trazado 822006" d="M105.125,52.369c4.307,0,8.614.008,12.922-.008a20.875,20.875,0,0,1,2.5.154,3.452,3.452,0,0,1,2.628,2.9c.289,6.226.1,12.454.108,18.681a13.64,13.64,0,0,1-2.044,7.585,13.384,13.384,0,0,1-9.177,6.261,14.461,14.461,0,0,1-2.618.26c-3.272,0-6.55.122-9.814-.041a12.493,12.493,0,0,1-6.165-2.132,13.961,13.961,0,0,1-5.786-7.743,10.918,10.918,0,0,1-.5-3.363c.03-6.476.01-12.953.024-19.43a3.5,3.5,0,0,1,2.8-3,25.189,25.189,0,0,1,3.575-.118c3.85-.019,7.7-.007,11.55-.007Zm-.1,29.773a6.528,6.528,0,0,0,1.787-.148,10.3,10.3,0,0,0,5.761-2.886,2.064,2.064,0,0,0,.16-3.076,2.344,2.344,0,0,0-3.075-.05,6.965,6.965,0,0,1-3.484,1.728,5.93,5.93,0,0,1-5.4-1.709,3.142,3.142,0,0,0-2.634-.389,2.166,2.166,0,0,0-.536,3.179,6.61,6.61,0,0,0,1.761,1.529,11.446,11.446,0,0,0,5.656,1.823m2.246-20.135a2.162,2.162,0,0,0-.108-.968,1.8,1.8,0,0,0-1.444-1.161c-.9-.073-1.806-.052-2.308.92-1.021,1.976-2.05,3.948-3.056,5.931a1.932,1.932,0,0,0,.178,2.224,38.17,38.17,0,0,0,3.342,3.669,2.026,2.026,0,0,0,2.738.012,2.309,2.309,0,0,0,.048-3.222c-.487-.462-.9-1-1.369-1.485a.821.821,0,0,1-.14-1.136c.659-1.2,1.24-2.44,1.856-3.662a1.712,1.712,0,0,0,.263-1.122M93.7,61.971c0,.683-.025,1.239.005,1.791a2.159,2.159,0,0,0,1.958,2.06,2.008,2.008,0,0,0,2.265-1.749,11.568,11.568,0,0,0-.04-3.737,2.009,2.009,0,0,0-1.649-1.611,2.151,2.151,0,0,0-2.264,1.064c-.461.737-.187,1.541-.275,2.181m18.782.3h0c0,.408-.008.817,0,1.225a2.1,2.1,0,0,0,2.164,2.309,2.128,2.128,0,0,0,2.154-2.345,16.846,16.846,0,0,0-.114-2.855,2.047,2.047,0,0,0-2.081-1.909,2.026,2.026,0,0,0-2.115,1.919c-.042.549-.007,1.1-.007,1.656M99.476,64.433c.011.3-.009.575.282.581s.337-.268.268-.478c-.112-.344-.068-.555.317-.635.151-.031.294-.162.261-.3-.11-.459.264-.654.409-.962a10.392,10.392,0,0,0,.677-1.419,1.532,1.532,0,0,1,.626-.938,4.641,4.641,0,0,0,.857-.757c.323-.409.552-.894,1.181-.409a.253.253,0,0,0,.388-.191c.03-.207-.169-.188-.306-.194-.193-.008-.4.011-.541-.146-.488-.54-.655-.118-1,.217-.252.242-.888-.334-1.187.27a2.319,2.319,0,0,0-.172.473,2.172,2.172,0,0,1-.7,1.227,1.221,1.221,0,0,0-.355.693,6.931,6.931,0,0,1-.522,1.407,9.745,9.745,0,0,0-.485,1.564" transform="translate(-36.654 -22.013)" fill="#ffe176"/>
          <path id="Trazado_822007" data-name="Trazado 822007" d="M50.33,241.533H9.25c-1.726,0-1.749-.042-1.732-1.8.018-1.853-.006-3.708,0-5.562,0-1.1.2-1.321,1.288-1.31,2.281.023,4.56.1,6.841.114,2.015.009,4.029-.058,6.044-.064,1.823-.005,3.646.035,5.469.04s3.642-.013,5.463-.017,3.648-.03,5.471,0c1.029.017,2.059-.05,3.09.052,1.227.121,2.448-.135,3.7-.024,1.47.13,2.975-.028,4.467-.015,1.843.016,3.687,0,5.53,0q2.731,0,5.463-.009c1.823,0,3.647-.023,5.47-.016,1.477.005,2.953-.032,4.428-.039,7.219-.033,14.44-.006,21.659-.027.614,0,.827.118.814.785-.049,2.407-.041,4.815-.023,7.223,0,.541-.162.687-.7.686q-20.828-.023-41.657-.012Z" transform="translate(-3.16 -97.906)" fill="#25a6fe"/>
          <path id="Trazado_822008" data-name="Trazado 822008" d="M48.649,192.053v12.708c0,.994,0,.99-.956.854a4.155,4.155,0,0,0-.577-.008c-6.639,0-13.278-.01-19.917.016-.678,0-.825-.187-.823-.846q.038-12.635.02-25.269c0-.169.013-.338,0-.505-.057-.558.158-.733.739-.731q10.355.032,20.71,0c.666,0,.8.258.8.855-.018,4.308-.01,8.616-.01,12.925Z" transform="translate(-11.09 -74.954)" fill="#c96d58"/>
          <path id="Trazado_822009" data-name="Trazado 822009" d="M146.129,165.634q.007,2.871.013,5.741a2.308,2.308,0,0,0-2.165,2.562c-.014,4.5-.029,9.007,0,13.511.005.716-.2.865-.882.858q-5.415-.053-10.832,0c-.774.007-1.546,0-2.319,0-.473,0-.562-.114-.431-.579,1.252-4.46,2.514-8.919,3.707-13.4.8-3.014,1.583-6.04,2.433-9.039,2.6-9.188,5.044-18.42,7.609-27.619a.622.622,0,0,1,.708-.535c5.007.014,10.013,0,15.02.034a13.612,13.612,0,0,1,2.566.487,11.281,11.281,0,0,1,6.831,4.627c.1.126.3.232.222.417-.1.223-.336.128-.514.128-2.72.007-5.44.023-8.16,0a4.085,4.085,0,0,0-3.883,1.881c-.184.3-.442.234-.692.234-1.974,0-3.948-.034-5.921.014a5.34,5.34,0,0,0-4.041,1.558,4.906,4.906,0,0,0-1.426,3.422c.005,4.408-.01,8.815,0,13.222,0,1.538.61,2.206,2.151,2.472" transform="translate(-54.433 -57.658)" fill="#a69aa6"/>
          <path id="Trazado_822010" data-name="Trazado 822010" d="M114.645,196.183a25.612,25.612,0,0,1-3.146-.129c-.341-.048-.528-.148-.611-.471-.382-1.487-.824-2.963-1.134-4.465-.207-1,.221-2,.248-3,.008-.27.169-.579-.161-.788-.041-.026-.081-.143-.063-.162.857-.878.556-2.042.709-3.072.434-2.915.854-5.84,1.066-8.776.088-1.21.6-2.339.483-3.562-.032-.327.213-.384.481-.384,1.444,0,2.888.006,4.332-.012.375,0,.412.191.447.489.221,1.859.457,3.715.694,5.572q.466,3.642.942,7.283c.218,1.689.415,3.382.654,5.068.251,1.773-.545,3.342-.927,4.989-.325,1.4-.371,1.413-1.833,1.421-.674,0-1.347,0-2.183,0" transform="translate(-46.122 -72.048)" fill="#c96d58"/>
          <path id="Trazado_822011" data-name="Trazado 822011" d="M222.47,205.934a2.22,2.22,0,0,0-.99-1.752,3.883,3.883,0,0,1-.44-.372,1.3,1.3,0,0,1,.073-2.135,7.548,7.548,0,0,0,.821-.7,2.009,2.009,0,0,0-.09-2.8c-.257-.252-.554-.461-.815-.708a1.3,1.3,0,0,1,.08-2.1,9.021,9.021,0,0,0,.773-.644,2.016,2.016,0,0,0-.087-2.9c-.209-.2-.439-.373-.661-.557a1.3,1.3,0,0,1-.515-1.58,1.361,1.361,0,0,1,1.417-.893c1.754-.013,3.507,0,5.261,0,.06.078.121.091.185.006l.891.185c-.01.409-.031.818-.031,1.226,0,3.659.022,7.317-.013,10.976a4.421,4.421,0,0,1-1.99,3.939,6.367,6.367,0,0,1-3.871.8" transform="translate(-92.716 -79.376)" fill="#ffe176"/>
          <path id="Trazado_822012" data-name="Trazado 822012" d="M95.857,119.787c0,1.227.043,2.457-.012,3.682a3.951,3.951,0,0,0,1.436,3.221c1.914,1.757,3.809,3.534,5.743,5.269.447.4.427.611,0,1-1.772,1.59-3.531,3.2-5.252,4.842-.42.4-.567.294-.819-.11-1.888-3.039-3.713-6.122-5.724-9.078a2.505,2.505,0,0,1-.106-3.035c1.048-1.913,1.955-3.9,2.905-5.869.479-.991.835-1.076,1.728-.359a.41.41,0,0,0,.105.439" transform="translate(-38.117 -49.981)" fill="#f8f9fb"/>
          <path id="Trazado_822013" data-name="Trazado 822013" d="M130.131,138.08c-1.868-1.71-3.721-3.423-5.6-5.11-.487-.438-.519-.688.016-1.167,1.972-1.763,3.88-3.6,5.816-5.4a3.9,3.9,0,0,0,1.249-3.018c0-1.155.026-2.312-.035-3.463-.039-.738.417-.96.957-1.13.58-.183.656.332.824.672,1.148,2.322,2.283,4.65,3.429,6.973a1.067,1.067,0,0,1,.039,1.146q-3.261,5.136-6.511,10.278a1.954,1.954,0,0,1-.189.218" transform="translate(-52.203 -49.93)" fill="#f8f9fb"/>
          <path id="Trazado_822014" data-name="Trazado 822014" d="M222.46,206.08a6.367,6.367,0,0,0,3.871-.8,4.421,4.421,0,0,0,1.99-3.939c.035-3.659.01-7.317.013-10.976,0-.409.02-.817.031-1.226a3.876,3.876,0,0,1,2.873,3.32c.29,4.321.056,8.649.125,12.973a8.716,8.716,0,0,1-.118,1.636,4.015,4.015,0,0,1-3.922,3.527c-1.731.041-3.464.03-5.2.009a1.429,1.429,0,0,1-1.551-.925,1.4,1.4,0,0,1,.7-1.718,2.419,2.419,0,0,0,1.181-1.878" transform="translate(-92.706 -79.522)" fill="#c96d58"/>
          <path id="Trazado_822015" data-name="Trazado 822015" d="M120.143,123.013a2.524,2.524,0,0,1-1.121,2.607c-1.693,1.5-3.328,3.058-4.97,4.61-.339.321-.551.384-.931.02-1.822-1.743-3.677-3.452-5.525-5.169a1.259,1.259,0,0,1-.453-1.16,19.433,19.433,0,0,0-.1-1.983c-.013-.358.108-.616.483-.486a4.181,4.181,0,0,0,1.423.09c3.221.015,6.443.01,9.664.011a.3.3,0,0,1,.072,0c.457.114,1.04-.433,1.338.05.221.358.092.932.119,1.409" transform="translate(-45.006 -51.043)" fill="#c96d58"/>
          <path id="Trazado_822016" data-name="Trazado 822016" d="M189.233,159.125c-2.283,0-4.566-.016-6.848.013-.465.006-.57-.135-.564-.566.017-1.153.013-2.308-.022-3.461-.016-.506.158-.651.661-.649,4.469.023,8.939.036,13.408.009.657,0,.7.4.712.8.035,1.129.007,2.26.01,3.39,0,.35-.107.494-.509.49-2.282-.025-4.565-.012-6.847-.012v-.013" transform="translate(-76.437 -64.944)" fill="#a69aa6"/>
          <path id="Trazado_822017" data-name="Trazado 822017" d="M114.651,156.882c-.866,0-1.733-.019-2.6.008a.765.765,0,0,1-.822-.535c-.523-1.232-1.055-2.459-1.608-3.678a.576.576,0,0,1,.169-.759q2.262-2.055,4.517-4.117a.444.444,0,0,1,.691.026q2.223,2.059,4.453,4.112a.52.52,0,0,1,.133.7,41.877,41.877,0,0,0-1.695,3.9c-.117.318-.369.336-.643.336q-1.3,0-2.6,0v.011" transform="translate(-46.06 -62.079)" fill="#c96d58"/>
          <path id="Trazado_822018" data-name="Trazado 822018" d="M75.51,72.81c0,1.948,0,3.488,0,5.028,0,.722-.166.895-.831.713a6.2,6.2,0,0,1-4.667-4.143,5.983,5.983,0,0,1,4.168-7.752,5,5,0,0,1,.494-.083c.541-.088.662.117.722.68.213,1.989.048,3.979.115,5.557" transform="translate(-29.304 -27.982)" fill="#ffe176"/>
          <path id="Trazado_822019" data-name="Trazado 822019" d="M156.965,72.5c0-1.78.02-3.561-.013-5.341-.009-.486.144-.633.6-.591a5.418,5.418,0,0,1,3.658,1.939,6.117,6.117,0,0,1,1.434,3.592,6.012,6.012,0,0,1-4.967,6.407c-.584.1-.723-.054-.718-.593.016-1.8.006-3.609.006-5.413Z" transform="translate(-65.99 -27.984)" fill="#ffe176"/>
          <path id="Trazado_822020" data-name="Trazado 822020" d="M100.769,173.934l-4.486-16.3c.189-.106.3,0,.4.15a3.173,3.173,0,0,0,3.249,1.536c.447-.06.633.1.789.5a16.386,16.386,0,0,0,1.076,2.431,4.711,4.711,0,0,1,.334,3.261c-.186,1.329-.387,2.657-.563,3.987a26.123,26.123,0,0,1-.8,4.435" transform="translate(-40.482 -66.259)" fill="#f8f9fb"/>
          <path id="Trazado_822021" data-name="Trazado 822021" d="M135.862,157.686l-4.506,16.27-.144,0c-.122-.715-.255-1.429-.363-2.146-.253-1.673-.428-3.357-.685-5.03-.136-.881-.235-1.776-.332-2.667a1.732,1.732,0,0,1,.178-.962c.52-1.075,1.043-2.149,1.533-3.238.17-.377.334-.446.784-.434a3.457,3.457,0,0,0,3.041-1.432c.084-.115.163-.234.249-.347.009-.013.046,0,.246-.017" transform="translate(-54.583 -66.299)" fill="#f8f9fb"/>
          <path id="Trazado_822022" data-name="Trazado 822022" d="M73.237,53.379c0-.745.013-1.492-.005-2.236-.01-.4.09-.526.5-.371a11.507,11.507,0,0,0,3.568.791c.477.021.558.222.346.652a6.572,6.572,0,0,0-.638,2.715c-.015.457-.166.661-.64.631a6.253,6.253,0,0,0-2.53.47c-.459.167-.617.063-.609-.414.014-.745,0-1.491,0-2.237h.006" transform="translate(-30.788 -21.32)" fill="#c96d58"/>
          <path id="Trazado_822023" data-name="Trazado 822023" d="M99.539,120.129a.41.41,0,0,1-.105-.439c.207.1.137.276.105.439" transform="translate(-41.799 -50.324)" fill="#a69aa6"/>
          <path id="Trazado_822024" data-name="Trazado 822024" d="M232.4,188.812c-.064.085-.126.072-.185-.006l.185.006" transform="translate(-97.636 -79.383)" fill="#c96d58"/>
          <path id="Trazado_822025" data-name="Trazado 822025" d="M112.255,98.883A11.453,11.453,0,0,1,106.6,97.06a6.6,6.6,0,0,1-1.761-1.529,2.166,2.166,0,0,1,.536-3.179,3.144,3.144,0,0,1,2.634.389,5.931,5.931,0,0,0,5.4,1.709,6.965,6.965,0,0,0,3.484-1.728,2.344,2.344,0,0,1,3.075.05,2.063,2.063,0,0,1-.16,3.076,10.289,10.289,0,0,1-5.761,2.886,6.483,6.483,0,0,1-1.787.149" transform="translate(-43.882 -38.754)"/>
          <path id="Trazado_822026" data-name="Trazado 822026" d="M116.639,67.445a1.711,1.711,0,0,1-.263,1.122c-.616,1.222-1.2,2.464-1.856,3.662a.821.821,0,0,0,.14,1.136c.471.482.882,1.023,1.369,1.485a2.309,2.309,0,0,1-.048,3.223,2.026,2.026,0,0,1-2.738-.013,38.1,38.1,0,0,1-3.342-3.669,1.931,1.931,0,0,1-.178-2.224c1.006-1.984,2.035-3.955,3.056-5.932.5-.972,1.407-.993,2.308-.92a1.794,1.794,0,0,1,1.444,1.161,2.159,2.159,0,0,1,.108.967" transform="translate(-46.02 -27.451)"/>
          <path id="Trazado_822027" data-name="Trazado 822027" d="M98.43,66.57c.088-.64-.186-1.444.275-2.181a2.152,2.152,0,0,1,2.264-1.064,2.009,2.009,0,0,1,1.649,1.611,11.552,11.552,0,0,1,.04,3.737,2.008,2.008,0,0,1-2.265,1.749,2.159,2.159,0,0,1-1.958-2.06c-.03-.552-.005-1.108-.005-1.791" transform="translate(-41.381 -26.613)"/>
          <path id="Trazado_822028" data-name="Trazado 822028" d="M130.834,66.867c0-.552-.035-1.107.008-1.656a2.106,2.106,0,0,1,4.2-.011,16.79,16.79,0,0,1,.114,2.856A2.128,2.128,0,0,1,133,70.4a2.1,2.1,0,0,1-2.164-2.309c-.009-.408,0-.817,0-1.225h0" transform="translate(-55.003 -26.611)"/>
          <path id="Trazado_822029" data-name="Trazado 822029" d="M108.4,68.762a9.745,9.745,0,0,1,.484-1.564,6.931,6.931,0,0,0,.522-1.407,1.221,1.221,0,0,1,.355-.693,2.172,2.172,0,0,0,.7-1.227,2.319,2.319,0,0,1,.172-.473c.3-.6.936-.028,1.188-.27.348-.334.515-.756,1-.217.142.157.348.138.541.146.137.006.336-.013.306.194a.253.253,0,0,1-.388.191c-.629-.485-.858,0-1.181.409a4.641,4.641,0,0,1-.857.757,1.532,1.532,0,0,0-.626.938,10.392,10.392,0,0,1-.677,1.419c-.145.308-.519.5-.409.962.034.141-.11.272-.261.3-.385.081-.429.291-.317.635.069.21.025.484-.268.478s-.271-.28-.282-.581" transform="translate(-45.576 -26.342)" fill="#f8f9fb"/>
        </g>
      </g>
    </g>
  </g>
</svg>
