<svg xmlns="http://www.w3.org/2000/svg" xmlns:xlink="http://www.w3.org/1999/xlink" width="190" height="174" viewBox="0 0 190 174">
  <defs>
    <clipPath id="clip-path">
      <rect id="Rect치ngulo_377738" data-name="Rect치ngulo 377738" width="190" height="174" transform="translate(390 2504.789)" fill="none" stroke="#707070" stroke-width="1"/>
    </clipPath>
    <clipPath id="clip-path-2">
      <rect id="Rect치ngulo_378275" data-name="Rect치ngulo 378275" width="165.734" height="166.087" fill="none"/>
    </clipPath>
  </defs>
  <g id="Enmascarar_grupo_371" data-name="Enmascarar grupo 371" transform="translate(-390 -2504.789)" clip-path="url(#clip-path)">
    <g id="Grupo_1074010" data-name="Grupo 1074010" transform="translate(402 2508.789)">
      <g id="Grupo_1074009" data-name="Grupo 1074009" clip-path="url(#clip-path-2)">
        <path id="Trazado_823911" data-name="Trazado 823911" d="M72.671,149.748a8.447,8.447,0,0,1,2.554,6.976,8.265,8.265,0,0,1-5.009,7.1,9.644,9.644,0,0,1-4.151.939c-15.106-.017-30.214.045-45.319-.053a20.46,20.46,0,0,1-9.483-2.822,22.85,22.85,0,0,1-7.781-7.428A19.342,19.342,0,0,1,.314,146.43a27.688,27.688,0,0,1-.28-5.685,20.558,20.558,0,0,1,1.245-5.563,20.786,20.786,0,0,1,3.007-5.825,22.044,22.044,0,0,1,10.27-7.677,17.3,17.3,0,0,1,4.816-1.018c.474-.033.6-.2.563-.639a11.079,11.079,0,0,1,.178-3.447,8.227,8.227,0,0,1,1.865-3.593c.263-.3.29-.405.1-.7-.606-.906-1.211-1.813-1.77-2.747a5.355,5.355,0,0,1-.479-2.3,8.735,8.735,0,0,1,1.474-5.961,8.388,8.388,0,0,1,4.889-3.429,14.777,14.777,0,0,1,4.573-.272c1.1.057,1.084.042,1.083-1.07q0-26.225,0-52.451,0-12.646,0-25.293c0-1.4-.061-2.81-.037-4.214a14.077,14.077,0,0,1,3.9-9.472A14.6,14.6,0,0,1,42.726.634,19.823,19.823,0,0,1,48.067,0q27.4.016,54.8.021a16.4,16.4,0,0,1,8.324,2.009,17.094,17.094,0,0,1,3.855,3.222c2.362,2.532,4.713,5.073,7.082,7.6q3.581,3.817,7.19,7.607a15.06,15.06,0,0,1,3.818,7.932,23.451,23.451,0,0,1,.321,4.309c-.009,6.972,0,13.945-.021,20.918,0,.62.2.677.74.674,3.81-.021,7.624-.1,11.43.033a19.653,19.653,0,0,1,12.114,4.188,21.17,21.17,0,0,1,6.423,8.406,18.851,18.851,0,0,1,1.425,6.117c.282,5.316.1,10.633.114,15.95q.047,28.174,0,56.348a20.508,20.508,0,0,1-14.1,19.676,19.526,19.526,0,0,1-4.987.9c-4.557.312-9.115.115-13.673.132-10.89.04-21.782-.017-32.672.039a26.748,26.748,0,0,1-6.13-.543,19.2,19.2,0,0,1-5.609-2.485,20.175,20.175,0,0,1-7.5-7.967,22.788,22.788,0,0,1-1.986-5.007,14.248,14.248,0,0,1-.363-2.757,17.078,17.078,0,0,1-.176-2.96c.046-.38-.2-.364-.457-.362q-1.175,0-2.351-.005c-.255,0-.413,0-.461.362a9.378,9.378,0,0,1-2.552,5.392M111.854,9.577l-.046-.119-.071.081L111.7,9.7a.156.156,0,0,0-.025.232q-.022,6.043-.045,12.085c-.033.292-.154.59.061.865a.371.371,0,0,0,.347.159q5.951-.012,11.9-.027c.144,0,.342.076.4-.144.047-.177-.072-.3-.188-.415-.83-.849-1.664-1.695-2.483-2.554-3.279-3.434-6.457-6.965-9.812-10.327m15.768,18.711a.818.818,0,0,0-.578-.016q-8.186-.012-16.37-.024c-.594,0-1.191.012-1.782-.037a2.619,2.619,0,0,1-2.377-2.228,13.327,13.327,0,0,1-.089-2.72c.013-5.728,0-11.455.033-17.183,0-.7-.187-.9-.91-.9q-28.935.032-57.869.025a12.087,12.087,0,0,0-2.716.217,10.109,10.109,0,0,0-7.976,10.1q.034,40.647.01,81.3c0,.239-.159.559.211.7.032.1.1.094.176.055l6.69-.051a.733.733,0,0,0,.608.01c.459.014.917.041,1.376.042q9.682,0,19.366,0A13.418,13.418,0,0,1,69,97.943a8.779,8.779,0,0,1,4.054,14.215c-.3.329-.291.446-.041.754a8.955,8.955,0,0,1,1.922,3.426,8.606,8.606,0,0,1-1.816,8.112c-.345.41-.336.61,0,.992a8.176,8.176,0,0,1,2.1,4.483,8.382,8.382,0,0,1-2.178,7.026c-.236.254-.222.371-.055.662a2.066,2.066,0,0,0,2.464,1.147l.053.025.049-.03,1.334-.034.064.043.074-.025.36.014.058.029.059-.028.372.018.044.029.049-.021c.656.134.686-.267.684-.757-.009-3.187,0-6.374,0-9.561q0-26.821-.009-53.642a19.494,19.494,0,0,1,1.45-7.75A20.616,20.616,0,0,1,87.2,58.075a21.1,21.1,0,0,1,12.764-3.837c9.29.063,18.581.025,27.872.029l.053.036.052-.039c.2-.011.327-.094.282-.323l-.033-.352c.009-5.442.036-10.883.019-16.325a75.631,75.631,0,0,0-.107-7.672c-.047-.455.053-1.012-.483-1.3M83.535,110.272q0,17.878,0,35.756a14.442,14.442,0,0,0,.131,1.837A14.9,14.9,0,0,0,88.374,157a15.123,15.123,0,0,0,10.777,4.126q23.106.021,46.211-.008a15.181,15.181,0,0,0,10.727-4.263c3.414-3.238,4.76-7.322,4.758-11.948q-.015-33.484-.007-66.969c0-3.032-.053-6.039-1.209-8.938a15.271,15.271,0,0,0-1.79-3.509,14.914,14.914,0,0,0-12.484-6.27c-15.565-.069-31.132-.022-46.7-.037a13.747,13.747,0,0,0-2.331.215,15.244,15.244,0,0,0-12.768,14.79c-.093,12.025-.025,24.053-.026,36.079M48.426,142.433a17.292,17.292,0,1,0-17.653,17.386c10.9.211,17.493-8.562,17.653-17.386m-.874-39.674q-7.7,0-15.4,0c-1.3,0-2.6-.042-3.889.046a3.546,3.546,0,0,0-3.094,4.677,3.683,3.683,0,0,0,3.791,2.467q11.39.009,22.776,0c4.89,0,9.782,0,14.671-.013a3.292,3.292,0,0,0,3.279-2.091,3.719,3.719,0,0,0-.425-3.739,4.025,4.025,0,0,0-3.557-1.356q-9.078.015-18.155.006m-.195,12.385v.005c-6.134,0-12.269-.014-18.4.007a3.731,3.731,0,0,0-3.974,4.319c.044.6.3.915.958.9,1.81-.028,3.622-.044,5.43,0a23.332,23.332,0,0,1,3.131.273,21.709,21.709,0,0,1,5.246,1.474,3.334,3.334,0,0,0,1.354.2q12.443-.012,24.884-.034c2.708-.008,3.861-1.175,3.92-3.879a3.153,3.153,0,0,0-2.63-3.118,17.331,17.331,0,0,0-2.326-.157q-8.8.02-17.593.007m8.753,44.385v0c2.836,0,5.672-.005,8.508,0a16.183,16.183,0,0,0,2.341-.156,3.486,3.486,0,0,0,2.347-5.448,3.381,3.381,0,0,0-2.832-1.482c-4.753-.021-9.506-.006-14.259-.061a1.669,1.669,0,0,0-1.712,1,19.2,19.2,0,0,1-4.282,5.443c-.176.154-.5.261-.4.538s.426.154.651.155q4.821.013,9.642.006m1.348-31.935v-.025q-4.534,0-9.068,0c-.2,0-.466-.112-.561.163-.072.2.127.336.244.477a20.3,20.3,0,0,1,3.509,5.873.955.955,0,0,0,1.037.691c4.561-.018,9.123.014,13.684-.033a3.438,3.438,0,0,0,3.315-2.044,3.531,3.531,0,0,0-.228-3.535,3.377,3.377,0,0,0-2.944-1.565c-3-.014-5.991,0-8.988,0m2.548,19.512v-.033c2.186,0,4.373.039,6.558-.014a3.247,3.247,0,0,0,3.125-2.184,3.4,3.4,0,0,0-.422-3.44,3.909,3.909,0,0,0-3.277-1.455c-3.995-.023-7.99-.009-11.984-.042-.71-.006-.861.254-.788.911a14.083,14.083,0,0,1-.3,5.369c-.141.508-.072.921.69.9,2.131-.046,4.264-.016,6.4-.016M7.2,145.444c-.511,0-1.023-.005-1.535,0-.381.005-.522.174-.422.572a28.219,28.219,0,0,0,.846,2.943.766.766,0,0,0,.841.578c.861-.031,1.723-.029,2.585-.023.381,0,.546-.078.409-.513-.187-.588-.306-1.2-.454-1.8-.429-1.751-.429-1.751-2.269-1.762M7,140.535v0c.485,0,.969.014,1.453,0,.3-.012.647-.038.616-.459a6.473,6.473,0,0,1,.284-1.569c.307-1.847.316-1.864-1.529-1.836-2.111.032-1.867-.448-2.473,2.036-.485,1.99-.615,1.909,1.487,1.83.053,0,.107,0,.161,0m3.328-8.892a1.791,1.791,0,0,0,2.165-1.077,12.14,12.14,0,0,1,2.665-3.308c.144-.117.483-.215.3-.471-.157-.224-.388,0-.572.092a16.787,16.787,0,0,0-5,3.6c-.307.337-1.031.552-.822,1.049.148.351.837.066,1.265.111m4.753,26.637a1.334,1.334,0,0,0-.458-.89,10.617,10.617,0,0,1-1.643-2.081,1.618,1.618,0,0,0-1.712-.907c-.419.046-1.052-.175-1.2.186-.169.412.478.616.768.9a14.819,14.819,0,0,0,4.244,2.8" transform="translate(0 0)"/>
        <path id="Trazado_823912" data-name="Trazado 823912" d="M97.722,141.553l-.372-.018c-.038-.084-.077-.09-.116,0l-.36-.014c-.035-.087-.081-.092-.138-.018l-1.334.033c-.038-.084-.072-.085-.1.005a2.065,2.065,0,0,1-2.464-1.147c-.167-.291-.181-.407.055-.662a8.379,8.379,0,0,0,2.177-7.026,8.171,8.171,0,0,0-2.095-4.483c-.342-.381-.351-.582,0-.992a8.607,8.607,0,0,0,1.816-8.112,8.962,8.962,0,0,0-1.921-3.426c-.25-.308-.263-.425.04-.754a8.778,8.778,0,0,0-4.054-14.215,13.418,13.418,0,0,0-3.569-.372q-9.683,0-19.367,0c-.458,0-.917-.027-1.373-.042a.667.667,0,0,0-.61-.01l-6.689.051c-.028-.117-.092-.119-.177-.055-.37-.14-.211-.46-.212-.7q-.006-40.647-.009-81.3A10.109,10.109,0,0,1,64.819,8.2a12.08,12.08,0,0,1,2.716-.217Q96.469,7.97,125.4,7.961c.723,0,.913.2.91.9-.029,5.728-.02,11.455-.033,17.183a13.327,13.327,0,0,0,.088,2.72,2.619,2.619,0,0,0,2.377,2.228c.591.049,1.187.036,1.782.037q8.185.015,16.369.023a.505.505,0,0,0,.579.017c.537.293.435.849.483,1.3a75.441,75.441,0,0,1,.107,7.672c.018,5.442-.01,10.884-.018,16.325a.215.215,0,0,0,.033.353c.045.228-.077.312-.28.323L147.746,57l-.051.049c-9.291,0-18.581.035-27.872-.029a21.1,21.1,0,0,0-12.764,3.837,20.608,20.608,0,0,0-7.12,8.994,19.517,19.517,0,0,0-1.451,7.75q.029,26.821.01,53.642c0,3.187-.007,6.374,0,9.561,0,.49-.028.891-.684.757-.026-.068-.056-.085-.094-.007M86.5,83.974a3.559,3.559,0,0,1-1.655,3.81,7.126,7.126,0,0,1-6.539.186,7.279,7.279,0,0,1-2.346-1.957,1.756,1.756,0,0,0-1.8-.667,2.463,2.463,0,0,0-1.379,3.4c1.137,2.064,3.086,3,5.174,3.687,1.494.49,1.52.412,1.6,2a2.312,2.312,0,0,0,2.321,2.4,2.276,2.276,0,0,0,2.2-2.471c0-1.559,0-1.552,1.455-2.057A7.62,7.62,0,0,0,90.6,87.088a13.337,13.337,0,0,0,.444-3.965,8.161,8.161,0,0,0-3.884-7.293,31.116,31.116,0,0,0-5.659-2.5,9.363,9.363,0,0,1-2.63-1.394,3.459,3.459,0,0,1-1.243-3.153A3.357,3.357,0,0,1,80.189,65.7a8.348,8.348,0,0,1,2.216-.295,10.484,10.484,0,0,1,4.8,1.127c1.256.654,2.168.41,2.77-.7a2.006,2.006,0,0,0-.537-2.971A6.845,6.845,0,0,0,86.1,61.514c-1.911-.3-1.917-.258-2.025-2.178a2.4,2.4,0,0,0-1.7-2.2,2.315,2.315,0,0,0-2.632,1.23,5.505,5.505,0,0,0-.2,2.528c-.018.44-.1.648-.574.785a7.252,7.252,0,0,0-5.706,6.69,8.706,8.706,0,0,0,.439,3.969,7.869,7.869,0,0,0,4.422,4.489c1.7.753,3.447,1.385,5.145,2.138,2.131.946,3.453,2.466,3.218,5.011m7.767-42.916h13.614c2.674,0,5.348.011,8.022,0a3.187,3.187,0,0,0,2.668-1.585,3.555,3.555,0,0,0-.987-2.753,3.3,3.3,0,0,0-2.152-.515q-20.987,0-41.975-.005a4.867,4.867,0,0,0-1.443.149,2.436,2.436,0,0,0-1.551,3.062,2.527,2.527,0,0,0,2.491,1.644q10.657,0,21.313,0M111.1,53.22v-.012q9.967,0,19.933,0a7.761,7.761,0,0,0,1.675-.146,2.33,2.33,0,0,0-.141-4.56,11.371,11.371,0,0,0-1.924-.135l-39.459,0a5.944,5.944,0,0,0-1.369.107,2.277,2.277,0,0,0-1.838,1.878,2.533,2.533,0,0,0,1.511,2.69,4.488,4.488,0,0,0,1.679.179q9.967,0,19.933,0m-34.57-.008V53.2c1.3,0,2.592.02,3.887-.007a2.412,2.412,0,1,0-.057-4.809c-2.455-.052-4.913-.033-7.369-.01a2.347,2.347,0,0,0-1.9.695,2.185,2.185,0,0,0-.692,2.237,2.424,2.424,0,0,0,2.328,1.895c1.268.024,2.537.005,3.806.005m52.311-12.153v0c1.025,0,2.05-.008,3.075,0a2.606,2.606,0,0,0,1.649-.56,2.234,2.234,0,0,0,.74-2.658,2.19,2.19,0,0,0-1.734-1.608c-2.2-.124-4.423-.087-6.632-.008a2.426,2.426,0,0,0-2.457,2.452,2.506,2.506,0,0,0,2.689,2.375c.89,0,1.781,0,2.671,0" transform="translate(-19.853 -2.782)" fill="#fed9a9"/>
        <path id="Trazado_823913" data-name="Trazado 823913" d="M128.388,142.061c0-12.026-.068-24.054.025-36.079a15.243,15.243,0,0,1,12.768-14.79,13.74,13.74,0,0,1,2.331-.215c15.567.015,31.133-.032,46.7.037a14.914,14.914,0,0,1,12.484,6.27,15.271,15.271,0,0,1,1.79,3.509c1.157,2.9,1.209,5.905,1.209,8.938q0,33.484.006,66.969c0,4.626-1.345,8.709-4.758,11.948a15.181,15.181,0,0,1-10.727,4.263q-23.105.054-46.211.008a15.126,15.126,0,0,1-10.777-4.126,14.9,14.9,0,0,1-4.705-9.139,14.444,14.444,0,0,1-.131-1.838q-.006-17.877,0-35.755m32.542-22.676c.274,1.775.966,2.43,2.71,2.481,1.3.038,2.593.026,3.891.025,7.378,0,14.755-.025,22.132-.006a8.327,8.327,0,0,0,8.6-8.765c-.038-2.864,0-5.729-.015-8.594a6.473,6.473,0,0,0-.366-2.275,8.291,8.291,0,0,0-8.138-5.745q-22.782-.028-45.563-.009a11.9,11.9,0,0,0-2.148.275,8.457,8.457,0,0,0-4.55,2.872,5.613,5.613,0,0,0-1.622,3.65c-.109,3.564-.023,7.133-.051,10.7a6.941,6.941,0,0,0,1.58,4.546,8.112,8.112,0,0,0,5.988,3.276c2.833.183,5.673.045,8.51.077,2.153.025,2.77-.424,3.371-2.386a43.475,43.475,0,0,0,5.667-.124m19.043,48.08c0,4.241-.033,8.483.01,12.724a6.959,6.959,0,0,0,5.773,7.084,22.381,22.381,0,0,0,6.3.072c3.772-.466,5.991-2.785,6.439-6.541a19.342,19.342,0,0,0,.047-2.267q.007-11.792.005-23.584c0-4.171-2.7-6.871-6.874-6.9q-2.715-.02-5.43.013a5.962,5.962,0,0,0-2.192.434,6.515,6.515,0,0,0-4.076,6.242c-.02,4.241-.005,8.482,0,12.724m-3.632,10.611h-.009c0-1.269-.006-2.538,0-3.807a5.238,5.238,0,0,0-5.528-5.447c-2.592-.018-5.184-.022-7.776.008a5.086,5.086,0,0,0-2.554.594,5.187,5.187,0,0,0-2.727,4.735c-.021,2.619-.034,5.239-.008,7.857a5.185,5.185,0,0,0,5.26,5.4q4.006.109,8.017.009a5.269,5.269,0,0,0,5.319-5.464c.024-1.3,0-2.592,0-3.888m-9.332-33.265v-.01h4.376a1.741,1.741,0,0,0,.481-.014c2.836-.839,4.345-2.273,4.458-5.6.085-2.483-.02-4.972.015-7.457a5.256,5.256,0,0,0-5.378-5.538c-2.728-.062-5.458-.051-8.186.008a4.948,4.948,0,0,0-3.863,1.8,5.41,5.41,0,0,0-1.163,3.519c-.023,2.81-.057,5.62-.012,8.429a4.209,4.209,0,0,0,.738,2.413,5.5,5.5,0,0,0,4.641,2.448c1.3,0,2.594,0,3.891,0m-9.262,12.733h-.009c0,1.3.016,2.591,0,3.887a5.131,5.131,0,0,0,4.548,5.12,72.363,72.363,0,0,0,9.465-.011,4.822,4.822,0,0,0,4.457-4.321,54.746,54.746,0,0,0,.037-9.46,4.978,4.978,0,0,0-5.222-4.7c-2.7-.034-5.4-.022-8.1,0a4.754,4.754,0,0,0-2.394.565,5.183,5.183,0,0,0-2.774,4.625c-.029,1.43-.006,2.861-.006,4.292m-21.932-21.9h0c0,1.459.025,2.917-.006,4.375a5.132,5.132,0,0,0,4.889,4.768c2.888.078,5.783.122,8.667-.007a5.082,5.082,0,0,0,4.928-4.991c.059-2.808.032-5.618.008-8.426a5.112,5.112,0,0,0-4.961-5.154c-2.861-.059-5.726-.073-8.587,0a5,5,0,0,0-4.948,5.06c.029,1.457.005,2.917.005,4.375m.008,42.443h-.028c0,1.35.01,2.7,0,4.051a5.018,5.018,0,0,0,1.28,3.591,4.824,4.824,0,0,0,3.472,1.726c2.8.095,5.616.043,8.423-.018a5.189,5.189,0,0,0,5.345-5.473q0-3.849,0-7.7a5.152,5.152,0,0,0-5.433-5.441c-2.7-.013-5.4,0-8.1,0a5.114,5.114,0,0,0-4.949,4.72c-.021,1.512,0,3.024,0,4.537m-.008-20.782c0,1.4-.023,2.811,0,4.215a4.97,4.97,0,0,0,4.7,5.053,70.957,70.957,0,0,0,9.231-.023,4.934,4.934,0,0,0,4.425-3.9,14.18,14.18,0,0,0,.122-3.552,57.756,57.756,0,0,0-.133-6.777,4.958,4.958,0,0,0-4.614-4.23q-4.456-.1-8.915-.006A5.019,5.019,0,0,0,135.822,153c-.031,1.432-.006,2.864-.007,4.3m53.16-12.486c1.5,0,2.721,0,3.936,0a5.346,5.346,0,0,0,5.637-5.611c.007-2.458-.028-4.916.009-7.374a5.193,5.193,0,0,0-5.255-5.615,64.641,64.641,0,0,0-9.208.126,4.835,4.835,0,0,0-3.973,3.885c-.338,3.229-.109,6.475-.128,9.714a2.31,2.31,0,0,0-.006.759c.769,2.06,2.025,3.61,4.345,3.989a39.873,39.873,0,0,0,4.644.127" transform="translate(-44.852 -31.788)" fill="#7bcb91"/>
        <path id="Trazado_823914" data-name="Trazado 823914" d="M55.86,209.7c-.16,8.824-6.75,17.6-17.653,17.386A17.288,17.288,0,1,1,55.86,209.7m-20.982,3.839a2.41,2.41,0,0,0-2.264,3.334,5.066,5.066,0,0,0,3.111,2.655,1.4,1.4,0,0,1,1.028,1.17,2.24,2.24,0,0,0,1.967,1.775,2.084,2.084,0,0,0,2.429-1.176,3.512,3.512,0,0,1,2.15-2.373,1.483,1.483,0,0,0,.311-.257,6.985,6.985,0,0,0-1.964-11.4c-.934-.42-1.887-.8-2.823-1.214a1.872,1.872,0,0,1-.984-.808c-.39-.77.127-1.445,1.185-1.589a6.188,6.188,0,0,1,3.115.718,2.33,2.33,0,0,0,2.883-1.144,2.792,2.792,0,0,0-2.36-3.789,1.29,1.29,0,0,1-1.268-1.079,2.22,2.22,0,0,0-2.536-1.86,2.271,2.271,0,0,0-2.193,2.106,1.417,1.417,0,0,1-.909,1.261,5.973,5.973,0,0,0-.8,9.69,12.986,12.986,0,0,0,3.462,1.721,7.1,7.1,0,0,1,1.8.91,1.937,1.937,0,0,1,.587,2.134c-.128.659-.684.846-1.3,1.02a2.985,2.985,0,0,1-2.96-.966c-.5-.447-.943-1.005-1.658-.842" transform="translate(-7.434 -67.267)" fill="#ec8600"/>
        <path id="Trazado_823915" data-name="Trazado 823915" d="M60.967,157.942q9.078,0,18.155,0a4.025,4.025,0,0,1,3.556,1.356,3.717,3.717,0,0,1,.425,3.739,3.292,3.292,0,0,1-3.279,2.091c-4.89.017-9.78.012-14.671.013q-11.388,0-22.776,0a3.679,3.679,0,0,1-3.79-2.467,3.546,3.546,0,0,1,3.093-4.677c1.291-.088,2.592-.045,3.889-.046q7.7,0,15.4,0" transform="translate(-13.415 -55.185)" fill="#ec8600"/>
        <path id="Trazado_823916" data-name="Trazado 823916" d="M60.766,176.98q8.8,0,17.593-.007a17.32,17.32,0,0,1,2.325.157,3.151,3.151,0,0,1,2.629,3.118c-.059,2.7-1.211,3.872-3.92,3.879q-12.442.035-24.884.034a3.329,3.329,0,0,1-1.353-.2,21.719,21.719,0,0,0-5.246-1.474,23.238,23.238,0,0,0-3.131-.273c-1.809-.042-3.621-.025-5.43,0-.661.01-.915-.3-.958-.9a3.731,3.731,0,0,1,3.973-4.32c6.134-.021,12.269-.007,18.4-.007Z" transform="translate(-13.409 -61.836)" fill="#ec8600"/>
        <path id="Trazado_823917" data-name="Trazado 823917" d="M80.707,241.371q-4.821,0-9.642-.006c-.225,0-.553.127-.652-.155s.228-.383.4-.537A19.209,19.209,0,0,0,75.1,235.23a1.667,1.667,0,0,1,1.712-1c4.753.054,9.506.038,14.26.06a3.38,3.38,0,0,1,2.831,1.482,3.486,3.486,0,0,1-2.347,5.449,16.261,16.261,0,0,1-2.34.155c-2.836-.008-5.672,0-8.508,0Z" transform="translate(-24.597 -81.843)" fill="#ec8600"/>
        <path id="Trazado_823918" data-name="Trazado 823918" d="M83.138,196.1c3,0,5.991-.01,8.987,0a3.374,3.374,0,0,1,2.943,1.565,3.53,3.53,0,0,1,.23,3.535,3.44,3.44,0,0,1-3.316,2.045c-4.561.046-9.122.014-13.683.033a.956.956,0,0,1-1.038-.691,20.3,20.3,0,0,0-3.509-5.873c-.117-.141-.316-.273-.245-.476.1-.275.362-.163.561-.163q4.534-.006,9.069,0v.026" transform="translate(-25.679 -68.503)" fill="#ec8600"/>
        <path id="Trazado_823919" data-name="Trazado 823919" d="M88.4,222.263c-2.133,0-4.265-.03-6.4.016-.762.016-.831-.4-.69-.9a14.069,14.069,0,0,0,.3-5.369c-.073-.657.079-.917.789-.911,3.995.033,7.99.02,11.984.043a3.909,3.909,0,0,1,3.277,1.455,3.4,3.4,0,0,1,.422,3.44,3.246,3.246,0,0,1-3.125,2.183c-2.185.053-4.372.014-6.558.014v.033" transform="translate(-28.39 -75.156)" fill="#ec8600"/>
        <path id="Trazado_823920" data-name="Trazado 823920" d="M171.647,14.826l.041-.164.048.053.07-.014c3.354,3.362,6.533,6.893,9.812,10.327.82.859,1.653,1.7,2.483,2.554.116.119.236.239.189.416-.059.22-.257.144-.4.144q-5.952.018-11.9.027a.374.374,0,0,1-.347-.16.981.981,0,0,0-.061-.864q.022-6.044.045-12.086a.15.15,0,0,0,.025-.232" transform="translate(-59.951 -5.123)" fill="#fed9a9"/>
        <path id="Trazado_823921" data-name="Trazado 823921" d="M10,223.557c1.84.011,1.84.011,2.269,1.762.148.6.267,1.209.454,1.8.138.435-.028.516-.409.513-.862-.006-1.724-.008-2.585.023a.765.765,0,0,1-.841-.578,28.478,28.478,0,0,1-.846-2.943c-.1-.4.041-.567.422-.572.511-.008,1.023,0,1.535,0" transform="translate(-2.8 -78.113)" fill="#ec8600"/>
        <path id="Trazado_823922" data-name="Trazado 823922" d="M9.709,213.927c-.054,0-.108,0-.161,0-2.1.079-1.973.16-1.488-1.829.606-2.485.362-2,2.473-2.036,1.846-.028,1.837-.01,1.53,1.837a6.437,6.437,0,0,0-.284,1.569c.031.422-.321.448-.617.459-.483.019-.968.005-1.453.005v0" transform="translate(-2.712 -73.392)" fill="#ec8600"/>
        <path id="Trazado_823923" data-name="Trazado 823923" d="M15.171,199.686c-.427-.045-1.117.239-1.265-.111-.209-.5.515-.712.822-1.049a16.8,16.8,0,0,1,5-3.6c.183-.092.414-.316.572-.092.18.256-.16.353-.3.47a12.169,12.169,0,0,0-2.665,3.308,1.791,1.791,0,0,1-2.164,1.077" transform="translate(-4.846 -68.043)" fill="#ec8600"/>
        <path id="Trazado_823924" data-name="Trazado 823924" d="M20.469,241.191a14.819,14.819,0,0,1-4.244-2.8c-.291-.279-.937-.483-.768-.9.148-.361.781-.141,1.2-.186a1.618,1.618,0,0,1,1.712.907,10.616,10.616,0,0,0,1.643,2.081,1.334,1.334,0,0,1,.458.89" transform="translate(-5.391 -82.911)" fill="#ec8600"/>
        <path id="Trazado_823925" data-name="Trazado 823925" d="M67.749,149.854a.667.667,0,0,1,.61.01.736.736,0,0,1-.61-.01" transform="translate(-23.672 -52.337)" fill="#7bcb91"/>
        <path id="Trazado_823926" data-name="Trazado 823926" d="M171.543,33.848a.98.98,0,0,1,.061.865c-.215-.275-.094-.573-.061-.865" transform="translate(-59.917 -11.827)" fill="#ec8600"/>
        <path id="Trazado_823927" data-name="Trazado 823927" d="M195.854,43.447a.506.506,0,0,1-.579-.016.822.822,0,0,1,.579.016" transform="translate(-68.231 -15.16)" fill="#7bcb91"/>
        <path id="Trazado_823928" data-name="Trazado 823928" d="M197.035,82.722a.215.215,0,0,1-.033-.353l.033.353" transform="translate(-68.808 -28.781)" fill="#7bcb91"/>
        <path id="Trazado_823929" data-name="Trazado 823929" d="M57.2,149.862c.085-.064.149-.062.176.055-.077.04-.144.05-.176-.055" transform="translate(-19.985 -52.349)" fill="#7bcb91"/>
        <path id="Trazado_823930" data-name="Trazado 823930" d="M119.69,213.274c.037-.078.068-.061.094.007l-.049.021Z" transform="translate(-41.821 -74.502)" fill="#ec8600"/>
        <path id="Trazado_823931" data-name="Trazado 823931" d="M118.939,213.238c.04-.089.079-.083.116,0l-.059.029Z" transform="translate(-41.559 -74.485)" fill="#ec8600"/>
        <path id="Trazado_823932" data-name="Trazado 823932" d="M118.173,213.2c.056-.074.1-.069.138.018l-.074.025Z" transform="translate(-41.291 -74.475)" fill="#ec8600"/>
        <path id="Trazado_823933" data-name="Trazado 823933" d="M171.65,14.914a.15.15,0,0,1-.025.232.156.156,0,0,1,.025-.232" transform="translate(-59.954 -5.211)" fill="#ec8600"/>
        <path id="Trazado_823934" data-name="Trazado 823934" d="M196.5,83.386l.051-.048.054.045-.053.039Z" transform="translate(-68.66 -29.119)" fill="#7bcb91"/>
        <path id="Trazado_823935" data-name="Trazado 823935" d="M171.865,14.657l-.069.014-.048-.052.072-.081.046.119" transform="translate(-60.011 -5.08)" fill="#ec8600"/>
        <path id="Trazado_823936" data-name="Trazado 823936" d="M115.965,213.245c.03-.09.064-.089.1-.005l-.05.031Z" transform="translate(-40.52 -74.487)" fill="#ec8600"/>
        <path id="Trazado_823937" data-name="Trazado 823937" d="M94.93,110.346c.235-2.546-1.086-4.066-3.218-5.011-1.7-.753-3.447-1.385-5.144-2.138a7.869,7.869,0,0,1-4.422-4.489,8.706,8.706,0,0,1-.439-3.969,7.252,7.252,0,0,1,5.706-6.69c.478-.137.557-.345.574-.785a5.506,5.506,0,0,1,.2-2.528,2.315,2.315,0,0,1,2.632-1.23,2.4,2.4,0,0,1,1.7,2.2c.108,1.92.115,1.879,2.025,2.178a6.845,6.845,0,0,1,3.339,1.346,2.006,2.006,0,0,1,.537,2.971c-.6,1.107-1.514,1.351-2.77.7a10.476,10.476,0,0,0-4.8-1.127,8.348,8.348,0,0,0-2.216.295,3.357,3.357,0,0,0-2.561,3.087,3.459,3.459,0,0,0,1.243,3.153,9.363,9.363,0,0,0,2.63,1.394,31.071,31.071,0,0,1,5.659,2.5A8.161,8.161,0,0,1,99.48,109.5a13.337,13.337,0,0,1-.444,3.965,7.621,7.621,0,0,1-5.073,5.222c-1.45.5-1.453.5-1.455,2.057a2.276,2.276,0,0,1-2.2,2.471,2.312,2.312,0,0,1-2.321-2.4c-.076-1.593-.1-1.515-1.6-2-2.088-.684-4.038-1.623-5.174-3.687a2.463,2.463,0,0,1,1.379-3.4,1.756,1.756,0,0,1,1.8.667,7.279,7.279,0,0,0,2.346,1.957,7.126,7.126,0,0,0,6.539-.186,3.559,3.559,0,0,0,1.655-3.81" transform="translate(-28.288 -29.153)"/>
        <path id="Trazado_823938" data-name="Trazado 823938" d="M101.52,56.226q-10.656,0-21.312,0a2.527,2.527,0,0,1-2.492-1.644,2.436,2.436,0,0,1,1.551-3.062,4.889,4.889,0,0,1,1.443-.149q20.988,0,41.975.005a3.3,3.3,0,0,1,2.151.515,3.552,3.552,0,0,1,.988,2.753,3.189,3.189,0,0,1-2.669,1.585c-2.674.01-5.348,0-8.022,0q-6.807,0-13.614,0" transform="translate(-27.111 -17.949)"/>
        <path id="Trazado_823939" data-name="Trazado 823939" d="M127.835,74.92q-9.967,0-19.933,0a4.489,4.489,0,0,1-1.679-.18,2.532,2.532,0,0,1-1.511-2.689,2.277,2.277,0,0,1,1.838-1.878,5.9,5.9,0,0,1,1.368-.108l39.46,0a11.371,11.371,0,0,1,1.924.135,2.33,2.33,0,0,1,.141,4.561,7.8,7.8,0,0,1-1.675.146q-9.966,0-19.933,0Z" transform="translate(-36.584 -24.482)"/>
        <path id="Trazado_823940" data-name="Trazado 823940" d="M83.77,74.907c-1.269,0-2.538.019-3.806-.005a2.424,2.424,0,0,1-2.328-1.895,2.184,2.184,0,0,1,.692-2.238,2.345,2.345,0,0,1,1.9-.694c2.456-.024,4.914-.043,7.369.01a2.411,2.411,0,1,1,.057,4.809c-1.3.027-2.591.007-3.887.007Z" transform="translate(-27.09 -24.477)"/>
        <path id="Trazado_823941" data-name="Trazado 823941" d="M164.65,56.2c-.89,0-1.781,0-2.671,0a2.506,2.506,0,0,1-2.689-2.375,2.426,2.426,0,0,1,2.457-2.452c2.209-.079,4.427-.116,6.632.008a2.19,2.19,0,0,1,1.734,1.608,2.234,2.234,0,0,1-.74,2.658,2.606,2.606,0,0,1-1.649.56c-1.025-.011-2.05,0-3.075,0Z" transform="translate(-55.657 -17.926)"/>
        <path id="Trazado_823942" data-name="Trazado 823942" d="M167.551,124.952a43.366,43.366,0,0,1-5.667.124,2.748,2.748,0,0,0-1.072-2.065,3.636,3.636,0,0,0-2.1-.481c-2.674-.007-5.348.01-8.022-.033a3.218,3.218,0,0,1-3.376-3.434q-.011-4.173,0-8.347c.007-2.46,1.272-3.684,3.74-3.777,2.116-.081,4.228.04,6.343.029,12.884-.067,25.769-.034,38.655-.028,2.525,0,3.924,1.388,3.942,3.9.018,2.566.012,5.133.007,7.7-.006,2.747-1.2,3.972-3.93,3.975q-12.4.017-24.8.012a10.186,10.186,0,0,0-1.213.04,2.487,2.487,0,0,0-2.513,2.385" transform="translate(-51.472 -37.356)" fill="#3c99e2"/>
        <path id="Trazado_823943" data-name="Trazado 823943" d="M164.928,122.348a2.487,2.487,0,0,1,2.513-2.385,10.186,10.186,0,0,1,1.213-.04q12.4-.007,24.8-.012c2.725,0,3.924-1.228,3.93-3.975.005-2.567.011-5.133-.007-7.7-.018-2.513-1.417-3.9-3.942-3.9-12.886-.007-25.77-.039-38.655.028-2.115.011-4.227-.109-6.343-.029-2.468.094-3.734,1.317-3.74,3.777q-.013,4.174,0,8.347a3.218,3.218,0,0,0,3.376,3.434c2.673.042,5.348.025,8.022.033a3.636,3.636,0,0,1,2.1.481,2.748,2.748,0,0,1,1.072,2.065c-.6,1.962-1.219,2.41-3.372,2.386-2.837-.033-5.676.105-8.51-.077a8.11,8.11,0,0,1-5.988-3.276,6.941,6.941,0,0,1-1.58-4.546c.027-3.567-.058-7.136.051-10.7a5.61,5.61,0,0,1,1.622-3.65,8.461,8.461,0,0,1,4.55-2.872,11.9,11.9,0,0,1,2.148-.275q22.782,0,45.563.01a8.291,8.291,0,0,1,8.138,5.745,6.475,6.475,0,0,1,.366,2.275c.011,2.865-.023,5.73.016,8.594a8.327,8.327,0,0,1-8.6,8.764c-7.378-.02-14.755,0-22.132.007-1.3,0-2.595.012-3.891-.026-1.744-.051-2.436-.706-2.71-2.481" transform="translate(-48.849 -34.752)"/>
        <path id="Trazado_823944" data-name="Trazado 823944" d="M207.684,198.115c0-4.242-.015-8.483.005-12.724a6.517,6.517,0,0,1,4.076-6.242,5.963,5.963,0,0,1,2.192-.434q2.714-.034,5.429-.013c4.178.03,6.872,2.73,6.874,6.9q.009,11.793-.005,23.584a19.349,19.349,0,0,1-.047,2.267c-.448,3.757-2.667,6.075-6.44,6.541a22.375,22.375,0,0,1-6.3-.072,6.959,6.959,0,0,1-5.773-7.084c-.042-4.241-.01-8.483-.01-12.724m4.834-.175h.007q0,6.4,0,12.8a2.207,2.207,0,0,0,2.214,2.355c1.537.055,3.078.04,4.615,0a1.99,1.99,0,0,0,1.935-1.648,6.906,6.906,0,0,0,.113-1.368q.015-6.157.008-12.314,0-5.914-.005-11.828c0-1.9-.465-2.356-2.333-2.358-1.485,0-2.97.007-4.455,0a2.572,2.572,0,0,0-1.113.165,1.451,1.451,0,0,0-.994,1.394c.018,4.267.008,8.533.008,12.8" transform="translate(-72.563 -62.438)"/>
        <path id="Trazado_823945" data-name="Trazado 823945" d="M192.112,219.877c0,1.3.02,2.593,0,3.888a5.27,5.27,0,0,1-5.319,5.464q-4.006.1-8.017-.01a5.184,5.184,0,0,1-5.259-5.4c-.026-2.619-.012-5.238.008-7.857a5.186,5.186,0,0,1,2.726-4.735,5.091,5.091,0,0,1,2.554-.595c2.592-.029,5.184-.025,7.776-.007a5.238,5.238,0,0,1,5.527,5.447c-.008,1.269,0,2.538,0,3.807Zm-9.381.963c1.213,0,2.426-.008,3.639,0,.448,0,.716-.113.712-.63q-.013-1.981.025-3.962c.008-.45-.157-.619-.61-.617q-3.68.02-7.359,0c-.437,0-.634.141-.627.605.019,1.321.023,2.642,0,3.963-.008.5.174.657.662.646,1.185-.027,2.372-.009,3.558-.01" transform="translate(-60.622 -73.589)"/>
        <path id="Trazado_823946" data-name="Trazado 823946" d="M182.773,163.7c-1.3,0-2.594,0-3.891,0a5.5,5.5,0,0,1-4.642-2.448,4.2,4.2,0,0,1-.737-2.412c-.046-2.809-.012-5.619.012-8.429a5.408,5.408,0,0,1,1.163-3.52,4.953,4.953,0,0,1,3.863-1.8c2.727-.059,5.458-.07,8.186-.007a5.256,5.256,0,0,1,5.378,5.538c-.034,2.485.07,4.974-.015,7.456-.113,3.324-1.622,4.758-4.458,5.6a1.746,1.746,0,0,1-.482.014h-4.377v.01m.059-13.715v0c-1.24,0-2.48.015-3.719-.008-.461-.008-.622.167-.615.613.018,1.078.007,2.156.01,3.235.005,1.457.006,1.456,1.434,1.455,2.049,0,4.1-.017,6.145.007.727.009,1.022-.272,1-1q-.042-1.7.027-3.4c.026-.667-.137-.971-.892-.924-1.127.07-2.263.018-3.395.018" transform="translate(-60.616 -50.681)"/>
        <path id="Trazado_823947" data-name="Trazado 823947" d="M173.522,188.191c0-1.431-.024-2.862.005-4.292a5.185,5.185,0,0,1,2.775-4.625,4.75,4.75,0,0,1,2.393-.565c2.7-.022,5.4-.033,8.1,0a4.978,4.978,0,0,1,5.222,4.7,54.746,54.746,0,0,1-.037,9.46,4.821,4.821,0,0,1-4.457,4.32,72.241,72.241,0,0,1-9.465.011,5.13,5.13,0,0,1-4.547-5.12c.018-1.3,0-2.591,0-3.887h.01m9.221.74c1.188,0,2.376-.014,3.563.007.524.01.809-.129.8-.722-.021-1.269-.018-2.538.016-3.806.016-.582-.28-.766-.777-.767-2.4,0-4.805.005-7.208-.009-.454,0-.625.163-.619.614.015,1.35.02,2.7,0,4.05-.009.5.18.654.666.643,1.187-.026,2.375-.008,3.563-.009" transform="translate(-60.626 -62.436)"/>
        <path id="Trazado_823948" data-name="Trazado 823948" d="M139.814,154.533c0-1.459.023-2.917-.005-4.375a5,5,0,0,1,4.948-5.06c2.861-.073,5.726-.059,8.587,0a5.113,5.113,0,0,1,4.961,5.155c.024,2.809.05,5.618-.008,8.426a5.081,5.081,0,0,1-4.928,4.991c-2.884.129-5.78.086-8.667.007a5.132,5.132,0,0,1-4.889-4.768c.031-1.457.006-2.916.006-4.375h0M149.075,150v0c-1.24,0-2.48.019-3.719-.01-.449-.01-.625.105-.616.58.025,1.374.018,2.749,0,4.124,0,.38.057.6.52.6,2.426-.016,4.852,0,7.278-.012.558,0,.885-.243.865-.893q-.057-1.859,0-3.72c.018-.55-.177-.694-.7-.681-1.212.031-2.425.01-3.639.01" transform="translate(-48.85 -50.681)"/>
        <path id="Trazado_823949" data-name="Trazado 823949" d="M139.813,219.887c0-1.512-.017-3.025,0-4.537a5.115,5.115,0,0,1,4.95-4.72c2.7-.007,5.4-.016,8.1,0a5.152,5.152,0,0,1,5.434,5.44q0,3.848,0,7.7a5.19,5.19,0,0,1-5.345,5.473c-2.807.06-5.618.113-8.423.018a4.825,4.825,0,0,1-3.472-1.725,5.017,5.017,0,0,1-1.28-3.592c.012-1.35,0-2.7,0-4.051h.027m9.26.957c1.215,0,2.431-.023,3.645.01.529.014.714-.154.7-.688-.036-1.322-.038-2.646-.023-3.969,0-.43-.088-.641-.573-.638q-3.725.022-7.451,0c-.494,0-.648.172-.637.663.029,1.323.034,2.647-.006,3.969-.017.559.193.679.7.667,1.214-.031,2.43-.01,3.645-.012" transform="translate(-48.842 -73.594)"/>
        <path id="Trazado_823950" data-name="Trazado 823950" d="M139.814,187.942c0-1.432-.025-2.865.005-4.3a5.019,5.019,0,0,1,4.814-4.927q4.456-.1,8.915.007a4.958,4.958,0,0,1,4.614,4.229,57.9,57.9,0,0,1,.133,6.777,14.211,14.211,0,0,1-.123,3.552,4.933,4.933,0,0,1-4.424,3.9,70.957,70.957,0,0,1-9.232.023,4.968,4.968,0,0,1-4.7-5.053c-.028-1.4-.005-2.81,0-4.215m9.171-4.3v0c-1.213,0-2.427.014-3.641-.008-.453-.008-.612.137-.6.6.026,1.375.02,2.751,0,4.126-.005.4.09.583.535.58q3.722-.024,7.443,0c.468,0,.69-.145.682-.65-.021-1.348-.025-2.7,0-4.045.009-.474-.178-.608-.615-.6-1.267.016-2.535.006-3.8.006" transform="translate(-48.849 -62.43)"/>
        <path id="Trazado_823951" data-name="Trazado 823951" d="M216.673,163.685a39.859,39.859,0,0,1-4.644-.126c-2.32-.379-3.576-1.929-4.345-3.99a2.309,2.309,0,0,1,.005-.759c.02-3.239-.211-6.485.128-9.714a4.835,4.835,0,0,1,3.973-3.885,64.639,64.639,0,0,1,9.208-.126,5.194,5.194,0,0,1,5.256,5.615c-.038,2.457,0,4.916-.009,7.374a5.346,5.346,0,0,1-5.637,5.61c-1.215,0-2.431,0-3.935,0m-4.186-9.32h.01c0,1.242-.006,2.485,0,3.727,0,.342-.033.729.514.723,2.592-.029,5.184-.043,7.776-.069.4,0,.623-.146.619-.635-.024-2.484-.019-4.969,0-7.453,0-.561-.215-.766-.764-.764q-3.767.021-7.534,0c-.5,0-.643.186-.633.666.027,1.269.009,2.539.009,3.808" transform="translate(-72.549 -50.659)"/>
        <path id="Trazado_823952" data-name="Trazado 823952" d="M40.861,215.677c.715-.163,1.155.395,1.658.842a2.985,2.985,0,0,0,2.96.966c.62-.174,1.176-.361,1.3-1.02a1.937,1.937,0,0,0-.587-2.134,7.1,7.1,0,0,0-1.8-.91,12.986,12.986,0,0,1-3.462-1.721,5.973,5.973,0,0,1,.8-9.69,1.417,1.417,0,0,0,.909-1.261,2.271,2.271,0,0,1,2.193-2.106,2.22,2.22,0,0,1,2.536,1.86,1.29,1.29,0,0,0,1.268,1.079,2.792,2.792,0,0,1,2.36,3.789,2.33,2.33,0,0,1-2.883,1.144,6.188,6.188,0,0,0-3.115-.718c-1.059.144-1.576.819-1.185,1.589a1.872,1.872,0,0,0,.984.808c.936.415,1.889.794,2.823,1.214a6.985,6.985,0,0,1,1.964,11.4,1.482,1.482,0,0,1-.311.257,3.512,3.512,0,0,0-2.15,2.373,2.084,2.084,0,0,1-2.429,1.176,2.24,2.24,0,0,1-1.967-1.775,1.4,1.4,0,0,0-1.028-1.17,5.066,5.066,0,0,1-3.111-2.655,2.41,2.41,0,0,1,2.264-3.334" transform="translate(-13.417 -69.406)"/>
        <path id="Trazado_823953" data-name="Trazado 823953" d="M215.115,200.565c0-4.267.009-8.533-.008-12.8a1.451,1.451,0,0,1,.994-1.394,2.572,2.572,0,0,1,1.113-.165c1.485.007,2.97,0,4.455,0,1.868,0,2.328.459,2.333,2.358q.012,5.914.005,11.828,0,6.157-.008,12.314a6.91,6.91,0,0,1-.113,1.368,1.99,1.99,0,0,1-1.935,1.648c-1.537.038-3.079.053-4.615,0a2.207,2.207,0,0,1-2.214-2.355q0-6.4,0-12.8Z" transform="translate(-75.161 -65.063)" fill="#ec8600"/>
        <path id="Trazado_823954" data-name="Trazado 823954" d="M185.423,223.54c-1.186,0-2.373-.018-3.558.008-.488.011-.671-.15-.662-.645.023-1.321.019-2.642,0-3.963-.007-.464.19-.608.627-.606q3.68.017,7.359,0c.453,0,.619.167.61.617q-.038,1.98-.025,3.962c0,.517-.264.634-.712.629-1.213-.013-2.426,0-3.639,0" transform="translate(-63.314 -76.289)" fill="#7bcb91"/>
        <path id="Trazado_823955" data-name="Trazado 823955" d="M185.527,152.631c1.132,0,2.267.051,3.395-.018.755-.046.918.258.892.924q-.066,1.7-.027,3.4c.018.733-.277,1.014-1,1-2.047-.024-4.1-.008-6.145-.007-1.427,0-1.429,0-1.434-1.455,0-1.079.007-2.157-.01-3.235-.007-.446.154-.621.615-.613,1.239.023,2.479.008,3.719.008v0" transform="translate(-63.311 -53.323)" fill="#7bcb91"/>
        <path id="Trazado_823956" data-name="Trazado 823956" d="M185.432,191.587c-1.188,0-2.376-.018-3.563.008-.485.011-.675-.145-.666-.644.023-1.349.018-2.7,0-4.049-.005-.45.165-.617.619-.613,2.4.014,4.805,0,7.208.009.5,0,.793.185.777.766-.034,1.269-.037,2.538-.016,3.807.01.592-.275.731-.8.722-1.187-.021-2.375-.007-3.563-.006" transform="translate(-63.314 -65.092)" fill="#7bcb91"/>
        <path id="Trazado_823957" data-name="Trazado 823957" d="M151.724,152.647c1.213,0,2.427.021,3.639-.01.519-.013.714.131.7.681q-.06,1.858,0,3.72c.02.65-.307.89-.865.893-2.426.012-4.852,0-7.278.012-.463,0-.523-.219-.52-.6.013-1.375.02-2.75,0-4.124-.008-.474.167-.59.616-.58,1.239.029,2.479.01,3.719.01v0" transform="translate(-51.499 -53.333)" fill="#7bcb91"/>
        <path id="Trazado_823958" data-name="Trazado 823958" d="M151.727,223.5c-1.215,0-2.431-.021-3.645.01-.508.013-.718-.107-.7-.667.04-1.321.034-2.646.006-3.968-.011-.491.142-.667.637-.664q3.726.025,7.451,0c.485,0,.578.209.573.639-.016,1.323-.014,2.646.023,3.968.014.535-.17.7-.7.688-1.214-.033-2.43-.011-3.645-.009" transform="translate(-51.497 -76.245)" fill="#7bcb91"/>
        <path id="Trazado_823959" data-name="Trazado 823959" d="M151.635,186.3c1.267,0,2.535.01,3.8-.006.438-.005.625.129.615.6-.026,1.348-.021,2.7,0,4.045.008.5-.214.652-.682.65q-3.722-.017-7.443,0c-.444,0-.54-.18-.535-.58.018-1.375.024-2.751,0-4.126-.008-.464.151-.61.6-.6,1.213.022,2.427.008,3.641.008Z" transform="translate(-51.5 -65.091)" fill="#7bcb91"/>
        <path id="Trazado_823960" data-name="Trazado 823960" d="M215.09,157c0-1.269.018-2.539-.009-3.808-.01-.479.128-.669.633-.666q3.768.028,7.534,0c.55,0,.769.2.764.764-.019,2.485-.024,4.969,0,7.453,0,.489-.218.63-.619.635-2.592.026-5.184.04-7.776.069-.547.006-.511-.381-.514-.723-.011-1.242,0-2.485,0-3.727Z" transform="translate(-75.152 -53.295)" fill="#ec8600"/>
      </g>
    </g>
  </g>
</svg>
