<svg xmlns="http://www.w3.org/2000/svg" xmlns:xlink="http://www.w3.org/1999/xlink" width="190" height="174" viewBox="0 0 190 174">
  <defs>
    <clipPath id="clip-path">
      <rect id="Rect치ngulo_378262" data-name="Rect치ngulo 378262" width="190" height="174" transform="translate(390 2505.086)" fill="none" stroke="#707070" stroke-width="1"/>
    </clipPath>
    <clipPath id="clip-path-2">
      <rect id="Rect치ngulo_378274" data-name="Rect치ngulo 378274" width="148.489" height="148.571" fill="none"/>
    </clipPath>
  </defs>
  <g id="Enmascarar_grupo_411" data-name="Enmascarar grupo 411" transform="translate(-390 -2505.086)" clip-path="url(#clip-path)">
    <g id="Grupo_1074008" data-name="Grupo 1074008" transform="translate(402 2509.086)">
      <g id="Grupo_1074007" data-name="Grupo 1074007" transform="translate(8.667 8.671)" clip-path="url(#clip-path-2)">
        <path id="Trazado_823896" data-name="Trazado 823896" d="M138.743,148.539a8.925,8.925,0,0,1-7.059-2.858c-5.633-5.79-11.4-11.442-17.079-17.19a.854.854,0,0,0-1.314-.126,21.889,21.889,0,0,1-2.94,1.614,39.815,39.815,0,0,1-18.725,3.813,31.714,31.714,0,0,1-7.2-1.275,38.342,38.342,0,0,1-8.414-3.38,32.152,32.152,0,0,1-9.08-7.375c-.713-.845-1.454-1.668-2.132-2.539-.544-.7-1.291-.5-1.915-.4a19.012,19.012,0,0,1-2.6.113,35.67,35.67,0,0,1-3.867-.014c-1.739-.15-3.482-.252-5.215-.554-1.6-.279-3.207-.57-4.812-.84a33.045,33.045,0,0,1-3.9-.956c-1.6-.475-3.163-1.087-4.719-1.706-1.769-.7-3.468-1.56-5.174-2.395a57.141,57.141,0,0,1-10.524-6.862A60.581,60.581,0,0,1,7.145,87.757a44.954,44.954,0,0,1-3.188-6.929A65.037,65.037,0,0,1,1.022,70.176C.72,68.457.37,66.743.2,65.01a70.321,70.321,0,0,1-.156-8.3,60.393,60.393,0,0,1,2.14-13.169A50.015,50.015,0,0,1,5.212,35a61.434,61.434,0,0,1,5.995-10.191,47.6,47.6,0,0,1,4.61-5.687,61.285,61.285,0,0,1,4.421-4.475A91.75,91.75,0,0,1,27.7,9.143a43.565,43.565,0,0,1,6.966-3.766A69.466,69.466,0,0,1,43.275,2.3c2.406-.7,4.862-1.154,7.309-1.648a35.022,35.022,0,0,1,4.288-.48A34.946,34.946,0,0,1,59.013.018c2.342.1,4.684.164,7.025.4,1.693.168,3.371.444,5.032.725a29.28,29.28,0,0,1,4.036,1.037c1.111.357,2.211.754,3.336,1.058a44.8,44.8,0,0,1,8.151,3.33c1.112.55,2.157,1.234,3.267,1.787,2.3,1.145,4.167,2.9,6.216,4.391a47.055,47.055,0,0,1,8.253,7.824,72.645,72.645,0,0,1,6.578,9.259,47.791,47.791,0,0,1,3.944,8.061,54.331,54.331,0,0,1,2.067,6.884c.488,2.163.9,4.328,1.264,6.516a48.479,48.479,0,0,1-.034,16.618c-.038.185-.115.425.1.569.638.418,1.022,1.1,1.661,1.537a11.8,11.8,0,0,1,2.159,2.263,37.331,37.331,0,0,1,6.386,10.2,42.175,42.175,0,0,1,2.087,7.309,35.7,35.7,0,0,1,.741,6.943,34.419,34.419,0,0,1-.961,7.665c-.461,2.034-1.089,4.01-1.71,5.99a15.512,15.512,0,0,1-1.183,2.653c-.1.18-.163.21-.047.392a4.523,4.523,0,0,0,.626.774c6,6,12.04,11.976,17.983,18.038a8.7,8.7,0,0,1,2.491,6.48,9.565,9.565,0,0,1-5.969,9.089,7.349,7.349,0,0,1-3.774.738M81.528,9.907l.071-.2a5.293,5.293,0,0,0-.568-.295c-1.609-.613-3.2-1.281-4.838-1.81a64.982,64.982,0,0,0-7.419-1.767A67.391,67.391,0,0,0,59,4.955c-.692-.035-1.383.119-2.065.127-2.128.024-4.224.36-6.337.51-.483.034-.438.239-.346.609.345,1.38,1.437,1.68,2.611,1.834,2.8.368,5.572.86,8.341,1.4a4.881,4.881,0,0,1,3.331,7.093,31.433,31.433,0,0,1-2.916,4.368,3.914,3.914,0,0,1-2.159,1.429c-2.386.628-4.773,1.265-7.182,1.794a3.2,3.2,0,0,0-2.056,1.31c-1.84,2.521-3.725,5.009-5.58,7.518a5.875,5.875,0,0,1-2.158,1.831c-2.333,1.15-4.646,2.34-6.984,3.478a13.6,13.6,0,0,1-3.065,1.4c-1.9.4-3.8.813-5.7,1.19q-1.9.376-3.814.656c-.439.064-.644.2-.632.665a27.593,27.593,0,0,1-.013,2.786,1.328,1.328,0,0,0,.738,1.362c1.391.886,2.753,1.818,4.13,2.726A5.1,5.1,0,0,1,29.6,52.746a33.892,33.892,0,0,1,.089,5.4,4.642,4.642,0,0,1-1.439,3.3,5.107,5.107,0,0,1-5.278,1.116c-3.19-1.619-6.374-3.254-9.6-4.8a10.167,10.167,0,0,1-4.213-3.388C8.283,53.1,7.267,51.927,6.32,50.7c-.16-.206-.294-.464-.609-.347-.275.1-.09.359-.12.541-.061.38-.085.767-.129,1.15-.17,1.472-.461,2.943-.486,4.418A54.122,54.122,0,0,0,5.1,63.718c.216,1.837.305,3.7.657,5.507A59.048,59.048,0,0,0,7.439,75.8a53.615,53.615,0,0,0,7.147,14.667,52.929,52.929,0,0,0,24.751,19.582c.285.109.541.622.838.3.229-.251-.26-.474-.378-.742-1.06-2.406-1.7-4.958-2.621-7.414-.7-1.88-1.265-3.812-1.874-5.726a8.881,8.881,0,0,1-.61-2.727c.006-2.374-.03-4.75,0-7.123a1.177,1.177,0,0,0-.742-1.25,14.3,14.3,0,0,1-3.855-2.249c-1.33-1.3-2.65-2.605-3.933-3.949a4.934,4.934,0,0,1-1.4-3.561c.018-2.426-.028-4.853.022-7.279A4.886,4.886,0,0,1,26.622,64.5a40.189,40.189,0,0,1,3.644-2.283c2.053-1.345,4.156-2.6,6.282-3.826a4.914,4.914,0,0,1,6.3.826q2.358,2.35,4.681,4.735a1.434,1.434,0,0,0,1.142.49q3.25-.042,6.5-.007A5.223,5.223,0,0,1,60,67.06c.553.947,1.32,1.784,1.771,2.772a3.235,3.235,0,0,0,3.84,2.055,2.353,2.353,0,0,0,1.489-.61,41.02,41.02,0,0,1,4.6-4.256,34.393,34.393,0,0,1,6.023-3.666,35.486,35.486,0,0,1,10.534-3.279c.623-.073,1.017-.278.963-1.094a2.351,2.351,0,0,0-.777-1.749c-.669-.605-1.3-1.253-1.923-1.907a.834.834,0,0,0-1.017-.246c-1.556.539-3.153.965-4.693,1.544a6.326,6.326,0,0,1-3.886-.061c-1.818-.447-3.642-.865-5.46-1.3-2.725-.654-4.321-1.625-5.019-4.587-.576-2.444-1.2-4.876-1.749-7.328a4.033,4.033,0,0,1,.488-3.059c1.115-1.837,2.417-3.559,3.555-5.383a5.453,5.453,0,0,1,5.013-2.7c2.116.011,4.232,0,6.348,0a7,7,0,0,1,4.262,1.283c.979.712,2.03,1.324,3.006,2.04.3.219.7.142.925.42A4.785,4.785,0,0,0,91.27,37.6c2.618.446,5.2,1.04,7.8,1.583a4.6,4.6,0,0,0,3.627-.541c1.521-.973,3.126-1.816,4.691-2.722,1-.579.985-.579.419-1.6-.557-1-1.2-1.951-1.771-2.932a31.371,31.371,0,0,0-1.647-2.74c-.97-1.339-1-1.32-2.373-.391a4.963,4.963,0,0,1-5.5.5,20.514,20.514,0,0,0-2.486-1.329c-.609-.226-1.108-.632-1.733-.826a6.164,6.164,0,0,1-1.653-.825,3.522,3.522,0,0,0-3.113-.508c-2.284.58-4.581,1.108-6.866,1.683a4.125,4.125,0,0,1-3.218-.531c-1.738-1.056-3.41-2.224-5.083-3.382A4.782,4.782,0,0,1,71.1,16.5q1.387-2,2.7-4.055a5.258,5.258,0,0,1,4.72-2.535c1,0,2,0,3,0M61.928,99.3c.28,6.9,3.606,14.958,10.71,21.267a31.3,31.3,0,0,0,24.836,8.084,30.412,30.412,0,0,0,19.117-9.04c6.976-7.107,10.363-15.634,9.589-25.632a32.182,32.182,0,0,0-31.673-29.5c-18.319-.2-32.58,14.342-32.578,34.824M7.254,43.637a1.953,1.953,0,0,0,.372.945c1.564,1.977,3.154,3.933,4.661,5.953a8.406,8.406,0,0,0,3.589,3.021A49.506,49.506,0,0,1,20.5,55.722c1.242.658,2.516,1.3,3.72,2.05.391.242.551.185.544-.29-.01-.776-.05-1.557.01-2.328a2.672,2.672,0,0,0-1.393-2.737c-1.318-.805-2.557-1.739-3.848-2.591A4.652,4.652,0,0,1,17.5,46.7a29.135,29.135,0,0,1-.127-5.631,3.121,3.121,0,0,1,.5-1.657,5.581,5.581,0,0,1,3.514-2.579c1.943-.393,3.888-.775,5.818-1.225,1.819-.424,3.719-.5,5.432-1.377,2.339-1.2,4.709-2.337,7.064-3.5a3.669,3.669,0,0,0,1.342-1.133c1.828-2.464,3.687-4.9,5.513-7.369a6.519,6.519,0,0,1,3.761-2.664c1.972-.476,3.917-1.076,5.9-1.465A3.418,3.418,0,0,0,59.016,16.1a7.023,7.023,0,0,1,.743-1.083c.47-.674.434-.789-.41-.961-.649-.132-1.31-.2-1.964-.308-2.278-.385-4.554-.784-6.834-1.161A5.179,5.179,0,0,1,46.58,9.606C46.2,8.848,45.726,8.137,45.3,7.4c-.254-.444-.543-.674-1.041-.306a1.635,1.635,0,0,1-.505.185,52.243,52.243,0,0,0-11.923,5.233A54.562,54.562,0,0,0,7.412,43.161c-.055.168-.111.336-.158.476M39.632,89.472c0,1.555,0,2.819,0,4.083a2.485,2.485,0,0,0,.081.756c1.223,3.66,2.514,7.3,3.661,10.98.4,1.288.973,2.166,2.365,2.351a1.279,1.279,0,0,1,.58.2c.7.522.745.086.744-.476,0-2.038.021-4.077-.007-6.115A5.3,5.3,0,0,1,50.3,96.02c1.995-.966,3.961-1.989,5.963-2.937a1.1,1.1,0,0,0,.719-1.2c-.039-.979-.035-1.961,0-2.941a5.265,5.265,0,0,1,1.551-3.837,3.043,3.043,0,0,0,.776-1.14A31.036,31.036,0,0,1,62.539,77.4c.256-.377.289-.641-.278-.745A5.055,5.055,0,0,1,58.855,74.2c-.933-1.452-1.905-2.88-2.836-4.334a.968.968,0,0,0-.941-.495c-2.115.021-4.233-.055-6.345.029a5.7,5.7,0,0,1-4.574-1.955C42.7,65.913,41.2,64.422,39.728,62.9c-.285-.295-.5-.42-.917-.164q-4.276,2.635-8.59,5.206a.881.881,0,0,0-.507.9c.018,2.064.03,4.129,0,6.193a2.077,2.077,0,0,0,.675,1.559,17.947,17.947,0,0,0,6.456,4.786,2.016,2.016,0,0,1,.268.154A4.839,4.839,0,0,1,39.482,84.9a31.593,31.593,0,0,1,.15,4.572M77.055,37.165c-1.083,0-2.167.016-3.249-.007a1,1,0,0,0-.973.463q-1.546,2.341-3.138,4.653a.827.827,0,0,0-.15.718c.534,2.1,1.092,4.195,1.586,6.3a1.241,1.241,0,0,0,1.1,1.015c1.483.312,2.972.6,4.42,1.058a6.526,6.526,0,0,0,4.865-.156,21.2,21.2,0,0,1,3.151-1.035,4.686,4.686,0,0,1,4.973,1.5,18.607,18.607,0,0,0,2.315,2.36,5.733,5.733,0,0,1,2.18,4.383c.1,1.155.174,1.22,1.357,1.2a30.022,30.022,0,0,1,8.417,1.2,35.008,35.008,0,0,1,9.057,3.877c.18.11.62.649.666-.086.106-1.7.358-3.389.341-5.105a67.634,67.634,0,0,0-.528-7.377,50.134,50.134,0,0,0-2.78-11.375c-.321-.871-.306-.858-1.081-.407q-3.007,1.745-6.03,3.461a5.26,5.26,0,0,1-3.808.56c-2.318-.538-4.666-.922-6.978-1.473-1.573-.375-3.243-.419-4.709-1.157a42.943,42.943,0,0,1-4.8-3.058c-1.4-.959-2.726-1.772-4.5-1.524a12.408,12.408,0,0,1-1.7.012m61.854,106.4a4.407,4.407,0,0,0,.69-.076,4.775,4.775,0,0,0,3.661-3.312,4.558,4.558,0,0,0-1.189-4.961q-8.486-8.583-17.013-17.126c-.373-.376-.516-.206-.746.126a34.933,34.933,0,0,1-5.568,6.2c-.529.47-.576.713-.089,1.2q8.252,8.222,16.485,16.463a4.959,4.959,0,0,0,3.77,1.486M83.6,14.863c-1.624,0-3.248.014-4.872-.01a1,1,0,0,0-.96.486c-.718,1.09-1.454,2.169-2.2,3.242-.324.467-.128.739.278,1,1.036.674,2.069,1.353,3.082,2.061A1.844,1.844,0,0,0,80.6,21.9c2.161-.579,4.343-1.079,6.505-1.656a5.948,5.948,0,0,1,4.449.507c2.171,1.124,4.4,2.143,6.545,3.31a1.541,1.541,0,0,0,1.874-.255c.379-.268.336-.482.04-.8a63.535,63.535,0,0,0-8.565-7.68,2.226,2.226,0,0,0-2.523-.5,1.476,1.476,0,0,1-.611.034q-2.358,0-4.717,0M56.857,98.2c-1.427.705-2.846,1.432-4.291,2.1a.812.812,0,0,0-.552.871c.019,2.09.011,4.181,0,6.271-.009,2.336-.835,4.181-3.123,5.133-.108.045-.29.02-.256.211a.315.315,0,0,0,.337.253c.978.026,1.908.364,2.869.465a78.161,78.161,0,0,0,8.346.479c1.163,0,1.181-.012.651-1a29.667,29.667,0,0,1-2.443-6.365,42.587,42.587,0,0,1-1.145-5.605,7.5,7.5,0,0,0-.4-2.812" transform="translate(0 0)"/>
        <path id="Trazado_823897" data-name="Trazado 823897" d="M84.525,12.922c-1,0-2,0-3,0a5.258,5.258,0,0,0-4.72,2.535q-1.31,2.054-2.7,4.055a4.783,4.783,0,0,0,1.253,6.542c1.674,1.158,3.346,2.326,5.084,3.382a4.126,4.126,0,0,0,3.217.531c2.286-.575,4.582-1.1,6.867-1.684a3.521,3.521,0,0,1,3.113.508,6.173,6.173,0,0,0,1.653.825c.626.195,1.125.6,1.733.826a20.393,20.393,0,0,1,2.487,1.33,4.962,4.962,0,0,0,5.5-.5c1.371-.929,1.4-.948,2.374.391a31.2,31.2,0,0,1,1.647,2.74c.567.981,1.215,1.931,1.771,2.932.566,1.017.58,1.017-.419,1.6-1.565.906-3.169,1.75-4.691,2.722a4.592,4.592,0,0,1-3.627.541c-2.6-.542-5.18-1.137-7.8-1.582a4.787,4.787,0,0,1-2.982-1.646c-.226-.278-.626-.2-.925-.42-.976-.716-2.027-1.328-3.006-2.04a7,7,0,0,0-4.262-1.282c-2.116,0-4.232.008-6.348,0a5.453,5.453,0,0,0-5.013,2.7c-1.137,1.825-2.44,3.546-3.555,5.383a4.034,4.034,0,0,0-.488,3.059c.545,2.453,1.173,4.884,1.749,7.328.7,2.962,2.294,3.933,5.019,4.587,1.819.436,3.643.854,5.46,1.3a6.331,6.331,0,0,0,3.886.06c1.54-.579,3.137-1.005,4.693-1.544a.834.834,0,0,1,1.017.246c.622.654,1.254,1.3,1.923,1.907A2.351,2.351,0,0,1,92.214,62c.054.817-.341,1.021-.964,1.094a35.487,35.487,0,0,0-10.533,3.279,34.4,34.4,0,0,0-6.023,3.667,40.9,40.9,0,0,0-4.6,4.256,2.356,2.356,0,0,1-1.489.61,3.236,3.236,0,0,1-3.84-2.055c-.451-.987-1.218-1.825-1.771-2.772a5.222,5.222,0,0,0-4.82-2.629q-3.251-.035-6.5.007a1.43,1.43,0,0,1-1.141-.49q-2.32-2.386-4.681-4.734a4.914,4.914,0,0,0-6.306-.826c-2.125,1.223-4.229,2.48-6.282,3.826a40.362,40.362,0,0,0-3.644,2.283,4.886,4.886,0,0,0-1.836,3.832c-.05,2.425,0,4.853-.022,7.279a4.933,4.933,0,0,0,1.4,3.561c1.283,1.344,2.6,2.652,3.933,3.949a14.308,14.308,0,0,0,3.855,2.248,1.177,1.177,0,0,1,.743,1.25c-.032,2.374,0,4.749,0,7.123A8.9,8.9,0,0,0,38.3,99.48c.61,1.914,1.172,3.846,1.874,5.726.917,2.456,1.562,5.009,2.621,7.414.117.268.607.491.378.743-.3.325-.553-.187-.838-.3A52.927,52.927,0,0,1,17.583,93.483a53.624,53.624,0,0,1-7.147-14.667A59.01,59.01,0,0,1,8.759,72.24c-.353-1.81-.442-3.67-.658-5.507a54.225,54.225,0,0,1-.128-7.252c.025-1.475.316-2.945.486-4.418.044-.383.068-.77.13-1.15.029-.183-.156-.439.12-.541.314-.116.448.141.608.347.948,1.224,1.964,2.4,2.837,3.673a10.171,10.171,0,0,0,4.214,3.389c3.226,1.545,6.409,3.18,9.6,4.8a5.107,5.107,0,0,0,5.277-1.117,4.646,4.646,0,0,0,1.44-3.3,33.956,33.956,0,0,0-.089-5.4,5.1,5.1,0,0,0-2.457-3.711c-1.377-.909-2.739-1.841-4.131-2.726a1.329,1.329,0,0,1-.737-1.362,27.581,27.581,0,0,0,.013-2.786c-.012-.47.192-.6.632-.666q1.914-.278,3.814-.656c1.9-.377,3.8-.79,5.7-1.19a13.6,13.6,0,0,0,3.066-1.4c2.338-1.137,4.651-2.328,6.984-3.478a5.868,5.868,0,0,0,2.157-1.831c1.856-2.509,3.741-5,5.581-7.518a3.2,3.2,0,0,1,2.056-1.31c2.409-.529,4.795-1.166,7.182-1.793a3.92,3.92,0,0,0,2.159-1.429,31.414,31.414,0,0,0,2.916-4.368A4.881,4.881,0,0,0,64.2,12.446c-2.769-.536-5.543-1.028-8.34-1.4-1.173-.154-2.266-.454-2.611-1.834-.093-.37-.138-.575.346-.609,2.113-.15,4.21-.487,6.337-.51.682-.007,1.374-.162,2.066-.127a67.383,67.383,0,0,1,9.775.877,65.124,65.124,0,0,1,7.42,1.767c1.637.529,3.229,1.2,4.838,1.81a5.285,5.285,0,0,1,.567.295c-.023.068-.047.135-.07.2" transform="translate(-2.997 -3.015)" fill="#59a9e6"/>
        <path id="Trazado_823898" data-name="Trazado 823898" d="M99.655,138.576c0-20.482,14.26-35.022,32.578-34.824a32.182,32.182,0,0,1,31.673,29.5c.774,10-2.612,18.525-9.589,25.632a30.414,30.414,0,0,1-19.116,9.04,31.3,31.3,0,0,1-24.837-8.084c-7.1-6.309-10.43-14.362-10.71-21.267M133.3,163.189a26.212,26.212,0,0,0,18.552-8.8,26.564,26.564,0,0,0,7.11-20.672,26.141,26.141,0,0,0-7.74-16.886A27.149,27.149,0,0,0,104.646,137.3c.8,13.983,11.835,25.723,28.653,25.894" transform="translate(-37.727 -39.277)" fill="#fd9610"/>
        <path id="Trazado_823899" data-name="Trazado 823899" d="M11.673,47.847l.158-.476a54.563,54.563,0,0,1,24.423-30.65,52.194,52.194,0,0,1,11.923-5.232,1.626,1.626,0,0,0,.5-.185c.5-.369.788-.138,1.042.306.421.738.895,1.449,1.276,2.206A5.178,5.178,0,0,0,54.972,16.8c2.279.377,4.556.777,6.834,1.161.653.111,1.315.176,1.964.308.843.172.88.287.409.961a6.975,6.975,0,0,0-.743,1.083A3.42,3.42,0,0,1,60.644,22.3c-1.987.39-3.933.989-5.9,1.465a6.519,6.519,0,0,0-3.761,2.663c-1.826,2.465-3.686,4.906-5.513,7.369a3.661,3.661,0,0,1-1.342,1.134c-2.356,1.165-4.725,2.3-7.064,3.5-1.713.877-3.614.953-5.432,1.377-1.93.45-3.875.832-5.818,1.225a5.586,5.586,0,0,0-3.515,2.579,3.117,3.117,0,0,0-.5,1.658,29.08,29.08,0,0,0,.126,5.63,4.658,4.658,0,0,0,2.042,3.128c1.291.851,2.53,1.785,3.848,2.591A2.674,2.674,0,0,1,29.2,59.363c-.061.772-.02,1.552-.01,2.328.006.475-.153.532-.544.291-1.2-.746-2.479-1.392-3.721-2.051a49.134,49.134,0,0,0-4.629-2.165,8.408,8.408,0,0,1-3.588-3.021c-1.506-2.019-3.1-3.976-4.661-5.953a1.941,1.941,0,0,1-.373-.945" transform="translate(-4.419 -4.21)" fill="#00cbb2"/>
        <path id="Trazado_823900" data-name="Trazado 823900" d="M57.731,127.608a31.587,31.587,0,0,0-.15-4.572,4.839,4.839,0,0,0-2.374-3.367,2.108,2.108,0,0,0-.268-.154,17.957,17.957,0,0,1-6.456-4.786,2.076,2.076,0,0,1-.674-1.559c.035-2.064.023-4.128,0-6.193a.881.881,0,0,1,.506-.9q4.32-2.562,8.591-5.206c.415-.256.632-.13.917.164,1.471,1.52,2.973,3.01,4.43,4.543a5.7,5.7,0,0,0,4.574,1.955c2.112-.083,4.229-.007,6.344-.029a.97.97,0,0,1,.942.495c.93,1.454,1.9,2.882,2.836,4.334a5.055,5.055,0,0,0,3.406,2.455c.567.1.534.368.278.745a31.008,31.008,0,0,0-3.231,6.568,3.043,3.043,0,0,1-.776,1.14,5.27,5.27,0,0,0-1.551,3.837c-.032.98-.035,1.962,0,2.941a1.1,1.1,0,0,1-.719,1.2c-2,.948-3.969,1.972-5.964,2.937a5.3,5.3,0,0,0-3.243,5.227c.027,2.038,0,4.077.007,6.115,0,.562-.043,1-.744.476a1.274,1.274,0,0,0-.58-.2c-1.392-.185-1.964-1.063-2.365-2.351-1.147-3.683-2.438-7.32-3.66-10.98a2.447,2.447,0,0,1-.081-.756c-.008-1.265,0-2.529,0-4.083" transform="translate(-18.099 -38.136)" fill="#00cbb2"/>
        <path id="Trazado_823901" data-name="Trazado 823901" d="M119.4,59.771a12.309,12.309,0,0,0,1.7-.012c1.772-.248,3.095.565,4.5,1.524a42.762,42.762,0,0,0,4.8,3.058c1.467.739,3.136.782,4.709,1.157,2.312.551,4.66.936,6.977,1.474a5.261,5.261,0,0,0,3.809-.561q3.028-1.709,6.03-3.461c.776-.451.761-.464,1.081.407a50.16,50.16,0,0,1,2.781,11.375,67.639,67.639,0,0,1,.528,7.376c.017,1.716-.235,3.4-.341,5.106-.046.735-.485.2-.666.086a35.03,35.03,0,0,0-9.057-3.878,30.045,30.045,0,0,0-8.417-1.2c-1.182.019-1.252-.045-1.357-1.2a5.73,5.73,0,0,0-2.18-4.384,18.558,18.558,0,0,1-2.314-2.36,4.686,4.686,0,0,0-4.974-1.5,21.094,21.094,0,0,0-3.151,1.035,6.525,6.525,0,0,1-4.865.155c-1.449-.453-2.937-.746-4.42-1.058a1.239,1.239,0,0,1-1.1-1.014c-.494-2.11-1.052-4.2-1.586-6.305a.827.827,0,0,1,.15-.718q1.586-2.315,3.138-4.652a1,1,0,0,1,.973-.464c1.083.024,2.166.008,3.249.008" transform="translate(-42.35 -22.606)" fill="#00cbb2"/>
        <path id="Trazado_823902" data-name="Trazado 823902" d="M210.988,215.381a4.956,4.956,0,0,1-3.77-1.486q-8.246-8.228-16.484-16.462c-.487-.485-.44-.729.089-1.2a34.961,34.961,0,0,0,5.568-6.2c.23-.332.373-.5.746-.125q8.5,8.57,17.013,17.126a4.559,4.559,0,0,1,1.19,4.96,4.781,4.781,0,0,1-3.663,3.312,4.376,4.376,0,0,1-.689.075" transform="translate(-72.079 -71.813)" fill="#fd9610"/>
        <path id="Trazado_823903" data-name="Trazado 823903" d="M129.541,23.759q2.358,0,4.717,0a1.453,1.453,0,0,0,.61-.034,2.228,2.228,0,0,1,2.524.5,63.61,63.61,0,0,1,8.564,7.68c.3.314.339.528-.04.8a1.54,1.54,0,0,1-1.874.254c-2.147-1.168-4.374-2.186-6.545-3.31a5.952,5.952,0,0,0-4.45-.507c-2.162.577-4.344,1.078-6.505,1.657a1.841,1.841,0,0,1-1.671-.25c-1.013-.708-2.046-1.386-3.082-2.061-.406-.265-.6-.537-.279-1q1.116-1.61,2.2-3.241a1,1,0,0,1,.96-.486c1.623.024,3.248.009,4.871.008" transform="translate(-45.94 -8.898)" fill="#00cbb2"/>
        <path id="Trazado_823904" data-name="Trazado 823904" d="M86.485,158.026a7.5,7.5,0,0,1,.4,2.812,42.587,42.587,0,0,0,1.145,5.605,29.667,29.667,0,0,0,2.443,6.365c.53.992.512,1-.651,1a78.162,78.162,0,0,1-8.346-.479c-.961-.1-1.89-.439-2.868-.465a.315.315,0,0,1-.337-.253c-.034-.191.149-.167.256-.211,2.287-.952,3.113-2.8,3.123-5.133.008-2.09.016-4.181,0-6.271a.812.812,0,0,1,.552-.871c1.445-.671,2.864-1.4,4.291-2.1" transform="translate(-29.628 -59.824)" fill="#59a9e6"/>
        <path id="Trazado_823905" data-name="Trazado 823905" d="M136.31,166.207c-16.817-.17-27.854-11.91-28.653-25.894a27.209,27.209,0,0,1,46.575-20.469,26.144,26.144,0,0,1,7.741,16.887,26.566,26.566,0,0,1-7.111,20.672,26.212,26.212,0,0,1-18.552,8.8m-23.735-27.539a22.171,22.171,0,0,0,22.3,22.546A22.247,22.247,0,0,0,157.021,136.7a22.146,22.146,0,0,0-22.346-20.045,22.2,22.2,0,0,0-22.1,22.01" transform="translate(-40.738 -42.294)"/>
        <path id="Trazado_823906" data-name="Trazado 823906" d="M115.6,141.676a22.2,22.2,0,0,1,22.1-22.01,22.3,22.3,0,0,1,18.416,35.1,21.388,21.388,0,0,1-18.213,9.455,22.171,22.171,0,0,1-22.3-22.546m34.063,9.417a1,1,0,0,0,1.332.319,10.741,10.741,0,0,0,5.976-5.605,1.192,1.192,0,0,0-.186-1.547,25.63,25.63,0,0,0,.84-3.858c.145-2.113-.736-3.425-2.852-3.4-1.871.019-3.74-.058-5.618.1a11.6,11.6,0,0,0-5.268,1.749c-.372.233-.536.232-.761-.18A17.151,17.151,0,0,0,131.744,130a34.429,34.429,0,0,0-8.837-.394,2.4,2.4,0,0,0-2.34,2.688,15.747,15.747,0,0,0,.882,5.147,18,18,0,0,0,5.54,8.028,16.322,16.322,0,0,0,4.288,2.61,13.389,13.389,0,0,0,6.026,1.278c.536-.037.648.25.741.645a2.385,2.385,0,0,0,2.046,1.805c3.208.021,6.449.406,9.573-.713" transform="translate(-43.763 -45.302)" fill="#77b8ea"/>
        <path id="Trazado_823907" data-name="Trazado 823907" d="M152.69,157.089c-3.125,1.118-6.365.733-9.573.712A2.384,2.384,0,0,1,141.071,156c-.093-.4-.2-.682-.741-.645a13.388,13.388,0,0,1-6.026-1.278,16.322,16.322,0,0,1-4.288-2.61,18,18,0,0,1-5.54-8.028,15.753,15.753,0,0,1-.882-5.148,2.4,2.4,0,0,1,2.34-2.688,34.4,34.4,0,0,1,8.837.393,17.156,17.156,0,0,1,11.381,8.675c.225.412.389.413.761.18a11.6,11.6,0,0,1,5.268-1.749c1.879-.163,3.747-.085,5.618-.1,2.115-.022,3,1.289,2.852,3.4a25.651,25.651,0,0,1-.84,3.858,3.054,3.054,0,0,0-.2.321,12.347,12.347,0,0,1-5.542,5.828c-.456.236-.918.457-1.376.685M130.3,140.513c-.259,0-.518.022-.774,0-.666-.068-.767.167-.6.8a12.5,12.5,0,0,0,12.135,9.1,1.436,1.436,0,0,0,1.434-2.1,12.615,12.615,0,0,0-1.342-2.519c-2.655-3.746-6.4-5.24-10.856-5.28m17.244,12.379a10.429,10.429,0,0,0,3.34-.484,6.842,6.842,0,0,0,4.175-3.67c.147-.286.393-.758-.226-.789-3.246-.167-6.078.621-7.88,3.611-.227.377-.818.7-.554,1.173.219.39.8.08,1.145.159" transform="translate(-46.789 -51.297)"/>
        <path id="Trazado_823908" data-name="Trazado 823908" d="M170.415,166.076c.459-.228.921-.449,1.376-.685a12.35,12.35,0,0,0,5.542-5.828,3.051,3.051,0,0,1,.2-.321,1.192,1.192,0,0,1,.186,1.547,10.741,10.741,0,0,1-5.976,5.605,1,1,0,0,1-1.332-.319" transform="translate(-64.514 -60.285)" fill="#59a9e6"/>
        <path id="Trazado_823909" data-name="Trazado 823909" d="M133.5,143.558c4.455.039,8.2,1.532,10.856,5.279a12.635,12.635,0,0,1,1.343,2.519,1.436,1.436,0,0,1-1.434,2.1,12.5,12.5,0,0,1-12.135-9.1c-.171-.635-.069-.871.6-.8a7.648,7.648,0,0,0,.774,0" transform="translate(-49.994 -54.341)" fill="#00cbb2"/>
        <path id="Trazado_823910" data-name="Trazado 823910" d="M161.393,160.463c-.345-.08-.925.231-1.145-.159-.264-.469.326-.8.554-1.173,1.8-2.99,4.635-3.777,7.88-3.611.618.03.373.5.226.789a6.842,6.842,0,0,1-4.175,3.67,10.429,10.429,0,0,1-3.34.484" transform="translate(-60.64 -58.868)" fill="#00cbb2"/>
      </g>
    </g>
  </g>
</svg>
