<svg xmlns="http://www.w3.org/2000/svg" xmlns:xlink="http://www.w3.org/1999/xlink" width="85" height="85" viewBox="0 0 85 85">
  <defs>
    <clipPath id="clip-path">
      <rect id="Rectángulo_378678" data-name="Rectángulo 378678" width="72" height="47.695" fill="#264100"/>
    </clipPath>
  </defs>
  <g id="Grupo_1075436" data-name="Grupo 1075436" transform="translate(-285 -714)">
    <g id="Grupo_1074913" data-name="Grupo 1074913" transform="translate(0 -5737)">
      <g id="Grupo_1075435" data-name="Grupo 1075435">
        <circle id="Elipse_4872" data-name="Elipse 4872" cx="42.5" cy="42.5" r="42.5" transform="translate(285 6451)" fill="#c1e29a"/>
      </g>
    </g>
    <g id="Grupo_1074918" data-name="Grupo 1074918" transform="translate(290.667 728.305)" clip-path="url(#clip-path)">
      <path id="Trazado_825327" data-name="Trazado 825327" d="M35.13,26.17V22.7a18.786,18.786,0,0,1-1.894.323A8.593,8.593,0,0,1,25.913,20a9.538,9.538,0,0,1-2.261-5.235.942.942,0,0,1,.675-1.214,8.713,8.713,0,0,1,10.409,2.6c.107.143.224.279.4.5,0-.843,0-1.579-.007-2.316a.386.386,0,0,0-.142-.23,8.742,8.742,0,0,1-3-7.7,8.385,8.385,0,0,1,3.35-6.1c.51-.4.79-.424,1.284-.017a8.641,8.641,0,0,1,3.4,7.577,8.615,8.615,0,0,1-3,6.226.431.431,0,0,0-.16.263c-.013.727-.007,1.454-.007,2.274.233-.278.4-.491.584-.7a8.636,8.636,0,0,1,4.772-2.928,8.793,8.793,0,0,1,5.124.4c1,.4,1.127.575.945,1.688A9.026,9.026,0,0,1,42.8,22.379a7.987,7.987,0,0,1-5.655.352c-.079-.024-.16-.038-.264-.063v3.508c.49-.239.957-.468,1.427-.695a62.691,62.691,0,0,1,11.288-4.1,69.632,69.632,0,0,1,8.574-1.7,1.3,1.3,0,0,1,1.2.472Q64.943,26,70.535,31.825c.353.369.7.743,1.06,1.106A1.351,1.351,0,0,1,72,33.954c-.012,4.156-.007,8.312-.007,12.468,0,.934-.292,1.257-1.2,1.258q-5.856.011-11.712.005H2.2c-.416,0-.835.026-1.249-.005-.615-.046-.861-.313-.94-.951a3.075,3.075,0,0,1-.011-.372Q0,40.217,0,34.076a1.658,1.658,0,0,1,.477-1.229Q6.582,26.5,12.67,20.134a1.252,1.252,0,0,1,1.17-.424A67.659,67.659,0,0,1,28.524,23.3a52.955,52.955,0,0,1,6.345,2.749c.072.036.145.069.262.125m34,6.706c-.125-.146-.2-.246-.288-.336q-5.185-5.406-10.369-10.815a.629.629,0,0,0-.6-.213A64.209,64.209,0,0,0,37.1,27.962a.4.4,0,0,0-.252.421c.007,1.86,0,3.72.005,5.58,0,.094.017.189.029.314a11.584,11.584,0,0,1,5,1.528,12.569,12.569,0,0,1,3.845,3.6,61.214,61.214,0,0,1,23.392-6.526m-34,1.318a.211.211,0,0,0,.015-.071c0-1.935.006-3.87-.007-5.8a.441.441,0,0,0-.215-.308c-.7-.363-1.412-.71-2.124-1.052a59.381,59.381,0,0,0-13.467-4.513c-1.733-.369-3.488-.621-5.237-.9a.687.687,0,0,0-.524.187q-5.229,5.389-10.437,10.8c-.094.1-.181.2-.314.349.15.022.217.037.285.041a54.92,54.92,0,0,1,9.339,1.417,57.107,57.107,0,0,1,9.278,3c1.46.622,2.889,1.325,4.325,2.008.221.105.288,0,.4-.149A11.55,11.55,0,0,1,32.5,34.775c.854-.244,1.736-.388,2.623-.581m-9.39,11.657h20.59a10.306,10.306,0,0,0-20.59,0m-1.662-1.1A132.466,132.466,0,0,0,1.742,42.893v2.959H23.978c.033-.392.062-.746.092-1.105m46.19-1.779c-1.172,0-2.314-.049-3.452.009-3.492.178-6.988.319-10.47.627-2.744.242-5.47.708-8.2,1.085a.3.3,0,0,0-.2.212c.009.317.056.632.091.96H70.261ZM27.839,14.516c-.7.127-1.4.264-2.1.375-.314.05-.348.2-.283.49a7.474,7.474,0,0,0,3.208,4.73,6.97,6.97,0,0,0,6.189.831c.19-.056.233-.147.193-.35a7.518,7.518,0,0,0-7.207-6.077m11.593,6.87A7.606,7.606,0,0,0,46.556,15.4c.067-.3.012-.443-.3-.528a7.162,7.162,0,0,0-4.992.3A7.574,7.574,0,0,0,36.98,20.5c-.077.3-.009.422.25.472.733.141,1.467.275,2.2.412M70.258,34.592A58.139,58.139,0,0,0,47.569,40.43c-.324.156-.629.353-.943.531l.052.166a76.94,76.94,0,0,1,23.58-3.93ZM25.316,41.107q.019-.095.038-.189A57.606,57.606,0,0,0,1.75,34.6v2.593a78.483,78.483,0,0,1,23.567,3.918M36,1.977a7.226,7.226,0,0,0,.036,10.709A7.3,7.3,0,0,0,36,1.977M47.386,42.811l.062.219A111.268,111.268,0,0,1,58.8,41.579c3.816-.239,7.638-.366,11.455-.542V38.964c-.127,0-.232-.006-.336,0-1.91.115-3.827.165-5.73.366-2.516.265-5.03.586-7.527,1A62.5,62.5,0,0,0,47.744,42.6a1.841,1.841,0,0,0-.358.214M1.737,41.1a1.557,1.557,0,0,0,.169.027c3.7.143,7.4.233,11.089.445,2.217.128,4.428.419,6.636.691,1.474.182,2.937.462,4.406.69a3.426,3.426,0,0,0,.52,0l.024-.137a1.236,1.236,0,0,0-.3-.216A79.053,79.053,0,0,0,1.737,38.962Z" transform="translate(0 0)" fill="#264100"/>
    </g>
  </g>
</svg>
