<svg id="Grupo_1075376" data-name="Grupo 1075376" xmlns="http://www.w3.org/2000/svg" xmlns:xlink="http://www.w3.org/1999/xlink" width="190" height="197.036" viewBox="0 0 190 197.036">
  <defs>
    <clipPath id="clip-path">
      <rect id="Rectángulo_379477" data-name="Rectángulo 379477" width="190" height="197.036" fill="none"/>
    </clipPath>
    <clipPath id="clip-path-3">
      <rect id="Rectángulo_379465" data-name="Rectángulo 379465" width="188.674" height="148.073" fill="none"/>
    </clipPath>
    <clipPath id="clip-path-4">
      <rect id="Rectángulo_379466" data-name="Rectángulo 379466" width="181.576" height="22.189" fill="none"/>
    </clipPath>
    <clipPath id="clip-path-8">
      <rect id="Rectángulo_379471" data-name="Rectángulo 379471" width="12.498" height="32.982" fill="none"/>
    </clipPath>
    <clipPath id="clip-path-9">
      <rect id="Rectángulo_379472" data-name="Rectángulo 379472" width="11.672" height="11.675" fill="none"/>
    </clipPath>
    <clipPath id="clip-path-10">
      <rect id="Rectángulo_379473" data-name="Rectángulo 379473" width="17.713" height="18.788" fill="none"/>
    </clipPath>
    <clipPath id="clip-path-11">
      <rect id="Rectángulo_379474" data-name="Rectángulo 379474" width="8.855" height="6.481" fill="none"/>
    </clipPath>
    <clipPath id="clip-path-12">
      <path id="Trazado_826423" data-name="Trazado 826423" d="M241.619,219.03q-.388-.011-.781-.012a9.583,9.583,0,0,0-3.2.473c-5.744,1.216-9.872,4.821-9.872,11.236a28.484,28.484,0,0,0,6.05,12.1c3.9,4.489,6.44,24.2-5.269,30.443s-5.074,17.564,12.1,16.783H242.6c17.173.781,23.459-9.924,12.1-16.783-10.343-6.245-11.336-24.536-6.049-29.663,6.44-6.245,6.83-12.88,6.83-12.88,0-6.169-3.818-9.739-9.22-11.085a11.177,11.177,0,0,0-3.856-.624q-.392,0-.78.012" transform="translate(-222.655 -219.018)" fill="none"/>
    </clipPath>
  </defs>
  <g id="Grupo_1075390" data-name="Grupo 1075390" clip-path="url(#clip-path)">
    <g id="Grupo_1075367" data-name="Grupo 1075367">
      <g id="Grupo_1075366" data-name="Grupo 1075366" clip-path="url(#clip-path)">
        <g id="Grupo_1075362" data-name="Grupo 1075362" opacity="0.2">
          <g id="Grupo_1075361" data-name="Grupo 1075361">
            <g id="Grupo_1075360" data-name="Grupo 1075360" clip-path="url(#clip-path-3)">
              <path id="Trazado_826356" data-name="Trazado 826356" d="M127.465,123.995s-17.489-17.285-36.226-3.559-46.22,43.72-72.453,16.776S-14.527,19.78,53.346,3.512c44.187-10.591,94.686,3.37,119.688,33.831a66.636,66.636,0,0,1,15.641,42.932c0,60.5-42.472,60.5-61.21,43.72" transform="translate(0 0)" fill="#ffae7e"/>
            </g>
          </g>
        </g>
        <g id="Grupo_1075365" data-name="Grupo 1075365" transform="translate(2.945 174.846)" opacity="0.2">
          <g id="Grupo_1075364" data-name="Grupo 1075364">
            <g id="Grupo_1075363" data-name="Grupo 1075363" clip-path="url(#clip-path-4)">
              <path id="Trazado_826357" data-name="Trazado 826357" d="M188.524,423.576c0,6.127-40.647,11.094-90.788,11.094S6.948,429.7,6.948,423.576s40.647-11.094,90.788-11.094,90.788,4.967,90.788,11.094" transform="translate(-6.948 -412.482)" fill="#ffc1c2"/>
            </g>
          </g>
        </g>
      </g>
    </g>
    <g id="Grupo_1075369" data-name="Grupo 1075369">
      <g id="Grupo_1075368" data-name="Grupo 1075368" clip-path="url(#clip-path)">
        <path id="Trazado_826358" data-name="Trazado 826358" d="M154.765,82.172a27.612,27.612,0,1,0,23.075-31.5A27.612,27.612,0,0,0,154.765,82.172Z" transform="translate(-88.973 -29.003)" fill="none" stroke="#ed7366" stroke-miterlimit="10" stroke-width="4.116"/>
        <path id="Trazado_826359" data-name="Trazado 826359" d="M159.913,84.819a25.419,25.419,0,1,0,21.243-29A25.419,25.419,0,0,0,159.913,84.819Z" transform="translate(-91.954 -31.984)" fill="none" stroke="#ed7366" stroke-miterlimit="10" stroke-width="1.47"/>
        <path id="Trazado_826360" data-name="Trazado 826360" d="M119.934,64.269a42.449,42.449,0,1,0,35.474-48.43A42.449,42.449,0,0,0,119.934,64.269Z" transform="translate(-68.805 -8.835)" fill="none" stroke="#ed7366" stroke-miterlimit="10" stroke-width="4.945"/>
        <path id="Trazado_826361" data-name="Trazado 826361" d="M126.577,67.683a39.62,39.62,0,1,0,33.11-45.2A39.62,39.62,0,0,0,126.577,67.683Z" transform="translate(-72.652 -12.681)" fill="none" stroke="#ed7366" stroke-miterlimit="10" stroke-width="1.471"/>
      </g>
    </g>
    <text id="c" transform="translate(70.188 24.597) rotate(-38.085)" fill="#ed7366" font-size="8" font-family="Bungee-Regular, Bungee"><tspan x="0" y="0">c</tspan></text>
    <text id="e" transform="matrix(0.882, -0.472, 0.472, 0.882, 74.604, 21.23)" fill="#ed7366" font-size="8" font-family="Bungee-Regular, Bungee"><tspan x="0" y="0">e</tspan></text>
    <text id="r" transform="translate(80.043 18.492) rotate(-19.631)" fill="#ed7366" font-size="8" font-family="Bungee-Regular, Bungee"><tspan x="0" y="0">r</tspan></text>
    <text id="t" transform="translate(84.353 17.04) rotate(-12.783)" fill="#ed7366" font-size="8" font-family="Bungee-Regular, Bungee"><tspan x="0" y="0">t</tspan></text>
    <text id="i" transform="matrix(0.992, -0.124, 0.124, 0.992, 88.577, 16.152)" fill="#ed7366" font-size="8" font-family="Bungee-Regular, Bungee"><tspan x="0" y="0">i</tspan></text>
    <path id="Trazado_826362" data-name="Trazado 826362" d="M217.933,35.161l.086-4.145L217.343,31l.014-.666.676.014.005-.258a1.929,1.929,0,0,1,2.142-2.054,2.407,2.407,0,0,1,1.216.344l-.262.661a1.839,1.839,0,0,0-1.008-.3c-.924-.019-1.206.621-1.222,1.387l-.005.239,2.793.058-.1,4.812-.865-.018.086-4.146-1.929-.04-.086,4.146Z" transform="translate(-125.214 -16.152)" fill="#ed7366"/>
    <text id="e-2" data-name="e" transform="translate(98.372 15.958) rotate(12.774)" fill="#ed7366" font-size="8" font-family="Bungee-Regular, Bungee"><tspan x="0" y="0">e</tspan></text>
    <text id="d" transform="matrix(0.908, 0.419, -0.419, 0.908, 104.391, 17.424)" fill="#ed7366" font-size="8" font-family="Bungee-Regular, Bungee"><tspan x="0" y="0">d</tspan></text>
    <text id="c-2" data-name="c" transform="translate(78.483 80.59) rotate(21.653)" fill="#ed7366" font-size="8" font-family="Bungee-Regular, Bungee"><tspan x="0" y="0">c</tspan></text>
    <text id="e-3" data-name="e" transform="matrix(0.98, 0.197, -0.197, 0.98, 83.579, 82.544)" fill="#ed7366" font-size="8" font-family="Bungee-Regular, Bungee"><tspan x="0" y="0">e</tspan></text>
    <text id="r-2" data-name="r" transform="matrix(0.999, 0.039, -0.039, 0.999, 89.499, 83.576)" fill="#ed7366" font-size="8" font-family="Bungee-Regular, Bungee"><tspan x="0" y="0">r</tspan></text>
    <text id="t-2" data-name="t" transform="translate(93.994 83.667) rotate(-5.221)" fill="#ed7366" font-size="8" font-family="Bungee-Regular, Bungee"><tspan x="0" y="0">t</tspan></text>
    <text id="i-2" data-name="i" transform="translate(98.194 83.211) rotate(-10.693)" fill="#ed7366" font-size="8" font-family="Bungee-Regular, Bungee"><tspan x="0" y="0">i</tspan></text>
    <path id="Trazado_826363" data-name="Trazado 826363" d="M240.74,191.391l-1.287-3.943-.643.21-.206-.634.643-.21-.081-.246a1.929,1.929,0,0,1,1.345-2.646,2.409,2.409,0,0,1,1.261-.077l-.03.711a1.839,1.839,0,0,0-1.051.05c-.88.287-.934.985-.7,1.713l.074.227,2.657-.867,1.493,4.577-.823.268-1.286-3.943-1.835.6,1.286,3.943Z" transform="translate(-137.462 -105.884)" fill="#ed7366"/>
    <text id="e-4" data-name="e" transform="translate(107.404 80.586) rotate(-28.753)" fill="#ed7366" font-size="8" font-family="Bungee-Regular, Bungee"><tspan x="0" y="0">e</tspan></text>
    <text id="d-2" data-name="d" transform="translate(112.689 77.597) rotate(-40.361)" fill="#ed7366" font-size="8" font-family="Bungee-Regular, Bungee"><tspan x="0" y="0">d</tspan></text>
    <g id="Grupo_1075371" data-name="Grupo 1075371">
      <g id="Grupo_1075370" data-name="Grupo 1075370" clip-path="url(#clip-path)">
        <rect id="Rectángulo_379469" data-name="Rectángulo 379469" width="93.363" height="25.346" transform="translate(45.012 43.555) rotate(-8.777)" fill="#ed7366"/>
      </g>
    </g>
    <text id="iso" transform="translate(77.8 55.279) rotate(-8.778)" fill="#fff" font-size="21" font-family="Bungee-Inline, Bungee Inline"><tspan x="0" y="0" letter-spacing="0.09em">is</tspan><tspan y="0">o</tspan></text>
    <g id="Grupo_1075385" data-name="Grupo 1075385">
      <g id="Grupo_1075384" data-name="Grupo 1075384" clip-path="url(#clip-path)">
        <path id="Trazado_826364" data-name="Trazado 826364" d="M132.266,115.04l2.105,2.832,3.526-.129-2.042,2.877,1.213,3.314L133.7,122.88l-2.776,2.178-.039-3.528-2.929-1.968,3.344-1.128Z" transform="translate(-73.717 -66.276)" fill="#fff"/>
        <path id="Trazado_826365" data-name="Trazado 826365" d="M289.877,92.752l2.105,2.832,3.526-.129-2.042,2.877,1.213,3.314-3.368-1.053-2.776,2.178-.039-3.528-2.929-1.968,3.344-1.128Z" transform="translate(-164.518 -53.435)" fill="#fff"/>
        <path id="Trazado_826366" data-name="Trazado 826366" d="M73.044,359.607S77.13,370.538,71,387.7c0,0-13.936,3.656-2.862-1.433,0,0-6.262-20.083-6.258-27.24s11.164.578,11.164.578" transform="translate(-35.65 -205.09)" fill="#ff9489"/>
        <g id="Grupo_1075374" data-name="Grupo 1075374" transform="translate(26.23 150.901)" opacity="0.5">
          <g id="Grupo_1075373" data-name="Grupo 1075373">
            <g id="Grupo_1075372" data-name="Grupo 1075372" clip-path="url(#clip-path-8)">
              <path id="Trazado_826367" data-name="Trazado 826367" d="M73.044,359.607S77.13,370.538,71,387.7c0,0-13.936,3.656-2.862-1.433,0,0-6.262-20.083-6.258-27.24s11.164.578,11.164.578" transform="translate(-61.88 -355.991)" fill="#dd655f"/>
            </g>
          </g>
        </g>
        <path id="Trazado_826368" data-name="Trazado 826368" d="M72.771,428.558l-.182,1.487s-15.747,3.3-4.251-1.576c0,0-2.014,1.7,4.433.088" transform="translate(-36.95 -246.846)" fill="#4057be"/>
        <path id="Trazado_826369" data-name="Trazado 826369" d="M98.731,363.724s2.946,11.292-4.909,27.738c0,0-14.237,2.209-2.7-1.718,0,0-4.173-20.619-3.436-27.738s11.046,1.718,11.046,1.718" transform="translate(-49.897 -206.958)" fill="#ff9489"/>
        <g id="Grupo_1075377" data-name="Grupo 1075377" transform="translate(37.7 152.275)" opacity="0.5">
          <g id="Grupo_1075376-2" data-name="Grupo 1075376">
            <g id="Grupo_1075375" data-name="Grupo 1075375" clip-path="url(#clip-path-9)">
              <path id="Trazado_826370" data-name="Trazado 826370" d="M93.758,370.9c-1.447.013-2.894.011-4.341,0a47.253,47.253,0,0,1-.391-8.9c.736-7.118,11.046,1.718,11.046,1.718a27.22,27.22,0,0,1,.516,7.065c-2.267-.067-4.555.089-6.83.109" transform="translate(-88.938 -359.232)" fill="#dd655f"/>
            </g>
          </g>
        </g>
        <path id="Trazado_826371" data-name="Trazado 826371" d="M93.6,431.867l-.276,1.473s-15.925,2.3-4.143-1.841c0,0-2.117,1.565,4.419.368" transform="translate(-48.873 -248.591)" fill="#4057be"/>
        <path id="Trazado_826372" data-name="Trazado 826372" d="M60.494,242.558,58.776,232s-17.183,9.328-4.418,61.613a25.608,25.608,0,0,0,13.5-1.228L70.8,256.3Z" transform="translate(-28.598 -133.659)" fill="#849cd3"/>
        <path id="Trazado_826373" data-name="Trazado 826373" d="M78.838,227.183S87.921,237,87.675,247.8s-7.118,39.52-7.118,39.52a32.114,32.114,0,0,1-13.992,0l-2.7-34.857A37.78,37.78,0,0,1,52.082,242.4S52.6,231.479,60.2,224.36s18.633-4.3,18.633,2.823" transform="translate(-30.005 -126.876)" fill="#a5b8ea"/>
        <path id="Trazado_826374" data-name="Trazado 826374" d="M86.328,232.192c-5.529.036-11.089-.006-16.609-.36-2.765-.177-5.518-.5-8.273-.778a24.2,24.2,0,0,1,4.131-5.109c7.609-7.118,18.655-5.155,18.655,1.964A37.411,37.411,0,0,1,87.5,232.18c-.39,0-.78.01-1.168.012" transform="translate(-35.4 -127.602)" fill="#849cd3"/>
        <path id="Trazado_826375" data-name="Trazado 826375" d="M72.984,103.973s-7.587-3.617-12,1.323-1.147,16.144-5.469,20.026-.706,14.027,5.734,14.292,12.88-10.234,12.88-10.234Z" transform="translate(-30.897 -59.164)" fill="#334daa"/>
        <path id="Trazado_826376" data-name="Trazado 826376" d="M82.8,153.929s1.412,6.528.088,6.617-6.087-.794-7.146,1.588,2.735,8.646,10.939,6.617,6.44-8.116,6.44-8.116-3.264.618-3.264-6.969-7.058.264-7.058.264" transform="translate(-43.534 -86.624)" fill="#ff9489"/>
        <g id="Grupo_1075380" data-name="Grupo 1075380" transform="translate(32.032 63.736)" opacity="0.5">
          <g id="Grupo_1075379" data-name="Grupo 1075379">
            <g id="Grupo_1075378" data-name="Grupo 1075378" clip-path="url(#clip-path-10)">
              <path id="Trazado_826377" data-name="Trazado 826377" d="M82.8,153.929s1.412,6.528.088,6.617-6.087-.794-7.146,1.588,2.735,8.646,10.939,6.617,6.44-8.116,6.44-8.116-3.264.618-3.264-6.969-7.058.264-7.058.264" transform="translate(-75.566 -150.36)" fill="#dd655f"/>
            </g>
          </g>
        </g>
        <path id="Trazado_826378" data-name="Trazado 826378" d="M66.352,195.214A36.2,36.2,0,0,0,86.3,197.3s10.8-20.5,7.3-22.892a12.414,12.414,0,0,0-7-2.209s-4.234,8.469-10.862,8.285-3.866-8.1-3.866-8.1-5.154-.737-6.444,4.418.921,18.41.921,18.41" transform="translate(-37.463 -99.205)" fill="#000543"/>
        <path id="Trazado_826379" data-name="Trazado 826379" d="M74.5,197.05a.46.46,0,1,0,.77.5l7.569-11.548a.46.46,0,0,0-.77-.5Z" transform="translate(-42.877 -106.749)" fill="#fff"/>
        <path id="Trazado_826380" data-name="Trazado 826380" d="M102.311,201.342s-1.841,12.335-5.891,13.808-19.147-13.624-19.147-13.624,1.657-2.025,4.971-.736,10.678,4.6,10.678,4.6l1.657-6.26Z" transform="translate(-44.518 -114.723)" fill="#ff9489"/>
        <g id="Grupo_1075383" data-name="Grupo 1075383" transform="translate(48.938 84.41)" opacity="0.5">
          <g id="Grupo_1075382" data-name="Grupo 1075382">
            <g id="Grupo_1075381" data-name="Grupo 1075381" clip-path="url(#clip-path-11)">
              <path id="Trazado_826381" data-name="Trazado 826381" d="M115.449,203.375l1.123-4.242,7.732,2.209s-.282,1.887-.867,4.272q-4.008-1.066-7.988-2.239" transform="translate(-115.449 -199.133)" fill="#dd655f"/>
            </g>
          </g>
        </g>
        <path id="Trazado_826382" data-name="Trazado 826382" d="M114.426,172.205s7.732.184,9.573,4.971a19.276,19.276,0,0,1,.552,10.125s-7,.184-11.23-1.289Z" transform="translate(-65.285 -99.209)" fill="#000543"/>
        <path id="Trazado_826383" data-name="Trazado 826383" d="M63.189,201.758,51.675,180.891l-14.36,5.891L48.6,207.538Z" transform="translate(-21.498 -104.213)" fill="#ffc1c2"/>
        <path id="Trazado_826384" data-name="Trazado 826384" d="M48.716,214s7.237-4.51.755.877c0,0,6.82-3.484.271,1.234,0,0,5.877-3.027.352,1.055l.095.23c-1.8-1.746-3.377-3.331-2.89-3.865,1-1.1,5.982-5.056,1.417.469" transform="translate(-27.198 -121.636)" fill="#ff9489"/>
        <path id="Trazado_826385" data-name="Trazado 826385" d="M90.512,123.884s.136-8.567-7.452-9.151S72.494,119.464,73,126.493s5.116,10.919,8.611,10.712,9.524-4.9,8.9-13.321" transform="translate(-42.024 -66.074)" fill="#ff9489"/>
        <path id="Trazado_826386" data-name="Trazado 826386" d="M95.392,106.033s.681,30.437,8.028,27.172c7.146-3.176,9.263,2.294,9.263,2.294s4.411-3.353-3.353-9.528c-4.4-3.5,1.676-16.673-4.676-23.467-4.353-4.656-14.556-2.47-9.263,3.529" transform="translate(-54.099 -57.607)" fill="#4057be"/>
        <path id="Trazado_826387" data-name="Trazado 826387" d="M78.3,140.846a1.893,1.893,0,0,1,.051.254,2.708,2.708,0,0,1,.01.687,2.064,2.064,0,0,1-.1.464,1.6,1.6,0,0,1-.25.5,1.432,1.432,0,0,1-.47.415,1.65,1.65,0,0,1-.643.167,1.261,1.261,0,0,1-.3-.024,1.054,1.054,0,0,1-.338-.114,1.31,1.31,0,0,1-.476-.418,1.936,1.936,0,0,1-.245-.492,2.564,2.564,0,0,1-.11-.457,2.98,2.98,0,0,1-.026-.685,2.181,2.181,0,0,1,.032-.256l.072.245c.047.153.116.371.215.617.051.123.111.25.178.379a2.4,2.4,0,0,0,.249.361,1.024,1.024,0,0,0,.333.246.565.565,0,0,0,.174.056c.038.025.164.007.245.012a1.271,1.271,0,0,0,.2-.027,1.716,1.716,0,0,0,.2-.067,1.173,1.173,0,0,0,.339-.253,1.643,1.643,0,0,0,.248-.353,3.113,3.113,0,0,0,.167-.379,5.642,5.642,0,0,0,.181-.624c.036-.156.053-.25.053-.25" transform="translate(-43.436 -81.143)" fill="#000543"/>
        <path id="Trazado_826388" data-name="Trazado 826388" d="M94.342,140.49a1.779,1.779,0,0,1,.051.24,2.542,2.542,0,0,1,.014.653,1.973,1.973,0,0,1-.092.442,1.515,1.515,0,0,1-.237.473,1.368,1.368,0,0,1-.448.4,1.574,1.574,0,0,1-.615.161,1.187,1.187,0,0,1-.284-.023,1,1,0,0,1-.325-.109,1.248,1.248,0,0,1-.455-.4,1.832,1.832,0,0,1-.232-.469,2.407,2.407,0,0,1-.1-.435,2.518,2.518,0,0,1,.014-.894l.071.232c.045.145.113.351.209.582.049.115.107.236.171.357a2.293,2.293,0,0,0,.236.339.951.951,0,0,0,.312.228.507.507,0,0,0,.161.052c.033.024.154.007.23.011a1.179,1.179,0,0,0,.189-.025,1.653,1.653,0,0,0,.191-.063,1.113,1.113,0,0,0,.317-.235,1.562,1.562,0,0,0,.234-.331,3.049,3.049,0,0,0,.161-.356,5.561,5.561,0,0,0,.229-.826" transform="translate(-52.764 -80.938)" fill="#000543"/>
        <path id="Trazado_826389" data-name="Trazado 826389" d="M77.474,133.829l-.22-.129-.239-.142c-.088-.056-.2-.106-.3-.17s-.22-.125-.343-.175a3.456,3.456,0,0,0-.367-.158,2.721,2.721,0,0,0-.373-.106c-.061-.009-.123-.016-.183-.031s-.121,0-.181,0l-.09-.008-.09.017a1.6,1.6,0,0,1-.182.019c-.118.046-.245.065-.368.112s-.244.106-.365.157c-.113.069-.227.131-.337.188a2.372,2.372,0,0,0-.3.17c-.087.058-.173.1-.242.141-.14.077-.232.116-.232.116a2.051,2.051,0,0,1,.067-.248c.026-.077.056-.173.1-.277a1.4,1.4,0,0,1,.175-.341c.079-.118.17-.244.272-.375a5.273,5.273,0,0,1,.406-.355,3.165,3.165,0,0,1,.54-.277,2.226,2.226,0,0,1,.647-.1c.111.006.223.007.331.023s.21.055.313.084a1.308,1.308,0,0,1,.284.122,1.374,1.374,0,0,1,.255.149,2.227,2.227,0,0,1,.4.352,2.657,2.657,0,0,1,.285.366,2.557,2.557,0,0,1,.278.621,1.248,1.248,0,0,1,.053.255" transform="translate(-42.092 -75.962)" fill="#000543"/>
        <path id="Trazado_826390" data-name="Trazado 826390" d="M88.256,133.6a2.4,2.4,0,0,1,.456-.957,2.8,2.8,0,0,1,.351-.39,3.239,3.239,0,0,1,.473-.367,2.923,2.923,0,0,1,.6-.274,2.875,2.875,0,0,1,.329-.1l.344-.047a3.473,3.473,0,0,1,.688.02,5.4,5.4,0,0,1,.631.171c.189.089.367.181.53.271a4.685,4.685,0,0,1,.411.321,1.645,1.645,0,0,1,.3.31c.084.1.148.191.2.266a2.62,2.62,0,0,1,.156.243s-.11-.022-.282-.074c-.086-.027-.19-.056-.3-.1a2.729,2.729,0,0,0-.38-.114l-.431-.125c-.154-.027-.311-.058-.468-.1-.161-.015-.323-.03-.483-.052-.162.017-.325-.017-.484.014a2.721,2.721,0,0,0-.478.073c-.161.022-.309.09-.466.128-.145.066-.3.107-.437.181s-.275.129-.4.2c-.251.13-.464.257-.615.35l-.244.15" transform="translate(-50.845 -75.734)" fill="#000543"/>
        <path id="Trazado_826391" data-name="Trazado 826391" d="M82.906,143.62a4.306,4.306,0,0,1,.192.879,4.216,4.216,0,0,1,.014.908,2.977,2.977,0,0,1-.241.922,2.2,2.2,0,0,1-.264.432,1.813,1.813,0,0,1-.384.355l-.1-.54c.253.1.506.2.752.317a5.145,5.145,0,0,1,.728.409,5.239,5.239,0,0,1-.834-.021c-.274-.022-.542-.066-.809-.112l-.522-.091.418-.449.117-.126.1-.14a2.5,2.5,0,0,0,.172-.318,4.592,4.592,0,0,0,.246-.743c.069-.264.126-.539.189-.821a7.229,7.229,0,0,1,.228-.859" transform="translate(-46.914 -82.741)" fill="#dd655f"/>
        <path id="Trazado_826392" data-name="Trazado 826392" d="M89.614,155.161a2.8,2.8,0,0,1-.607.757,3.994,3.994,0,0,1-.82.587,4.235,4.235,0,0,1-.528.232,3.551,3.551,0,0,1-.582.152l-.3.046-.3.008a2.754,2.754,0,0,1-.583-.047,2.623,2.623,0,0,1-.525-.139,1.906,1.906,0,0,1-.44-.194,2.14,2.14,0,0,1-.345-.206c-.1-.072-.174-.141-.239-.2-.128-.111-.2-.18-.2-.18s.1.018.261.056c.081.02.178.042.285.074s.237.039.368.07a3.079,3.079,0,0,0,.425.063,3.8,3.8,0,0,0,.468.03,3.873,3.873,0,0,0,.494-.014l.252-.019.252-.045a4.778,4.778,0,0,0,.5-.109c.163-.046.324-.1.48-.15s.308-.107.447-.173l.4-.177c.494-.234.835-.424.835-.424" transform="translate(-48.478 -89.39)" fill="#dd655f"/>
        <path id="Trazado_826393" data-name="Trazado 826393" d="M382.24,215.477s5.984,18.865,6.635,21.727-7.806-1.3-11.449-19.775Z" transform="translate(-217.439 -124.139)" fill="#e87772"/>
        <path id="Trazado_826394" data-name="Trazado 826394" d="M373.478,238.663l15.957-7.978,6.57,18.538-17.6,7.04Z" transform="translate(-215.165 -132.9)" fill="#ffc1c2"/>
        <path id="Trazado_826395" data-name="Trazado 826395" d="M377.4,243.035l12.938-6.469,5.327,15.03L381.394,257.3Z" transform="translate(-217.423 -136.289)" fill="#fff"/>
        <path id="Trazado_826396" data-name="Trazado 826396" d="M410.129,244.979l3.327-1.841,1.911,6.158-3.256,1.345Z" transform="translate(-236.28 -140.074)" fill="#a5b8ea"/>
        <path id="Trazado_826397" data-name="Trazado 826397" d="M401.374,274.915s-4.254-11-1.564.343c0,0-4.646-9.525-1.326,1.139,0,0-3.983-8.234-1.267.874l-.3.175c3.443-.434,6.5-.876,6.41-1.872-.2-2.05-2.412-10.566-1.957-.66" transform="translate(-228.294 -155.621)" fill="#e87772"/>
        <path id="Trazado_826398" data-name="Trazado 826398" d="M358.509,253.228s10.148,29.923,10.148,36.949-26.28,32.785-26.28,32.785l-5.464-7.285,15.872-25.5-1.821-23.939Z" transform="translate(-194.099 -145.887)" fill="#01051e"/>
        <path id="Trazado_826399" data-name="Trazado 826399" d="M406.89,406.345s6.635,10.343,7.416,10.148,20.881-23.028,2.147-6.44l-6.44-15.026Z" transform="translate(-234.414 -227.579)" fill="#01051e"/>
        <path id="Trazado_826400" data-name="Trazado 826400" d="M325.249,254.261s12.23,36.949,37.469,72.076l6.245-5.984s-12.49-37.73-21.6-56.984l7.546-4.684-4.684-14.051Z" transform="translate(-187.379 -140.936)" fill="#000543"/>
        <path id="Trazado_826401" data-name="Trazado 826401" d="M349.189,155.32s9.5,1.561,10.8,2.992,3.382,15.092,6.375,21.467-10.018,3.9-10.018,3.9Z" transform="translate(-201.171 -89.482)" fill="#a5b8ea"/>
        <path id="Trazado_826402" data-name="Trazado 826402" d="M368.487,180.783a40.2,40.2,0,0,1-3.336,3.258c-1.668,1.411-3.424,2.737-5.192,4.047l2.59,10.264s13.01,2.472,10.018-3.9c-1.621-3.452-2.973-9.039-4.08-13.665" transform="translate(-207.377 -104.151)" fill="#8fa6d8"/>
        <path id="Trazado_826403" data-name="Trazado 826403" d="M330.072,121.174c-.367-1.2-10.887-4.39-11.384-4.423-1.072-.072-1.751-2.067-2.146-3.851a18.461,18.461,0,0,0,1.886.6c9.888,2.6,10.766-20.816,5.887-24.134-3.918-2.664-14.7-4.911-16,4.2-.648,4.535.528,6.109.2,16.783-.1,14.441-10.6,1.174-9.465,8.619,1.171,7.676,32.851,8.2,31.029,2.212" transform="translate(-172.233 -50.131)" fill="#ff9489"/>
        <path id="Trazado_826404" data-name="Trazado 826404" d="M304.771,143.657l7.026,4.294,3.513-1.562.976,2.147s7.806.585,10.733,2.342,3.708,31.615,8.391,40.787c0,0-2.732,8.587-7.415,12.294l-2.927-6.83-.2,8.392s-11.514-.781-18.344-6.831c0,0-11.709-38.64-11.514-46.056s9.172-6.245,9.172-6.245Z" transform="translate(-169.959 -82.762)" fill="#a5b8ea"/>
        <path id="Trazado_826405" data-name="Trazado 826405" d="M314.165,181.029a43.777,43.777,0,0,1-13.091-12.407,61.706,61.706,0,0,1-5.455-10.273,6.783,6.783,0,0,0-.607,2.749c-.2,7.416,11.514,46.056,11.514,46.056,6.831,6.049,18.344,6.83,18.344,6.83l.2-8.392,2.927,6.831c4.684-3.708,7.416-12.294,7.416-12.294-1.37-2.682-2.406-7.135-3.259-12.136a55.317,55.317,0,0,1-17.986-6.963" transform="translate(-169.959 -91.227)" fill="#8fa6d8"/>
        <path id="Trazado_826406" data-name="Trazado 826406" d="M280.178,150.479s-1.992-1.673-9.593.016c-6.342,1.409-20.205,19.145-19.229,23.244s6.245,4.1,6.245,4.1l22.591-17.946Z" transform="translate(-144.781 -86.267)" fill="#a5b8ea"/>
        <path id="Trazado_826407" data-name="Trazado 826407" d="M330.92,155.231l-2.6,3.122,2.212,2.6,3.383,29.793,5.855,4.293,2.081-5.724-8.326-29.013,1.952-5.139Z" transform="translate(-189.147 -89.393)" fill="#4057be"/>
        <path id="Trazado_826408" data-name="Trazado 826408" d="M315.427,146.649l1.106-2.992,7.026,4.293,3.513-1.561,2.667,2.212-2.732,3.253-3.513-3.253-2.992,4.684Z" transform="translate(-181.721 -82.762)" fill="#b8cbf4"/>
        <path id="Trazado_826409" data-name="Trazado 826409" d="M319.566,95.635s-1.855,10.44,2.537,12.392,15.417,5.952,14.929-7.806c0,0-2.049,6.245-2.439,4.976s2.017-4.261-2.179-5.237-7.481-2.895-8.067.13-2.681,3.7-2.407-.78c.293-4.781.716-8.262.716-8.262s2.96.26,3.058-3.643,14.962,9.172,15.808-1.138l-2.342.488a4.278,4.278,0,0,0,2.147-4.391s-4,1.073-8.88-2.634S322.3,81.389,322.3,81.389s-2.113-1.972-4.326,1.464c-3.058,4.749.813,17.466.813,17.466l-.195-6.733" transform="translate(-182.509 -45.181)" fill="#000543"/>
        <path id="Trazado_826410" data-name="Trazado 826410" d="M319.043,115.583s1.027-5.234.149-5.819c-.908-.6-3.132-1.063-2.634,3.415.39,3.513,2,3.087,2.485,2.4" transform="translate(-182.331 -63.018)" fill="#ff9489"/>
        <path id="Trazado_826411" data-name="Trazado 826411" d="M340.536,110.733c-.06.781-.35,1.4-.646,1.373s-.488-.674-.428-1.456.35-1.4.646-1.373.488.675.428,1.456" transform="translate(-195.561 -62.955)" fill="#000543"/>
        <path id="Trazado_826412" data-name="Trazado 826412" d="M357.263,115.183c-.06.781-.35,1.4-.646,1.373s-.488-.674-.428-1.456.35-1.4.646-1.373.488.675.428,1.456" transform="translate(-205.197 -65.519)" fill="#000543"/>
        <path id="Trazado_826413" data-name="Trazado 826413" d="M346.733,118.284c.544-.091,1.087-.145,1.631-.187.271-.021.543-.042.814-.053s.543-.031.814-.033l-.331.434c-.05-.156-.089-.293-.125-.439s-.07-.287-.1-.432c-.05-.29-.095-.581-.126-.874s-.041-.586-.05-.879a8.2,8.2,0,0,1,.025-.879c.022-.292.049-.584.1-.872a8.424,8.424,0,0,1,.182-.857,7.461,7.461,0,0,1,.262-.834,7.915,7.915,0,0,1,.353-.8c-.016.292-.054.575-.076.86l-.033.425c-.018.139-.018.282-.028.422-.017.281-.031.56-.038.84-.007.139,0,.279-.006.418s-.007.278,0,.417l.022.833c.013.277.04.553.06.829s.055.551.094.824l.06.408c.02.134.048.274.074.394l.1.455-.43-.021c-.271-.013-.541-.045-.812-.066s-.541-.053-.812-.085c-.541-.064-1.082-.139-1.622-.252" transform="translate(-199.757 -64.285)" fill="#dd655f"/>
        <path id="Trazado_826414" data-name="Trazado 826414" d="M319.3,116.763a1.735,1.735,0,0,1-.467-.288,1.064,1.064,0,0,1-.192-.212.573.573,0,0,1-.108-.29.344.344,0,0,1,.016-.164.373.373,0,0,1,.063-.15.991.991,0,0,1,.2-.237,2.878,2.878,0,0,1,.242-.166l.254-.13-.086.087a10.3,10.3,0,0,0,.365-1.5,5.468,5.468,0,0,0,.067-.756c0-.125-.009-.248-.019-.369a1.9,1.9,0,0,0-.081-.345.989.989,0,0,0-.15-.3c-.025-.052-.077-.075-.113-.116a.364.364,0,0,0-.132-.1l-.15-.077c-.026-.013-.118-.03-.174-.045s-.093,0-.143,0a.5.5,0,0,0-.143.049.628.628,0,0,0-.237.231,1.732,1.732,0,0,0-.157.339,3.6,3.6,0,0,0-.155.767,2.732,2.732,0,0,1,.013-.8,1.558,1.558,0,0,1,.117-.4.859.859,0,0,1,.287-.349.724.724,0,0,1,.471-.12,2.123,2.123,0,0,1,.213.036l.212.085a.566.566,0,0,1,.193.123.871.871,0,0,1,.17.158,1.344,1.344,0,0,1,.225.391,1.873,1.873,0,0,1,.111.421c.014.14.029.281.029.42a3.522,3.522,0,0,1-.02.413c-.013.136-.031.272-.056.405a7.338,7.338,0,0,1-.455,1.552l-.025.062-.061.025-.237.1c-.075.036-.144.08-.217.119a.767.767,0,0,0-.167.154.2.2,0,0,0-.053.091.19.19,0,0,0-.023.1.408.408,0,0,0,.044.22.947.947,0,0,0,.137.213,2.385,2.385,0,0,0,.393.361" transform="translate(-183.192 -64.129)" fill="#dd655f"/>
        <path id="Trazado_826415" data-name="Trazado 826415" d="M337.2,104.057a1.483,1.483,0,0,1,.1-.281,2.971,2.971,0,0,1,.4-.668,3.055,3.055,0,0,1,.372-.38c.073-.063.153-.122.234-.185s.182-.107.277-.162a1.469,1.469,0,0,1,.313-.134,1.447,1.447,0,0,1,.347-.1c.123-.016.249-.035.376-.043s.258.022.387.037a1.247,1.247,0,0,1,.372.1,2.886,2.886,0,0,1,.347.153c.1.068.2.139.29.213a1.171,1.171,0,0,1,.251.229,4.132,4.132,0,0,1,.369.493c.085.17.158.332.22.481a1.748,1.748,0,0,1,.119.422c.028.126.042.24.055.332a2.4,2.4,0,0,1,.023.293s-.093-.067-.231-.187c-.068-.06-.153-.131-.237-.217a3.133,3.133,0,0,0-.295-.268c-.11-.091-.223-.19-.335-.3s-.253-.173-.372-.271-.265-.131-.384-.217c-.065-.027-.134-.035-.2-.061a.467.467,0,0,0-.2-.048c-.066-.007-.131-.024-.2-.031a1.78,1.78,0,0,1-.208.006,2.549,2.549,0,0,0-.434.069c-.074.019-.146.042-.221.057s-.143.055-.216.078c-.146.044-.279.113-.413.162s-.256.106-.362.161l-.289.135-.264.123" transform="translate(-194.263 -58.826)" fill="#000543"/>
        <path id="Trazado_826416" data-name="Trazado 826416" d="M355,109.5a1.271,1.271,0,0,1,.049-.253,2.451,2.451,0,0,1,.27-.62,2.284,2.284,0,0,1,.291-.367,2.033,2.033,0,0,1,.441-.344,1.6,1.6,0,0,1,.64-.187.906.906,0,0,1,.36.018,1.2,1.2,0,0,1,.346.1c.1.052.206.108.306.165a1.771,1.771,0,0,1,.241.208,1.717,1.717,0,0,1,.364.454c.047.078.1.153.138.229s.064.154.092.229c.055.15.1.293.14.424a2.928,2.928,0,0,1,.057.37c.015.109.018.208.022.288a2.1,2.1,0,0,1,0,.253s-.076-.062-.187-.175-.256-.277-.42-.467c-.088-.09-.179-.187-.269-.291a2.273,2.273,0,0,0-.287-.3c-.051-.047-.1-.1-.145-.148s-.106-.074-.154-.116-.1-.084-.148-.111a1.39,1.39,0,0,1-.145-.07c-.045-.04-.093-.027-.138-.045a.44.44,0,0,1-.068-.023.668.668,0,0,0-.071,0,1.163,1.163,0,0,0-.312.025,2.526,2.526,0,0,0-.343.13c-.118.044-.223.117-.332.169s-.206.116-.291.175l-.232.147L355,109.5" transform="translate(-204.519 -62.06)" fill="#000543"/>
        <path id="Trazado_826417" data-name="Trazado 826417" d="M337.909,129.385s5.074,1.756,7.221,2.439c0,0-3.9,2.244-7.221-2.439" transform="translate(-194.673 -74.54)" fill="#fff"/>
        <path id="Trazado_826418" data-name="Trazado 826418" d="M179.388,377.777c1.339,9.757,17.169,18.032,38.347,18.032s36.967-8.288,38.348-18.032c3.708-26.176-17.169-18.032-38.348-18.032s-41.86-7.562-38.347,18.032" transform="translate(-103.121 -206.562)" fill="#bc3333"/>
        <path id="Trazado_826419" data-name="Trazado 826419" d="M179.921,361.413c0,6.682,17.169,12.1,38.347,12.1s38.348-5.417,38.348-12.1-17.169-12.1-38.348-12.1-38.347,5.417-38.347,12.1" transform="translate(-103.654 -201.243)" fill="#e04e4b"/>
        <path id="Trazado_826420" data-name="Trazado 826420" d="M179.316,361.2a5.483,5.483,0,0,0,1.857,3.79,17.559,17.559,0,0,0,5.215,3.3c5.71,2.548,12.06,3.7,18.235,4.415a116.586,116.586,0,0,0,23.924.262,71.192,71.192,0,0,0,19.225-4.026,22.821,22.821,0,0,0,5.915-3.166,7.1,7.1,0,0,0,2.72-3.678c.836-3.416-2.8-5.91-5.369-7.263-5.235-2.757-11.3-3.993-17.1-4.831a114.729,114.729,0,0,0-23.836-.834,79.9,79.9,0,0,0-20.184,3.578,29.529,29.529,0,0,0-6.611,3.014,9.414,9.414,0,0,0-3.534,3.559,4.413,4.413,0,0,0-.457,1.883c0,.239.512.145.513-.052a5.322,5.322,0,0,1,1.877-3.712,17.756,17.756,0,0,1,5.261-3.233c5.649-2.457,11.9-3.572,17.99-4.26a116.141,116.141,0,0,1,23.34-.248,71.752,71.752,0,0,1,18.858,3.86,23.631,23.631,0,0,1,5.953,3.085,6.992,6.992,0,0,1,2.78,3.625c.86,3.4-2.9,5.845-5.449,7.143-5.2,2.651-11.175,3.856-16.912,4.662a114.4,114.4,0,0,1-23.171.8,80.65,80.65,0,0,1-19.86-3.44,30.161,30.161,0,0,1-6.574-2.907,9.472,9.472,0,0,1-3.625-3.513,4.232,4.232,0,0,1-.469-1.859c0-.24-.515-.145-.513.052" transform="translate(-103.306 -201.003)" fill="#ffc1c2"/>
        <path id="Trazado_826421" data-name="Trazado 826421" d="M242.6,290.053c17.173.781,23.46-9.924,12.1-16.783-10.343-6.245-11.337-24.536-6.05-29.663,6.44-6.245,6.83-12.88,6.83-12.88,0-6.169-3.818-9.739-9.22-11.085a11.175,11.175,0,0,0-3.855-.624q-.393,0-.781.012-.388-.011-.78-.012a9.574,9.574,0,0,0-3.2.474c-5.744,1.216-9.872,4.82-9.872,11.235a28.484,28.484,0,0,0,6.05,12.1c3.9,4.489,6.44,24.2-5.269,30.444s-5.074,17.564,12.1,16.783" transform="translate(-128.274 -126.179)" fill="#fc635b"/>
      </g>
    </g>
    <g id="Grupo_1075387" data-name="Grupo 1075387" transform="translate(94.381 92.839)">
      <g id="Grupo_1075386" data-name="Grupo 1075386" clip-path="url(#clip-path-12)">
        <path id="Trazado_826422" data-name="Trazado 826422" d="M227.787,338.405c-3.262,1.754-6.885,4.979-5.877,9.108s5.676,6.3,9.432,7.208a35.306,35.306,0,0,0,8.752.735,64.313,64.313,0,0,0,7.921-.237c4.188-.554,9.422-2.122,11.552-6.153a6.1,6.1,0,0,0,.393-4.789,10.471,10.471,0,0,0-3.8-4.824,19.4,19.4,0,0,0-1.638-1.105c-.206-.125-.872.185-.716.28,3.091,1.88,6.556,5.177,5.531,9.185-1.045,4.09-5.747,6.02-9.47,6.767a41.111,41.111,0,0,1-8.215.506,49.269,49.269,0,0,1-7.815-.324c-3.977-.633-8.893-2.334-10.744-6.27a5.879,5.879,0,0,1-.224-4.536,9.534,9.534,0,0,1,3.734-4.4,17.483,17.483,0,0,1,1.64-.99c.449-.242-.242-.28-.458-.164" transform="translate(-222.127 -287.748)" fill="#ffc1c2"/>
      </g>
    </g>
    <g id="Grupo_1075389" data-name="Grupo 1075389">
      <g id="Grupo_1075388" data-name="Grupo 1075388" clip-path="url(#clip-path)">
        <path id="Trazado_826424" data-name="Trazado 826424" d="M232.865,223.008c0,7.285,6.553,13.191,14.636,13.191s14.636-5.906,14.636-13.191-6.553-13.191-14.636-13.191-14.636,5.906-14.636,13.191" transform="translate(-134.156 -120.878)" fill="#fc635b"/>
        <path id="Trazado_826425" data-name="Trazado 826425" d="M232.261,222.828c.034,5.923,4.333,10.792,9.833,12.555a16.135,16.135,0,0,0,16.5-4.068,12.735,12.735,0,0,0,3.4-7.425,12.366,12.366,0,0,0-2.067-8c-3.4-5.072-9.908-7.254-15.786-6.151-5.584,1.048-10.646,5.2-11.69,10.952a12.392,12.392,0,0,0-.192,2.139c0,.233.511.136.512-.055.033-5.712,4.123-10.5,9.443-12.236a15.47,15.47,0,0,1,16.024,4.009,12.23,12.23,0,0,1,1.286,14.935c-3.246,4.956-9.546,7.162-15.263,6.073-5.43-1.034-10.29-5.1-11.3-10.683a12.181,12.181,0,0,1-.19-2.1c0-.234-.514-.135-.512.055" transform="translate(-133.808 -120.671)" fill="#ffc1c2"/>
        <path id="Trazado_826426" data-name="Trazado 826426" d="M264.163,208.123s-14.775-4.321-12.545-9.9,6.97-2.648,11.988,0c3.009,1.588,16.866,7.109,17.284,9.479s1.115,15.89-1.394,4.6c0,0-.976,13.8-1.673.139,0,0-1.812,12.266-1.673-.836,0,0-1.533,10.593-1.533-.557Z" transform="translate(-144.828 -112.37)" fill="#ff9489"/>
      </g>
    </g>
  </g>
</svg>
