<svg xmlns="http://www.w3.org/2000/svg" xmlns:xlink="http://www.w3.org/1999/xlink" width="169" height="169" viewBox="0 0 169 169">
  <defs>
    <clipPath id="clip-path">
      <rect id="Rect치ngulo_378257" data-name="Rect치ngulo 378257" width="96.948" height="96.933" fill="none"/>
    </clipPath>
  </defs>
  <g id="Grupo_1073967" data-name="Grupo 1073967" transform="translate(-385.966 -2058.049)">
    <g id="Grupo_159182" data-name="Grupo 159182" transform="translate(385.966 2058.049)">
      <path id="Uni칩n_12" data-name="Uni칩n 12" d="M84.5,0A84.5,84.5,0,1,1,0,84.5,84.5,84.5,0,0,1,84.5,0Z" transform="translate(0 0)" fill="#ffae7e"/>
    </g>
    <g id="Grupo_1073963" data-name="Grupo 1073963" transform="translate(421.966 2094.049)">
      <g id="Grupo_1073962" data-name="Grupo 1073962" clip-path="url(#clip-path)">
        <path id="Trazado_823678" data-name="Trazado 823678" d="M1.569,48.566a5.213,5.213,0,0,0-1.262-.058c-.223,0-.308-.06-.307-.3.011-3.044,0-6.089.017-9.132a1.7,1.7,0,0,1,1.7-1.537c1.579-.01,3.158,0,4.738-.011a9.749,9.749,0,0,0,4.891-1.431,25.164,25.164,0,0,1,4.678-2.5,12.326,12.326,0,0,1,5.83-.6,19.346,19.346,0,0,1,2.962.707,13.775,13.775,0,0,1,2.729,1.322,32.351,32.351,0,0,0,3.1,1.737,9.326,9.326,0,0,0,4.41.7,10.342,10.342,0,0,0,4.992-1.684,22.438,22.438,0,0,1,3.467-1.849.392.392,0,0,0,.281-.433c-.007-1.676-.018-3.354.006-5.03.005-.388-.211-.316-.428-.316-2.849,0-5.7.041-8.547-.022a10.861,10.861,0,0,1-3.233-.515c-.9-.3-1.877-.39-2.771-.739a21.262,21.262,0,0,1-3.979-2.038,17.954,17.954,0,0,1-3.472-2.85,21.513,21.513,0,0,1-2.695-3.522,22.275,22.275,0,0,1-1.479-2.771A22.6,22.6,0,0,1,16.055,11.8a16.039,16.039,0,0,1-.429-3.814A1.642,1.642,0,0,1,17.3,6.27c.211-.017.423-.008.635-.008q10.062,0,20.124,0a17.357,17.357,0,0,1,4.578.5,12.188,12.188,0,0,1,2.228.823c.383.19.527.066.683-.238a12.653,12.653,0,0,1,1.271-1.941,13.42,13.42,0,0,1,4.06-3.567A14.13,14.13,0,0,1,54.226.492a15.509,15.509,0,0,1,4.03-.487c2.328.01,4.657-.007,6.985.008a1.964,1.964,0,0,1,1.827.934c.142.233-.01.431.086.626a1.417,1.417,0,0,1-1.265,1.52,2.768,2.768,0,0,1-.582.043c-2.459,0-4.918-.019-7.376.012a10.972,10.972,0,0,0-2.92.366,10.7,10.7,0,0,0-6.755,5.323,10.991,10.991,0,0,0-1.351,5.348q.03,9.133,0,18.266c0,.4.073.528.5.5a18.253,18.253,0,0,1,2.1-.005c.4.018.549-.056.547-.516-.023-3.923-.015-7.847-.012-11.77a1.685,1.685,0,0,1,1.886-1.89c3.143,0,6.285.013,9.427-.01a14.818,14.818,0,0,0,2.4-.206A16.654,16.654,0,0,0,70.321,16a17.266,17.266,0,0,0,3.7-3.242,20.53,20.53,0,0,0,2.746-4.365,18.317,18.317,0,0,0,1.318-4.844c.054-.318-.033-.419-.366-.416-1.84.015-3.68.013-5.519,0a1.72,1.72,0,0,1-1.851-1.562A1.586,1.586,0,0,1,72.114.023C74.572-.01,77.032,0,79.49.021a1.869,1.869,0,0,1,1.311.5,1.9,1.9,0,0,1,.483,1.693c-.089.793-.113,1.59-.255,2.384a20.454,20.454,0,0,1-4.435,9.946,20.549,20.549,0,0,1-5.576,4.672,22.768,22.768,0,0,1-3.763,1.622,28.194,28.194,0,0,1-3.844.939,11.4,11.4,0,0,1-2.121.114c-2.557.012-5.113.015-7.67-.006-.4,0-.467.118-.466.483q.02,5.471,0,10.942c0,.356.072.571.429.693a19.321,19.321,0,0,1,3.558,1.911A9.9,9.9,0,0,0,61.058,37.4a10.941,10.941,0,0,0,4.216-.3,14.969,14.969,0,0,0,3.861-1.925,14.028,14.028,0,0,1,5.117-2.115A12.6,12.6,0,0,1,78.212,33a14.551,14.551,0,0,1,4.417,1.351c1.026.518,1.993,1.152,2.983,1.741a9.756,9.756,0,0,0,5.329,1.443c1.318-.033,2.638,0,3.957-.008a3.123,3.123,0,0,1,.989.161c.783.257.925.947,1.049,1.635a2.232,2.232,0,0,1,0,.39q0,24.228-.015,48.456a9.311,9.311,0,0,1-.872,4.555,7.8,7.8,0,0,1-5.284,3.982,9.734,9.734,0,0,1-2.243.228q-40.3,0-80.609-.008a6.855,6.855,0,0,1-3.711-.932,12.468,12.468,0,0,1-1.48-.97A7.434,7.434,0,0,1,.3,91.223,9.416,9.416,0,0,1,0,88.652q0-16.56,0-33.119c0-.744,0-.744.746-.736.146,0,.293,0,.439,0l.035.02.036-.018.3,0a4.247,4.247,0,0,0,1.307-.025c.211-.049.263.039.262.22s0,.358,0,.537q0,16.363,0,32.725a7.49,7.49,0,0,0,.071,1.607,4.886,4.886,0,0,0,1.542,2.738,5.032,5.032,0,0,0,3.5,1.215Q48.528,93.8,88.8,93.8c.114,0,.228,0,.342,0a4.961,4.961,0,0,0,4.3-3.089,8.154,8.154,0,0,0,.353-3.166c.005-.26.016-.52.016-.781q0-22.4,0-44.793c0-.42.137-.98-.076-1.225-.25-.286-.825-.087-1.258-.093a19.9,19.9,0,0,1-4.738-.34,17.3,17.3,0,0,1-4.7-2.093,12.777,12.777,0,0,0-4.508-2.006A10.1,10.1,0,0,0,71.4,37.465,30.848,30.848,0,0,1,67.573,39.6a12.835,12.835,0,0,1-6.78.92,13.168,13.168,0,0,1-5.682-2.2c-.611-.414-1.256-.778-1.947-1.2v.639c0,4.787-.007,9.574.007,14.361a5.852,5.852,0,0,1-.337,2.151c-.133.347-.064.459.316.454q1.9-.024,3.81,0A3.987,3.987,0,0,0,58.3,54.5c1.171-.394,2.337-.8,3.519-1.16a1.674,1.674,0,0,1,1.852.353,1.572,1.572,0,0,1-.644,2.491c-.855.312-1.722.588-2.585.876-.657.22-1.317.433-2,.657a2.844,2.844,0,0,0,.593.65,12.723,12.723,0,0,1,1.607,1.7,1.579,1.579,0,0,1-.772,2.395,1.689,1.689,0,0,1-1.8-.557c-.889-.884-1.763-1.782-2.648-2.67-1.278-1.284-1.018-1.558-2.9-1.39a.186.186,0,0,1-.049,0,1.439,1.439,0,0,0-1.378.428,4.28,4.28,0,0,1-.766.592.556.556,0,0,0-.291.549c.013,1.661.017,3.321,0,4.982a1.276,1.276,0,0,0,.423.988c1.3,1.279,2.613,2.537,3.787,3.935a1.553,1.553,0,0,1-.674,2.524,1.634,1.634,0,0,1-1.779-.585,25.065,25.065,0,0,1-2.117-2.273c-.073-.1-.158-.214-.316-.187-.112.023-.094.108-.091.187a.108.108,0,0,0-.017.08l-.053.114c-.11.421-.222.842-.331,1.263a12.558,12.558,0,0,1-.585,2.109,1.488,1.488,0,0,1-1.8.832,1.642,1.642,0,0,1-1.1-1.832c.377-1.478.77-2.952,1.1-4.44a9.869,9.869,0,0,0,.428-2.089c.009-1.889,0-3.777.008-5.666a.5.5,0,0,0-.287-.5A3.6,3.6,0,0,1,45.3,57.525c-.168-.3-.3-.362-.564-.078-.724.771-1.469,1.522-2.221,2.265a.933.933,0,0,0-.3.73c.012,1.611,0,3.223.009,4.835a2.6,2.6,0,0,1-.113.818,1.539,1.539,0,0,1-1.352,1.1,1.42,1.42,0,0,1-1.329-.658,1.924,1.924,0,0,1-.334-1.2c0-1.107,0-2.214,0-3.321,0-.134.057-.289-.073-.413-.9.287-1.789.6-2.693.85a1.562,1.562,0,0,1-1.911-1.479A1.616,1.616,0,0,1,35.6,59.484c1.116-.4,2.237-.79,3.369-1.139a3.483,3.483,0,0,0,1.516-.924c1.012-1.036,2.034-2.063,3.085-3.059a.83.83,0,0,0,.3-.968,3.015,3.015,0,0,1-.091-.968q0-7.277,0-14.555c0-.13,0-.26,0-.39.005-.282-.123-.3-.331-.173-.414.258-.831.511-1.24.776a14.71,14.71,0,0,1-5.533,2.329,13.3,13.3,0,0,1-4.209.064,15.474,15.474,0,0,1-5.971-2.4,11.6,11.6,0,0,0-4.3-1.869A9.846,9.846,0,0,0,15.247,37.4c-2.322,1.418-4.628,2.861-7.423,3.167a38.156,38.156,0,0,1-4.192.079c-.408,0-.513.105-.51.512.02,2.262.01,4.524.009,6.787,0,.594-.033.625-.637.625H1.569M29.256,9.4H19.391c-.13,0-.261.007-.391,0-.207-.007-.276.123-.213.279a17.914,17.914,0,0,1,.436,2.212A17.038,17.038,0,0,0,28.75,23.439a15.644,15.644,0,0,0,6.179,1.556c2.747.109,5.5.015,8.251.038.467,0,.622-.074.618-.592-.028-3.467-.013-6.934-.016-10.4a12.413,12.413,0,0,1,.362-2.968.418.418,0,0,0-.277-.563A11.57,11.57,0,0,0,38.877,9.4c-3.207-.015-6.414,0-9.621,0M46.913,44.571c0,2.343.059,4.689-.021,7.029a12.167,12.167,0,0,0,1.01,4.226.588.588,0,0,0,.526.441.665.665,0,0,0,.592-.422,6.062,6.062,0,0,0,.247-.611,11.293,11.293,0,0,0,.78-3.495c-.029-4.3-.011-8.592-.011-12.888,0-.781,0-1.562,0-2.343,0-.212-.014-.418-.275-.429a13.122,13.122,0,0,0-2.478.036c-.341.05-.381.2-.38.5.013,2.652.007,5.3.007,7.957" transform="translate(0 0)"/>
        <path id="Trazado_823679" data-name="Trazado 823679" d="M96.217,150.45a8.154,8.154,0,0,1-.353,3.166,4.961,4.961,0,0,1-4.3,3.089c-.114,0-.228,0-.342,0q-40.277,0-80.553.005a5.034,5.034,0,0,1-3.5-1.215,4.888,4.888,0,0,1-1.542-2.738,7.49,7.49,0,0,1-.071-1.607q-.007-16.363,0-32.725c0-.179,0-.358,0-.537s-.051-.269-.262-.22a4.235,4.235,0,0,1-1.307.025q0-3.114.009-6.228h.926c.6,0,.637-.031.637-.625,0-2.263.011-4.525-.009-6.787,0-.406.1-.516.51-.512a38.156,38.156,0,0,0,4.192-.078q0,3.7,0,7.41c0,.265-.044.554.377.493a3.653,3.653,0,0,0,0,3.133c-.318-.048-.376.119-.376.4q.008,9.179,0,18.358c0,.2-.018.4.213.5L9.338,134.91a1.62,1.62,0,0,0-.016,2.582q.517.55,1.03,1.1a1.05,1.05,0,0,0-.1.322,52.021,52.021,0,0,0,.1,6.172,6.253,6.253,0,0,0,6.219,5.348c1.832.086,3.671.014,5.508.013a1.49,1.49,0,0,1,.694.59,6.807,6.807,0,0,0,1.7,1.581,4.623,4.623,0,0,0,6.043-.39c.643-.619,1.272-1.253,1.907-1.88.16.17.369.1.555.1q5.2.006,10.4,0c.381.313.523.8.877,1.146a6.961,6.961,0,0,0,5.417,1.966c2.392-.127,4.425-.964,5.6-3.238.374.3.8.123,1.2.124q4.479.008,8.96,0c.13,0,.26.012.389.011q.842-.006,1.682-.018c.139,0,.189-.1.216-.223.231.2.454.418.7.609a4.639,4.639,0,0,0,4.188,1.019,5.619,5.619,0,0,0,2.509-1.52c.1.149.255.121.4.121q4.125,0,8.251,0a.537.537,0,0,0,.555-.307,2.9,2.9,0,0,0,1.508.311,5.576,5.576,0,0,0,1.8-.22c.068.32.327.209.514.209q4.039.008,8.077,0m-83.782,0a2.33,2.33,0,0,0-1.541.251,1.663,1.663,0,0,0-.648,1.632,1.943,1.943,0,0,0,1.266,1.208,7.1,7.1,0,0,0,2.186-.052,1.588,1.588,0,0,0,1.184-1.434,1.493,1.493,0,0,0-1.091-1.5,4.424,4.424,0,0,0-1.356-.108" transform="translate(-2.42 -62.902)" fill="#a6632b"/>
        <path id="Trazado_823680" data-name="Trazado 823680" d="M143.081,4.015a1.72,1.72,0,0,0,1.851,1.562c1.84.008,3.68.01,5.52,0,.333,0,.42.1.366.416a18.333,18.333,0,0,1-1.318,4.844,20.529,20.529,0,0,1-2.746,4.365,17.274,17.274,0,0,1-3.7,3.242,16.658,16.658,0,0,1-6.571,2.554,14.817,14.817,0,0,1-2.4.206c-3.142.023-6.285.009-9.428.01a1.685,1.685,0,0,0-1.885,1.89c0,3.923-.011,7.847.012,11.77,0,.46-.144.534-.547.516a18.343,18.343,0,0,0-2.1.005c-.429.031-.5-.1-.5-.5q.018-9.133,0-18.267a11,11,0,0,1,1.351-5.348,10.7,10.7,0,0,1,6.755-5.323,10.968,10.968,0,0,1,2.92-.366c2.458-.031,4.917-.009,7.376-.012a2.765,2.765,0,0,0,.581-.043,1.417,1.417,0,0,0,1.265-1.52h3.193M135.7,18.077a11.057,11.057,0,0,0,4.063-.474,9.39,9.39,0,0,0,5.631-5.13,8.645,8.645,0,0,0,.822-3.675,1.5,1.5,0,0,0-1.869-1.565A1.536,1.536,0,0,0,143.095,8.8a6.77,6.77,0,0,1-.63,2.655,6.165,6.165,0,0,1-5.7,3.494c-1.009.021-2.018-.008-3.027.009a1.614,1.614,0,0,0-1.583,1.572,1.664,1.664,0,0,0,1.575,1.541c.6.014,1.2,0,1.969,0" transform="translate(-72.734 -2.441)" fill="#cbf39e"/>
        <path id="Trazado_823681" data-name="Trazado 823681" d="M3.108,139.706l-.036.018-.035-.02c.025-.051.049-.046.071,0" transform="translate(-1.846 -84.91)" fill="#cbf39e"/>
        <path id="Trazado_823682" data-name="Trazado 823682" d="M20.161,126.735c-.231-.1-.213-.3-.213-.5q0-9.179,0-18.358c0-.279.058-.447.376-.4a4.643,4.643,0,0,0,.908,1.26,6.678,6.678,0,0,0,3.813,1.774,7.417,7.417,0,0,0,5.857-1.508,3.909,3.909,0,0,0,1.054-4.892,4.609,4.609,0,0,0-1.76-1.789,7.837,7.837,0,0,0-6.278-.767,5.435,5.435,0,0,0-3.591,2.788c-.421.061-.377-.227-.377-.492q0-3.7,0-7.41c2.795-.306,5.1-1.749,7.423-3.167a9.846,9.846,0,0,1,6.949-1.191,11.588,11.588,0,0,1,4.3,1.869,15.48,15.48,0,0,0,5.971,2.4A13.288,13.288,0,0,0,48.8,96.3a14.711,14.711,0,0,0,5.533-2.328c.409-.265.826-.518,1.24-.777.208-.13.336-.109.331.173,0,.13,0,.26,0,.391q0,7.277,0,14.554a3.015,3.015,0,0,0,.091.968.83.83,0,0,1-.3.968c-1.051,1-2.074,2.023-3.085,3.059a3.483,3.483,0,0,1-1.516.923c-1.133.349-2.254.739-3.369,1.139a1.616,1.616,0,0,0-1.187,1.494,1.562,1.562,0,0,0,1.911,1.479c.9-.252,1.792-.563,2.693-.85.129.124.072.278.073.413.005,1.107,0,2.214,0,3.321a1.923,1.923,0,0,0,.334,1.2,1.421,1.421,0,0,0,1.329.659,1.54,1.54,0,0,0,1.352-1.1,2.6,2.6,0,0,0,.113-.818c-.006-1.612,0-3.223-.009-4.835a.932.932,0,0,1,.3-.73c.752-.743,1.5-1.494,2.221-2.265.267-.284.4-.221.564.077a3.6,3.6,0,0,0,1.327,1.335.5.5,0,0,1,.287.5c-.009,1.889,0,3.777-.008,5.665A9.878,9.878,0,0,1,58.6,123c-.333,1.488-.726,2.962-1.1,4.44a1.642,1.642,0,0,0,1.1,1.832,1.488,1.488,0,0,0,1.8-.833,12.564,12.564,0,0,0,.585-2.108c.109-.421.221-.842.331-1.263l.053-.114a.108.108,0,0,1,.017-.08l.091-.187c.158-.027.243.082.316.187a25.112,25.112,0,0,0,2.117,2.273,1.634,1.634,0,0,0,1.779.585,1.553,1.553,0,0,0,.674-2.523c-1.174-1.4-2.491-2.656-3.787-3.935a1.274,1.274,0,0,1-.423-.988c.017-1.66.013-3.321,0-4.982a.556.556,0,0,1,.291-.549,4.294,4.294,0,0,0,.766-.592,1.439,1.439,0,0,1,1.378-.428.17.17,0,0,0,.049,0c1.887-.167,1.626.106,2.9,1.39.885.888,1.759,1.787,2.648,2.67a1.688,1.688,0,0,0,1.8.557,1.578,1.578,0,0,0,.772-2.394,12.725,12.725,0,0,0-1.607-1.7,2.836,2.836,0,0,1-.593-.65c.683-.224,1.342-.438,2-.657.863-.288,1.73-.565,2.585-.876a1.572,1.572,0,0,0,.644-2.491,1.674,1.674,0,0,0-1.852-.353c-1.182.357-2.348.766-3.519,1.16a4,4,0,0,1-1.337.225q-1.9-.023-3.81,0c-.38,0-.45-.107-.316-.454a5.85,5.85,0,0,0,.337-2.15c-.015-4.787-.007-9.574-.007-14.361v-.639c.691.425,1.337.789,1.947,1.2a13.167,13.167,0,0,0,5.682,2.2,12.839,12.839,0,0,0,6.78-.919,30.85,30.85,0,0,0,3.829-2.139A10.1,10.1,0,0,1,90.654,92.1a12.773,12.773,0,0,1,4.508,2.006,17.322,17.322,0,0,0,4.7,2.093,19.924,19.924,0,0,0,4.738.34c.433.005,1.008-.194,1.258.093.214.244.076.8.076,1.224q0,22.4,0,44.793c0,.26-.01.52-.016.781q-4.039,0-8.077,0c-.187,0-.446.111-.514-.209a.819.819,0,0,1,.126-.145,1.481,1.481,0,0,0,.539-1.653,1.365,1.365,0,0,0-1.215-1.051,5.689,5.689,0,0,0-2.174.033,1.522,1.522,0,0,0-1.155,1.794,3.975,3.975,0,0,0,.572.931.537.537,0,0,1-.555.308q-4.125-.009-8.251,0c-.143,0-.3.027-.4-.121.1-.109.189-.222.291-.326,2.3-2.347,4.7-4.594,6.93-7.015a5.02,5.02,0,0,0,1.253-4.28,2.265,2.265,0,0,1,.484-2.048q2.525-2.616,5.129-5.153a1.912,1.912,0,0,0,.152-2.692q-2.211-2.246-4.507-4.4a1.475,1.475,0,0,0-2.32.054c-.586.565-1.153,1.149-1.731,1.722q-1.715,1.7-3.435,3.4a2.448,2.448,0,0,1-2.184.7,5.1,5.1,0,0,0-3.56.652,18.418,18.418,0,0,0-3.009,2.684c-1.807,1.688-3.523,3.473-5.261,5.235a4.633,4.633,0,0,0-1.5,3.376,5.345,5.345,0,0,0,1.726,3.847c1.389,1.371,2.765,2.756,4.146,4.135-.026.119-.076.221-.216.223-.561.009-1.122.014-1.682.018-.129,0-.259-.011-.389-.011q-4.48,0-8.96,0c-.4,0-.83.174-1.2-.124a4.011,4.011,0,0,0-1.8-4.93,7.588,7.588,0,0,0-4.724-1.164,6.607,6.607,0,0,0-3.919,1.431,4.243,4.243,0,0,0-1.75,3.374c-.011.494.305.92.3,1.414q-5.2,0-10.4,0c-.186,0-.395.072-.555-.1.111-.118.217-.24.332-.354,2.426-2.43,4.836-4.876,7.287-7.281a4.676,4.676,0,0,0-.062-6.787q-1.624-1.551-3.173-3.178c-.723-.762-1.472-1.179-2.484-.561a.376.376,0,0,1-.144.019c-.379-.377-.749-.762-1.137-1.128a17.542,17.542,0,0,0-1.5-1.441,1.581,1.581,0,0,0-.207-2.344c-.352-.362-.715-.712-1.073-1.069-1.66-1.656-3.306-3.325-4.985-4.96a1.436,1.436,0,0,0-2.206.013c-.313.285-.607.59-.906.89-1.185,1.187-2.377,2.366-3.548,3.566a1.54,1.54,0,0,0-.091,2.372c1.58,1.6,3.058,3.294,4.749,4.778.27.236.244.394-.022.606a12.192,12.192,0,0,0-1.836,1.8c-.228.278-.425.265-.673-.009-1.463-1.621-3.057-3.111-4.634-4.619a1.628,1.628,0,0,0-2.452.016c-1.073,1.017-2.075,2.108-3.2,3.071m68.264-17.682a8.356,8.356,0,0,0,3.987-.9c3.082-1.664,3.5-5.268.465-7.3A7.758,7.758,0,0,0,88.144,99.7a6.6,6.6,0,0,0-3.919,1.44,4.044,4.044,0,0,0-1.72,3.335,3.809,3.809,0,0,0,1.213,2.637,6.8,6.8,0,0,0,4.707,1.947M62.976,130.924a5.653,5.653,0,0,0-1.068.067A1.563,1.563,0,0,0,60.6,132.4a1.613,1.613,0,0,0,1.322,1.583,5.191,5.191,0,0,0,2.035,0,1.4,1.4,0,0,0,1.235-1.356,1.428,1.428,0,0,0-1.149-1.621,4.4,4.4,0,0,0-1.066-.083m20.191-12.506c.328,0,.573.016.815,0a1.575,1.575,0,0,0,1.539-1.3,1.516,1.516,0,0,0-1.364-1.8,4.975,4.975,0,0,0-1.9.042,1.592,1.592,0,0,0-1.335,1.455,1.675,1.675,0,0,0,1.311,1.547,4.489,4.489,0,0,0,.933.055m-7.827-14.068c.3,0,.548.013.79,0a1.576,1.576,0,0,0,1.574-1.317,1.5,1.5,0,0,0-1.329-1.772,4.818,4.818,0,0,0-1.946.036,1.592,1.592,0,0,0-1.322,1.465A1.681,1.681,0,0,0,74.43,104.3a4.586,4.586,0,0,0,.91.053m25.089,10.943c.244,0,.488.014.731,0a1.594,1.594,0,0,0,1.56-1.282,1.508,1.508,0,0,0-1.344-1.809,4.88,4.88,0,0,0-2.088.072,1.6,1.6,0,0,0-1.166,1.4A1.68,1.68,0,0,0,99.27,115.2a3.759,3.759,0,0,0,1.159.1M42.589,101.226a4.933,4.933,0,0,0-1.006.062,1.51,1.51,0,0,0-.02,2.992,5.307,5.307,0,0,0,1.938.033,1.483,1.483,0,0,0,1.363-1.785,1.552,1.552,0,0,0-1.581-1.3c-.211-.011-.423,0-.695,0m29.7,23.445c.228,0,.457.015.684,0a1.6,1.6,0,0,0,1.615-1.456,1.54,1.54,0,0,0-1.413-1.638,4.861,4.861,0,0,0-1.95.064,1.487,1.487,0,0,0-.187,2.893,3.081,3.081,0,0,0,1.251.14" transform="translate(-12.125 -55.883)" fill="#c27630"/>
        <path id="Trazado_823683" data-name="Trazado 823683" d="M58.353,23.959c3.207,0,6.414-.011,9.621,0a11.57,11.57,0,0,1,4.99,1.107.418.418,0,0,1,.277.563,12.413,12.413,0,0,0-.362,2.968c0,3.467-.012,6.934.016,10.4,0,.518-.151.6-.618.592-2.751-.022-5.5.071-8.251-.038A15.644,15.644,0,0,1,57.847,38,17.038,17.038,0,0,1,48.32,26.454a17.914,17.914,0,0,0-.436-2.212c-.062-.156.006-.287.213-.28.13,0,.261,0,.391,0h9.865m4.442,12.5c.927,0,1.562,0,2.2,0a1.563,1.563,0,0,0,1.245-.565,1.384,1.384,0,0,0,.239-1.586,1.614,1.614,0,0,0-1.515-.968c-1.057-.022-2.116.016-3.172-.015a6.174,6.174,0,0,1-4.247-1.77,6.06,6.06,0,0,1-1.859-4.305,1.72,1.72,0,0,0-1.569-1.738,1.665,1.665,0,0,0-1.55,1.727,8.312,8.312,0,0,0,.261,1.963,9.516,9.516,0,0,0,9.971,7.258" transform="translate(-29.097 -14.564)" fill="#33e7b0"/>
        <path id="Trazado_823684" data-name="Trazado 823684" d="M119.623,100.454c0-2.653.005-5.305-.007-7.957,0-.3.039-.449.38-.5a13.122,13.122,0,0,1,2.478-.036c.262.011.277.218.275.429-.005.781,0,1.562,0,2.343,0,4.3-.018,8.593.011,12.888a11.3,11.3,0,0,1-.78,3.495,6.152,6.152,0,0,1-.246.611.666.666,0,0,1-.593.422.588.588,0,0,1-.526-.441,12.167,12.167,0,0,1-1.01-4.226c.08-2.341.021-4.686.021-7.029" transform="translate(-72.71 -55.883)" fill="#cbf39e"/>
        <path id="Trazado_823685" data-name="Trazado 823685" d="M125.741,175.487l-.091.187c0-.079-.021-.164.091-.187" transform="translate(-76.387 -106.687)" fill="#a6632b"/>
        <path id="Trazado_823686" data-name="Trazado 823686" d="M125.529,176.167l-.053.114.053-.114" transform="translate(-76.283 -107.1)" fill="#a6632b"/>
        <path id="Trazado_823687" data-name="Trazado 823687" d="M17.757,160.566c1.125-.962,2.127-2.054,3.2-3.071a1.629,1.629,0,0,1,2.453-.016c1.577,1.508,3.171,3,4.634,4.619.247.274.444.287.673.009a12.192,12.192,0,0,1,1.836-1.8c.265-.212.291-.369.022-.606-1.692-1.484-3.17-3.182-4.749-4.778a1.54,1.54,0,0,1,.091-2.372c1.171-1.2,2.364-2.379,3.548-3.566.3-.3.593-.6.906-.89a1.436,1.436,0,0,1,2.206-.013c1.68,1.635,3.326,3.3,4.986,4.96.357.356.721.707,1.073,1.069a1.582,1.582,0,0,1,.207,2.344,1.529,1.529,0,0,1-2.344-.1c-.093-.09-.186-.181-.278-.273q-2.17-2.169-4.34-4.338c-.2-.2-.372-.427-.678-.111-.608.629-1.268,1.209-1.835,1.878-.343.173-.35.352-.031.571a2.493,2.493,0,0,1,.341.345c1.415,1.449,2.82,2.907,4.3,4.292.842,1.066.827,1.67-.15,2.675-1.327,1.366-2.679,2.708-4.031,4.05-.988.981-1.735.98-2.715.007q-2.3-2.289-4.589-4.6c-.2-.2-.319-.268-.541-.03-.577.617-1.178,1.213-1.77,1.818-.49.4-.483.393-.067.806q2.614,2.594,5.219,5.2,3.913,3.915,7.82,7.838a2.113,2.113,0,0,0,1.19.767,2.067,2.067,0,0,0,1.736-.769q2.906-2.957,5.841-5.887c1.046-1.047,2.111-2.074,3.16-3.117a1.6,1.6,0,0,0,.034-2.515c-.089-.094-.185-.182-.278-.274-1.06-1.056-2.13-2.1-3.175-3.172-.821-.841-.854-1.223-.291-2.229a2.607,2.607,0,0,0,.112-.261.385.385,0,0,0,.144-.02c1.012-.618,1.76-.2,2.484.561q1.545,1.628,3.173,3.178a4.676,4.676,0,0,1,.062,6.787c-2.451,2.4-4.861,4.851-7.287,7.281-.114.114-.221.236-.331.354-.635.627-1.264,1.261-1.907,1.88a4.622,4.622,0,0,1-6.043.39,6.805,6.805,0,0,1-1.7-1.581,1.494,1.494,0,0,0-.694-.59,31.857,31.857,0,0,0-2.831-2.947q-4.435-4.466-8.894-8.909c-.343-.368-.685-.736-1.03-1.1a1.62,1.62,0,0,1,.016-2.582q.558-.579,1.117-1.155" transform="translate(-9.721 -89.714)"/>
        <path id="Trazado_823688" data-name="Trazado 823688" d="M157.455,181.875c-1.382-1.379-2.758-2.764-4.146-4.135a5.346,5.346,0,0,1-1.727-3.847,4.633,4.633,0,0,1,1.5-3.376c1.737-1.762,3.454-3.547,5.261-5.235a18.45,18.45,0,0,1,3.009-2.683,5.1,5.1,0,0,1,3.561-.652,2.447,2.447,0,0,0,2.183-.7q1.725-1.694,3.435-3.4c.577-.574,1.144-1.158,1.73-1.722a1.476,1.476,0,0,1,2.32-.054q2.291,2.161,4.507,4.4a1.912,1.912,0,0,1-.153,2.692q-2.6,2.539-5.129,5.153a2.265,2.265,0,0,0-.484,2.048,5.021,5.021,0,0,1-1.253,4.28c-2.225,2.421-4.629,4.667-6.93,7.015-.1.1-.194.217-.291.326a5.62,5.62,0,0,1-2.509,1.52,4.636,4.636,0,0,1-4.188-1.019c-.241-.191-.464-.405-.7-.609m-2.743-7.835a1.306,1.306,0,0,0,.47,1.09c1.633,1.658,3.269,3.311,4.928,4.943a1.538,1.538,0,0,0,2.245.032c.475-.419.918-.875,1.366-1.324q2.914-2.918,5.822-5.843a2.081,2.081,0,0,0,.7-1.738c-.039-.414-.089-.834-.1-1.247a5.22,5.22,0,0,1,1.72-4c.231-.221.207-.327,0-.527-.669-.635-1.331-1.278-1.97-1.943-.254-.265-.413-.267-.654.007a5.363,5.363,0,0,1-2.691,1.5,4.3,4.3,0,0,1-1.888.049,2.467,2.467,0,0,0-2.457.8c-.245.282-.528.53-.793.794q-2.97,2.966-5.936,5.934a1.8,1.8,0,0,0-.763,1.469m18.735-14.713c-.143.025-.221.137-.311.226-.382.376-.747.769-1.143,1.13-.251.228-.263.4-.014.634q1.026.971,2.023,1.972c.2.2.33.2.517,0,.376-.4.757-.806,1.161-1.181.252-.234.243-.4.006-.635-.662-.646-1.309-1.309-1.965-1.963-.078-.078-.146-.178-.274-.18" transform="translate(-92.154 -94.554)"/>
        <path id="Trazado_823689" data-name="Trazado 823689" d="M20.362,118.784A5.434,5.434,0,0,1,23.954,116a7.837,7.837,0,0,1,6.278.766,4.61,4.61,0,0,1,1.76,1.789,3.908,3.908,0,0,1-1.054,4.892,7.419,7.419,0,0,1-5.857,1.508,6.683,6.683,0,0,1-3.814-1.774,4.649,4.649,0,0,1-.908-1.26,3.655,3.655,0,0,1,0-3.133m5.91,3.122a4.918,4.918,0,0,0,2.438-.722c.752-.509.759-1.1.026-1.625a4.637,4.637,0,0,0-4.967-.021c-.788.554-.788,1.082.011,1.632a4.437,4.437,0,0,0,2.493.736" transform="translate(-12.163 -70.317)"/>
        <path id="Trazado_823690" data-name="Trazado 823690" d="M104,213.654c.006-.494-.311-.921-.3-1.414a4.242,4.242,0,0,1,1.75-3.374,6.6,6.6,0,0,1,3.919-1.431,7.586,7.586,0,0,1,4.724,1.164,4.011,4.011,0,0,1,1.8,4.93c-1.175,2.274-3.208,3.111-5.6,3.238a6.962,6.962,0,0,1-5.417-1.967c-.354-.342-.5-.833-.877-1.146m5.969-.007a4.887,4.887,0,0,0,2.454-.722c.752-.508.758-1.1.025-1.625a4.637,4.637,0,0,0-4.967-.02c-.787.554-.787,1.082.012,1.632a4.415,4.415,0,0,0,2.476.735" transform="translate(-63.046 -126.105)"/>
        <path id="Trazado_823691" data-name="Trazado 823691" d="M20,193.067q4.449,4.453,8.894,8.909a31.9,31.9,0,0,1,2.831,2.947c-1.836,0-3.675.073-5.508-.013A6.253,6.253,0,0,1,20,199.562a52.021,52.021,0,0,1-.1-6.172,1.05,1.05,0,0,1,.1-.322" transform="translate(-12.067 -117.375)" fill="#c27630"/>
        <path id="Trazado_823692" data-name="Trazado 823692" d="M22.107,223.3a4.461,4.461,0,0,1,1.356.109,1.494,1.494,0,0,1,1.091,1.5,1.588,1.588,0,0,1-1.184,1.434,7.1,7.1,0,0,1-2.186.052,1.944,1.944,0,0,1-1.266-1.208,1.663,1.663,0,0,1,.649-1.632,2.336,2.336,0,0,1,1.54-.252" transform="translate(-12.091 -135.745)"/>
        <path id="Trazado_823693" data-name="Trazado 823693" d="M207.937,218.125a3.971,3.971,0,0,1-.572-.931,1.522,1.522,0,0,1,1.155-1.793,5.689,5.689,0,0,1,2.174-.033,1.365,1.365,0,0,1,1.215,1.051,1.481,1.481,0,0,1-.539,1.653.818.818,0,0,0-.126.145,5.582,5.582,0,0,1-1.8.22,2.9,2.9,0,0,1-1.508-.311" transform="translate(-126.039 -130.878)"/>
        <path id="Trazado_823694" data-name="Trazado 823694" d="M155.106,23.011c-.764,0-1.367.011-1.969,0a1.664,1.664,0,0,1-1.575-1.541,1.614,1.614,0,0,1,1.583-1.572c1.009-.018,2.018.012,3.027-.009a6.165,6.165,0,0,0,5.7-3.494,6.77,6.77,0,0,0,.63-2.655,1.536,1.536,0,0,1,1.251-1.569,1.5,1.5,0,0,1,1.869,1.565,8.644,8.644,0,0,1-.822,3.675,9.39,9.39,0,0,1-5.631,5.13,11.057,11.057,0,0,1-4.063.474" transform="translate(-92.142 -7.375)"/>
        <path id="Trazado_823695" data-name="Trazado 823695" d="M26.675,168.692c.591-.6,1.192-1.2,1.769-1.818.222-.237.343-.169.541.03q2.284,2.309,4.589,4.6c.98.973,1.727.974,2.715-.007,1.352-1.342,2.7-2.684,4.031-4.049.977-1,.992-1.609.15-2.675.513-.267.552-.379.238-.663-1.438-1.3-2.763-2.706-4.123-4.08a1.6,1.6,0,0,0-.723-.465c.568-.669,1.227-1.249,1.836-1.878.305-.316.482-.084.677.111q2.172,2.168,4.34,4.338c.092.092.184.183.278.273a1.529,1.529,0,0,0,2.344.1,17.592,17.592,0,0,1,1.5,1.441c.388.367.759.752,1.137,1.128a2.574,2.574,0,0,1-.112.261c-.564,1.006-.531,1.388.29,2.229,1.045,1.07,2.116,2.116,3.175,3.172.092.092.188.18.278.274a1.6,1.6,0,0,1-.034,2.515c-1.05,1.043-2.114,2.07-3.16,3.117q-2.93,2.934-5.841,5.887a2.066,2.066,0,0,1-1.735.769c.131-.362-.047-.6-.3-.833-.749-.694-1.492-1.395-2.219-2.112q-2.649-2.615-5.279-5.248-2.926-2.927-5.836-5.871c-.177-.179-.483-.234-.526-.543" transform="translate(-16.217 -95.769)" fill="#f8f9fb"/>
        <path id="Trazado_823696" data-name="Trazado 823696" d="M185.435,121.1a6.8,6.8,0,0,1-4.707-1.947,3.809,3.809,0,0,1-1.213-2.637,4.045,4.045,0,0,1,1.72-3.335,6.6,6.6,0,0,1,3.919-1.44,7.758,7.758,0,0,1,4.733,1.153c3.035,2.036,2.617,5.64-.465,7.3a8.357,8.357,0,0,1-3.987.9m.348-3.146a5.085,5.085,0,0,0,2.366-.676c.836-.532.857-1.148.047-1.707a4.639,4.639,0,0,0-4.969.05c-.709.513-.717,1.029-.006,1.548a4.365,4.365,0,0,0,2.561.785" transform="translate(-109.135 -67.927)"/>
        <path id="Trazado_823697" data-name="Trazado 823697" d="M126.018,191.409a4.4,4.4,0,0,1,1.065.082,1.429,1.429,0,0,1,1.149,1.621A1.4,1.4,0,0,1,127,194.468a5.191,5.191,0,0,1-2.035,0,1.613,1.613,0,0,1-1.322-1.584,1.564,1.564,0,0,1,1.309-1.414,5.594,5.594,0,0,1,1.069-.066" transform="translate(-75.167 -116.367)"/>
        <path id="Trazado_823698" data-name="Trazado 823698" d="M177.726,154.59a4.486,4.486,0,0,1-.932-.055,1.675,1.675,0,0,1-1.311-1.547,1.591,1.591,0,0,1,1.335-1.455,4.966,4.966,0,0,1,1.9-.042,1.516,1.516,0,0,1,1.364,1.8,1.576,1.576,0,0,1-1.539,1.3c-.242.019-.487,0-.815,0" transform="translate(-106.684 -92.054)"/>
        <path id="Trazado_823699" data-name="Trazado 823699" d="M157.777,118.7a4.615,4.615,0,0,1-.91-.053,1.681,1.681,0,0,1-1.324-1.537,1.591,1.591,0,0,1,1.322-1.465,4.812,4.812,0,0,1,1.946-.036,1.5,1.5,0,0,1,1.329,1.772,1.576,1.576,0,0,1-1.574,1.317c-.243.015-.487,0-.79,0" transform="translate(-94.563 -70.236)"/>
        <path id="Trazado_823700" data-name="Trazado 823700" d="M221.656,146.616a3.771,3.771,0,0,1-1.159-.1,1.682,1.682,0,0,1-1.149-1.528,1.606,1.606,0,0,1,1.166-1.4,4.888,4.888,0,0,1,2.088-.072,1.508,1.508,0,0,1,1.344,1.809,1.6,1.6,0,0,1-1.56,1.282c-.243.016-.487,0-.731,0" transform="translate(-133.353 -87.205)"/>
        <path id="Trazado_823701" data-name="Trazado 823701" d="M74.114,115.651c.272,0,.484-.009.695,0a1.552,1.552,0,0,1,1.581,1.3,1.483,1.483,0,0,1-1.363,1.785,5.308,5.308,0,0,1-1.938-.033,1.51,1.51,0,0,1,.02-2.992,4.99,4.99,0,0,1,1.006-.062" transform="translate(-43.649 -70.308)"/>
        <path id="Trazado_823702" data-name="Trazado 823702" d="M149.879,170.547a3.069,3.069,0,0,1-1.252-.14,1.486,1.486,0,0,1,.187-2.893,4.861,4.861,0,0,1,1.95-.064,1.539,1.539,0,0,1,1.413,1.638,1.6,1.6,0,0,1-1.615,1.456c-.227.018-.456,0-.683,0" transform="translate(-89.71 -101.758)"/>
        <path id="Trazado_823703" data-name="Trazado 823703" d="M70.085,38.865a9.516,9.516,0,0,1-9.971-7.258,8.312,8.312,0,0,1-.261-1.963,1.665,1.665,0,0,1,1.55-1.727,1.72,1.72,0,0,1,1.569,1.738,6.06,6.06,0,0,0,1.859,4.305,6.174,6.174,0,0,0,4.247,1.77c1.057.03,2.115-.007,3.172.015a1.614,1.614,0,0,1,1.515.968,1.384,1.384,0,0,1-.239,1.586,1.563,1.563,0,0,1-1.245.565c-.634,0-1.269,0-2.2,0" transform="translate(-36.387 -16.972)"/>
        <path id="Trazado_823704" data-name="Trazado 823704" d="M26.095,186c.043.309.349.364.526.543q2.913,2.941,5.836,5.871,2.631,2.632,5.279,5.248c.726.717,1.469,1.419,2.219,2.112.255.236.433.471.3.833a2.114,2.114,0,0,1-1.19-.767q-3.913-3.916-7.82-7.838-2.6-2.6-5.219-5.2c-.416-.413-.423-.406.067-.806" transform="translate(-15.637 -113.081)" fill="#cbf39e"/>
        <path id="Trazado_823705" data-name="Trazado 823705" d="M49.7,162.715a1.606,1.606,0,0,1,.723.466c1.36,1.375,2.685,2.784,4.122,4.08.315.283.275.4-.238.663-1.478-1.386-2.883-2.844-4.3-4.293a2.515,2.515,0,0,0-.341-.345c-.319-.219-.312-.4.031-.571" transform="translate(-30.053 -98.922)" fill="#cbf39e"/>
        <path id="Trazado_823706" data-name="Trazado 823706" d="M159.551,186.065a1.794,1.794,0,0,1,.763-1.468q2.96-2.975,5.936-5.934c.265-.265.548-.512.793-.794a2.467,2.467,0,0,1,2.457-.8,4.3,4.3,0,0,0,1.888-.049,5.36,5.36,0,0,0,2.691-1.5c.242-.274.4-.272.654-.007.639.665,1.3,1.308,1.97,1.943.211.2.234.305,0,.527a5.219,5.219,0,0,0-1.72,4c.009.413.06.833.1,1.247a2.083,2.083,0,0,1-.7,1.738q-2.909,2.923-5.822,5.843c-.449.449-.892.9-1.366,1.324a1.538,1.538,0,0,1-2.245-.032c-1.658-1.632-3.3-3.286-4.928-4.943a1.306,1.306,0,0,1-.47-1.09" transform="translate(-96.993 -106.579)" fill="#f8f9fb"/>
        <path id="Trazado_823707" data-name="Trazado 823707" d="M204.795,165.217c.127,0,.2.1.274.18.655.654,1.3,1.316,1.965,1.963.237.231.246.4-.006.635-.4.375-.785.776-1.161,1.181-.187.2-.321.2-.517,0q-1-1-2.023-1.972c-.249-.236-.236-.407.014-.634.4-.36.761-.754,1.143-1.129.091-.089.168-.2.311-.226" transform="translate(-123.502 -100.443)" fill="#c27630"/>
        <path id="Trazado_823708" data-name="Trazado 823708" d="M31.191,126.812a4.437,4.437,0,0,1-2.493-.736c-.8-.55-.8-1.078-.011-1.632a4.637,4.637,0,0,1,4.967.021c.733.526.726,1.116-.026,1.625a4.918,4.918,0,0,1-2.438.722" transform="translate(-17.082 -75.223)" fill="#a6632b"/>
        <path id="Trazado_823709" data-name="Trazado 823709" d="M114.921,218.52a4.414,4.414,0,0,1-2.476-.735c-.8-.55-.8-1.078-.012-1.632a4.637,4.637,0,0,1,4.967.02c.733.526.727,1.117-.025,1.625a4.887,4.887,0,0,1-2.454.722" transform="translate(-67.995 -130.977)" fill="#a6632b"/>
        <path id="Trazado_823710" data-name="Trazado 823710" d="M190.711,122.82a4.365,4.365,0,0,1-2.561-.785c-.711-.519-.7-1.035.006-1.548a4.64,4.64,0,0,1,4.969-.05c.809.56.788,1.175-.047,1.707a5.085,5.085,0,0,1-2.366.676" transform="translate(-114.063 -72.796)" fill="#a6632b"/>
      </g>
    </g>
  </g>
</svg>
