<svg xmlns="http://www.w3.org/2000/svg" xmlns:xlink="http://www.w3.org/1999/xlink" width="179" height="190.514" viewBox="0 0 179 190.514">
  <defs>
    <clipPath id="clip-path">
      <rect id="Rectángulo_378653" data-name="Rectángulo 378653" width="170.357" height="190.514" fill="none"/>
    </clipPath>
    <clipPath id="clip-path-2">
      <rect id="Rectángulo_378564" data-name="Rectángulo 378564" width="192.969" height="190.514" fill="none"/>
    </clipPath>
    <clipPath id="clip-path-3">
      <path id="Trazado_825108" data-name="Trazado 825108" d="M2.749,118.818A81.962,81.962,0,1,0,84.711,36.856,81.963,81.963,0,0,0,2.749,118.818" transform="translate(-2.749 -36.856)" fill="none"/>
    </clipPath>
    <clipPath id="clip-path-4">
      <rect id="Rectángulo_378565" data-name="Rectángulo 378565" width="9.09" height="0.212" fill="none"/>
    </clipPath>
    <clipPath id="clip-path-5">
      <rect id="Rectángulo_378566" data-name="Rectángulo 378566" width="8.084" height="0.187" fill="none"/>
    </clipPath>
    <clipPath id="clip-path-6">
      <rect id="Rectángulo_378567" data-name="Rectángulo 378567" width="0.207" height="0.45" fill="none"/>
    </clipPath>
    <clipPath id="clip-path-7">
      <rect id="Rectángulo_378574" data-name="Rectángulo 378574" width="0.689" height="5.373" fill="none"/>
    </clipPath>
    <clipPath id="clip-path-8">
      <rect id="Rectángulo_378575" data-name="Rectángulo 378575" width="0.607" height="3.359" fill="none"/>
    </clipPath>
    <clipPath id="clip-path-9">
      <rect id="Rectángulo_378576" data-name="Rectángulo 378576" width="0.6" height="4.84" fill="none"/>
    </clipPath>
    <clipPath id="clip-path-10">
      <rect id="Rectángulo_378577" data-name="Rectángulo 378577" width="0.462" height="6.72" fill="none"/>
    </clipPath>
    <clipPath id="clip-path-11">
      <rect id="Rectángulo_378578" data-name="Rectángulo 378578" width="0.5" height="2.806" fill="none"/>
    </clipPath>
    <clipPath id="clip-path-12">
      <rect id="Rectángulo_378579" data-name="Rectángulo 378579" width="0.516" height="5.997" fill="none"/>
    </clipPath>
    <clipPath id="clip-path-13">
      <rect id="Rectángulo_378580" data-name="Rectángulo 378580" width="13.407" height="0.236" fill="none"/>
    </clipPath>
    <clipPath id="clip-path-14">
      <rect id="Rectángulo_378581" data-name="Rectángulo 378581" width="11.923" height="0.188" fill="none"/>
    </clipPath>
    <clipPath id="clip-path-15">
      <rect id="Rectángulo_378582" data-name="Rectángulo 378582" width="0.233" height="0.662" fill="none"/>
    </clipPath>
    <clipPath id="clip-path-17">
      <rect id="Rectángulo_378628" data-name="Rectángulo 378628" width="15.009" height="6.72" fill="none"/>
    </clipPath>
    <clipPath id="clip-path-19">
      <rect id="Rectángulo_378630" data-name="Rectángulo 378630" width="14.698" height="6.72" fill="none"/>
    </clipPath>
    <clipPath id="clip-path-21">
      <rect id="Rectángulo_378642" data-name="Rectángulo 378642" width="13.008" height="2.168" fill="none"/>
    </clipPath>
    <clipPath id="clip-path-23">
      <rect id="Rectángulo_378644" data-name="Rectángulo 378644" width="13.008" height="2.169" fill="none"/>
    </clipPath>
    <clipPath id="clip-path-25">
      <rect id="Rectángulo_378646" data-name="Rectángulo 378646" width="14.081" height="2.381" fill="none"/>
    </clipPath>
    <clipPath id="clip-path-26">
      <rect id="Rectángulo_378647" data-name="Rectángulo 378647" width="14.082" height="2.381" fill="none"/>
    </clipPath>
  </defs>
  <g id="Grupo_1074908" data-name="Grupo 1074908" transform="translate(-400 -2670.793)">
    <circle id="Elipse_5855" data-name="Elipse 5855" cx="89.5" cy="89.5" r="89.5" transform="translate(400 2679.793)" fill="#ffae7e"/>
    <g id="Grupo_1074907" data-name="Grupo 1074907" transform="translate(405.654 2670.793)">
      <g id="Grupo_1074906" data-name="Grupo 1074906" clip-path="url(#clip-path)">
        <g id="Grupo_1074823" data-name="Grupo 1074823">
          <g id="Grupo_1074822" data-name="Grupo 1074822" clip-path="url(#clip-path-2)">
            <path id="Trazado_825035" data-name="Trazado 825035" d="M135.488,38.547a2.507,2.507,0,0,0-1.867-3c-.634-.122-1.3.013-1.926-.152-1.8-.476-2.38-3.126-4.206-3.512s-3.572,1.838-5.356,1.246c-1.32-.438-1.712-2.115-2.733-3.061a3.073,3.073,0,0,0-4.322.34c-1.017,1.292-.916,3.354-2.251,4.313a4.516,4.516,0,0,1-2.668.556,4.311,4.311,0,0,0-2.656.594c-.735.561-.947,1.86-.168,2.358l28.227.664" transform="translate(-57.139 -15.692)" fill="#a6d5e3"/>
            <path id="Trazado_825036" data-name="Trazado 825036" d="M112.919,67.73q7.208-26.678,14.415-53.356c.849-3.142,1.725-6.346,3.525-9.057S135.577.422,138.832.362c5.676-.1,9.429,5.779,11.49,11.069a91.32,91.32,0,0,1,4.6,15.97,20.852,20.852,0,0,0,1.848,6.344c1.078,1.932,3.074,3.53,5.284,3.438,5.517-.232,6.636-9.442,12.063-10.462,3.834-.721,6.85,3.128,8.721,6.55a148.937,148.937,0,0,1,13.215,33.075" transform="translate(-60.39 -0.193)" fill="#b28879"/>
          </g>
        </g>
        <g id="Grupo_1074861" data-name="Grupo 1074861" transform="translate(1.279 17.145)">
          <g id="Grupo_1074860" data-name="Grupo 1074860" clip-path="url(#clip-path-3)">
            <path id="Trazado_825037" data-name="Trazado 825037" d="M305.124,78.688a22.479,22.479,0,0,0-17.411-9.416c-6.837-.217-12.607,1.691-16.88,7.033l7.358,18.225L301.974,90.1Z" transform="translate(-146.121 -54.183)" fill="#5b6312"/>
            <path id="Trazado_825038" data-name="Trazado 825038" d="M97.139,117.773a29.427,29.427,0,0,0-3.2-16.991c-2.344-4.419-6.247-8.275-11.132-9.35-3.242-.714-6.607-.165-9.921.029S66,91.41,63.356,89.4c-2.6-1.974-3.789-5.238-5.534-8-5.343-8.444-17.187-12.039-26.322-7.99,0,0-16.171,14.918-23.953,40.354l54.032,9.006Z" transform="translate(-5.314 -55.518)" fill="#879519"/>
            <path id="Trazado_825039" data-name="Trazado 825039" d="M132.19,154.18l3.328-8.172h17.805l4.708,10.084-7.968,6.038-15.281-4.355-2.592-3.049" transform="translate(-71.974 -95.231)" fill="#dfb993"/>
            <path id="Trazado_825040" data-name="Trazado 825040" d="M194.475,109.356c3.831,1.526,8.149-.328,11.611-2.57s6.866-4.994,10.965-5.448c5.716-.634,11.783,3.352,16.966.858,2.4-1.153,3.977-3.46,5.821-5.375a22.9,22.9,0,0,1,25.173-4.889l11.266,22.839-79.711,5.716-3.671-5.657Z" transform="translate(-104.439 -65.325)" fill="#6a7915"/>
            <path id="Trazado_825041" data-name="Trazado 825041" d="M266.5,130.13c-6.125-1.379-11.079,6.6-17.336,6.089-4.615-.379-7.845-5.271-12.444-5.811-5.66-.665-10.016,5.408-15.669,6.128-5.614.715-10.705-4-16.362-3.854a10,10,0,0,0-7.528,3.911,3.65,3.65,0,0,1-4.8,1c-1.626-1.013-2.823-3.067-1.062-7.232l-3.125-1.171s-8.588,21.181,11.93,20.409l1.451,3.9,75.273-6.768.053-12.234c-3.764.731-6.638-3.518-10.379-4.36" transform="translate(-100.958 -86.235)" fill="#60b3ba"/>
            <path id="Trazado_825042" data-name="Trazado 825042" d="M121.642,180.994l-5.178-15.815a10.417,10.417,0,0,1,9.328-5.789c5.915.084,11.035,5.224,16.928,4.713,5.935-.514,10.74-6.675,16.624-5.742,4.781.758,7.949,6,12.753,6.593,6.514.8,12.024-7.329,18.364-5.632,3.872,1.036,6.7,5.6,10.658,4.99,0,0,9.156-5.248,12.5-5.278,5.912-.052,5.108,1.277,11.3,2.872,4.935,1.272,6.137-4.263,13.727-5.806h6.783l1.453,17.918Z" transform="translate(-63.564 -100.629)" fill="#63c4c6"/>
            <path id="Trazado_825043" data-name="Trazado 825043" d="M302.026,166.986c-.005-.018.194,10.544.194,10.544l5.158-1.091s-4.753-7.392-5.352-9.453" transform="translate(-162.803 -106.45)" fill="#e5d5c6"/>
            <path id="Trazado_825044" data-name="Trazado 825044" d="M299.307,178.163v-9.525s-2.51,8.242-2.139,8.727Z" transform="translate(-160.185 -107.334)" fill="#e5d5c6"/>
            <path id="Trazado_825045" data-name="Trazado 825045" d="M291.884,190.586s1.69,1.373,2.148,1.373,6.447-.18,6.447-.18,1.229-.456,1.229-1.193Z" transform="translate(-157.38 -119.071)" fill="#b3775d"/>
            <path id="Trazado_825046" data-name="Trazado 825046" d="M301.826,165.155l.317,12.162h-.418l-.073-12.162Z" transform="translate(-162.604 -105.471)" fill="#b3775d"/>
            <path id="Trazado_825047" data-name="Trazado 825047" d="M307.485,190.586a33.035,33.035,0,0,1-4.8,0Z" transform="translate(-163.158 -119.071)" fill="#89557d"/>
            <path id="Trazado_825048" data-name="Trazado 825048" d="M296.5,190.586a40.5,40.5,0,0,1-4.617,0Z" transform="translate(-157.38 -119.071)" fill="#89557d"/>
            <g id="Grupo_1074826" data-name="Grupo 1074826" transform="translate(135.138 71.823)" opacity="0.32">
              <g id="Grupo_1074825" data-name="Grupo 1074825">
                <g id="Grupo_1074824" data-name="Grupo 1074824" clip-path="url(#clip-path-4)">
                  <path id="Trazado_825049" data-name="Trazado 825049" d="M293.246,191.4c0-.052,2.034-.115,4.544-.142s4.545-.007,4.546.045-2.034.115-4.544.142-4.545.007-4.546-.045" transform="translate(-293.246 -191.25)" fill="#3a2335"/>
                </g>
              </g>
            </g>
            <g id="Grupo_1074829" data-name="Grupo 1074829" transform="translate(135.627 72.28)" opacity="0.32">
              <g id="Grupo_1074828" data-name="Grupo 1074828">
                <g id="Grupo_1074827" data-name="Grupo 1074827" clip-path="url(#clip-path-5)">
                  <path id="Trazado_825050" data-name="Trazado 825050" d="M294.3,192.326c0-.052,1.81-.094,4.042-.094s4.042.042,4.042.094-1.809.094-4.042.094-4.042-.042-4.042-.094" transform="translate(-294.297 -192.232)" fill="#3a2335"/>
                </g>
              </g>
            </g>
            <g id="Grupo_1074832" data-name="Grupo 1074832" transform="translate(141.166 71.939)" opacity="0.32">
              <g id="Grupo_1074831" data-name="Grupo 1074831">
                <g id="Grupo_1074830" data-name="Grupo 1074830" clip-path="url(#clip-path-6)">
                  <path id="Trazado_825051" data-name="Trazado 825051" d="M306.259,191.948c-.051-.011-.07-.12-.044-.244s.09-.215.14-.2.07.12.043.244-.09.215-.14.2" transform="translate(-306.204 -191.5)" fill="#3a2335"/>
                </g>
              </g>
            </g>
            <path id="Trazado_825052" data-name="Trazado 825052" d="M302.23,177.652c-.032-.009.148-.561.272-1.483a16.808,16.808,0,0,0,.037-3.624c-.122-1.417-.307-2.7-.392-3.628-.045-.466-.071-.844-.081-1.105a1.631,1.631,0,0,1,.006-.408,1.814,1.814,0,0,1,.067.4q.057.448.141,1.1c.117.926.323,2.2.447,3.628a14.661,14.661,0,0,1-.093,3.66,8.189,8.189,0,0,1-.255,1.082,1.52,1.52,0,0,1-.148.381" transform="translate(-162.822 -106.673)" fill="#ebc698"/>
            <path id="Trazado_825053" data-name="Trazado 825053" d="M301.155,177.157a1.1,1.1,0,0,1-.292-.284,3.038,3.038,0,0,1-.516-.987,3.954,3.954,0,0,1-.133-1.647,6.836,6.836,0,0,1,.57-1.934,6.889,6.889,0,0,0,.6-1.872,5.529,5.529,0,0,0-.076-1.6c-.174-.907-.345-1.46-.312-1.469a1.635,1.635,0,0,1,.147.378,10.72,10.72,0,0,1,.294,1.065,5.307,5.307,0,0,1,.118,1.646,6.694,6.694,0,0,1-.6,1.926,7.017,7.017,0,0,0-.572,1.883,4,4,0,0,0,.089,1.588,3.851,3.851,0,0,0,.681,1.309" transform="translate(-161.818 -106.651)" fill="#ebc698"/>
            <path id="Trazado_825054" data-name="Trazado 825054" d="M140.355,202.861,135.4,187.732a9.966,9.966,0,0,1,8.923-5.538c5.658.08,10.556,5,16.193,4.509,5.677-.493,10.275-6.385,15.9-5.493,4.574.724,7.6,5.742,12.2,6.307,6.231.765,11.5-7.011,17.567-5.387,3.7.992,7.021,5.529,10.192,5.156s4.905-5.807,11.225-6.011c4.23-.136,5.4,4.124,11.517,3.669,6.166-.459,5.9-4.419,13.159-5.895h6.489l1.39,17.14Z" transform="translate(-73.692 -112.901)" fill="#60b3ba"/>
            <path id="Trazado_825055" data-name="Trazado 825055" d="M105.243,102.815V86.043l6.191-3.827,6.079,3.94v16.639Z" transform="translate(-57.563 -61.115)" fill="#e5e2ca"/>
            <rect id="Rectángulo_378568" data-name="Rectángulo 378568" width="3.352" height="16.427" transform="translate(59.949 25.274)" fill="#d1c9b4"/>
            <path id="Trazado_825056" data-name="Trazado 825056" d="M124.242,86.508,129,86.391l-6.544-4.511h-4.291Z" transform="translate(-64.473 -60.935)" fill="#755c55"/>
            <rect id="Rectángulo_378569" data-name="Rectángulo 378569" width="1.116" height="3.77" transform="translate(53.14 37.921)" fill="#6d5f56"/>
            <rect id="Rectángulo_378570" data-name="Rectángulo 378570" width="0.764" height="2.34" transform="translate(53.254 27.444)" fill="#6d5f56"/>
            <path id="Trazado_825057" data-name="Trazado 825057" d="M131.646,118.481c-.061-.458,0-6.973,0-6.973h9.507v6.973Z" transform="translate(-71.669 -76.78)" fill="#e5e2ca"/>
            <path id="Trazado_825058" data-name="Trazado 825058" d="M135,101.285l-3.325,4.756h9.507l1.924-4.756Z" transform="translate(-71.7 -71.313)" fill="#755c55"/>
            <path id="Trazado_825059" data-name="Trazado 825059" d="M152.113,113.013l3.731.024v-7.365l-1.807-4.387-1.924,4.756Z" transform="translate(-82.629 -71.313)" fill="#d1c9b4"/>
            <rect id="Rectángulo_378571" data-name="Rectángulo 378571" width="0.764" height="2.34" transform="translate(53.254 32.867)" fill="#6d5f56"/>
            <rect id="Rectángulo_378572" data-name="Rectángulo 378572" width="0.764" height="2.34" transform="translate(62.168 36.751)" fill="#6d5f56"/>
            <rect id="Rectángulo_378573" data-name="Rectángulo 378573" width="0.764" height="2.34" transform="translate(65.815 36.66)" fill="#6d5f56"/>
            <path id="Trazado_825060" data-name="Trazado 825060" d="M110.721,81.88l-6.474,4.011.448.032,6.269-3.946Z" transform="translate(-57.03 -60.935)" fill="#755c55"/>
            <path id="Trazado_825061" data-name="Trazado 825061" d="M141.395,227l-4.953-15.129a9.966,9.966,0,0,1,8.923-5.538c5.658.08,10.556,5,16.193,4.509,5.677-.493,10.275-6.385,15.9-5.493,4.574.724,7.6,5.742,12.2,6.307,6.231.765,11.5-7.011,17.567-5.387,3.7.992,7.021,5.529,10.192,5.156s4.905-5.807,11.224-6.011c4.23-.136,5.4,4.124,11.517,3.669,6.166-.459,5.9-4.419,13.159-5.895h6.489l1.39,17.14Z" transform="translate(-74.249 -125.81)" fill="#63c4c6"/>
            <path id="Trazado_825062" data-name="Trazado 825062" d="M143.63,157.182c-.064-.019,0-6.2,0-6.2H146.4v7.289Z" transform="translate(-78.078 -97.891)" fill="#63c4c6"/>
            <path id="Trazado_825063" data-name="Trazado 825063" d="M155.048,159.3c-.064-.019,0-8.324,0-8.324h2.766l.164,9.529Z" transform="translate(-84.184 -97.891)" fill="#63c4c6"/>
            <path id="Trazado_825064" data-name="Trazado 825064" d="M167.351,161.226c-.064-.019,0-10.245,0-10.245h2.766l.164,11.41Z" transform="translate(-90.764 -97.891)" fill="#63c4c6"/>
            <g id="Grupo_1074835" data-name="Grupo 1074835" transform="translate(71.506 57.153)" opacity="0.2">
              <g id="Grupo_1074834" data-name="Grupo 1074834">
                <g id="Grupo_1074833" data-name="Grupo 1074833" clip-path="url(#clip-path-7)">
                  <path id="Trazado_825065" data-name="Trazado 825065" d="M156.461,159.93q.119,2.47.238,4.94c.014.288.464.29.45,0q-.119-2.47-.238-4.94c-.014-.288-.464-.29-.45,0" transform="translate(-156.46 -159.713)" fill="#fcfbf9"/>
                </g>
              </g>
            </g>
            <g id="Grupo_1074838" data-name="Grupo 1074838" transform="translate(72.426 56.055)" opacity="0.2">
              <g id="Grupo_1074837" data-name="Grupo 1074837">
                <g id="Grupo_1074836" data-name="Grupo 1074836" clip-path="url(#clip-path-8)">
                  <path id="Trazado_825066" data-name="Trazado 825066" d="M158.44,157.569a25.107,25.107,0,0,1,.154,2.927.225.225,0,0,0,.45,0,25.117,25.117,0,0,0-.154-2.927c-.032-.285-.482-.288-.45,0" transform="translate(-158.438 -157.354)" fill="#fcfbf9"/>
                </g>
              </g>
            </g>
            <g id="Grupo_1074841" data-name="Grupo 1074841" transform="translate(77.071 56.223)" opacity="0.2">
              <g id="Grupo_1074840" data-name="Grupo 1074840">
                <g id="Grupo_1074839" data-name="Grupo 1074839" clip-path="url(#clip-path-9)">
                  <path id="Trazado_825067" data-name="Trazado 825067" d="M168.423,157.931l.149,4.406c.01.289.46.29.45,0l-.149-4.406c-.01-.289-.46-.29-.45,0" transform="translate(-168.423 -157.714)" fill="#fcfbf9"/>
                </g>
              </g>
            </g>
            <g id="Grupo_1074844" data-name="Grupo 1074844" transform="translate(77.981 57.486)" opacity="0.2">
              <g id="Grupo_1074843" data-name="Grupo 1074843">
                <g id="Grupo_1074842" data-name="Grupo 1074842" clip-path="url(#clip-path-10)">
                  <path id="Trazado_825068" data-name="Trazado 825068" d="M170.392,160.646q-.006,3.144-.012,6.286a.225.225,0,0,0,.45,0q.006-3.143.012-6.286a.225.225,0,0,0-.45,0" transform="translate(-170.38 -160.429)" fill="#fcfbf9"/>
                </g>
              </g>
            </g>
            <g id="Grupo_1074847" data-name="Grupo 1074847" transform="translate(66.104 55.7)" opacity="0.2">
              <g id="Grupo_1074846" data-name="Grupo 1074846">
                <g id="Grupo_1074845" data-name="Grupo 1074845" clip-path="url(#clip-path-11)">
                  <path id="Trazado_825069" data-name="Trazado 825069" d="M144.874,156.807a19.5,19.5,0,0,0,.023,2.372c.02.288.471.289.45,0a19.5,19.5,0,0,1-.023-2.372c.014-.289-.435-.289-.45,0" transform="translate(-144.848 -156.59)" fill="#fcfbf9"/>
                </g>
              </g>
            </g>
            <g id="Grupo_1074850" data-name="Grupo 1074850" transform="translate(67.321 56.557)" opacity="0.2">
              <g id="Grupo_1074849" data-name="Grupo 1074849">
                <g id="Grupo_1074848" data-name="Grupo 1074848" clip-path="url(#clip-path-12)">
                  <path id="Trazado_825070" data-name="Trazado 825070" d="M147.465,158.649q.033,2.781.066,5.563a.225.225,0,0,0,.45,0q-.034-2.781-.066-5.563a.225.225,0,0,0-.45,0" transform="translate(-147.465 -158.432)" fill="#fcfbf9"/>
                </g>
              </g>
            </g>
            <path id="Trazado_825071" data-name="Trazado 825071" d="M196.663,198.711c.007-.026-.286,15.551-.286,15.551l-7.607-1.61s7.01-10.9,7.893-13.942" transform="translate(-102.234 -123.417)" fill="#fcedde"/>
            <path id="Trazado_825072" data-name="Trazado 825072" d="M206.057,215.2V201.148s3.7,12.156,3.155,12.871Z" transform="translate(-111.479 -124.72)" fill="#fcedde"/>
            <path id="Trazado_825073" data-name="Trazado 825073" d="M204.04,233.519s-2.493,2.025-3.168,2.025-9.509-.266-9.509-.266-1.812-.674-1.812-1.759Z" transform="translate(-102.652 -142.032)" fill="#b3775d"/>
            <path id="Trazado_825074" data-name="Trazado 825074" d="M205.2,196.01l-.467,17.938h.616l.107-17.938Z" transform="translate(-110.771 -121.972)" fill="#b3775d"/>
            <path id="Trazado_825075" data-name="Trazado 825075" d="M189.552,233.519s6.15.34,7.075,0Z" transform="translate(-102.652 -142.032)" fill="#89557d"/>
            <path id="Trazado_825076" data-name="Trazado 825076" d="M206.057,233.519a59.831,59.831,0,0,0,6.81,0Z" transform="translate(-111.479 -142.032)" fill="#89557d"/>
            <g id="Grupo_1074853" data-name="Grupo 1074853" transform="translate(87.047 91.98)" opacity="0.32">
              <g id="Grupo_1074852" data-name="Grupo 1074852">
                <g id="Grupo_1074851" data-name="Grupo 1074851" clip-path="url(#clip-path-13)">
                  <path id="Trazado_825077" data-name="Trazado 825077" d="M203.274,234.77c0,.052-3,.062-6.7.022s-6.7-.113-6.7-.166,3-.061,6.7-.022,6.7.114,6.7.166" transform="translate(-189.867 -234.58)" fill="#3a2335"/>
                </g>
              </g>
            </g>
            <g id="Grupo_1074856" data-name="Grupo 1074856" transform="translate(87.809 92.661)" opacity="0.32">
              <g id="Grupo_1074855" data-name="Grupo 1074855">
                <g id="Grupo_1074854" data-name="Grupo 1074854" clip-path="url(#clip-path-14)">
                  <path id="Trazado_825078" data-name="Trazado 825078" d="M203.43,236.137c0,.052-2.669.094-5.961.094s-5.962-.042-5.962-.094,2.669-.094,5.962-.094,5.961.042,5.961.094" transform="translate(-191.507 -236.043)" fill="#3a2335"/>
                </g>
              </g>
            </g>
            <g id="Grupo_1074859" data-name="Grupo 1074859" transform="translate(91.294 92.114)" opacity="0.32">
              <g id="Grupo_1074858" data-name="Grupo 1074858">
                <g id="Grupo_1074857" data-name="Grupo 1074857" clip-path="url(#clip-path-15)">
                  <path id="Trazado_825079" data-name="Trazado 825079" d="M199.185,235.528c-.051.011-.124-.128-.163-.31s-.031-.339.02-.35.124.128.163.31.031.339-.02.35" transform="translate(-198.997 -234.867)" fill="#3a2335"/>
                </g>
              </g>
            </g>
            <path id="Trazado_825080" data-name="Trazado 825080" d="M204.239,214.442a.5.5,0,0,1-.062-.143c-.033-.1-.087-.237-.139-.423a12.672,12.672,0,0,1-.362-1.6,22.035,22.035,0,0,1-.124-5.39c.181-2.1.481-3.983.646-5.35l.193-1.619a3.892,3.892,0,0,1,.082-.594,3.51,3.51,0,0,1-.01.6c-.02.386-.064.942-.134,1.629-.132,1.373-.41,3.259-.59,5.351a24.169,24.169,0,0,0,.068,5.354c.1.68.21,1.224.3,1.6a4.329,4.329,0,0,1,.131.584" transform="translate(-110.084 -123.746)" fill="#ebc698"/>
            <path id="Trazado_825081" data-name="Trazado 825081" d="M204.7,213.714a5.165,5.165,0,0,0,1.035-1.921,5.9,5.9,0,0,0,.142-2.356,10.316,10.316,0,0,0-.843-2.79,9.931,9.931,0,0,1-.887-2.828,7.875,7.875,0,0,1,.164-2.417c.144-.674.305-1.207.42-1.573a3.576,3.576,0,0,1,.2-.562,3.751,3.751,0,0,1-.13.582c-.093.372-.234.908-.36,1.578a8.1,8.1,0,0,0-.122,2.372,10.141,10.141,0,0,0,.888,2.774,10.136,10.136,0,0,1,.842,2.84,5.851,5.851,0,0,1-.187,2.415,4.548,4.548,0,0,1-.745,1.454,3.492,3.492,0,0,1-.3.331c-.074.069-.115.1-.12.1" transform="translate(-110.438 -123.714)" fill="#ebc698"/>
            <path id="Trazado_825082" data-name="Trazado 825082" d="M147.527,248.25l-4.953-15.129a9.965,9.965,0,0,1,8.923-5.538c5.658.08,10.555,5,16.193,4.509,5.677-.493,10.275-6.385,15.9-5.493,4.574.724,7.6,5.742,12.2,6.307,6.231.765,11.5-7.011,17.567-5.387,3.7.992,7.021,5.529,10.192,5.156s4.9-5.807,11.224-6.011c4.23-.136,5.4,4.124,11.518,3.669,6.166-.459,5.9-4.419,13.159-5.895h6.489l1.39,17.14Z" transform="translate(-77.528 -137.176)" fill="#60b3ba"/>
            <path id="Trazado_825083" data-name="Trazado 825083" d="M151.583,270.569,146.63,255.44a9.966,9.966,0,0,1,8.923-5.538c5.658.08,10.556,5,16.193,4.509,5.677-.493,10.275-6.385,15.9-5.493,4.574.724,7.6,5.742,12.2,6.307,6.231.765,11.5-7.011,17.567-5.387,3.7.992,7.021,5.529,10.192,5.156s4.905-5.807,11.225-6.011c4.23-.136,5.4,4.124,11.517,3.669,6.166-.459,5.9-4.419,13.159-5.895H270l1.39,17.14Z" transform="translate(-79.697 -149.112)" fill="#63c4c6"/>
            <path id="Trazado_825084" data-name="Trazado 825084" d="M188.787,255.16c-1.1-3.73,5.117-.492,8.9-1.376s7.093-3.121,10.326-5.282,6.6-4.335,10.417-5.067c8.294-1.59,16.732,3.924,25.025,2.329,4.92-.947,9.032-4.27,13.743-5.977a22.164,22.164,0,0,1,20.138,2.8l-7.363,20.109-65.825-.619s-12.021,4.45-15.364-6.916" transform="translate(-102.174 -144.71)" fill="#879519"/>
            <path id="Trazado_825085" data-name="Trazado 825085" d="M174.667,227.509a48.832,48.832,0,0,0-53.014-33.447c-8.2,1.106-16.177,4.3-24.445,3.947A29.326,29.326,0,0,1,74.27,184.941c-3.962-6.082-5.478-13.386-8.195-20.116-4.785-11.853-13.97-22.368-26.059-26.52s-26.991-.789-34.506,9.55c0,0-27.315,104.223,57.2,112.158s111.96-32.5,111.96-32.5" transform="translate(-1.973 -90.184)" fill="#b0b71c"/>
            <path id="Trazado_825086" data-name="Trazado 825086" d="M0,218.821l18.176,69.2c11.916,5.786,27.5,2.7,36.318-7.18s10.106-25.719,3-36.9c-2.526-3.976-6.147-7.457-10.653-8.831-5.337-1.627-11.6-.265-16.239-3.363-3.561-2.378-5.143-6.742-7.85-10.059A18.337,18.337,0,0,0,0,217.629" transform="translate(-1.279 -132.302)" fill="#d8c13a"/>
            <path id="Trazado_825087" data-name="Trazado 825087" d="M163.235,294.671h6.91v53.434h-11.95V294.671Z" transform="translate(-85.882 -174.736)" fill="#66524d"/>
            <path id="Trazado_825088" data-name="Trazado 825088" d="M114.406,327.328V292.995h8.221v-13.42h17.189v54.334Z" transform="translate(-62.463 -166.663)" fill="#755c55"/>
            <path id="Trazado_825089" data-name="Trazado 825089" d="M137.138,361.162V330.017H154.45v33.464" transform="translate(-74.621 -193.64)" fill="#b3775d"/>
            <path id="Trazado_825090" data-name="Trazado 825090" d="M94.219,334.732V303.587h11.547v37.366" transform="translate(-51.667 -179.505)" fill="#b3775d"/>
            <rect id="Rectángulo_378583" data-name="Rectángulo 378583" width="1.002" height="2.522" transform="translate(62.408 115.793)" fill="#ffeea4"/>
            <rect id="Rectángulo_378584" data-name="Rectángulo 378584" width="1.002" height="2.522" transform="translate(65.103 115.793)" fill="#ffeea4"/>
            <rect id="Rectángulo_378585" data-name="Rectángulo 378585" width="1.002" height="2.522" transform="translate(65.103 119.801)" fill="#ffeea4"/>
            <rect id="Rectángulo_378586" data-name="Rectángulo 378586" width="1.002" height="2.522" transform="translate(65.103 123.878)" fill="#ffeea4"/>
            <rect id="Rectángulo_378587" data-name="Rectángulo 378587" width="1.002" height="2.522" transform="translate(62.477 119.801)" fill="#ffeea4"/>
            <rect id="Rectángulo_378588" data-name="Rectángulo 378588" width="1.002" height="2.522" transform="translate(55.537 129.349)" fill="#ffeea4"/>
            <rect id="Rectángulo_378589" data-name="Rectángulo 378589" width="1.002" height="2.522" transform="translate(58.232 129.349)" fill="#ffeea4"/>
            <rect id="Rectángulo_378590" data-name="Rectángulo 378590" width="1.002" height="2.522" transform="translate(58.232 133.357)" fill="#ffeea4"/>
            <rect id="Rectángulo_378591" data-name="Rectángulo 378591" width="1.002" height="2.522" transform="translate(58.232 137.433)" fill="#ffeea4"/>
            <rect id="Rectángulo_378592" data-name="Rectángulo 378592" width="1.002" height="2.522" transform="translate(55.606 133.357)" fill="#ffeea4"/>
            <rect id="Rectángulo_378593" data-name="Rectángulo 378593" width="1.002" height="2.522" transform="translate(70.173 140.135)" fill="#ffeea4"/>
            <rect id="Rectángulo_378594" data-name="Rectángulo 378594" width="1.002" height="2.522" transform="translate(72.833 140.135)" fill="#ffeea4"/>
            <rect id="Rectángulo_378595" data-name="Rectángulo 378595" width="1.002" height="2.522" transform="translate(75.597 140.135)" fill="#ffeea4"/>
            <rect id="Rectángulo_378596" data-name="Rectángulo 378596" width="1.002" height="2.522" transform="translate(75.597 144.384)" fill="#ffeea4"/>
            <rect id="Rectángulo_378597" data-name="Rectángulo 378597" width="1.002" height="2.522" transform="translate(75.597 148.547)" fill="#ffeea4"/>
            <rect id="Rectángulo_378598" data-name="Rectángulo 378598" width="1.002" height="2.522" transform="translate(75.597 153.004)" fill="#ffeea4"/>
            <rect id="Rectángulo_378599" data-name="Rectángulo 378599" width="1.002" height="2.522" transform="translate(72.746 148.547)" fill="#ffeea4"/>
            <rect id="Rectángulo_378600" data-name="Rectángulo 378600" width="1.002" height="2.522" transform="translate(70.173 144.384)" fill="#ffeea4"/>
            <rect id="Rectángulo_378601" data-name="Rectángulo 378601" width="1.002" height="2.522" transform="translate(72.833 144.384)" fill="#ffeea4"/>
            <rect id="Rectángulo_378602" data-name="Rectángulo 378602" width="1.002" height="2.522" transform="translate(45.547 127.456)" fill="#ffeea4"/>
            <rect id="Rectángulo_378603" data-name="Rectángulo 378603" width="1.002" height="2.522" transform="translate(48.207 127.456)" fill="#ffeea4"/>
            <rect id="Rectángulo_378604" data-name="Rectángulo 378604" width="1.002" height="2.522" transform="translate(50.971 127.456)" fill="#ffeea4"/>
            <rect id="Rectángulo_378605" data-name="Rectángulo 378605" width="1.002" height="2.522" transform="translate(50.971 131.705)" fill="#ffeea4"/>
            <rect id="Rectángulo_378606" data-name="Rectángulo 378606" width="1.002" height="2.522" transform="translate(50.971 135.868)" fill="#ffeea4"/>
            <rect id="Rectángulo_378607" data-name="Rectángulo 378607" width="1.002" height="2.522" transform="translate(50.971 140.325)" fill="#ffeea4"/>
            <rect id="Rectángulo_378608" data-name="Rectángulo 378608" width="1.002" height="2.522" transform="translate(48.121 135.868)" fill="#ffeea4"/>
            <rect id="Rectángulo_378609" data-name="Rectángulo 378609" width="1.002" height="2.522" transform="translate(45.547 131.705)" fill="#ffeea4"/>
            <rect id="Rectángulo_378610" data-name="Rectángulo 378610" width="1.002" height="2.522" transform="translate(48.207 131.705)" fill="#ffeea4"/>
            <path id="Trazado_825091" data-name="Trazado 825091" d="M130.081,366.086v-16.4h9.644V369.21Z" transform="translate(-70.846 -204.16)" fill="#e3bd99"/>
            <rect id="Rectángulo_378611" data-name="Rectángulo 378611" width="1.002" height="2.522" transform="translate(63.208 147.633)" fill="#ffeea4"/>
            <rect id="Rectángulo_378612" data-name="Rectángulo 378612" width="1.002" height="2.522" transform="translate(65.902 147.633)" fill="#ffeea4"/>
            <rect id="Rectángulo_378613" data-name="Rectángulo 378613" width="1.002" height="2.522" transform="translate(65.902 151.64)" fill="#ffeea4"/>
            <rect id="Rectángulo_378614" data-name="Rectángulo 378614" width="1.002" height="2.522" transform="translate(65.902 155.717)" fill="#ffeea4"/>
            <rect id="Rectángulo_378615" data-name="Rectángulo 378615" width="1.002" height="2.522" transform="translate(63.276 151.64)" fill="#ffeea4"/>
            <path id="Trazado_825092" data-name="Trazado 825092" d="M220.9,328.651c-2.2,0-3.625-.1-3.853-.114l.263-3.591c.227.017,22.76,1.528,34.1-8.705,2.3-2.078,2.41-3.144,2.349-3.507-.219-1.312-3.416-2.677-5.75-3.674-3.495-1.493-6.8-2.9-7.376-5.771-.329-1.626.352-3.329,2.024-5.06,8.644-8.954,33.07-6.51,34.106-6.4l-.375,3.581a91,91,0,0,0-13.018-.219c-8.855.517-15.122,2.433-18.122,5.54-.889.921-1.143,1.557-1.085,1.844.205,1.014,3.247,2.313,5.26,3.173,3.611,1.542,7.345,3.137,7.888,6.394.354,2.119-.788,4.335-3.489,6.772-9.6,8.664-25.593,9.737-32.923,9.737" transform="translate(-117.357 -173.01)" fill="#324044"/>
            <path id="Trazado_825093" data-name="Trazado 825093" d="M227.394,367.484a14.118,14.118,0,0,0,3.243.049c.067-.01.044-.106-.015-.111-1.067-.094-2.154-.013-3.228-.1-.1-.007-.1.149,0,.157" transform="translate(-122.85 -213.593)" fill="#e5c677"/>
            <path id="Trazado_825094" data-name="Trazado 825094" d="M245.389,365.652a13.573,13.573,0,0,0,3.728-.587.1.1,0,0,0-.055-.2c-1.23.242-2.457.435-3.692.65-.078.014-.058.136.019.136" transform="translate(-132.477 -212.276)" fill="#e5c677"/>
            <path id="Trazado_825095" data-name="Trazado 825095" d="M263.529,361.525a29.782,29.782,0,0,0,3.509-.986.128.128,0,0,0-.067-.246,29.979,29.979,0,0,0-3.481,1.091.073.073,0,0,0,.039.141" transform="translate(-142.167 -209.829)" fill="#e5c677"/>
            <path id="Trazado_825096" data-name="Trazado 825096" d="M278.712,355.991a8.441,8.441,0,0,0,2.318-.914c.087-.055.033-.209-.073-.173-.775.262-1.525.635-2.287.936a.078.078,0,0,0,.042.151" transform="translate(-150.284 -206.946)" fill="#e5c677"/>
            <path id="Trazado_825097" data-name="Trazado 825097" d="M297.759,342.042a2.939,2.939,0,0,0,.592-1.163.075.075,0,0,0-.136-.058c-.109.183-.178.391-.268.584s-.2.382-.3.572a.063.063,0,0,0,.109.064" transform="translate(-160.458 -199.399)" fill="#e5c677"/>
            <path id="Trazado_825098" data-name="Trazado 825098" d="M293.889,329.691c.28.23.609.4.9.614.348.259.634.576.965.852.09.075.253-.023.175-.135a3.935,3.935,0,0,0-.859-.826,3.325,3.325,0,0,0-1.107-.634c-.07-.019-.137.078-.074.128" transform="translate(-158.438 -193.395)" fill="#e5c677"/>
            <path id="Trazado_825099" data-name="Trazado 825099" d="M277.817,322.046a7,7,0,0,0,2.172,1.078.1.1,0,0,0,.073-.173c-.34-.2-.727-.34-1.085-.512s-.712-.374-1.082-.529a.078.078,0,0,0-.079.135" transform="translate(-149.837 -189.3)" fill="#e5c677"/>
            <path id="Trazado_825100" data-name="Trazado 825100" d="M271.955,314.445a3.428,3.428,0,0,1,.207-2.333c.043-.1-.113-.15-.17-.071a2.327,2.327,0,0,0-.093,2.427.03.03,0,0,0,.055-.023" transform="translate(-146.533 -184.005)" fill="#e5c677"/>
            <path id="Trazado_825101" data-name="Trazado 825101" d="M279.035,303.377c.785-.449,1.533-.923,2.344-1.33.094-.047.027-.212-.072-.171a8.324,8.324,0,0,0-2.358,1.39c-.061.054.017.151.086.111" transform="translate(-150.45 -178.586)" fill="#e5c677"/>
            <path id="Trazado_825102" data-name="Trazado 825102" d="M295.82,297.679c.851-.106,1.733-.363,2.573-.544.1-.022.083-.2-.026-.189a8.01,8.01,0,0,0-2.575.631c-.046.023-.026.109.028.1" transform="translate(-159.456 -175.953)" fill="#e5c677"/>
            <path id="Trazado_825103" data-name="Trazado 825103" d="M312.673,295.2c.5.016,1-.055,1.5-.077s1.007,0,1.506-.036a.108.108,0,0,0,0-.216,9.253,9.253,0,0,0-3.023.217.057.057,0,0,0,.015.111" transform="translate(-168.468 -174.823)" fill="#e5c677"/>
            <path id="Trazado_825104" data-name="Trazado 825104" d="M329.557,294.458c.468.068.944.081,1.415.132a15.064,15.064,0,0,0,1.614.192.084.084,0,0,0,.022-.164,6.883,6.883,0,0,0-3.032-.3c-.07.008-.1.123-.019.136" transform="translate(-177.501 -174.524)" fill="#e5c677"/>
            <path id="Trazado_825105" data-name="Trazado 825105" d="M177.591,328.578h10.136v26.937l-3.471,6.526-11.108-2.36Z" transform="translate(-93.879 -192.87)" fill="#66524d"/>
            <path id="Trazado_825106" data-name="Trazado 825106" d="M198.777,363.6v-24.8h10.238v23.058Z" transform="translate(-107.586 -198.34)" fill="#e3bd99"/>
            <rect id="Rectángulo_378616" data-name="Rectángulo 378616" width="1.002" height="2.522" transform="translate(95.63 142.864)" fill="#ffeea4"/>
            <rect id="Rectángulo_378617" data-name="Rectángulo 378617" width="1.002" height="2.522" transform="translate(98.325 142.864)" fill="#ffeea4"/>
            <rect id="Rectángulo_378618" data-name="Rectángulo 378618" width="1.002" height="2.522" transform="translate(98.325 146.872)" fill="#ffeea4"/>
            <rect id="Rectángulo_378619" data-name="Rectángulo 378619" width="1.002" height="2.522" transform="translate(98.325 150.949)" fill="#ffeea4"/>
            <rect id="Rectángulo_378620" data-name="Rectángulo 378620" width="1.002" height="2.522" transform="translate(95.7 146.872)" fill="#ffeea4"/>
            <path id="Trazado_825107" data-name="Trazado 825107" d="M171.931,349.689h8.334V369.21h-8.97Z" transform="translate(-92.888 -204.16)" fill="#b3775d"/>
            <rect id="Rectángulo_378621" data-name="Rectángulo 378621" width="1.002" height="2.522" transform="translate(81.545 148.547)" fill="#ffeea4"/>
            <rect id="Rectángulo_378622" data-name="Rectángulo 378622" width="1.002" height="2.522" transform="translate(84.239 148.547)" fill="#ffeea4"/>
            <rect id="Rectángulo_378623" data-name="Rectángulo 378623" width="1.002" height="2.522" transform="translate(84.239 152.555)" fill="#ffeea4"/>
            <rect id="Rectángulo_378624" data-name="Rectángulo 378624" width="1.002" height="2.522" transform="translate(84.239 156.632)" fill="#ffeea4"/>
            <rect id="Rectángulo_378625" data-name="Rectángulo 378625" width="1.002" height="2.522" transform="translate(81.614 152.555)" fill="#ffeea4"/>
          </g>
        </g>
        <g id="Grupo_1074905" data-name="Grupo 1074905">
          <g id="Grupo_1074904" data-name="Grupo 1074904" clip-path="url(#clip-path-2)">
            <path id="Trazado_825109" data-name="Trazado 825109" d="M189.769,102.909l11.917-23.744,1.378.162-10.395,25.319Z" transform="translate(-101.489 -42.338)" fill="#60b3ba"/>
            <path id="Trazado_825110" data-name="Trazado 825110" d="M171.216,15.576c-.652,2.291-3.563,3.329-5.846,2.65s-3.981-2.59-5.284-4.584c-.3-.453-.718-.979-1.248-.871s-.712.773-.932,1.279a3.594,3.594,0,0,1-4.347,1.7,5.871,5.871,0,0,1-3.426-3.578,17.4,17.4,0,0,1-.881-5.024S151-1.19,160.235.146s10.981,15.43,10.981,15.43" transform="translate(-79.821 0)" fill="#f4eae1"/>
            <path id="Trazado_825111" data-name="Trazado 825111" d="M249.43,65.633c.279,1.291-1.7,3.075-3.014,3.247a4.367,4.367,0,0,1-3.568-1.374,8.215,8.215,0,0,1-1.882-3.443,2.724,2.724,0,0,1-2.835,1.914,3.787,3.787,0,0,1-2.919-2.053,6.345,6.345,0,0,1-.59-3.621s2.24-3.914,6.221-3.582,8.259,7.392,8.587,8.912" transform="translate(-125.454 -30.324)" fill="#f4eae1"/>
            <path id="Trazado_825112" data-name="Trazado 825112" d="M88.581,61.078s2.822,6.831,8.042,9.049c0,0-1.053-4.41-8.042-9.049" transform="translate(-47.373 -32.665)" fill="#e5e2ca"/>
            <path id="Trazado_825113" data-name="Trazado 825113" d="M72.313,57.809S65.562,54.8,60.25,56.786c0,0,3.8,2.473,12.063,1.023" transform="translate(-32.222 -30.007)" fill="#e5e2ca"/>
            <path id="Trazado_825114" data-name="Trazado 825114" d="M87.894,47.6s5.463-4.979,5.772-10.642c0,0-3.789,2.492-5.772,10.642" transform="translate(-47.006 -19.767)" fill="#e5e2ca"/>
            <rect id="Rectángulo_378626" data-name="Rectángulo 378626" width="1.156" height="25.24" transform="translate(40.145 29.533)" fill="#e5e2ca"/>
            <rect id="Rectángulo_378627" data-name="Rectángulo 378627" width="2.419" height="2.505" transform="translate(39.461 27.029)" fill="#e5e2ca"/>
            <g id="Grupo_1074864" data-name="Grupo 1074864" transform="translate(36.573 118.859)" opacity="0.26">
              <g id="Grupo_1074863" data-name="Grupo 1074863">
                <g id="Grupo_1074862" data-name="Grupo 1074862" clip-path="url(#clip-path-17)">
                  <path id="Trazado_825115" data-name="Trazado 825115" d="M90.921,258.361h-10.4l-1.905,3.861h12.52l2.489-6.72H91.752Z" transform="translate(-78.619 -255.502)" fill="#1c1c3f"/>
                </g>
              </g>
            </g>
            <path id="Trazado_825116" data-name="Trazado 825116" d="M93.728,244.668c-.448,3.481-.351,7.142-.474,10.653-.008.23.339.226.354,0a67.5,67.5,0,0,0,.3-10.653.091.091,0,0,0-.182,0" transform="translate(-49.873 -130.803)" fill="#524d4d"/>
            <path id="Trazado_825117" data-name="Trazado 825117" d="M76.4,247.259l.161.3.313.581H89.737l3.113-10.354-.406-1.218" transform="translate(-40.861 -126.517)" fill="#35888a"/>
            <path id="Trazado_825118" data-name="Trazado 825118" d="M79.72,236.566,76.4,247.259H88.924l3.519-10.693Z" transform="translate(-40.861 -126.516)" fill="#249ea1"/>
            <path id="Trazado_825119" data-name="Trazado 825119" d="M85.1,247.183c1.511-3.342,2.329-7.181,3.395-10.691.033-.108-.135-.154-.169-.046-1.123,3.485-2.641,7.1-3.3,10.705-.008.043.056.079.077.033" transform="translate(-45.473 -126.42)" fill="#9bd7e6"/>
            <path id="Trazado_825120" data-name="Trazado 825120" d="M94.769,247.183c1.511-3.342,2.329-7.181,3.395-10.691.033-.108-.135-.154-.169-.046-1.123,3.485-2.641,7.1-3.3,10.705-.008.043.056.079.077.033" transform="translate(-50.641 -126.42)" fill="#9bd7e6"/>
            <path id="Trazado_825121" data-name="Trazado 825121" d="M81.3,244.25c4.178.006,8.368.156,12.532-.018.187-.008.187-.3,0-.291-4.172.232-8.347-.073-12.532.11a.1.1,0,0,0,0,.2" transform="translate(-43.43 -130.46)" fill="#9bd7e6"/>
            <path id="Trazado_825122" data-name="Trazado 825122" d="M78.509,251.661c4.18.016,8.354.038,12.532-.018a.145.145,0,0,0,0-.29c-4.175.113-8.36-.064-12.532.109a.1.1,0,0,0,0,.2" transform="translate(-41.935 -134.425)" fill="#9bd7e6"/>
            <path id="Trazado_825123" data-name="Trazado 825123" d="M79.491,236.413l-3.316,10.693a.109.109,0,0,0,.1.137H88.8a.112.112,0,0,0,.1-.079l3.519-10.693a.11.11,0,0,0-.1-.137H79.6a.108.108,0,0,0,0,.216H89.981a9.33,9.33,0,0,1,2.019,0c.356.089.268-.244.057.341-.639,1.773-1.181,3.589-1.771,5.38l-.932,2.834a6.359,6.359,0,0,1-.618,1.877c-.044.047-.112.054-.535.046-.813-.016-1.628,0-2.44,0h-6.6c-.73,0-1.473-.04-2.2,0-.111.006-.472.063-.568,0-.208-.139.1.315.042-.035a6.953,6.953,0,0,1,.654-2.109q.555-1.788,1.109-3.576l1.5-4.835c.041-.134-.167-.19-.208-.058" transform="translate(-40.736 -126.392)" fill="#eef2e8"/>
            <g id="Grupo_1074867" data-name="Grupo 1074867" transform="translate(25.7 138.985)" opacity="0.26">
              <g id="Grupo_1074866" data-name="Grupo 1074866">
                <g id="Grupo_1074865" data-name="Grupo 1074865" clip-path="url(#clip-path-17)">
                  <path id="Trazado_825124" data-name="Trazado 825124" d="M67.547,301.624H57.15l-1.905,3.861h12.52l2.489-6.72H68.378Z" transform="translate(-55.245 -298.766)" fill="#1c1c3f"/>
                </g>
              </g>
            </g>
            <path id="Trazado_825125" data-name="Trazado 825125" d="M70.354,287.931c-.448,3.481-.351,7.142-.474,10.653-.008.23.339.226.354,0a67.5,67.5,0,0,0,.3-10.653.091.091,0,0,0-.182,0" transform="translate(-37.372 -153.94)" fill="#524d4d"/>
            <path id="Trazado_825126" data-name="Trazado 825126" d="M53.03,290.523l.161.3.313.581H66.362l3.113-10.355-.406-1.218" transform="translate(-28.361 -149.654)" fill="#35888a"/>
            <path id="Trazado_825127" data-name="Trazado 825127" d="M56.346,279.829,53.03,290.522H65.55l3.519-10.693Z" transform="translate(-28.36 -149.654)" fill="#249ea1"/>
            <path id="Trazado_825128" data-name="Trazado 825128" d="M61.729,290.446c1.511-3.342,2.329-7.181,3.395-10.691.034-.108-.135-.154-.169-.047-1.123,3.485-2.641,7.1-3.3,10.705-.008.043.056.08.077.033" transform="translate(-32.971 -149.557)" fill="#9bd7e6"/>
            <path id="Trazado_825129" data-name="Trazado 825129" d="M71.4,290.446c1.511-3.342,2.329-7.181,3.395-10.691.033-.108-.135-.154-.169-.047-1.123,3.485-2.641,7.1-3.3,10.705-.008.043.056.08.077.033" transform="translate(-38.141 -149.557)" fill="#9bd7e6"/>
            <path id="Trazado_825130" data-name="Trazado 825130" d="M57.93,287.513c4.178.006,8.368.156,12.532-.018.187-.008.187-.3,0-.29-4.172.231-8.347-.074-12.532.109a.1.1,0,0,0,0,.2" transform="translate(-30.93 -153.598)" fill="#9bd7e6"/>
            <path id="Trazado_825131" data-name="Trazado 825131" d="M55.135,294.924c4.18.016,8.354.038,12.532-.018a.145.145,0,0,0,0-.29c-4.175.113-8.36-.064-12.532.109a.1.1,0,0,0,0,.2" transform="translate(-29.435 -157.562)" fill="#9bd7e6"/>
            <path id="Trazado_825132" data-name="Trazado 825132" d="M56.117,279.677,52.8,290.37a.109.109,0,0,0,.1.137H65.425a.112.112,0,0,0,.1-.079q1.759-5.346,3.519-10.693a.109.109,0,0,0-.1-.137H56.221a.108.108,0,0,0,0,.216H66.607a9.3,9.3,0,0,1,2.019,0c.356.089.268-.244.056.341-.639,1.773-1.181,3.589-1.771,5.379l-.932,2.834a6.358,6.358,0,0,1-.617,1.877c-.044.047-.113.054-.535.046-.813-.016-1.628,0-2.441,0h-6.6c-.73,0-1.474-.04-2.2,0-.111.006-.472.063-.568,0-.207-.139.1.315.042-.035a6.954,6.954,0,0,1,.655-2.109q.554-1.788,1.109-3.576l1.5-4.836c.042-.133-.167-.19-.208-.057" transform="translate(-28.236 -149.53)" fill="#eef2e8"/>
            <g id="Grupo_1074870" data-name="Grupo 1074870" transform="translate(9.581 124.831)" opacity="0.26">
              <g id="Grupo_1074869" data-name="Grupo 1074869">
                <g id="Grupo_1074868" data-name="Grupo 1074868" clip-path="url(#clip-path-19)">
                  <path id="Trazado_825133" data-name="Trazado 825133" d="M32.587,271.2H22.19L20.6,274.43l.335.63H32.805l2.489-6.72H33.418Z" transform="translate(-20.596 -268.341)" fill="#1c1c3f"/>
                </g>
              </g>
            </g>
            <path id="Trazado_825134" data-name="Trazado 825134" d="M35.036,257.506c-.448,3.481-.351,7.142-.474,10.653-.008.23.339.226.354,0a67.5,67.5,0,0,0,.3-10.653.091.091,0,0,0-.182,0" transform="translate(-18.484 -137.669)" fill="#524d4d"/>
            <path id="Trazado_825135" data-name="Trazado 825135" d="M17.712,260.1l.161.3.313.581H31.045l3.113-10.354-.406-1.218" transform="translate(-9.473 -133.383)" fill="#35888a"/>
            <path id="Trazado_825136" data-name="Trazado 825136" d="M21.028,249.4,17.712,260.1H30.232L33.752,249.4Z" transform="translate(-9.472 -133.383)" fill="#249ea1"/>
            <path id="Trazado_825137" data-name="Trazado 825137" d="M26.412,260.022c1.511-3.342,2.329-7.181,3.395-10.691.033-.108-.135-.154-.169-.047-1.123,3.485-2.641,7.1-3.3,10.705-.008.043.056.079.077.033" transform="translate(-14.084 -133.286)" fill="#9bd7e6"/>
            <path id="Trazado_825138" data-name="Trazado 825138" d="M36.077,260.022c1.511-3.342,2.329-7.181,3.395-10.691.033-.108-.135-.154-.169-.047-1.123,3.485-2.641,7.1-3.3,10.705-.008.043.056.079.077.033" transform="translate(-19.253 -133.286)" fill="#9bd7e6"/>
            <path id="Trazado_825139" data-name="Trazado 825139" d="M22.611,257.089c4.178.006,8.368.156,12.532-.018.187-.008.187-.3,0-.291-4.172.232-8.347-.074-12.532.11a.1.1,0,0,0,0,.2" transform="translate(-12.041 -137.327)" fill="#9bd7e6"/>
            <path id="Trazado_825140" data-name="Trazado 825140" d="M19.816,264.5c4.18.016,8.354.038,12.532-.018a.145.145,0,0,0,0-.29c-4.175.113-8.36-.064-12.532.109a.1.1,0,0,0,0,.2" transform="translate(-10.547 -141.29)" fill="#9bd7e6"/>
            <path id="Trazado_825141" data-name="Trazado 825141" d="M20.8,249.252q-1.658,5.346-3.316,10.693a.109.109,0,0,0,.1.137H30.108a.111.111,0,0,0,.1-.079l3.52-10.693a.11.11,0,0,0-.1-.137H20.9a.108.108,0,0,0,0,.216H31.289a9.33,9.33,0,0,1,2.019,0c.356.089.268-.244.057.341-.639,1.773-1.181,3.589-1.771,5.38l-.932,2.833a6.359,6.359,0,0,1-.618,1.877c-.044.047-.112.054-.535.046-.813-.016-1.628,0-2.44,0h-6.6c-.73,0-1.473-.04-2.2,0-.111.006-.473.063-.568,0-.208-.139.1.315.042-.035a6.953,6.953,0,0,1,.654-2.109q.555-1.788,1.109-3.576l1.5-4.835c.041-.134-.167-.19-.208-.058" transform="translate(-9.348 -133.258)" fill="#eef2e8"/>
            <g id="Grupo_1074873" data-name="Grupo 1074873" transform="translate(21.049 106.947)" opacity="0.26">
              <g id="Grupo_1074872" data-name="Grupo 1074872">
                <g id="Grupo_1074871" data-name="Grupo 1074871" clip-path="url(#clip-path-17)">
                  <path id="Trazado_825142" data-name="Trazado 825142" d="M57.549,232.756h-10.4l-1.905,3.861h12.52l2.489-6.72H58.38Z" transform="translate(-45.247 -229.897)" fill="#1c1c3f"/>
                </g>
              </g>
            </g>
            <path id="Trazado_825143" data-name="Trazado 825143" d="M60.357,219.062c-.448,3.481-.352,7.142-.474,10.653-.008.23.339.226.355,0a67.554,67.554,0,0,0,.3-10.653.091.091,0,0,0-.181,0" transform="translate(-32.026 -117.109)" fill="#524d4d"/>
            <path id="Trazado_825144" data-name="Trazado 825144" d="M43.032,221.654l.161.3.313.581H56.365l3.113-10.354-.406-1.218" transform="translate(-23.014 -112.823)" fill="#35888a"/>
            <path id="Trazado_825145" data-name="Trazado 825145" d="M46.348,210.961l-3.316,10.693H55.553l3.519-10.693Z" transform="translate(-23.014 -112.823)" fill="#249ea1"/>
            <path id="Trazado_825146" data-name="Trazado 825146" d="M51.732,221.578c1.511-3.342,2.329-7.181,3.395-10.691.033-.108-.135-.154-.169-.047-1.124,3.485-2.641,7.1-3.3,10.705-.008.043.056.079.077.033" transform="translate(-27.625 -112.726)" fill="#9bd7e6"/>
            <path id="Trazado_825147" data-name="Trazado 825147" d="M61.4,221.578c1.511-3.342,2.329-7.181,3.395-10.691.033-.108-.135-.154-.169-.047-1.123,3.485-2.641,7.1-3.3,10.705-.008.043.056.079.077.033" transform="translate(-32.794 -112.726)" fill="#9bd7e6"/>
            <path id="Trazado_825148" data-name="Trazado 825148" d="M47.931,218.645c4.178.006,8.368.156,12.532-.018.187-.008.187-.3,0-.291-4.172.232-8.347-.074-12.532.11a.1.1,0,0,0,0,.2" transform="translate(-25.583 -116.767)" fill="#9bd7e6"/>
            <path id="Trazado_825149" data-name="Trazado 825149" d="M45.137,226.055c4.179.016,8.354.038,12.532-.018a.145.145,0,0,0,0-.29c-4.175.113-8.361-.064-12.532.109a.1.1,0,0,0,0,.2" transform="translate(-24.088 -120.73)" fill="#9bd7e6"/>
            <path id="Trazado_825150" data-name="Trazado 825150" d="M46.119,210.808Q44.461,216.154,42.8,221.5a.109.109,0,0,0,.1.137H55.428a.112.112,0,0,0,.1-.079l3.519-10.693a.11.11,0,0,0-.1-.137H46.224a.108.108,0,0,0,0,.216H56.609a9.33,9.33,0,0,1,2.019,0c.356.089.268-.244.057.341-.639,1.773-1.181,3.589-1.771,5.38l-.932,2.833a6.359,6.359,0,0,1-.618,1.877c-.044.047-.112.054-.535.046-.813-.016-1.628,0-2.44,0h-6.6c-.73,0-1.473-.04-2.2,0-.111.006-.472.063-.568,0-.208-.139.1.315.042-.035a6.954,6.954,0,0,1,.654-2.109q.555-1.788,1.109-3.576l1.5-4.835c.041-.134-.167-.19-.208-.058" transform="translate(-22.889 -112.698)" fill="#eef2e8"/>
            <path id="Trazado_825151" data-name="Trazado 825151" d="M59.8,117.028s5.961,5.4,12.13,5.152c0,0-3.093-3.848-12.13-5.152" transform="translate(-31.979 -62.587)" fill="#e5e2ca"/>
            <path id="Trazado_825152" data-name="Trazado 825152" d="M43.647,117.492s-7.953,1.223-11.645,6.17c0,0,4.936.024,11.645-6.17" transform="translate(-17.115 -62.835)" fill="#e5e2ca"/>
            <path id="Trazado_825153" data-name="Trazado 825153" d="M56.759,101.442s2.068-7.776-.985-13.142c0,0-2,4.512.985,13.142" transform="translate(-29.477 -47.223)" fill="#e5e2ca"/>
            <rect id="Rectángulo_378632" data-name="Rectángulo 378632" width="1.258" height="27.475" transform="translate(26.559 56.064)" fill="#e5e2ca"/>
            <rect id="Rectángulo_378633" data-name="Rectángulo 378633" width="2.633" height="2.727" transform="translate(25.814 53.338)" fill="#e5e2ca"/>
            <path id="Trazado_825154" data-name="Trazado 825154" d="M95.846,160.275s2.822,6.831,8.042,9.049c0,0-1.053-4.41-8.042-9.049" transform="translate(-51.259 -85.716)" fill="#e5e2ca"/>
            <path id="Trazado_825155" data-name="Trazado 825155" d="M79.579,157.007S72.828,154,67.516,155.984c0,0,3.8,2.473,12.063,1.023" transform="translate(-36.108 -83.058)" fill="#e5e2ca"/>
            <path id="Trazado_825156" data-name="Trazado 825156" d="M95.16,146.8s5.463-4.979,5.772-10.642c0,0-3.789,2.492-5.772,10.642" transform="translate(-50.892 -72.819)" fill="#e5e2ca"/>
            <rect id="Rectángulo_378634" data-name="Rectángulo 378634" width="1.156" height="25.24" transform="translate(43.525 75.68)" fill="#e5e2ca"/>
            <rect id="Rectángulo_378635" data-name="Rectángulo 378635" width="2.419" height="2.505" transform="translate(42.84 73.175)" fill="#e5e2ca"/>
            <path id="Trazado_825157" data-name="Trazado 825157" d="M126.07,242.012a2.395,2.395,0,0,1-2.338-3.181c.308-.882,1.13-1.611,1.087-2.544-.042-.9-.888-1.584-1.012-2.474-.16-1.147.9-2.092,1.162-3.219a11.83,11.83,0,0,0,.054-2.143,1.828,1.828,0,0,1,1.031-1.735,1.551,1.551,0,0,1,1.737.92,4.381,4.381,0,0,1,.262,2.106,4.825,4.825,0,0,0,.214,2.116c.518,1.214,2.054,2.059,1.886,3.368-.134,1.041-1.358,1.783-1.247,2.826.08.761.861,1.3.973,2.053a1.708,1.708,0,0,1-1.265,1.715,6.121,6.121,0,0,1-2.544.193" transform="translate(-66.104 -121.22)" fill="#5b6312"/>
            <path id="Trazado_825158" data-name="Trazado 825158" d="M129.71,239.477c-.149,4.563-.22,9.189-.056,13.752a.092.092,0,0,0,.185,0c.184-4.562.134-9.189,0-13.752a.066.066,0,0,0-.133,0" transform="translate(-69.289 -128.039)" fill="#513e3a"/>
            <path id="Trazado_825159" data-name="Trazado 825159" d="M129.909,249.468a4.834,4.834,0,0,0,.786-.735c.276-.28.558-.555.825-.842.124-.133-.07-.328-.2-.2-.278.277-.543.568-.813.854a4.83,4.83,0,0,0-.709.811.082.082,0,0,0,.111.111" transform="translate(-69.411 -132.444)" fill="#513e3a"/>
            <path id="Trazado_825160" data-name="Trazado 825160" d="M241.02,319.045a2.395,2.395,0,0,1-2.338-3.181c.307-.882,1.13-1.611,1.087-2.544-.042-.9-.888-1.584-1.012-2.474-.16-1.147.9-2.092,1.162-3.219a11.824,11.824,0,0,0,.054-2.143A1.828,1.828,0,0,1,241,303.749a1.551,1.551,0,0,1,1.738.92,4.386,4.386,0,0,1,.262,2.106,4.818,4.818,0,0,0,.214,2.116c.517,1.214,2.054,2.059,1.886,3.368-.134,1.041-1.358,1.783-1.248,2.826.081.761.861,1.3.973,2.054a1.707,1.707,0,0,1-1.265,1.714,6.122,6.122,0,0,1-2.544.193" transform="translate(-127.58 -162.418)" fill="#5b6312"/>
            <path id="Trazado_825161" data-name="Trazado 825161" d="M244.66,316.511c-.149,4.563-.221,9.189-.056,13.752a.092.092,0,0,0,.185,0c.184-4.562.133-9.189,0-13.752a.066.066,0,0,0-.133,0" transform="translate(-130.765 -169.237)" fill="#513e3a"/>
            <path id="Trazado_825162" data-name="Trazado 825162" d="M244.86,326.5a4.835,4.835,0,0,0,.786-.735c.276-.28.558-.555.825-.842.124-.132-.07-.328-.2-.2-.278.277-.543.569-.813.853a4.851,4.851,0,0,0-.709.812.082.082,0,0,0,.111.111" transform="translate(-130.887 -173.642)" fill="#513e3a"/>
            <path id="Trazado_825163" data-name="Trazado 825163" d="M200.332,267.382a2.395,2.395,0,0,1-2.338-3.181c.307-.882,1.13-1.611,1.087-2.544-.042-.9-.888-1.584-1.012-2.474-.16-1.147.9-2.092,1.162-3.219a11.831,11.831,0,0,0,.054-2.143,1.827,1.827,0,0,1,1.031-1.735,1.551,1.551,0,0,1,1.738.92,4.387,4.387,0,0,1,.262,2.106,4.825,4.825,0,0,0,.214,2.116c.518,1.214,2.054,2.059,1.886,3.368-.133,1.041-1.358,1.783-1.247,2.826.08.761.861,1.3.973,2.054a1.708,1.708,0,0,1-1.265,1.714,6.121,6.121,0,0,1-2.544.193" transform="translate(-105.82 -134.788)" fill="#5b6312"/>
            <path id="Trazado_825164" data-name="Trazado 825164" d="M203.972,264.847c-.149,4.563-.221,9.189-.056,13.752a.092.092,0,0,0,.185,0c.184-4.562.134-9.189,0-13.752a.066.066,0,0,0-.133,0" transform="translate(-109.005 -141.607)" fill="#513e3a"/>
            <path id="Trazado_825165" data-name="Trazado 825165" d="M204.171,274.838a4.837,4.837,0,0,0,.786-.735c.276-.28.558-.555.825-.842.124-.132-.07-.328-.2-.2-.278.277-.543.569-.813.854a4.83,4.83,0,0,0-.709.811.082.082,0,0,0,.111.111" transform="translate(-109.126 -146.012)" fill="#513e3a"/>
            <path id="Trazado_825166" data-name="Trazado 825166" d="M300.272,299.529a1.671,1.671,0,0,1-1.631-2.219c.214-.616.789-1.124.758-1.775-.029-.627-.619-1.1-.706-1.726-.112-.8.625-1.46.811-2.246a8.211,8.211,0,0,0,.038-1.5,1.276,1.276,0,0,1,.719-1.211,1.082,1.082,0,0,1,1.212.642,3.052,3.052,0,0,1,.183,1.47,3.367,3.367,0,0,0,.15,1.476c.361.847,1.433,1.436,1.316,2.35-.094.726-.948,1.244-.871,1.972.056.531.6.9.679,1.433a1.191,1.191,0,0,1-.883,1.2,4.27,4.27,0,0,1-1.775.135" transform="translate(-159.666 -154.462)" fill="#5b6312"/>
            <path id="Trazado_825167" data-name="Trazado 825167" d="M302.812,297.761c-.1,3.184-.154,6.412-.039,9.6a.064.064,0,0,0,.128,0c.129-3.183.094-6.411,0-9.6a.046.046,0,0,0-.093,0" transform="translate(-161.889 -159.22)" fill="#513e3a"/>
            <path id="Trazado_825168" data-name="Trazado 825168" d="M302.951,304.732a3.386,3.386,0,0,0,.548-.513c.192-.2.389-.387.576-.588.086-.093-.049-.229-.14-.139-.194.194-.379.4-.568.6a3.383,3.383,0,0,0-.495.566.057.057,0,0,0,.078.078" transform="translate(-161.974 -162.294)" fill="#513e3a"/>
            <path id="Trazado_825169" data-name="Trazado 825169" d="M226.9,346.056a1.273,1.273,0,0,1-1.243-1.692c.163-.469.6-.856.578-1.352-.023-.478-.473-.842-.539-1.316-.085-.61.476-1.113.618-1.712a6.291,6.291,0,0,0,.029-1.14.971.971,0,0,1,.548-.923.824.824,0,0,1,.924.489,2.329,2.329,0,0,1,.14,1.12,2.565,2.565,0,0,0,.114,1.125c.275.646,1.092,1.095,1,1.791-.071.553-.722.948-.663,1.5.043.4.458.69.518,1.092a.908.908,0,0,1-.673.912,3.25,3.25,0,0,1-1.353.1" transform="translate(-120.645 -180.706)" fill="#5b6312"/>
            <path id="Trazado_825170" data-name="Trazado 825170" d="M228.834,344.707c-.08,2.426-.117,4.887-.03,7.314a.049.049,0,0,0,.1,0c.1-2.426.071-4.887,0-7.314a.035.035,0,0,0-.07,0" transform="translate(-122.339 -184.333)" fill="#513e3a"/>
            <path id="Trazado_825171" data-name="Trazado 825171" d="M228.94,350.02a2.618,2.618,0,0,0,.418-.391c.147-.149.3-.295.439-.448.066-.07-.038-.174-.106-.106-.148.147-.289.3-.433.454a2.6,2.6,0,0,0-.377.432.043.043,0,0,0,.059.059" transform="translate(-122.403 -186.675)" fill="#513e3a"/>
            <path id="Trazado_825172" data-name="Trazado 825172" d="M293.981,250.273a1.273,1.273,0,0,1-1.243-1.692c.163-.469.6-.856.578-1.352-.022-.478-.472-.842-.538-1.316-.085-.61.476-1.113.618-1.712a6.288,6.288,0,0,0,.029-1.14.971.971,0,0,1,.548-.922.824.824,0,0,1,.924.489,2.329,2.329,0,0,1,.14,1.12,2.565,2.565,0,0,0,.114,1.125c.275.646,1.092,1.095,1,1.791-.071.553-.722.948-.663,1.5.043.4.458.69.518,1.092a.908.908,0,0,1-.673.912,3.253,3.253,0,0,1-1.353.1" transform="translate(-156.521 -129.481)" fill="#5b6312"/>
            <path id="Trazado_825173" data-name="Trazado 825173" d="M295.917,248.924c-.08,2.426-.117,4.887-.03,7.314a.049.049,0,0,0,.1,0c.1-2.426.071-4.887,0-7.314a.035.035,0,0,0-.07,0" transform="translate(-158.215 -133.108)" fill="#513e3a"/>
            <path id="Trazado_825174" data-name="Trazado 825174" d="M296.023,254.237a2.592,2.592,0,0,0,.418-.391c.147-.149.3-.295.439-.448.066-.07-.038-.174-.106-.106-.148.147-.289.3-.433.454a2.576,2.576,0,0,0-.377.432.043.043,0,0,0,.059.059" transform="translate(-158.279 -135.45)" fill="#513e3a"/>
            <path id="Trazado_825175" data-name="Trazado 825175" d="M165.619,110.4a1.671,1.671,0,0,1-1.631-2.219c.214-.615.789-1.124.758-1.775-.03-.627-.62-1.1-.707-1.726-.112-.8.625-1.46.811-2.246a8.3,8.3,0,0,0,.038-1.5,1.275,1.275,0,0,1,.719-1.211,1.081,1.081,0,0,1,1.212.642,3.051,3.051,0,0,1,.183,1.47,3.367,3.367,0,0,0,.15,1.476c.361.847,1.433,1.437,1.316,2.35-.094.726-.948,1.244-.871,1.972.056.531.6.9.679,1.433a1.19,1.19,0,0,1-.882,1.2,4.27,4.27,0,0,1-1.775.135" transform="translate(-87.653 -53.315)" fill="#5b6312"/>
            <path id="Trazado_825176" data-name="Trazado 825176" d="M168.157,108.631c-.1,3.184-.154,6.412-.039,9.6a.064.064,0,0,0,.128,0c.129-3.183.094-6.411,0-9.6a.046.046,0,0,0-.093,0" transform="translate(-89.875 -58.072)" fill="#513e3a"/>
            <path id="Trazado_825177" data-name="Trazado 825177" d="M168.3,115.6a3.382,3.382,0,0,0,.548-.513c.192-.2.389-.387.576-.588.086-.093-.049-.229-.14-.139-.194.194-.379.4-.568.6a3.383,3.383,0,0,0-.495.566.057.057,0,0,0,.078.078" transform="translate(-89.96 -61.146)" fill="#513e3a"/>
            <path id="Trazado_825178" data-name="Trazado 825178" d="M229.327,102.092a1.67,1.67,0,0,1-1.631-2.219c.214-.615.788-1.124.758-1.775-.029-.627-.619-1.105-.706-1.727-.112-.8.625-1.46.811-2.246a8.256,8.256,0,0,0,.037-1.5,1.276,1.276,0,0,1,.719-1.211,1.082,1.082,0,0,1,1.212.642,3.052,3.052,0,0,1,.183,1.47,3.367,3.367,0,0,0,.15,1.476c.361.847,1.433,1.437,1.316,2.35-.094.726-.948,1.244-.871,1.972.056.531.6.9.679,1.433a1.19,1.19,0,0,1-.882,1.2,4.27,4.27,0,0,1-1.775.135" transform="translate(-121.725 -48.872)" fill="#5b6312"/>
            <path id="Trazado_825179" data-name="Trazado 825179" d="M231.867,100.324c-.1,3.184-.154,6.412-.04,9.6a.064.064,0,0,0,.128,0c.129-3.183.093-6.411,0-9.6a.046.046,0,0,0-.092,0" transform="translate(-123.947 -53.63)" fill="#513e3a"/>
            <path id="Trazado_825180" data-name="Trazado 825180" d="M232.005,107.294a3.381,3.381,0,0,0,.548-.513c.192-.2.389-.387.576-.588.086-.093-.049-.229-.14-.139-.194.194-.379.4-.568.6a3.384,3.384,0,0,0-.495.566.057.057,0,0,0,.078.078" transform="translate(-124.032 -56.703)" fill="#513e3a"/>
            <path id="Trazado_825181" data-name="Trazado 825181" d="M250.75,110.923a1.368,1.368,0,0,1-1.336-1.817c.175-.5.646-.92.621-1.453-.024-.513-.508-.9-.578-1.414-.092-.655.511-1.2.664-1.838a6.712,6.712,0,0,0,.03-1.224,1.045,1.045,0,0,1,.589-.991.884.884,0,0,1,.992.525,2.491,2.491,0,0,1,.15,1.2,2.752,2.752,0,0,0,.122,1.209c.3.694,1.173,1.176,1.077,1.924-.076.595-.776,1.019-.712,1.615.046.434.492.741.556,1.173a.975.975,0,0,1-.723.979,3.492,3.492,0,0,1-1.453.11" transform="translate(-133.348 -54.633)" fill="#4e510e"/>
            <path id="Trazado_825182" data-name="Trazado 825182" d="M252.829,109.474c-.086,2.607-.126,5.249-.032,7.856a.053.053,0,0,0,.105,0c.106-2.606.077-5.249,0-7.856a.038.038,0,0,0-.076,0" transform="translate(-135.168 -58.527)" fill="#513e3a"/>
            <path id="Trazado_825183" data-name="Trazado 825183" d="M252.943,115.182a2.777,2.777,0,0,0,.449-.42c.158-.16.319-.317.471-.481a.081.081,0,0,0-.114-.114c-.159.159-.31.325-.464.488a2.778,2.778,0,0,0-.406.463.047.047,0,0,0,.064.064" transform="translate(-135.238 -61.044)" fill="#513e3a"/>
            <path id="Trazado_825184" data-name="Trazado 825184" d="M113.715,213.056a1.67,1.67,0,0,1-1.631-2.219c.214-.615.788-1.124.758-1.775-.029-.627-.619-1.1-.706-1.726-.112-.8.625-1.46.811-2.246a8.217,8.217,0,0,0,.038-1.5,1.276,1.276,0,0,1,.719-1.211,1.082,1.082,0,0,1,1.212.642,3.052,3.052,0,0,1,.183,1.47,3.367,3.367,0,0,0,.15,1.476c.361.847,1.433,1.437,1.316,2.35-.094.726-.948,1.244-.871,1.972.056.531.6.9.679,1.433a1.19,1.19,0,0,1-.882,1.2,4.27,4.27,0,0,1-1.775.135" transform="translate(-59.895 -108.216)" fill="#879519"/>
            <path id="Trazado_825185" data-name="Trazado 825185" d="M116.255,211.288c-.1,3.184-.154,6.412-.039,9.6a.064.064,0,0,0,.128,0c.129-3.183.093-6.411,0-9.6a.046.046,0,0,0-.093,0" transform="translate(-62.118 -112.974)" fill="#513e3a"/>
            <path id="Trazado_825186" data-name="Trazado 825186" d="M116.394,218.259a3.384,3.384,0,0,0,.548-.513c.192-.2.389-.387.576-.588.086-.093-.049-.229-.14-.139-.194.194-.379.4-.568.6a3.383,3.383,0,0,0-.495.566.057.057,0,0,0,.078.078" transform="translate(-62.202 -116.047)" fill="#513e3a"/>
            <path id="Trazado_825187" data-name="Trazado 825187" d="M227.466,300.71a1.67,1.67,0,0,1-1.631-2.219c.214-.615.789-1.124.758-1.775-.029-.627-.62-1.105-.706-1.727-.112-.8.625-1.46.811-2.246a8.259,8.259,0,0,0,.037-1.5,1.276,1.276,0,0,1,.719-1.211,1.082,1.082,0,0,1,1.212.642,3.052,3.052,0,0,1,.183,1.47,3.367,3.367,0,0,0,.15,1.476c.361.847,1.433,1.436,1.316,2.35-.093.726-.948,1.244-.871,1.972.056.531.6.9.679,1.433a1.191,1.191,0,0,1-.882,1.2,4.271,4.271,0,0,1-1.775.135" transform="translate(-120.73 -155.093)" fill="#879519"/>
            <path id="Trazado_825188" data-name="Trazado 825188" d="M230.006,298.941c-.1,3.184-.154,6.412-.039,9.6a.064.064,0,0,0,.128,0c.129-3.183.094-6.411,0-9.6a.046.046,0,0,0-.093,0" transform="translate(-122.952 -159.851)" fill="#513e3a"/>
            <path id="Trazado_825189" data-name="Trazado 825189" d="M230.145,305.913a3.381,3.381,0,0,0,.548-.513c.192-.2.389-.387.576-.588.086-.093-.049-.229-.14-.139-.194.194-.379.4-.568.6a3.382,3.382,0,0,0-.495.566.057.057,0,0,0,.078.078" transform="translate(-123.037 -162.925)" fill="#513e3a"/>
            <path id="Trazado_825190" data-name="Trazado 825190" d="M181.611,260.853a1.67,1.67,0,0,1-1.631-2.219c.214-.615.788-1.124.758-1.775-.029-.627-.62-1.1-.706-1.726-.112-.8.625-1.46.811-2.246a8.216,8.216,0,0,0,.038-1.5,1.276,1.276,0,0,1,.719-1.211,1.082,1.082,0,0,1,1.212.642,3.052,3.052,0,0,1,.183,1.47,3.367,3.367,0,0,0,.15,1.476c.361.847,1.433,1.437,1.316,2.35-.094.726-.948,1.244-.871,1.971.056.531.6.9.679,1.433a1.19,1.19,0,0,1-.882,1.2,4.27,4.27,0,0,1-1.775.135" transform="translate(-96.206 -133.778)" fill="#879519"/>
            <path id="Trazado_825191" data-name="Trazado 825191" d="M184.151,259.085c-.1,3.184-.154,6.412-.039,9.6a.064.064,0,0,0,.128,0c.129-3.183.094-6.411,0-9.6a.046.046,0,0,0-.093,0" transform="translate(-98.429 -138.536)" fill="#513e3a"/>
            <path id="Trazado_825192" data-name="Trazado 825192" d="M184.29,266.057a3.384,3.384,0,0,0,.548-.513c.192-.2.389-.387.576-.588.086-.093-.049-.229-.14-.139-.194.194-.379.4-.568.6a3.387,3.387,0,0,0-.495.566.057.057,0,0,0,.078.078" transform="translate(-98.513 -141.61)" fill="#513e3a"/>
            <path id="Trazado_825193" data-name="Trazado 825193" d="M289.893,110.366a1.67,1.67,0,0,1-1.631-2.219c.214-.615.789-1.124.758-1.775-.029-.627-.62-1.105-.706-1.727-.112-.8.625-1.46.811-2.246a8.255,8.255,0,0,0,.037-1.5,1.276,1.276,0,0,1,.719-1.211,1.082,1.082,0,0,1,1.212.642,3.052,3.052,0,0,1,.183,1.47,3.367,3.367,0,0,0,.15,1.476c.361.847,1.433,1.437,1.316,2.35-.094.726-.948,1.244-.871,1.972.056.531.6.9.679,1.433a1.191,1.191,0,0,1-.883,1.2,4.27,4.27,0,0,1-1.775.135" transform="translate(-154.116 -53.297)" fill="#879519"/>
            <path id="Trazado_825194" data-name="Trazado 825194" d="M292.433,108.6c-.1,3.184-.154,6.412-.039,9.6a.064.064,0,0,0,.128,0c.129-3.183.094-6.411,0-9.6a.046.046,0,0,0-.092,0" transform="translate(-156.338 -58.055)" fill="#513e3a"/>
            <path id="Trazado_825195" data-name="Trazado 825195" d="M292.572,115.569a3.383,3.383,0,0,0,.548-.513c.192-.2.389-.387.576-.588.086-.093-.049-.229-.14-.139-.194.194-.379.4-.568.6a3.386,3.386,0,0,0-.495.566.057.057,0,0,0,.078.078" transform="translate(-156.423 -61.128)" fill="#513e3a"/>
            <path id="Trazado_825196" data-name="Trazado 825196" d="M260.33,331.39a1.67,1.67,0,0,1-1.631-2.219c.214-.615.789-1.124.758-1.775-.029-.627-.619-1.1-.706-1.726-.112-.8.625-1.46.811-2.246a8.258,8.258,0,0,0,.037-1.5,1.276,1.276,0,0,1,.719-1.211,1.082,1.082,0,0,1,1.212.642,3.052,3.052,0,0,1,.183,1.47,3.37,3.37,0,0,0,.15,1.477c.361.847,1.433,1.436,1.316,2.35-.093.726-.948,1.244-.871,1.971.056.531.6.9.679,1.433a1.19,1.19,0,0,1-.883,1.2,4.27,4.27,0,0,1-1.775.135" transform="translate(-138.305 -171.501)" fill="#879519"/>
            <path id="Trazado_825197" data-name="Trazado 825197" d="M262.869,329.622c-.1,3.184-.154,6.412-.039,9.6a.064.064,0,0,0,.128,0c.129-3.183.094-6.411,0-9.6a.046.046,0,0,0-.092,0" transform="translate(-140.527 -176.259)" fill="#513e3a"/>
            <path id="Trazado_825198" data-name="Trazado 825198" d="M263.008,336.592a3.377,3.377,0,0,0,.548-.513c.192-.2.389-.387.576-.588.086-.093-.049-.229-.14-.139-.194.194-.379.4-.568.6a3.386,3.386,0,0,0-.495.566.057.057,0,0,0,.078.078" transform="translate(-140.612 -179.332)" fill="#513e3a"/>
            <path id="Trazado_825199" data-name="Trazado 825199" d="M254.954,303.439a1.364,1.364,0,0,1-1.332-1.812c.175-.5.644-.918.619-1.449-.024-.512-.506-.9-.577-1.41-.091-.653.51-1.192.662-1.834a6.717,6.717,0,0,0,.031-1.221,1.04,1.04,0,0,1,.587-.989.883.883,0,0,1,.99.524,2.5,2.5,0,0,1,.149,1.2,2.751,2.751,0,0,0,.122,1.205c.295.692,1.17,1.173,1.075,1.918-.076.593-.774,1.016-.711,1.611.046.433.491.739.554,1.17a.972.972,0,0,1-.721.977,3.485,3.485,0,0,1-1.45.11" transform="translate(-135.599 -157.604)" fill="#879519"/>
            <path id="Trazado_825200" data-name="Trazado 825200" d="M257.027,302c-.085,2.6-.126,5.236-.032,7.835a.053.053,0,0,0,.105,0c.105-2.6.076-5.235,0-7.835a.038.038,0,0,0-.075,0" transform="translate(-137.413 -161.489)" fill="#513e3a"/>
            <path id="Trazado_825201" data-name="Trazado 825201" d="M257.141,307.688a2.763,2.763,0,0,0,.448-.419c.157-.16.317-.316.47-.48.07-.076-.04-.187-.113-.114-.159.158-.31.324-.464.487a2.759,2.759,0,0,0-.4.462.047.047,0,0,0,.063.063" transform="translate(-137.483 -163.999)" fill="#513e3a"/>
            <path id="Trazado_825202" data-name="Trazado 825202" d="M245.147,281.746a1.364,1.364,0,0,1-1.332-1.812c.175-.5.644-.918.619-1.449-.024-.512-.506-.9-.577-1.41-.091-.653.51-1.192.662-1.834a6.757,6.757,0,0,0,.031-1.221,1.04,1.04,0,0,1,.587-.989.883.883,0,0,1,.99.524,2.5,2.5,0,0,1,.149,1.2,2.751,2.751,0,0,0,.122,1.205c.295.692,1.17,1.173,1.075,1.918-.076.593-.774,1.016-.711,1.611.046.434.491.739.555,1.17a.973.973,0,0,1-.721.977,3.491,3.491,0,0,1-1.45.11" transform="translate(-130.354 -146.002)" fill="#879519"/>
            <path id="Trazado_825203" data-name="Trazado 825203" d="M247.22,280.3c-.085,2.6-.126,5.236-.032,7.835a.053.053,0,0,0,.105,0c.105-2.6.076-5.235,0-7.835a.038.038,0,0,0-.075,0" transform="translate(-132.169 -149.887)" fill="#513e3a"/>
            <path id="Trazado_825204" data-name="Trazado 825204" d="M247.333,285.994a2.765,2.765,0,0,0,.448-.419c.157-.16.317-.316.47-.48.07-.076-.04-.187-.114-.114-.159.158-.31.324-.464.487a2.761,2.761,0,0,0-.4.462.047.047,0,0,0,.063.063" transform="translate(-132.238 -152.397)" fill="#513e3a"/>
            <path id="Trazado_825205" data-name="Trazado 825205" d="M207.643,319.194a1.364,1.364,0,0,1-1.332-1.812c.175-.5.644-.918.619-1.449-.024-.512-.506-.9-.577-1.41-.091-.653.51-1.192.662-1.834a6.755,6.755,0,0,0,.031-1.221,1.041,1.041,0,0,1,.587-.989.883.883,0,0,1,.99.524,2.5,2.5,0,0,1,.149,1.2,2.751,2.751,0,0,0,.122,1.205c.295.692,1.17,1.173,1.075,1.918-.076.593-.774,1.016-.711,1.61.046.434.491.739.555,1.17a.972.972,0,0,1-.721.976,3.493,3.493,0,0,1-1.45.11" transform="translate(-110.297 -166.03)" fill="#879519"/>
            <path id="Trazado_825206" data-name="Trazado 825206" d="M209.716,317.75c-.085,2.6-.126,5.236-.032,7.835a.053.053,0,0,0,.105,0c.105-2.6.076-5.235,0-7.835a.038.038,0,0,0-.075,0" transform="translate(-112.111 -169.915)" fill="#513e3a"/>
            <path id="Trazado_825207" data-name="Trazado 825207" d="M209.83,323.443a2.762,2.762,0,0,0,.448-.419c.157-.16.317-.316.47-.48.07-.076-.04-.187-.113-.114-.159.158-.31.324-.463.487a2.743,2.743,0,0,0-.4.462.047.047,0,0,0,.063.063" transform="translate(-112.181 -172.424)" fill="#513e3a"/>
            <path id="Trazado_825208" data-name="Trazado 825208" d="M147.117,259.769a1.364,1.364,0,0,1-1.332-1.812c.175-.5.644-.918.619-1.449-.024-.512-.506-.9-.577-1.41-.091-.653.51-1.192.662-1.834a6.713,6.713,0,0,0,.031-1.221,1.04,1.04,0,0,1,.587-.989.883.883,0,0,1,.99.524,2.5,2.5,0,0,1,.149,1.2,2.751,2.751,0,0,0,.122,1.205c.295.692,1.17,1.173,1.075,1.918-.076.593-.774,1.016-.711,1.611.046.434.491.739.555,1.17a.973.973,0,0,1-.721.977,3.493,3.493,0,0,1-1.45.11" transform="translate(-77.927 -134.249)" fill="#879519"/>
            <path id="Trazado_825209" data-name="Trazado 825209" d="M149.189,258.325c-.085,2.6-.126,5.236-.032,7.835a.053.053,0,0,0,.105,0c.105-2.6.076-5.235,0-7.835a.038.038,0,0,0-.075,0" transform="translate(-79.741 -138.134)" fill="#513e3a"/>
            <path id="Trazado_825210" data-name="Trazado 825210" d="M149.3,264.017a2.739,2.739,0,0,0,.448-.418c.157-.16.317-.316.47-.48.07-.075-.04-.187-.113-.113-.159.158-.31.324-.464.487a2.761,2.761,0,0,0-.4.462.046.046,0,0,0,.063.063" transform="translate(-79.811 -140.644)" fill="#513e3a"/>
            <path id="Trazado_825211" data-name="Trazado 825211" d="M38.87,151.579a1.67,1.67,0,0,1-1.631-2.219c.214-.615.789-1.124.758-1.775-.03-.627-.62-1.105-.707-1.727-.112-.8.625-1.46.811-2.246a8.3,8.3,0,0,0,.038-1.5,1.275,1.275,0,0,1,.719-1.211,1.082,1.082,0,0,1,1.212.642,3.052,3.052,0,0,1,.183,1.47,3.369,3.369,0,0,0,.15,1.477c.361.847,1.433,1.436,1.316,2.35-.094.726-.948,1.244-.871,1.972.056.531.6.9.679,1.433a1.191,1.191,0,0,1-.882,1.2,4.271,4.271,0,0,1-1.775.135" transform="translate(-19.867 -75.337)" fill="#5b6312"/>
            <path id="Trazado_825212" data-name="Trazado 825212" d="M41.409,149.811c-.1,3.184-.154,6.412-.039,9.6a.064.064,0,0,0,.128,0c.129-3.183.094-6.411,0-9.6a.046.046,0,0,0-.093,0" transform="translate(-22.09 -80.095)" fill="#513e3a"/>
            <path id="Trazado_825213" data-name="Trazado 825213" d="M41.548,156.782a3.384,3.384,0,0,0,.548-.513c.192-.2.389-.387.576-.588.086-.093-.049-.229-.14-.139-.194.194-.379.4-.568.6a3.383,3.383,0,0,0-.495.566.057.057,0,0,0,.078.078" transform="translate(-22.174 -83.169)" fill="#513e3a"/>
            <path id="Trazado_825214" data-name="Trazado 825214" d="M220.083,30a3.312,3.312,0,1,1-3.312-3.312A3.312,3.312,0,0,1,220.083,30" transform="translate(-114.159 -14.272)" fill="#ff9c2a"/>
            <path id="Trazado_825215" data-name="Trazado 825215" d="M220.11,42.782a15.6,15.6,0,0,0,.025,2.48.118.118,0,0,0,.236,0,15.6,15.6,0,0,0,.026-2.48.144.144,0,0,0-.287,0" transform="translate(-117.696 -22.806)" fill="#ff9c2a"/>
            <path id="Trazado_825216" data-name="Trazado 825216" d="M225.474,41.186c.092.344.457.632.671.91s.412.7.724.878a.165.165,0,0,0,.246-.141,2.16,2.16,0,0,0-.588-.993c-.231-.288-.507-.722-.869-.838a.151.151,0,0,0-.184.185" transform="translate(-120.582 -21.924)" fill="#ff9c2a"/>
            <path id="Trazado_825217" data-name="Trazado 825217" d="M228.9,37.082a7.845,7.845,0,0,0,1.352.669,5.34,5.34,0,0,0,1.3.449c.159.022.274-.18.116-.274A8.984,8.984,0,0,0,230.4,37.4c-.463-.189-.916-.42-1.392-.575-.16-.052-.237.173-.109.259" transform="translate(-122.381 -19.689)" fill="#ff9c2a"/>
            <path id="Trazado_825218" data-name="Trazado 825218" d="M230.831,31.938a4.959,4.959,0,0,0,1.281.023,8.021,8.021,0,0,0,1.294-.108c.237-.049.157-.374-.053-.394a8.113,8.113,0,0,0-1.336.035,4.706,4.706,0,0,0-1.186.148.155.155,0,0,0,0,.3" transform="translate(-123.391 -16.815)" fill="#ff9c2a"/>
            <path id="Trazado_825219" data-name="Trazado 825219" d="M229.085,25.763c.422-.253.839-.513,1.258-.769a5.624,5.624,0,0,0,1.139-.726.179.179,0,0,0-.173-.3,4.088,4.088,0,0,0-1.262.689,10.413,10.413,0,0,0-1.141.871c-.126.111.037.315.178.231" transform="translate(-122.396 -12.818)" fill="#ff9c2a"/>
            <path id="Trazado_825220" data-name="Trazado 825220" d="M221.353,20.459a15.594,15.594,0,0,0-.025-2.48.118.118,0,0,0-.236,0,15.535,15.535,0,0,0-.026,2.48.144.144,0,0,0,.287,0" transform="translate(-118.207 -9.555)" fill="#ff9c2a"/>
            <path id="Trazado_825221" data-name="Trazado 825221" d="M214.512,22.9c-.093-.344-.457-.632-.671-.91s-.413-.7-.724-.878a.165.165,0,0,0-.246.141,2.162,2.162,0,0,0,.587.993c.231.288.507.722.869.838a.151.151,0,0,0,.185-.185" transform="translate(-113.844 -11.279)" fill="#ff9c2a"/>
            <path id="Trazado_825222" data-name="Trazado 825222" d="M209.645,27.706a7.845,7.845,0,0,0-1.352-.669,5.339,5.339,0,0,0-1.3-.449c-.159-.022-.274.18-.116.274a8.983,8.983,0,0,0,1.262.528c.463.189.916.42,1.392.575.16.052.237-.173.109-.259" transform="translate(-110.601 -14.218)" fill="#ff9c2a"/>
            <path id="Trazado_825223" data-name="Trazado 825223" d="M207.8,33.81a4.959,4.959,0,0,0-1.281-.023,8.021,8.021,0,0,0-1.294.108c-.237.049-.157.374.054.394a8.113,8.113,0,0,0,1.336-.035,4.706,4.706,0,0,0,1.186-.148.155.155,0,0,0,0-.3" transform="translate(-109.675 -18.053)" fill="#ff9c2a"/>
            <path id="Trazado_825224" data-name="Trazado 825224" d="M209.722,38.532c-.422.253-.839.513-1.258.769a5.624,5.624,0,0,0-1.139.726.179.179,0,0,0,.173.3,4.088,4.088,0,0,0,1.262-.689,10.369,10.369,0,0,0,1.141-.871c.126-.111-.037-.315-.178-.231" transform="translate(-110.851 -20.596)" fill="#ff9c2a"/>
            <path id="Trazado_825225" data-name="Trazado 825225" d="M225.271,21.877a7.7,7.7,0,0,0,1.462-2.229.184.184,0,0,0-.3-.178,6.8,6.8,0,0,0-.681,1.073c-.233.388-.462.777-.7,1.162-.082.134.12.3.223.172" transform="translate(-120.346 -10.384)" fill="#ff9c2a"/>
            <path id="Trazado_825226" data-name="Trazado 825226" d="M213.332,43.845c.331-.146.546-.6.744-.885a3.23,3.23,0,0,0,.652-1.1.126.126,0,0,0-.183-.141,3.072,3.072,0,0,0-.762.985c-.206.312-.559.688-.57,1.073a.081.081,0,0,0,.12.068" transform="translate(-114.027 -22.301)" fill="#ff9c2a"/>
            <path id="Trazado_825227" data-name="Trazado 825227" d="M276.316,40.372a1.463,1.463,0,0,0-1.089-1.748c-.37-.071-.76.008-1.124-.088-1.053-.278-1.389-1.824-2.454-2.049s-2.085,1.073-3.125.727c-.77-.256-1-1.235-1.6-1.786a1.793,1.793,0,0,0-2.522.2c-.594.754-.534,1.957-1.314,2.517a2.635,2.635,0,0,1-1.557.325,2.513,2.513,0,0,0-1.55.347c-.428.328-.553,1.085-.1,1.376l16.472.388" transform="translate(-138.835 -18.718)" fill="#a6d5e3"/>
            <path id="Trazado_825228" data-name="Trazado 825228" d="M254.267,13.44a.883.883,0,0,0-.657-1.055c-.223-.043-.459,0-.678-.053-.635-.168-.838-1.1-1.481-1.236s-1.258.647-1.885.439c-.465-.154-.6-.745-.962-1.077a1.082,1.082,0,0,0-1.522.12c-.358.455-.322,1.181-.793,1.518a1.589,1.589,0,0,1-.94.2,1.517,1.517,0,0,0-.935.209c-.259.2-.333.655-.059.83l9.939.234" transform="translate(-130.589 -5.454)" fill="#a6d5e3"/>
            <path id="Trazado_825229" data-name="Trazado 825229" d="M92.8,13.193a1.463,1.463,0,0,0-1.089-1.748c-.37-.071-.76.008-1.124-.088-1.053-.278-1.389-1.824-2.454-2.049s-2.085,1.072-3.125.727c-.77-.256-1-1.235-1.6-1.786a1.793,1.793,0,0,0-2.522.2c-.594.754-.534,1.957-1.314,2.517a2.635,2.635,0,0,1-1.557.325,2.513,2.513,0,0,0-1.55.347c-.428.327-.553,1.085-.1,1.376l16.472.388" transform="translate(-40.69 -4.183)" fill="#a6d5e3"/>
            <path id="Trazado_825230" data-name="Trazado 825230" d="M29.678,107.964a1.464,1.464,0,0,0-1.09-1.748c-.37-.071-.76.008-1.124-.088-1.053-.278-1.389-1.824-2.454-2.049s-2.085,1.073-3.126.727c-.77-.256-1-1.235-1.595-1.786a1.793,1.793,0,0,0-2.522.2c-.593.754-.534,1.957-1.313,2.517a2.635,2.635,0,0,1-1.557.325,2.513,2.513,0,0,0-1.55.347c-.429.327-.553,1.086-.1,1.376l16.472.388" transform="translate(-6.932 -54.867)" fill="#a6d5e3"/>
            <path id="Trazado_825231" data-name="Trazado 825231" d="M11.742,188.552V175.941l4.655-2.878,4.571,2.963v12.511Z" transform="translate(-6.28 -92.555)" fill="#dc6b67"/>
            <rect id="Rectángulo_378636" data-name="Rectángulo 378636" width="2.521" height="12.352" transform="translate(14.688 83.646)" fill="#852926"/>
            <path id="Trazado_825232" data-name="Trazado 825232" d="M26.028,176.29,29.6,176.2l-4.921-3.392H21.457Z" transform="translate(-11.475 -92.42)" fill="#f7d1b3"/>
            <rect id="Rectángulo_378637" data-name="Rectángulo 378637" width="0.839" height="2.835" transform="translate(9.568 93.156)" fill="#e5e2ca"/>
            <rect id="Rectángulo_378638" data-name="Rectángulo 378638" width="0.575" height="1.759" transform="translate(9.654 85.278)" fill="#e5e2ca"/>
            <rect id="Rectángulo_378639" data-name="Rectángulo 378639" width="0.575" height="1.759" transform="translate(9.654 89.355)" fill="#e5e2ca"/>
            <path id="Trazado_825233" data-name="Trazado 825233" d="M15.86,172.81l-4.868,3.016.337.024,4.714-2.967Z" transform="translate(-5.879 -92.42)" fill="#f7d1b3"/>
            <path id="Trazado_825234" data-name="Trazado 825234" d="M31,199.662c-.052-.381,0-5.8,0-5.8h7.912v5.8Z" transform="translate(-16.565 -103.677)" fill="#dc6b67"/>
            <path id="Trazado_825235" data-name="Trazado 825235" d="M33.791,185.351l-2.767,3.958h7.912l1.6-3.958Z" transform="translate(-16.591 -99.126)" fill="#f7d1b3"/>
            <path id="Trazado_825236" data-name="Trazado 825236" d="M48.031,195.112l3.105.02V189l-1.5-3.651-1.6,3.958Z" transform="translate(-25.687 -99.126)" fill="#852926"/>
            <rect id="Rectángulo_378640" data-name="Rectángulo 378640" width="0.636" height="1.947" transform="translate(16.255 91.867)" fill="#e5e2ca"/>
            <rect id="Rectángulo_378641" data-name="Rectángulo 378641" width="0.636" height="1.947" transform="translate(19.291 91.791)" fill="#e5e2ca"/>
            <g id="Grupo_1074876" data-name="Grupo 1074876" transform="translate(81.455 84.08)" opacity="0.2">
              <g id="Grupo_1074875" data-name="Grupo 1074875">
                <g id="Grupo_1074874" data-name="Grupo 1074874" clip-path="url(#clip-path-21)">
                  <path id="Trazado_825237" data-name="Trazado 825237" d="M175.5,182.372c1.8-1.8,2.518-.281,4.118.269a2.641,2.641,0,0,0,1.931-.076c1.364-.52,1.644-1.39,3.7-.406.347.166.54.452.91.592a2,2,0,0,0,1.769-.109.372.372,0,0,0-.187-.689,3.658,3.658,0,0,1-2.364-.81,2.4,2.4,0,0,0-1.118-.4,3.023,3.023,0,0,0-1.368.287,5.979,5.979,0,0,1-2.293.729c-1.4.114-1.3-.2-2.419-.671a2.623,2.623,0,0,0-.831-.24,2.517,2.517,0,0,0-2.187,1.181c-.192.235.116.564.34.34" transform="translate(-175.099 -180.74)" fill="#fcfbf9"/>
                </g>
              </g>
            </g>
            <g id="Grupo_1074879" data-name="Grupo 1074879" transform="translate(112.484 84.454)" opacity="0.2">
              <g id="Grupo_1074878" data-name="Grupo 1074878">
                <g id="Grupo_1074877" data-name="Grupo 1074877" clip-path="url(#clip-path-21)">
                  <path id="Trazado_825238" data-name="Trazado 825238" d="M242.2,183.176c1.8-1.8,2.518-.281,4.118.269a2.638,2.638,0,0,0,1.931-.076c1.364-.52,1.644-1.39,3.7-.406.347.166.54.452.91.593a2,2,0,0,0,1.769-.109.372.372,0,0,0-.187-.689,3.657,3.657,0,0,1-2.364-.81,2.4,2.4,0,0,0-1.118-.4,3.023,3.023,0,0,0-1.368.287,5.98,5.98,0,0,1-2.293.729c-1.4.114-1.3-.2-2.419-.67a2.61,2.61,0,0,0-.832-.24,2.517,2.517,0,0,0-2.187,1.181c-.192.235.116.564.34.34" transform="translate(-241.8 -181.544)" fill="#fcfbf9"/>
                </g>
              </g>
            </g>
            <g id="Grupo_1074882" data-name="Grupo 1074882" transform="translate(126.853 102.979)" opacity="0.2">
              <g id="Grupo_1074881" data-name="Grupo 1074881">
                <g id="Grupo_1074880" data-name="Grupo 1074880" clip-path="url(#clip-path-23)">
                  <path id="Trazado_825239" data-name="Trazado 825239" d="M273.088,223c1.8-1.8,2.518-.281,4.118.269a2.641,2.641,0,0,0,1.931-.076c1.364-.52,1.645-1.39,3.7-.406.347.166.54.452.91.593a2,2,0,0,0,1.769-.109.372.372,0,0,0-.187-.689,3.657,3.657,0,0,1-2.364-.81,2.4,2.4,0,0,0-1.118-.4,3.022,3.022,0,0,0-1.368.287,5.979,5.979,0,0,1-2.293.729c-1.4.114-1.3-.2-2.419-.67a2.611,2.611,0,0,0-.832-.24,2.517,2.517,0,0,0-2.187,1.181c-.192.235.116.564.34.34" transform="translate(-272.688 -221.367)" fill="#fcfbf9"/>
                </g>
              </g>
            </g>
            <g id="Grupo_1074885" data-name="Grupo 1074885" transform="translate(78.999 105.229)" opacity="0.2">
              <g id="Grupo_1074884" data-name="Grupo 1074884">
                <g id="Grupo_1074883" data-name="Grupo 1074883" clip-path="url(#clip-path-23)">
                  <path id="Trazado_825240" data-name="Trazado 825240" d="M170.219,227.836c1.8-1.8,2.518-.281,4.118.269a2.638,2.638,0,0,0,1.931-.076c1.364-.52,1.644-1.39,3.7-.406.347.166.54.452.91.592a2,2,0,0,0,1.769-.109.372.372,0,0,0-.187-.689,3.658,3.658,0,0,1-2.364-.81,2.4,2.4,0,0,0-1.118-.4,3.023,3.023,0,0,0-1.368.287,5.979,5.979,0,0,1-2.293.729c-1.4.114-1.3-.2-2.419-.671a2.622,2.622,0,0,0-.831-.24,2.517,2.517,0,0,0-2.187,1.181c-.192.235.116.564.34.34" transform="translate(-169.819 -226.204)" fill="#fcfbf9"/>
                </g>
              </g>
            </g>
            <g id="Grupo_1074888" data-name="Grupo 1074888" transform="translate(69.395 93.351)" opacity="0.2">
              <g id="Grupo_1074887" data-name="Grupo 1074887">
                <g id="Grupo_1074886" data-name="Grupo 1074886" clip-path="url(#clip-path-25)">
                  <path id="Trazado_825241" data-name="Trazado 825241" d="M149.57,202.575c.883-1.569,2.132-1.462,3.482-.646a4.5,4.5,0,0,0,1.353.765,3.649,3.649,0,0,0,2.4-.587,2.7,2.7,0,0,1,2.951-.039,8.6,8.6,0,0,0,1.3.816,1.848,1.848,0,0,0,2.093-.371c.327-.307-.115-.914-.491-.636-.462.342-1.63-.033-2.09-.257-.349-.17-.623-.474-.982-.64a2.561,2.561,0,0,0-1.3-.278c-1.712.126-2.609,1.9-4.489.943-.933-.476-1.475-1.135-2.608-.943a2.485,2.485,0,0,0-2,1.71c-.079.227.269.367.384.162" transform="translate(-149.174 -200.67)" fill="#fcfbf9"/>
                </g>
              </g>
            </g>
            <g id="Grupo_1074891" data-name="Grupo 1074891" transform="translate(104.301 72.125)" opacity="0.2">
              <g id="Grupo_1074890" data-name="Grupo 1074890">
                <g id="Grupo_1074889" data-name="Grupo 1074889" clip-path="url(#clip-path-26)">
                  <path id="Trazado_825242" data-name="Trazado 825242" d="M224.6,156.949c.883-1.569,2.132-1.462,3.482-.646a4.5,4.5,0,0,0,1.353.765,3.649,3.649,0,0,0,2.395-.587,2.7,2.7,0,0,1,2.952-.039,8.6,8.6,0,0,0,1.3.816,1.847,1.847,0,0,0,2.093-.371c.328-.307-.115-.914-.491-.636-.462.342-1.631-.033-2.09-.257-.349-.17-.623-.474-.982-.64a2.56,2.56,0,0,0-1.3-.278c-1.712.126-2.608,1.9-4.489.943-.933-.476-1.475-1.135-2.607-.943a2.488,2.488,0,0,0-2,1.71c-.079.227.269.367.384.162" transform="translate(-224.209 -155.043)" fill="#fcfbf9"/>
                </g>
              </g>
            </g>
            <g id="Grupo_1074894" data-name="Grupo 1074894" transform="translate(138.161 93.729)" opacity="0.2">
              <g id="Grupo_1074893" data-name="Grupo 1074893">
                <g id="Grupo_1074892" data-name="Grupo 1074892" clip-path="url(#clip-path-26)">
                  <path id="Trazado_825243" data-name="Trazado 825243" d="M297.392,203.389c.883-1.569,2.132-1.462,3.482-.646a4.5,4.5,0,0,0,1.353.765,3.649,3.649,0,0,0,2.395-.587,2.7,2.7,0,0,1,2.952-.039,8.572,8.572,0,0,0,1.3.816,1.847,1.847,0,0,0,2.093-.371c.328-.307-.115-.914-.491-.636-.462.342-1.63-.033-2.09-.257-.349-.17-.623-.474-.982-.64a2.559,2.559,0,0,0-1.3-.278c-1.712.126-2.608,1.9-4.489.943-.933-.476-1.475-1.135-2.607-.943a2.487,2.487,0,0,0-2,1.71c-.079.227.269.367.384.162" transform="translate(-296.996 -201.483)" fill="#fcfbf9"/>
                </g>
              </g>
            </g>
            <g id="Grupo_1074897" data-name="Grupo 1074897" transform="translate(131.016 70.632)" opacity="0.2">
              <g id="Grupo_1074896" data-name="Grupo 1074896">
                <g id="Grupo_1074895" data-name="Grupo 1074895" clip-path="url(#clip-path-25)">
                  <path id="Trazado_825244" data-name="Trazado 825244" d="M282.033,153.739c.883-1.569,2.132-1.462,3.482-.646a4.5,4.5,0,0,0,1.353.765,3.647,3.647,0,0,0,2.394-.587,2.7,2.7,0,0,1,2.952-.039,8.569,8.569,0,0,0,1.3.816,1.847,1.847,0,0,0,2.093-.371c.327-.308-.115-.914-.491-.636-.462.342-1.63-.033-2.09-.257-.349-.17-.623-.474-.982-.64a2.56,2.56,0,0,0-1.3-.278c-1.712.126-2.608,1.9-4.489.943-.933-.476-1.475-1.135-2.607-.943a2.487,2.487,0,0,0-2,1.71c-.079.227.269.367.384.162" transform="translate(-281.637 -151.833)" fill="#fcfbf9"/>
                </g>
              </g>
            </g>
            <g id="Grupo_1074900" data-name="Grupo 1074900" transform="translate(110.825 94.422)" opacity="0.2">
              <g id="Grupo_1074899" data-name="Grupo 1074899">
                <g id="Grupo_1074898" data-name="Grupo 1074898" clip-path="url(#clip-path-26)">
                  <path id="Trazado_825245" data-name="Trazado 825245" d="M238.629,204.877c.883-1.569,2.132-1.462,3.482-.646a4.5,4.5,0,0,0,1.353.765,3.647,3.647,0,0,0,2.394-.587,2.7,2.7,0,0,1,2.952-.039,8.57,8.57,0,0,0,1.3.816,1.847,1.847,0,0,0,2.093-.371c.328-.308-.115-.914-.491-.636-.463.342-1.631-.033-2.09-.257-.349-.17-.623-.474-.982-.639a2.555,2.555,0,0,0-1.3-.278c-1.712.126-2.608,1.9-4.489.943-.933-.476-1.475-1.135-2.607-.943a2.487,2.487,0,0,0-2,1.71c-.079.227.269.367.384.162" transform="translate(-238.233 -202.972)" fill="#fcfbf9"/>
                </g>
              </g>
            </g>
            <g id="Grupo_1074903" data-name="Grupo 1074903" transform="translate(95.588 114.065)" opacity="0.2">
              <g id="Grupo_1074902" data-name="Grupo 1074902">
                <g id="Grupo_1074901" data-name="Grupo 1074901" clip-path="url(#clip-path-26)">
                  <path id="Trazado_825246" data-name="Trazado 825246" d="M205.875,247.1c.883-1.569,2.132-1.462,3.482-.646a4.5,4.5,0,0,0,1.353.765,3.649,3.649,0,0,0,2.395-.587,2.7,2.7,0,0,1,2.952-.039,8.571,8.571,0,0,0,1.3.816,1.847,1.847,0,0,0,2.093-.371c.328-.307-.115-.914-.491-.636-.462.342-1.63-.033-2.09-.257-.349-.17-.623-.474-.982-.64a2.56,2.56,0,0,0-1.3-.278c-1.712.126-2.608,1.9-4.489.943-.933-.476-1.475-1.135-2.607-.943a2.487,2.487,0,0,0-2,1.71c-.079.227.269.367.384.162" transform="translate(-205.479 -245.198)" fill="#fcfbf9"/>
                </g>
              </g>
            </g>
          </g>
        </g>
      </g>
    </g>
  </g>
</svg>
