<svg xmlns="http://www.w3.org/2000/svg" xmlns:xlink="http://www.w3.org/1999/xlink" width="505" height="742.502" viewBox="0 0 505 742.502">
  <defs>
    <linearGradient id="linear-gradient" x1="0.5" x2="0.5" y2="1" gradientUnits="objectBoundingBox">
      <stop offset="0" stop-color="#defff8"/>
      <stop offset="0.803" stop-color="#eaf5ff"/>
      <stop offset="1" stop-color="#f0feff"/>
    </linearGradient>
    <clipPath id="clip-path">
      <rect id="Rectángulo_378691" data-name="Rectángulo 378691" width="298.462" height="366.598" fill="none"/>
    </clipPath>
    <clipPath id="clip-path-2">
      <rect id="Rectángulo_378690" data-name="Rectángulo 378690" width="461.423" height="413.97" fill="none"/>
    </clipPath>
    <clipPath id="clip-path-3">
      <rect id="Rectángulo_378683" data-name="Rectángulo 378683" width="214.595" height="214.596" fill="none"/>
    </clipPath>
    <clipPath id="clip-path-4">
      <rect id="Rectángulo_378685" data-name="Rectángulo 378685" width="18.197" height="22.301" fill="none"/>
    </clipPath>
    <clipPath id="clip-path-5">
      <rect id="Rectángulo_378687" data-name="Rectángulo 378687" width="11.062" height="22.725" fill="none"/>
    </clipPath>
    <clipPath id="clip-path-6">
      <rect id="Rectángulo_378689" data-name="Rectángulo 378689" width="9.874" height="21.698" fill="none"/>
    </clipPath>
  </defs>
  <g id="Grupo_1074954" data-name="Grupo 1074954" transform="translate(-285 -1304.522)">
    <g id="Grupo_1074952" data-name="Grupo 1074952" transform="translate(0 856.906)">
      <g id="Grupo_1072963" data-name="Grupo 1072963" transform="translate(790 1190.118) rotate(180)">
        <rect id="Rectángulo_376022" data-name="Rectángulo 376022" width="505" height="742.502" transform="translate(0 0)" fill="url(#linear-gradient)"/>
      </g>
    </g>
    <g id="Grupo_1074953" data-name="Grupo 1074953" transform="translate(-1)">
      <rect id="Rectángulo_378701" data-name="Rectángulo 378701" width="460" height="59" rx="12" transform="translate(308 1692.598)" fill="#ffdfcc"/>
      <rect id="Rectángulo_378702" data-name="Rectángulo 378702" width="460" height="59" rx="12" transform="translate(308 1757.598)" fill="#ffdfcc"/>
      <rect id="Rectángulo_378703" data-name="Rectángulo 378703" width="460" height="59" rx="12" transform="translate(308 1824.598)" fill="#ffdfcc"/>
      <rect id="Rectángulo_378704" data-name="Rectángulo 378704" width="460" height="59" rx="12" transform="translate(308 1890.598)" fill="#ffdfcc"/>
      <rect id="Rectángulo_378705" data-name="Rectángulo 378705" width="460" height="59" rx="12" transform="translate(309 1957.161)" fill="#ffdfcc"/>
      <text id="Conciencia_y_sensibilidad_ante_el_ambiente_y_los_desafíos_ambientales._" data-name="Conciencia y sensibilidad ante el ambiente y los desafíos ambientales.
" transform="translate(324 1703.598)" font-size="16" font-family="Roboto-Regular, Roboto"><tspan x="0" y="15">Conciencia y sensibilidad ante el ambiente y los desafíos </tspan><tspan x="0" y="33">ambientales.</tspan></text>
      <text id="Actitudes_de_preocupación_por_el_ambiente_y_de_motivación_por_mejorar_o_mantener_la_calidad_ambiental._" data-name="Actitudes de preocupación por el ambiente y de motivación por mejorar o mantener la calidad ambiental.
" transform="translate(324 1833.034)" font-size="16" font-family="Roboto-Regular, Roboto"><tspan x="0" y="15">Actitudes de preocupación por el ambiente y de motivación </tspan><tspan x="0" y="33">por mejorar o mantener la calidad ambiental.</tspan></text>
      <text id="Conocimiento_y_entendimiento_del_ambiente_y_los_desafíos_ambientales._" data-name="Conocimiento y entendimiento del ambiente y los desafíos ambientales.
" transform="translate(324 1769.034)" font-size="16" font-family="Roboto-Regular, Roboto"><tspan x="0" y="15">Conocimiento y entendimiento del ambiente y los desafíos </tspan><tspan x="0" y="33">ambientales.</tspan></text>
      <text id="Habilidades_para_identificar_y_contribuir_a_resolver_los_desafíos_ambientales._" data-name="Habilidades para identificar y contribuir a resolver los desafíos ambientales.
" transform="translate(324 1905.598)" font-size="16" font-family="Roboto-Regular, Roboto"><tspan x="0" y="15">Habilidades para identificar y contribuir a resolver los </tspan><tspan x="0" y="33">desafíos ambientales.</tspan></text>
      <text id="Participación_en_actividades_que_contribuyan_a_resolver_los_desafíos_ambientales._" data-name="Participación en actividades que contribuyan a resolver los desafíos ambientales.
" transform="translate(325 1971.661)" font-size="16" font-family="Roboto-Regular, Roboto"><tspan x="0" y="15">Participación en actividades que contribuyan a resolver los </tspan><tspan x="0" y="33">desafíos ambientales.</tspan></text>
    </g>
    <g id="Grupo_1074950" data-name="Grupo 1074950" transform="translate(390 1326)" clip-path="url(#clip-path)">
      <g id="Grupo_1074949" data-name="Grupo 1074949" transform="translate(8)">
        <g id="Grupo_1074948" data-name="Grupo 1074948" clip-path="url(#clip-path-2)">
          <path id="Trazado_825353" data-name="Trazado 825353" d="M194.618,144.246A120.613,120.613,0,0,0,182.592,114.8c0-.017-.017-.017-.017-.033A121.619,121.619,0,0,0,76.809,53.369V77.082a97.761,97.761,0,0,1,25.525,3.363,96.738,96.738,0,0,1,23.746,9.893,98.812,98.812,0,0,1,35.9,36.176c.032.048.048.082.082.13a97.78,97.78,0,0,1,12.8,48.494c0,.178-.017.356-.017.548A97.276,97.276,0,0,1,161.5,224.569a.624.624,0,0,0-.08.145,97.625,97.625,0,0,1-15.55,20.029,99.689,99.689,0,0,1-20.255,15.469,97.864,97.864,0,0,1-48.8,12.963v23.714a121.275,121.275,0,0,0,60.6-16.115,122.55,122.55,0,0,0,44.549-44.21c0-.017.017-.017.017-.033a120.14,120.14,0,0,0,12.285-29.242,121.729,121.729,0,0,0,4.3-31.473c0-.226.015-.469.015-.678a121.642,121.642,0,0,0-3.96-30.891" transform="translate(65.516 45.523)" fill="#ededed"/>
          <path id="Trazado_825354" data-name="Trazado 825354" d="M76.811,119.473" transform="translate(65.518 101.908)" fill="#4d88d5"/>
          <path id="Trazado_825355" data-name="Trazado 825355" d="M76.811,119.473" transform="translate(65.518 101.908)" fill="#4d88d5"/>
          <path id="Trazado_825356" data-name="Trazado 825356" d="M76.811,119.473" transform="translate(65.518 101.908)" fill="#4d88d5"/>
          <path id="Trazado_825357" data-name="Trazado 825357" d="M76.811,119.473" transform="translate(65.518 101.908)" fill="#4d88d5"/>
          <path id="Trazado_825358" data-name="Trazado 825358" d="M76.811,119.473" transform="translate(65.518 101.908)" fill="#4d88d5"/>
          <path id="Trazado_825359" data-name="Trazado 825359" d="M76.811,119.473" transform="translate(65.518 101.908)" fill="#4d88d5"/>
          <path id="Trazado_825360" data-name="Trazado 825360" d="M76.811,119.473" transform="translate(65.518 101.908)" fill="#4d88d5"/>
          <path id="Trazado_825361" data-name="Trazado 825361" d="M76.811,119.473" transform="translate(65.518 101.908)" fill="#4d88d5"/>
          <path id="Trazado_825362" data-name="Trazado 825362" d="M76.811,119.473" transform="translate(65.518 101.908)" fill="#4d88d5"/>
          <path id="Trazado_825363" data-name="Trazado 825363" d="M76.811,119.473" transform="translate(65.518 101.908)" fill="#4d88d5"/>
          <path id="Trazado_825364" data-name="Trazado 825364" d="M76.811,119.473" transform="translate(65.518 101.908)" fill="#4d88d5"/>
          <path id="Trazado_825365" data-name="Trazado 825365" d="M76.811,119.473" transform="translate(65.518 101.908)" fill="#4d88d5"/>
          <path id="Trazado_825366" data-name="Trazado 825366" d="M76.811,119.473" transform="translate(65.518 101.908)" fill="#4d88d5"/>
          <path id="Trazado_825367" data-name="Trazado 825367" d="M76.811,119.473" transform="translate(65.518 101.908)" fill="#4d88d5"/>
          <path id="Trazado_825368" data-name="Trazado 825368" d="M76.811,119.473" transform="translate(65.518 101.908)" fill="#4d88d5"/>
          <path id="Trazado_825369" data-name="Trazado 825369" d="M76.811,119.473" transform="translate(65.518 101.908)" fill="#4d88d5"/>
          <path id="Trazado_825370" data-name="Trazado 825370" d="M76.811,119.473" transform="translate(65.518 101.908)" fill="#4d88d5"/>
          <path id="Trazado_825371" data-name="Trazado 825371" d="M76.811,119.473" transform="translate(65.518 101.908)" fill="#4d88d5"/>
          <path id="Trazado_825372" data-name="Trazado 825372" d="M76.811,119.473" transform="translate(65.518 101.908)" fill="#4d88d5"/>
          <path id="Trazado_825373" data-name="Trazado 825373" d="M76.811,119.473" transform="translate(65.518 101.908)" fill="#4d88d5"/>
          <path id="Trazado_825374" data-name="Trazado 825374" d="M76.811,119.473" transform="translate(65.518 101.908)" fill="#4d88d5"/>
          <path id="Trazado_825375" data-name="Trazado 825375" d="M76.811,119.473" transform="translate(65.518 101.908)" fill="#4d88d5"/>
          <path id="Trazado_825376" data-name="Trazado 825376" d="M76.811,119.473" transform="translate(65.518 101.908)" fill="#4d88d5"/>
          <path id="Trazado_825377" data-name="Trazado 825377" d="M76.811,119.473" transform="translate(65.518 101.908)" fill="#4d88d5"/>
          <path id="Trazado_825378" data-name="Trazado 825378" d="M76.811,119.473" transform="translate(65.518 101.908)" fill="#4d88d5"/>
          <path id="Trazado_825379" data-name="Trazado 825379" d="M76.811,119.473" transform="translate(65.518 101.908)" fill="#4d88d5"/>
          <path id="Trazado_825380" data-name="Trazado 825380" d="M76.811,119.473" transform="translate(65.518 101.908)" fill="#4d88d5"/>
          <path id="Trazado_825381" data-name="Trazado 825381" d="M76.811,119.473Z" transform="translate(65.518 101.908)" fill="#d03942"/>
          <path id="Trazado_825382" data-name="Trazado 825382" d="M181.96,157.687A121.523,121.523,0,0,1,76.809,218.012V194.3a97.929,97.929,0,0,0,48.8-12.963,99.618,99.618,0,0,0,20.253-15.47,97.551,97.551,0,0,0,15.55-20.027Z" transform="translate(65.516 124.397)" fill="#dd9937"/>
          <path id="Trazado_825383" data-name="Trazado 825383" d="M159.63,146.86c0,.209-.017.452-.017.678a121.729,121.729,0,0,1-4.3,31.473,120.211,120.211,0,0,1-12.285,29.242c0,.017-.017.017-.017.033l-20.544-11.85a.623.623,0,0,1,.08-.145,97.46,97.46,0,0,0,9.91-23.537,97.945,97.945,0,0,0,3.443-25.345c0-.195.017-.372.017-.55a97.756,97.756,0,0,0-12.8-48.494l20.529-11.848a120.647,120.647,0,0,1,12.028,29.451,121.727,121.727,0,0,1,3.96,30.891" transform="translate(104.463 73.798)" fill="#3c685c"/>
          <path id="Trazado_825384" data-name="Trazado 825384" d="M76.811,119.473Z" transform="translate(65.518 101.908)" fill="#4d88d5"/>
          <path id="Trazado_825385" data-name="Trazado 825385" d="M76.811,119.473Z" transform="translate(65.518 101.908)" fill="#4d88d5"/>
          <path id="Trazado_825386" data-name="Trazado 825386" d="M76.811,119.473" transform="translate(65.518 101.908)" fill="#4d88d5"/>
          <path id="Trazado_825387" data-name="Trazado 825387" d="M182.591,114.794l-20.529,11.848c-.031-.048-.048-.08-.081-.128a98.762,98.762,0,0,0-35.9-36.178,96.737,96.737,0,0,0-23.746-9.893A97.747,97.747,0,0,0,76.81,77.082V53.368a122,122,0,0,1,105.764,61.395c0,.015.017.015.017.031" transform="translate(65.517 45.522)" fill="#afcc63"/>
          <path id="Trazado_825388" data-name="Trazado 825388" d="M260.723,107.14A141.663,141.663,0,0,0,141.784,42.562a143.45,143.45,0,0,0-20.071,1.406H121.7A141.8,141.8,0,0,0,55.465,296.833v.007l.132.1q3.844,2.941,7.892,5.629A141.8,141.8,0,0,0,260.723,107.14M263.9,241.062A134.673,134.673,0,0,1,67.448,296.589q-3.847-2.549-7.493-5.346l-.122-.093v-.007A134.624,134.624,0,0,1,122.721,51.069h.007a136.112,136.112,0,0,1,19.056-1.336A134.671,134.671,0,0,1,263.9,241.062" transform="translate(0 36.304)" fill="#3c685c"/>
          <path id="Trazado_825389" data-name="Trazado 825389" d="M242.715,108.308A127.815,127.815,0,0,0,135.4,50.043a129.172,129.172,0,0,0-18.109,1.269h-.007A127.932,127.932,0,0,0,57.523,279.454v.007l.119.089q3.469,2.652,7.121,5.079A127.941,127.941,0,0,0,242.715,108.308m2.865,120.829a121.505,121.505,0,0,1-177.245,50.1q-3.472-2.3-6.76-4.823l-.113-.083v-.006A121.462,121.462,0,0,1,118.2,57.72h.007A122.7,122.7,0,0,1,135.4,56.514,121.5,121.5,0,0,1,245.58,229.137" transform="translate(6.38 42.686)" fill="#fff"/>
          <g id="Grupo_1074938" data-name="Grupo 1074938" transform="translate(38.783 116.421)" opacity="0.36" style="mix-blend-mode: multiply;isolation: isolate">
            <g id="Grupo_1074937" data-name="Grupo 1074937">
              <g id="Grupo_1074936" data-name="Grupo 1074936" clip-path="url(#clip-path-3)">
                <path id="Trazado_825390" data-name="Trazado 825390" d="M235.525,170.127A107.31,107.31,0,0,1,68.976,259.593q-3.069-2.032-5.972-4.26l-.1-.074v-.006A107.308,107.308,0,0,1,113.03,63.894h.007a108.658,108.658,0,0,1,15.189-1.065,107.272,107.272,0,0,1,107.3,107.3" transform="translate(-20.93 -62.829)" fill="#252626"/>
              </g>
            </g>
          </g>
          <path id="Trazado_825391" data-name="Trazado 825391" d="M228.864,167.1A104.337,104.337,0,0,1,66.931,254.088q-2.98-1.976-5.807-4.143l-.095-.07v-.007A104.33,104.33,0,0,1,109.766,63.815h.006a104.515,104.515,0,0,1,102.283,46.48,103.822,103.822,0,0,1,16.81,56.807" transform="translate(17.245 53.549)" fill="#734c36"/>
          <path id="Trazado_825392" data-name="Trazado 825392" d="M184.288,145.228a103.907,103.907,0,0,1-9.695,43.958c-5.694-4.936-11.3-13.584-15.7-18.459-7.093-7.849-6.71,5.559-13.8,5.943s-6.315-9.2-14.548-12.454a4.71,4.71,0,0,0-5.216.756c-3.661,3.132-4.957,11.335-8.659,11.375-5.06.063-6.626-15.771-8.235-22.232s11.19-3.495,7.933-10.971S98.551,155.6,95.679,149.656s-10.536-.769-20.5,1.347,10.349-17.442,17.431-17.016,15.328-5.59,18.2-9.613-5.175-.2-10.608.456.259-5.816.456-9.841-10.152,8.805-17.431,8.42,15.71-21.445,19.152-18.956,14.175,4.6,12.454,7.664-7.466.187-4.594,5.175c1.836,3.172,7.964-1.536,14.144-5.559,3.506-2.272,7.021-4.325,9.789-4.594,7.664-.767,19.547-6.326,14.942-10.92-4.23-4.241,15.244-7.332,18.356-7.8a103.748,103.748,0,0,1,16.819,56.8" transform="translate(61.826 75.423)" fill="#afcc63"/>
          <path id="Trazado_825393" data-name="Trazado 825393" d="M99.45,133.116s-9.45-3.7-8.555-6.769-7.918-1.4-11.11.639-6.51,8.952-10.214,9.137-1.662,13.849,3.574,15.891,7.916,1.916,11.876,1.023,10.471-2.555,9.832-.511-6.641,5.237-2.681,8.427,4.907,7.632,2.007,10.329,7.227,18.489,4.781,22.15,5.728,3.915,10.2-1.959,2.553-15.578,5.618-14.3,6.767-2.937,6.513-4.469-4.725-8.939-1.151-11.366,10.345-10.6,7.153-11.364-12.259-1.149-14.175-9.322-.384-10.6-6.513-9.706-7.151,2.172-7.151,2.172" transform="translate(57.732 106.331)" fill="#afcc63"/>
          <path id="Trazado_825394" data-name="Trazado 825394" d="M94,190.273c-2.681,2.874-3.639,4.214-4.119,7.088s-2.107,5.939-5.741,6.706-2.394,4.3-3.928,6.124-6.9,8.813-10.566,9.95c-1.186.371-2.066,2.49-2.713,5.185l-5.805-4.143-.1-.072V221.1a3.824,3.824,0,0,1-.193-2.227c.587-1.975,4.653-19.6,4.91-20.881s-4.6-.126-6.639.132-5.622-8.939-5.724-12.194,5.885-10.592,5.885-10.592-7.316.306-7.568-2.754-13.918-4.345-17.924-6.269-4.938-11.613-6.339-15.313c-.958-2.515-3.915,1.5-6.078,2.8a104.831,104.831,0,0,1,6.161-53.886c4.088.9,8.231,1.838,10.453,2.431,5.357,1.436,2.01-6.419,4.957-5.818s4.616,4.669,7.106,4.957,8.62,3.448.48,5.364-8.526,7.471-7.76,11.2,4.6,3.928,8.238,5.27.287,6.033,4.7,8.086.856-16.894,2.292-18.139,5.652-.478,8.718,5.166,7.566,8.238,10.243,8.244-3.539,6.124-4.688,6.736-6.8.347-9,1.975,6.513,1.149,5.687,2.292-3.1,3.167-6.969,5.136-3.795,8.185-4.753,9.813-3.352,6.8-6.035,3.543-10.4.593-10.4.593-.132,4.669-.035,7.256,10.243,2.107,10.243,2.107,1.916,6.226,3.736,6.035,9.387.1,10.92.574,9.291,2.97,10.442,3.257,6.608,2.872,5.075,4.788-.382,3.258,2.109,3.448S96.678,187.4,94,190.273" transform="translate(17.245 82.313)" fill="#afcc63"/>
          <path id="Trazado_825395" data-name="Trazado 825395" d="M103.653,79.178c-4.6,13.536-6.13,16.343-4.849,24.515s2.1,18.476-4.568,22.008-18.42,20.9-20.972,14-.293-27.107-13.936-33.089-14.926.91-23.611.652c-1.8-.054-3.652-.1-5.45-.156a104.333,104.333,0,0,1,70.925-43.775h.006a17.023,17.023,0,0,1,2.455,15.841" transform="translate(25.818 54.025)" fill="#afcc63"/>
          <rect id="Rectángulo_378684" data-name="Rectángulo 378684" width="9.458" height="22.855" transform="translate(64.598 79.17) rotate(-24.888)" fill="#3c685c"/>
          <g id="Grupo_1074941" data-name="Grupo 1074941" transform="translate(64.598 75.19)" opacity="0.44">
            <g id="Grupo_1074940" data-name="Grupo 1074940">
              <g id="Grupo_1074939" data-name="Grupo 1074939" clip-path="url(#clip-path-4)">
                <path id="Trazado_825396" data-name="Trazado 825396" d="M53.058,61.311,47.042,48.338l-3.6-7.76-8.579,3.98,3.6,7.76,5.2-2.413,6.017,12.973Z" transform="translate(-34.862 -40.578)" fill="#29463b"/>
              </g>
            </g>
          </g>
          <path id="Trazado_825397" data-name="Trazado 825397" d="M74.879,49.18,32.785,23.252,25.4,72.135,50.349,60.559Z" transform="translate(21.661 19.833)" fill="#afcc63"/>
          <path id="Trazado_825398" data-name="Trazado 825398" d="M26.695,63.535l-1.3,8.6L50.35,60.559,74.88,49.182,32.786,23.251s29.236,32.477-6.091,40.284" transform="translate(21.661 19.833)" fill="#96af4c"/>
          <path id="Trazado_825399" data-name="Trazado 825399" d="M64.182,38.515,29.321,17.039,23.2,57.526l20.668-9.587Z" transform="translate(19.788 14.534)" fill="#afcc63"/>
          <path id="Trazado_825400" data-name="Trazado 825400" d="M24.275,50.4,23.2,57.525l20.668-9.587,20.316-9.424L29.318,17.039s24.215,26.9-5.044,33.363" transform="translate(19.787 14.534)" fill="#96af4c"/>
          <path id="Trazado_825401" data-name="Trazado 825401" d="M53.425,28.16,26.051,11.3l-4.807,31.79,16.228-7.529Z" transform="translate(18.121 9.637)" fill="#afcc63"/>
          <path id="Trazado_825402" data-name="Trazado 825402" d="M22.09,37.495l-.845,5.592L37.473,35.56l15.952-7.4L26.052,11.3s19.013,21.118-3.962,26.2" transform="translate(18.122 9.638)" fill="#96af4c"/>
          <rect id="Rectángulo_378686" data-name="Rectángulo 378686" width="9.314" height="22.508" transform="translate(124.377 60.767) rotate(-4.53)" fill="#3c685c"/>
          <g id="Grupo_1074944" data-name="Grupo 1074944" transform="translate(124.377 60.033)" opacity="0.44">
            <g id="Grupo_1074943" data-name="Grupo 1074943">
              <g id="Grupo_1074942" data-name="Grupo 1074942" clip-path="url(#clip-path-5)">
                <path id="Trazado_825403" data-name="Trazado 825403" d="M78.185,54.835l-1.112-14.04-.665-8.4-9.285.736.665,8.4,5.627-.447,1.114,14.04Z" transform="translate(-67.123 -32.399)" fill="#29463b"/>
              </g>
            </g>
          </g>
          <path id="Trazado_825404" data-name="Trazado 825404" d="M109.569,51.3,79.586,12.937l-23.57,42.6L83.021,53.4Z" transform="translate(47.78 11.035)" fill="#afcc63"/>
          <path id="Trazado_825405" data-name="Trazado 825405" d="M60.163,48.044l-4.147,7.5L83.023,53.4l26.546-2.1L79.586,12.936s15.871,40-19.423,35.108" transform="translate(47.78 11.034)" fill="#96af4c"/>
          <path id="Trazado_825406" data-name="Trazado 825406" d="M102.023,37.985,77.191,6.213,57.668,41.5l22.367-1.771Z" transform="translate(49.19 5.3)" fill="#afcc63"/>
          <path id="Trazado_825407" data-name="Trazado 825407" d="M61.1,35.29,57.668,41.5l22.369-1.771,21.986-1.742L77.191,6.213S90.334,39.342,61.1,35.29" transform="translate(49.189 5.3)" fill="#96af4c"/>
          <path id="Trazado_825408" data-name="Trazado 825408" d="M94.266,24.947,74.767,0,59.439,27.706,77,26.314Z" transform="translate(50.7 0)" fill="#afcc63"/>
          <path id="Trazado_825409" data-name="Trazado 825409" d="M62.136,22.831,59.44,27.7,77,26.314l17.264-1.367L74.768,0S85.087,26.014,62.136,22.831" transform="translate(50.701)" fill="#96af4c"/>
          <rect id="Rectángulo_378688" data-name="Rectángulo 378688" width="20.356" height="8.425" transform="matrix(0.216, -0.976, 0.976, 0.216, 173.077, 82.457)" fill="#3c685c"/>
          <g id="Grupo_1074947" data-name="Grupo 1074947" transform="translate(175.833 62.582)" opacity="0.44">
            <g id="Grupo_1074946" data-name="Grupo 1074946">
              <g id="Grupo_1074945" data-name="Grupo 1074945" clip-path="url(#clip-path-6)">
                <path id="Trazado_825410" data-name="Trazado 825410" d="M100.362,55.471l2.755-12.437,1.649-7.438-8.225-1.821-1.649,7.438,4.986,1.1L97.123,54.754Z" transform="translate(-94.893 -33.773)" fill="#29463b"/>
              </g>
            </g>
          </g>
          <path id="Trazado_825411" data-name="Trazado 825411" d="M132.784,58.143,117.012,17.027l-31.666,30.6,23.924,5.3Z" transform="translate(72.798 14.523)" fill="#afcc63"/>
          <path id="Trazado_825412" data-name="Trazado 825412" d="M90.917,42.246l-5.57,5.385,23.922,5.3,23.516,5.211L117.011,17.027s3.133,38.8-26.094,25.219" transform="translate(72.799 14.524)" fill="#96af4c"/>
          <path id="Trazado_825413" data-name="Trazado 825413" d="M128.89,45.124,115.827,11.072,89.6,36.419l19.812,4.39Z" transform="translate(76.428 9.444)" fill="#afcc63"/>
          <path id="Trazado_825414" data-name="Trazado 825414" d="M94.215,31.959,89.6,36.419l19.814,4.39,19.475,4.316L115.826,11.072s2.6,32.131-21.611,20.887" transform="translate(76.428 9.444)" fill="#96af4c"/>
          <path id="Trazado_825415" data-name="Trazado 825415" d="M124.711,32.306,114.453,5.568l-20.592,19.9,15.558,3.447Z" transform="translate(80.061 4.749)" fill="#afcc63"/>
          <path id="Trazado_825416" data-name="Trazado 825416" d="M97.484,21.969l-3.623,3.5,15.558,3.447,15.291,3.389L114.453,5.568s2.036,25.23-16.97,16.4" transform="translate(80.061 4.749)" fill="#96af4c"/>
        </g>
      </g>
    </g>
  </g>
</svg>
