<svg xmlns="http://www.w3.org/2000/svg" xmlns:xlink="http://www.w3.org/1999/xlink" width="169" height="169" viewBox="0 0 169 169">
  <defs>
    <clipPath id="clip-path">
      <rect id="Rect치ngulo_378249" data-name="Rect치ngulo 378249" width="121.459" height="115" fill="none"/>
    </clipPath>
  </defs>
  <g id="Grupo_1073945" data-name="Grupo 1073945" transform="translate(-385.966 -2057.51)">
    <g id="Grupo_159182" data-name="Grupo 159182" transform="translate(385.966 2057.51)">
      <path id="Uni칩n_12" data-name="Uni칩n 12" d="M84.5,0A84.5,84.5,0,1,1,0,84.5,84.5,84.5,0,0,1,84.5,0Z" transform="translate(0 0)" fill="#ffae7e"/>
    </g>
    <g id="Grupo_1073949" data-name="Grupo 1073949" transform="translate(408.966 2084.51)">
      <g id="Grupo_1073948" data-name="Grupo 1073948" clip-path="url(#clip-path)">
        <path id="Trazado_823514" data-name="Trazado 823514" d="M84.215,15.03a15.761,15.761,0,0,1-1.987.148,40.115,40.115,0,0,0-5.019.562c-2.027.333-3.977.925-5.952,1.44-.379.1-.236.3-.185.478.181.624.418,1.227.587,1.859A3.048,3.048,0,0,1,68,23.212c-1.479-.294-2.97-.505-4.466-.689a24.763,24.763,0,0,1-2.813-.382c-1.347-.328-2.725-.284-4.07-.552-1.515-.3-3.058-.431-4.584-.674a22.268,22.268,0,0,0-3.2-.426,3.124,3.124,0,0,1-3.038-2.04,2.731,2.731,0,0,1,.593-2.882c2.27-2.443,4.633-4.8,7-7.146,1-.991,1.993-1.987,2.955-3.017.421-.451.916-.851,1.354-1.3.99-1.01,1.959-2.039,2.949-3.048A3.045,3.045,0,0,1,63.084.007,2.82,2.82,0,0,1,65.924,2.4a1.446,1.446,0,0,0,.1.379c.392.741.387.771,1.179.5a54.039,54.039,0,0,1,5.538-1.569c1.489-.335,3.012-.52,4.524-.746a45.575,45.575,0,0,1,5.656-.4,11.788,11.788,0,0,0,2.73-.16c-.036.092.007.136.092.137s.188.056.19-.1a12.151,12.151,0,0,0,2.491.245c1.764.132,3.511.335,5.262.588,2.3.331,4.522.953,6.773,1.474A48.082,48.082,0,0,1,106.764,5a51.737,51.737,0,0,1,13.312,7.874,64.47,64.47,0,0,1,5.31,4.748,37.188,37.188,0,0,1,3.42,3.793,65.188,65.188,0,0,1,5.983,8.966c.757,1.413,1.329,2.934,2.023,4.373.9,1.873,1.45,3.913,2.859,5.585a22.217,22.217,0,0,1,3.523,6.053,31.953,31.953,0,0,1,1.679,6.035,25.882,25.882,0,0,1,.514,5.153,30.864,30.864,0,0,1-.871,6.517,27.21,27.21,0,0,1-3.085,8.067,22.935,22.935,0,0,1-3.264,4.519c-.892.892-1.747,1.827-2.665,2.7a26.847,26.847,0,0,1-3.692,2.9,28.583,28.583,0,0,1-6.444,3.061,29.051,29.051,0,0,1-5.221,1.294,2.775,2.775,0,0,1-1.6.062c-.247-.1-.605.037-.907.1a17.037,17.037,0,0,1-3.828.081,2.92,2.92,0,0,1-1.572-.287c-.241-.156-.5.106-.826.024-1.891-.476-3.809-.861-5.651-1.5a29.157,29.157,0,0,1-3.132-1.4,27.23,27.23,0,0,1-8.509-6.621,29.05,29.05,0,0,1-7.3-15.471,27.144,27.144,0,0,1-.265-4.4,28.672,28.672,0,0,1,6.091-17.547,31.5,31.5,0,0,1,7.512-6.9,25.884,25.884,0,0,1,6.937-3.3,30.2,30.2,0,0,1,5.462-1.155,9.31,9.31,0,0,0,2.73-.318c-.29-.274-.558-.525-.824-.779a36.2,36.2,0,0,0-3.66-3.139c-1.253-.909-2.515-1.8-3.842-2.617s-2.714-1.5-4.077-2.234a28.066,28.066,0,0,0-5.58-2.236c-1.2-.343-2.429-.613-3.62-.992a1.891,1.891,0,0,1-1.563-2.12,1.536,1.536,0,0,0,.208-.283,1.651,1.651,0,0,1,2.162-.973,33.958,33.958,0,0,1,3.3.85,45.394,45.394,0,0,1,21.994,14.454,1.771,1.771,0,0,0,1.149.65,27.188,27.188,0,0,1,10.382,3.916c.122.077.231.176.37.108.171-.084.055-.245.061-.372a.926.926,0,0,0-.2-.487,55.877,55.877,0,0,0-5.883-8.574,25.324,25.324,0,0,0-2.248-2.328c-1.036-.971-1.952-2.067-2.947-3.083a35.963,35.963,0,0,0-2.93-2.441,45.648,45.648,0,0,0-6.675-4.48A53.5,53.5,0,0,0,91.154,4.392c-1.966-.252-3.947-.261-5.922-.347a37.05,37.05,0,0,0-3.837.087c-1.76.107-3.508.292-5.243.568a53.353,53.353,0,0,0-9.584,2.475,2.371,2.371,0,0,1-3.237-1.607c-.122-.354-.249-.706-.358-1.065s-.249-.438-.546-.131Q60.511,6.353,58.57,8.309q-4.185,4.2-8.391,8.372c-.072.072-.18.123-.123.225a.371.371,0,0,0,.287.177c1.864.264,3.727.541,5.592.8,1.274.178,2.552.327,3.826.509.962.137,1.914.375,2.88.442,1.614.112,3.191.47,4.8.629.494.049.6-.022.449-.493-.175-.544-.389-1.076-.548-1.624a2.281,2.281,0,0,1,1.436-2.968c.419-.171.853-.3,1.283-.45a44.079,44.079,0,0,1,11.664-2.293c1.182-.068,2.371-.013,3.556-.014,1.3,0,1.851.517,1.895,1.776-.036,1.111-.733,1.47-1.551,1.647a2.946,2.946,0,0,1-1.338-.016l-.034-.077-.034.076m22.523,28.483a12.726,12.726,0,0,1,1.65.073,8.138,8.138,0,0,1,4,2.292c1.679,1.7,3.382,3.382,5.048,5.1.323.333.475.3.778-.013,1.74-1.781,3.485-3.557,5.263-5.3a7.7,7.7,0,0,1,9.332-1.069,9.031,9.031,0,0,1,1.862,1.549c2.061,2.123,4.247,4.122,6.246,6.307.068.074.2.159.282.138.179-.049.035-.181.029-.283a11.2,11.2,0,0,0-.575-2.372,24.5,24.5,0,0,0-3.843-7.693,25.782,25.782,0,0,0-4.275-4.545,23.077,23.077,0,0,0-6.155-3.835,25.613,25.613,0,0,0-5.337-1.639,39.427,39.427,0,0,0-5.207-.552,34.694,34.694,0,0,0-4.314.361,19.361,19.361,0,0,0-2.209.43,6.6,6.6,0,0,0-1.811.6,31.255,31.255,0,0,0-2.953,1.225c-.581.388-1.264.622-1.85,1A26.537,26.537,0,0,0,97.929,39a27.8,27.8,0,0,0-3.136,3.646A30.078,30.078,0,0,0,91.4,49.367a26.15,26.15,0,0,0-1.029,4.356,12.42,12.42,0,0,0-.251,2.249c0,.144-.089.349.076.429.215.1.3-.134.416-.249Q95.8,51.03,100.987,45.9a7.179,7.179,0,0,1,5.75-2.391M92.719,59.049c.133.167.322.162.475.232a9.414,9.414,0,0,1,3.148,1.846c.284.3.558.609.85.9q10.071,10.065,20.134,20.138c.73.734,1.383,1.378,2.494.829.063-.031.157,0,.235-.006a17.876,17.876,0,0,0,2.431-.482c.318-.085.488-.223.135-.531-.431-.375-.827-.791-1.23-1.2q-3.92-3.954-7.835-7.911c-1.182-1.193-2.376-2.373-3.545-3.578a1.754,1.754,0,0,1-.619-1.746,1.811,1.811,0,0,1,2.938-.848c.248.254.52.485.771.736,1.981,1.99,3.953,3.988,5.94,5.972,2.443,2.441,4.9,4.868,7.341,7.314.173.174.261.234.516.157a12.764,12.764,0,0,0,2.632-1.315c.7-.4.686-.414.137-.964q-4.229-4.24-8.458-8.48-3.539-3.544-7.085-7.082c-3.259-3.251-6.547-6.472-9.774-9.755-1.576-1.6-4.869-1.378-6.072.245-.322.434-.2.462.185.593a8.232,8.232,0,0,1,3.332,2.016c1.4,1.424,2.837,2.806,4.225,4.239a3.2,3.2,0,0,1,.919,1.251,1.606,1.606,0,0,1-.813,2,1.493,1.493,0,0,1-2.075-.264c-.181-.153-.347-.323-.514-.491q-2.087-2.1-4.172-4.208a4.417,4.417,0,0,0-4.515-1.111,5.227,5.227,0,0,0-2.128,1.5m14.162-12.1a4.5,4.5,0,0,0-3.32,1.343c-.382.4-.388.462.128.648a9.2,9.2,0,0,1,3.485,2.153q11.69,11.714,23.412,23.4c.679.678,1.364,1.353,2.021,2.053.321.342.573.312.872-.006.569-.6,1.123-1.224,1.736-1.778.434-.393.341-.671-.014-1.024-1.26-1.252-2.506-2.519-3.762-3.775q-10.85-10.85-21.7-21.7a4.475,4.475,0,0,0-2.864-1.309M91.187,62.486c-.361-.032-.722.03-.57.483.265.795.412,1.623.691,2.408a32.587,32.587,0,0,0,2.2,4.992,32.122,32.122,0,0,0,2.847,4.07,17.223,17.223,0,0,0,3.74,3.466c.37.26.609.695.983.895.791.423,1.595.852,2.33,1.339a17.684,17.684,0,0,0,3.828,1.7,27.934,27.934,0,0,0,5.466,1.372.5.5,0,0,0,.47-.16c.073-.092-.1-.228-.2-.323-.259-.244-.524-.48-.774-.732q-5-5.035-9.988-10.073c-2.661-2.675-5.341-5.331-8-8.008a4.858,4.858,0,0,0-3.019-1.43M123.66,52.3a3.86,3.86,0,0,0-2.551.687c-.822.539-.823.817-.143,1.487.056.055.109.114.165.17q8.124,8.126,16.24,16.259c.394.4.591.315.822-.11.479-.883.973-1.758,1.379-2.679.521-1.183.525-1.181-.367-2.058q-.254-.249-.505-.5Q132.77,59.632,126.845,53.7a3.888,3.888,0,0,0-3.186-1.4m5.153-5.247a4.056,4.056,0,0,0-3.084,1.283c-.443.519-.179.6.234.719a7.435,7.435,0,0,1,3.185,1.933q3.873,3.871,7.74,7.747,1.96,1.962,3.916,3.928c.324.326.468.337.556-.178.219-1.275.3-2.564.443-3.846a.735.735,0,0,0-.23-.639q-4.976-4.952-9.95-9.9a3.621,3.621,0,0,0-2.81-1.043" transform="translate(-23.928 -0.001)"/>
        <path id="Trazado_823515" data-name="Trazado 823515" d="M33.659,136.715a1.982,1.982,0,0,1-2.944.255c-1.213-.809-2.465-1.56-3.654-2.4a15.225,15.225,0,0,1-2.019-1.6c-.314-.313-.736-.514-1.069-.812-.9-.8-1.779-1.623-2.657-2.448a56.252,56.252,0,0,1-5.926-6.769,54.7,54.7,0,0,1-7.248-12.411,7.7,7.7,0,0,1-.278-.773,12.89,12.89,0,0,0-2.255-4.18,25.142,25.142,0,0,1-4.3-8.5A43.389,43.389,0,0,1,.246,92.189a31.4,31.4,0,0,1-.2-5.995,22.582,22.582,0,0,1,.727-4.651,28.168,28.168,0,0,1,2.35-6.338,29.913,29.913,0,0,1,3.337-5.088,28.449,28.449,0,0,1,2.645-2.842,29.855,29.855,0,0,1,6.109-4.584,29.682,29.682,0,0,1,7.635-2.856,24.225,24.225,0,0,1,4.59-.673c.937-.028,1.881-.117,2.817-.071a33.45,33.45,0,0,1,7.093,1.1,28.614,28.614,0,0,1,13.919,8.731,31.366,31.366,0,0,1,5.295,8.292,29.2,29.2,0,0,1,1.35,4.432c.269,1.034.322,2.105.653,3.123a5.748,5.748,0,0,1,.128,1.27,22.142,22.142,0,0,1,.017,4.989c-.158,1.161-.393,2.306-.641,3.454-.278,1.286-.652,2.536-.99,3.8a19.178,19.178,0,0,1-1.433,3.478,28.41,28.41,0,0,1-7.185,9.019,29.049,29.049,0,0,1-6.847,4.393,30.29,30.29,0,0,1-6.724,2.137,30.636,30.636,0,0,1-4.679.6c-.085.182.1.229.181.314a41.044,41.044,0,0,0,6.137,5.17,42.408,42.408,0,0,0,8.862,4.665,41.688,41.688,0,0,0,5.894,1.872c1.346.314,2.734.449,4.1.661a40.36,40.36,0,0,0,6.863.329,16.864,16.864,0,0,0,3-.3c.825-.162,1.7-.125,2.543-.265,1.931-.321,3.811-.846,5.7-1.344.24-.063.389-.4.7-.23.026-.136.144-.221.087-.412-.2-.675-.451-1.336-.66-2.009a2.839,2.839,0,0,1,2.64-3.518,41.777,41.777,0,0,1,4.553.58c1.015.161,2.04.252,3.058.4,1.857.263,3.715.52,5.569.8,1.262.192,2.54.314,3.808.486,1.417.192,2.852.306,4.242.622a2.872,2.872,0,0,1,1.491,4.606,5.723,5.723,0,0,1-.5.582c-4.241,4.449-8.674,8.7-13.011,13.058a7.605,7.605,0,0,1-1.888,1.664,2.649,2.649,0,0,1-3.225-.472,3.429,3.429,0,0,1-1.1-2.129c-.048-.612-.363-.546-.744-.436-.737.213-1.48.415-2.2.675a25.71,25.71,0,0,1-3.151.808c-1.993.446-4,.8-6.028,1.071a61.417,61.417,0,0,1-9.538.251,43.887,43.887,0,0,1-5.412-.511,12.924,12.924,0,0,1-2.963-.636,18.723,18.723,0,0,0-2.436-.514,46.877,46.877,0,0,1-6.182-1.979c-.5-.2-1.02-.341-1.512-.577a1.857,1.857,0,0,1-1.132-2.419,1.916,1.916,0,0,1,1.231-.945,3.249,3.249,0,0,1,1.809.363A53.348,53.348,0,0,0,53.173,141.4a44.707,44.707,0,0,0,5.07.522,58.457,58.457,0,0,0,7.536-.2c1.766-.2,3.533-.4,5.27-.749a57.532,57.532,0,0,0,7.821-2.165,2.331,2.331,0,0,1,3.092,1.385c.175.417.319.847.459,1.277.129.4.273.46.593.134q3.927-3.993,7.875-7.966,2.022-2.043,4.044-4.087c.134-.136.334-.269.279-.483-.043-.17-.247-.137-.4-.171-1.261-.288-2.562-.266-3.826-.488-2.141-.375-4.3-.583-6.446-.94-1.591-.265-3.2-.377-4.789-.682-.783-.151-1.589-.178-2.512-.274a6.311,6.311,0,0,1,.713,1.745,2.441,2.441,0,0,1-1.593,3.462,47.376,47.376,0,0,1-13.346,2.732,39.974,39.974,0,0,1-8.1-.342c-1.56-.231-3.118-.488-4.656-.843-1.46-.337-2.889-.775-4.313-1.247a42.088,42.088,0,0,1-4.8-1.921c-1.59-.754-3.118-1.641-4.653-2.507a37.2,37.2,0,0,1-5.6-4.119,38.819,38.819,0,0,1-4.685-4.67c-.506-.6-.98-1.323-1.908-1.4-.435-.037-.867-.123-1.3-.2a24.082,24.082,0,0,1-3.252-.928,17.537,17.537,0,0,1-3.7-1.632c-.69-.416-1.41-.781-2.111-1.179-.148-.084-.277-.155-.423-.025-.161.143.011.265.063.355,1,1.758,2.008,3.52,3.169,5.181a53.627,53.627,0,0,0,5.974,7.184c.517.518,1.1.984,1.609,1.492.851.848,1.761,1.614,2.679,2.374a61.109,61.109,0,0,0,5.977,4.226,1.824,1.824,0,0,1,.673,2.458M29.223,114.3a18.094,18.094,0,0,0,3.528-.186c.4-.063.462-.216.471-.564a9.637,9.637,0,0,1,.151-2,12.8,12.8,0,0,1,5.246-7.89,1.279,1.279,0,0,0,.539-.811,10.878,10.878,0,0,1,2.423-4.618c.245-.283.213-.443-.037-.679-3.222-3.035-6.289-6.226-9.426-9.347-3.012-3-5.99-6.026-9.006-9.018a4.1,4.1,0,0,0-5.977-.042c-4.387,4.332-8.743,8.695-13.122,13.036-.142.141-.235.255-.189.443.275,1.121.54,2.245.838,3.36.157.589.233.595.724.2a9.125,9.125,0,0,1,4.544-2,9.78,9.78,0,0,1,8.137,2.392A8.991,8.991,0,0,1,21.25,102.1a2.819,2.819,0,0,0,1.09,2.186,8.357,8.357,0,0,1,2.874,9.341c-.106.314.012.409.319.459a17.625,17.625,0,0,0,3.69.225m25.4-30.742a1.382,1.382,0,0,0,.046-.78c-.278-.967-.53-1.944-.864-2.892A25.95,25.95,0,0,0,45.5,68.239,22.771,22.771,0,0,0,40.95,65.3a24.617,24.617,0,0,0-6.009-2.013,46.629,46.629,0,0,0-5.182-.647,19.762,19.762,0,0,0-3.17.135,14.107,14.107,0,0,0-2.529.386c-1.064.292-2.147.536-3.194.9-.666.232-1.359.412-2,.655a12.278,12.278,0,0,0-1.705,1,29.671,29.671,0,0,0-4.189,2.825A26.319,26.319,0,0,0,8.62,73.093,25.959,25.959,0,0,0,3.593,87.029c-.006.124-.1.288.078.358.156.062.248-.069.346-.167q.838-.838,1.679-1.674,4.451-4.434,8.9-8.868A7.42,7.42,0,0,1,19.251,74.4,7.822,7.822,0,0,1,25.8,76.808c1.653,1.7,3.352,3.354,5.007,5.052.352.361.555.415.936.021,1.716-1.774,3.445-3.537,5.209-5.262A7.453,7.453,0,0,1,43.1,74.5a7.321,7.321,0,0,1,4.545,2.132c1.873,1.835,3.706,3.708,5.522,5.6.443.461.946.865,1.455,1.327m-12.048-5.51A3.909,3.909,0,0,0,39.258,79.3q-2.547,2.564-5.12,5.1c-.31.3-.333.464-.007.785,2.053,2.024,4.08,4.075,6.117,6.116q1.967,1.97,3.942,3.933c.234.232.451.471.866.247a11.327,11.327,0,0,1,8.931-.893c.412.122.6.022.677-.417.177-.969.3-1.941.416-2.921.14-1.2.284-2.344-.916-3.138a3.591,3.591,0,0,1-.509-.495c-2.694-2.7-5.378-5.4-8.086-8.085a3.763,3.763,0,0,0-3-1.488M11.215,97.618a6.408,6.408,0,0,0-4.58,2.143.579.579,0,0,0-.093.786A30.5,30.5,0,0,0,8.8,104.088a25.991,25.991,0,0,0,12.295,8.883c.532.19.711.017.829-.427a5.525,5.525,0,0,0,.076-2.46,5,5,0,0,0-2.539-3.584,2.818,2.818,0,0,1-1.429-2.063,18.262,18.262,0,0,0-.284-2.078,6.589,6.589,0,0,0-6.528-4.743m38.432.111a6.393,6.393,0,0,0-2.45.608,8.04,8.04,0,0,0-4.68,5.472,4.225,4.225,0,0,1-1.738,2.668,8.945,8.945,0,0,0-3.925,6.031c-.132.693-.08.741.588.515a25.839,25.839,0,0,0,15.8-14.388c.2-.429.093-.583-.355-.688a11.4,11.4,0,0,0-3.236-.218" transform="translate(0 -30.973)"/>
        <path id="Trazado_823516" data-name="Trazado 823516" d="M92.02,17.833c-.044-1.259-.6-1.778-1.895-1.776-1.186,0-2.374-.053-3.556.014a44.06,44.06,0,0,0-11.664,2.294c-.429.145-.864.278-1.283.45a2.281,2.281,0,0,0-1.436,2.968c.159.548.373,1.08.548,1.624.151.471.044.542-.449.493-1.606-.159-3.183-.518-4.8-.629-.965-.067-1.918-.3-2.88-.441-1.274-.182-2.552-.331-3.826-.51-1.865-.261-3.728-.539-5.592-.8a.371.371,0,0,1-.287-.177c-.057-.1.051-.153.123-.225q4.2-4.18,8.391-8.372,1.946-1.952,3.856-3.939c.3-.307.433-.237.546.132s.236.71.358,1.064a2.371,2.371,0,0,0,3.237,1.607A53.382,53.382,0,0,1,81,9.133c1.735-.276,3.483-.461,5.243-.567a36.786,36.786,0,0,1,3.837-.087c1.975.086,3.956.095,5.922.346a53.493,53.493,0,0,1,19.713,6.447,45.69,45.69,0,0,1,6.675,4.481,35.659,35.659,0,0,1,2.93,2.441c.995,1.015,1.911,2.112,2.947,3.083a25.321,25.321,0,0,1,2.248,2.327,55.854,55.854,0,0,1,5.883,8.574.924.924,0,0,1,.2.486c-.006.127.11.288-.061.372-.139.068-.248-.032-.37-.108a27.188,27.188,0,0,0-10.382-3.916,1.774,1.774,0,0,1-1.149-.65,45.4,45.4,0,0,0-21.994-14.453,33.821,33.821,0,0,0-3.3-.85,1.651,1.651,0,0,0-2.162.973,1.5,1.5,0,0,1-.208.282,48.829,48.829,0,0,0-4.947-.48" transform="translate(-28.776 -4.434)" fill="#e19873"/>
        <path id="Trazado_823517" data-name="Trazado 823517" d="M48.478,196.548a1.823,1.823,0,0,0-.673-2.458,61.116,61.116,0,0,1-5.977-4.226c-.919-.76-1.829-1.526-2.679-2.374-.51-.509-1.093-.975-1.609-1.493a53.567,53.567,0,0,1-5.974-7.184c-1.161-1.661-2.165-3.422-3.169-5.181-.052-.09-.224-.212-.062-.355.146-.129.274-.059.422.025.7.4,1.421.764,2.111,1.18a17.522,17.522,0,0,0,3.7,1.631,24.08,24.08,0,0,0,3.252.928c.431.075.863.161,1.3.2.928.078,1.4.8,1.909,1.4a38.78,38.78,0,0,0,4.685,4.67,37.169,37.169,0,0,0,5.6,4.119c1.535.865,3.063,1.753,4.653,2.507a42.058,42.058,0,0,0,4.8,1.921c1.424.472,2.854.911,4.313,1.247,1.538.355,3.1.612,4.656.843a39.973,39.973,0,0,0,8.1.342,47.365,47.365,0,0,0,13.347-2.732,2.441,2.441,0,0,0,1.592-3.461,6.3,6.3,0,0,0-.713-1.745c.922.1,1.729.124,2.512.274,1.587.305,3.2.417,4.789.682,2.142.357,4.3.565,6.446.94,1.264.222,2.565.2,3.826.488.153.035.356,0,.4.171.055.214-.146.348-.279.483q-2.019,2.047-4.044,4.088-3.94,3.98-7.875,7.966c-.32.325-.464.261-.593-.134-.14-.43-.284-.86-.459-1.277a2.331,2.331,0,0,0-3.092-1.385,57.513,57.513,0,0,1-7.821,2.164c-1.737.346-3.5.554-5.27.749a58.454,58.454,0,0,1-7.536.2,44.617,44.617,0,0,1-5.07-.522,53.349,53.349,0,0,1-12.171-3.222,3.249,3.249,0,0,0-1.809-.363,1.918,1.918,0,0,0-1.231.945c-.889-.431-1.793-.837-2.664-1.3a12.988,12.988,0,0,0-1.639-.745" transform="translate(-14.819 -90.806)" fill="#61dafa"/>
        <path id="Trazado_823518" data-name="Trazado 823518" d="M130.02.815c0,.152-.114.1-.19.1s-.128-.046-.092-.137c.111-.093.209-.108.282.042" transform="translate(-68.011 -0.369)" fill="#e19873"/>
        <path id="Trazado_823519" data-name="Trazado 823519" d="M126.724,31.509c.011-.026.022-.051.034-.077l.034.077-.034.027Z" transform="translate(-66.437 -16.479)" fill="#e19873"/>
        <path id="Trazado_823520" data-name="Trazado 823520" d="M155.731,78.4a7.181,7.181,0,0,0-5.75,2.391q-5.186,5.124-10.372,10.249c-.117.115-.2.353-.416.249-.166-.079-.075-.284-.076-.429a12.37,12.37,0,0,1,.251-2.249,26.168,26.168,0,0,1,1.029-4.357,30.044,30.044,0,0,1,3.389-6.724,27.773,27.773,0,0,1,3.136-3.646,26.493,26.493,0,0,1,4.769-3.714c.586-.382,1.269-.615,1.85-1a31.383,31.383,0,0,1,2.953-1.225,6.6,6.6,0,0,1,1.811-.6,19.259,19.259,0,0,1,2.209-.43,34.686,34.686,0,0,1,4.314-.361,39.331,39.331,0,0,1,5.206.552,25.607,25.607,0,0,1,5.337,1.639,23.067,23.067,0,0,1,6.155,3.836,25.762,25.762,0,0,1,4.275,4.544,24.5,24.5,0,0,1,3.843,7.693,11.2,11.2,0,0,1,.575,2.372c.006.1.15.235-.029.283-.077.021-.213-.064-.282-.138-2-2.185-4.185-4.184-6.246-6.307a9.029,9.029,0,0,0-1.863-1.549,7.7,7.7,0,0,0-9.332,1.069c-1.778,1.743-3.524,3.519-5.263,5.3-.3.311-.455.345-.778.012-1.667-1.714-3.369-3.393-5.048-5.1a8.147,8.147,0,0,0-4-2.292,12.811,12.811,0,0,0-1.65-.073" transform="translate(-72.922 -34.888)" fill="#c7eefd"/>
        <path id="Trazado_823521" data-name="Trazado 823521" d="M144.6,116.556a5.22,5.22,0,0,1,2.127-1.5,4.416,4.416,0,0,1,4.515,1.111q2.09,2.1,4.172,4.209c.167.168.333.338.514.49a1.492,1.492,0,0,0,2.075.264,1.606,1.606,0,0,0,.813-2,3.2,3.2,0,0,0-.919-1.251c-1.388-1.433-2.828-2.815-4.225-4.239a8.234,8.234,0,0,0-3.332-2.016c-.386-.13-.506-.159-.185-.593,1.2-1.623,4.5-1.849,6.073-.245,3.225,3.283,6.514,6.505,9.773,9.755q3.548,3.537,7.085,7.082,4.232,4.237,8.459,8.48c.549.55.558.566-.137.964a12.751,12.751,0,0,1-2.632,1.315c-.255.077-.343.017-.516-.157-2.439-2.446-4.9-4.873-7.341-7.314-1.987-1.984-3.959-3.982-5.939-5.972-.251-.252-.523-.482-.771-.736a1.812,1.812,0,0,0-2.939.848,1.756,1.756,0,0,0,.62,1.746c1.169,1.205,2.362,2.386,3.544,3.578q3.919,3.955,7.835,7.911c.4.406.8.822,1.23,1.2.354.308.184.446-.134.531a17.894,17.894,0,0,1-2.431.482c-.078.01-.171-.025-.235.006-1.11.549-1.763-.1-2.493-.829q-10.044-10.092-20.134-20.138c-.292-.292-.566-.6-.85-.9a9.414,9.414,0,0,0-3.148-1.846c-.153-.07-.342-.065-.475-.232" transform="translate(-75.809 -57.507)" fill="#baea6b"/>
        <path id="Trazado_823522" data-name="Trazado 823522" d="M170.406,98.68a4.473,4.473,0,0,1,2.864,1.309q10.838,10.86,21.7,21.7c1.256,1.256,2.5,2.523,3.762,3.775.355.353.448.63.014,1.024-.613.555-1.167,1.176-1.736,1.778-.3.318-.552.347-.873.006-.657-.7-1.342-1.375-2.021-2.053q-11.709-11.7-23.412-23.4a9.2,9.2,0,0,0-3.486-2.153c-.517-.186-.511-.25-.128-.648a4.5,4.5,0,0,1,3.32-1.343" transform="translate(-87.454 -51.735)" fill="#baea6b"/>
        <path id="Trazado_823523" data-name="Trazado 823523" d="M140.711,131.339a4.856,4.856,0,0,1,3.019,1.43c2.658,2.677,5.338,5.333,8,8.008q5,5.029,9.988,10.073c.25.252.515.489.774.732.1.094.275.231.2.322a.5.5,0,0,1-.47.16,27.9,27.9,0,0,1-5.466-1.372,17.71,17.71,0,0,1-3.828-1.7c-.735-.487-1.539-.916-2.33-1.339-.374-.2-.613-.634-.983-.894a17.223,17.223,0,0,1-3.74-3.466,32.12,32.12,0,0,1-2.847-4.07,32.585,32.585,0,0,1-2.2-4.992c-.279-.785-.426-1.613-.691-2.408-.151-.452.21-.515.571-.483" transform="translate(-73.453 -68.853)" fill="#baea6b"/>
        <path id="Trazado_823524" data-name="Trazado 823524" d="M206.125,109.923a3.887,3.887,0,0,1,3.186,1.4q5.921,5.931,11.853,11.854c.167.167.336.333.505.5.892.877.888.875.367,2.058-.405.921-.9,1.8-1.379,2.679-.231.425-.428.506-.822.11q-8.106-8.143-16.24-16.259c-.056-.056-.109-.115-.165-.17-.681-.67-.679-.947.143-1.487a3.86,3.86,0,0,1,2.551-.687" transform="translate(-106.394 -57.62)" fill="#baea6b"/>
        <path id="Trazado_823525" data-name="Trazado 823525" d="M216.818,98.909a3.621,3.621,0,0,1,2.81,1.043q4.989,4.938,9.95,9.9a.735.735,0,0,1,.23.639c-.142,1.283-.224,2.571-.443,3.846-.088.515-.233.5-.556.178q-1.952-1.97-3.916-3.928-3.869-3.874-7.74-7.747a7.435,7.435,0,0,0-3.185-1.933c-.413-.121-.677-.2-.234-.719a4.056,4.056,0,0,1,3.084-1.283" transform="translate(-111.934 -51.853)" fill="#baea6b"/>
        <path id="Trazado_823526" data-name="Trazado 823526" d="M33.425,135.021a17.66,17.66,0,0,1-3.69-.225c-.306-.05-.425-.145-.319-.459A8.356,8.356,0,0,0,26.542,125a2.819,2.819,0,0,1-1.09-2.186,8.986,8.986,0,0,0-3.183-5.516,9.78,9.78,0,0,0-8.137-2.392,9.12,9.12,0,0,0-4.544,2c-.49.4-.566.392-.724-.2-.3-1.115-.563-2.239-.838-3.36-.046-.188.047-.3.188-.444,4.378-4.341,8.735-8.7,13.122-13.036a4.1,4.1,0,0,1,5.976.042c3.016,2.992,5.995,6.021,9.006,9.017,3.137,3.121,6.2,6.312,9.426,9.348.25.235.282.4.037.679a10.884,10.884,0,0,0-2.423,4.617,1.279,1.279,0,0,1-.539.812,12.8,12.8,0,0,0-5.245,7.89,9.632,9.632,0,0,0-.151,2c-.009.348-.073.5-.471.564a18.133,18.133,0,0,1-3.529.186" transform="translate(-4.202 -51.689)" fill="#e19873"/>
        <path id="Trazado_823527" data-name="Trazado 823527" d="M58.547,87.456c-.51-.462-1.012-.865-1.455-1.327-1.816-1.892-3.649-3.765-5.523-5.6A7.32,7.32,0,0,0,47.024,78.4a7.451,7.451,0,0,0-6.148,2.115c-1.764,1.725-3.493,3.488-5.209,5.262-.381.393-.584.339-.936-.022-1.655-1.7-3.353-3.352-5.007-5.051a7.824,7.824,0,0,0-6.545-2.412,7.419,7.419,0,0,0-4.654,2.283q-4.446,4.439-8.9,8.868-.84.836-1.679,1.674c-.1.1-.19.229-.346.167-.177-.071-.084-.235-.078-.358a25.963,25.963,0,0,1,5.027-13.936A26.34,26.34,0,0,1,16.9,72.428,29.643,29.643,0,0,1,21.086,69.6a12.245,12.245,0,0,1,1.705-1c.645-.243,1.339-.423,2-.655,1.046-.363,2.129-.608,3.194-.9a14.109,14.109,0,0,1,2.528-.386,19.772,19.772,0,0,1,3.17-.135,46.63,46.63,0,0,1,5.182.647,24.624,24.624,0,0,1,6.009,2.013,22.785,22.785,0,0,1,4.545,2.941,25.957,25.957,0,0,1,8.306,11.652c.334.948.585,1.925.863,2.892a1.381,1.381,0,0,1-.046.78" transform="translate(-3.928 -34.867)" fill="#c7eefd"/>
        <path id="Trazado_823528" data-name="Trazado 823528" d="M79.924,98.937a3.764,3.764,0,0,1,3,1.488c2.708,2.683,5.392,5.388,8.086,8.085a3.59,3.59,0,0,0,.509.495c1.2.794,1.056,1.934.916,3.138-.113.979-.238,1.951-.415,2.921-.08.439-.265.539-.677.417a11.327,11.327,0,0,0-8.931.893c-.415.225-.632-.014-.867-.247q-1.977-1.96-3.942-3.933c-2.038-2.04-4.064-4.091-6.117-6.116-.327-.322-.3-.481.007-.785q2.58-2.531,5.12-5.1a3.911,3.911,0,0,1,3.313-1.253" transform="translate(-37.354 -51.857)" fill="#e19873"/>
        <path id="Trazado_823529" data-name="Trazado 823529" d="M18.3,140.09a6.589,6.589,0,0,1,6.528,4.743,18.277,18.277,0,0,1,.285,2.078,2.819,2.819,0,0,0,1.429,2.064,5,5,0,0,1,2.539,3.583,5.525,5.525,0,0,1-.075,2.46c-.118.443-.3.617-.829.427a25.99,25.99,0,0,1-12.294-8.883,30.566,30.566,0,0,1-2.254-3.541.58.58,0,0,1,.093-.787,6.409,6.409,0,0,1,4.58-2.143" transform="translate(-7.087 -73.445)" fill="#baea6b"/>
        <path id="Trazado_823530" data-name="Trazado 823530" d="M90.2,140.3a11.4,11.4,0,0,1,3.236.218c.448.105.55.26.355.688a25.839,25.839,0,0,1-15.8,14.388c-.668.226-.72.178-.588-.515a8.945,8.945,0,0,1,3.925-6.031,4.225,4.225,0,0,0,1.738-2.668,8.04,8.04,0,0,1,4.68-5.472,6.394,6.394,0,0,1,2.45-.608" transform="translate(-40.55 -73.539)" fill="#baea6b"/>
      </g>
    </g>
  </g>
</svg>
