<svg xmlns="http://www.w3.org/2000/svg" xmlns:xlink="http://www.w3.org/1999/xlink" width="145" height="145" viewBox="0 0 145 145">
  <defs>
    <clipPath id="clip-path">
      <rect id="Rectángulo_379489" data-name="Rectángulo 379489" width="97.345" height="97.314" fill="none"/>
    </clipPath>
  </defs>
  <g id="Grupo_1075430" data-name="Grupo 1075430" transform="translate(-750 -4320)">
    <g id="Grupo_1075431" data-name="Grupo 1075431" transform="translate(750 4320)">
      <g id="Grupo_1075432" data-name="Grupo 1075432">
        <circle id="Elipse_5883" data-name="Elipse 5883" cx="72.5" cy="72.5" r="72.5" fill="#c1e29a"/>
        <g id="Grupo_1075382" data-name="Grupo 1075382" transform="translate(23.988 23.847)">
          <g id="Grupo_1075400" data-name="Grupo 1075400" transform="translate(0 0)" clip-path="url(#clip-path)">
            <path id="Trazado_826461" data-name="Trazado 826461" d="M71.892,95.861c-.149,1.389-1.128,1.441-2.214,1.44q-17.851-.019-35.7-.008c-4.659,0-9.318-.03-13.977.021-1.162.013-1.981-.262-2.3-1.455a1.712,1.712,0,0,1,1.856-1.4c1.1.061,2.516.374,3.248-.164.893-.657.249-2.162.321-3.3.062-.986.527-1.564,1.465-1.559a1.338,1.338,0,0,1,1.363,1.5,18.545,18.545,0,0,1-.006,2.426c-.142,1.236.643,1.141,1.421,1.1.7-.033,1.589.294,1.519-1.015-.078-1.463.039-2.936-.034-4.4-.183-3.666-2.558-6.22-6.042-6.3-4.6-.1-9.2-.09-13.8-.008a5.963,5.963,0,0,0-5.924,5.408c-.2,1.7-.069,3.432-.164,5.146-.053.948.31,1.157,1.213,1.209,1.332.078,2-.254,1.744-1.709a13.112,13.112,0,0,1-.016-1.363c-.071-1.1.245-2.011,1.487-1.988,1.192.022,1.329,1,1.36,1.975.095,3.029.1,3.055,3.111,3.036,1.1-.007,2.034.1,2.287,1.4a1.755,1.755,0,0,1-1.987,1.443C8.72,97.269,5.326,97.28,1.933,97.3c-.987.006-1.8-.3-1.813-1.364a50.588,50.588,0,0,1,.116-8.343c.7-4.483,3.921-7.278,8.827-7.764-1.572-2.3-2.629-4.7-2.174-7.493A9.124,9.124,0,0,1,22.11,66.95c3.438,3.172,3.692,7.224.734,12.869a9.488,9.488,0,0,1,7.45,4.164,9.5,9.5,0,0,1,7.636-4.15,9.453,9.453,0,0,1-2.048-8.477,8.744,8.744,0,0,1,3.507-5.137,9.014,9.014,0,0,1,11.658.9c2.977,2.917,4.049,7.962.459,12.636a12.035,12.035,0,0,1,4.3,1.227,10.539,10.539,0,0,1,3.4,3.2V45.411c-2.55,1.473-4.6.131-6.716-1.212-3.663-2.323-7.4-4.529-11.085-6.817-3.754-2.33-3.893-6.694-.288-9.207a1.09,1.09,0,0,0,.621-1.049c-.034-.789-.009-1.58-.009-2.612-1.689,1.125-3.193,2.109-4.677,3.123a3.106,3.106,0,0,1-3.287.39,2.955,2.955,0,0,1-1.587-3.016q.045-5.775,0-11.549A2.986,2.986,0,0,1,33.65,10.52a2.938,2.938,0,0,1,3.387.365c.568.419,1.223.726,1.76,1.177a8.032,8.032,0,0,0,6.111,1.965c2.12-.17,3.488,1.329,3.524,3.452.018,1.063.008,2.127,0,3.191-.011,2.252-.852,3.33-3.04,3.858-.427.1-1.014.009-.869.711.16.78-.559,1.885.5,2.312,3.022,1.224,5.591,3.207,8.358,4.85,1,.591,1.448.611,2.012-.443.857-1.6,1.83-3.144,2.809-4.676a5.12,5.12,0,0,1,4.141-2.691c1.333-.067.5-.766.326-1.188A10.055,10.055,0,0,1,69.037,9.574a9.531,9.531,0,0,1,10.31,3.016,9.735,9.735,0,0,1,1.815,10.455c-.168.46-.522.855-.5,1.4a2.7,2.7,0,0,0,2.581-.73,8.657,8.657,0,0,0,3.594-8.482,80.783,80.783,0,0,1-.059-9.718,5.268,5.268,0,0,1,10-2.535,5.712,5.712,0,0,1,.562,2.636c-.005,5.268-.018,10.536.005,15.8A7.047,7.047,0,0,1,95.12,26.7c-3.277,3.237-6.5,6.524-9.786,9.755a2.731,2.731,0,0,0-.956,2.246c.078,1.567-.021,3.141.036,4.709a1.968,1.968,0,0,1-1.36,2.227A2.059,2.059,0,0,1,81.5,43.249a53.943,53.943,0,0,0,.009-5.619,2.952,2.952,0,0,1,1-2.4c3.493-3.45,6.943-6.943,10.43-10.4A4.469,4.469,0,0,0,94.5,21.667c.027-3.393,0-6.787.022-10.18,0-.621-.174-.867-.844-.933-4-.4-4-.414-4,3.5a6.412,6.412,0,0,0,.008,1.062c.75,4.393-.777,7.742-4.274,10.51-1.433,1.134-2.648,1.953-4.53,1.8-1.216-.1-2.529-.38-3.7.309a9.985,9.985,0,0,1-10.742-.023,4.87,4.87,0,0,0-6.091,1.557c-.98,1.588-1.936,3.19-2.911,4.78-1.844,3.006-1.845,3-4.808,1.212-.987-.6-2.092-1.748-2.958-1.6-1.028.181-1.3,1.871-2.04,2.814-.544.7-.522,1.117.345,1.6,2.062,1.159,4.064,2.427,6.066,3.689,3.376,2.128,3.073,2.064,5.057-1.25.459-.768.931-1.527,1.992-1.248,1.091.287,1.032,1.2,1.03,2.08-.011,5.217.025,10.434-.03,15.65-.012,1.082.314,1.353,1.365,1.344q8.355-.075,16.712,0c1.008.008,1.444-.172,1.387-1.3-.1-1.92.007-3.849-.04-5.772-.027-1.13.364-1.85,1.53-2.037,1.3.285,1.364,1.261,1.362,2.338-.014,9.252.01,18.5-.032,27.755a2.464,2.464,0,0,0,1.167,2.357,8.6,8.6,0,0,1,3.722,7.385c.032,2.072,0,4.146.015,6.218.013,1.352-.5,2.048-1.977,2.021-3.234-.058-6.47-.035-9.705-.008-1.047.009-1.78-.288-1.913-1.44a1.412,1.412,0,0,1,1.485-1.395c1.1-.053,2.509.469,3.221-.224s.168-2.111.241-3.207c.063-.939.515-1.585,1.468-1.6,1-.016,1.384.707,1.42,1.615a24.048,24.048,0,0,1,.009,2.429c-.083,1.334.883.913,1.555.969.741.062,1.4.1,1.33-1.033-.092-1.462-.011-2.935-.027-4.4a6.137,6.137,0,0,0-5.953-6.233q-6.98-.175-13.968-.01a6.02,6.02,0,0,0-5.9,6.1c-.024,1.417.056,2.838-.027,4.251-.06,1.028.216,1.377,1.314,1.393,1.2.017,1.649-.321,1.492-1.522a8.63,8.63,0,0,1,0-1.971c.09-.883.513-1.611,1.5-1.579.955.031,1.375.7,1.449,1.629.087,1.091-.5,2.539.273,3.184.8.67,2.233.151,3.386.213.1.005.2.006.3,0a1.4,1.4,0,0,1,1.63,1.391M44.775,82.707c-2.228,0-4.456-.016-6.684,0a6.148,6.148,0,0,0-6.128,4.674c-.591,2.132-.147,4.329-.255,6.494-.017.337.15.523.506.629,1.7.5,2.495-.072,2.5-1.852,0-.557.03-1.115,0-1.671A1.276,1.276,0,0,1,36,89.46a1.36,1.36,0,0,1,1.446,1.432,14.857,14.857,0,0,1,0,2.277c-.106,1.036.217,1.4,1.316,1.371,3.239-.074,6.481-.026,9.722-.026,3.277,0,3.277,0,3.438-3.207.008-.152.016-.3.026-.455a1.327,1.327,0,0,1,1.3-1.4,1.407,1.407,0,0,1,1.49,1.413,13.05,13.05,0,0,1,.016,2.579c-.109,1.108.543,1.111,1.309,1.057.7-.049,1.586.3,1.514-1.015a34.1,34.1,0,0,1,0-4.4,6.219,6.219,0,0,0-6.426-6.374c-2.126.032-4.254.006-6.38,0M64.667,19.268a7.251,7.251,0,0,0,7.244,7.2,7.369,7.369,0,0,0,7.135-7.191,7.189,7.189,0,1,0-14.379-.007m1.974,60.523c-3.478-4.673-2.972-9.949,1.094-13.3,4.145-3.416,9.24-2.609,13.72,2.265,0-2.312-.024-4.521.014-6.728.012-.689-.249-.845-.883-.844q-8.731.013-17.463-.03c-.706,0-.972.183-.969.932.025,6.219.014,12.438.014,18.777a14.557,14.557,0,0,1,4.471-1.072m6.738-12.377a6.149,6.149,0,0,0-6.146,6.3,6.24,6.24,0,1,0,6.146-6.3m-22.5,6.345a6.119,6.119,0,0,0-6.094-6.343,6.284,6.284,0,0,0-6.4,6.122,6.352,6.352,0,0,0,6.256,6.293,6.2,6.2,0,0,0,6.234-6.072M16.024,67.415A6.125,6.125,0,0,0,9.71,73.424a6.206,6.206,0,1,0,6.314-6.009m19.05-41.958c1.51-.994,2.8-1.857,4.111-2.7a1.26,1.26,0,0,0,.678-1.217c-.046-1.513-.01-3.029-.019-4.543,0-.336.107-.71-.267-.957-1.471-.972-2.938-1.95-4.5-2.989Zm56.807-17.8c2.874-.03,2.569.272,2.6-1.343C94.516,4.093,93.584,2.83,92,2.877c-1.505.044-2.16,1.182-2.343,3.253-.2,2.227,1.352,1.34,2.225,1.525M41.416,32.74a4.529,4.529,0,0,0,2.97,3.07,15.021,15.021,0,0,0,2.521-3.744c-.025-.522-2.251-1.763-3.143-1.752a2.4,2.4,0,0,0-2.348,2.426m1.248-13.617c0,2.557,0,2.509,1.781,2.5.851,0,1.193-.281,1.148-1.124A13.762,13.762,0,0,1,45.6,18.4c.117-1.162-.286-1.563-1.508-1.59-1.275-.029-1.586.455-1.431,1.565a5.493,5.493,0,0,1,.005.752" transform="translate(0 0)" fill="#0b0b0a"/>
            <path id="Trazado_826462" data-name="Trazado 826462" d="M191.2,73c-1.166.187-1.557.906-1.53,2.037.047,1.923-.058,3.852.04,5.772.057,1.132-.379,1.313-1.387,1.3q-8.356-.068-16.712,0c-1.052.009-1.377-.262-1.365-1.344.055-5.216.019-10.433.03-15.65,0-.883.061-1.793-1.03-2.08-1.061-.279-1.533.48-1.992,1.248-1.983,3.314-1.681,3.378-5.057,1.25-2-1.262-4-2.53-6.066-3.689-.867-.487-.889-.909-.345-1.6.737-.942,1.012-2.632,2.04-2.813.866-.153,1.971,1,2.957,1.6,2.963,1.788,2.963,1.794,4.808-1.212.976-1.59,1.931-3.193,2.911-4.78a4.869,4.869,0,0,1,6.091-1.557,9.985,9.985,0,0,0,10.742.023c1.174-.689,2.488-.408,3.7-.309,1.883.154,3.1-.664,4.53-1.8,3.5-2.768,5.024-6.116,4.275-10.51a6.415,6.415,0,0,1-.008-1.063c0-3.918,0-3.9,4-3.5.67.066.848.312.844.933-.02,3.393.005,6.787-.022,10.18a4.468,4.468,0,0,1-1.566,3.169c-3.487,3.456-6.937,6.949-10.43,10.4a2.952,2.952,0,0,0-1,2.4,53.95,53.95,0,0,1-.009,5.619,2.06,2.06,0,0,0,1.556,2.386q0,1.8-.009,3.6" transform="translate(-108.158 -23.762)" fill="#8ccfea"/>
            <path id="Trazado_826463" data-name="Trazado 826463" d="M20.758,285.075c-.252-1.3-1.187-1.406-2.287-1.4-3.007.02-3.017-.007-3.112-3.036-.03-.976-.168-1.953-1.36-1.975-1.242-.023-1.559.887-1.487,1.988a12.95,12.95,0,0,0,.016,1.363c.253,1.455-.412,1.787-1.744,1.709-.9-.053-1.266-.262-1.213-1.209.1-1.714-.034-3.448.164-5.146a5.963,5.963,0,0,1,5.924-5.408c4.6-.082,9.2-.092,13.8.008,3.483.075,5.859,2.63,6.041,6.3.073,1.463-.044,2.936.034,4.4.069,1.309-.819.982-1.519,1.015-.778.037-1.562.132-1.421-1.1a18.488,18.488,0,0,0,.006-2.425,1.338,1.338,0,0,0-1.363-1.5c-.938-.006-1.4.573-1.465,1.558-.072,1.133.573,2.638-.321,3.295-.732.539-2.144.226-3.248.165a1.712,1.712,0,0,0-1.857,1.4l-3.594,0" transform="translate(-6.657 -189.212)" fill="#e15d95"/>
            <path id="Trazado_826464" data-name="Trazado 826464" d="M210.407,285.083a1.4,1.4,0,0,0-1.63-1.391c-.1,0-.2,0-.3,0-1.154-.062-2.584.457-3.386-.213-.773-.646-.186-2.093-.273-3.184-.075-.928-.494-1.6-1.449-1.629-.987-.032-1.41.7-1.5,1.579a8.65,8.65,0,0,0,0,1.971c.157,1.2-.293,1.539-1.492,1.522-1.1-.016-1.374-.365-1.314-1.393.083-1.412,0-2.834.027-4.251a6.02,6.02,0,0,1,5.9-6.1q6.981-.161,13.968.01a6.136,6.136,0,0,1,5.953,6.233c.016,1.468-.065,2.94.027,4.4.071,1.133-.589,1.1-1.33,1.033-.671-.056-1.637.366-1.555-.969a23.976,23.976,0,0,0-.009-2.429c-.036-.908-.422-1.631-1.42-1.615-.952.015-1.4.661-1.468,1.6-.074,1.1.474,2.511-.241,3.207s-2.12.171-3.221.224a1.411,1.411,0,0,0-1.485,1.395h-3.793" transform="translate(-138.516 -189.222)" fill="#f7aa71"/>
            <path id="Trazado_826465" data-name="Trazado 826465" d="M76.415,34.2c1.034-.048,3.189,2.3,3.046,3.314a1.3,1.3,0,0,1-2,1.021,6.953,6.953,0,0,1-2.216-2.226A1.439,1.439,0,0,1,76.415,34.2" transform="translate(-52.233 -23.799)" fill="#0b0b0a"/>
            <path id="Trazado_826466" data-name="Trazado 826466" d="M69.014,61.577c-.351,0-.7.011-1.052,0a1.409,1.409,0,0,1-1.521-1.5,1.333,1.333,0,0,1,1.527-1.3c.7.014,1.4-.008,2.1,0,.861.015,1.458.352,1.479,1.314.021,1-.536,1.451-1.485,1.488-.35.014-.7,0-1.052,0" transform="translate(-46.235 -40.897)" fill="#0b0b0a"/>
            <path id="Trazado_826467" data-name="Trazado 826467" d="M79.489,78.917c.008.894-2.069,3.062-2.967,3.042-1.069-.024-1.688-.707-1.373-1.664A4.636,4.636,0,0,1,77.78,77.6a1.28,1.28,0,0,1,1.708,1.317" transform="translate(-52.239 -53.931)" fill="#0b0b0a"/>
            <path id="Trazado_826468" data-name="Trazado 826468" d="M117.2,271.956c2.127,0,4.254.028,6.38,0A6.219,6.219,0,0,1,130,278.326a34.1,34.1,0,0,0,0,4.4c.072,1.313-.816.966-1.514,1.015-.767.054-1.418.051-1.31-1.057a13.027,13.027,0,0,0-.016-2.579,1.407,1.407,0,0,0-1.49-1.414,1.328,1.328,0,0,0-1.3,1.4q-.015.227-.026.455c-.161,3.207-.161,3.207-3.438,3.207-3.241,0-6.483-.048-9.722.026-1.1.025-1.422-.335-1.316-1.371a14.9,14.9,0,0,0,0-2.277,1.36,1.36,0,0,0-1.446-1.432,1.276,1.276,0,0,0-1.294,1.525c.031.555,0,1.114,0,1.671,0,1.78-.8,2.357-2.5,1.852-.356-.106-.523-.292-.506-.629.107-2.165-.336-4.361.255-6.494a6.148,6.148,0,0,1,6.128-4.674c2.228-.02,4.456,0,6.684,0" transform="translate(-72.421 -189.247)" fill="#9db91e"/>
            <path id="Trazado_826469" data-name="Trazado 826469" d="M212.646,46.825a7.189,7.189,0,1,1,14.379.007,7.369,7.369,0,0,1-7.135,7.191,7.251,7.251,0,0,1-7.243-7.2" transform="translate(-147.979 -27.557)" fill="#f7aa71"/>
            <path id="Trazado_826470" data-name="Trazado 826470" d="M208.873,219.731A14.554,14.554,0,0,0,204.4,220.8c0-6.339.011-12.558-.014-18.777,0-.749.263-.935.969-.932q8.731.047,17.463.03c.634,0,.895.155.883.844-.038,2.207-.014,4.415-.014,6.728-4.481-4.874-9.575-5.681-13.72-2.265-4.067,3.352-4.572,8.627-1.094,13.3" transform="translate(-142.232 -139.94)" fill="#8ccfea"/>
            <path id="Trazado_826471" data-name="Trazado 826471" d="M227.229,221.677a6.211,6.211,0,1,1-6.146,6.3,6.149,6.149,0,0,1,6.146-6.3" transform="translate(-153.85 -154.263)" fill="#f7aa71"/>
            <path id="Trazado_826472" data-name="Trazado 826472" d="M138.711,228.028a6.2,6.2,0,0,1-6.234,6.072,6.352,6.352,0,0,1-6.256-6.293,6.284,6.284,0,0,1,6.4-6.121,6.119,6.119,0,0,1,6.094,6.343" transform="translate(-87.836 -154.268)" fill="#f7aa71"/>
            <path id="Trazado_826473" data-name="Trazado 826473" d="M38.238,221.68a6.21,6.21,0,1,1-6.314,6.009,6.161,6.161,0,0,1,6.314-6.009" transform="translate(-22.213 -154.265)" fill="#f7aa71"/>
            <path id="Trazado_826474" data-name="Trazado 826474" d="M115.337,55.328v-12.4c1.565,1.04,3.032,2.018,4.5,2.989.374.247.265.62.267.957.009,1.514-.027,3.03.019,4.543a1.259,1.259,0,0,1-.678,1.217c-1.308.84-2.6,1.7-4.111,2.7" transform="translate(-80.262 -29.871)" fill="#f6f8f9"/>
            <path id="Trazado_826475" data-name="Trazado 826475" d="M297.005,14.235c-.873-.185-2.422.7-2.225-1.525.183-2.071.838-3.208,2.343-3.253,1.585-.047,2.517,1.216,2.479,3.435-.027,1.615.277,1.313-2.6,1.343" transform="translate(-205.124 -6.58)" fill="#f7aa71"/>
            <path id="Trazado_826476" data-name="Trazado 826476" d="M136.189,102.111a2.4,2.4,0,0,1,2.348-2.425c.891-.012,3.118,1.229,3.143,1.751a15.021,15.021,0,0,1-2.521,3.744,4.528,4.528,0,0,1-2.97-3.07" transform="translate(-94.773 -69.371)" fill="#f7aa71"/>
            <path id="Trazado_826477" data-name="Trazado 826477" d="M140.2,57.579a5.49,5.49,0,0,0-.005-.752c-.155-1.11.156-1.593,1.431-1.565,1.223.027,1.625.428,1.508,1.59a13.763,13.763,0,0,0-.006,2.107c.045.843-.3,1.122-1.148,1.124-1.781,0-1.781.052-1.781-2.5" transform="translate(-97.535 -38.456)" fill="#e15d95"/>
          </g>
        </g>
      </g>
    </g>
  </g>
</svg>
