<svg xmlns="http://www.w3.org/2000/svg" xmlns:xlink="http://www.w3.org/1999/xlink" width="169" height="169" viewBox="0 0 169 169">
  <defs>
    <clipPath id="clip-path">
      <rect id="Rect치ngulo_378255" data-name="Rect치ngulo 378255" width="104" height="104.125" fill="none"/>
    </clipPath>
  </defs>
  <g id="Grupo_1073955" data-name="Grupo 1073955" transform="translate(-719 -2877.811)">
    <g id="Grupo_1073327" data-name="Grupo 1073327" transform="translate(334 819.811)">
      <g id="Grupo_159182" data-name="Grupo 159182" transform="translate(385.001 2058)">
        <path id="Uni칩n_12" data-name="Uni칩n 12" d="M84.5,0A84.5,84.5,0,1,1,0,84.5,84.5,84.5,0,0,1,84.5,0Z" transform="translate(0 0)" fill="#ffae7e"/>
      </g>
    </g>
    <g id="Grupo_1073959" data-name="Grupo 1073959" transform="translate(751.5 2908.339)">
      <g id="Grupo_1073958" data-name="Grupo 1073958" clip-path="url(#clip-path)">
        <path id="Trazado_823635" data-name="Trazado 823635" d="M134.975,33.433a30.708,30.708,0,1,0-61.41,0,30.708,30.708,0,1,0,61.41,0" transform="translate(-43.56 -1.379)" fill="#f8f9fb"/>
        <path id="Trazado_823636" data-name="Trazado 823636" d="M1.621,70.787A1.629,1.629,0,0,1,.246,68.3a1.241,1.241,0,0,1,.923-.589,25.1,25.1,0,0,1,2.531-.1,18.576,18.576,0,0,0,6.051-1.354,47.834,47.834,0,0,1,4.772-1.788,18.518,18.518,0,0,1,3.235-.624,32.941,32.941,0,0,1,5.738-.2,27.587,27.587,0,0,1,5.529.905c1,.267,1.966.658,2.935,1,1.132.4,2.226.927,3.387,1.269a20.375,20.375,0,0,0,3.7.7c1.5.153,3,.088,4.5.1,1.022.007,2.019-.228,3.032-.308.246-.02.31-.179.272-.377a12.776,12.776,0,0,1-.162-1.982,6.816,6.816,0,0,1-.125-1.042c.022-.193-.126-.15-.238-.163a30.7,30.7,0,0,1-5.844-1.161,28.147,28.147,0,0,1-4.236-1.534A25.556,25.556,0,0,1,32.826,59.2a3.488,3.488,0,0,0-2.237-.644c-1.709.053-3.422.051-5.131.006a24.519,24.519,0,0,1-5.069-.753,24.743,24.743,0,0,1-6.374-2.419,31.524,31.524,0,0,1-4.04-2.663A27.9,27.9,0,0,1,4.936,47.3,25.451,25.451,0,0,1,2.13,42.385,25.638,25.638,0,0,1,.713,37.9a26.478,26.478,0,0,1-.578-2.85,34.844,34.844,0,0,1-.121-4.286A13.055,13.055,0,0,1,.263,28a33.885,33.885,0,0,1,1.164-4.7,27.59,27.59,0,0,1,1.562-3.641,29.76,29.76,0,0,1,2.4-3.723,25.168,25.168,0,0,1,1.921-2.28,26.718,26.718,0,0,1,4.128-3.584A27.293,27.293,0,0,1,18.75,6.521a30.477,30.477,0,0,1,4.051-.9,45.217,45.217,0,0,1,8.255-.286,3.575,3.575,0,0,0,2-.793,31.159,31.159,0,0,1,5.418-2.59,33.522,33.522,0,0,1,5.187-1.4A20.669,20.669,0,0,1,46.756.139c4.936-.256,9.875-.077,14.813-.1a24.594,24.594,0,0,1,4.7.332c1.391.267,2.78.626,4.158,1A28.52,28.52,0,0,1,78.587,5.1a16.106,16.106,0,0,1,2.622,1.978,1.476,1.476,0,0,1,.019,2.114,1.731,1.731,0,0,1-2.112.066,22.417,22.417,0,0,0-3.227-2.172c-.552-.315-1.1-.666-1.659-.981a22.371,22.371,0,0,0-4.294-1.739,25.692,25.692,0,0,0-4.306-.958,20.382,20.382,0,0,0-2.584-.259c-.872-.008-1.75-.1-2.624-.066a30.629,30.629,0,0,0-6.552.954A31.3,31.3,0,0,0,48.405,6.12a27.445,27.445,0,0,0-8.385,6.408,29.286,29.286,0,0,0-5.563,8.909,27.621,27.621,0,0,0-1.5,4.84,31.3,31.3,0,0,0-.444,5.906,27.365,27.365,0,0,0,5.423,16.712,33.679,33.679,0,0,0,5.388,5.666c.629.521,1.312.977,1.978,1.452.1.073.235.176.371.1s.1-.246.075-.361c-.228-1.308-.49-2.611-.7-3.922a40.4,40.4,0,0,0-1.237-4.919,20.141,20.141,0,0,0-2.092-4.04,23.168,23.168,0,0,1-2.081-5.044,21.483,21.483,0,0,1-.666-3.308,26.138,26.138,0,0,1-.1-3.7,22.015,22.015,0,0,1,1.407-6.89,20.153,20.153,0,0,1,2.375-4.451,22.582,22.582,0,0,1,7.165-6.891,20.647,20.647,0,0,1,4-1.837A27.008,27.008,0,0,1,58.456,9.61a19.258,19.258,0,0,1,4.928-.061,28.417,28.417,0,0,1,5.691,1.271,18.988,18.988,0,0,1,5.327,2.8,23.14,23.14,0,0,1,7.135,8.456,22.431,22.431,0,0,1,1.941,6.165,21.417,21.417,0,0,1,.276,5.469A25.607,25.607,0,0,1,82.736,38.8a19.046,19.046,0,0,1-2.683,5.6c-.211.3-.088.4.119.545a40.348,40.348,0,0,1,4.5,3.525c.217.2.282.049.375-.082a28.981,28.981,0,0,0,2.923-5.307,27.727,27.727,0,0,0,1.779-5.908,30.034,30.034,0,0,0,.34-3.316,17.64,17.64,0,0,0,.071-3.325,42.734,42.734,0,0,0-.567-4.52c-.243-1.076-.545-2.135-.859-3.184-.163-.542-.516-1.087-.7-1.618-.274-.77-.648-1.491-.932-2.251a15.6,15.6,0,0,0-1.514-2.756c-.686-1.1-1.527-2.078-2.306-3.106a1.291,1.291,0,0,1-.1-1.4,1.25,1.25,0,0,1,1.2-.808,1.69,1.69,0,0,1,1.459.684,31.788,31.788,0,0,1,4.509,7.076,30.474,30.474,0,0,1,1.936,5.65c.295,1.214.519,2.448.716,3.682a10.03,10.03,0,0,1,.126,1.65c-.007,1.027.189,2.045.126,3.078a36.75,36.75,0,0,1-1,6.806,32.894,32.894,0,0,1-2.693,7.351,28.421,28.421,0,0,1-2.264,3.548.527.527,0,0,0,.012.784,35.66,35.66,0,0,1,7.141,13.172c.055.2.111.334.45.238a19.463,19.463,0,0,1,3.763-.768c1.134-.092,2.268-.189,3.4-.25a2.257,2.257,0,0,1,.94.126,1.387,1.387,0,0,1,.989,1.678,1.482,1.482,0,0,1-1.195,1.2.556.556,0,0,0-.312.127c-.388-.007-.777-.024-1.164-.02a23.6,23.6,0,0,0-4.3.509,7.505,7.505,0,0,0-1.233.333c-.175.066-.5.087-.421.439a35.7,35.7,0,0,1,.606,3.842,46.117,46.117,0,0,1,.4,5.764c0,1.88.009,3.76-.005,5.64,0,.37.062.516.475.419a24.8,24.8,0,0,1,5.314-.563.068.068,0,0,0,.115,0l.2-.021.1.027c.029.047.064.067.11.02a1.443,1.443,0,0,1,1.315,1.727,1.554,1.554,0,0,1-1.425,1.3,28.082,28.082,0,0,0-3.533.209,14.4,14.4,0,0,0-2.961.538c-.9.305-1.809.633-2.691,1.014a25.255,25.255,0,0,1-9.976,2.273c-1.18,0-2.359.024-3.543-.056a23.453,23.453,0,0,1-2.846-.377,23.216,23.216,0,0,1-4.635-1.437,24.566,24.566,0,0,0-7.719-2.074,32.784,32.784,0,0,0-5.3.038,14.014,14.014,0,0,0-1.652.186,26.033,26.033,0,0,0-4.071,1.178c-.589.228-1.264.359-1.786.618-.584.29-1.2.488-1.789.715a18.568,18.568,0,0,1-5.9,1.2,33.774,33.774,0,0,1-6.1-.17,22.066,22.066,0,0,1-4.917-1.228,31.9,31.9,0,0,0-7.96-2.389c-1.221-.138-2.445-.169-3.656-.2a23.608,23.608,0,0,0-3.443.233,19.689,19.689,0,0,0-4.847,1.233c-1.149.453-2.295.924-3.466,1.313a19.56,19.56,0,0,1-5.74,1.14c-.709.016-1.415.132-2.127.091a.6.6,0,0,0-.373.122,2.3,2.3,0,0,1-1.322-.87,1.514,1.514,0,0,1,.823-2.191c.232-.069.463-.139.695-.209.26.246.527-.122.782.006.677.339,1.355-.022,2.018-.049a16.062,16.062,0,0,0,4.3-.907c.8-.262,1.578-.593,2.356-.919a26,26,0,0,1,7.792-1.978,33.509,33.509,0,0,1,5.329-.051,26.067,26.067,0,0,1,2.7.4,30.717,30.717,0,0,1,6,1.94,21.4,21.4,0,0,0,4.712,1.429,29.88,29.88,0,0,0,4.979.249,25.493,25.493,0,0,0,4.335-.479c.6-.113.728-.354.582-.976a1.309,1.309,0,0,1-.029-.3c0-1.389-.009-2.777,0-4.166a1.364,1.364,0,0,1,.806-1.333,4.294,4.294,0,0,1,.709-.192l.27.115c.518.218,1.037.448,1.153,1.079a7.657,7.657,0,0,1,.1,1.093c.039,1.046.061,2.092.093,3.139.007.241-.029.384.358.234a33.7,33.7,0,0,1,5.76-1.833,31.48,31.48,0,0,1,4.249-.427,30.1,30.1,0,0,1,4.975.258A21.186,21.186,0,0,1,70.5,84.357c1.412.5,2.8,1.07,4.2,1.582a20.683,20.683,0,0,0,6.9,1.2,29.368,29.368,0,0,0,5.331-.345A33.662,33.662,0,0,0,93.1,84.78c.192-.073.338-.163.285-.4a.061.061,0,0,0-.007-.088,109.856,109.856,0,0,0-.345-11.369c-.135-1.171-.286-2.344-.479-3.5a33.779,33.779,0,0,0-1.147-4.753,31.812,31.812,0,0,0-2.272-5.492,40.158,40.158,0,0,0-2.293-3.666A35.747,35.747,0,0,0,84.6,52.658a22.6,22.6,0,0,0-2.818-2.749,34.494,34.494,0,0,0-5.12-3.637,44.7,44.7,0,0,0-5.887-2.8c-1.536-.582-3.072-1.151-4.654-1.592a.657.657,0,0,0-.131-.071,71.152,71.152,0,0,0-7.151-1.552,61.01,61.01,0,0,0-6.066-.752c-1.608-.106-3.212-.313-4.838-.278-1.19.026-2.391-.06-3.587-.081a3.172,3.172,0,0,0-.839-.074c-.128.032-.319.053-.189.317a18.119,18.119,0,0,0,1.742,3.187,10.332,10.332,0,0,1,1.244,2.269,22.091,22.091,0,0,1,1,3.229,39.271,39.271,0,0,1,.9,4.221c.169,1.215.483,2.411.573,3.639.029.385.113.759.144,1.145.05.646.1,1.3.217,1.936.2,1.126.214,2.266.36,3.4.144,1.11.232,2.229.3,3.348a6.977,6.977,0,0,1,.171,1.171,6.886,6.886,0,0,0-.04,1.4c.123,1.707.29,3.411.295,5.124,0,.132.045.263.055.4a4.243,4.243,0,0,1-.061,1.953,1.517,1.517,0,0,1-2.9-.526,9.243,9.243,0,0,1-.158-1.527,18.8,18.8,0,0,0-.073-2.873c-.028-.563-.09-.639-.661-.5a10.93,10.93,0,0,1-2.18.265,36.382,36.382,0,0,1-6.47-.192,20.68,20.68,0,0,1-3.2-.708C32.74,69.188,31,68.36,29.184,67.761a21.967,21.967,0,0,0-5.126-.986,31.322,31.322,0,0,0-6.489.162,19.262,19.262,0,0,0-4.651,1.336,38.617,38.617,0,0,1-5.26,1.805,39.19,39.19,0,0,1-6.036.709m25.938-15.3c.078.038.175.062.226-.013s0-.15-.1-.17c-.113-.124-.221-.253-.34-.37a33.171,33.171,0,0,1-7.267-10.517c-.291-.668-.565-1.345-.848-2.017-.227-.866-.549-1.7-.73-2.587-.219-1.072-.433-2.143-.634-3.22a20.009,20.009,0,0,1-.35-2.994,29.34,29.34,0,0,1,.38-6.543,37.459,37.459,0,0,1,1.478-5.77,32.614,32.614,0,0,1,8.3-12.624c.1-.039.222-.08.175-.222-.028-.084-.115-.094-.2-.048a31.011,31.011,0,0,0-3.426.159,19.532,19.532,0,0,0-5.443,1.169A23.47,23.47,0,0,0,6.721,19.342,21.118,21.118,0,0,0,4.428,24.05a26.282,26.282,0,0,0-.841,3.077,19.412,19.412,0,0,0-.492,3.48,24.175,24.175,0,0,0,.449,6.18,23.373,23.373,0,0,0,2.149,5.938c.153.3.292.606.461.9a23.585,23.585,0,0,0,14.2,11.065,21.268,21.268,0,0,0,7.211.808M61.224,12.483a19.691,19.691,0,0,0-9.508,2.538,18.956,18.956,0,0,0-4.783,3.8,20.421,20.421,0,0,0-2.927,4.248,19.279,19.279,0,0,0-2.13,9.066,26.426,26.426,0,0,0,.325,3.561c.044.3.208.409.525.4,2.2-.062,4.4,0,6.59.12,1.679.094,3.357.182,5.032.376,1.607.186,3.213.353,4.808.627,1.676.288,3.34.62,5,1.008a48.934,48.934,0,0,1,12.6,4.685c.412.228.67.212.889-.228a33,33,0,0,0,1.514-3.117,23.117,23.117,0,0,0,1.033-2.907,19.04,19.04,0,0,0,.547-6.227,22.067,22.067,0,0,0-.74-4.14,19.047,19.047,0,0,0-4.647-7.882,19.489,19.489,0,0,0-14.125-5.924M47.521,3.2a8.955,8.955,0,0,0-1.972.17A22.23,22.23,0,0,0,39.29,4.9a22.491,22.491,0,0,0-2.982,1.39c-.635.367-1.342.648-1.968,1.045a29.611,29.611,0,0,0-7.482,6.639,29.917,29.917,0,0,0-3.883,6.472c-.283.641-.519,1.3-.787,1.95a17.6,17.6,0,0,0-.915,2.964,19.2,19.2,0,0,0-.437,2.491,21.864,21.864,0,0,0-.271,2.833,33.023,33.023,0,0,0,.08,3.373c.121.807.074,1.642.224,2.441a29.549,29.549,0,0,0,1.573,5.779,31.506,31.506,0,0,0,4.027,7.181,29.105,29.105,0,0,0,13.225,9.7,28.081,28.081,0,0,0,6.014,1.417c.193.027.513.17.628-.122.122-.311-.175-.432-.383-.568-.071-.046-.15-.078-.223-.12a28.139,28.139,0,0,1-4.285-2.887A32.684,32.684,0,0,1,31.259,42.569a38.771,38.771,0,0,1-1.445-5.7,27.543,27.543,0,0,1-.389-4.243c-.021-.687.019-1.372-.016-2.061a13.29,13.29,0,0,1,.194-1.937,28.534,28.534,0,0,1,.5-3.168,32.056,32.056,0,0,1,2.154-6.638A32.347,32.347,0,0,1,37.2,11.166a30.227,30.227,0,0,1,8.086-6.786c.7-.394,1.419-.749,2.233-1.176" transform="translate(0 0)"/>
        <path id="Trazado_823637" data-name="Trazado 823637" d="M3.763,215.336a.6.6,0,0,1,.373-.122c.712.041,1.418-.076,2.127-.091a19.555,19.555,0,0,0,5.74-1.14c1.172-.389,2.317-.86,3.466-1.313a19.7,19.7,0,0,1,4.848-1.233,23.612,23.612,0,0,1,3.443-.233c1.211.03,2.435.062,3.656.2a31.891,31.891,0,0,1,7.959,2.389,22.062,22.062,0,0,0,4.918,1.228,33.773,33.773,0,0,0,6.1.17,18.564,18.564,0,0,0,5.9-1.2c.594-.226,1.205-.425,1.789-.715.523-.259,1.2-.39,1.786-.618a26.033,26.033,0,0,1,4.071-1.178,13.922,13.922,0,0,1,1.652-.186,32.833,32.833,0,0,1,5.3-.038,24.558,24.558,0,0,1,7.719,2.075,23.215,23.215,0,0,0,4.635,1.437,23.453,23.453,0,0,0,2.846.377c1.184.08,2.362.06,3.543.056a25.244,25.244,0,0,0,9.975-2.273c.882-.381,1.789-.708,2.691-1.014a14.418,14.418,0,0,1,2.961-.538,28.085,28.085,0,0,1,3.533-.209q0,7.875.009,15.75c0,.722.007.715-.7.715q-8.662-.007-17.325-.01-3.516,0-7.032,0c-.854,0-1.707.013-2.561.006-.187,0-.412.087-.551-.134a1.1,1.1,0,0,1,.259-.484,4.438,4.438,0,0,0-3.662-6.7,4.453,4.453,0,0,0-4.481,4.949,6.475,6.475,0,0,0,.967,2.364l-4.418,0q-30.482,0-60.963.015c-.446,0-.573-.117-.572-.569.014-3.912,0-7.824,0-11.736m24.806,1.258c0-2.721-1.862-4.416-4.865-4.424a4.228,4.228,0,0,0-3.947,4.354,4.406,4.406,0,0,0,8.812.07" transform="translate(-2.228 -125.041)" fill="#77c2a3"/>
        <path id="Trazado_823638" data-name="Trazado 823638" d="M3.86,167.588a39.19,39.19,0,0,0,6.036-.709,38.586,38.586,0,0,0,5.261-1.805,19.275,19.275,0,0,1,4.651-1.336,31.289,31.289,0,0,1,6.489-.162,21.973,21.973,0,0,1,5.126.986c1.818.6,3.556,1.427,5.391,1.984a20.642,20.642,0,0,0,3.2.707,36.345,36.345,0,0,0,6.47.192,10.93,10.93,0,0,0,2.18-.265c.571-.142.633-.065.661.5a18.7,18.7,0,0,1,.073,2.873,9.286,9.286,0,0,0,.158,1.527,1.509,1.509,0,0,0,1.187,1.4.722.722,0,0,1,.386.662c0,.794.133,1.573.211,2.358a4.3,4.3,0,0,0-.709.192,1.365,1.365,0,0,0-.807,1.333c-.01,1.388,0,2.777,0,4.166a1.31,1.31,0,0,0,.029.3c.146.622.017.863-.582.976a25.5,25.5,0,0,1-4.336.48,29.926,29.926,0,0,1-4.979-.249,21.4,21.4,0,0,1-4.712-1.429,30.693,30.693,0,0,0-6-1.94,25.983,25.983,0,0,0-2.7-.4,33.464,33.464,0,0,0-5.329.052,26,26,0,0,0-7.792,1.977c-.777.326-1.556.657-2.356.919a16.063,16.063,0,0,1-4.3.907c-.663.027-1.341.388-2.017.049-.255-.128-.522.239-.782-.006a1.622,1.622,0,0,1-.188-.864q.01-7.031,0-14.063a6.674,6.674,0,0,1,.077-1.31" transform="translate(-2.239 -96.8)" fill="#8fd8f9"/>
        <path id="Trazado_823639" data-name="Trazado 823639" d="M240.582,179.917a24.807,24.807,0,0,0-5.314.563c-.412.1-.478-.049-.475-.419.014-1.88,0-3.76.005-5.64a46.193,46.193,0,0,0-.4-5.764,35.8,35.8,0,0,0-.606-3.842c-.084-.352.246-.373.421-.439a7.521,7.521,0,0,1,1.233-.333,23.6,23.6,0,0,1,4.3-.509c.388,0,.776.013,1.164.02.2,2.72.068,5.445.069,8.168s.14,5.451-.086,8.172l-.2.022h-.115" transform="translate(-138.43 -96.834)" fill="#8fd8f9"/>
        <path id="Trazado_823640" data-name="Trazado 823640" d="M164.011,240.886a6.479,6.479,0,0,1-.967-2.364,4.453,4.453,0,0,1,4.481-4.95,4.438,4.438,0,0,1,3.662,6.7,1.09,1.09,0,0,0-.259.485,6.856,6.856,0,0,1-2.006,1.369,4.1,4.1,0,0,1-4.413-.852c-.16-.143-.4-.178-.5-.391m2.048-2.937a1.291,1.291,0,0,0,1.31,1.416,1.319,1.319,0,0,0,1.448-1.288,1.348,1.348,0,0,0-1.347-1.459,1.329,1.329,0,0,0-1.412,1.332" transform="translate(-96.523 -138.304)"/>
        <path id="Trazado_823641" data-name="Trazado 823641" d="M251.585,203.7c-.046.048-.081.028-.11-.02.044-.034.082-.033.11.02" transform="translate(-148.907 -120.592)" fill="#3f6f93"/>
        <path id="Trazado_823642" data-name="Trazado 823642" d="M148.638,102.68c1.582.441,3.119,1.009,4.654,1.592a44.672,44.672,0,0,1,5.887,2.8,34.515,34.515,0,0,1,5.12,3.637,22.652,22.652,0,0,1,2.818,2.749,35.812,35.812,0,0,1,2.245,2.852,40.039,40.039,0,0,1,2.293,3.666,31.841,31.841,0,0,1,2.272,5.492,33.839,33.839,0,0,1,1.147,4.753c.193,1.156.344,2.329.479,3.5a109.85,109.85,0,0,1,.345,11.369c-.01.008-.03.021-.029.025a.46.46,0,0,0,.036.063c.053.239-.093.329-.285.4a33.665,33.665,0,0,1-6.165,2.012,29.332,29.332,0,0,1-5.331.346,20.684,20.684,0,0,1-6.9-1.2c-1.407-.511-2.791-1.085-4.2-1.582a21.211,21.211,0,0,0-4.444-1,30.145,30.145,0,0,0-4.975-.259,31.415,31.415,0,0,0-4.249.428c.093-.867.027-1.739.062-2.609.085-2.141.126-4.284.221-6.426.063-1.432.158-2.862.243-4.292.031-.519.02-1.047.1-1.562.21-1.35.217-2.718.375-4.073a1.508,1.508,0,0,1,.527-1.239c.183.052.242.228.346.356a4.1,4.1,0,0,0,4.316,1.579,4.4,4.4,0,0,0,3.292-5.745,4.089,4.089,0,0,0-2.215-2.533,4.746,4.746,0,0,0-2.86-.364,6.107,6.107,0,0,0-2.172,1.06,1.24,1.24,0,0,1-.11-.54,7.35,7.35,0,0,1,.313-1.887c.312-1.51.673-3.011,1.131-4.482.325-1.044.7-2.077,1.128-3.083a14.057,14.057,0,0,1,1.42-2.623,10.072,10.072,0,0,1,1.842-2.1,11.891,11.891,0,0,0,1.326-1.078m20.386,27.307a4.424,4.424,0,0,0-4.293-4.471c-2.605.13-4.476,1.653-4.493,4.529a4.393,4.393,0,0,0,8.785-.058" transform="translate(-82.516 -60.8)" fill="#94d6a3"/>
        <path id="Trazado_823643" data-name="Trazado 823643" d="M122.018,30.606a19.49,19.49,0,0,1,14.125,5.924,19.053,19.053,0,0,1,4.647,7.882,22.133,22.133,0,0,1,.74,4.141,19.041,19.041,0,0,1-.547,6.227,23.11,23.11,0,0,1-1.032,2.907,33.151,33.151,0,0,1-1.514,3.117c-.219.44-.477.456-.889.228a48.925,48.925,0,0,0-12.6-4.685c-1.657-.388-3.321-.721-5-1.008-1.595-.274-3.2-.441-4.808-.627-1.676-.194-3.353-.283-5.033-.376-2.194-.122-4.392-.182-6.59-.12-.316.009-.48-.1-.524-.4a26.354,26.354,0,0,1-.325-3.561,19.284,19.284,0,0,1,2.13-9.066,20.425,20.425,0,0,1,2.927-4.248,18.954,18.954,0,0,1,4.783-3.795,19.687,19.687,0,0,1,9.509-2.539m8.422,16.862v-.017q-2.461,0-4.923,0a1.711,1.711,0,0,0-1.187.334,1.625,1.625,0,0,0-.452,1.749,1.356,1.356,0,0,0,1.4.945c3.35,0,6.7-.007,10.049,0a1.57,1.57,0,0,0,.969-.374,1.878,1.878,0,0,0,.573-1.434,1.93,1.93,0,0,0-1.454-1.2q-2.487,0-4.974,0M119.387,40.5v-.008c-.61,0-1.219,0-1.829,0-1.084,0-2.168-.009-3.251.024a1.619,1.619,0,0,0-1.46,1.385,1.584,1.584,0,0,0,1.255,1.565,3.69,3.69,0,0,0,.706.067q4.623,0,9.246-.007a3.247,3.247,0,0,0,.7-.078,1.4,1.4,0,0,0,1.115-1.282,1.468,1.468,0,0,0-1.559-1.658c-1.642-.024-3.285-.007-4.927-.007" transform="translate(-60.793 -18.123)" fill="#3f6f93"/>
        <path id="Trazado_823644" data-name="Trazado 823644" d="M128.952,98.575a11.929,11.929,0,0,1-1.326,1.078,10.073,10.073,0,0,0-1.843,2.1,14.056,14.056,0,0,0-1.419,2.623c-.427,1.006-.8,2.039-1.129,3.083-.458,1.471-.819,2.972-1.131,4.482a7.385,7.385,0,0,0-.313,1.887,1.246,1.246,0,0,0,.11.54,9.043,9.043,0,0,0-.77,1.041,4.8,4.8,0,0,0,.062,4.607,1.508,1.508,0,0,0-.527,1.239c-.158,1.355-.165,2.723-.375,4.073-.08.515-.069,1.043-.1,1.562-.084,1.43-.179,2.86-.242,4.291-.095,2.143-.135,4.286-.221,6.427-.034.87.031,1.742-.062,2.609a33.684,33.684,0,0,0-5.76,1.833c-.386.151-.351.007-.358-.234-.032-1.046-.055-2.093-.093-3.139a7.534,7.534,0,0,0-.1-1.093c-.115-.631-.635-.861-1.152-1.079l-.27-.115c-.078-.785-.208-1.565-.211-2.358a.722.722,0,0,0-.385-.662,1.511,1.511,0,0,0,1.717-.87,4.26,4.26,0,0,0,.061-1.953c-.01-.133-.055-.263-.055-.4-.006-1.714-.172-3.417-.295-5.124a6.86,6.86,0,0,1,.04-1.4,6.9,6.9,0,0,0-.171-1.17c-.065-1.118-.154-2.238-.3-3.348-.146-1.129-.16-2.269-.359-3.4-.113-.635-.167-1.29-.217-1.936-.03-.385-.115-.76-.144-1.145-.091-1.227-.4-2.423-.573-3.638a39.063,39.063,0,0,0-.9-4.221,22.2,22.2,0,0,0-1-3.229,10.353,10.353,0,0,0-1.244-2.269,18.116,18.116,0,0,1-1.742-3.187c-.129-.264.06-.286.189-.318a3.189,3.189,0,0,1,.839.074c1.2.02,2.4.107,3.588.081,1.626-.035,3.23.171,4.838.278a61.018,61.018,0,0,1,6.065.752,71.118,71.118,0,0,1,7.15,1.552.653.653,0,0,1,.131.071" transform="translate(-62.83 -56.695)" fill="#77c2a3"/>
        <path id="Trazado_823645" data-name="Trazado 823645" d="M77.372,7.831c-.814.427-1.535.782-2.233,1.176a30.227,30.227,0,0,0-8.086,6.786,32.347,32.347,0,0,0-4.945,7.651,32.056,32.056,0,0,0-2.154,6.638,28.532,28.532,0,0,0-.5,3.168,13.29,13.29,0,0,0-.194,1.937c.035.689,0,1.375.016,2.061a27.543,27.543,0,0,0,.389,4.243,38.771,38.771,0,0,0,1.445,5.7A32.684,32.684,0,0,0,71.3,61.51,28.14,28.14,0,0,0,75.581,64.4c.073.042.153.074.223.12.209.136.5.257.383.568-.115.292-.434.149-.628.122a28.081,28.081,0,0,1-6.014-1.417,29.105,29.105,0,0,1-13.225-9.7A31.506,31.506,0,0,1,52.294,46.9a29.549,29.549,0,0,1-1.573-5.779c-.15-.8-.1-1.634-.224-2.441a33.02,33.02,0,0,1-.08-3.373,21.862,21.862,0,0,1,.271-2.833,19.2,19.2,0,0,1,.437-2.491,17.6,17.6,0,0,1,.915-2.964c.268-.648.5-1.309.787-1.95A29.917,29.917,0,0,1,56.71,18.6a29.611,29.611,0,0,1,7.482-6.639c.625-.4,1.333-.678,1.968-1.045a22.491,22.491,0,0,1,2.982-1.39A22.23,22.23,0,0,1,75.4,8a8.955,8.955,0,0,1,1.972-.17" transform="translate(-29.85 -4.626)" fill="#f8f9fb"/>
        <path id="Trazado_823646" data-name="Trazado 823646" d="M10.157,54.9a23.342,23.342,0,0,1-2.149-5.938,24.157,24.157,0,0,1-.449-6.18,19.4,19.4,0,0,1,.492-3.48,26.268,26.268,0,0,1,.842-3.077,21.105,21.105,0,0,1,2.293-4.707A23.472,23.472,0,0,1,23.249,21.9a19.538,19.538,0,0,1,5.443-1.169,31,31,0,0,1,3.426-.159l.022.27a32.615,32.615,0,0,0-8.3,12.624,37.5,37.5,0,0,0-1.477,5.77,29.292,29.292,0,0,0-.38,6.543,20.056,20.056,0,0,0,.35,2.994c.2,1.076.415,2.147.634,3.22.181.886.5,1.72.731,2.587a1.435,1.435,0,0,1-1.142.416c-4.132-.056-8.266.091-12.4-.1" transform="translate(-4.465 -12.173)" fill="#f8f9fb"/>
        <path id="Trazado_823647" data-name="Trazado 823647" d="M13.956,104.287c4.131.188,8.265.041,12.4.1a1.435,1.435,0,0,0,1.142-.416c.282.673.556,1.349.847,2.017A33.184,33.184,0,0,0,35.609,116.5c.12.117.227.246.34.37a.208.208,0,0,0-.126.183,21.279,21.279,0,0,1-7.211-.808,23.587,23.587,0,0,1-14.2-11.065c-.169-.29-.308-.6-.461-.9" transform="translate(-8.264 -61.563)" fill="#8fd8f9"/>
        <path id="Trazado_823648" data-name="Trazado 823648" d="M67.569,135.791a.209.209,0,0,1,.126-.183c.1.02.158.084.1.17s-.147.051-.226.013" transform="translate(-40.01 -80.298)" fill="#77c2a3"/>
        <path id="Trazado_823649" data-name="Trazado 823649" d="M67.821,20.821c-.008-.09-.015-.18-.022-.27.081-.046.168-.036.2.048.047.142-.071.183-.175.222" transform="translate(-40.146 -12.153)" fill="#77c2a3"/>
        <path id="Trazado_823650" data-name="Trazado 823650" d="M250.454,203.7h.115a.068.068,0,0,1-.115,0" transform="translate(-148.302 -120.617)" fill="#3f6f93"/>
        <path id="Trazado_823651" data-name="Trazado 823651" d="M228.918,206.748a.485.485,0,0,1-.036-.063s.019-.016.029-.025a.062.062,0,0,1,.007.088" transform="translate(-135.528 -122.37)" fill="#3f6f93"/>
        <path id="Trazado_823652" data-name="Trazado 823652" d="M51.787,218.048a4.406,4.406,0,0,1-8.812-.07,4.228,4.228,0,0,1,3.947-4.354c3,.007,4.867,1.7,4.865,4.424m-3.049.007c.006-.883-.433-1.374-1.235-1.381-.913-.008-1.482.469-1.5,1.26a1.4,1.4,0,0,0,1.394,1.434,1.265,1.265,0,0,0,1.344-1.313" transform="translate(-25.447 -126.494)"/>
        <path id="Trazado_823653" data-name="Trazado 823653" d="M170.488,242.376a1.329,1.329,0,0,1,1.412-1.332,1.348,1.348,0,0,1,1.347,1.459,1.319,1.319,0,0,1-1.448,1.288,1.291,1.291,0,0,1-1.31-1.416" transform="translate(-100.951 -142.73)" fill="#3f6f93"/>
        <path id="Trazado_823654" data-name="Trazado 823654" d="M142.194,145.409a4.8,4.8,0,0,1-.062-4.607,8.99,8.99,0,0,1,.77-1.041,6.1,6.1,0,0,1,2.172-1.06,4.749,4.749,0,0,1,2.86.364,4.088,4.088,0,0,1,2.214,2.533,4.395,4.395,0,0,1-3.292,5.744,4.1,4.1,0,0,1-4.316-1.579c-.1-.127-.163-.3-.347-.356m2.413-2.4a1.387,1.387,0,1,0,1.386-1.356,1.318,1.318,0,0,0-1.386,1.356" transform="translate(-83.83 -82.087)"/>
        <path id="Trazado_823655" data-name="Trazado 823655" d="M199.345,163.133a4.393,4.393,0,0,1-8.786.058c.017-2.876,1.888-4.4,4.493-4.529a4.424,4.424,0,0,1,4.293,4.471m-4.338,1.381a1.355,1.355,0,0,0,1.386-1.324,1.422,1.422,0,0,0-1.471-1.424,1.375,1.375,0,1,0,.085,2.748" transform="translate(-112.836 -93.947)"/>
        <path id="Trazado_823656" data-name="Trazado 823656" d="M161.1,71.922q2.487,0,4.974,0a1.929,1.929,0,0,1,1.454,1.2,1.877,1.877,0,0,1-.573,1.434,1.568,1.568,0,0,1-.968.374c-3.349-.007-6.7,0-10.049,0a1.357,1.357,0,0,1-1.4-.945,1.626,1.626,0,0,1,.452-1.749,1.713,1.713,0,0,1,1.188-.334q2.462,0,4.923,0v.017" transform="translate(-91.45 -42.577)"/>
        <path id="Trazado_823657" data-name="Trazado 823657" d="M134.162,54.844c1.642,0,3.285-.018,4.927.007a1.468,1.468,0,0,1,1.559,1.658,1.4,1.4,0,0,1-1.115,1.282,3.247,3.247,0,0,1-.7.078q-4.623.011-9.246.007a3.689,3.689,0,0,1-.706-.067,1.584,1.584,0,0,1-1.255-1.565,1.619,1.619,0,0,1,1.46-1.385c1.083-.032,2.167-.019,3.251-.024.61,0,1.219,0,1.829,0v.008" transform="translate(-75.568 -32.47)"/>
        <path id="Trazado_823658" data-name="Trazado 823658" d="M53.128,222.483a1.265,1.265,0,0,1-1.344,1.313,1.4,1.4,0,0,1-1.394-1.434c.02-.791.589-1.268,1.5-1.26.8.007,1.242.5,1.235,1.381" transform="translate(-29.837 -130.922)" fill="#3f6f93"/>
        <path id="Trazado_823659" data-name="Trazado 823659" d="M149.01,147.405a1.318,1.318,0,0,1,1.386-1.356,1.382,1.382,0,1,1-1.386,1.356" transform="translate(-88.234 -86.48)" fill="#3f6f93"/>
        <path id="Trazado_823660" data-name="Trazado 823660" d="M199.353,169.027a1.375,1.375,0,1,1-.085-2.748,1.422,1.422,0,0,1,1.471,1.424,1.355,1.355,0,0,1-1.386,1.324" transform="translate(-117.182 -98.459)" fill="#3f6f93"/>
      </g>
    </g>
  </g>
</svg>
