<svg xmlns="http://www.w3.org/2000/svg" width="77" height="74" viewBox="0 0 77 74">
  <g id="Grupo_1072924" data-name="Grupo 1072924" transform="translate(-1489.665 -195.289)">
    <path id="Unión_13" data-name="Unión 13" d="M6.346,13.847V8.654H1.154a1.154,1.154,0,0,1,0-2.308H6.346V1.154a1.154,1.154,0,0,1,2.308,0V6.346h5.192a1.154,1.154,0,0,1,0,2.308H8.654v5.193a1.154,1.154,0,0,1-2.308,0Z" transform="translate(1489.665 195.289)" fill="#264100"/>
    <path id="Unión_18" data-name="Unión 18" d="M6.346,13.847V8.654H1.154a1.154,1.154,0,0,1,0-2.308H6.346V1.154a1.154,1.154,0,0,1,2.308,0V6.346h5.192a1.154,1.154,0,0,1,0,2.308H8.654v5.193a1.154,1.154,0,0,1-2.308,0Z" transform="translate(1489.665 224.289)" fill="#264100"/>
    <path id="Unión_21" data-name="Unión 21" d="M6.346,13.847V8.654H1.154a1.154,1.154,0,0,1,0-2.308H6.346V1.154a1.154,1.154,0,0,1,2.308,0V6.346h5.192a1.154,1.154,0,0,1,0,2.308H8.654v5.193a1.154,1.154,0,0,1-2.308,0Z" transform="translate(1489.665 254.289)" fill="#264100"/>
    <path id="Unión_14" data-name="Unión 14" d="M6.346,13.847V8.654H1.154a1.154,1.154,0,0,1,0-2.308H6.346V1.154a1.154,1.154,0,0,1,2.308,0V6.346h5.192a1.154,1.154,0,0,1,0,2.308H8.654v5.193a1.154,1.154,0,0,1-2.308,0Z" transform="translate(1520.665 195.289)" fill="#264100"/>
    <path id="Unión_17" data-name="Unión 17" d="M6.346,13.847V8.654H1.154a1.154,1.154,0,0,1,0-2.308H6.346V1.154a1.154,1.154,0,0,1,2.308,0V6.346h5.192a1.154,1.154,0,0,1,0,2.308H8.654v5.193a1.154,1.154,0,0,1-2.308,0Z" transform="translate(1520.665 224.289)" fill="#264100"/>
    <path id="Unión_20" data-name="Unión 20" d="M6.346,13.847V8.654H1.154a1.154,1.154,0,0,1,0-2.308H6.346V1.154a1.154,1.154,0,0,1,2.308,0V6.346h5.192a1.154,1.154,0,0,1,0,2.308H8.654v5.193a1.154,1.154,0,0,1-2.308,0Z" transform="translate(1520.665 254.289)" fill="#264100"/>
    <path id="Unión_15" data-name="Unión 15" d="M6.346,13.847V8.654H1.154a1.154,1.154,0,0,1,0-2.308H6.346V1.154a1.154,1.154,0,0,1,2.308,0V6.346h5.192a1.154,1.154,0,0,1,0,2.308H8.654v5.193a1.154,1.154,0,0,1-2.308,0Z" transform="translate(1551.665 195.289)" fill="#264100"/>
    <path id="Unión_16" data-name="Unión 16" d="M6.346,13.847V8.654H1.154a1.154,1.154,0,0,1,0-2.308H6.346V1.154a1.154,1.154,0,0,1,2.308,0V6.346h5.192a1.154,1.154,0,0,1,0,2.308H8.654v5.193a1.154,1.154,0,0,1-2.308,0Z" transform="translate(1551.665 224.289)" fill="#264100"/>
    <path id="Unión_19" data-name="Unión 19" d="M6.346,13.847V8.654H1.154a1.154,1.154,0,0,1,0-2.308H6.346V1.154a1.154,1.154,0,0,1,2.308,0V6.346h5.192a1.154,1.154,0,0,1,0,2.308H8.654v5.193a1.154,1.154,0,0,1-2.308,0Z" transform="translate(1551.665 254.289)" fill="#264100"/>
  </g>
</svg>
